<svg id="Layer_1" data-name="Layer 1" xmlns="http://www.w3.org/2000/svg" viewBox="0 0 200 83.88"><defs><style>.cls-1{fill:#1a344e;}.cls-2{fill:#326ae9;}.cls-3{fill:#fad3d3;}.cls-4{fill:#f43451;}.cls-5{fill:#041d35;}.cls-6{fill:#0e1c29;}.cls-7{fill:#121f2d;}.cls-8{fill:#111d2b;}.cls-9{fill:#072039;}.cls-10{fill:#0f1e2c;}.cls-11{fill:#1f344d;}.cls-12{fill:#1e334c;}.cls-13{fill:#203751;}.cls-14{fill:#172737;}.cls-15{fill:#1e394e;}.cls-16{fill:#131e2b;}.cls-17{fill:#15212e;}.cls-18{fill:#16222e;}.cls-19{fill:#203852;}.cls-20{fill:#1e344e;}.cls-21{fill:#31445a;}.cls-22{fill:#17222d;}.cls-23{fill:#182736;}.cls-24{fill:#223a54;}.cls-25{fill:#223951;}.cls-26{fill:#142633;}.cls-27{fill:#263b52;}.cls-28{fill:#1b2331;}.cls-29{fill:#142431;}.cls-30{fill:#192432;}.cls-31{fill:#26394f;}.cls-32{fill:#1d3442;}.cls-33{fill:#21303f;}.cls-34{fill:#273b51;}.cls-35{fill:#222f3d;}.cls-36{fill:#1d2734;}.cls-37{fill:#233142;}.cls-38{fill:#1a2937;}.cls-39{fill:#363945;}.cls-40{fill:#16222f;}.cls-41{fill:#242c39;}.cls-42{fill:#434f62;}.cls-43{fill:#4b2431;}.cls-44{fill:#0f1d2c;}.cls-45{fill:#24334d;}.cls-46{fill:#d6dadf;}.cls-47{fill:#2d3e51;}.cls-48{fill:#5a666f;}.cls-49{fill:#71b2da;}.cls-50{fill:#34435a;}.cls-51{fill:#324154;}.cls-52{fill:#353f4a;}.cls-53{fill:#efffa4;}.cls-54{fill:#1d344e;}.cls-55{fill:#1b3550;}.cls-56{fill:#363334;}.cls-57{fill:#20273b;}.cls-58{fill:#223a53;}.cls-59{fill:#182b41;}.cls-60{fill:#202a3e;}.cls-61{fill:#283e5f;}.cls-62{fill:#be4e98;}.cls-63{fill:#3b394f;}.cls-64{fill:#443a50;}.cls-65{fill:#336ae9;}.cls-66{fill:#336be9;}.cls-67{fill:#1f3851;}.cls-68{fill:#363133;}.cls-69{fill:#253a50;}.cls-70{fill:#25374f;}.cls-71{fill:#2b2829;}.cls-72{fill:#1c2738;}.cls-73{fill:#1f3249;}.cls-74{fill:#222b40;}.cls-75{fill:#25364e;}.cls-76{fill:#1f2434;}.cls-77{fill:#2c3d55;}.cls-78{fill:#433343;}.cls-79{fill:#2d2f2a;}.cls-80{fill:#b1344f;}.cls-81{fill:#273348;}.cls-82{fill:#222b3d;}.cls-83{fill:#27273a;}.cls-84{fill:#7c7887;}.cls-85{fill:#1c364f;}.cls-86{fill:#1f3951;}.cls-87{fill:#1c2f42;}.cls-88{fill:#1b2d3f;}.cls-89{fill:#1b2938;}.cls-90{fill:#424458;}.cls-91{fill:#0a3a69;}.cls-92{fill:#093b69;}.cls-93{fill:#1e324b;}.cls-94{fill:#2b324b;}.cls-95{fill:#f9d3d3;}.cls-96{fill:#fff;}.cls-97{fill:#121e2b;}.cls-98{fill:#27324b;}.cls-99{fill:#332634;}.cls-100{fill:#132030;}.cls-101{fill:#093a69;}.cls-102{fill:#2a4d57;}.cls-103{fill:#7eb8b7;}.cls-104{fill:#2b3c54;}.cls-105{fill:#0e1b28;}.cls-106{fill:#1d3650;}.cls-107{fill:#353436;}.cls-108{fill:#373537;}.cls-109{fill:#353435;}.cls-110{fill:#223953;}.cls-111{fill:#23364e;}.cls-112{fill:#1d3c54;}.cls-113{fill:#40383a;}.cls-114{fill:#232321;}.cls-115{fill:#24435a;}.cls-116{fill:#213a50;}.cls-117{fill:#1a2c3a;}.cls-118{fill:#1d3744;}.cls-119{fill:#2e3042;}.cls-120{fill:#f3ffd1;}.cls-121{fill:#203850;}.cls-122{fill:#222533;}.cls-123{fill:#1e2335;}.cls-124{fill:#334658;}.cls-125{fill:#182b3c;}.cls-126{fill:#25323e;}</style></defs><path class="cls-1" d="M108.59,30.3a3.35,3.35,0,0,0,.24-1c.1-.5.16-1,.24-1.51A10.6,10.6,0,0,0,107.94,21a12.41,12.41,0,0,0-8.26-6.62A12,12,0,0,0,86.6,19.53a9,9,0,0,0-1.36,3.61A21.65,21.65,0,0,0,85,26.45a6.77,6.77,0,0,0,.18,1.74,2.54,2.54,0,0,0,.1.55c.14-.1.09-.24.1-.36s.07,0,0,0,0,0,0,.05,0,.3.23.18a2.78,2.78,0,0,0,.07-1.15,9.84,9.84,0,0,1,.49-3.69,11.77,11.77,0,0,1,2.18-3.89.7.7,0,0,1,.7-.22l6.61.92c2.76.38,5.53.8,8.3,1.12a9,9,0,0,0,1.8.11,1.22,1.22,0,0,1,1.19.63,8.32,8.32,0,0,1,1.16,3,23.21,23.21,0,0,1,.26,2.76,5.74,5.74,0,0,1-.22,1.64,1.74,1.74,0,0,0-.08.6c0,.14.07.36.22.35s.21-.24.26-.41,0,0,0,0S108.58,30.26,108.59,30.3Z"/><path class="cls-2" d="M101.75,54.7a.92.92,0,0,1,.37,0,3,3,0,0,0,.89-.18.5.5,0,0,0,.39-.51,1.23,1.23,0,0,1,0-.27.17.17,0,0,0-.06-.15.3.3,0,0,0-.08-.08l0,0a.85.85,0,0,1-.12-.49l0-.19a1.25,1.25,0,0,1,0-.69,5.9,5.9,0,0,1,.2-.72l.09-.27a2.33,2.33,0,0,0,0-.38,7.5,7.5,0,0,0,0-1.42c-.07-.16-.23-.19-.35-.26a.51.51,0,0,0-.2-.06c-.26,0-.5.09-.75.1h-3A15.12,15.12,0,0,1,96.92,49a9,9,0,0,0-1,0c-2.82,0-5.63-.22-8.45-.2a.39.39,0,0,1-.34-.1.53.53,0,0,0-.66.1,3.66,3.66,0,0,0,.51,2.29,5.44,5.44,0,0,0,2.37,2.51,4.8,4.8,0,0,1,.85.56.76.76,0,0,0,.23.13c.11,0,.22,0,.32,0l.67,0a.69.69,0,0,0,.44.11c2.3-.06,4.6.13,6.9.09.73,0,1.46,0,2.19,0A2,2,0,0,1,101.75,54.7Z"/><path class="cls-3" d="M91.56,54.83a.9.9,0,0,0,0,.77c.09.07.08.17.09.27a.65.65,0,0,0,0,.19c0,.39,0,.78,0,1.16,0,1,0,2.05,0,3.07a.88.88,0,0,0,.11.57.74.74,0,0,0,.52.13c1.24,0,2.48,0,3.72,0a.44.44,0,0,0,.22,0c.19-.18.15-.43.15-.65,0-1.14,0-2.28,0-3.28a29.28,29.28,0,0,1,.1,3.43.74.74,0,0,0,.12.48,3.25,3.25,0,0,0,1.27.2c1,0,2-.05,3,.08a.65.65,0,0,0,.41-.07c.2-.2.15-.46.15-.7a4.68,4.68,0,0,1,.08-.54,3.86,3.86,0,0,0,0-.68c0-1.12.08-2.23.06-3.34a.54.54,0,0,1,.09-.44l-.2-.64a.67.67,0,0,0-.56-.16c-2.81,0-5.62,0-8.44,0C92.15,54.69,91.82,54.61,91.56,54.83Z"/><path class="cls-4" d="M108.07,49.09c0-.05.08-.09.15-.06a.45.45,0,0,0,.26,0,2.22,2.22,0,0,0,1.15-1.29,8.12,8.12,0,0,0,.36-3.59,9.89,9.89,0,0,0-.82-3.29c-.24-.42-.42-.87-.69-1.27l-.09-.11s0,0,0,0c-.19-.18-.36-.37-.56-.54a1.42,1.42,0,0,0-1.21-.4c-.07,0-.17,0-.17-.08s.1-.09.17-.13.06-.06.09-.09l0-.06a.56.56,0,0,1-.29-.21,2.13,2.13,0,0,0-1.33-.65c-.26,0-.52,0-.78-.07a.64.64,0,0,1-.41,0l-.13,0-.16.07-.11.06a1.14,1.14,0,0,1-.55.24c-.42.18-.86.33-1,.82a8.15,8.15,0,0,0-.91,2.39,15.42,15.42,0,0,0-.21,1.78,2.07,2.07,0,0,0,0,.61l0,.15c.09.49,0,1,.16,1.49,0,.17.08.33.12.49.1.46.2.91.34,1.36a.36.36,0,0,0,0,.11,2.09,2.09,0,0,1,.08.23.49.49,0,0,0,0,.11l.06.16,0,.12c.16.53.61.78,1,1a.83.83,0,0,1,.48.61.23.23,0,0,0,.2,0,.37.37,0,0,0,.09-.19.81.81,0,0,0,0-.22.76.76,0,0,0,0-.21,2.38,2.38,0,0,1,0-.59c0-.57,0-1.13,0-1.69a1,1,0,0,0,0-.24c0-.15-.08-.29-.12-.43a30.49,30.49,0,0,1-.61-3.11,1,1,0,0,1,0-.45,7.52,7.52,0,0,1,.9-2.56A1.51,1.51,0,0,1,104.68,38a1.67,1.67,0,0,1,.63,0c0,.08-.2.08-.16.23.27.19.63.23.85.5a1.7,1.7,0,0,1,.15.22,9.2,9.2,0,0,1,.92,3.13c0,.07,0,.14,0,.21a1.55,1.55,0,0,0,0,.21,1.67,1.67,0,0,1,0,.5c.12.75.18,1.52.3,2.27a2.82,2.82,0,0,1,.09.64l0,.14a6.48,6.48,0,0,1,.17,1,2.19,2.19,0,0,1,0,.72,2.28,2.28,0,0,0,0,.45,2.11,2.11,0,0,1,.06.61c0,.12,0,.24.13.31s.11,0,0,0S108.08,49.12,108.07,49.09Z"/><path class="cls-3" d="M88,53.8a.24.24,0,0,0,.08-.19c0-.12,0-.24,0-.36a.11.11,0,0,0,0-.11.36.36,0,0,0-.07-.1L88,53a8,8,0,0,1-1.46-2.26,4.09,4.09,0,0,1-.26-1,1.75,1.75,0,0,1-.06-.56,1.55,1.55,0,0,0,0-.21,6.23,6.23,0,0,1,.27-3.23c.22-.5.46-1,.69-1.49a8,8,0,0,1,.47-.8c.2-.31.14-.51-.21-.57a10.16,10.16,0,0,0-2-.21c-.37,0-.6.13-.66.54a4.93,4.93,0,0,1-.24,1,48.16,48.16,0,0,0-1.14,6.74c0,.19-.06.37-.08.55,0,.47,0,.94-.06,1.41s.23.9.69.85c.14-.05.21-.22.4-.26.23.51,0,1.24.67,1.56.26,0,.27-.22.29-.41a2.8,2.8,0,0,1,.07-.75A3.2,3.2,0,0,0,85.66,55l.09.1a.39.39,0,0,0,.19.1.34.34,0,0,0,.37-.15,1.85,1.85,0,0,0,.1-1.07,1.49,1.49,0,0,1,0-.86c.25.13.34.38.54.52a.88.88,0,0,0,.78.19.27.27,0,0,0,.18-.23.3.3,0,0,1,0-.1s0,.05,0,.08S87.93,53.74,88,53.8Z"/><path class="cls-5" d="M105.6,35.77a3.13,3.13,0,0,0,1,1.47,2.19,2.19,0,0,0,1.68.51,2,2,0,0,0,1.56-1.1,2.93,2.93,0,0,0-1.13-4,2.1,2.1,0,0,0-.83-.28.26.26,0,0,0-.3,0,.25.25,0,0,0-.07.28c.42.31.9.51,1.3.85a1.66,1.66,0,0,1,.6,1.68c0,.16,0,.31,0,.46a1.36,1.36,0,0,1-.88,1.19,1.61,1.61,0,0,1-1.59-.31,2.88,2.88,0,0,1-.72-1,.87.87,0,0,1-.07-.39c0-.12,0-.26-.14-.3s-.21.08-.28.18l-.11.15a1.11,1.11,0,0,0-.17.33.37.37,0,0,0,0,.11C105.42,35.72,105.57,35.67,105.6,35.77Z"/><path class="cls-6" d="M88.59,69a.93.93,0,0,0-.1.2.2.2,0,0,0,.18.27c.16,0,.33.06.5.09a10.46,10.46,0,0,1,1.09.21,2.58,2.58,0,0,0,1,0l.6,0a1.94,1.94,0,0,1,1,.17,1.33,1.33,0,0,0,.86.09,1.74,1.74,0,0,0,.74.44l.36.07a6.91,6.91,0,0,1,.91.15,3.29,3.29,0,0,0,1.25,0,25.7,25.7,0,0,1,2.76-.24,7.77,7.77,0,0,0,1-.08,6.78,6.78,0,0,1,.78,0,1.82,1.82,0,0,0,.33,0c.18,0,.26-.16.22-.37a1.27,1.27,0,0,1,0-.14.67.67,0,0,0,.48-.66,2.87,2.87,0,0,0,0-.88c-.4.14-.25.53-.42.74a2.3,2.3,0,0,1-.85.7,21,21,0,0,1-3.78.49,6.08,6.08,0,0,1-2.21,0,2.22,2.22,0,0,1-.39-.12c-.19-.14-.44-.14-.62-.31a.56.56,0,0,0-.45-.3h-.3a1.94,1.94,0,0,1-1.17-.06,7.7,7.7,0,0,0-1.91-.15,3.72,3.72,0,0,0-.88.05C89.07,69.38,88.89,69,88.59,69Z"/><path class="cls-7" d="M83.39,51.5a5.84,5.84,0,0,0,.16-1.1c.14-1.13.27-2.26.48-3.38l.21-1.28c.06-.39.19-.77.29-1.16,0-.12,0-.24.08-.36a3.83,3.83,0,0,0,.07-.58,1.83,1.83,0,0,1,.51-1.25.41.41,0,0,0,0-.29,5.45,5.45,0,0,1,.29-1.56,5.59,5.59,0,0,1,.35-1.19c0-.12.17-.29-.08-.36a1.41,1.41,0,0,0-.36.68c-.12.3-.21.61-.32.92a6,6,0,0,0-.25,1,.94.94,0,0,1-.24.63.12.12,0,0,0,0,.17.5.5,0,0,1,0,.4c-.14.73-.3,1.45-.49,2.16a6.78,6.78,0,0,0-.19,1c0,.34-.11.67-.16,1l-.27,2.07c-.1.71-.19,1.43-.27,2.15,0,.55-.08,1.11-.11,1.66a.53.53,0,0,0,.09.39c.17,0,.13-.13.14-.22C83.31,52.52,83.3,52,83.39,51.5Z"/><path class="cls-8" d="M108.39,39.68l.65,1.17a7.22,7.22,0,0,1,.83,2.47,9.12,9.12,0,0,1-.06,3.89,3,3,0,0,1-.81,1.48c-.21.21-.19.23,0,.31h0s.06-.07.11-.07h0a.14.14,0,0,1,.12-.1,2.15,2.15,0,0,0,.61-.85,5.44,5.44,0,0,0,.46-1.78,11,11,0,0,0-.81-5.32,7.34,7.34,0,0,0-.86-1.52,3.44,3.44,0,0,0-.78-.79,1.41,1.41,0,0,0-.7-.32,1.06,1.06,0,0,0-.56,0h0c0,.16.09.19.19.2a2.22,2.22,0,0,1,1.48,1.12h0A.18.18,0,0,1,108.39,39.68Z"/><path class="cls-9" d="M85.43,31.77a3.09,3.09,0,0,0-.79,2.68A4.15,4.15,0,0,0,85,35.64a2.81,2.81,0,0,0,1,1.2,1.81,1.81,0,0,0,2.39-.28,1.78,1.78,0,0,0,.32-.44c.16-.09.13-.2,0-.28s-.21,0-.28.07a4.14,4.14,0,0,1-.37.46.81.81,0,0,1-.61.28A2.33,2.33,0,0,1,85.11,34a4.86,4.86,0,0,0,.07-.55,2,2,0,0,1,.74-1.48.16.16,0,0,0,0-.12.25.25,0,0,0-.12-.07C85.65,31.74,85.53,31.69,85.43,31.77Z"/><path class="cls-10" d="M98.77,54.36l-1.94,0-4.76-.06-.69,0c-.18.23-.18.3,0,.44a.42.42,0,0,0,.22,0,8,8,0,0,1,1.69,0c1.12,0,2.24.06,3.36,0a6.76,6.76,0,0,1,1.74,0,1.94,1.94,0,0,0,.59,0c.21,0,.55,0,.55-.18s-.31-.1-.49-.15A.65.65,0,0,1,98.77,54.36Z"/><path class="cls-11" d="M102,69.09a.32.32,0,0,0,.2-.33.53.53,0,0,1,.16-.46l0,.81a.05.05,0,0,0,0,0,4.11,4.11,0,0,0-.24-2.11.89.89,0,0,0-.54-.53c-.28-.07-.22-.3-.22-.49,0-.9,0-1.8,0-2.71a1.14,1.14,0,0,0-.08-.58c-.38-.06-.26.26-.26.41,0,.77,0,1.53,0,2.3s0,.7-.63.38a5.91,5.91,0,0,0-1.14-.46.93.93,0,0,0-.23,0c-.34,0-.65-.15-1-.22a1,1,0,0,0-.67,0,.15.15,0,0,0-.05.14.61.61,0,0,0,.44.22,11.4,11.4,0,0,1,2.36.76,5.14,5.14,0,0,1,1.31.84c.41.32.37.85.42,1.32C101.91,68.59,101.82,68.86,102,69.09Z"/><path class="cls-11" d="M91.08,65.49l-.38.24a.61.61,0,0,0-.27.3c0,.21-.08.43.06.63s.26-.1.35-.2a1.6,1.6,0,0,1,1-.64.66.66,0,0,0,.4-.22,1.5,1.5,0,0,1,1.43-.46,4,4,0,0,1,1.82.64c.2,0,.21-.18.24-.33a.31.31,0,0,0-.06-.13c-.89-.55-2.35-1.25-3.65-.49,0-.69,0-1.35,0-2,0-.18.1-.45-.23-.5a1,1,0,0,0-.11.67c0,.54,0,1.08,0,1.61S91.66,65.25,91.08,65.49Z"/><path class="cls-1" d="M98.77,54.36c.19.25.47.17.81.21a1.49,1.49,0,0,1-.33.14,1.9,1.9,0,0,1-1.08-.09.62.62,0,0,0-.5,0,.64.64,0,0,1-.17,0c-.53,0-1,.14-1.57.1a6.51,6.51,0,0,1-1.24-.08,1.06,1.06,0,0,0-.5,0A2,2,0,0,1,93,54.61a1.17,1.17,0,0,0-.9,0c-.22.08-.47.11-.71.17l.15.08.32,0,7.25,0c.77,0,1.54,0,2.31,0,.1-.05.23-.06.31-.14s0-.22-.15-.25-.27-.06-.41-.07C100.38,54.36,99.58,54.33,98.77,54.36Z"/><path class="cls-12" d="M109.05,49s-.16,0-.11-.1a4.25,4.25,0,0,1,.46-.57A2.45,2.45,0,0,0,110,47c.07-.36.11-.73.18-1.09a1.67,1.67,0,0,0,0-.32c0-.32,0-.65,0-1a6.4,6.4,0,0,0-.46-2.24,1.38,1.38,0,0,1-.1-.4,2.37,2.37,0,0,0-.48-1.13s-.05,0-.08,0c.14.4.28.81.41,1.22a10.71,10.71,0,0,1,.42,4.06,5.44,5.44,0,0,1-.33,1.53,2.41,2.41,0,0,1-.81,1.15,1,1,0,0,0-.25.26C108.69,49.26,108.87,49.14,109.05,49Z"/><path class="cls-13" d="M85.87,31.86l-.3.27a1.76,1.76,0,0,0-.51,1.23c.19,0,.2-.17.25-.29a2.22,2.22,0,0,1,.2-.41c.36-.49.46-.49.72.05.08.15.16.3.23.45s.43.56,0,.82c0,0,0,.05,0,.06a1.67,1.67,0,0,0,1,0c.12-.21,0-.36-.11-.51a12.34,12.34,0,0,1-1.5-3.84c0-.16,0-.35-.22-.42-.27.28-.14.61-.08.91A6.9,6.9,0,0,0,86,31.42c0,.1.07.18-.08.17a.16.16,0,0,1-.1.11s0,0,0,0,0,0,0,0h0A.27.27,0,0,1,85.87,31.86Z"/><path class="cls-14" d="M108.07,49.09l0-.28c-.09-.19,0-.4-.07-.58l0-.44c-.07,0,0-.24-.18-.18-.24.4-.08.83-.11,1.25a.77.77,0,0,0,0,.15,4.41,4.41,0,0,1,.1,1.91,2.35,2.35,0,0,0,.09,1.46c.14.56,0,1.15.1,1.71,0,.08.1.14.2.11a.45.45,0,0,0,.16-.37,8.86,8.86,0,0,0-.12-2.12,3.16,3.16,0,0,1,0-.87A11.39,11.39,0,0,0,108.07,49.09Z"/><path class="cls-15" d="M85.71,39a.16.16,0,0,1,0,.2,8.42,8.42,0,0,0-.59,2,6.29,6.29,0,0,1-.17.62.26.26,0,0,0,.08.33c.23,0,.21-.25.23-.4a9.87,9.87,0,0,1,.58-1.94,1.48,1.48,0,0,1,1.61-1.15h.6a1.51,1.51,0,0,1,.3,0,.38.38,0,0,0,.1,0l.14.06.09,0,.09.05,0,0,.08.06A.22.22,0,0,0,89,39c.08,0,.15-.05.1-.15h0a.28.28,0,0,1-.1-.09h0L89,38.62h0l-.09-.09h0a.35.35,0,0,1-.09-.07h0c-.07-.08-.2,0-.26-.1h0c-.09-.07-.21,0-.29-.08l0,0h0a6.51,6.51,0,0,0-1.65,0,.42.42,0,0,0-.27.14A2.33,2.33,0,0,0,85.71,39Z"/><path class="cls-13" d="M87.45,36.76a.61.61,0,0,0,.54-.2,1.59,1.59,0,0,0,.49-.6c0-.06.08-.11.15-.08s.09.11.05.19,0,0,0,0,.2.14.29.21a5.33,5.33,0,0,0,.73.62c.16,0,.32,0,.46-.06s0-.24-.12-.32a15.74,15.74,0,0,1-2.09-2.15c-.08-.09-.15-.2-.3-.16a.61.61,0,0,0-.15.37,1.56,1.56,0,0,0,.53.84c.23.25.2.42,0,.68S87.55,36.46,87.45,36.76Z"/><path class="cls-16" d="M90.16,36.85h-.27a.25.25,0,0,0-.2.09,7.67,7.67,0,0,0,1.65,1.13c.09.07.14.18.26.22l.19.11a.62.62,0,0,0,.25.11l.23,0,.11,0c.19,0,.41.12.57-.09a.19.19,0,0,0,0-.13.39.39,0,0,0-.08-.1,14.55,14.55,0,0,1-2.39-1.38A.25.25,0,0,0,90.16,36.85Z"/><path class="cls-17" d="M101.25,62.58c0,.31,0,.62,0,.92,0,.88,0,1.76,0,2.63a.31.31,0,0,0,.25.34s.08,0,.12,0-.06-.26-.06-.39c0-.49,0-1,0-1.45.07-.81,0-1.62,0-2.43,0-.21-.08-.29-.28-.2a.28.28,0,0,0-.11.13A.48.48,0,0,0,101.25,62.58Z"/><path class="cls-18" d="M91.08,65.49a.13.13,0,0,0,.2,0,1,1,0,0,1,.55-.23V62.32a.51.51,0,0,0,0-.53.3.3,0,0,0-.09-.13c-.23-.15-.3-.07-.3.17,0,.69,0,1.39,0,2.08a1,1,0,0,1,0,.45,5.72,5.72,0,0,0,0,.58c0,.2,0,.36-.23.43C91.16,65.39,91.12,65.45,91.08,65.49Z"/><path class="cls-19" d="M91.46,64.36c.1-.09.08-.22.08-.34V62.13c0-.13,0-.25,0-.37s0-.12.14-.06l.12.08a.78.78,0,0,0,0-.89c0-1.11,0-2.22,0-3.33,0-.14,0-.28,0-.41a.1.1,0,0,0-.14.05c-.08.75,0,1.5,0,2.26a.87.87,0,0,1-.06.51,1.08,1.08,0,0,0,0-.91,5.86,5.86,0,0,0,0,1.62.07.07,0,0,1,.07.1s0-.05-.07-.05a1.74,1.74,0,0,0-.06.64c0,.94,0,1.87,0,2.81A1.1,1.1,0,0,0,91.46,64.36Z"/><path class="cls-20" d="M88.59,69a.81.81,0,0,1,.16.16.57.57,0,0,0,.67.25,4.51,4.51,0,0,1,.82,0s0-.05,0-.08,0,0,0,0c-.21-.26-.51-.16-.78-.2s-.39-.13-.21-.41a6.13,6.13,0,0,1,1-1.39c.13-.12.29-.25.2-.48-.61,0-.89.46-1.16.9-.15.26-.22.58-.48.76A1.18,1.18,0,0,0,88.59,69Z"/><path class="cls-21" d="M101.64,55.48c-.06,0-.13,0-.15.08a.83.83,0,0,0,0,.22c0,1.1-.07,2.21-.11,3.31a1.1,1.1,0,0,0,0,.18c.17.07.19-.11.27-.18a1.47,1.47,0,0,0,.06-.59Z"/><path class="cls-22" d="M91.35,38.15a2.89,2.89,0,0,0-1.91.64.28.28,0,0,1-.21.08.21.21,0,0,0,0,.13c.06.18.11.36.33.41a.26.26,0,0,0,.17,0,3,3,0,0,1,1.95-.8.2.2,0,0,0,.05-.18C91.61,38.25,91.47,38.21,91.35,38.15Z"/><path class="cls-23" d="M85.9,31.59c.09.05.07.16.14.23a.12.12,0,0,0,.13,0,.09.09,0,0,0,0-.11c-.06-.19-.14-.37-.21-.56s-.12-.31-.19-.47a3,3,0,0,1-.2-1.44.42.42,0,0,0-.09-.64.21.21,0,0,1-.1-.19c0-.12,0-.25,0-.37a.12.12,0,0,0-.08-.09c-.07,0-.07,0-.07.08,0,.23,0,.46,0,.69a9.2,9.2,0,0,0,.42,2.15C85.72,31.13,85.82,31.36,85.9,31.59Z"/><path class="cls-24" d="M101.28,62.06c.23-.09.26-.07.26.12a1.92,1.92,0,0,1,0,.24v1.66c0,.17,0,.34,0,.51a1,1,0,0,0,0-.41c0-.67,0-1.34,0-2s0-1.07,0-1.6c-.18-.18.08-.54-.27-.65a2.55,2.55,0,0,0-.07.67c0,.18,0,.36,0,.54A.81.81,0,0,0,101.28,62.06Z"/><path class="cls-25" d="M106.85,54c.05,0,.1-.07.16,0a4.29,4.29,0,0,1,.11-1.13,2.81,2.81,0,0,0-.09-1c0-.16-.1-.32-.29-.31s-.21.2-.22.35c0,.7,0,1.41,0,2.12C106.59,54.43,106.72,54,106.85,54Z"/><path class="cls-26" d="M88.1,53.18a.2.2,0,0,1,0,.07c.52.3,1,.61,1.55.9a2.62,2.62,0,0,0,.59.27.28.28,0,0,0,.3-.07c0-.1-.07-.12-.13-.17l-.17-.09c-.64-.38-1.29-.72-1.89-1.14-.18-.13-.37-.24-.36.14h0C88.06,53.09,88.08,53.13,88.1,53.18Z"/><path class="cls-27" d="M87,53.53c-.09-.14-.19-.28-.29-.41a1.19,1.19,0,0,0-.19-.2.14.14,0,0,0-.23.09.9.9,0,0,0,0,.4,4.3,4.3,0,0,1,0,1.6c.29.05.17-.25.29-.35s.06,0,0,0,0,0,0,0-.07.23,0,.33a.67.67,0,0,0,.1-.48c0-.24,0-.48,0-.72a.13.13,0,0,1,.1-.13C86.74,53.53,86.92,53.62,87,53.53Z"/><path class="cls-28" d="M88.81,68.43c.08,0,.16,0,.21-.07a2.65,2.65,0,0,0,.29-.52,1.41,1.41,0,0,1,.52-.68,1.65,1.65,0,0,1,.62-.38c.07,0,.1,0,.07-.09v-.46a.22.22,0,0,0-.09-.2,9.06,9.06,0,0,1-.93,1.12,1.51,1.51,0,0,0-.18.26Z"/><path class="cls-29" d="M107.57,32.42h.31l.48-1.24a1.74,1.74,0,0,0,0-.22c.07-.08,0-.21.09-.29s0,0,0-.06a.63.63,0,0,1,.07-.22.08.08,0,0,0,0-.08l0-.19c-.19.15-.13.42-.3.57-.08-.05,0-.18-.16-.21l0,.05A11.28,11.28,0,0,0,107.57,32.42Z"/><path class="cls-30" d="M83.39,51.5s-.08.07-.08.11a9.38,9.38,0,0,0-.11,1.31c0,.11,0,.24-.09.33a.85.85,0,0,0,0,.23c.18.53.45.64,1,.41,0,0,.07,0,.08,0a.08.08,0,0,0,0,.07c.25-.08.16-.24.08-.38s-.23-.07-.34,0a.67.67,0,0,1-.12.06c-.23,0-.32,0-.41-.19a1.42,1.42,0,0,1-.1-.71A9.19,9.19,0,0,0,83.39,51.5Z"/><path class="cls-23" d="M91.52,59.06l0,1a.43.43,0,0,0,.17-.42c0-.36,0-.73,0-1.1s0-.92,0-1.37a5,5,0,0,0,0-1.22l0-.16c-.2,0-.12.16-.13.26a8.33,8.33,0,0,1,0,1.12C91.52,57.78,91.5,58.42,91.52,59.06Z"/><path class="cls-31" d="M85.81,55a2.43,2.43,0,0,1-.32-1,2.25,2.25,0,0,0-.06-.36.08.08,0,0,0-.11-.06.17.17,0,0,0-.1.06.59.59,0,0,0,0,.32l0,.87c0,.11,0,.21-.18.23v.07c.11.17.27,0,.39.05.12-.12.12-.12.26,0S85.77,55.09,85.81,55Z"/><path class="cls-32" d="M105.47,54.66a.05.05,0,0,0,.06,0,.12.12,0,0,0,.07-.07l0,0c.06,0,0-.12.1-.16h0c.09-.15,0-.35.14-.48a2.79,2.79,0,0,0,.06-1,.5.5,0,0,0,0-.12.44.44,0,0,1,0-.3.53.53,0,0,0,0-.25.28.28,0,0,0-.08-.11.2.2,0,0,0-.2,0,.24.24,0,0,0-.07.13c-.07.58,0,1.17,0,1.75l0,.12a.49.49,0,0,0,0,.11.08.08,0,0,0,0,0l-.06.08,0,0a.23.23,0,0,1-.07.07l0,0a.32.32,0,0,1-.14,0,.34.34,0,0,1-.14,0l-.08-.06-.06-.07s0,0,0,0l-.08-.13a.15.15,0,0,0-.09,0,.11.11,0,0,0-.09.05v.11a.18.18,0,0,0,0,.14h0a.24.24,0,0,1,.07.12s0,.05,0,.07a.3.3,0,0,0,.08.08.36.36,0,0,0,.46.09s.13,0,.18-.08h0A.19.19,0,0,1,105.47,54.66Z"/><path class="cls-33" d="M104.51,54.27v-.09a.26.26,0,0,0,.08-.19s0-.09,0-.13a1.67,1.67,0,0,1,0-.77.78.78,0,0,0,0-.26,1.2,1.2,0,0,1,.06-.32.51.51,0,0,0,0-.13c0-.12,0-.26-.11-.31s-.15.08-.21.17,0,.07,0,.11a2.33,2.33,0,0,1,0,.28.49.49,0,0,0,0,.11.83.83,0,0,1,0,.15l0,.09a.32.32,0,0,1-.08.12.27.27,0,0,1-.08.07l-.09.06c-.1.05-.19.12-.29.16a.38.38,0,0,1-.15,0l-.1,0a.17.17,0,0,0-.1,0h0a.11.11,0,0,0,0,.19h0a.14.14,0,0,0,.08.07l.11.11c.32.13.54-.12.79-.26a4.26,4.26,0,0,0,.13.64.2.2,0,0,1,.06.13,0,0,0,0,0,0,.05S104.48,54.32,104.51,54.27Z"/><path class="cls-34" d="M84,53.62c.08,0,.18-.09.25,0s.16.24,0,.36a1.35,1.35,0,0,0,.27.93c.17,0,.26.23.45.11v0a1.22,1.22,0,0,1-.39-.81c0-.18,0-.36-.08-.54a1.38,1.38,0,0,0-.08-.27.15.15,0,0,0-.26,0C84.08,53.44,84,53.54,84,53.62Z"/><path class="cls-35" d="M105.81,52.7v1.2c0,.06.06.09.08.14v0l0,0c.06,0,0,.14.09.19a.32.32,0,0,0,.32.27c.17,0,.34,0,.43-.18.05,0,0-.14.08-.19l0-.15s-.06-.09-.1,0a.5.5,0,0,1-.19.19.68.68,0,0,1-.32-.11c-.14-.12-.13-.29-.15-.45l0-.12a1.38,1.38,0,0,1,0-.45.62.62,0,0,0-.08-.33A.09.09,0,0,0,105.81,52.7Z"/><path class="cls-36" d="M87,53.53c-.12,0-.19-.07-.27-.13a.09.09,0,0,0-.13,0c0,.05,0,.1,0,.15l.11.14a1.31,1.31,0,0,0,.84.32A.53.53,0,0,0,88,53.8l0-.36s-.06,0-.09,0h0c-.07.07,0,.2-.09.27A1.19,1.19,0,0,1,87,53.53Z"/><path class="cls-37" d="M107,53c-.13.1-.05.26-.1.38a.57.57,0,0,0,.09.55.25.25,0,0,1,0,.09.55.55,0,0,0,.25.38.14.14,0,0,1,.11.09h0l.1.07,0,0h0a.18.18,0,0,0,.2,0l.09,0a.27.27,0,0,0,.08-.07h0a.6.6,0,0,0,.08-.08h0a.34.34,0,0,0,.08-.09l0-.07-.12-.12,0,0h0l-.09.05,0,0-.07.07,0,0-.07,0h-.08l-.07,0,0,0-.06-.07s0,0,0,0l0-.1a2.78,2.78,0,0,0-.16-.4.88.88,0,0,1-.06-.36A.28.28,0,0,0,107,53Z"/><path class="cls-38" d="M85.81,55c-.08,0-.17,0-.21.11h0a.14.14,0,0,1,.09.11.44.44,0,0,0,.49.17.41.41,0,0,0,.36-.37V54.6c-.16.14-.13.35-.3.41a.34.34,0,0,1-.32.08.13.13,0,0,1-.11-.09Z"/><path class="cls-7" d="M101.36,59.92a.25.25,0,0,1,.09.24.58.58,0,0,0,.18.41,10.44,10.44,0,0,0,0-1.48l-.27.18A2,2,0,0,0,101.36,59.92Z"/><path class="cls-39" d="M103.52,37.44l.07,0a.22.22,0,0,1,.13-.09h0a.39.39,0,0,0,.24-.18v0a.11.11,0,0,0,.07-.06h0l.1-.07a2.68,2.68,0,0,0,.65-.56.16.16,0,0,0-.13-.12c-.37.06-.57.34-.81.57a.3.3,0,0,0-.08.08l0,0-.08.08s0,0,0,0l-.1.06-.09.07-.06.1v.06A.1.1,0,0,0,103.52,37.44Z"/><path class="cls-40" d="M85,55c-.14,0-.22-.13-.33-.2s-.1,0-.12.09h0a.2.2,0,0,1,.08.12.57.57,0,0,0,.29.26c.19.09.3.05.47-.17,0-.08,0-.2-.15-.11S85,55.11,85,55Z"/><path class="cls-41" d="M104.68,36.3l.12.11.57-.51c.07-.06.13-.13.23-.13s-.14-.13-.19-.22c-.33.06-.48.34-.67.57a.37.37,0,0,0,0,.11A.2.2,0,0,0,104.68,36.3Z"/><path class="cls-42" d="M91.55,57.14a.33.33,0,0,0,.08-.25c0-.29,0-.59,0-.88,0-.09,0-.18.08-.25s0-.18-.17-.16Z"/><path class="cls-43" d="M86.51,38.25h1.65a.91.91,0,0,0-.4-.1,6,6,0,0,0-1,0A.76.76,0,0,0,86.51,38.25Z"/><path class="cls-44" d="M91.53,60.73s0,0,0,0,0,.16.07.19h0c.1-.08,0-.16,0-.24s-.07-.09-.13,0S91.51,60.71,91.53,60.73Z"/><path class="cls-45" d="M106.63,38.24h.56a.8.8,0,0,0-.55-.06S106.63,38.22,106.63,38.24Z"/><path class="cls-46" d="M104,37.15a.37.37,0,0,0-.24.18,1,1,0,0,0,.52-.08C104.15,37.22,104,37.26,104,37.15Z"/><path class="cls-27" d="M105.89,54a.16.16,0,0,0-.08-.14c-.15.13-.08.31-.09.47a.23.23,0,0,0,.09-.19A.17.17,0,0,1,105.89,54Z"/><path class="cls-47" d="M89.23,39v-.12s0-.07-.09-.07a.19.19,0,0,1-.18.1c0,.18.08.24.2.3S89.29,39.09,89.23,39Z"/><path class="cls-48" d="M91.35,38.15c.05.12.2.13.28.2s0,0,0-.06,0,0,0,0a.38.38,0,0,0-.29-.18A.15.15,0,0,0,91.35,38.15Z"/><path class="cls-23" d="M85.79,31.77a.17.17,0,0,1,0-.07.25.25,0,0,0-.37.07Z"/><path class="cls-49" d="M90.42,54.18l.12.17.17-.08A.32.32,0,0,0,90.42,54.18Z"/><path class="cls-1" d="M108.5,30.66c-.11.07-.1.18-.09.29A.34.34,0,0,0,108.5,30.66Z"/><path class="cls-47" d="M88.2,38.26c.08.1.18.09.29.08A.31.31,0,0,0,88.2,38.26Z"/><path class="cls-47" d="M88.49,38.34c.06.11.16.1.26.1A.24.24,0,0,0,88.49,38.34Z"/><path class="cls-1" d="M108.58,30.38a.19.19,0,0,0-.07.22A.22.22,0,0,0,108.58,30.38Z"/><path class="cls-27" d="M105.34,54.74a.16.16,0,0,0-.18.08A.16.16,0,0,0,105.34,54.74Z"/><path class="cls-27" d="M106,54.28a.17.17,0,0,0-.09-.19A.23.23,0,0,0,106,54.28Z"/><path class="cls-50" d="M107.76,54.56h-.2A.12.12,0,0,0,107.76,54.56Z"/><path class="cls-25" d="M106.82,54.18a.19.19,0,0,0-.08.19A.18.18,0,0,0,106.82,54.18Z"/><path class="cls-27" d="M105.72,54.37a.16.16,0,0,0-.1.16A.15.15,0,0,0,105.72,54.37Z"/><path class="cls-51" d="M104.51,54.27h-.09a.18.18,0,0,0,.09.18Z"/><path class="cls-50" d="M108,54.37a.1.1,0,0,0-.08.08C108,54.45,108,54.42,108,54.37Z"/><path class="cls-50" d="M107.37,54.47c0-.06-.05-.09-.11-.09S107.31,54.47,107.37,54.47Z"/><path class="cls-50" d="M107.93,54.46a.08.08,0,0,0-.08.07C107.9,54.53,107.92,54.51,107.93,54.46Z"/><path class="cls-50" d="M107.48,54.54a.1.1,0,0,0-.1-.07A.08.08,0,0,0,107.48,54.54Z"/><path class="cls-50" d="M108.11,54.27a.1.1,0,0,0-.08.09A.09.09,0,0,0,108.11,54.27Z"/><path class="cls-51" d="M104.59,54.58a.15.15,0,0,0-.07-.12A.1.1,0,0,0,104.59,54.58Z"/><path class="cls-51" d="M104.4,54.22a.11.11,0,0,0-.06-.13A.11.11,0,0,0,104.4,54.22Z"/><path class="cls-27" d="M105.6,54.55l-.07.07A.06.06,0,0,0,105.6,54.55Z"/><path class="cls-27" d="M105.47,54.66a.11.11,0,0,0-.12.07A.1.1,0,0,0,105.47,54.66Z"/><path class="cls-51" d="M104.7,54.73l-.08-.08S104.65,54.72,104.7,54.73Z"/><path class="cls-34" d="M84.21,53.92c0-.07,0-.1-.08,0Z"/><path class="cls-34" d="M84.58,55a.12.12,0,0,0-.08-.12A.12.12,0,0,0,84.58,55Z"/><path class="cls-31" d="M85.69,55.22a.12.12,0,0,0-.09-.11A.11.11,0,0,0,85.69,55.22Z"/><path class="cls-47" d="M88.77,38.45a.09.09,0,0,0,.09.07C88.85,38.47,88.82,38.44,88.77,38.45Z"/><path class="cls-12" d="M109.16,48.92a.1.1,0,0,0-.11.07A.09.09,0,0,0,109.16,48.92Z"/><path class="cls-12" d="M109.27,48.82a.14.14,0,0,0-.12.1A.13.13,0,0,0,109.27,48.82Z"/><path class="cls-52" d="M104,37.05l-.07.06Z"/><path class="cls-47" d="M89,38.71a.13.13,0,0,0,.1.09A.11.11,0,0,0,89,38.71Z"/><path class="cls-47" d="M89,38.62a.11.11,0,0,0,.09.09Q89,38.63,89,38.62Z"/><path class="cls-52" d="M104.15,37a.11.11,0,0,0-.1.07A.11.11,0,0,0,104.15,37Z"/><path class="cls-47" d="M88.86,38.53a.11.11,0,0,0,.09.09A.1.1,0,0,0,88.86,38.53Z"/><path class="cls-3" d="M104.78,36.2a6.45,6.45,0,0,1,.63-.65h0c.08,0,0-.12.12-.15l.08-.12c.1-.21.11-.47.41-.51a6.61,6.61,0,0,0,1.23-1.86,3.23,3.23,0,0,1,.2-.42,15.89,15.89,0,0,0,.66-2h0c.08-.41.17-.82.24-1.23a6.25,6.25,0,0,0,.1-1,16,16,0,0,0-.33-3.31,8.1,8.1,0,0,0-.9-2.32,2.63,2.63,0,0,0-.66-.82.61.61,0,0,0-.59-.17,1.18,1.18,0,0,1-.42,0c-.61-.05-1.23-.08-1.84-.14-.91-.11-1.81-.23-2.71-.36s-2-.28-3-.42l-3-.42L92,19.92,89,19.49l-.23,0a.36.36,0,0,0-.42.19,3.24,3.24,0,0,1-.51.6,3.14,3.14,0,0,0-.38.52,22.06,22.06,0,0,0-1.24,2.48,8.93,8.93,0,0,0-.65,2.88,14.44,14.44,0,0,0,0,2.08c0,.13,0,.27,0,.41a1.71,1.71,0,0,1,.09.64,1,1,0,0,1,.11.44,13,13,0,0,0,1.65,4.09,1.24,1.24,0,0,1,.1.2.3.3,0,0,0,.18.26l0,0a12.15,12.15,0,0,0,2.41,2.5.22.22,0,0,1,0,.08,1.32,1.32,0,0,1,.42.27,11.67,11.67,0,0,0,2.27,1.25l.08.06h0a.26.26,0,0,0,.14.17,1.55,1.55,0,0,0,.8,0c.15-.09.07-.17,0-.24s-.28-.13-.38-.4a7.26,7.26,0,0,0,1.32.47l.13,0a8.78,8.78,0,0,0,3.15-.07,3.79,3.79,0,0,0,1-.38c-.14.16-.39.21-.4.46s.33.18.52.14c.4-.08.82-.1,1.22-.17a.91.91,0,0,1,.91.28.37.37,0,0,0,.52-.27,1.52,1.52,0,0,1,.77-.62l.29-.12c.14-.13.38-.14.43-.38h0a.39.39,0,0,0,.1-.08l0,0h0a.19.19,0,0,0,.14-.1h0a.23.23,0,0,0,.11-.08h0l.09-.07.82-.67h0A.17.17,0,0,0,104.78,36.2Z"/><path class="cls-53" d="M101.47,38.75c-.16-.39-.39-.56-.77-.48a12.05,12.05,0,0,0-1.58.24.29.29,0,0,1-.37-.09c-.18-.12-.36,0-.53,0a9.21,9.21,0,0,1-3.18.21,6.77,6.77,0,0,1-.87-.19.3.3,0,0,0-.2.06l-.94,0c-.24.27-.5,0-.75,0h0c-.06-.07-.14,0-.21-.09l-.25-.1c-.19-.08-.1.15-.19.18a2.36,2.36,0,0,0-1.85.59,1.54,1.54,0,0,0-.26.25.58.58,0,0,0-.33.3A8.16,8.16,0,0,0,88,43.15a1.37,1.37,0,0,1-.16.32l-.08.14-.07.1-.07.09-.07.1c-.25.35-.34.78-.56,1.14,0,.07-.07.15-.11.22s-.07.16-.11.23a.69.69,0,0,0,0,.13,5.31,5.31,0,0,0-.35,3,.38.38,0,0,0,.06.13l.07,0,.5-.12.11,0,.12,0h.07c.49.13,1,0,1.51.15,1,.06,2,0,3,.09s2.25.09,3.37.11h.52c1.24,0,2.47.13,3.7.12l.17,0h.4c.46,0,.93,0,1.39,0a1,1,0,0,0,.29,0h.26a.28.28,0,0,1,.18,0,2.27,2.27,0,0,0,.72-.16c0-.24-.23-.32-.39-.41A2.45,2.45,0,0,1,101.27,47a.56.56,0,0,0,0-.12,2.5,2.5,0,0,1-.07-.26,17.66,17.66,0,0,1-.45-1.91,1.61,1.61,0,0,1-.07-.49,1.46,1.46,0,0,0,0-.22,9.13,9.13,0,0,1,.74-4.73C101.42,39.07,101.55,38.93,101.47,38.75Z"/><path class="cls-54" d="M95.24,48.82l-1.61-.08-4.56-.14-.37,0c-.53-.1-1.08,0-1.61-.09h0a.26.26,0,0,1-.09.09.05.05,0,0,0,0,.05c0,.19.14.25.32.25.71,0,1.42,0,2.13,0,1.39.07,2.78,0,4.16.1.77,0,1.54.07,2.31.06,0-.24-.21-.16-.34-.17s-.45.06-.66.05C95,48.87,95.2,49.08,95.24,48.82Z"/><path class="cls-55" d="M88,53.09c.09-.2.12-.21.25-.11a8.44,8.44,0,0,0,1.86,1.08.58.58,0,0,0,.14,0,3.73,3.73,0,0,0-1-.72,4.76,4.76,0,0,1-2-2.09c-.07-.12-.15-.24-.21-.36a3.41,3.41,0,0,1-.39-1.08c-.06-.35-.11-.7-.14-1.05h0c-.29,0-.25.26-.37.39a1.1,1.1,0,0,0,.08.57c.32.27.27.65.28,1a.58.58,0,0,0,0,.14,11.1,11.1,0,0,0,1,1.69A1.41,1.41,0,0,0,88,53.09Z"/><path class="cls-56" d="M101.15,46.89a3.45,3.45,0,0,0,.38,1,1.22,1.22,0,0,0,.37.41l.93.68.1.06c0,.06.1.08.16,0,.16-.25.17-.31,0-.45a9.28,9.28,0,0,1-.83-.56,1.29,1.29,0,0,1-.5-.63.76.76,0,0,0-.08-.11c-.2,0-.1-.16-.17-.23S101.38,46.79,101.15,46.89Z"/><path class="cls-57" d="M95.24,48.82a.23.23,0,0,1-.2.08c-.09,0-.19,0-.27.1h.83a.34.34,0,0,1,.29.08,6.55,6.55,0,0,0,1,0c.72.1,1.44,0,2.16.07.43,0,.87,0,1.3,0,0,0,0-.09,0-.12a2.06,2.06,0,0,0-.35,0c-.12,0-.27.06-.38,0l0,0h0A1.7,1.7,0,0,0,99,49c-1.09,0-2.18-.08-3.27-.12A1.29,1.29,0,0,0,95.24,48.82Z"/><path class="cls-58" d="M103.28,49.18c0,.33,0,.66,0,1s0,.39,0,.58c.19.23-.13.54.13.75.24-.07.27-.28.28-.47a9,9,0,0,0,0-1.56.49.49,0,0,0-.32-.32Z"/><path class="cls-59" d="M103.41,51.5c0-.17,0-.34,0-.5a.26.26,0,0,0-.1-.25v.36c0,.06,0,.14-.07.2A1.41,1.41,0,0,0,103,52a1.63,1.63,0,0,0,0,.76V53c.36-.12.13-.46.26-.66a1.81,1.81,0,0,0,.12-.51c0-.08,0-.16,0-.24Z"/><path class="cls-60" d="M99,49.17a.29.29,0,0,0-.25-.08H96.88a.87.87,0,0,0,.22,0Z"/><path class="cls-61" d="M103.2,52.24c-.12.11-.07.27-.08.41s0,.24-.09.32a.57.57,0,0,0,.19.55.19.19,0,0,1,.09-.18A1.29,1.29,0,0,0,103.2,52.24Z"/><path class="cls-60" d="M100.34,49.09v.09h1.39s0,0,0-.06l0,0a.36.36,0,0,0-.25,0A3.36,3.36,0,0,0,100.34,49.09Z"/><path class="cls-61" d="M103,52.8V52A.88.88,0,0,0,103,52.8Z"/><path class="cls-62" d="M103.09,49.08h-.16c.08.16.22.11.35.11h0a.06.06,0,0,0,0-.09Z"/><path class="cls-63" d="M101.73,49.09v.09H102s0,0,0-.06l0,0A.45.45,0,0,0,101.73,49.09Z"/><path class="cls-58" d="M103.23,51.31a.19.19,0,0,0,.07-.2A.22.22,0,0,0,103.23,51.31Z"/><path class="cls-61" d="M103.31,53.6l-.08-.07A.08.08,0,0,0,103.31,53.6Z"/><path class="cls-64" d="M102,49.1v.08h.1A.08.08,0,0,0,102,49.1Z"/><path class="cls-65" d="M101.28,62.06l0-.93c-.72-.08-1.44-.09-2.17-.1s-1.6,0-2.4-.08c-.32.39-.11.77,0,1.14a.63.63,0,0,0,.4.1c1.17,0,2.33.16,3.5.1.21,0,.44,0,.61-.15Z"/><path class="cls-66" d="M91.84,60.89l0,.89h0a.56.56,0,0,0,.49.22c1.14,0,2.27.16,3.41.1a1,1,0,0,0,.49-.09.36.36,0,0,0,.11-.14c.06-.33.15-.66-.11-.94-.92-.1-1.84-.06-2.75-.09-.36,0-.71,0-1.06,0A5.9,5.9,0,0,0,91.84,60.89Z"/><path class="cls-67" d="M96.24,60.93l0,.94c.17.13.23.34.38.49a.13.13,0,0,0,.11-.06.23.23,0,0,0,0-.26,5.65,5.65,0,0,1,0-1.09c0-.76,0-1.51,0-2.26s-.07-1.26-.11-1.89a2.42,2.42,0,0,0-.1-.45s0,0-.07,0-.06,0-.06,0a2.31,2.31,0,0,0,0,.37c0,1.23,0,2.46,0,3.69C96.26,60.59,96.24,60.76,96.24,60.93Z"/><path class="cls-42" d="M91.74,55.92a8.28,8.28,0,0,0,0,1.22h.07A3.91,3.91,0,0,0,91.74,55.92Z"/><path class="cls-53" d="M103.48,39.35a.45.45,0,0,1-.06.12,4.62,4.62,0,0,0-.62,1.26,3.54,3.54,0,0,0-.22,1.2.66.66,0,0,0,.14.38c.13.22.33.18.53.13s.69-.23,1-.3a2.6,2.6,0,0,1,.4-.1,4.61,4.61,0,0,1,.64-.16l.51-.11a1.43,1.43,0,0,1,.41-.09l.11,0a.72.72,0,0,1,.29,0,.24.24,0,0,0,.11-.06.59.59,0,0,0,.07-.39,8,8,0,0,0-.77-2.27,1.09,1.09,0,0,0-.13-.17,2.53,2.53,0,0,0-1.37-.49.37.37,0,0,0-.35.09C104,38.66,103.6,38.91,103.48,39.35Z"/><path class="cls-68" d="M101.47,38.75a4,4,0,0,0-.56,1.25c0,.19-.1.38-.16.57a5.39,5.39,0,0,0-.29,1.49c0,.57,0,1.14,0,1.7a1.31,1.31,0,0,0,.06.27c.28-.32.06-.73.19-1.07,0-.06,0-.13,0-.19a.53.53,0,0,0,0-.17s0-.06,0-.07,0,0,0,0a.09.09,0,0,0,.06.07,1.21,1.21,0,0,0,.06-.5,4.83,4.83,0,0,1,.22-1.41,8.93,8.93,0,0,0,.23-.89,2.34,2.34,0,0,1,.58-1.14.26.26,0,0,0,.07-.11.11.11,0,0,0-.08-.14Z"/><path class="cls-69" d="M106,38.92a8.24,8.24,0,0,1,.69,2l.09.31a.63.63,0,0,1,0,.52,13.28,13.28,0,0,0,.2,1.78.25.25,0,0,0,.16.22c.3-.26.07-.6.12-.89a1.35,1.35,0,0,0-.07-.49.72.72,0,0,1,0-.21,9.31,9.31,0,0,0-.75-2.93.87.87,0,0,0-.22-.34C106.12,38.9,106,38.82,106,38.92Z"/><path class="cls-70" d="M103.48,39.35a2.62,2.62,0,0,0,.67-.81.35.35,0,0,1,.42-.19,2.61,2.61,0,0,1,1.32.48c.07,0,.15,0,.18-.11a1.3,1.3,0,0,0-.9-.48s-.1,0-.12,0,0,0,0,0,.36,0,.51-.13a.36.36,0,0,0-.29-.13l-.6,0a.81.81,0,0,0-.72.33c-.23.27-.44.55-.66.83a.17.17,0,0,0,0,.17C103.33,39.3,103.41,39.32,103.48,39.35Z"/><path class="cls-71" d="M100.82,42.63l0-.12a.06.06,0,0,0-.08,0v.19l-.09.09a2.09,2.09,0,0,0-.09.75c0,.16,0,.33,0,.49l0,.15c.11.15,0,.33.08.48a7,7,0,0,0,.25,1.29,2.3,2.3,0,0,0,.23.73c0,.06,0,.14.07.2h0a.67.67,0,0,1,.31.41.4.4,0,0,0,.12.23c.08-.05,0-.13.06-.2h0c-.06-.06,0-.15-.08-.21a.06.06,0,0,0,0-.07c-.05-.06,0-.13-.07-.2h0a6.32,6.32,0,0,1-.38-1.48.91.91,0,0,0-.1-.46c-.06-.25-.12-.49-.16-.75a4,4,0,0,1,0-.92Z"/><path class="cls-72" d="M107.11,42.24s-.08.08-.07.11a5.38,5.38,0,0,1,0,1.39.49.49,0,0,0-.11.38,13.73,13.73,0,0,0,.37,2.31,3.17,3.17,0,0,0,.19.42.1.1,0,0,0,.14,0c.13-.28,0-.55,0-.83h0c-.14-.2,0-.45-.09-.66a7.89,7.89,0,0,0-.11-1.09c0-.44-.12-.87-.19-1.31-.09-.15,0-.33-.07-.48l0-.16A.24.24,0,0,0,107.11,42.24Z"/><path class="cls-73" d="M102.76,42.2c0-.13-.09-.2-.18-.27s-.17,0-.16.13a6.26,6.26,0,0,0,.15,1.22c.15.56.25,1.14.37,1.7a1.91,1.91,0,0,0,.17.62c.29-.3,0-.6,0-1,0,0,.1,0,0,0s0,0,0,0,0,.32.21.31a2.87,2.87,0,0,0-.18-1.45,1.73,1.73,0,0,0-.25-.41c-.25-.22-.08-.5-.1-.76A.58.58,0,0,0,102.76,42.2Z"/><path class="cls-74" d="M103.28,49.08l0,.09c.09.06.13.21.28.19a.32.32,0,0,0,.07-.28,2,2,0,0,1,0-.54c0-.86,0-1.72,0-2.58a.64.64,0,0,0-.05-.23.32.32,0,0,0-.1-.1c-.19,0-.2.19-.26.31v.19a16.15,16.15,0,0,1,0,1.84,2.32,2.32,0,0,0,0,.59v.16c.06.06.07.12,0,.18Z"/><path class="cls-45" d="M108.3,39.56c0-.12-.06-.2-.12-.29a1.76,1.76,0,0,0-1.4-.93c-.07,0-.11-.05-.15-.1a1.17,1.17,0,0,0-.27,0,.21.21,0,0,0-.15.25.22.22,0,0,0,.25.16l.09,0a1.14,1.14,0,0,1,1,.19,2.8,2.8,0,0,1,.5.41C108.1,39.37,108.2,39.46,108.3,39.56Z"/><path class="cls-75" d="M107.67,46c0,.21,0,.42,0,.62a.25.25,0,0,1-.1.23.49.49,0,0,0-.12.43q.07.63.09,1.26c0,.15,0,.32.22.36v-1c0-.1,0-.22.1-.29a.89.89,0,0,0,0-.58A2.51,2.51,0,0,0,107.67,46Z"/><path class="cls-76" d="M103.21,45.94a.28.28,0,0,0,.19-.28l.08-.12a.47.47,0,0,0-.18-.53c-.13-.09-.07-.29-.26-.4a3.76,3.76,0,0,1,.07,1A.61.61,0,0,0,103.21,45.94Z"/><path class="cls-77" d="M103.3,48c0-.5,0-1,0-1.5,0-.12,0-.25-.09-.34,0,.61,0,1.23,0,1.85C103.26,48,103.28,48,103.3,48Z"/><path class="cls-56" d="M101.09,45.38a3.34,3.34,0,0,0,.31,1.42s0,0,.07.06a7.09,7.09,0,0,0-.25-1C101.19,45.69,101.21,45.51,101.09,45.38Z"/><path class="cls-68" d="M100.8,44.18a1.28,1.28,0,0,0,.19.74l-.17-1.6A1.57,1.57,0,0,0,100.8,44.18Z"/><path class="cls-78" d="M103.39,37.32a.88.88,0,0,0-.43.38.84.84,0,0,0,.56-.26Z"/><path class="cls-79" d="M100.8,44.18c0-.29,0-.57,0-.86a.06.06,0,0,0,0-.07s-.07.07-.08.1a2.89,2.89,0,0,0,0,.72S100.78,44.14,100.8,44.18Z"/><path class="cls-80" d="M105.61,38a2.78,2.78,0,0,0-.75.15.39.39,0,0,0,.31.05c.08-.09.18-.07.28-.08A.17.17,0,0,0,105.61,38Z"/><path class="cls-81" d="M107.85,47v.58a.18.18,0,0,0,.08.18A1.51,1.51,0,0,0,107.85,47Z"/><path class="cls-75" d="M107.58,45.37c0,.16,0,.32,0,.48a.21.21,0,0,0,.1.18A1.36,1.36,0,0,0,107.58,45.37Z"/><path class="cls-82" d="M106.07,38.72a.17.17,0,0,0-.18.11.09.09,0,0,0,.07.09c.08,0,.17.08.24,0A.21.21,0,0,0,106.07,38.72Z"/><path class="cls-56" d="M103.3,48h-.07a1.16,1.16,0,0,0,.06.58Z"/><path class="cls-81" d="M108,48.23c0,.19-.08.4.07.58A1,1,0,0,0,108,48.23Z"/><path class="cls-83" d="M107.21,42.49c0,.16-.07.34.07.48A.8.8,0,0,0,107.21,42.49Z"/><path class="cls-56" d="M101.47,46.85a.18.18,0,0,0,.07.2A.19.19,0,0,0,101.47,46.85Z"/><path class="cls-83" d="M107.11,42.24l.08.09,0-.18Z"/><path class="cls-56" d="M101.56,47.12a.18.18,0,0,0,.08.21A.24.24,0,0,0,101.56,47.12Z"/><path class="cls-58" d="M103.31,48.9c.09-.06.09-.12,0-.18Z"/><path class="cls-45" d="M108.39,39.68a.14.14,0,0,0-.09-.13A.18.18,0,0,0,108.39,39.68Z"/><path class="cls-84" d="M103.72,37.33a.13.13,0,0,0-.13.09Z"/><path class="cls-85" d="M88,43.29a.25.25,0,0,0,.09-.2,5.77,5.77,0,0,1,.63-2.37,13.65,13.65,0,0,1,.75-1.35.31.31,0,0,1-.13-.17L89.23,39c0,.08,0,.16-.11.18-.27,0-.35.23-.45.41a7.68,7.68,0,0,0-1,2.59c0,.3-.22.28-.43.24a6.29,6.29,0,0,0-1.55-.21c-.17,0-.34,0-.48.12a.39.39,0,0,1-.19.19.58.58,0,0,0-.28.44,3.87,3.87,0,0,0-.08,1.27,4.06,4.06,0,0,0,.21-.85,2.56,2.56,0,0,0,.05-.27c.09-.41.14-.32.43-.32a13.6,13.6,0,0,1,2.12.22l.13,0c.1,0,.13.09.07.17l-.51.77a.52.52,0,0,0-.11.3c.18.06.22-.1.31-.19L87.4,44l0-.1a1.13,1.13,0,0,1,.1-.13,1.35,1.35,0,0,0,.2-.27.61.61,0,0,0,.07-.17,1.25,1.25,0,0,0,0-.33C87.94,43.06,87.9,43.23,88,43.29Z"/><path class="cls-86" d="M86.44,48.72v-.14a5.76,5.76,0,0,1,.38-3s0-.06,0-.09c-.47-.07-.34.35-.46.56,0-.14.11-.29,0-.41A3,3,0,0,0,86,46.83,6.56,6.56,0,0,0,86,49s0,0,0,.08S86.2,48.69,86.44,48.72Z"/><path class="cls-87" d="M86.34,45.65l0,.47h0l.12-.33a.37.37,0,0,1,.3-.3h0c0-.06,0-.15.1-.19a.17.17,0,0,0,.08-.17,8.63,8.63,0,0,1,.39-1,.14.14,0,0,0-.06-.11l-.06,0c-.12.07-.13.25-.28.28A9.72,9.72,0,0,0,86.34,45.65Z"/><path class="cls-88" d="M86.44,50.75s.09,0,.13,0,0-.07,0-.11a.85.85,0,0,1,0-.26,1,1,0,0,0-.27-.74s-.06-.05-.09,0,0,0,0,.08A2,2,0,0,0,86.44,50.75Z"/><path class="cls-89" d="M86.44,48.72l-.1-.1c-.09-.07-.16-.06-.21,0s0,.26-.08.39l0,.15a.34.34,0,0,0,.18-.19.46.46,0,0,1,.19-.2A.06.06,0,0,0,86.44,48.72Z"/><path class="cls-90" d="M87.83,53.71c.12-.06.11-.17.09-.27C87.85,53.51,87.86,53.62,87.83,53.71Z"/><path class="cls-90" d="M87.92,53.44H88a.57.57,0,0,0,0-.13s0-.05-.06-.05-.07.05-.06.1Z"/><path class="cls-31" d="M85.81,55a.1.1,0,0,0,.11.09A.14.14,0,0,0,85.81,55Z"/><path class="cls-55" d="M88.1,53.18a.1.1,0,0,0-.1-.09A.11.11,0,0,0,88.1,53.18Z"/><path class="cls-3" d="M106.08,35.56c0,.1.08.2.13.29A2.16,2.16,0,0,0,107.43,37a1.47,1.47,0,0,0,2-1.16,5.61,5.61,0,0,0,.06-.59,2.3,2.3,0,0,0-1.62-2.16.54.54,0,0,0-.45,0c-.26.36-.48.74-.71,1.12s-.13.46.26.5a3.27,3.27,0,0,1,1.08.08c.24.23,0,.28-.14.31a6.57,6.57,0,0,1-.77,0,2.73,2.73,0,0,0-.81.11C106.17,35.24,106,35.31,106.08,35.56Z"/><path class="cls-91" d="M106.08,35.56c0-.11,0-.22.16-.24s.48-.08.73-.1l.92,0,.32,0a.26.26,0,0,0,.08-.49.42.42,0,0,0-.13,0c-.46-.08-1,.06-1.4-.06a.87.87,0,0,0-.79.16c-.35.13-.36.15-.35.55.16-.08.13-.31.31-.38s0,.13.06.19a1.08,1.08,0,0,1,0,.18C106,35.38,106,35.49,106.08,35.56Z"/><path class="cls-92" d="M107.49,33.11a2.26,2.26,0,0,1,1.93,1.81.65.65,0,0,0,.09.3,1.58,1.58,0,0,0-.44-1.62,4.9,4.9,0,0,0-1.11-.8.68.68,0,0,0-.39-.11c-.09,0,0-.26-.2-.18a.4.4,0,0,0-.18.36A.32.32,0,0,0,107.49,33.11Z"/><path class="cls-1" d="M107.37,32.51l.2.18v-.27a9.66,9.66,0,0,0,.55-1.73.81.81,0,0,0,0-.22,2.8,2.8,0,0,0-.23.63C107.71,31.57,107.54,32,107.37,32.51Z"/><path class="cls-41" d="M105.54,35.4a.17.17,0,0,0-.12.15C105.51,35.54,105.53,35.48,105.54,35.4Z"/><path class="cls-4" d="M102,69.09a6.16,6.16,0,0,0-.08-1.42,3,3,0,0,0-.11-.4.76.76,0,0,0-.4-.48,4,4,0,0,1-.62-.39,4.31,4.31,0,0,0-1.08-.52c-.22-.09-.46-.17-.68-.27a5.73,5.73,0,0,0-1.2-.31l-.45-.1a.92.92,0,0,0-1.07.14,2,2,0,0,0-.37.34,11.15,11.15,0,0,1-1,1.43,2.51,2.51,0,0,0-.52,1.12,1.74,1.74,0,0,1-.35.84c-.2.24-.07.5,0,.75s.38.18.57.27a6.57,6.57,0,0,0,2.86.08A23.63,23.63,0,0,1,99.84,70c.48,0,1-.19,1.43-.24a4.3,4.3,0,0,1,.45-.29A.77.77,0,0,0,102,69.09Z"/><path class="cls-4" d="M90.52,66.69a.09.09,0,0,1-.07.09.75.75,0,0,1-.27.36,3.12,3.12,0,0,0-.67.87c-.1.19-.22.37-.33.56a1.19,1.19,0,0,0-.18.49,1.87,1.87,0,0,0,.66.11,1.28,1.28,0,0,1,.58.11,7.31,7.31,0,0,0,1.55,0c.59,0,1.12.27,1.71.25h.07a.64.64,0,0,0,.18-.28A4,4,0,0,0,94.23,68a3,3,0,0,1,.66-1.26,2.14,2.14,0,0,0,.61-1c0-.07,0-.15-.06-.2a1.38,1.38,0,0,0-.41-.19l-1-.3A2.65,2.65,0,0,0,93,65a1.22,1.22,0,0,0-.6.32c-.1.09-.2.2-.3.28s-.18.15-.29.11-.26,0-.38.09A3,3,0,0,0,90.52,66.69Z"/><path class="cls-54" d="M95.5,65.75c-.26.39-.54.75-.83,1.11a3,3,0,0,0-.61,1.38,1.22,1.22,0,0,1-.32.75.27.27,0,0,0-.08.26.29.29,0,0,0,0,.3c.24-.06.26.15.36.27,0-.11,0-.22,0-.32a.46.46,0,0,1,.18-.41.67.67,0,0,0,.24-.43c0-.11,0-.21.07-.32A2.67,2.67,0,0,1,95.2,67,4.74,4.74,0,0,0,96,65.77a.12.12,0,0,0,0-.11.46.46,0,0,0-.31-.18.23.23,0,0,0-.1.15A.15.15,0,0,1,95.5,65.75Z"/><path class="cls-93" d="M101.27,69.72a2,2,0,0,0-.64,0,11.61,11.61,0,0,1-1.55.15c-.88.06-1.74.18-2.61.3a2.59,2.59,0,0,1-1,0,3.46,3.46,0,0,0-.91-.07.18.18,0,0,0,.14.11,8,8,0,0,0,.85.18,5.26,5.26,0,0,0,1.19,0,7.22,7.22,0,0,0,1-.14,1.73,1.73,0,0,1,.32,0,3,3,0,0,0,.73-.07,3.38,3.38,0,0,1,.78,0,1.76,1.76,0,0,0,.72-.12,2,2,0,0,1,.75-.17A.18.18,0,0,0,101.27,69.72Z"/><path class="cls-94" d="M93.5,69.55a3.81,3.81,0,0,0-2.11-.31,4.89,4.89,0,0,1-1.15,0v.09h.87a2.75,2.75,0,0,1,.86.11,9.17,9.17,0,0,0,1,.16C93.18,69.67,93.33,69.57,93.5,69.55Z"/><path class="cls-94" d="M93.67,69.55v-.3c-.07.08-.06.2-.09.3Z"/><path class="cls-53" d="M85.16,42.32a7.52,7.52,0,0,1,2.06.22l.13,0c.33.07.4.07.38-.28a1.55,1.55,0,0,1,0-.37A9,9,0,0,1,89,39.27s.06-.06.1-.1S89,39,89,38.9h0l-.09-.07h0a.18.18,0,0,0-.11-.08.08.08,0,0,1-.08,0l-.09-.06-.09,0c-.09-.06-.2,0-.28-.07-.4,0-.8,0-1.21,0a.85.85,0,0,0-.61.28,2.27,2.27,0,0,0-.68,1.13,1.79,1.79,0,0,1-.13.39A6.37,6.37,0,0,0,85.14,42a1.22,1.22,0,0,1-.07.17Z"/><path class="cls-95" d="M87.45,36.76a2.2,2.2,0,0,0,1-1,11.63,11.63,0,0,1-.85-1.11c-.36-.22-.71,0-1.06,0a3.27,3.27,0,0,0-.54.13c-.18,0-.36,0-.43-.15s.1-.33.27-.41.47-.07.63-.27.36,0,.56-.12A14,14,0,0,1,86,32l-.43.35a1.68,1.68,0,0,0-.38.57c0,.14-.11.28-.17.43l-.06.5a3,3,0,0,0,.81,2.38,1.63,1.63,0,0,0,1.46.54Z"/><path class="cls-23" d="M85.87,31.86a.08.08,0,0,0-.07-.08Z"/><path class="cls-96" d="M96.73,62l0,.35a1,1,0,0,0-.15.42c0,.52.06,1,.06,1.56s.09.55.56.6L98,65a1,1,0,0,0,.39.08l.11,0a2.44,2.44,0,0,1,.26.06l.1,0,.15,0,.11,0a.42.42,0,0,1,.16,0,7,7,0,0,1,1.81.9c.08,0,.09,0,.09-.06,0-1,0-1.91,0-2.86a2.05,2.05,0,0,1,0-.78v-.44c-.83,0-1.66,0-2.49,0C98.08,62.06,97.4,62.06,96.73,62Z"/><path class="cls-97" d="M98.11,65a3.91,3.91,0,0,0-1.22-.21q-.18,0-.18-.15c0-.19,0-.37,0-.56a6.89,6.89,0,0,0,0-1.2,1.24,1.24,0,0,1,0-.27.48.48,0,0,0,0-.29s0-.06,0-.09a.34.34,0,0,0-.36-.38l0,.09a1.33,1.33,0,0,0-.11.76c0,.38,0,.77,0,1.15a1.48,1.48,0,0,1-.37,1.27.23.23,0,0,0-.06.25.28.28,0,0,1,0,.09.27.27,0,0,0,.27.18c.34-.52.88-.49,1.4-.55a3.86,3.86,0,0,1,1.35.22,1.2,1.2,0,0,0,.32.06.06.06,0,0,0,0-.07s0,0,0,0h0c-.06-.05-.14,0-.2-.09l0,0h0c-.1-.06-.23,0-.32-.09h0C98.38,65,98.22,65.11,98.11,65Z"/><path class="cls-98" d="M97.38,65.11c-.23,0-.47,0-.69,0s-.65.14-.71.55v.11l.23-.21a1.1,1.1,0,0,1,.93-.36h.23Z"/><path class="cls-99" d="M99.05,65.29v.1h.21A.21.21,0,0,0,99.05,65.29Z"/><path class="cls-96" d="M95.7,65.39l.35-.36a.47.47,0,0,0,.18-.4c0-.21,0-.43,0-.64,0-.68,0-1.35,0-2l-3.84-.08a3.33,3.33,0,0,1-.55-.1l0,.54a.78.78,0,0,1,.06.45c0,.61,0,1.22,0,1.84v.44c.13,0,.19,0,.26-.1a1.8,1.8,0,0,1,1.52-.32,6.13,6.13,0,0,1,1.76.66C95.53,65.33,95.6,65.4,95.7,65.39Z"/><path class="cls-100" d="M100.7,54.48h-.51s0,.06,0,.06h.49Z"/><path class="cls-101" d="M86.42,34a2.23,2.23,0,0,0-.8.19.43.43,0,0,0-.27.56.47.47,0,0,0,.54.25l.26-.09a2.86,2.86,0,0,1,.76-.16c.22,0,.43,0,.64-.06a1,1,0,0,0,.11-.42.35.35,0,0,0-.18-.26A1.14,1.14,0,0,0,87,34,2,2,0,0,1,86.42,34Z"/><path class="cls-3" d="M103.3,45a1.63,1.63,0,0,1,.12.53.26.26,0,0,0,0,.12l0,.16c.09.92,0,1.84,0,2.76,0,.17-.05.35,0,.51a.61.61,0,0,1,0,.27,2.53,2.53,0,0,1,0,.55l0,1.09a.65.65,0,0,1-.15.5h0c-.07.06-.06.14-.09.21l-.12.53a5.07,5.07,0,0,0,.11,1.1h0l.08.08,0,0s.12,0,.17.07.29-.2.45-.27a.18.18,0,0,0,.1-.11h0c.08,0,.06-.13.1-.19h0c.1-.07,0-.2.1-.28h0c.09-.09,0-.21.09-.3a0,0,0,0,1,0-.07c.09-.08,0-.25.15-.31.14.13.08.29.05.44s0,0,0,0,0,.22-.09.31l0,.25a1.93,1.93,0,0,0,0,.83.06.06,0,0,1,0,.07c0,.07,0,.15.09.21h0s0,.14.09.18h0l.08.1h0a.32.32,0,0,0,.35.12.13.13,0,0,0,.11-.06h0c.05,0,.07,0,.1-.07h0a.2.2,0,0,0,.09-.09h0a.18.18,0,0,0,.09-.13s0,0,0,0a10.75,10.75,0,0,0,0-1.5,1.23,1.23,0,0,1,0-.54h0a.12.12,0,0,1,.18,0s0,0,0,.07,0,.34.07.49l0,.34c.09.16,0,.34.08.49a0,0,0,0,1,0,.07,2.3,2.3,0,0,0,.18.58c.13.11.25.14.38,0a10.4,10.4,0,0,0,.06-2,3.38,3.38,0,0,1,0-.45s0-.09.09-.09a.14.14,0,0,1,.15.08.13.13,0,0,1,0,.08A8,8,0,0,1,107,53a.3.3,0,0,1,0,.23c.07.13,0,.29.08.41l.2.47.07.09v0a.19.19,0,0,1,.08.07h0a.41.41,0,0,0,.11.07h.06a.27.27,0,0,1,.1-.06l0,0a.13.13,0,0,1,.07-.09h0s.07-.06.08-.11h0a6.41,6.41,0,0,0,0-1.75,3.12,3.12,0,0,1-.1-1.39,6.09,6.09,0,0,0-.09-1.95,0,0,0,0,1,0-.07,1.27,1.27,0,0,1-.06-.18c0-.62-.09-1.24-.13-1.87h0c-.09-.11,0-.26-.08-.38a5.49,5.49,0,0,1-.22-1.21,13.19,13.19,0,0,1-.17-1.54A2.8,2.8,0,0,1,107,43c-.07-.42-.11-.85-.16-1.27,0-.07-.06-.05-.11,0l-.09,0-.12.08-.08,0-.13.06-.1,0a1.33,1.33,0,0,1-.28,0l-.2,0c-.76.18-1.53.37-2.28.58s-.61.17-.44.78c0,.06,0,.12,0,.17a2,2,0,0,1,.13.67A3.2,3.2,0,0,1,103.3,45Z"/><path class="cls-81" d="M107.75,49v.37l.09,1.58a.27.27,0,0,0,.1-.19,6.52,6.52,0,0,0-.11-1.65S107.78,49,107.75,49Z"/><path class="cls-50" d="M107.94,52.33c0,.43,0,.86,0,1.29,0,.15,0,.3,0,.46h.1V52.62C108,52.51,108,52.4,107.94,52.33Z"/><path class="cls-47" d="M88.2,38.54a.35.35,0,0,0,.28.07C88.4,38.51,88.3,38.53,88.2,38.54Z"/><path class="cls-47" d="M88.85,38.82a.08.08,0,0,0,.09.07Z"/><path class="cls-47" d="M88.74,38.73a.1.1,0,0,0,.11.08A.13.13,0,0,0,88.74,38.73Z"/><path class="cls-47" d="M88.57,38.63a.1.1,0,0,0,.09.06Z"/><path class="cls-102" d="M92.28,38.54a.82.82,0,0,0,.35.2c.23.09.27.06.4-.21l-.09-.09a.26.26,0,0,1-.33.06A.33.33,0,0,0,92.28,38.54Z"/><path class="cls-103" d="M91.63,38.53c.12,0,.09-.16.19-.18a.2.2,0,0,0-.19-.09.14.14,0,0,1,0,.09Z"/><path class="cls-102" d="M92.07,38.45a.21.21,0,0,0,.21.09A.17.17,0,0,0,92.07,38.45Z"/><path class="cls-102" d="M92.93,38.43s0-.08-.08-.06A.07.07,0,0,0,92.93,38.43Z"/><path class="cls-27" d="M105.62,52.14c-.09.1-.06.23-.06.35l0,1.69c.1-.07.1-.18.1-.29C105.62,53.31,105.62,52.72,105.62,52.14Z"/><path class="cls-27" d="M105.89,52.7a.91.91,0,0,0-.07-.49l0,.31a.13.13,0,0,0,0,.18h.08Z"/><path class="cls-51" d="M105.16,54.56a.41.41,0,0,1-.38-.09.19.19,0,0,0,.21.18h.17s0,0,0,0S105.17,54.56,105.16,54.56Z"/><path class="cls-27" d="M105.8,52.14c-.07-.13-.1-.13-.18,0Z"/><path class="cls-51" d="M104.61,54.18a.24.24,0,0,0-.09-.21v.21Z"/><path class="cls-51" d="M104.7,54.36a.18.18,0,0,0-.09-.18A.15.15,0,0,0,104.7,54.36Z"/><path class="cls-35" d="M105.81,52.7v-.18C105.71,52.58,105.72,52.64,105.81,52.7Z"/><path class="cls-27" d="M105.52,54.23a.17.17,0,0,0-.09.13A.13.13,0,0,0,105.52,54.23Z"/><path class="cls-27" d="M105.43,54.36a.11.11,0,0,0-.09.09A.11.11,0,0,0,105.43,54.36Z"/><path class="cls-51" d="M104.78,54.46a.1.1,0,0,0-.08-.1A.11.11,0,0,0,104.78,54.46Z"/><path class="cls-27" d="M105.34,54.46a.09.09,0,0,0-.1.07A.11.11,0,0,0,105.34,54.46Z"/><path class="cls-27" d="M105.16,54.56v.08a.12.12,0,0,0,.08-.11S105.18,54.53,105.16,54.56Z"/><path class="cls-104" d="M104.62,52.46a.56.56,0,0,0,.08-.4.17.17,0,0,0-.07-.1.12.12,0,0,0-.16.06.47.47,0,0,0,0,.31c.1,0,0-.17.17-.18Z"/><path class="cls-104" d="M104.51,53.9v-.83A.9.9,0,0,0,104.51,53.9Z"/><path class="cls-104" d="M104.41,52.4a.4.4,0,0,0-.09.3C104.44,52.62,104.42,52.51,104.41,52.4Z"/><path class="cls-104" d="M104.52,52.82a.39.39,0,0,0,.09-.31C104.49,52.59,104.51,52.7,104.52,52.82Z"/><path class="cls-104" d="M104.32,52.69a.37.37,0,0,0-.1.28C104.35,52.91,104.33,52.8,104.32,52.69Z"/><path class="cls-104" d="M104.22,53a.24.24,0,0,0-.1.19C104.22,53.12,104.23,53.05,104.22,53Z"/><path class="cls-61" d="M103.58,53.52a.19.19,0,0,0-.17-.07A.13.13,0,0,0,103.58,53.52Z"/><path class="cls-61" d="M103.39,53.43a.11.11,0,0,0-.08-.08A.1.1,0,0,0,103.39,53.43Z"/><path class="cls-104" d="M104.13,53.14a.13.13,0,0,0-.1.11A.13.13,0,0,0,104.13,53.14Z"/><path class="cls-27" d="M106.18,54.18a1.51,1.51,0,0,0-.18-.58A.6.6,0,0,0,106.18,54.18Z"/><path class="cls-27" d="M106,53.53a.93.93,0,0,0-.08-.49C105.91,53.21,105.84,53.39,106,53.53Z"/><path class="cls-25" d="M107.1,53.62a.66.66,0,0,0-.08-.41C107,53.36,107,53.51,107.1,53.62Z"/><path class="cls-50" d="M107.59,54.35a.11.11,0,0,0-.11-.07A.11.11,0,0,0,107.59,54.35Z"/><path class="cls-50" d="M107.75,54.3l-.1.06A.1.1,0,0,0,107.75,54.3Z"/><path class="cls-50" d="M107.46,54.27a.08.08,0,0,0-.08-.07Z"/><path class="cls-50" d="M107.85,54.19a.08.08,0,0,0-.07.09Z"/><path class="cls-50" d="M107.37,54.18s0-.08-.07-.09A.09.09,0,0,0,107.37,54.18Z"/><path class="cls-50" d="M107.93,54.07a.12.12,0,0,0-.08.11A.11.11,0,0,0,107.93,54.07Z"/><path class="cls-52" d="M103.86,37l-.09.07Z"/><path class="cls-78" d="M103.67,37.13a.18.18,0,0,0-.14.1A.17.17,0,0,0,103.67,37.13Z"/><path class="cls-78" d="M103.77,37.05a.11.11,0,0,0-.11.08A.13.13,0,0,0,103.77,37.05Z"/><path class="cls-78" d="M103.49,37.24a.14.14,0,0,0-.1.08Z"/><path class="cls-39" d="M104.78,36.2a.13.13,0,0,0-.1.1A.11.11,0,0,0,104.78,36.2Z"/><path class="cls-4" d="M88.55,28.06a2.06,2.06,0,0,0-2,1.53.85.85,0,0,0,0,.59c.07.16.06.36.12.53a2.12,2.12,0,0,0,1.75,1.56,2.05,2.05,0,0,0,2.34-1.91,2.22,2.22,0,0,0-1.27-2.08A2,2,0,0,0,88.55,28.06Z"/><path class="cls-4" d="M99.77,31.08a2.05,2.05,0,0,0,2.42,2,2.22,2.22,0,0,0,1.75-1.81,1.42,1.42,0,0,1,.08-.4.72.72,0,0,0,0-.41A2.08,2.08,0,0,0,101.27,29,2.43,2.43,0,0,0,100,30.26,1.63,1.63,0,0,0,99.77,31.08Z"/><path class="cls-96" d="M95.35,26.58h.28c.11,0,.16-.07.18-.17s0-.26,0-.39a2.54,2.54,0,0,1,.08-1.95c0-.07,0-.13.05-.2a.28.28,0,0,0,0-.13l-.06,0a1.12,1.12,0,0,1-.69.12c-.17,0-.24-.12-.34-.21a2.69,2.69,0,0,0-2-.65c-.17,0-.37,0-.45.19s.11.29.21.41A1.32,1.32,0,0,1,92.86,25a1.15,1.15,0,0,1-1.06.7c-.17,0-.38,0-.45.16s.08.32.18.45a2.38,2.38,0,0,0,3.4.51.89.89,0,0,1,.31-.19Z"/><path class="cls-105" d="M95.81,23.91a3,3,0,0,0-.29,1.41,3.66,3.66,0,0,0,.29,1.09l.16.18c.24.26.58.42.75.76A2.55,2.55,0,0,0,100.65,26a2.6,2.6,0,0,0,.06-.92c0-.09-.06-.2,0-.27a1,1,0,0,0-.2-.87,2.68,2.68,0,0,0-4.39-.42l-.19.2a0,0,0,0,1,0,.06A.39.39,0,0,1,95.81,23.91Z"/><path class="cls-105" d="M95.26,26.58a.15.15,0,0,0-.21,0l-.21.17a1.87,1.87,0,0,1-1.64.46A2.4,2.4,0,0,1,91.44,26a.42.42,0,0,1,0-.13h.46a1.26,1.26,0,0,0,1.19-1.54,1.52,1.52,0,0,0-.55-.94l-.24-.19a2.37,2.37,0,0,1,1.66,0,2.92,2.92,0,0,1,.91.55.62.62,0,0,0,.18.14c.07,0,.11,0,.13-.1a3,3,0,0,0-1.47-1,2,2,0,0,0-1.22-.06,3.72,3.72,0,0,0-1,.54c-.63.49-.6,1.2-.66,1.88,0,.15,0,.3,0,.45a.09.09,0,0,0,0,.09c.06.06,0,.14.08.21a2.14,2.14,0,0,0,.66,1,6.63,6.63,0,0,0,1.84.83.92.92,0,0,0,.59,0,1.71,1.71,0,0,0,1-.38C95.07,27.08,95.36,26.91,95.26,26.58Z"/><path class="cls-106" d="M98.18,22.23a2,2,0,0,0,.59-.1,2.49,2.49,0,0,1,1.27,0,3.41,3.41,0,0,0,.55.05.59.59,0,0,0,.19,0A.21.21,0,0,0,101,22a.18.18,0,0,0-.13-.18l-.12-.05-1-.23a1.71,1.71,0,0,0-.87,0,2.36,2.36,0,0,1-1.09,0c-.29-.05-.58-.08-.87-.11a1.19,1.19,0,0,0-.42,0,.31.31,0,0,0-.25.33.32.32,0,0,0,.26.29l.55.05Z"/><path class="cls-106" d="M92.47,21.75a17.22,17.22,0,0,0,1.76,0,1.31,1.31,0,0,0,.27-.06.18.18,0,0,0,0-.3l-.17-.08a1.7,1.7,0,0,0-.5-.09c-.6,0-1.2-.06-1.8-.11a12.71,12.71,0,0,0-1.38,0h-.14a.35.35,0,0,0-.3.31.34.34,0,0,0,.33.32.86.86,0,0,0,.32,0A8.24,8.24,0,0,1,92.47,21.75Z"/><path class="cls-107" d="M92.7,32.35c1.18.28,2.35.29,3.5.55.08.1,0,.23,0,.34a.24.24,0,0,0,.17.14.22.22,0,0,0,.22-.14.29.29,0,0,0,0-.09v-1c0-.08,0-.16-.13-.16s-.12.08-.14.16,0,.3-.11.39-.3,0-.45,0A17.72,17.72,0,0,0,94,32.24c-.43,0-.84-.17-1.27-.22a.19.19,0,0,1-.17-.19c0-.09,0-.19,0-.28s-.1-.25-.18-.22-.11.14-.1.22c0,.33,0,.65,0,1a.29.29,0,0,0,0,.09c0,.09.08.17.19.17a.17.17,0,0,0,.19-.16A2.1,2.1,0,0,0,92.7,32.35Z"/><path class="cls-108" d="M92.91,29.15a.63.63,0,0,0,.23.62,2.77,2.77,0,0,0,.64.38.75.75,0,0,0,.26.05.19.19,0,0,0,.21-.15.21.21,0,0,0-.1-.24.76.76,0,0,0-.21-.08,2.42,2.42,0,0,1-.54-.25.28.28,0,0,1-.15-.17.69.69,0,0,1,.39-.79.64.64,0,0,1,.36,0l.68.13a.31.31,0,0,0,.41-.21,1.18,1.18,0,0,0,.14-.71l-.06-.06s-.07,0-.08,0-.13.31-.2.46-.09.17-.24.14l-.31-.07a2.12,2.12,0,0,0-.56,0,.9.9,0,0,0-.85.77Z"/><path class="cls-109" d="M95,38.73a.94.94,0,0,0,.22.07A9.54,9.54,0,0,0,98,38.61l.71-.19a2.79,2.79,0,0,0,.59-.43l.11-.15s0,0,0,0,0,0-.06,0a.4.4,0,0,0-.13,0,3.73,3.73,0,0,1-1.74.56,10.14,10.14,0,0,1-2.4,0h-.23c.1.31.36.23.57.28C95.3,38.68,95.08,38.52,95,38.73Z"/><path class="cls-110" d="M107.49,33.11c-.06-.14-.19-.17-.3-.24L106.54,34a3.27,3.27,0,0,1-.57.77c.18,0,.31-.14.47-.15s.29.07.45.06h1.27a.46.46,0,0,0-.34-.08H107a.5.5,0,0,1-.33,0,2.6,2.6,0,0,1,.28-.45c.1-.15.21-.3.3-.46A2.19,2.19,0,0,0,107.49,33.11Z"/><path class="cls-111" d="M90.79,25.57s.07-.06.08-.1a5.21,5.21,0,0,0,.1-1,1.52,1.52,0,0,1,.71-1.32,4.48,4.48,0,0,1,.6-.35c.06,0,.14-.06.18-.14a2.08,2.08,0,0,0-1.75,1.61A2,2,0,0,0,90.79,25.57Z"/><path class="cls-112" d="M94,27.7a3,3,0,0,1-1.22-.32L92,27a.73.73,0,0,0-.43-.13,2.8,2.8,0,0,0,2.26.9A.58.58,0,0,0,94,27.7Z"/><path class="cls-113" d="M94,38.51h.17c.22-.05.48,0,.66-.19l-.17-.08a2.79,2.79,0,0,1-1-.4.19.19,0,0,0-.28.07.21.21,0,0,0,0,.25A2.38,2.38,0,0,0,94,38.51Z"/><path class="cls-114" d="M94.8,38.33c-.23,0-.48,0-.66.19a1.78,1.78,0,0,0,.81.21l.59,0c-.24-.2-.24-.21-.47-.26a.25.25,0,0,1-.19-.09A.08.08,0,0,0,94.8,38.33Z"/><path class="cls-115" d="M96.72,27.35a.41.41,0,0,0-.21-.45,1.94,1.94,0,0,0-.54-.31A1.63,1.63,0,0,0,96.72,27.35Z"/><path class="cls-116" d="M95.26,26.58a.44.44,0,0,1-.11.24.78.78,0,0,0-.19.5.75.75,0,0,0,.34-.27.33.33,0,0,0,0-.47Z"/><path class="cls-111" d="M90.88,25.87a.18.18,0,0,0-.08-.21A.21.21,0,0,0,90.88,25.87Z"/><path class="cls-60" d="M95.72,48.83c.1.1.22.07.34.07a3.33,3.33,0,0,1,1,.08.59.59,0,0,0,.19,0h2.29a.49.49,0,0,0-.27,0L96,48.81Z"/><path class="cls-117" d="M87.65,43.44l-.19.28-.09.09v.09s0,.05,0,.07l0,0c.16,0,.19-.12.28-.19h0a.86.86,0,0,1,.07-.1v0c.06,0,0-.13.11-.16a.44.44,0,0,0,.19-.25c0-.06,0-.12,0-.18,0-.32,0-.32-.42-.28a.66.66,0,0,1,.14.52Z"/><path class="cls-118" d="M87.66,43.81l-.29.18,0,0,0,.05c-.09.17-.17.35-.26.52a.84.84,0,0,0-.1.52.61.61,0,0,0,.16-.28C87.34,44.51,87.5,44.16,87.66,43.81Z"/><path class="cls-119" d="M87.09,48.53a.76.76,0,0,0,.39.1H88.7a2,2,0,0,0-.59-.07,4.57,4.57,0,0,1-.82-.09A.16.16,0,0,0,87.09,48.53Z"/><path class="cls-63" d="M100.34,49.09h1.14L101.3,49c-.44,0-.88-.06-1.33,0,0,0,0,0,0,.07l0,0Z"/><path class="cls-79" d="M100.61,44.66c0-.16.07-.34-.08-.48A.79.79,0,0,0,100.61,44.66Z"/><path class="cls-60" d="M100,49.08a.28.28,0,0,1,0-.09.67.67,0,0,0-.37,0C99.7,49.13,99.85,49.07,100,49.08Z"/><path class="cls-86" d="M86.93,45.3c-.1,0-.11.1-.1.19A.19.19,0,0,0,86.93,45.3Z"/><path class="cls-118" d="M87.85,43.54a.15.15,0,0,0-.11.16A.19.19,0,0,0,87.85,43.54Z"/><path class="cls-56" d="M101.16,46.88a.16.16,0,0,0-.07-.2C101.08,46.76,101.08,46.83,101.16,46.88Z"/><path class="cls-120" d="M99.39,47.48h0s0,0,0-.05,0,0,0,0S99.39,47.47,99.39,47.48Z"/><path class="cls-119" d="M87,48.62l.09-.09A.08.08,0,0,0,87,48.62Z"/><path class="cls-118" d="M87.73,43.72l-.07.1A.1.1,0,0,0,87.73,43.72Z"/><path class="cls-58" d="M103.32,51.71a.23.23,0,0,0,.09-.21C103.31,51.54,103.31,51.62,103.32,51.71Z"/><path class="cls-65" d="M96.65,62.34c0,.1,0,.2,0,.29a.21.21,0,0,0,0-.24S96.68,62.35,96.65,62.34Z"/><path class="cls-121" d="M103,43.53c0-.23-.13-.44-.07-.69.89-.21,1.76-.51,2.67-.7a1.72,1.72,0,0,0,.21-.07c-.06-.28-.39-.1-.5-.28a1.67,1.67,0,0,0-.66.15c-.08.19-.24.08-.37.1a1.42,1.42,0,0,0-.54.12,3.58,3.58,0,0,1-.71.2c-.17,0-.17,0-.3-.16v.22c.25.22-.15.52.09.74C102.93,43.27,102.9,43.44,103,43.53Z"/><path class="cls-122" d="M105.34,41.79l-.12.16a1.07,1.07,0,0,1,.62.12l.14,0c.09-.07.21,0,.29-.08h0c0-.06.12-.05.18-.09h0c0-.06.13,0,.18-.09h0a.15.15,0,0,0,0-.19h0a.42.42,0,0,0-.29,0h0c-.12.15-.31,0-.45.1A1.2,1.2,0,0,0,105.34,41.79Z"/><path class="cls-123" d="M104.31,42a.35.35,0,0,0,.36.09c.07,0,.08-.07,0-.19A.55.55,0,0,0,104.31,42Z"/><path class="cls-124" d="M106.65,41.58v.19l.16-.06c0-.17.08-.35-.07-.49v.17C106.74,41.47,106.73,41.54,106.65,41.58Z"/><path class="cls-124" d="M105.9,41.67h.27a.17.17,0,0,0,.18-.11A.87.87,0,0,0,105.9,41.67Z"/><path class="cls-124" d="M106.36,41.56l.29,0C106.55,41.46,106.46,41.48,106.36,41.56Z"/><path class="cls-79" d="M100.62,42.79l.09-.09Z"/><path class="cls-79" d="M100.71,42.51h.08C100.77,42.45,100.74,42.47,100.71,42.51Z"/><path class="cls-75" d="M107.48,46.49a.5.5,0,0,0,.08.38C107.57,46.74,107.61,46.6,107.48,46.49Z"/><path class="cls-125" d="M102.84,43.16c0-.16,0-.33.1-.47s0-.07,0-.1l-.15-.17c-.15.14-.08.31-.09.47a.59.59,0,0,0,0,.23C102.69,43.24,102.78,43.17,102.84,43.16Z"/><path class="cls-77" d="M103.58,48.62c0-.67,0-1.35,0-2,0-.19,0-.37,0-.56a.37.37,0,0,0-.06-.22c0,.94,0,1.87,0,2.8Q103.54,48.7,103.58,48.62Z"/><path class="cls-58" d="M103.58,48.62h-.09c0,.16-.06.34.1.47A1.24,1.24,0,0,0,103.58,48.62Z"/><path class="cls-77" d="M103.47,45.66a.11.11,0,0,0,0-.12l0,.12h.07Z"/><path class="cls-87" d="M87.37,44V43.9l-.09.09h0a.07.07,0,0,0,.09,0Z"/><path class="cls-118" d="M87.37,43.81l.09-.09Z"/><path class="cls-118" d="M87.65,43.44l.09-.09Z"/><path class="cls-117" d="M87.37,44h-.09l.09.09Z"/><path class="cls-99" d="M98.11,65c.11.12.25.09.38.08A.46.46,0,0,0,98.11,65Z"/><path class="cls-99" d="M98.49,65.1c.08.12.2.1.32.09A.37.37,0,0,0,98.49,65.1Z"/><path class="cls-99" d="M98.85,65.2a.18.18,0,0,0,.2.09A.2.2,0,0,0,98.85,65.2Z"/><path class="cls-124" d="M106.27,42A.27.27,0,0,0,106,42,.29.29,0,0,0,106.27,42Z"/><path class="cls-124" d="M106.46,41.87a.15.15,0,0,0-.18.09A.15.15,0,0,0,106.46,41.87Z"/><path class="cls-124" d="M106.64,41.78a.16.16,0,0,0-.18.09C106.54,41.88,106.61,41.87,106.64,41.78Z"/><path class="cls-3" d="M95.81,23.91a.09.09,0,0,0,.06-.11A.09.09,0,0,0,95.81,23.91Z"/><path class="cls-96" d="M96.2,26.05a.19.19,0,0,0,0,.18,2.31,2.31,0,0,0,2.28,1.16,2.25,2.25,0,0,0,1.93-1.74,2.34,2.34,0,0,0,.08-.64.23.23,0,0,0,0-.17,1.55,1.55,0,0,1-.28-.52,2.26,2.26,0,0,0-3-1.1c-.19.09-.21.13-.06.25A2,2,0,0,1,97.81,25a1,1,0,0,1-.93,1.06C96.65,26.07,96.43,26.05,96.2,26.05Z"/><path class="cls-126" d="M91.13,25.25a.25.25,0,0,0,0,.07s.06,0,.07,0a.08.08,0,0,0,0-.06S91.16,25.24,91.13,25.25Z"/></svg>