<svg id="Layer_1" data-name="Layer 1" xmlns="http://www.w3.org/2000/svg" viewBox="0 0 200 83.88"><defs><style>.cls-1{fill:#1a344e;}.cls-2{fill:#fad3d3;}.cls-3{fill:#0f1d2b;}.cls-4{fill:#101d2b;}.cls-5{fill:#111e2b;}.cls-6{fill:#101d29;}.cls-7{fill:#0f1e2b;}.cls-8{fill:#13212f;}.cls-9{fill:#1b2836;}.cls-10{fill:#19202d;}.cls-11{fill:#1b334f;}.cls-12{fill:#1b2938;}.cls-13{fill:#142633;}.cls-14{fill:#12202d;}.cls-15{fill:#142835;}.cls-16{fill:#1c2736;}.cls-17{fill:#1b2534;}.cls-18{fill:#1a2b38;}.cls-19{fill:#1c3753;}.cls-20{fill:#1a2635;}.cls-21{fill:#212f3e;}.cls-22{fill:#19202e;}.cls-23{fill:#122232;}.cls-24{fill:#222331;}.cls-25{fill:#232432;}.cls-26{fill:#2a3b51;}.cls-27{fill:#2f2c3a;}.cls-28{fill:#362836;}.cls-29{fill:#1c354f;}.cls-30{fill:#2f2836;}.cls-31{fill:#132131;}.cls-32{fill:#39414e;}.cls-33{fill:#591f2c;}.cls-34{fill:#1a3044;}.cls-35{fill:#51a4a9;}.cls-36{fill:#303f50;}.cls-37{fill:#3e1e2c;}.cls-38{fill:#2b1b28;}.cls-39{fill:#152233;}.cls-40{fill:#1b3340;}.cls-41{fill:#142535;}.cls-42{fill:#122332;}.cls-43{fill:#152736;}.cls-44{fill:#102130;}.cls-45{fill:#10202e;}.cls-46{fill:#132234;}.cls-47{fill:#13283b;}.cls-48{fill:#101e2c;}.cls-49{fill:#132334;}.cls-50{fill:#9fa5ac;}.cls-51{fill:#142132;}.cls-52{fill:#77919b;}.cls-53{fill:#efffa4;}.cls-54{fill:#1d3650;}.cls-55{fill:#223852;}.cls-56{fill:#243952;}.cls-57{fill:#2f4459;}.cls-58{fill:#326ae9;}.cls-59{fill:#1d3453;}.cls-60{fill:#1f3e6d;}.cls-61{fill:#131e2e;}.cls-62{fill:#1c394f;}.cls-63{fill:#6d70e3;}.cls-64{fill:#8bbdc1;}.cls-65{fill:#273757;}.cls-66{fill:#1e364f;}.cls-67{fill:#1f3850;}.cls-68{fill:#223758;}.cls-69{fill:#2c4356;}.cls-70{fill:#252b3e;}.cls-71{fill:#162532;}.cls-72{fill:#2a2d3d;}.cls-73{fill:#f2f8d3;}.cls-74{fill:#142333;}.cls-75{fill:#213952;}.cls-76{fill:#162132;}.cls-77{fill:#202b41;}.cls-78{fill:#213650;}.cls-79{fill:#2d2e3c;}.cls-80{fill:#101f2d;}</style></defs><path class="cls-1" d="M84.7,21.27a2.13,2.13,0,0,1,.92-.58c.58-.26,1.19-.49,1.79-.72a.93.93,0,0,1,.57-.1,1.28,1.28,0,0,0,1-.06.33.33,0,0,0,.19-.14.44.44,0,0,1,.4-.05.65.65,0,0,0,.77-.08,10,10,0,0,1,4.33-1.64,12.52,12.52,0,0,1,1.62,0,1.67,1.67,0,0,1,.63.06h0A6.29,6.29,0,0,1,99,18.6c.75.38,1,1.17,1.45,1.78.13.16.11.42.36.5a1.85,1.85,0,0,1,.23.92c-.09.06-.19.15-.16.26a22.45,22.45,0,0,1,0,3.28,2.22,2.22,0,0,1-.24,1.08,6.48,6.48,0,0,0-.77.08c-.22,0-.43-.05-.65-.05a.9.9,0,0,0-1,.86,8.1,8.1,0,0,0-.15,1.29,1.92,1.92,0,0,1-.26,1c-.18.32-.41.6-.81.56a.87.87,0,0,1-.88-.63,2.29,2.29,0,0,0-.22-1.74c-.06-.18-.18,0-.2.14a1.05,1.05,0,0,1-1,.38c-.26-.34-.51,0-.77,0a1.2,1.2,0,0,1-.59-.11,2.22,2.22,0,0,1-.5-.28s0,0,0,0,.06,0,.1.07a.48.48,0,0,1,.2.4.45.45,0,0,1-.42.36,11.59,11.59,0,0,0-2.09.51,1.34,1.34,0,0,1-1.07-.08c-.09-.29,0-.65-.31-.82,0,.11.19.27,0,.42-.27,0-.35-.22-.51-.45,0,.59-.36.71-.77.77-.23,0-.57.23-.65-.23.2-.22.53-.1.71-.22-.54.22-1.11-.22-1.69-.06a1.92,1.92,0,0,1-.95-.73c-.11-.12-.21-.35-.4-.22s-.08.37.06.54.23.56,0,.86-.54.13-.8.19-.29,0-.34-.2c-1.4-.88-1.49-2.27-1.46-3.71a8.74,8.74,0,0,1,.37-2.08,1.47,1.47,0,0,1,.49-.64C83.85,22.19,84.56,22,84.7,21.27Z"/><path class="cls-2" d="M93.37,28.08l.64.13c.22-.05.43-.14.64,0a1.76,1.76,0,0,0,1.07-.39c.31,0,.35.19.38.41a11.37,11.37,0,0,1,.11,1.16c.07.28.3.41.53.53a.55.55,0,0,0,.81-.16,1.87,1.87,0,0,0,.38-1c0-.47.11-1,.13-1.43a1.17,1.17,0,0,1,1.54-1c.14,0,.29.09.43.13a1.91,1.91,0,0,1,.88,2.84l-.14.12-.14.09-.19.1-.07.09a.12.12,0,0,0,0,.1.27.27,0,0,0,.12,0l.13-.05.13-.07a1.24,1.24,0,0,0,.22-.18,1.47,1.47,0,0,1,.1-.13A.74.74,0,0,1,102,29a.42.42,0,0,1,.17.1,2.36,2.36,0,0,1,.16,1.89,7.92,7.92,0,0,1-2.87,4.3.65.65,0,0,1-.6.18c-.5-.35-.43-.79-.21-1.27.42-.89.4-1.22,0-1.56a1.63,1.63,0,0,0-1.83.21,1.85,1.85,0,0,0-.43.64c-.29.61-.39.62-.8,0a19.41,19.41,0,0,1-1.06-2,.78.78,0,0,0-1-.12,1.29,1.29,0,0,1-1.07.08.89.89,0,0,0-1,.18,1,1,0,0,1-1,.22,2.68,2.68,0,0,0-1.89.67c-.48.33-.33,1-.23,1.47,0,.3.13.59.18.89s.1.46-.17.57a.55.55,0,0,1-.6-.16,1.64,1.64,0,0,1-.36-.61A11.69,11.69,0,0,1,87,32.83c-.13-.56-.36-.94-1-.92s-1-.45-1.6-.51a.83.83,0,0,1-.16-.09.72.72,0,0,1-.17-.23L84,31a1.21,1.21,0,0,1,0-.18c0-.14-.07-.29-.11-.43a1.16,1.16,0,0,1,0-.18,7.22,7.22,0,0,1,0-.93l.16-.21V29L84,29a.26.26,0,0,0,.27.11h.08a.85.85,0,0,1,.22,0,.5.5,0,0,0,.21,0l.19-.07a.43.43,0,0,0,.09-.1L85,28.09c-.12-.37.09-.32.29-.2s.47.36.73.51a1.83,1.83,0,0,0,.32.14c.2,0,.4.05.59.1a1.53,1.53,0,0,1,.39.18l0,.07c.43.24.82,0,1.22-.13.09,0,.1-.13.09-.22s0-.38-.07-.57c0,0,0-.08.07-.08s.08,0,.1,0,.14.32.22.47a.77.77,0,0,0,.32.39.26.26,0,0,1,.27.22,1.11,1.11,0,0,0,1,.1,6.64,6.64,0,0,0,.94-.27,3.4,3.4,0,0,1,1.27-.23c.26,0,.27,0,.29-.37S93.19,28,93.37,28.08Z"/><path class="cls-1" d="M93.86,64.7a.72.72,0,0,1,.37-.32,3.27,3.27,0,0,0,1.08-1,1.47,1.47,0,0,1,.38-.48c.79-.26,1.64-.2,2.43-.46l.19,0a2.66,2.66,0,0,0,1.32.05c-.45,0-.85.17-1.21-.11a.24.24,0,0,1,.06-.2,5.56,5.56,0,0,1,3.28-.14c.14.09.17.19,0,.3s-.38.07-.6.15a6,6,0,0,1,.29,1.11c.28.77,0,1.6.22,2.38a2.2,2.2,0,0,1,.16.89,2.59,2.59,0,0,1-1.59,1.51c-.92.33-1.87.57-2.81.83a.61.61,0,0,1-.19,0,9.18,9.18,0,0,0-2.45.23,4.48,4.48,0,0,1-1.42-.12,2.69,2.69,0,0,0-.89-.11c-1.05,0-1.23-.42-1.23-1.33a1.63,1.63,0,0,1,.4-1.08c.43-.64,1.18-.91,1.7-1.45A1.43,1.43,0,0,0,93.86,64.7Z"/><path class="cls-1" d="M82.08,66.06a.53.53,0,0,1-.25-.37,2,2,0,0,1,0-1.08,4.11,4.11,0,0,1,2.73-2.28,5.92,5.92,0,0,0,.9-.38A3.26,3.26,0,0,1,88,61.58a2.76,2.76,0,0,0,1.13,0,6.83,6.83,0,0,0-1.32-.15c-.18,0-.49,0-.26-.37,1.33-.15,2.64-.44,4-.61a1.69,1.69,0,0,1,.83.08c.25.28,0,.37-.19.46s-.32.2-.24.44A6.12,6.12,0,0,1,92,63.19c0,.37,0,.74,0,1.11a1.91,1.91,0,0,1-1.33,1.9l-.17,0c-.08.09-.26-.07-.3.12a.46.46,0,0,1-.43.1.28.28,0,0,0-.38,0,6,6,0,0,1-1.41.13l-1.22,0c.29-.42.68-.15,1-.19a2,2,0,0,0-1.06,0,15.91,15.91,0,0,1-3.31.15A2.57,2.57,0,0,1,82.08,66.06Z"/><path class="cls-3" d="M91.91,63.2c0-.33,0-.66,0-1a1.9,1.9,0,0,0-.26-1c-.09-.16-.07-.22.1-.3s.51-.12.69-.34a16.11,16.11,0,0,1-.2-2.07V52.37a3.48,3.48,0,0,1,0-.72c0-.23.07-.51.32-.6s.33.17.45.31.5.2.78.16.46.16.48.44a4.28,4.28,0,0,1,0,1.24A8.63,8.63,0,0,0,94.4,56a17.64,17.64,0,0,1,.32,3c0,.63,0,1.26,0,1.89a1.89,1.89,0,0,0,.76,1.57c0,.24-.18.19-.33.14a.78.78,0,0,1-.75-.68A13.21,13.21,0,0,1,94.17,60c-.12-1.17-.21-2.34-.33-3.51a21.72,21.72,0,0,1-.16-4.07c-.2-.14-.45-.07-.67-.09s-.12.05-.14.11a.29.29,0,0,0,0,.13c.17,2,.06,4,.11,6.08,0,.37.06.74.07,1.11s0,.69,0,1-.11.31-.33.33-.34,0-.52,0c-.29.5,0,1-.14,1.56C92.06,62.85,92.27,63.13,91.91,63.2Z"/><path class="cls-4" d="M87.44,61.12c.23.19.5.12.76.11a4.14,4.14,0,0,1,1.16.14.13.13,0,0,1,.07.09s0,.09-.05.1a.87.87,0,0,1-.35.17c-.41,0-.8.16-1.22,0a1.72,1.72,0,0,0-1.1,0,3.14,3.14,0,0,0-1.22.44,2.09,2.09,0,0,1-.65.29A5.37,5.37,0,0,0,82.23,64a1.46,1.46,0,0,0-.3.58c0,.1-.09,0-.14,0a1.52,1.52,0,0,1,.37-1,3.62,3.62,0,0,1,2-1.31A2.8,2.8,0,0,0,85,62c0-.14-.11-.21-.13-.33A.4.4,0,0,1,85,61.2c.26-.13.23-.31.18-.54a13.84,13.84,0,0,1-.3-1.93,17.35,17.35,0,0,1-.1-2.16c0-1.41,0-2.83,0-4.25a8.14,8.14,0,0,1,0-1.56c.26,0,.32.19.39.37a27.32,27.32,0,0,1,.19,4.61A26.7,26.7,0,0,0,85.79,60c.12.8.17.83,1,.89C87,60.93,87.27,60.91,87.44,61.12Z"/><path class="cls-5" d="M113.42,33.72a10.29,10.29,0,0,1,1.42,1.86,17.42,17.42,0,0,1,2.36,6.18,18.23,18.23,0,0,1,.3,3.38,3.48,3.48,0,0,0,0,.91.41.41,0,0,1-.16.4,1.27,1.27,0,0,0-.37.18l-.16.08a1.06,1.06,0,0,1-.25.09.7.7,0,0,1-.29,0c-.17,0-.33-.08-.34-.3a.36.36,0,0,1,.24-.28c.72-.23.69-.75.63-1.37a24.8,24.8,0,0,0-.68-4.38,15.7,15.7,0,0,0-2-4.53,2.55,2.55,0,0,1-.37-.69,3.08,3.08,0,0,0-.46-1c-.14-.21-.35-.41-.22-.7a.14.14,0,0,1,.18,0h0C113.3,33.65,113.36,33.68,113.42,33.72Z"/><path class="cls-6" d="M102.13,29.2l-.13-.07c-.09-.06-.19-.11-.17-.24s.12-.09.18-.15a2.89,2.89,0,0,1,1-.06A14.29,14.29,0,0,1,111.66,32a1.09,1.09,0,0,1,.18.19.11.11,0,0,1,0,.17c-.32.14-.52-.1-.75-.24a4.46,4.46,0,0,0-1.58-.69A18.06,18.06,0,0,0,104,29.55,5,5,0,0,1,102.13,29.2Z"/><path class="cls-7" d="M116,52.33a5.08,5.08,0,0,1-1.27.65,2.47,2.47,0,0,1-1.29.14,1.1,1.1,0,0,0-.69.1,2.3,2.3,0,0,1-1.34.21,1.61,1.61,0,0,0-.58,0c-.56.12-1.11.24-1.66.39a17.26,17.26,0,0,1-1.93.32c-.13,0-.27,0-.39,0-1,.28-2,.32-3,.56a2.58,2.58,0,0,1-.39,0,2.36,2.36,0,0,1-1.09,0c.11-.34.39-.3.6-.36a35.88,35.88,0,0,1,4.12-.73,6.62,6.62,0,0,0,1.52-.37,10.6,10.6,0,0,1,3.31-.72c.86,0,1.72-.26,2.59-.33.13,0,.27,0,.4-.07l.19-.05C115.41,52.26,115.79,51.82,116,52.33Z"/><path class="cls-8" d="M101.34,63.59a.91.91,0,0,1-.11-.3,1.39,1.39,0,0,0-.32-.87c.06-.18.19-.13.29-.14h.32c.14,0,.27,0,.33-.15a1,1,0,0,1-.18-.68,35.28,35.28,0,0,0-.1-3.71,1.69,1.69,0,0,1,.13-.77,6.59,6.59,0,0,0,.1-2,.22.22,0,0,1,.13-.19c.68,0,.32.47.35.77a5.72,5.72,0,0,1-.07,1.49,5.64,5.64,0,0,0,0,1.48,9.16,9.16,0,0,1,0,1.17c0,.74,0,1.47,0,2.21a.92.92,0,0,0,.12.56.21.21,0,0,1,0,.24.31.31,0,0,1-.24.07c-.42-.06-.66.06-.59.54C101.55,63.4,101.6,63.61,101.34,63.59Z"/><path class="cls-9" d="M84.06,46.3l0-.23c-.11-.17,0-.38-.11-.55a9,9,0,0,1,.19-3.31,14.79,14.79,0,0,1,.77-2.36c.13-.35.25-.7.4-1a.29.29,0,0,0-.07-.35,5.15,5.15,0,0,1-.64-.82c0-.5.26-.23.45-.21.9.83,1,1.16.48,2.25a13,13,0,0,0-.88,3,4.69,4.69,0,0,1-.19.76A13,13,0,0,0,84.37,46a1.05,1.05,0,0,1,0,.19,1.21,1.21,0,0,1,0,.38.51.51,0,0,1-.09.16.11.11,0,0,1-.15,0,.08.08,0,0,1,0-.09A1.49,1.49,0,0,0,84.06,46.3Z"/><path class="cls-10" d="M96.24,18a2.54,2.54,0,0,1-.39,0,9.64,9.64,0,0,0-2.57.27,1.54,1.54,0,0,0-.3.11,7.78,7.78,0,0,1-1,.38,5.15,5.15,0,0,0-1.47.81c-.05,0-.09.09-.15.13-.43.31-.55.33-.84-.09l.38-.06a1,1,0,0,0-.65-.79,1.42,1.42,0,0,1-.5-.3c-.09-.1-.16-.21-.07-.35A.26.26,0,0,1,89,18a1.73,1.73,0,0,1,1.13.7,5.21,5.21,0,0,1,.36.55c.17,0,.27-.13.38-.21a4.7,4.7,0,0,1,1.78-.8L93.86,18a.13.13,0,0,0,.1,0,1.46,1.46,0,0,1,.59-.08,3.7,3.7,0,0,1,1.15,0,1.1,1.1,0,0,1,.51,0c.05,0,.07,0,.06.07S96.25,18,96.24,18Z"/><path class="cls-11" d="M102.28,55.52l0-.39c0-.25,0-.25-.37-.31a2,2,0,0,1-.23-1.77.44.44,0,0,1,.84.06,1.06,1.06,0,0,1,0,.19c.14,1,.13,1,1.16.76,1.41-.28,2.84-.43,4.25-.7a.76.76,0,0,1,.74.14.33.33,0,0,1-.21.13,23.49,23.49,0,0,1-2.37.42,28.21,28.21,0,0,0-3,.55,2.6,2.6,0,0,0-.56.18l.92,0c-.33.2-.7,0-1,.14C102.29,55.14,102.38,55.35,102.28,55.52Z"/><path class="cls-12" d="M83.28,35.82a.07.07,0,0,1,0-.09.48.48,0,0,0-.1-.17,1.16,1.16,0,0,1-.26-.59c-.13-.62-.24-1.24-.34-1.86a1.79,1.79,0,0,1,.09-.83,1.32,1.32,0,0,1,1.18-1.06c.07-.1,0-.33.24-.26h0c.06.08,0,.22.15.25h0l0,0c.33.6-.36.36-.48.59a1.54,1.54,0,0,0-.51,1.52c.07.47.12.95.2,1.42a2.67,2.67,0,0,0,0,.4,1,1,0,0,1,0,.14l.08.2.06.12.06.11.07.11.09.09,0,.05a.41.41,0,0,1,.09.1l0,.06.08.12a1.33,1.33,0,0,0,.14.19c.07.2.35.42,0,.59h0a.69.69,0,0,1-.11-.13l0,0a.15.15,0,0,1-.08-.11.08.08,0,0,1-.06-.1.34.34,0,0,0-.13-.16h0a.44.44,0,0,0-.13-.14h0l-.12-.13h0c-.07-.07,0-.19-.14-.25h0Z"/><path class="cls-13" d="M91.78,66.74a2.68,2.68,0,0,1-.12.3,1.29,1.29,0,0,0-.18,1.23,1.25,1.25,0,0,1,0,.19.64.64,0,0,0,.61.63.57.57,0,0,1,.13,0c.32.09.64-.21,1,0s.59.1.88.22a.62.62,0,0,0,.38,0,4.53,4.53,0,0,1,1-.13,5.85,5.85,0,0,0,1.08-.2.72.72,0,0,1,.76.21,1.86,1.86,0,0,1-.56.15,4.74,4.74,0,0,0-.84.13,7.11,7.11,0,0,1-2,.1,1.12,1.12,0,0,1-.31,0,3.5,3.5,0,0,0-1.28-.2.74.74,0,0,1-.26,0,1,1,0,0,1-.87-1,3.83,3.83,0,0,1,.13-1c.06-.09,0-.2.09-.29a.09.09,0,0,1,0-.11.38.38,0,0,0,.09-.13c0-.07,0-.12.11-.14A.12.12,0,0,1,91.78,66.74Z"/><path class="cls-14" d="M84,29l-.09,0a2.58,2.58,0,0,1-1-.66,1.36,1.36,0,0,1-.35-.54,6,6,0,0,1-.38-2.44,4.09,4.09,0,0,1,.51-1.93.16.16,0,0,0,.09-.16.1.1,0,0,1,.06-.1c.06.07.12.14.09.23a20,20,0,0,0-.35,2.17.57.57,0,0,0,0,.26A11.89,11.89,0,0,0,83,27.67a1.65,1.65,0,0,0,.75,1A.4.4,0,0,1,84,29Z"/><path class="cls-15" d="M82.08,66.06c0-.08,0-.21.14-.13a2,2,0,0,0,.72.42,1.25,1.25,0,0,0,.83.07.42.42,0,0,1,.25,0,5.12,5.12,0,0,0,2,0,3,3,0,0,1,.52,0,1.27,1.27,0,0,0,.52,0,1,1,0,0,1,.91.16h-.75a.47.47,0,0,0-.42.13l-.06,0a18.79,18.79,0,0,1-3.43.18,1.36,1.36,0,0,1-1.1-.6.43.43,0,0,1-.11-.12Z"/><path class="cls-16" d="M101.87,28.88l.13.25a1.63,1.63,0,0,1-.31,0,.46.46,0,0,0-.51.26.29.29,0,0,1-.1.12h0c-.11.11-.27.16-.38.27h0c-.08.07-.2.05-.27.12l-.06,0,0,0a.27.27,0,0,1,0-.37h0c.06-.06.17-.05.23-.12l0,0a.39.39,0,0,1,.1-.08,1.59,1.59,0,0,0,.17-2,3.11,3.11,0,0,0-.81-.92c.28-.21.39-.21.68,0l.26.37a2.35,2.35,0,0,1,.52,1.91C101.55,28.9,101.77,28.75,101.87,28.88Z"/><path class="cls-17" d="M85.09,51l-.26-.26a5.81,5.81,0,0,1,0-.59,1.73,1.73,0,0,1,.57-1.46A3.53,3.53,0,0,1,84.28,47a.27.27,0,0,1,0-.31h0l.06-.06a.26.26,0,0,1,.15.07l.2.28a3.81,3.81,0,0,0,1.53,1.55l.23.14a.38.38,0,0,1,.09.15c-.06.23-.24.21-.42.21L86,49a.32.32,0,0,0-.4.15,2.36,2.36,0,0,0-.23,1.11A1.2,1.2,0,0,1,85.09,51Z"/><path class="cls-18" d="M91.91,63.2c.14-.11.12-.27.12-.42,0-.45,0-.91,0-1.37a.26.26,0,0,1,.19-.29,1.52,1.52,0,0,0-.06.64c0,.86,0,1.73,0,2.59a2.42,2.42,0,0,1-.34,1.23,1.17,1.17,0,0,1-.91.65.46.46,0,0,1-.44,0c.22-.13.44-.25.65-.39a1.44,1.44,0,0,0,.68-1A9.46,9.46,0,0,0,91.91,63.2Z"/><path class="cls-19" d="M116,52.33a.21.21,0,0,0-.28-.1,1.77,1.77,0,0,1-.76.1c0-.23.14-.3.29-.37a3,3,0,0,0,1.62-2.28c0-.2,0-.5.35-.49a.68.68,0,0,1,.13.48c0,.19-.05.38-.05.58a1.35,1.35,0,0,1-.11.34,1.09,1.09,0,0,1,0,.17.63.63,0,0,0-.09.38A3,3,0,0,1,116,52.33Z"/><path class="cls-20" d="M117.07,50.76v-.14c.09-.06.05-.19.13-.26v-.65a5.9,5.9,0,0,0-.24-2.17,2.07,2.07,0,0,1-.25-.62.58.58,0,0,1,0-.19.31.31,0,0,1,.15-.1.3.3,0,0,1,.26,0,1.6,1.6,0,0,1,.41.93,6.53,6.53,0,0,1-.12,2.64c-.1.12,0,.29-.11.41a.09.09,0,0,1,0,.12.38.38,0,0,0-.09.15h0C117.1,50.93,117,50.89,117.07,50.76Z"/><path class="cls-9" d="M101,25.34c-.14-.1-.13-.26-.13-.41V23.32a2.94,2.94,0,0,0-.11-1.14.25.25,0,0,1,0-.19.4.4,0,0,1,.12-.22c.06,0,.16,0,.24,0A8.79,8.79,0,0,1,101,25.34Z"/><path class="cls-21" d="M101.34,63.59c.21-.19.09-.44.13-.67s.09-.24.25-.24h.64a.2.2,0,0,1-.2.13c-.17,0-.34-.07-.53,0a1.25,1.25,0,0,0,0,.81,7.49,7.49,0,0,1,.13,1.16,5.78,5.78,0,0,0,.18,1.6.64.64,0,0,1-.08.5,4,4,0,0,1-.39-1.73c0-.3,0-.61,0-.92A1.17,1.17,0,0,0,101.34,63.59Z"/><path class="cls-22" d="M100.83,20.88s0,.29-.16.09c-.32-.46-.6-.94-.91-1.4-.2-.3-.42-.59-.64-.88,0-.07.08-.08.14,0a1,1,0,0,1,.62.43c.22.26.43.53.63.82A1.76,1.76,0,0,1,100.83,20.88Z"/><path class="cls-23" d="M95.14,62.56a.39.39,0,0,0,.3-.14.79.79,0,0,1,.5-.06,5.57,5.57,0,0,0,1.73,0,.52.52,0,0,1,.53.15s-.1.1-.16.11c-.29.07-.59.1-.88.18a1.48,1.48,0,0,1-.88.07.48.48,0,0,0-.37.06.16.16,0,0,1-.22,0,.14.14,0,0,1,0-.11c0-.1-.09-.08-.14-.13A.49.49,0,0,1,95.14,62.56Z"/><path class="cls-24" d="M91.78,66.74l-.18,0a1.47,1.47,0,0,1,.53-.55,12.8,12.8,0,0,0,1.73-1.47.64.64,0,0,1-.35.71l-.11.06c-.31.17-.4.58-.78.66S92.08,66.57,91.78,66.74Z"/><path class="cls-25" d="M84.7,21.27c.15.36.15.46,0,.61s-.66.47-1,.7c-.08.06-.18.13-.29,0A12.85,12.85,0,0,1,84.7,21.27Z"/><path class="cls-26" d="M84.17,37a.19.19,0,0,0,.06-.27L84,36.35c-.05,0-.08-.1-.13-.14l0-.15a1.48,1.48,0,0,1,1,1.46,1.25,1.25,0,0,1-.19,0c-.15-.05-.18,0-.19.15A2,2,0,0,1,84.17,37Z"/><path class="cls-27" d="M111.83,32.3v-.16a5.8,5.8,0,0,1,1.45,1.43l-.16,0A2,2,0,0,1,111.83,32.3Z"/><path class="cls-28" d="M99.26,18.66l-.14,0a1.22,1.22,0,0,1-.61-.17,2,2,0,0,0-1.28-.38.35.35,0,0,1-.34-.15,3.11,3.11,0,0,1,1.86.41C98.91,18.51,99.13,18.5,99.26,18.66Z"/><path class="cls-29" d="M84.05,31l-.24.26c0-.12,0-.24,0-.36s0-.2-.12-.27a.08.08,0,0,1,0-.09,2.67,2.67,0,0,1,0-1.09h0c.2,0,.18.12.19.24s-.06.46.06.68a.14.14,0,0,1,0,.11c.09.12,0,.3.11.42A.08.08,0,0,1,84.05,31Z"/><path class="cls-30" d="M95.31,63.4c0,.1,0,.23-.08.31a1.74,1.74,0,0,1-1,.67A5,5,0,0,1,95.31,63.4Z"/><path class="cls-31" d="M89,19.84a.79.79,0,0,1-1,0,1.61,1.61,0,0,1,.58,0A.5.5,0,0,1,89,19.84Z"/><path class="cls-1" d="M95.7,17.85a5,5,0,0,1-1.16,0A2.18,2.18,0,0,1,95.7,17.85Z"/><path class="cls-32" d="M83.9,30.32c-.15-.12-.11-.3-.12-.46s0-.34-.13-.46c0-.07,0-.1.11-.12a.34.34,0,0,1,.16.33C83.91,29.85,83.91,30.09,83.9,30.32Z"/><path class="cls-32" d="M83.64,29.41l0,1.09A1.35,1.35,0,0,1,83.64,29.41Z"/><path class="cls-33" d="M96.24,18l0-.12a1,1,0,0,1,.69.12Z"/><path class="cls-34" d="M117.07,50.76l.15.14a.26.26,0,0,1-.15.24C116.91,51,116.91,51,117.07,50.76Z"/><path class="cls-35" d="M117.16,46.66H117v-.09c.09-.19.27-.13.43-.12Z"/><path class="cls-36" d="M83.92,45.52c.17.16.13.35.11.55A.77.77,0,0,1,83.92,45.52Z"/><path class="cls-37" d="M89,19.84h-.46a1,1,0,0,1,.59-.16Z"/><path class="cls-38" d="M101.87,28.88c-.15,0-.33,0-.38-.18l.52,0Z"/><path class="cls-34" d="M117.34,50.64c0-.15,0-.3.11-.41A.47.47,0,0,1,117.34,50.64Z"/><path class="cls-39" d="M89.42,66.49c.18-.18.18-.18.38,0A.62.62,0,0,1,89.42,66.49Z"/><path class="cls-1" d="M90.46,66.21l.44,0a.47.47,0,0,1-.44.1s0,0,0-.08l0,0Z"/><path class="cls-39" d="M90.46,66.21v.12l-.23,0c-.09-.08-.07-.13,0-.14Z"/><path class="cls-32" d="M83.65,30.59a.25.25,0,0,1,.12.27A.33.33,0,0,1,83.65,30.59Z"/><path class="cls-1" d="M91.36,67.1a.27.27,0,0,1-.09.29A.25.25,0,0,1,91.36,67.1Z"/><path class="cls-36" d="M84.06,46.3a.25.25,0,0,1,.09.3A.3.3,0,0,1,84.06,46.3Z"/><path class="cls-40" d="M83.37,36a.24.24,0,0,1,.14.25A.26.26,0,0,1,83.37,36Z"/><path class="cls-1" d="M95.56,62.68a.52.52,0,0,1,.18,0s0,.08,0,.1Z"/><path class="cls-36" d="M84.3,46.69l0,.31a.3.3,0,0,1-.1-.31A.24.24,0,0,0,84.3,46.69Z"/><path class="cls-40" d="M83.52,36.22l.12.13A.13.13,0,0,1,83.52,36.22Z"/><path class="cls-27" d="M113.42,33.72a.16.16,0,0,1-.13-.15A.16.16,0,0,1,113.42,33.72Z"/><path class="cls-40" d="M83.64,36.35a.19.19,0,0,1,.13.14A.16.16,0,0,1,83.64,36.35Z"/><path class="cls-1" d="M94,17.93c0,.06,0,.06-.1,0S93.91,17.9,94,17.93Z"/><path class="cls-26" d="M84.06,36.87a.14.14,0,0,1,.11.13A.13.13,0,0,1,84.06,36.87Z"/><path class="cls-40" d="M83.77,36.48a.21.21,0,0,1,.13.16A.18.18,0,0,1,83.77,36.48Z"/><path class="cls-26" d="M83.14,35.56a.18.18,0,0,1,.1.17A.16.16,0,0,1,83.14,35.56Z"/><path class="cls-1" d="M82.09,66.08a.14.14,0,0,1,.11.12A.11.11,0,0,1,82.09,66.08Z"/><path class="cls-26" d="M83.28,35.82a.14.14,0,0,1,.09.15A.13.13,0,0,1,83.28,35.82Z"/><path class="cls-26" d="M84,36.74l.08.11A.09.09,0,0,1,84,36.74Z"/><path class="cls-1" d="M82.82,23.34c0,.07,0,.12-.09.16A.13.13,0,0,1,82.82,23.34Z"/><path class="cls-1" d="M91.49,66.86a.12.12,0,0,1-.09.13A.1.1,0,0,1,91.49,66.86Z"/><path class="cls-34" d="M117.22,50.91a.16.16,0,0,1,.09-.15A.13.13,0,0,1,117.22,50.91Z"/><path class="cls-41" d="M96.21,29.41a1,1,0,0,1-.25-.7c0-.19,0-.38,0-.57a.31.31,0,0,0-.2-.3.53.53,0,0,1-.15-.11s0-.11,0-.11A2.21,2.21,0,0,1,96,27.5c.1,0,.15.09.17.17a4.42,4.42,0,0,1,.2.93,2.36,2.36,0,0,0,.28.95C96.42,29.6,96.34,29.42,96.21,29.41Z"/><path class="cls-42" d="M86,28.5a1.69,1.69,0,0,1-.84-.52c-.12-.12-.16,0-.2.11s-.21.11-.25-.06a.57.57,0,0,1,0-.13c0-.23,0-.47.26-.55s.39.13.5.32a3.32,3.32,0,0,0,.81.82l-.06.05A.33.33,0,0,1,86,28.5Z"/><path class="cls-43" d="M86.9,28.76a1.4,1.4,0,0,1-.63-.16s-.06-.05,0-.07,0,0,0,0h0a1.14,1.14,0,0,0,.44-.08.44.44,0,0,1,.43,0,3.53,3.53,0,0,0,1,.3l-.79.18h0C87.2,28.75,87,28.86,86.9,28.76Z"/><path class="cls-44" d="M89.54,29a.35.35,0,0,1-.27-.22c0-.26-.21-.45-.19-.8.25.3.56.45.67.79C89.81,29,89.66,29,89.54,29Z"/><path class="cls-45" d="M92.32,27.73l-.06,0a1.3,1.3,0,0,1-.1-.15c-.06-.13-.17-.26-.06-.42s.27-.07.46.06a.2.2,0,0,1,0,.32C92.51,27.59,92.47,27.73,92.32,27.73Z"/><path class="cls-46" d="M92.05,28.28h.27s0,.06,0,.1,0,0,0,.05a.83.83,0,0,1-.56,0s0,0,0-.06a.14.14,0,0,1,0-.06C91.85,28.23,92,28.26,92.05,28.28Z"/><path class="cls-47" d="M85.07,29v.13c-.06.07-.17.07-.22.14a.2.2,0,0,1-.29,0c-.06-.09-.18-.07-.26-.13h0a.41.41,0,0,1,.34-.14Z"/><path class="cls-48" d="M89,27.82c-.26-.17-.42-.23-.51-.39a.26.26,0,0,1,0-.12.06.06,0,0,1,.1,0A.92.92,0,0,1,89,27.82Z"/><path class="cls-49" d="M94.65,28.23a1.07,1.07,0,0,1-.64,0c.14-.17.36-.15.53-.23S94.7,28,94.65,28.23Z"/><path class="cls-50" d="M93.37,28.08c-.12,0-.26,0-.33.16a.58.58,0,0,1-.23-.28.11.11,0,0,1,0-.1s0-.05,0-.05A1.29,1.29,0,0,1,93.37,28.08Z"/><path class="cls-51" d="M99.52,26.05s0,0,0,0h-.23s0,0,0,0,.15-.05.23,0Z"/><path class="cls-52" d="M92.82,27.81V28l-.1-.15s0,0,0,0S92.81,27.76,92.82,27.81Z"/><path class="cls-53" d="M102.13,29.2a14.58,14.58,0,0,1,2.45.27,14.79,14.79,0,0,1,4.76,1.68l.23.1a9.68,9.68,0,0,1,4.35,4c.09.17.18.34.29.51a16.56,16.56,0,0,1,2.59,7,26.71,26.71,0,0,1,.23,2.67v.39a.39.39,0,0,1-.26.41,4.1,4.1,0,0,0-.75.39,1.79,1.79,0,0,1-1.13.45c-1.75.27-3.49.57-5.26.68-.77.05-1.49.34-2.26.37a13.15,13.15,0,0,1-2.51-.1c-.17,0-.34,0-.51-.08a5.18,5.18,0,0,0-.53-.14l-.17-.05a1.62,1.62,0,0,0-.44-.07.58.58,0,0,1-.48-.25.84.84,0,0,1,.18-.73,21.24,21.24,0,0,1,1.17-1.94,1.65,1.65,0,0,0,.2-.31,13.55,13.55,0,0,0,.93-1.72,12.49,12.49,0,0,1,1.7-2.77.31.31,0,0,0,.1-.39c-.43.24-.56.7-.79,1.06-.67,1.1-.66,1.1-1.48.14a10.37,10.37,0,0,0-2-1.31,4.92,4.92,0,0,0-2.32-1,.3.3,0,0,1-.17-.21,10.07,10.07,0,0,1,2.44-3.9,2,2,0,0,1,2.23-.47c.11,0,.22.14.4,0a1.07,1.07,0,0,0-.93-.49,2.58,2.58,0,0,0-2.29,1.17,21.4,21.4,0,0,0-2,3.42,6.89,6.89,0,0,1-.46.73A12.17,12.17,0,0,1,99,39.88c-.13.17-.22.44-.46.39s-.28-.35-.32-.58a.7.7,0,0,1,0-.25,2.67,2.67,0,0,0,0-.49,1.09,1.09,0,0,1,.15-.56,4.43,4.43,0,0,0,.42-2.48c0-.17-.06-.35.09-.49a1,1,0,0,0,.63-.31A11.44,11.44,0,0,0,101.34,33a6.56,6.56,0,0,0,.88-2.16A3,3,0,0,0,102.13,29.2Z"/><path class="cls-29" d="M83.64,31.63A.39.39,0,0,1,84,31.5c.25,0,.17-.17.17-.3a2.84,2.84,0,0,0,.87.21c.1,0,.23.1.32.19a.46.46,0,0,0,.48.13.62.62,0,0,1,.19,0,.86.86,0,0,1,1,.74,9.4,9.4,0,0,1,.27,1.28,7.57,7.57,0,0,0,.31,1.13,1.1,1.1,0,0,0,.32.48.4.4,0,0,0,.36.11c.08,0,.18,0,.15-.16-.1-.42-.19-.84-.29-1.26a2.6,2.6,0,0,1,0-1.11.93.93,0,0,1,.41-.63c.2-.13.4-.28.66-.17.1,0,.16,0,.22-.09a.88.88,0,0,1,1.21-.28c.06,0,.12,0,.18.06s.23,0,.33-.09a2.33,2.33,0,0,1,.46-.37.79.79,0,0,1,.81,0,.83.83,0,0,0,1-.07,1,1,0,0,1,.63-.16.56.56,0,0,1,.6.39.24.24,0,0,1-.1.36c-1-.05-1.14.11-.95,1.11.1.54.27,1.06.4,1.59,0,.22.2.54-.09.64s-.41-.25-.5-.47a10.24,10.24,0,0,1-.59-1.6,5.22,5.22,0,0,0-.18-.56c-.11-.28-.19-.64-.61-.54s-.37.44-.35.75a8,8,0,0,0,.37,2c.08.26.4.63,0,.79s-.55-.26-.69-.56A5.33,5.33,0,0,1,91,33.35a1.66,1.66,0,0,0-.15-.63.51.51,0,0,0-.54-.3c-.26,0-.26.27-.27.46a5.42,5.42,0,0,0,.21,1.88c.07.24.25.57-.09.69s-.46-.24-.57-.5a5.5,5.5,0,0,1-.3-1.21c0-.23,0-.49-.25-.66a.71.71,0,0,0-.15.78c.44,2.15,1.1,4.19,3,5.57a1.36,1.36,0,0,1,.6.83c.23,1.29.51,2.57.68,3.87a.85.85,0,0,1,0,.32c-.14.22-.13.6-.55.53a1.74,1.74,0,0,1-.27-.86c-.24-1.28-.31-2.59-.64-3.85a.87.87,0,0,0-.17-.21l-.16-.1c-.12-.09-.24-.2-.37-.29a6.38,6.38,0,0,1-2.06-3,.75.75,0,0,0-.71-.63,1.2,1.2,0,0,1-1-1A11.67,11.67,0,0,1,86.62,33c-.05-.33-.12-.69-.57-.64s-.5.38-.52.73c0,.5,0,1,0,1.5,0,.21,0,.51-.25.53s-.3-.26-.35-.48a6.87,6.87,0,0,1,0-2.64,1.3,1.3,0,0,0-.55,1.15,16.15,16.15,0,0,0,.18,1.69c0,.19,0,.42-.23.46a.34.34,0,0,1-.38-.29c-.2-1.1-.64-2.21.17-3.27-.07,0-.15,0-.23,0A.54.54,0,0,1,83.64,31.63Z"/><path class="cls-54" d="M94.48,31.79a.36.36,0,0,0,.19-.31,10.28,10.28,0,0,0,1.39,2.45c.06-.19.11-.37.18-.54a1.41,1.41,0,0,1,1-.94c.16,0,.32-.12.49-.15a1.18,1.18,0,0,1,1.45.89,1,1,0,0,1,0,.51,2.51,2.51,0,0,1-.24.46,1,1,0,0,0,0,1.26,4.45,4.45,0,0,1-.38,3.14c-.08.16-.25.31-.18.53a.2.2,0,0,1,0,.28,2.62,2.62,0,0,0,.15.88,3.74,3.74,0,0,0,.73-1.17,1.08,1.08,0,0,1,.28-.5c.22.25,0,.6.2.85a2.06,2.06,0,0,1-.54.88,1.49,1.49,0,0,0-.38,1.21,33.94,33.94,0,0,0,.52,4.14l0,.13c0,.29.07.62-.3.69s-.5-.25-.55-.53c-.12-.62-.25-1.24-.32-1.87-.16-1.45-.25-2.9-.39-4.35a3,3,0,0,1,.15-1.29A4.39,4.39,0,0,0,98,35.25,1.4,1.4,0,0,1,98.28,34c.13-.25.33-.5.08-.78a.72.72,0,0,0-.85-.11,1.16,1.16,0,0,0-.82,1c0,.15,0,.3,0,.45s0,.42-.25.49a.52.52,0,0,1-.58-.23A6.27,6.27,0,0,1,95,33.39,3.22,3.22,0,0,1,94.48,31.79Z"/><path class="cls-55" d="M91.1,29.65h.14a.32.32,0,0,1,.24.27.26.26,0,0,1-.17.25,2.33,2.33,0,0,1-.51.11,2.78,2.78,0,0,0-.81.22,8.71,8.71,0,0,1-.85.32,5.23,5.23,0,0,0-.58.29.17.17,0,0,1-.23-.05.28.28,0,0,1,0-.18.72.72,0,0,1,.4-.48,11.61,11.61,0,0,1,2.22-.75Z"/><path class="cls-56" d="M85.25,30.2a3.6,3.6,0,0,1,1.32.26.86.86,0,0,1,.36.26.3.3,0,0,1,0,.36.32.32,0,0,1-.38.16s0,0-.06,0a3,3,0,0,0-1.39-.49l-.44-.13c-.1,0-.21,0-.25-.16s.11-.22.26-.23Z"/><path class="cls-57" d="M100.69,29.8a.37.37,0,0,1,.38-.27A.44.44,0,0,1,100.69,29.8Z"/><path class="cls-1" d="M86.9,28.76c.16,0,.31,0,.41.12A.48.48,0,0,1,86.9,28.76Z"/><path class="cls-57" d="M100.29,29.54c0,.13,0,.25,0,.37C100.09,29.79,100.09,29.7,100.29,29.54Z"/><path class="cls-32" d="M84,30.85c-.15-.11-.13-.27-.11-.42A.49.49,0,0,1,84,30.85Z"/><path class="cls-1" d="M84.29,29.15c.12,0,.21,0,.26.13A.23.23,0,0,1,84.29,29.15Z"/><path class="cls-1" d="M84.84,29.28a.21.21,0,0,1,.22-.14C85,29.27,85,29.29,84.84,29.28Z"/><path class="cls-1" d="M86.27,28.49v.11a.27.27,0,0,1-.28-.1Z"/><path class="cls-57" d="M100.54,29.41a.18.18,0,0,1-.23.12A.24.24,0,0,1,100.54,29.41Z"/><path class="cls-57" d="M100.42,29.92a.24.24,0,0,1,.27-.12A.21.21,0,0,1,100.42,29.92Z"/><path class="cls-29" d="M84.2,31.21c-.15,0-.16-.13-.15-.25A.37.37,0,0,1,84.2,31.21Z"/><path class="cls-57" d="M101.08,29.52a.13.13,0,0,1,.1-.12A.11.11,0,0,1,101.08,29.52Z"/><path class="cls-57" d="M100.67,29.31c0,.06,0,.08-.1.08A.09.09,0,0,1,100.67,29.31Z"/><path class="cls-58" d="M116.81,46.83c.1.17.1.38.24.52a3,3,0,0,1,.14,1.8A2.26,2.26,0,0,0,117,50a2.88,2.88,0,0,1-.45,1,2.63,2.63,0,0,1-1.37,1.15c-.08,0-.14.1-.2.15h0c-.08.07-.2.05-.28.12a4.73,4.73,0,0,1-1.3.16,1.55,1.55,0,0,0-.51.08,5.78,5.78,0,0,1-1.55.19,6.84,6.84,0,0,0-1.73.31,7.8,7.8,0,0,0-.93.31,4.58,4.58,0,0,0-1,.1c-.7.15-1.42.2-2.12.39a.27.27,0,0,1-.13,0,10.77,10.77,0,0,0-2.25.36c-.81.13-1,.17-.79-.8a2.45,2.45,0,0,0,0-.39.31.31,0,0,0-.27-.32.32.32,0,0,0-.37.28,3.62,3.62,0,0,0,0,1.43c0,.08.06.17.08.25V55a8,8,0,0,1,0,2,3.88,3.88,0,0,0-.05,1.36,11.41,11.41,0,0,1,0,1.31c0,.85,0,1.7,0,2.55a1.82,1.82,0,0,1-.77-.05,1.68,1.68,0,0,0-.77,0,7.5,7.5,0,0,1-1.42.13.93.93,0,0,0-.43.12,5.38,5.38,0,0,1-3.32-.08c-.27-.06-.3-.33-.36-.57A21.43,21.43,0,0,1,94.53,59a22.06,22.06,0,0,0-.19-2.3c0-.24,0-.47-.08-.7a14,14,0,0,1-.09-2.59c.18-.39.45-.73.17-1.24-.18-.31.68-1.09,1.07-1.06.76,0,1.53,0,2.29,0,.27,0,.4-.23.6-.35a1,1,0,0,1,.44-.27,5.92,5.92,0,0,0,2.78-2,1.85,1.85,0,0,0,.37-.37,1.15,1.15,0,0,1,1.68-.41,10.45,10.45,0,0,0,4.2.34c1.73-.38,3.5-.37,5.24-.67,1.16-.21,2.29-.52,3.44-.75l.22,0C116.75,46.7,116.76,46.78,116.81,46.83Z"/><path class="cls-59" d="M94.53,59a1.22,1.22,0,0,1,.12.75,10.35,10.35,0,0,0,.27,2c.08.35.1.36.48.4a2.24,2.24,0,0,1,.63.1,3.65,3.65,0,0,0,2.17.07,2.11,2.11,0,0,1,.26,0v.12c-.06.1-.2.05-.27.14h0a2.75,2.75,0,0,0-1,.11.29.29,0,0,1-.13,0,12.35,12.35,0,0,1-1.6-.24c-.5-.08-.7-.39-.8-.88A13.54,13.54,0,0,1,94.53,59Z"/><path class="cls-23" d="M98.19,62.55a.3.3,0,0,1,.27-.14,4,4,0,0,0,1.41-.12h.06a.15.15,0,0,1,.15.09c0,.09,0,.12-.1.14a3,3,0,0,1-1.72,0Z"/><path class="cls-58" d="M98.45,50.86c-.11.2-.33.27-.48.43s-.18.08-.3.06a6.84,6.84,0,0,0-2,0,.55.55,0,0,1-.41-.1c-.13-.11-.25-.06-.3.09a2.54,2.54,0,0,0-.1.37c0,.25-.42.19-.41.45s.3.24.34.46a.43.43,0,0,1-.11.42,2.56,2.56,0,0,1-.4.22,4.63,4.63,0,0,1,0-1.89c-.22,0-.32.18-.45.32s-.58.11-.87.09a.19.19,0,0,1-.17-.17c0-.13,0-.26-.08-.38a.14.14,0,0,0-.09-.08s-.07,0-.09.07a2,2,0,0,0-.11.64c0,.35,0,.7,0,1,0,2,0,4,0,6.06,0,.41.07.83.1,1.24,0,.15,0,.31-.14.4a6.65,6.65,0,0,0-2.18.19,13.93,13.93,0,0,1-2.81.34l-1.24,0c-.35,0-.41-.05-.48-.4a10.28,10.28,0,0,1-.21-1.08,29.49,29.49,0,0,1-.29-3.51c0-.89,0-1.78,0-2.67s-.07-1.61-.11-2.41c0-.43.09-.86.12-1.28a1.08,1.08,0,0,1,.4-.84.41.41,0,0,1,.39,0h0a4.59,4.59,0,0,0,2.78-.34,8.89,8.89,0,0,0,3.08-2.43l.16-.21c.15-.18.3-.42.57-.33s.24.38.27.61a12.49,12.49,0,0,0,.71,2.83,2.65,2.65,0,0,0,1,1.59,1.55,1.55,0,0,0,.36.13,6.1,6.1,0,0,0,3,0A.5.5,0,0,1,98.45,50.86Z"/><path class="cls-60" d="M93.86,51.67a.66.66,0,0,1,.31-.55.59.59,0,0,1,.43-.1.14.14,0,0,1,.11,0,.11.11,0,0,1,0,.16,1,1,0,0,0-.42,1c0,.35,0,.7,0,1V56c-.13-.11-.12-.27-.13-.42a6.7,6.7,0,0,0-.1-1.09,2.81,2.81,0,0,1,0-1,10.16,10.16,0,0,0,.1-1.74C94.15,51.57,94,51.64,93.86,51.67Z"/><path class="cls-61" d="M116.45,46.71a4.86,4.86,0,0,1-1.77.62c-1.28.24-2.57.42-3.85.63a2.37,2.37,0,0,1-.46,0,9.58,9.58,0,0,0-2,.23,3.8,3.8,0,0,1-.58.06,1.88,1.88,0,0,1-.71,0c-.13,0-.35.08-.36-.14s.15-.24.32-.25a.65.65,0,0,0,.31,0l1.28-.24a7.34,7.34,0,0,1,1-.16c1,0,1.9-.21,2.84-.32.78-.09,1.55-.22,2.32-.34a6.46,6.46,0,0,0,.76-.18,1.29,1.29,0,0,1,.44-.1C116.13,46.72,116.3,46.69,116.45,46.71Z"/><path class="cls-62" d="M113.92,35.2a1.09,1.09,0,0,1-.19-.18,13.75,13.75,0,0,0-3.91-3.57c-.09-.06-.16-.14-.25-.2a.91.91,0,0,1,.56.12,9.21,9.21,0,0,1,1.3.73.76.76,0,0,0,.4.2,8.81,8.81,0,0,0,1.3,1.29c0,.3.27.49.41.73A2,2,0,0,1,113.92,35.2Z"/><path class="cls-63" d="M116.81,46.83l-.14-.14a.11.11,0,0,1,.12-.09s.07,0,.07.07,0,.06,0,.06A.12.12,0,0,1,116.81,46.83Z"/><path class="cls-64" d="M116.83,46.73a.65.65,0,0,1,0-.13l.16,0a.14.14,0,0,0,0,.09Z"/><path class="cls-19" d="M114.7,52.45a.28.28,0,0,1,.28-.12A.27.27,0,0,1,114.7,52.45Z"/><path class="cls-11" d="M101.87,56.91c0-.65,0-1.31,0-2l0,0a5.52,5.52,0,0,1,0,1.86Z"/><path class="cls-2" d="M91.63,40a.64.64,0,0,1,.33.56,9.47,9.47,0,0,0,.25,2.18c.16.74.21,1.49.36,2.23,0,.59-.5.83-.74,1.25a9.56,9.56,0,0,1-3.3,2.44c-.66.19-1.31.5-2,.12l0,0h-.07l-.12-.06a2.92,2.92,0,0,1-1.63-1.59.91.91,0,0,0-.11-.16c-.06-.08,0-.2-.11-.27h0c-.13-.12,0-.3-.12-.43s0-.06,0-.09a12.64,12.64,0,0,1,0-2.75c.18-.74.28-1.49.49-2.22a9.22,9.22,0,0,1,.82-2.12.55.55,0,0,0,0-.67,4,4,0,0,0-.64-.89,6.84,6.84,0,0,0-.63-1.12.72.72,0,0,0-.37-.34h0a.15.15,0,0,1-.14-.12h0a.16.16,0,0,1-.13-.14h0c-.12,0-.09-.18-.16-.25h0c-.09-.06-.07-.18-.14-.26h0c-.12-.11,0-.29-.13-.4-.08-.5-.14-1-.22-1.48a2.25,2.25,0,0,1,.09-1.15,1,1,0,0,1,.51-.64c.19,0,.39-.09.57.05s-.14.36-.22.53a1.84,1.84,0,0,0-.17,1.08c.06.38.1.77.13,1.16a1.35,1.35,0,0,0,.25.8.16.16,0,0,0,.12,0c.09,0,.1-.07.1-.12-.07-.43-.14-.86-.22-1.29a4,4,0,0,1,0-1,1.58,1.58,0,0,1,.52-1,.29.29,0,0,1,.41,0c.08.06.13.16.08.23A2.05,2.05,0,0,0,85,33.49c0,.45.11.91.17,1.36,0,.1,0,.22.2.24v-.62c0-.19,0-.39,0-.59s0-.69,0-1a.76.76,0,0,1,.68-.68c.39,0,.58.05.68.43a9.23,9.23,0,0,1,.21,1,13.55,13.55,0,0,0,.42,1.51,1,1,0,0,0,.11.23.93.93,0,0,0,1.24.52,1.06,1.06,0,0,1,.24.59,6.93,6.93,0,0,0,1.77,2.86,2.59,2.59,0,0,0,.41.31c.2.32,0,.58-.11.86-.33.8-.73,1.58-1.11,2.36a2.54,2.54,0,0,0-.34,1.35c.3,0,.31-.18.33-.32.25-1.3.93-2.44,1.28-3.7a.37.37,0,0,1,.26-.27h0A.3.3,0,0,1,91.63,40Z"/><path class="cls-36" d="M84.29,43.42c0,.21,0,.43,0,.64a18.58,18.58,0,0,0,0,2.11c0-.07-.12-.14-.12-.21,0-.77,0-1.55,0-2.32C84.18,43.57,84.25,43.49,84.29,43.42Z"/><path class="cls-36" d="M84.32,46.26a.51.51,0,0,1,.12.43H84.3Z"/><path class="cls-26" d="M83.26,34.9a.53.53,0,0,1,.13.4C83.23,35.2,83.24,35.05,83.26,34.9Z"/><path class="cls-26" d="M83.52,35.55a.27.27,0,0,1,.16.25C83.54,35.77,83.51,35.67,83.52,35.55Z"/><path class="cls-26" d="M83.39,35.29a.33.33,0,0,1,.14.26A.22.22,0,0,1,83.39,35.29Z"/><path class="cls-40" d="M83.91,36.21l.13.14Z"/><path class="cls-26" d="M83.67,35.79a.16.16,0,0,1,.13.14A.13.13,0,0,1,83.67,35.79Z"/><path class="cls-26" d="M83.8,35.93a.16.16,0,0,1,.14.12A.13.13,0,0,1,83.8,35.93Z"/><path class="cls-65" d="M86.53,48.8a5.44,5.44,0,0,0,2.08-.29c.12,0,.24,0,.3.17a3.48,3.48,0,0,1-2.8.32s-.06,0-.1-.08C86.19,48.9,86.39,49,86.53,48.8Z"/><path class="cls-65" d="M86,48.91h-.39A.23.23,0,0,1,86,48.91Z"/><path class="cls-36" d="M84.44,46.69a.28.28,0,0,1,.11.27A.24.24,0,0,1,84.44,46.69Z"/><path class="cls-65" d="M86.29,48.71a.08.08,0,0,1,.12.06A.1.1,0,0,1,86.29,48.71Z"/><path class="cls-34" d="M117.19,49.15a12.13,12.13,0,0,0-.14-1.8,1.3,1.3,0,0,1,.27.84,11.28,11.28,0,0,1,0,1.3c0,.07-.07.15-.11.22Z"/><path class="cls-34" d="M117.2,50.36a.25.25,0,0,1-.13.26A.28.28,0,0,1,117.2,50.36Z"/><path class="cls-66" d="M100.43,38.33a3.08,3.08,0,0,1,1.72.52c.74.37,1.36.93,2.12,1.27a2.59,2.59,0,0,1,.92.91c.09.12.15.26.24.41.19-.12.24-.32.34-.46a5.29,5.29,0,0,0,.32-.5c.19-.31.37-.63.56-.95l.15-.21a.33.33,0,0,1,.42-.07.29.29,0,0,1,.09.4,4.15,4.15,0,0,1-.3.43,9.78,9.78,0,0,0-1.42,2.17c-.32.67-.67,1.32-1,2a2.48,2.48,0,0,1-.19.26.15.15,0,0,1-.18,0c-.1-.34.13-.62.13-.94a2.58,2.58,0,0,1,.2-.55,1.52,1.52,0,0,0-.74-2.29c-.87-.46-1.71-1-2.58-1.43a.85.85,0,0,1-.41-.31C100.87,38.64,100.3,38.69,100.43,38.33Z"/><path class="cls-67" d="M99.93,37.92a13.39,13.39,0,0,1,1.62-2.82c.15-.19.25-.41.38-.61a2.72,2.72,0,0,1,2.49-1.28,1.67,1.67,0,0,1,1.13.58.21.21,0,0,1,0,.29.28.28,0,0,1-.29.11l-.35-.17a1.91,1.91,0,0,0-1.8.09,3.89,3.89,0,0,0-.81.76,11,11,0,0,0-1.68,2.71,5.49,5.49,0,0,1-.34.63A.56.56,0,0,1,99.93,37.92Z"/><path class="cls-68" d="M107.35,47.9c-.11.16-.32.06-.46.16a.27.27,0,0,0-.06.1c0,.06,0,.09.07.09l.89,0a.85.85,0,0,1-.56.11c-.35,0-.7,0-1,0a3.76,3.76,0,0,1-1.34-.15,2.26,2.26,0,0,0-.57-.09,1.64,1.64,0,0,1-.86-.26c.42-.35.9.09,1.33-.12a7.14,7.14,0,0,0,1.9.1C106.89,47.86,107.12,47.88,107.35,47.9Z"/><path class="cls-69" d="M104.22,44.72,103,46.93a.8.8,0,0,0-.18.42c-.22,0-.27-.14-.33-.29a6.73,6.73,0,0,1,1.38-2.6c.19-.07.26.08.36.18Z"/><path class="cls-70" d="M102.51,47.08l.26.27.54.14c.11.11.28,0,.4.11h0c.16.17.4,0,.57.13a.83.83,0,0,1,.47,0,.42.42,0,0,1-.36.11h-1l-.88-.19c-.17.22-.33.44-.52.65a4.12,4.12,0,0,1-.41.32.21.21,0,0,1-.18-.19A4.57,4.57,0,0,1,102.51,47.08Z"/><path class="cls-71" d="M99.93,37.92a.42.42,0,0,1,.38.29l.12.12c.07.18.25.22.38.32s.07.14,0,.2a.33.33,0,0,1-.17,0,1,1,0,0,0-.56,0l-.19.13-.17.15-.07,0c-.25,0-.29,0-.23-.17a1,1,0,0,0,.09-.48Z"/><path class="cls-72" d="M104.28,47.73c-.2,0-.42.09-.57-.13A1,1,0,0,1,104.28,47.73Z"/><path class="cls-72" d="M103.71,47.6c-.15,0-.3,0-.4-.11A.4.4,0,0,1,103.71,47.6Z"/><path class="cls-73" d="M98.34,39.37l0-.28C98.45,39.17,98.47,39.26,98.34,39.37Z"/><path class="cls-69" d="M104.24,44.48h.14a.31.31,0,0,1-.16.24l0,0A.15.15,0,0,1,104.24,44.48Z"/><path class="cls-2" d="M99.77,39l.13-.14a1.19,1.19,0,0,1,.79,0,.14.14,0,0,0,.11,0c.55.3,1.11.57,1.64.9s1.11.6,1.64.92a2.54,2.54,0,0,1,1,1.46c0,.12,0,.21-.09.3a7,7,0,0,0-.53,1.11c-.2.3-.15.74-.54.93a6,6,0,0,0-.72,1.15c-.25.48-.48,1-.72,1.46a1.2,1.2,0,0,0-.18.26,3.2,3.2,0,0,1-.89,1.17,5.1,5.1,0,0,1-2.1,1.74,6.52,6.52,0,0,1-4.64.24.94.94,0,0,1-.18-.12.46.46,0,0,1-.07-.07,7.8,7.8,0,0,1-.87-1.7,11.82,11.82,0,0,1-.64-4.13,8.59,8.59,0,0,0-.25-1.74c-.12-.69-.25-1.37-.34-2.07a1.43,1.43,0,0,0-.61-1.08,6.9,6.9,0,0,1-1.33-1.26,4.93,4.93,0,0,1-1-1.89,5,5,0,0,0-.36-1,5.72,5.72,0,0,1-.42-2,.86.86,0,0,1,.13-.56.3.3,0,0,1,.26-.17.29.29,0,0,1,.28.23,4.67,4.67,0,0,1,.08.52c.06.37.11.73.18,1.1a1.66,1.66,0,0,0,.39.81c.06.07.14.12.22.07s0-.12,0-.17a5.62,5.62,0,0,1-.42-2.56,1.09,1.09,0,0,1,0-.26.35.35,0,0,1,.45-.27,4.42,4.42,0,0,1,.6.24.24.24,0,0,1,.15.2,4.34,4.34,0,0,1,.08.52,8.71,8.71,0,0,0,.36,1.59,1.32,1.32,0,0,0,.54.79s.12,0,.12,0,.07-.14,0-.18a6.09,6.09,0,0,1-.63-2.51,2.26,2.26,0,0,1,0-.52.68.68,0,0,1,1-.51.47.47,0,0,1,.23.3c.11.33.22.66.31,1a16.5,16.5,0,0,0,.65,1.78.74.74,0,0,0,.14.22s.09,0,.11,0S94,35,94,35s-.06-.21-.08-.31c-.16-.64-.33-1.27-.47-1.91a3.35,3.35,0,0,1-.07-.71.35.35,0,0,1,.14-.28,1.21,1.21,0,0,1,.54-.22c.19,0,.27.22.46.22.09.22.21.43.28.66a9.13,9.13,0,0,0,1.12,2.2.63.63,0,0,0,.63.33v-.89a1.25,1.25,0,0,1,.38-.88,1.64,1.64,0,0,1,1.21-.4c.34,0,.49.32.67.56a.31.31,0,0,1,0,.24c-.12.21-.25.42-.38.61a1.06,1.06,0,0,0-.11,1.12,3.29,3.29,0,0,1,.24,1.52,4,4,0,0,1-.34,1.46A3.36,3.36,0,0,0,98,39.79c.11,1.44.22,2.87.36,4.3.07.65.21,1.29.32,1.93a.75.75,0,0,0,.09.25.23.23,0,0,0,.27.13.27.27,0,0,0,.18-.25,1.8,1.8,0,0,0-.06-.32,12,12,0,0,1-.35-2.32c0-.65-.11-1.3-.18-1.95-.1-.88-.15-.6.37-1.3.16-.21.33-.41.48-.62a.64.64,0,0,0,.18-.41h0C99.72,39.16,99.69,39,99.77,39Z"/><path class="cls-74" d="M92.94,44.47a1.69,1.69,0,0,1,.19.88,15,15,0,0,0,.61,3.31c.1.1.05.24.09.36s.2.3,0,.4-.27-.12-.38-.24a6.61,6.61,0,0,1-.62-2,4.68,4.68,0,0,1-.19-1.29c0-.09,0-.19-.12-.21s-.15.06-.21.12-.24.37-.44.48-.18,0-.14-.14A9.38,9.38,0,0,0,92.57,45Z"/><path class="cls-75" d="M91.42,39.91c-.33,1.08-.77,2.12-1.17,3.18a2.83,2.83,0,0,0-.19.76,1.13,1.13,0,0,1,0,.32c-.07.27-.27.41-.46.34s-.27-.23-.21-.48a4.83,4.83,0,0,1,.34-1.12c.21-.43.42-.87.62-1.3s.53-1.15.78-1.73a1,1,0,0,0,0-.25Z"/><path class="cls-75" d="M91.63,40a.18.18,0,0,1-.17-.12A.18.18,0,0,1,91.63,40Z"/><path class="cls-76" d="M94.68,50.34a9.71,9.71,0,0,0,2.52.3,3.07,3.07,0,0,0,1-.19c.48-.15,1-.34,1.42-.5a1.51,1.51,0,0,0,.79-.54,4.18,4.18,0,0,1,1-.9l.17.15-1.2,1.25a2,2,0,0,1-.67.39,7.74,7.74,0,0,0-1.29.56h-.06a5.7,5.7,0,0,1-2.39.25,3,3,0,0,1-1.21-.24,1.06,1.06,0,0,1-.21-.16c-.1-.09-.22-.15-.28-.27s-.07-.34.21-.22l0,0A.46.46,0,0,0,94.68,50.34Z"/><path class="cls-77" d="M91.76,46.16l.14.14a8.54,8.54,0,0,1-2.46,2.14,4.27,4.27,0,0,1-.53.24.36.36,0,0,1-.3-.17c.11-.06.21-.14.33-.2a8.8,8.8,0,0,0,2.25-1.63A7,7,0,0,1,91.76,46.16Z"/><path class="cls-78" d="M94.51,50.23c-.1,0-.23,0-.12.18s.18.22.27.34-.09.06-.14,0c-.48-.18-.63-.64-.87-1a1,1,0,0,1-.17-.56l.39.22a1.73,1.73,0,0,1-.13-.74Z"/><path class="cls-60" d="M94.52,50.76h.14l.13.13A.29.29,0,0,1,94.52,50.76Z"/><path class="cls-79" d="M104,44.47l.54-.93a3,3,0,0,1-.25.94c0,.07,0,.14,0,.21C104,44.72,104,44.6,104,44.47Z"/><path class="cls-80" d="M103.13,39.71s0,0,0,0,0,.05-.06,0,0,0,0-.05Z"/><path class="cls-66" d="M100.69,38.83H99.9A.61.61,0,0,1,100.69,38.83Z"/><path class="cls-54" d="M99.77,39a.31.31,0,0,1-.13.25A.22.22,0,0,1,99.77,39Z"/><path class="cls-78" d="M94.68,50.34a.13.13,0,0,1-.15-.09C94.59,50.26,94.65,50.27,94.68,50.34Z"/></svg>