<svg id="Layer_1" data-name="Layer 1" xmlns="http://www.w3.org/2000/svg" viewBox="0 0 200 83.88"><defs><style>.cls-1{fill:#1a344e;}.cls-2{fill:#d1d1d1;}.cls-3{fill:#152331;}.cls-4{fill:#121f2c;}.cls-5{fill:#1d2d3c;}.cls-6{fill:#1e2a39;}.cls-7{fill:#294257;}.cls-8{fill:#253a53;}.cls-9{fill:#1f2a38;}.cls-10{fill:#263b54;}.cls-11{fill:#1b2938;}.cls-12{fill:#223950;}.cls-13{fill:#1b2532;}.cls-14{fill:#182532;}.cls-15{fill:#212431;}.cls-16{fill:#2f475a;}.cls-17{fill:#2c3a47;}.cls-18{fill:#26212f;}.cls-19{fill:#25313e;}.cls-20{fill:#283440;}.cls-21{fill:#344657;}.cls-22{fill:#1c2c3c;}.cls-23{fill:#3a4d63;}.cls-24{fill:#1a2937;}.cls-25{fill:#203440;}.cls-26{fill:#2f4459;}.cls-27{fill:#434b59;}.cls-28{fill:#3b4b5c;}.cls-29{fill:#2a1a27;}.cls-30{fill:#2a3a4c;}.cls-31{fill:#404a55;}.cls-32{fill:#3d5462;}.cls-33{fill:#435568;}.cls-34{fill:#3a4756;}.cls-35{fill:#303747;}.cls-36{fill:#4f5a67;}.cls-37{fill:#3b475c;}.cls-38{fill:#4d2a3a;}.cls-39{fill:#132333;}.cls-40{fill:#424652;}.cls-41{fill:#64687b;}.cls-42{fill:#3d434e;}.cls-43{fill:#425469;}.cls-44{fill:#28303d;}.cls-45{fill:#2c333f;}.cls-46{fill:#212633;}.cls-47{fill:#32475b;}.cls-48{fill:#2d4159;}.cls-49{fill:#1c1f2f;}.cls-50{fill:#3e5e6c;}.cls-51{fill:#74697b;}.cls-52{fill:#506276;}.cls-53{fill:#6a3340;}.cls-54{fill:#505e6d;}.cls-55{fill:#383751;}.cls-56{fill:#394551;}.cls-57{fill:#324356;}.cls-58{fill:#343f57;}.cls-59{fill:#6b2532;}.cls-60{fill:#1b4b55;}.cls-61{fill:#93c0c7;}.cls-62{fill:#2b3952;}.cls-63{fill:#3c5361;}.cls-64{fill:#263341;}.cls-65{fill:#343750;}.cls-66{fill:#3d3647;}.cls-67{fill:#fad3d3;}.cls-68{fill:#efffa4;}.cls-69{fill:#326ae9;}.cls-70{fill:#f43451;}.cls-71{fill:#d0d0d1;}.cls-72{fill:#fefefe;}.cls-73{fill:#293e54;}.cls-74{fill:#2b4159;}.cls-75{fill:#3169e5;}.cls-76{fill:#1e2532;}.cls-77{fill:#2c3e57;}.cls-78{fill:#394b61;}.cls-79{fill:#ecf4cb;}.cls-80{fill:#2e1a27;}.cls-81{fill:#e9eede;}.cls-82{fill:#361a27;}.cls-83{fill:#484856;}.cls-84{fill:#213851;}.cls-85{fill:#3b4960;}.cls-86{fill:#30405a;}.cls-87{fill:#edf2cc;}.cls-88{fill:#2a5bbf;}.cls-89{fill:#e2dccb;}.cls-90{fill:#e9e8d4;}.cls-91{fill:#f3f5ec;}.cls-92{fill:#80a7dd;}.cls-93{fill:#eff5ea;}.cls-94{fill:#172636;}.cls-95{fill:#316678;}.cls-96{fill:#263a53;}.cls-97{fill:#245c6f;}.cls-98{fill:#5e1e2c;}.cls-99{fill:#362937;}.cls-100{fill:#203645;}.cls-101{fill:#1a1f2c;}.cls-102{fill:#72435b;}.cls-103{fill:#27354f;}.cls-104{fill:#223a53;}.cls-105{fill:#1e2c3a;}.cls-106{fill:#1c2d3f;}.cls-107{fill:#35455c;}.cls-108{fill:#304458;}.cls-109{fill:#3b445a;}.cls-110{fill:#313e4c;}.cls-111{fill:#23303d;}.cls-112{fill:#37495d;}.cls-113{fill:#432935;}.cls-114{fill:#5f2839;}.cls-115{fill:#58404d;}.cls-116{fill:#252c39;}.cls-117{fill:#203851;}.cls-118{fill:#69636e;}.cls-119{fill:#d6f8f2;}.cls-120{fill:#383642;}.cls-121{fill:#fdfefe;}.cls-122{fill:#1d364f;}.cls-123{fill:#fdfdfe;}.cls-124{fill:#1e3751;}.cls-125{fill:#243a53;}.cls-126{fill:#2f4058;}.cls-127{fill:#304159;}.cls-128{fill:#2f4159;}.cls-129{fill:#3b475e;}.cls-130{fill:#2e3f57;}.cls-131{fill:#565c70;}.cls-132{fill:#8f8390;}.cls-133{fill:#2e4159;}.cls-134{fill:#182c3f;}.cls-135{fill:#112b40;}.cls-136{fill:#dae2e2;}.cls-137{fill:#34455c;}.cls-138{fill:#565a6d;}.cls-139{fill:#554d63;}.cls-140{fill:#835468;}</style></defs><path class="cls-1" d="M89.41,37.27a8,8,0,0,1-1.27.35.63.63,0,0,1-.69-.3.25.25,0,0,1,0-.33,1.57,1.57,0,0,1,.26-.19A8.34,8.34,0,0,0,89,35.94a2.31,2.31,0,0,0,.7-.79,1.24,1.24,0,0,0-.07-1.31,2.14,2.14,0,0,0-.47-.57,8.46,8.46,0,0,1-1.12-1.41,2.07,2.07,0,0,1-.26-1.68,2.86,2.86,0,0,1,.44-1.07A8,8,0,0,0,89,27.43a1.82,1.82,0,0,0,.1-.73A6.29,6.29,0,0,0,88.81,25c-.29-.91-.56-1.82-.84-2.73a4.3,4.3,0,0,1-.09-.47,1.41,1.41,0,0,0,0-.21,2.6,2.6,0,0,1-.09-1.51,13.32,13.32,0,0,1,2.09-5.78,12.91,12.91,0,0,1,3.27-3.52,8.87,8.87,0,0,1,3.31-1.5,5.52,5.52,0,0,1,2.68.08,3.61,3.61,0,0,1,1.45.76.5.5,0,0,0,.43.14,4,4,0,0,1,3.09,1,8.94,8.94,0,0,1,2.29,3,21.18,21.18,0,0,1,.87,2.16c0,.09,0,.18,0,.26s.06.22-.08.28c-.32-.08-.34-.37-.43-.61a14.78,14.78,0,0,0-1.93-3.64,6.52,6.52,0,0,0-1-1.07,3.53,3.53,0,0,0-4.47-.23,9.88,9.88,0,0,0-3.08,3.38,3.62,3.62,0,0,0-.52,1A1.74,1.74,0,0,0,97,18c1.29.49,2.63.83,3.92,1.3a2,2,0,0,1,1.23,1c.08.25.13.51.21.76a8.86,8.86,0,0,1-.06,2.72c0,.49-.07,1-.08,1.47a14.89,14.89,0,0,0,.23,3.65,1.09,1.09,0,0,1,0,.36,8.73,8.73,0,0,1,.09,1.53c0,.07,0,0,0,.06.35,1-.33,1.63-1,2.22l-.16.14c-1.13.83-1.15,2-.91,3.19a.85.85,0,0,0,.14.34.34.34,0,0,0,.32.16c.12,0,.14-.14.17-.24a3.55,3.55,0,0,0,.09-.47c0-.16.05-.33.24-.37a.4.4,0,0,1,.44.23c.18.39.38.56.7.12,0,0,.14-.12.18-.08.48.4,1,0,1.46.06a8.72,8.72,0,0,0,2.4-.16c.2,0,.42-.16.56.12,0,0,0,0,0,0a.36.36,0,0,1,0-.15,1.67,1.67,0,0,0-.46-1.59c-.38-.37-.67-.82-1-1.22a1.67,1.67,0,0,1-.18-2.26,2.07,2.07,0,0,1,2.4-.54,1.27,1.27,0,0,1,.44.28c.18.13.15.38.3.52.22.34.44.67.65,1l2.19,3.48c.12.19.22.4.33.6A.85.85,0,0,1,112,37c-.22,0-.22-.18-.31-.29-1.08-1.76-2.21-3.49-3.32-5.23a1.43,1.43,0,0,0-1.73-.55,1.19,1.19,0,0,0-.53,1.91c.58.78,1.25,1.48,1.88,2.23a10.94,10.94,0,0,0,1,1.17c.3.26.24.47-.06.67l-2.16,1.44c-.28.19-.57.36-.84.56a2.15,2.15,0,0,1-1.74.58,2.3,2.3,0,0,0-1.08.2c-.52.15-.69.39-.73,1a.39.39,0,0,1,0,.3.21.21,0,0,1-.15,0,.56.56,0,0,1-.34-.7c.08-.32,0-.46-.35-.48-1.16-.08-2.32-.21-3.48-.35a.84.84,0,0,0-.9.47c-1.65,2.62-3.38,5.18-5.07,7.77l-.1.12c.06,0,.09,0,.13,0l.2-.06a3.77,3.77,0,0,1,1.83.19,24,24,0,0,0,5.73,1.27c2.17.23,4.33.4,6.5.48.4,0,.35-.18.26-.43-.29-.81-.62-1.62-.92-2.43a14.65,14.65,0,0,1-.51-1.45,3.36,3.36,0,0,0-1.85-2.3c-.59-.31-.7-.94-.93-1.49a.22.22,0,0,1,.08-.13.76.76,0,0,0,.67-.34c.11-.13.27-.29.45-.16s0,.29-.07.43l-.1.18c-.33.67-.17,1,.56,1.19a.54.54,0,0,1,.21.08c.17.13.23.35.39.49.39.33.71.27.92-.19a2.83,2.83,0,0,0,.2-1.44c0-.18-.1-.4.17-.48s.24,0,.2.18c0,.39,0,.78,0,1.17a2.21,2.21,0,0,1-.23.87.92.92,0,0,1-.46.49c-.15.08-.15.17-.09.31.16.39.31.79.45,1.18.49,1.37,1,2.74,1.45,4.1a.88.88,0,0,1,.05.15c.1.38,0,.53-.4.54h-.54c-.15,0-.31,0-.49,0,0,.1,0,.17,0,.24.64,2.31,1.27,4.63,1.91,6.94.18.65.38,1.29.57,1.94a1.06,1.06,0,0,1,.07.61,1.08,1.08,0,0,0,0,.47c.12.75.23,1.5.36,2.25.16.94.33,1.88.49,2.82a17.18,17.18,0,0,1,.33,2.58,2.87,2.87,0,0,0,0,.41,1.71,1.71,0,0,0,.13.38,7.49,7.49,0,0,1,.57,1.26c.1.22.41.08.51.3l-.1,0c-.48.06-.47.06-.48.56,0,.66,0,1.31-.07,2a.83.83,0,0,1-.12.46.29.29,0,0,1-.37.12l-.34-.18a2.68,2.68,0,0,1-1.3.87,4.82,4.82,0,0,1-2.1.17,2,2,0,0,1-.65-.2L105,74c-.37-.1-.4-.16-.15-.47s.63-.76,1-1.13a1,1,0,0,0,.24-.52l.12-1.11c0-.22,0-.24-.21-.26h-.32c-.07,0-.13-.08-.13-.18a.27.27,0,0,1,.09-.12c.16-.13.41-.12.51-.34.23-.46,0-.77-.47-.81a.7.7,0,0,1-.4-.1c0-.35.28-.21.44-.28s.32.16.27-.14a.57.57,0,0,0,.18-.78q-1.1-3-2.13-6c-.51-1.5-1-3-1.44-4.54,0-.15,0-.3.22-.34s.29.29.36.49c.19.57.43,1.12.6,1.7a1,1,0,0,0,1,.8,8.15,8.15,0,0,0,2.26-.14c.65-.13.74-.28.58-.92-.58-2.3-1.25-4.57-1.89-6.85-.1-.38-.22-.75-.29-1.13a.72.72,0,0,0-.81-.66,23.86,23.86,0,0,1-2.39-.08c-.66-.07-1.33-.17-2-.26a1.45,1.45,0,0,0-.62-.07c-.45,0-.62.16-.62.62,0,2.92,0,5.84,0,8.75A16.83,16.83,0,0,1,98.71,62c-.26,1.61-.65,3.19-.88,4.8a2.24,2.24,0,0,0,.35,2c.12.25.39.24.59.35-.26.46,0,.9.07,1.34a.57.57,0,0,1,0,.13c-.11.13.07.12.08.19-.16,0-.29.09-.31.3a2.46,2.46,0,0,1-.93,1.72,3.47,3.47,0,0,0-.33.41,1.15,1.15,0,0,1-.22.22.24.24,0,0,1-.33-.05.94.94,0,0,1-.13-.4l-.09-.63s0,0,0,0-.14.06-.2.12c-.32.3-.66.58-1,.85a1.86,1.86,0,0,1-.66.33,4.74,4.74,0,0,1-1.67.21l-.42-.06a1.13,1.13,0,0,1-.8-1.4.7.7,0,0,1,.34-.45q.25-.15.51-.27a1.06,1.06,0,0,0,.59-.65.78.78,0,0,1,0-.21,5.29,5.29,0,0,1,.43-1.17c0-.19-.3-.08-.36-.25a.18.18,0,0,1,.06-.14c.19-.13.47,0,.63-.22a2.42,2.42,0,0,0,.47-1.49c0-1.87,0-3.75,0-5.62,0-1.57-.23-3.13-.36-4.7-.09-1.11-.2-2.22-.26-3.33s-.22-2.21-.24-3.32a.67.67,0,0,0-.55-.68,2.87,2.87,0,0,1-1.67-1.39.9.9,0,0,1,0-1c1.77-2.56,3.39-5.22,5.19-7.76a1.62,1.62,0,0,0-.05-1.5.21.21,0,0,0-.23-.08,1.74,1.74,0,0,1-1.08-.17c-.53-.22-1,.1-1.43.21a.29.29,0,0,1-.21-.11c-.05-.07-.06-.27-.17-.2-.41.24-.84,0-1.24.11a.33.33,0,0,1-.35,0c-.23-.31-.47-.08-.7,0a3.55,3.55,0,0,1-.47-.09s-.09-.06-.11-.1a.12.12,0,0,0-.17-.07c-.12.05-.22.12-.33.17a.42.42,0,0,1-.36,0,.37.37,0,0,1-.19-.3C89.6,37.25,89.52,37.24,89.41,37.27Z"/><path class="cls-2" d="M116,61.46c0-1.86-.14-3.72-.15-5.58a9.22,9.22,0,0,0,0-1.29,2.63,2.63,0,0,1-.08-.74c0-1.16,0-2.33-.07-3.49-.06-1-.05-2-.08-3a8.38,8.38,0,0,1-1.44-2.84,1.72,1.72,0,0,0-.29,1.31,1.53,1.53,0,0,1,0,.37c-.1,2.36.17,4.72.09,7.09a1.27,1.27,0,0,0,0,.26A5.56,5.56,0,0,1,114,55c.06,3.77.21,7.54.27,11.31,0,.32,0,.63,0,.94a1,1,0,0,1-.07.15,1.14,1.14,0,0,1-.1.19.71.71,0,0,1-.23.33l0,.05-.1.09,0,0-.11.06-.12.07-.22,0a10.66,10.66,0,0,1-2,.2,9.65,9.65,0,0,1-1.32.08.3.3,0,0,0-.23.14.88.88,0,0,0,.16.47,3.91,3.91,0,0,1,.35.85c.06.14.19.15.31.14a26.21,26.21,0,0,1,3.76,0,.73.73,0,0,0,.33-.08l.15,0,.29-.13.14-.07a1.62,1.62,0,0,0,.77-1,17.49,17.49,0,0,0,.26-2.28c0-1.49-.19-3-.14-4.45A2.68,2.68,0,0,0,116,61.46Z"/><path class="cls-3" d="M114.11,53.52a1.16,1.16,0,0,1,0,.52l.06,3.34c.06,2.43.13,4.87.19,7.3,0,.6,0,1.2,0,1.8-.12.06-.14,0-.19-.1-.08-.81-.09-1.62-.11-2.43l-.21-7.67c0-.56,0-1.12,0-1.69a2.88,2.88,0,0,0,.05-.83C113.94,53.64,113.9,53.5,114.11,53.52Z"/><path class="cls-4" d="M114,45.51a1.08,1.08,0,0,1,.21-.82c0-.12-.08-.24-.11-.37-.07.09-.14.17-.2.26a1.46,1.46,0,0,0-.23.8c0,.5,0,1,0,1.48,0,1.86.09,3.71.14,5.56,0,.73.07,1.45.1,2.17a.32.32,0,0,0,.1-.28v-.52a.3.3,0,0,1,.13-.27c0-.17,0-.35,0-.52q-.06-3.07-.14-6.13A10.3,10.3,0,0,0,114,45.51Z"/><path class="cls-5" d="M115.4,47.16c0,.41,0,.82,0,1.23.06,1.91.11,3.81.16,5.71a1.35,1.35,0,0,0,0,.53.54.54,0,0,0,.17-.53c-.08-.48,0-1-.08-1.45,0,0-.07-.06,0-.07s0,.11.13.1c0-.18,0-.35,0-.53-.05-1.51-.09-3-.14-4.52A5.32,5.32,0,0,1,115.4,47.16Z"/><path class="cls-6" d="M86.47,39.73a0,0,0,0,1,0,.07c0,.12.08.23,0,.34a.15.15,0,0,1-.13,0,.56.56,0,0,1-.13-.24.36.36,0,0,1,0-.11,1.55,1.55,0,0,0-.07-.23.76.76,0,0,1,0-.11,1.29,1.29,0,0,0-.07-.21l-.07-.09a.36.36,0,0,0-.15-.08L85.61,39c-.08,0-.17,0-.25,0a.21.21,0,0,1-.1-.11,9,9,0,0,1,.07-1.72s0-.07.06-.08a1.34,1.34,0,0,0,.72-1.55.89.89,0,0,1,.51-1.05c.18-.07.19-.24.13-.41a.32.32,0,0,0-.37-.23h-.1c-1,.15-1,.1-1-.88.06-.24-.11-.56.25-.7,0,.37.07.74.11,1.1,0,.18.13.26.29.19a1.54,1.54,0,0,1,.67-.13.56.56,0,0,1,.53.37,1.88,1.88,0,0,1,.1.88.24.24,0,0,1-.16.2,2.27,2.27,0,0,1-.25.06.24.24,0,0,0-.22.26c0,.28,0,.56,0,.84a1.63,1.63,0,0,1-.08.58,1.08,1.08,0,0,1-.54.68l-.33.17a2.67,2.67,0,0,0,0,1.16h0c.08.11.22,0,.32.1h0c0,.09.14.06.2.11h0c0,.07,0,.17.12.21h0c.06.1,0,.25.1.33h0C86.44,39.5,86.37,39.63,86.47,39.73Z"/><path class="cls-7" d="M108.7,31.22c-.17-.09-.24-.26-.35-.41a9.1,9.1,0,0,1,.05-1.73c0-1.92,0-3.84-.11-5.76.07-.24-.09-.56.27-.68a11.83,11.83,0,0,1,.19,1.68,47.25,47.25,0,0,1,.1,5.45,3.39,3.39,0,0,1-.18,1.3S108.69,31.17,108.7,31.22Z"/><path class="cls-8" d="M106,41.33a.24.24,0,0,0-.22-.12c0-.26.23-.28.39-.35A20.84,20.84,0,0,0,111,37.77a3.15,3.15,0,0,0,.73-1.12c.13.07.07.25.2.32a.85.85,0,0,1-.33.83,15.42,15.42,0,0,1-2.75,2.06A18.82,18.82,0,0,1,106,41.33Z"/><path class="cls-9" d="M84.12,37.61l-.53,0-.47,0a1.17,1.17,0,0,1-1-1.21,6,6,0,0,0,0-.85.23.23,0,0,0-.23-.24,3.1,3.1,0,0,1-.51-.11.32.32,0,0,1-.27-.23c0-.23-.09-.45-.13-.68S81,34,81.13,34a.67.67,0,0,1,.46,0,1.07,1.07,0,0,0,.91-.06.18.18,0,0,1,.16,0c.23.25,0,.33-.16.44-.33.23-.71.06-1.08.08,0,.3.21.37.41.42a.77.77,0,0,1,.63.8,2.44,2.44,0,0,0,0,.27c0,1,.22,1.21,1.24,1.28.22,0,.47,0,.59.24C84.3,37.51,84.3,37.63,84.12,37.61Z"/><path class="cls-10" d="M86.66,40a.48.48,0,0,1,.38-.13c.77-.1,1.55-.08,2.31-.22.24,0,.51.07.72-.1s.17-.41.3-.6a4.73,4.73,0,0,1,.45-.71c.13,0,.16.07.19.16a4.63,4.63,0,0,1-.59,1.39.73.73,0,0,1-.58.33,26.35,26.35,0,0,1-2.66.28c-.21,0-.44,0-.55-.22A.29.29,0,0,1,86.66,40Z"/><path class="cls-11" d="M114.94,69.88l.25-.2a1.9,1.9,0,0,0,.73-1.39,5.93,5.93,0,0,0,0-.73c0-.08,0-.22,0-.25.26-.14.11-.38.17-.56-.06-1.21-.07-2.41-.09-3.62,0-.14,0-.33.19-.36.08,1.45.13,2.89.1,4.34,0,.29,0,.57,0,.85a2.39,2.39,0,0,1-.91,1.94.87.87,0,0,1-.19.1A.27.27,0,0,1,114.94,69.88Z"/><path class="cls-12" d="M115.88,61.5a1,1,0,0,1-.06-.41l-.15-5c0-.09,0-.17,0-.26.31.06.17.33.22.5a2.94,2.94,0,0,1,0,.79c0-.1,0-.19.07-.25a1.62,1.62,0,0,1,.07.62c0,.44,0,.87,0,1.31a1.76,1.76,0,0,0,0,.51c0,.63.09,1.26,0,1.89a.29.29,0,0,1-.13.23Z"/><path class="cls-13" d="M114.94,69.88a.24.24,0,0,1,.23.12h0l-.11.08,0,0h0c-.08,0-.18,0-.25.09l0,0h0a4.83,4.83,0,0,1-.93,0,.5.5,0,0,1-.27,0,3.45,3.45,0,0,1-.71.09l-1.93,0-.45,0c-.16,0-.2-.1-.2-.24l2.75-.12a.83.83,0,0,1,.41,0,2.6,2.6,0,0,0,1,.1,1,1,0,0,0,.24-.08l.11,0c.06,0,.16,0,.21-.1Z"/><path class="cls-14" d="M116,56.91l-.05.44h-.06c0-.18,0-.35,0-.53a2.85,2.85,0,0,0-.21-1,10.32,10.32,0,0,1,0-1.24c0-.62,0-1.24,0-1.86v-.63c.15.25,0,.44.21.54l.12,3.06C116,56.13,116,56.52,116,56.91Z"/><path class="cls-15" d="M109.83,68.7l-.17,0c-.17-.15-.17-.15,0-.34l2.73-.1a.7.7,0,0,0,.4-.1.17.17,0,0,1,.19,0,.64.64,0,0,0,.41,0,.1.1,0,0,1,.09,0,.24.24,0,0,0,.12-.07l0,0a.15.15,0,0,1,.09-.06l.08-.06c.12,0,.15,0,.14.13h0a.47.47,0,0,0-.1.1h0l-.1.07a.06.06,0,0,1-.08,0s-.08,0-.13.07a2.66,2.66,0,0,1-1.25.24c-.3,0-.62,0-.93,0C110.8,68.74,110.31,68.58,109.83,68.7Z"/><path class="cls-16" d="M107.19,17c.09-.06.09-.16.12-.26a13.52,13.52,0,0,1,.61,2.06,5.22,5.22,0,0,1,.23,1.24c.06.11,0,.24.08.35l0,.27c0,.12,0,.26.08.37l0,.27c0,.17.11.34-.06.49-.1,0-.14-.08-.17-.16a3.7,3.7,0,0,0-.09-.48c0-.1,0-.21,0-.31a1.06,1.06,0,0,0-.09-.39c-.27-1-.47-2.05-.77-3.05A.39.39,0,0,1,107.19,17Z"/><path class="cls-17" d="M84.57,66c0-.6,0-1.2,0-1.81a19.27,19.27,0,0,0,0-2.52,7.72,7.72,0,0,1,.07-2.25c.3,0,.27.29.27.48,0,1.57.06,3.14,0,4.71a2.38,2.38,0,0,0,0,1.27.68.68,0,0,1,0,.19,5.17,5.17,0,0,1-.09,1.71.14.14,0,0,1-.17,0C84.54,67.16,84.68,66.55,84.57,66Z"/><path class="cls-18" d="M98.79,70.62s0,0,0-.06c.17-.25.43-.2.66-.2s.73,0,1.1,0a3.37,3.37,0,0,0,1.14,0,11.18,11.18,0,0,1,1.53,0,2.81,2.81,0,0,0,1,0,3.07,3.07,0,0,1,1.09,0,.66.66,0,0,1,.29.21l.09.1a5.57,5.57,0,0,1-1,0,11.17,11.17,0,0,1-1.53,0,1.64,1.64,0,0,0-.54,0,3.39,3.39,0,0,1-.9,0,12.53,12.53,0,0,1-1.62.05A7.08,7.08,0,0,1,98.79,70.62Z"/><path class="cls-19" d="M116.2,62.77c-.13.12-.09.29-.09.45v2.9c0,.21,0,.42,0,.63a.89.89,0,0,1-.07-.36c0-1.33-.09-2.66-.14-4a2.46,2.46,0,0,1,0-.26c0-.09.13.14.13-.05a8.92,8.92,0,0,1,.09-1.79,1.33,1.33,0,0,1,.06.52A18.34,18.34,0,0,1,116.2,62.77Z"/><path class="cls-20" d="M84.35,50.77a7.22,7.22,0,0,1,0-1.23c-.09-1.6,0-3.2,0-4.8a.16.16,0,0,1,.13-.15c.35.42.19.94.26,1.41a7.8,7.8,0,0,1,0,2,13,13,0,0,0-.09,2.16C84.57,50.37,84.7,50.67,84.35,50.77Z"/><path class="cls-21" d="M84.44,44.61c-.15.15-.09.33-.1.5,0,1.07,0,2.15,0,3.22,0,.4,0,.81,0,1.21a.86.86,0,0,1,0-.42c0-1.38,0-2.75,0-4.13,0-.58,0-1.17,0-1.75,0-.2.13-.18.26-.11a.46.46,0,0,1,.09.17A2,2,0,0,1,84.44,44.61Z"/><path class="cls-22" d="M84.68,59.33c0,.21,0,.42,0,.63,0,1.23,0,2.46,0,3.69,0,.17,0,.35-.1.49,0-.79,0-1.59,0-2.38-.08-1.32,0-2.64,0-4a.15.15,0,0,1,.12-.15A1.88,1.88,0,0,1,84.68,59.33Z"/><path class="cls-23" d="M82.87,42.27a2,2,0,0,1,.18-2.34,1,1,0,0,1,.13-.09l.07,0a.17.17,0,0,1,.07.14s0,.06,0,.08A3.18,3.18,0,0,0,83,42.15C83,42.22,83,42.29,82.87,42.27Z"/><path class="cls-17" d="M84.65,57.67c-.14.13-.09.3-.09.45,0,.93,0,1.86,0,2.79,0,.28,0,.57,0,.85a7.15,7.15,0,0,1-.07-1.31c0-1.05,0-2.1,0-3.15a.78.78,0,0,1,0-.16.17.17,0,0,1,.15,0,.19.19,0,0,1,.12.11A.39.39,0,0,1,84.65,57.67Z"/><path class="cls-24" d="M84.55,57.14h-.09l0-2.3c-.07-.84,0-1.68,0-2.53a.12.12,0,0,1,.17-.06c.22.31.13.66.14,1,0,1.06,0,2.13,0,3.19A.92.92,0,0,1,84.55,57.14Z"/><path class="cls-25" d="M86.56,71a1.21,1.21,0,0,1-.74-.34.19.19,0,0,0-.12-.09.33.33,0,0,1-.21-.19c.06-.2.06-.2.38,0l.12,0a1.11,1.11,0,0,0,.26.07,5.2,5.2,0,0,1,.67.21.47.47,0,0,0,.31,0l.2,0a.39.39,0,0,1,.21.08.19.19,0,0,1,0,.15l0,.06-.06,0A3.29,3.29,0,0,1,86.56,71Z"/><path class="cls-26" d="M84.55,52.26h-.09c-.16-.34,0-.72-.11-1.07a1.24,1.24,0,0,1,0-.43c.13-.11.1-.26.1-.4V48.46c0-.15,0-.32.09-.45a.62.62,0,0,1,.18.53q0,1.59,0,3.18A.68.68,0,0,1,84.55,52.26Z"/><path class="cls-27" d="M84.12,37.61c.1,0,.11-.15.13-.24.23.06.21.25.23.42a4,4,0,0,1,0,.69.61.61,0,0,0,.54.75.18.18,0,0,1,.09.14c-.24.37-.57.14-.86.13-.08,0-.15-.09-.13-.19a.15.15,0,0,0,.07-.18A12.9,12.9,0,0,1,84.12,37.61Z"/><path class="cls-28" d="M84.21,33.52c0-.38,0-.77-.07-1.15a.54.54,0,0,1,.08-.41.16.16,0,0,1,.06.14s0,.1,0,.15,0-.12,0-.17.14-.1.22,0a2.92,2.92,0,0,1,0,1.58.2.2,0,0,1-.26.05A.15.15,0,0,1,84.21,33.52Z"/><path class="cls-29" d="M89,71.14a8,8,0,0,1-1.47,0c.13-.37.45-.2.68-.25a1.31,1.31,0,0,0,.52-.07,4.4,4.4,0,0,1,.81,0h.74a2.23,2.23,0,0,1,.92.09c.06,0,.06.09,0,.15l-.58,0C90.1,71.17,89.55,71,89,71.14Z"/><path class="cls-11" d="M116.12,60.29c0,.52,0,1,0,1.56v.62c-.16-.09-.08-.28-.21-.34a1.91,1.91,0,0,1,0-.63l0,0,.08-.09V59.26s.07,0,.1,0A5.08,5.08,0,0,1,116.12,60.29Z"/><path class="cls-30" d="M85.94,70.4a.36.36,0,0,1-.28-.1c-.07-.06-.13,0-.17,0a2.22,2.22,0,0,1-.72-1.21c0-.07,0-.2.15-.23C85.24,69.41,85.66,69.86,85.94,70.4Z"/><path class="cls-31" d="M84.35,51.2a.35.35,0,0,1,.1.29c0,.26,0,.52,0,.78v2c0,.19,0,.38,0,.57a.42.42,0,0,1,0-.15c0-1.13,0-2.26,0-3.39C84.34,51.27,84.35,51.23,84.35,51.2Z"/><path class="cls-32" d="M108.25,21.78c.16-.13.08-.31.12-.47a5,5,0,0,1,.19,1.33.3.3,0,0,0-.1.27c0,.13,0,.26,0,.39A1.49,1.49,0,0,1,108.25,21.78Z"/><path class="cls-33" d="M84.57,66c.12.11.09.26.09.4,0,.47,0,.94,0,1.42a.57.57,0,0,1,0,.75.52.52,0,0,1-.08-.3C84.56,67.47,84.57,66.71,84.57,66Z"/><path class="cls-34" d="M83.69,32.3a8.69,8.69,0,0,1,.14,1.25.12.12,0,0,1,0,.16.28.28,0,0,1-.18,0c-.28-.36-.14-.76-.14-1.15C83.5,32.43,83.52,32.3,83.69,32.3Z"/><path class="cls-35" d="M113.88,68.08l-.14-.13.37-.52s.07-.08.07-.13V67a.2.2,0,0,1,0-.24h0c.32.18.11.45.12.68a.06.06,0,0,1,0,.07.44.44,0,0,0-.08.15A.64.64,0,0,1,113.88,68.08Z"/><path class="cls-36" d="M82.52,33.48a.38.38,0,0,1-.07-.34.77.77,0,0,0,0-.52.73.73,0,0,1,.2-.54l.08,0a.28.28,0,0,1,.08.15,5.51,5.51,0,0,1-.08,1.07A.3.3,0,0,1,82.52,33.48Z"/><path class="cls-37" d="M88.26,71l-.5,0a.25.25,0,0,0-.22.09.7.7,0,0,0-.38-.11.89.89,0,0,1-.6-.08l.52,0a1.35,1.35,0,0,0,.56-.1.88.88,0,0,1,.62.06S88.31,71,88.26,71Z"/><path class="cls-38" d="M84.46,32c-.19.07-.07.29-.2.44l0-.47a.47.47,0,0,1,.47-.32h.46c.08,0,.12.05.15.12s0,0,0,.05l-.12.05c-.13,0-.26,0-.39,0l-.12,0-.1.05Z"/><path class="cls-39" d="M84.64,68.52c0-.25,0-.5,0-.75h.07c.27.25.1.6.2.89a.38.38,0,0,1-.07.25c0,.08,0,.17-.11.22A1.27,1.27,0,0,1,84.64,68.52Z"/><path class="cls-40" d="M85.5,32.3a.34.34,0,0,0-.09.29c0,.16,0,.31,0,.47-.41-.25-.14-.68-.26-1a.88.88,0,0,1,0-.16.52.52,0,0,1,.1-.11l0,0A.49.49,0,0,1,85.5,32.3Z"/><path class="cls-41" d="M84.45,43.14a.19.19,0,0,0-.23.1c-.2-.08-.45,0-.63-.21a.21.21,0,0,1,.17-.17,2.73,2.73,0,0,1,1.1.13.12.12,0,0,1,0,.16A.33.33,0,0,1,84.45,43.14Z"/><path class="cls-42" d="M89,71.14a.48.48,0,0,1,.18-.08,10,10,0,0,1,1.45,0A6.35,6.35,0,0,1,89,71.14Z"/><path class="cls-43" d="M91,38.38l-.13-.14.17-.36c-.08-.09-.23,0-.27-.16h.54A.46.46,0,0,1,91,38.38Z"/><path class="cls-44" d="M100.07,70.62h1.64a7,7,0,0,1-1.65.09s0,0,0-.07S100.05,70.62,100.07,70.62Z"/><path class="cls-45" d="M103,70.52h1.64a9,9,0,0,1-1.64.08s-.05,0,0-.06S103,70.52,103,70.52Z"/><path class="cls-46" d="M100.07,70.62v.1l-1.13,0-.1,0c-.06,0-.09,0,0-.1Z"/><path class="cls-47" d="M114.31,67.47c0-.14,0-.27,0-.41a.32.32,0,0,0-.11-.27l0-.41.19.1c0,.25,0,.5,0,.76A.43.43,0,0,1,114.31,67.47Z"/><path class="cls-48" d="M85.62,38.66s-.09-.08-.09-.12c0-.3,0-.61,0-.92,0,0,0-.08.08-.12Z"/><path class="cls-49" d="M93.37,70.8a.28.28,0,0,1-.14.16h-.36a1.47,1.47,0,0,1-.66,0,.14.14,0,0,1,0-.18A1.34,1.34,0,0,1,93.37,70.8Z"/><path class="cls-50" d="M92.2,70.9l.67,0a3.72,3.72,0,0,1-1.2.08.1.1,0,0,1,0-.14A.46.46,0,0,1,92.2,70.9Z"/><path class="cls-51" d="M84.13,39.31l.11.12c-.08.26-.3.21-.49.24a.19.19,0,0,1-.15-.15A.8.8,0,0,1,84.13,39.31Z"/><path class="cls-52" d="M82.87,42.27l.12-.13c.18,0,.23.18.31.31a.33.33,0,0,1,0,.14.19.19,0,0,1-.08.1l-.06,0A.72.72,0,0,1,82.87,42.27Z"/><path class="cls-11" d="M113.66,70.21h1a1.72,1.72,0,0,1-1,.07s-.06,0-.05,0Z"/><path class="cls-53" d="M82.75,32a.51.51,0,0,1,.68,0,.28.28,0,0,1-.13.11.93.93,0,0,1-.33,0A.38.38,0,0,1,82.75,32Z"/><path class="cls-48" d="M86.66,40v.2c-.12.13-.23.19-.29-.05.12-.09.07-.23.11-.35Z"/><path class="cls-54" d="M83.69,32.3c-.09.06-.09.15-.11.24a.34.34,0,0,1-.2-.48.25.25,0,0,1,.17,0A.25.25,0,0,1,83.69,32.3Z"/><path class="cls-55" d="M83.7,42.94l-.11.09a.32.32,0,0,1-.31-.22.25.25,0,0,1,.14-.08C83.56,42.73,83.68,42.78,83.7,42.94Z"/><path class="cls-56" d="M82.44,32.62a.42.42,0,0,1,0,.52A1.3,1.3,0,0,1,82.44,32.62Z"/><path class="cls-57" d="M82.52,33.48l.11-.12a.36.36,0,0,1,0,.53l-.15,0Z"/><path class="cls-58" d="M83.6,39.52l.11.09a.28.28,0,0,1-.3.25.13.13,0,0,1-.08-.11.5.5,0,0,1,0-.13h0l.14-.09Z"/><path class="cls-19" d="M116.1,59.26H116c0-.14,0-.3.09-.42A.85.85,0,0,1,116.1,59.26Z"/><path class="cls-59" d="M83.81,33.67l0-.12a.55.55,0,0,0,.38,0v.14A.26.26,0,0,1,83.81,33.67Z"/><path class="cls-60" d="M91.68,71a.25.25,0,0,0,0,.08,1.14,1.14,0,0,1-.45,0,.36.36,0,0,0,0-.09A.27.27,0,0,1,91.68,71Z"/><path class="cls-44" d="M103,70.52v.09a1,1,0,0,1-.43,0C102.73,70.47,102.89,70.53,103,70.52Z"/><path class="cls-35" d="M113.34,68.2a.26.26,0,0,1-.41,0Z"/><path class="cls-48" d="M86.38,39.4c-.15-.07-.13-.2-.1-.33A.4.4,0,0,1,86.38,39.4Z"/><path class="cls-61" d="M89.41,37.27c0-.07.11-.12.16-.08s0,.14,0,.21Z"/><path class="cls-48" d="M85.94,38.76c-.13,0-.25.05-.32-.1C85.73,38.7,85.85,38.66,85.94,38.76Z"/><path class="cls-62" d="M83.37,39.69l0,.12c0,.11,0,.14-.11.13l0,0,0,0,0,0,.09-.14Z"/><path class="cls-63" d="M108.23,20.4c-.12-.1-.09-.23-.08-.35A.44.44,0,0,1,108.23,20.4Z"/><path class="cls-32" d="M108.34,21c-.12-.1-.09-.24-.08-.37A.45.45,0,0,1,108.34,21Z"/><path class="cls-64" d="M82.75,32H83c0,.12-.08.16-.18.17a.31.31,0,0,1-.13-.06h0A.1.1,0,0,1,82.75,32Z"/><path class="cls-65" d="M83.42,42.79l-.14,0a.13.13,0,0,1-.11-.1l0,0,0,0a.11.11,0,0,0,0-.06C83.45,42.57,83.44,42.67,83.42,42.79Z"/><path class="cls-48" d="M86.47,39.73c-.13-.09-.12-.21-.09-.34A.38.38,0,0,1,86.47,39.73Z"/><path class="cls-66" d="M83.55,32.08h-.17c-.09,0-.12,0-.13-.1l.18,0Z"/><path class="cls-47" d="M114.19,66.8V67C114.11,67,114.06,66.88,114.19,66.8Z"/><path class="cls-2" d="M113.66,70.21a.19.19,0,0,1,0,.07.16.16,0,0,1-.22-.07Z"/><path class="cls-11" d="M114.72,70.2a.22.22,0,0,1,.25-.09A.26.26,0,0,1,114.72,70.2Z"/><path class="cls-48" d="M86.15,38.87c-.09,0-.17,0-.2-.11S86.12,38.76,86.15,38.87Z"/><path class="cls-48" d="M86.28,39.08c-.11,0-.13-.11-.12-.21S86.28,39,86.28,39.08Z"/><path class="cls-11" d="M115.05,70.08l.11-.08A.09.09,0,0,1,115.05,70.08Z"/><path class="cls-35" d="M113.55,68.09a.1.1,0,0,1-.12.07A.09.09,0,0,1,113.55,68.09Z"/><path class="cls-30" d="M85.7,70.53a.14.14,0,0,1,.12.09A.12.12,0,0,1,85.7,70.53Z"/><path class="cls-47" d="M114.18,67.3a.15.15,0,0,1-.07.13A.14.14,0,0,1,114.18,67.3Z"/><path class="cls-67" d="M83.52,39.52a.15.15,0,0,1-.14.09A.16.16,0,0,1,83.52,39.52Z"/><path class="cls-67" d="M83.37,39.69h-.1a.11.11,0,0,1,.1-.08Z"/><path class="cls-35" d="M113.66,68l-.09.06A.08.08,0,0,1,113.66,68Z"/><path class="cls-68" d="M108.25,21.78a9.72,9.72,0,0,0,.19,1.52c0,.28,0,.57,0,.85a42.73,42.73,0,0,1,0,6.4c0,.1,0,.21-.12.26a1.93,1.93,0,0,0-2.25-.15,1.51,1.51,0,0,0-.35,2.36c.57.64,1.09,1.34,1.63,2,.07.08.12.16,0,.27s-.05.2-.05.3a1,1,0,0,1-.06.52s-.05.1-.12.11l-.06-.09c-.06-.12-.14-.16-.24,0s-.1.16-.2.08a.23.23,0,0,0-.33,0l-.16.14c-.16.12-.18.11-.31-.08a.56.56,0,0,0-.05-.08.13.13,0,0,0-.19,0c-.08.07-.14.16-.24.27a1,1,0,0,0-.09-.15.14.14,0,0,0-.23,0c-.08.09-.15.2-.23.29a.19.19,0,0,1-.28,0l0,0c-.1-.09-.1-.29-.28-.29s-.21.18-.34.24l-.05,0,0,0c-.25-.3-.25-.3-.42,0l0,.1a.18.18,0,0,1-.27,0,.64.64,0,0,1-.08-.14c-.11-.39-.3-.32-.46,0l-.06.09c-.16.22-.34.22-.49,0a2,2,0,0,1-.15-.33,1.76,1.76,0,0,0-.14-.23.21.21,0,0,0-.2-.05.2.2,0,0,0-.14.14l-.09.63a2.48,2.48,0,0,1,0,.27c0,.2-.16.28-.38.17a.94.94,0,0,1-.51-.68,5.28,5.28,0,0,1,0-1.9,1.38,1.38,0,0,1,.49-.91c.2-.17.39-.36.59-.54a2.1,2.1,0,0,0,.43-.46,1.38,1.38,0,0,1,.5-.46.44.44,0,0,0,.2-.46,5,5,0,0,1-.08-.78c.23-.44,0-.88,0-1.31,0-.13-.06-.26-.07-.4a.18.18,0,0,1,0-.17,16.75,16.75,0,0,1-.25-3.46c0-.11,0-.22-.06-.31a4.19,4.19,0,0,1,0-1c0-.45.1-.9.15-1.36a8,8,0,0,0,0-1.89,1.1,1.1,0,0,0-.19-.73,2.34,2.34,0,0,0-1.34-1c-.63-.2-1.26-.36-1.88-.55a7.53,7.53,0,0,1-1.34-.51,2.45,2.45,0,0,0-.54-.18,1.72,1.72,0,0,1-1.33-1.75,2.13,2.13,0,0,1,.29-1.1,18.52,18.52,0,0,1,1.26-1.91,9.27,9.27,0,0,1,1.56-1.57,5,5,0,0,1,2.18-1,3.31,3.31,0,0,1,2.4.43,6,6,0,0,1,2,1.91,15.14,15.14,0,0,1,1.62,3.15c.1.27.21.53.32.79.14.54.28,1.07.42,1.62s.29,1.25.43,1.88c.07.12,0,.25.08.37l0,.27c.08.14,0,.31.08.45Z"/><path class="cls-68" d="M95,37.19c-.07-.13-.17-.2-.3-.1s-.33.26-.49.39c-.12-.18,0-.31,0-.46s-.14-.2-.23-.15l-.27.17-.51.35s-.07-.07-.07-.09c0-.3,0-.35-.27-.23l-.55.3a.2.2,0,0,1-.09-.09c0-.13.11-.22.09-.36s-.12-.13-.16-.11l-.27.16a5.88,5.88,0,0,1-.87.52c-.13-.14,0-.22,0-.33A.35.35,0,0,0,91,37c0-.06-.1,0-.14,0l-.54.34a2.49,2.49,0,0,1-.33.16.18.18,0,0,1-.14,0,.17.17,0,0,1,0-.14c.06-.13.14-.25.2-.38a.2.2,0,0,0,0-.15.13.13,0,0,0-.18-.06,3.36,3.36,0,0,0-.43.2,2.31,2.31,0,0,1-.81.25c-.21,0-.41.08-.62.11a.14.14,0,0,1-.08,0s0-.08,0-.09c.38-.2.68-.51,1-.74a2.88,2.88,0,0,0,.93-1,1.67,1.67,0,0,0,0-1.76,1.71,1.71,0,0,0-.42-.54,8.36,8.36,0,0,1-1.07-1.38,1.93,1.93,0,0,1-.19-1.59,2.32,2.32,0,0,1,.33-.78c.24-.37.4-.78.61-1.17a3.68,3.68,0,0,0,.27-2.48c-.08-.45-.22-.89-.34-1.34-.21-.76-.43-1.53-.68-2.28a4.42,4.42,0,0,1-.2-1.73,12.65,12.65,0,0,1,4.92-9A7.81,7.81,0,0,1,96,9.85a5.48,5.48,0,0,1,4.07.39l.18.11c0,.13-.14.14-.23.17a6.07,6.07,0,0,0-2,1.39,14.38,14.38,0,0,0-2.44,3.4c-.09.17-.15.35-.23.53a.35.35,0,0,1-.16.18L95,16a2.21,2.21,0,0,0-2.19.79,5.38,5.38,0,0,0-1.33,5.28,3.73,3.73,0,0,0,.53,1,1.21,1.21,0,0,0,.16.16,1.7,1.7,0,0,1,1,2.2,1.7,1.7,0,0,0,.7,1.7l.23.11a4.77,4.77,0,0,0,1.64,1.13,4.24,4.24,0,0,0,2,.24c.32-.06.7,0,.64.41-.12.85,0,1.71-.14,2.56h0c-.06.29-.34.39-.52.58-.49.49-1,1-1.47,1.45a1.06,1.06,0,0,0-.33,1.19,10.24,10.24,0,0,0,.34,1.43c0,.17.1.34.14.51.12.44.12.44-.2.86a.11.11,0,0,1-.09-.1c-.12-.34-.12-.34-.45-.15a1.52,1.52,0,0,0-.06-.2c0-.1-.11-.13-.2-.07l-.21.16A.31.31,0,0,1,95,37.19Z"/><path class="cls-69" d="M102.37,41.43c0,.2.22.27.31.41s0,.34.14.51a1.26,1.26,0,0,0,.88.69.39.39,0,0,1,.32.23,1.05,1.05,0,0,0,.52.52.59.59,0,0,1,.33.39q.19.6.42,1.2c.41,1.12.84,2.25,1.25,3.37.09.24.18.47.26.7s.06.39-.28.34c-.8-.1-1.59,0-2.39-.11-.61,0-1.23-.06-1.85-.09a5.62,5.62,0,0,1-.57-.09c-1-.14-2-.23-3-.34a10.74,10.74,0,0,1-2.8-.58c-.29-.11-.61-.17-.91-.26a2.42,2.42,0,0,1-.46-.13,4.53,4.53,0,0,0-2.38-.38c-.13,0-.25.06-.25-.14s.1-.19.16-.27l3.19-4.88,1.88-2.89c0-.07.1-.14.14-.22a.29.29,0,0,1,.39-.17,8.81,8.81,0,0,0,1.15.14c.51.09,1,.1,1.53.14s.85.07,1.27.12a3.73,3.73,0,0,1,.48.12c0,.18-.09.35-.13.51a.53.53,0,0,0,.28.63A.61.61,0,0,1,102.37,41.43Z"/><path class="cls-67" d="M95.07,16h.23c.12.12.07.27,0,.4A1.88,1.88,0,0,0,96,18a1.73,1.73,0,0,0,.82.46,2.49,2.49,0,0,1,.59.23,6.53,6.53,0,0,0,1.54.53,11.58,11.58,0,0,1,1.93.57,1.29,1.29,0,0,1,.82.9,5.77,5.77,0,0,1,.11,2.15,9.71,9.71,0,0,0-.08,1.21,1.83,1.83,0,0,0,0,.47c-.07.55.2,1.15-.12,1.64A5,5,0,0,1,98,28.67a4.09,4.09,0,0,1-3.64-1.12l-.11-.12-.06-.05c-.1-.09-.26-.08-.36-.18a2.24,2.24,0,0,1-.65-1.87c.06-.43,0-.87.07-1.3.23-.17.42-.06.6.1,0,.33.24.38.52.39a1.31,1.31,0,0,0,1.08-.47c.13-.09.19-.32.42-.24,0,0,.12.21.14,0a1.17,1.17,0,0,0-.77-1.21,2.83,2.83,0,0,0-2.91.24c-.34.18-.53,0-.67-.29a4.71,4.71,0,0,1-.26-3,5.1,5.1,0,0,1,1.2-2.44A2.94,2.94,0,0,1,94.88,16,.33.33,0,0,0,95.07,16Z"/><path class="cls-67" d="M100.3,49.72a4.91,4.91,0,0,1,.53,0,26,26,0,0,0,3.64.3h.32c.21,0,.46-.06.62.08s.13.38.19.58c.43,1.57.87,3.13,1.3,4.7.34,1.23.66,2.46,1,3.69a2,2,0,0,1,.06.26.25.25,0,0,1-.13.26,1.46,1.46,0,0,1-.45.18,7.6,7.6,0,0,1-2.89.17,1.55,1.55,0,0,1-.21,0,.59.59,0,0,1-.45-.4q-.27-.79-.57-1.59a7.13,7.13,0,0,0-.41-1,3.49,3.49,0,0,1-.6-1.4c-.64-1.75-1.26-3.52-1.88-5.28C100.29,50.09,100.14,49.91,100.3,49.72Z"/><path class="cls-70" d="M109.31,68.67a.9.9,0,0,0,.18.69,2.62,2.62,0,0,1,.42,1.51v1.91a1.48,1.48,0,0,1,0,.21c0,.09,0,.2-.13.2s-.14-.09-.14-.19,0-.32,0-.47c0-.45,0-.89,0-1.33a.54.54,0,0,0-.08-.35.11.11,0,0,0-.09,0,.11.11,0,0,0-.09,0,2.21,2.21,0,0,0,0,.25c0,.35-.07.71-.06,1.06a3.84,3.84,0,0,1-.16.82.6.6,0,0,1-.28.38,2.56,2.56,0,0,1-.45.27,4.37,4.37,0,0,1-2.85.25l-.1,0a.13.13,0,0,1-.07-.21,11,11,0,0,1,.85-1.15.89.89,0,0,0,.25-.61c0-.39.06-.77.1-1.16.07-.6.1-1.2.15-1.8a.74.74,0,0,1,0-.21,2,2,0,0,0-.18-1.33q-1.2-3.26-2.38-6.52c-.05-.13-.09-.26-.13-.4a.13.13,0,0,1,.18-.17,5.57,5.57,0,0,0,1.63.14,6.59,6.59,0,0,0,1.82-.29c.21-.06.27,0,.3.16.11.6.22,1.19.3,1.78.17,1.3.45,2.57.7,3.85a13.49,13.49,0,0,1,.29,1.89A3.86,3.86,0,0,1,109.31,68.67Z"/><path class="cls-67" d="M93.92,48.38c.64.2,1.28.36,1.88.6a12.29,12.29,0,0,0,1.64.41,5,5,0,0,0,1,.12.19.19,0,0,1,.2.2v.16q0,3.62,0,7.22c0,.67,0,1.35,0,2,0,.31,0,.34-.33.34l-2.29-.06H95c-.12,0-.2,0-.21-.17l-.06-.69-.3-3.6c-.09-1-.16-2.08-.26-3.12s-.2-2-.3-3A1,1,0,0,1,93.92,48.38Z"/><path class="cls-70" d="M96.53,59.79h1.54c.3,0,.33,0,.29.35-.06.55-.13,1.09-.22,1.63s-.25,1.32-.37,2c-.08.45-.19.9-.31,1.34a11.25,11.25,0,0,0-.34,2.09,5.61,5.61,0,0,0,0,.58A1.73,1.73,0,0,0,97.56,69a3.23,3.23,0,0,1,.44.65,2.5,2.5,0,0,1,.28,1.23,2.08,2.08,0,0,1-.57,1.44l-.55.57a.08.08,0,0,1-.09,0,.11.11,0,0,1-.06-.07c0-.23,0-.46,0-.69a1.92,1.92,0,0,0-.09-.63.27.27,0,0,0-.11-.1.17.17,0,0,0-.19.07l0,0a3.88,3.88,0,0,1-1.16,1.29,2.77,2.77,0,0,1-1.34.6,4.1,4.1,0,0,1-1.21.09.81.81,0,0,1-.72-.45.68.68,0,0,1,.22-.89l.29-.14a2.28,2.28,0,0,0,1.22-1.52,3.54,3.54,0,0,1,.57-1.13,3.42,3.42,0,0,0,.66-2c0-1,0-1.94-.08-2.91-.06-.62,0-1.24,0-1.86a16.51,16.51,0,0,0-.16-2.11,1.52,1.52,0,0,0,0-.21c0-.53,0-.54.49-.52l1.27.06Z"/><path class="cls-67" d="M111.76,36.65a2.17,2.17,0,0,0,0,.26.54.54,0,0,1-.17.43c-.25.25-.49.51-.76.74a19.56,19.56,0,0,1-4.89,3c-.06,0-.13,0-.15.11s-.06.16,0,.25a4.78,4.78,0,0,1,0,1,1.84,1.84,0,0,1-.26.85c-.2.34-.37.38-.75.26a1,1,0,0,1-.66-.76.33.33,0,0,1-.07-.13s0-.1,0-.15a.39.39,0,0,1,0,.15.35.35,0,0,1-.08.13c-.28.09-.43-.13-.6-.26a.56.56,0,0,1-.25-.5,1.68,1.68,0,0,1,.24-.68c.06-.1.14-.2.21-.3s0-.08,0-.1-.09,0-.13,0a1.5,1.5,0,0,0-.46.51c-.08.13-.12.12-.3,0a.47.47,0,0,1-.09-.06.4.4,0,0,1-.18-.47c0-.28.28-.34.43-.51a1.07,1.07,0,0,1,.16-.14.61.61,0,0,0,.12,0,.44.44,0,0,0-.15,0l-.15.14c-.16.12-.29.33-.54.22a1,1,0,0,1,.86-1.16,3.9,3.9,0,0,1,1.63-.12.4.4,0,0,0,.3-.07l.31-.21,3.4-2.25c.14-.1.32-.16.38-.38a2,2,0,0,1-.6-.56l-1.84-2.19c-.24-.29-.47-.58-.71-.86a1.32,1.32,0,0,1,.8-2.14,1.6,1.6,0,0,1,1.78.73c.49.75.93,1.54,1.42,2.28s1,1.52,1.46,2.28C111.52,36.22,111.64,36.44,111.76,36.65Z"/><path class="cls-2" d="M93.37,70.8l-1.17,0a.81.81,0,0,1-.41,0,2,2,0,0,0-.9,0H90.3a3.94,3.94,0,0,0-.77,0l-.84,0a.61.61,0,0,1-.42,0h-.41a.22.22,0,0,1-.22-.12h0a.05.05,0,0,0,0-.07s0,0,0,0h0c-.07-.09-.16,0-.23,0l-.19,0a.17.17,0,0,1-.21,0l-.85-.23c-.06-.06-.16,0-.21-.11h0a3.42,3.42,0,0,1-.83-1c-.08-.16-.15-.32-.23-.47l0-.2c-.07-.73,0-1.47,0-2.21a1.63,1.63,0,0,0,0-.58,0,0,0,0,0,0-.07,2.88,2.88,0,0,1,0-1.17c0-.35,0-.7,0-1.06,0-1.29,0-2.58,0-3.87a1.21,1.21,0,0,0,0-.42l0-1.66a1.57,1.57,0,0,0,0-.53c-.09-1,0-2.11,0-3.17a3,3,0,0,0,0-.79,4,4,0,0,0,0-.92c0-.68,0-1.37,0-2s0-1.47,0-2.2,0-1.5,0-2.25c0-.38,0-.76-.06-1.15l0-1.35c.25-.12.53-.11.77-.23a.35.35,0,0,1,.35.15,1.91,1.91,0,0,1,0,.63c0,1.89.07,3.78,0,5.67a1.87,1.87,0,0,0,0,.53c0,.47,0,.94,0,1.41.09,1.12,0,2.24,0,3.36a2.93,2.93,0,0,0,0,.78c0,1.44,0,2.87.05,4.31a3.12,3.12,0,0,0,0,.68c0,1.25,0,2.51,0,3.76s0,2.32.16,3.47a5.05,5.05,0,0,0,.27.86,1.17,1.17,0,0,0,0,.11.87.87,0,0,0,.07.17l0,.09.07.08,0,0,.08.07,0,0,.09.06,0,0,.1,0,.21.12.19,0a2,2,0,0,0,.92,0c1.09-.1,2.18-.09,3.27-.2.32,0,.64,0,1,0a9.65,9.65,0,0,1,1.2.06c.09,0,.18,0,.14.15a2,2,0,0,0-.36.8A1.15,1.15,0,0,1,93.37,70.8Z"/><path class="cls-69" d="M98.26,31.79c.12,0,.2,0,.29.1a1.23,1.23,0,0,0,1,.11,3.58,3.58,0,0,0,1.23-.7l.31-.28a.27.27,0,0,0,.13-.13l.75-1.06c.13,0,.1.12.11.18a8.73,8.73,0,0,0,.09,1.53.32.32,0,0,1-.19.39,2.44,2.44,0,0,0-.57.54,5.4,5.4,0,0,1-.74.69,2.15,2.15,0,0,0-.81,1.6,5.49,5.49,0,0,0,.16,1.89,1.18,1.18,0,0,0,.92.84.37.37,0,0,0,.41-.17,1.29,1.29,0,0,0,.22-.69,3.81,3.81,0,0,0,.37.27.49.49,0,0,0,.64,0c.11-.12.2-.08.31,0a.47.47,0,0,0,.5.09c.26-.12.56-.1.76-.3.13.08,0,.14,0,.19-.6.74-1.21,1.47-1.8,2.22a.74.74,0,0,1-.81.34l-.68-.09L97.93,39l-.42-.08a.27.27,0,0,1-.22-.2c-.09-.35-.2-.71-.3-1.07-.22-.81-.44-1.63-.67-2.45a3.25,3.25,0,0,0-.3-.84c-.06-.21.09-.33.2-.46A18.13,18.13,0,0,1,98.26,31.79Z"/><path class="cls-67" d="M83.42,42.79l-.14-.2L83,42.14a4.7,4.7,0,0,1-.12-.51,2.13,2.13,0,0,1,.41-1.69l.11-.13.32-.2.53-.18c.21,0,.41,0,.61,0a.31.31,0,0,0,.23-.06c.11-.15.11-.38.36-.4a0,0,0,0,0,.06,0,.08.08,0,0,1,.12,0h.19a.5.5,0,0,1,.23.2h0c.09.09,0,.23.11.32h0c.09.09,0,.23.09.33h0c.12.07,0,.23.12.3h0c.07.15.2,0,.29.05a.23.23,0,0,0,.18.09h.32l2.62-.3a1.42,1.42,0,0,0,.35-.11.34.34,0,0,0,.25-.25A8.28,8.28,0,0,1,91,38.38a1.26,1.26,0,0,0,.31-.66l.42-.27c.13,0,.08.11.1.17s.15.23.3.21a.67.67,0,0,0,.34-.13c.13-.09.23-.14.34,0a.24.24,0,0,0,.33,0,4.09,4.09,0,0,0,.46-.25c.11-.07.2,0,.19.13a.82.82,0,0,1-.06.25,2.89,2.89,0,0,1-.55.88,7.56,7.56,0,0,0-.66,1.26c-.24.39-.51.76-.72,1.16a1.27,1.27,0,0,1-1,.69,14.4,14.4,0,0,1-3.47.09,1,1,0,0,0-1,.49c-.13.12-.31.21-.35,0s-.25-.53-.25-.83-.14-.38-.25-.55.18-.4.27-.58c-.36.34-.45.34-.65-.1-.08-.17-.11-.16-.25-.09a1.64,1.64,0,0,1-.71.09,1.18,1.18,0,0,0,.59,0,.53.53,0,0,1,.56.46c.07.28-.21.31-.42.35a1.81,1.81,0,0,1-.77.08,1.82,1.82,0,0,0-.3-.11c-.07,0,0,0,0,0a.29.29,0,0,0,.1,0c.52.27,1,0,1.51-.08a.48.48,0,0,1,.35.61c-.09.34-.41.35-.67.4s-.4.07-.6.13-.26,0-.37,0a8.68,8.68,0,0,0,1.24-.21c.2-.05.43-.15.56.11s0,.47-.19.65a1.74,1.74,0,0,1-.47.24.31.31,0,0,1-.23,0,6.62,6.62,0,0,1-1.17-.11Z"/><path class="cls-67" d="M101.75,26.7a7.26,7.26,0,0,0,.17,1.68,1.71,1.71,0,0,1-.21,1.36,4.88,4.88,0,0,1-1.71,1.7,1.45,1.45,0,0,1-1,.24c-.32,0-.43-.13-.46-.46,0-.52,0-1-.12-1.58-.25-.74-.16-.94.49-1.22a4.79,4.79,0,0,0,2.41-2,.33.33,0,0,1,.24-.2C101.8,26.35,101.65,26.57,101.75,26.7Z"/><path class="cls-71" d="M105.38,70.3a6.63,6.63,0,0,0-1.18,0c-.33.08-.66,0-1,.06l-1.57,0c-.36.08-.73,0-1.08.06a13.39,13.39,0,0,0-1.79.06s-.07,0-.07-.07a5.35,5.35,0,0,0-.35-1.2c.15-.13.34-.05.47-.14s.49-.08.73-.12a14.17,14.17,0,0,0,1.72-.1c1.11,0,2.22-.07,3.33-.16a.79.79,0,0,1,.65.15h.8c.36,0,.36,0,.32.34l0,.21c0,.23,0,.49-.11.67s-.43.07-.64.16A.14.14,0,0,1,105.38,70.3Z"/><path class="cls-72" d="M102.63,39.29c.09-.11.13-.19.18-.25.52-.62,1-1.24,1.55-1.88.19-.24.46-.24.68-.37,0,0,.1,0,.14,0a.25.25,0,0,0,.33,0,.2.2,0,0,1,.28-.06.37.37,0,0,0,.4,0c.27-.24.58-.15.88-.1s.42,0,.48-.26.06-.45.09-.68c0,0,0-.11.07-.11s.1,0,.13.06c.23.27.45.54.67.82.09.11.08.16-.05.25l-1.14.78c-.72.48-1.43,1-2.14,1.46a.64.64,0,0,1-.54.11,2.41,2.41,0,0,0-1.3.08A6.32,6.32,0,0,1,102.63,39.29Z"/><path class="cls-73" d="M101.75,26.7l-.13-.4c-.15.22-.28.43-.43.62a4.87,4.87,0,0,1-2.28,1.64c-.53.2-.45.09-.43.66,0,.14,0,.28,0,.42s-.1.25-.1.39v1.31c0,.12,0,.25-.14.31a23.25,23.25,0,0,0,0-2.64c0-.2,0-.24-.27-.21a4.59,4.59,0,0,1-1.48,0,3.54,3.54,0,0,1-2.24-1.17.57.57,0,0,0-.34-.23l0-.06a.14.14,0,0,1,.1-.08c.08,0,.18,0,.25,0h0a.47.47,0,0,1,.1.1l.16.13a4.51,4.51,0,0,0,6.72-1.12c.09-.16.13-.37.39-.38.09,0,.06-.12.06-.18,0-.42,0-.85,0-1.27a1.14,1.14,0,0,1,.08-.52Z"/><path class="cls-74" d="M100.3,49.72a1.17,1.17,0,0,0,.13.45q1.18,3.28,2.36,6.55a.71.71,0,0,1,0,.21c-.13.07-.09.2-.11.32a1,1,0,0,1-.17-.39c-.71-2-1.43-4-2.14-6a5.15,5.15,0,0,1-.24-.76.53.53,0,0,0-.43-.45A.8.8,0,0,1,100.3,49.72Z"/><path class="cls-75" d="M93.68,48.91c0,.1,0,.21,0,.32a.17.17,0,0,1-.22.16,2.45,2.45,0,0,1-1-.43,3.35,3.35,0,0,1-.61-.58.13.13,0,0,1,.09-.23,4.18,4.18,0,0,1,1,0,.75.75,0,0,0,.16,0c.6,0,.54.16.54.67v0Z"/><path class="cls-76" d="M105.26,68.92l-4,.13a4.52,4.52,0,0,1-1,0,.1.1,0,0,1,0-.15h0c.49-.13,1,0,1.49-.09l4.36-.25a2.84,2.84,0,0,1,.31.06s0,0,0,.08a.12.12,0,0,1-.05.07l-.26,0h-.51A.35.35,0,0,0,105.26,68.92Z"/><path class="cls-77" d="M98.26,31.79a5.81,5.81,0,0,1-.64.77c-.49.51-1,1-1.45,1.54-.06.07-.1.15-.15.22s-.06.36-.1.54c-.16-.19-.07-.45-.18-.65s0-.14.05-.19l.07-.08,2.25-2.22a.74.74,0,0,1,.13-.08Z"/><path class="cls-78" d="M92.42,39.94a5.39,5.39,0,0,1,1.26-2l.11.11a1.15,1.15,0,0,1-.24.4,7.37,7.37,0,0,0-.86,1.46.5.5,0,0,1-.17.26C92.44,40.11,92.48,40,92.42,39.94Z"/><path class="cls-79" d="M102.08,25.28a.36.36,0,0,1,.11.29v.94a2.46,2.46,0,0,0,.09.93,1.06,1.06,0,0,1,0,.31,2.62,2.62,0,0,0,.07.73,2.15,2.15,0,0,1,0,.57c0-.05-.08-.09-.08-.13a9.79,9.79,0,0,1-.17-1.21A15.18,15.18,0,0,1,102.08,25.28Z"/><path class="cls-80" d="M100.17,68.92a.38.38,0,0,1,0,.1c-.19.15-.43,0-.63.1l-.7,0-.35,0a.43.43,0,0,1-.34-.18Z"/><path class="cls-81" d="M102.34,29.22a9,9,0,0,1,.36,1.53c0,.17-.15.16-.27.18Z"/><path class="cls-82" d="M92.51,69.45l-.9,0c-.09,0-.21.08-.24,0s.09-.11.16-.12a3.69,3.69,0,0,0,.88,0l.63,0c.12,0,.24-.07.33,0a.25.25,0,0,1,0,.07C93.09,69.5,92.78,69.32,92.51,69.45Z"/><path class="cls-83" d="M92.51,69.45a.42.42,0,0,1,.28-.1h.56a3.19,3.19,0,0,1,.54,0c.12,0,.08.12,0,.18,0-.13-.16-.12-.27-.12A10.28,10.28,0,0,1,92.51,69.45Z"/><path class="cls-84" d="M102.2,40.66a1.86,1.86,0,0,0,.53-.3c.09,0,.12,0,.09.1s-.31.26-.43.44-.06,0-.1,0Z"/><path class="cls-85" d="M103.89,42.81a.84.84,0,0,1,.06-.47c0-.08.15-.17.18-.14s0,.13,0,.19,0,.28,0,.42Z"/><path class="cls-83" d="M93.37,69.27l-.33,0a4.26,4.26,0,0,1,1.07-.08c-.06.1-.17.1-.27.11Z"/><path class="cls-86" d="M102.29,40.89h.1a1.87,1.87,0,0,0,.12.52h-.14a.74.74,0,0,1-.17-.53Z"/><path class="cls-87" d="M102,20.3a.61.61,0,0,1,.19.73Z"/><path class="cls-88" d="M91.86,47.67a.34.34,0,0,0,.25.14.56.56,0,0,1-.17.09c-.06,0-.17,0-.18,0S91.8,47.72,91.86,47.67Z"/><path class="cls-89" d="M95,37.19a.22.22,0,0,1,.22.11.31.31,0,0,1-.08.11c-.1.06-.15,0-.16-.08S95,37.23,95,37.19Z"/><path class="cls-44" d="M105.38,70.3a.28.28,0,0,1,.22,0v.11A.2.2,0,0,1,105.38,70.3Z"/><path class="cls-90" d="M107.17,36.23l.12-.11a.17.17,0,0,1,0,.1s0,.07,0,.08S107.18,36.28,107.17,36.23Z"/><path class="cls-91" d="M95.3,15.94c0,.07-.09.08-.12,0l.1-.1A.18.18,0,0,1,95.3,15.94Z"/><path class="cls-92" d="M101.23,30.89a.15.15,0,0,1-.13.13A.19.19,0,0,1,101.23,30.89Z"/><path class="cls-93" d="M92.22,37.28l.09.09s-.09,0-.11,0S92.21,37.3,92.22,37.28Z"/><path class="cls-1" d="M109.83,68.7a.42.42,0,0,1,.34-.09h1.1A4.64,4.64,0,0,1,109.83,68.7Z"/><path class="cls-11" d="M114.61,70a.22.22,0,0,1-.24.08A.27.27,0,0,1,114.61,70Z"/><path class="cls-11" d="M114.93,69.88a.18.18,0,0,1-.21.1A.25.25,0,0,1,114.93,69.88Z"/><path class="cls-35" d="M113.45,68.37a.14.14,0,0,1,.13-.07A.11.11,0,0,1,113.45,68.37Z"/><path class="cls-35" d="M113.66,68.26l.1-.07A.08.08,0,0,1,113.66,68.26Z"/><path class="cls-35" d="M113.78,68.18a.11.11,0,0,1,.1-.1A.11.11,0,0,1,113.78,68.18Z"/><path class="cls-47" d="M114.21,67.69a.16.16,0,0,1,.08-.15A.18.18,0,0,1,114.21,67.69Z"/><path class="cls-2" d="M83.25,32l.13.1.2.46c0,.32,0,.64,0,1a.6.6,0,0,0,.06.19,1.2,1.2,0,0,0,.75,0,2.19,2.19,0,0,0,0-.36,11.63,11.63,0,0,1,0-1.32h0a.57.57,0,0,1,.11-.11h0a.73.73,0,0,1,.63,0,1,1,0,0,1,.11.51,1.7,1.7,0,0,0,.09.67c0,.18,0,.36,0,.53s.07.24.26.27a.54.54,0,0,0,.41,0,.76.76,0,0,1,.18-.09c.32-.06.63-.07.68.42,0,.11,0,.22,0,.32a.17.17,0,0,1-.14.19l-.11,0c-.4.06-.44.2-.44.59s0,.53,0,.79a.93.93,0,0,1-.73,1.08.54.54,0,0,0-.13.07,4.84,4.84,0,0,0-.06,1.2,1.34,1.34,0,0,1-.28.88c-.83,0-.69,0-.72-.66,0-.29,0-.57,0-.85s0-.29-.1-.4a1.76,1.76,0,0,0-.72-.08,1.87,1.87,0,0,1-.57-.08.84.84,0,0,1-.63-.82c0-.23,0-.46,0-.69a2,2,0,0,0,0-.42.34.34,0,0,0-.36-.32,1.27,1.27,0,0,1-.26,0c-.26,0-.42-.16-.41-.44a2.07,2.07,0,0,0,0-.22.37.37,0,0,1,.38-.08l.35.11A1.11,1.11,0,0,0,82.7,34s0-.09,0-.13a1.35,1.35,0,0,0,0-.53,2.79,2.79,0,0,1,.1-1.18s0-.07,0-.09L83,32Z"/><path class="cls-48" d="M85.07,39.28a.4.4,0,0,1,.1-.35.7.7,0,0,0,.14-.59c0-.3,0-.6,0-.9a.25.25,0,0,1,.09-.24c0,.58,0,1.15,0,1.72,0,0,0,0,.06.08l-.2.29c0,.06-.07.12-.16.11Z"/><path class="cls-48" d="M86,39.19l-.23-.2C86,39,86,39,86,39.19Z"/><path class="cls-48" d="M86.15,39.52A.36.36,0,0,1,86,39.2C86.17,39.27,86.16,39.39,86.15,39.52Z"/><path class="cls-48" d="M86.24,39.85a.36.36,0,0,1-.09-.33C86.28,39.6,86.27,39.72,86.24,39.85Z"/><path class="cls-48" d="M86.36,40.14c-.14-.06-.13-.18-.12-.3C86.38,39.9,86.37,40,86.36,40.14Z"/><path class="cls-48" d="M85.62,39H85.5C85.54,38.91,85.58,38.91,85.62,39Z"/><path class="cls-19" d="M116,61.39l-.08.09Z"/><path class="cls-32" d="M108.23,21.6a.7.7,0,0,1-.08-.45C108.29,21.28,108.24,21.44,108.23,21.6Z"/><path class="cls-63" d="M108.12,20.88a.54.54,0,0,1-.08-.37C108.17,20.61,108.14,20.75,108.12,20.88Z"/><path class="cls-33" d="M84.78,65.92a.56.56,0,0,1,.06.31c0,.83,0,1.66,0,2.48a.34.34,0,0,1-.09-.28c0-.22,0-.44,0-.66,0-.43,0-.85,0-1.27C84.76,66.31,84.77,66.12,84.78,65.92Z"/><path class="cls-94" d="M84.76,64.68a7.62,7.62,0,0,1,0,1.17s-.09-.08-.09-.12c0-.31,0-.62,0-.92C84.68,64.76,84.73,64.72,84.76,64.68Z"/><path class="cls-44" d="M100.57,70.5a3.26,3.26,0,0,1,1.08-.06.35.35,0,0,1-.24.08Z"/><path class="cls-45" d="M103.22,70.39a3.22,3.22,0,0,1,1-.06c-.08.09-.19.08-.3.08Z"/><path class="cls-95" d="M85.22,43.13c-.24.15-.51.08-.76.13v-.12h.43c.06-.07.14-.05.21-.05A.14.14,0,0,1,85.22,43.13Z"/><path class="cls-96" d="M83.21,39.86s0,0,.05,0h0Z"/><path class="cls-31" d="M84.57,53.18a.84.84,0,0,1,.05.2c0,1.22,0,2.44,0,3.66,0,0,0,.07,0,.1h-.1V53.76C84.55,53.57,84.56,53.37,84.57,53.18Z"/><path class="cls-30" d="M85.94,70.4a.25.25,0,0,1,.21.11A.18.18,0,0,1,85.94,70.4Z"/><path class="cls-37" d="M87.4,70.71c.08-.07.16-.1.23,0Z"/><path class="cls-37" d="M87,70.74h.21Q87.11,70.89,87,70.74Z"/><path class="cls-37" d="M87.63,70.74c.08,0,.08.06,0,.1A.31.31,0,0,1,87.63,70.74Z"/><path class="cls-97" d="M84.4,33.67a.66.66,0,0,1-.75,0l.16,0h.59Z"/><path class="cls-98" d="M91.77,70.82l.43,0v.05l-.52,0H90.3l0-.07.66-.06A2.16,2.16,0,0,1,91.77,70.82Z"/><path class="cls-42" d="M90.27,70.88s0,0,0,.07a3.94,3.94,0,0,1-.77,0A1.84,1.84,0,0,1,90.27,70.88Z"/><path class="cls-99" d="M88.27,71a1.19,1.19,0,0,1,.42,0c-.12.13-.28.08-.43.08A.19.19,0,0,0,88.27,71Z"/><path class="cls-100" d="M82.77,32.09a.1.1,0,0,1,0,.09s-.06,0,0-.09Z"/><path class="cls-28" d="M85.19,31.88a2.66,2.66,0,0,0-.63,0,.22.22,0,0,1,.2-.12l.46,0v.06Z"/><path class="cls-101" d="M85.22,31.84a.06.06,0,0,1,0-.06h0v0Z"/><path class="cls-28" d="M84.56,31.88a.14.14,0,0,1-.11.11A.12.12,0,0,1,84.56,31.88Z"/><path class="cls-102" d="M85.09,43.11l-.21,0v-.08l.22,0s0,.05,0,.07Z"/><path class="cls-103" d="M83.26,42.65l0,0v0Z"/><path class="cls-104" d="M92.42,39.94a.25.25,0,0,1,.1.21,14,14,0,0,1-.89,1.49,1,1,0,0,1-.79.48c-.44,0-.87.12-1.31.15a14.94,14.94,0,0,1-2.22,0,.9.9,0,0,0-.9.31s-.09,0-.14.07-.17,0-.14-.15a.73.73,0,0,1,.85-.61,7.63,7.63,0,0,1,1,0,9,9,0,0,0,2.26-.07,2.42,2.42,0,0,1,.47,0,1,1,0,0,0,.91-.52C91.84,40.83,92.13,40.38,92.42,39.94Z"/><path class="cls-105" d="M85.85,64.37l0-1.1,0-2.21a1.26,1.26,0,0,1,0-.47c-.09-1.32,0-2.64,0-4a.13.13,0,0,1,.14-.13L86,58.62c0,2.59.1,5.17.16,7.76a5.61,5.61,0,0,0,0,1.16c0,.09.07.19-.08.24-.18-.13-.09-.32-.1-.49C85.93,66.32,85.88,65.34,85.85,64.37Z"/><path class="cls-106" d="M85.92,56.5c-.13.13-.09.3-.09.45v2.91c0,.24,0,.49,0,.73a1,1,0,0,1,0-.25c0-1.58,0-3.16-.06-4.75-.08-1.2,0-2.41,0-3.61a1.22,1.22,0,0,0,0-.57,12,12,0,0,1,0-1.34c-.08-1.66,0-3.31,0-5,0-.09,0-.17.14-.17a14.25,14.25,0,0,1,0,2c.1.91,0,1.82,0,2.73a1.44,1.44,0,0,0,0,.62,8.55,8.55,0,0,1,0,1.34c.09,1.4,0,2.8,0,4.19a1.91,1.91,0,0,0,0,.63Z"/><path class="cls-107" d="M86.13,42.46l.14.15c-.11.24-.34.28-.56.32v1.68c-.24,0-.13-.24-.14-.37a5.14,5.14,0,0,0-.07-1.11h-.28l-.13,0a.33.33,0,0,1,0-.1,1.85,1.85,0,0,0,.51-.37.4.4,0,0,0,.08-.44c0-.06-.08-.13-.16-.1a4,4,0,0,1-1,.25,2.53,2.53,0,0,1-1,0c-.06,0,0-.07,0-.11.22-.09.46,0,.68-.08s.57-.14.85-.19a.61.61,0,0,0,.44-.24c.07-.06,0-.26.18-.21s0,.28.11.39a.56.56,0,0,1,.14.48C86,42.57,86.07,42.47,86.13,42.46Z"/><path class="cls-108" d="M85.5,43.13c.12.08.11.2.12.32v.88a.33.33,0,0,0,.09.28.58.58,0,0,1,0,.32c-.15.15-.09.33-.09.5v3.74c0,.3,0,.6,0,.9a1.32,1.32,0,0,1,0-.26l-.06-6.58S85.5,43.16,85.5,43.13Z"/><path class="cls-109" d="M91.56,69.35l-.11.05.16.07-.25.06-3.19.13a.11.11,0,0,1,0-.13c.14,0,.3,0,.41-.1a1.31,1.31,0,0,1,.34,0c.11,0,.21.07.32,0l.13,0c.21,0,.42.06.61-.05a13.75,13.75,0,0,1,1.57-.07s.06,0,0,0S91.58,69.35,91.56,69.35Z"/><path class="cls-110" d="M85.92,56.4a.32.32,0,0,1-.09-.24V51.68s0-.07,0-.1a6.15,6.15,0,0,1,.07,1.21c0,1.08,0,2.16,0,3.24C85.94,56.15,85.93,56.27,85.92,56.4Z"/><path class="cls-111" d="M85.82,50.24c-.12-.11-.1-.25-.1-.39,0-1,0-2,0-3a1.23,1.23,0,0,1,.06.57C85.81,48.38,85.81,49.31,85.82,50.24Z"/><path class="cls-112" d="M86.35,68.82c-.22-.24-.2-.57-.31-.85a.18.18,0,0,1,.11-.14s.08,0,.09,0a2.25,2.25,0,0,0,.23.72A.25.25,0,0,1,86.35,68.82Z"/><path class="cls-82" d="M88.58,69.48c-.12.13-.28.06-.41.08a.61.61,0,0,1-.61,0,.12.12,0,0,1,0-.16h.94C88.52,69.4,88.55,69.42,88.58,69.48Z"/><path class="cls-113" d="M91.56,69.35a.17.17,0,0,0,0-.07,3.55,3.55,0,0,1,.86,0,.32.32,0,0,1-.23.09Z"/><path class="cls-114" d="M90,69.35a.33.33,0,0,1-.28.1h-.47l0,0,0,0A3.23,3.23,0,0,1,90,69.35Z"/><path class="cls-115" d="M89.22,69.38a.19.19,0,0,1,0,.08h0a.14.14,0,0,1-.2,0l-.44,0-.12,0A1.77,1.77,0,0,1,89.22,69.38Z"/><path class="cls-116" d="M87.52,69.44v.12a.25.25,0,0,1-.34-.16l0-.06A.45.45,0,0,1,87.52,69.44Z"/><path class="cls-2" d="M86.24,67.88l-.08,0a.05.05,0,0,1,0,0s0,0,0,0l0-.22A.33.33,0,0,1,86.24,67.88Z"/><path class="cls-116" d="M86.35,68.82c0-.08,0-.17.12-.22h0l.08.1a.08.08,0,0,1,0,.09l0,0a.2.2,0,0,1-.11,0,.17.17,0,0,1-.1-.06Z"/><path class="cls-116" d="M87,69.22a.25.25,0,0,1,.2.12l0,0a.14.14,0,0,1-.22,0A.09.09,0,0,1,87,69.22Z"/><path class="cls-116" d="M86.9,69.13a.13.13,0,0,1,.12.09l0,0a.11.11,0,0,1-.12-.06Z"/><path class="cls-116" d="M86.79,69a.14.14,0,0,1,.11.11l0,0s-.09,0-.11-.06Z"/><path class="cls-116" d="M86.69,68.91a.14.14,0,0,1,.1.11v0a.1.1,0,0,1-.12-.06Z"/><path class="cls-116" d="M86.59,68.8a.13.13,0,0,1,.1.11l0,0c-.08,0-.12,0-.11-.1Z"/><path class="cls-112" d="M86.55,68.71a.09.09,0,0,1-.08-.1A.09.09,0,0,1,86.55,68.71Z"/><path class="cls-117" d="M93.28,24a6.35,6.35,0,0,1,0,1.57,1.24,1.24,0,0,0,.17.8c.17.27.31.55.47.83,0,0,0,0,0,.06s0,0,0,0h0a.13.13,0,0,1-.12.05,1.92,1.92,0,0,1-.8-1.92A4.12,4.12,0,0,0,93,24.38a.57.57,0,0,0-.23-.45c-.25-.19-.51-.37-.77-.55a.22.22,0,0,1-.15-.16A4.19,4.19,0,0,1,91.08,21a4.9,4.9,0,0,1,.09-1.21,6.44,6.44,0,0,1,.94-2.34,3.82,3.82,0,0,1,1.48-1.34A1.78,1.78,0,0,1,95.07,16c0,.06,0,.15-.08.17a1.09,1.09,0,0,1-.26,0A2.79,2.79,0,0,0,93,16.9a4.89,4.89,0,0,0-1.56,3A5,5,0,0,0,91.57,22a2.62,2.62,0,0,0,.33.72c.07.11.15.13.26,0a.54.54,0,0,1,.13-.07.23.23,0,0,1,.16.14c0,.28.12.41.32.55S93.28,23.66,93.28,24Z"/><path class="cls-118" d="M93.78,27.35l.12-.05v.1A.09.09,0,0,1,93.78,27.35Z"/><path class="cls-119" d="M91.89,23.22a.29.29,0,0,1,.15.16A.19.19,0,0,1,91.89,23.22Z"/><path class="cls-120" d="M101.66,68.83a.32.32,0,0,1-.24.09h-1.25A5.32,5.32,0,0,1,101.66,68.83Z"/><path class="cls-121" d="M101.14,22.67l0,.16c0,.25-.16.38-.3.53a2.4,2.4,0,0,1-1.95.47l-.26-.14a.44.44,0,0,1-.11-.09,1.87,1.87,0,0,1-.76-.23.44.44,0,0,1-.54-.29.54.54,0,0,1,.14-.59A1.71,1.71,0,0,1,98,22a.32.32,0,0,1,.48.17.8.8,0,0,0,.91.54.83.83,0,0,0,.73-.79c0-.13.06-.29.23-.31a.36.36,0,0,1,.35.19A1.7,1.7,0,0,1,101.14,22.67Z"/><path class="cls-122" d="M101.14,22.67c-.17-.25-.34-.49-.5-.74s-.08-.14-.36-.21a1,1,0,0,1-.91,1.19c-.5.06-.87-.23-1.06-.85a1.93,1.93,0,0,0-.93.55c-.21.23-.19.39,0,.58a2.43,2.43,0,0,0,.32.18c0,.08,0,.16-.09.16a.85.85,0,0,1-.53-.2.56.56,0,0,1-.17-.62,1.06,1.06,0,0,1,.37-.51,3.71,3.71,0,0,1,2.46-.81l.68.08a.81.81,0,0,1,.71.55c0,.15.12.29.16.45S101.25,22.65,101.14,22.67Z"/><path class="cls-123" d="M93.28,24a2.37,2.37,0,0,0-.55-.5l-.42-.31c-.13-.1-.12-.12.06-.26a.27.27,0,0,0,.07-.08c.19-.33.54-.37.86-.44a.47.47,0,0,1,.64.43c0,.28.17.51.48.56s.44-.11.57-.35c.23-.41.49-.42.77,0a.62.62,0,0,1,.07.77c-.15.07-.16.27-.33.31a2.21,2.21,0,0,1-1.27.36c-.16,0-.4.05-.43-.24A1.21,1.21,0,0,0,93.28,24Z"/><path class="cls-124" d="M95.83,23.8a1,1,0,0,0-.61-1c-.11.13-.06.28-.1.41a.63.63,0,0,1-1,.33.79.79,0,0,1-.36-.56,2.75,2.75,0,0,1,0-.41,1.64,1.64,0,0,0-.83.14l-.49.19-.15-.15.15-.15a3.18,3.18,0,0,1,2.61-.2,1.7,1.7,0,0,1,.81.57,1.33,1.33,0,0,1,.25,1.14.44.44,0,0,1-.1.19s-.09,0-.14,0-.05-.05-.05-.08A3,3,0,0,1,95.83,23.8Z"/><path class="cls-125" d="M96.4,21.61c-.13,0-.17-.1-.16-.17a.34.34,0,0,1,.11-.23,4.26,4.26,0,0,1,1.27-.92.3.3,0,0,1,.26,0,.22.22,0,0,1,.1.31.44.44,0,0,1-.19.17,12.42,12.42,0,0,0-1.15.73A.55.55,0,0,1,96.4,21.61Z"/><path class="cls-126" d="M96,26.7a.36.36,0,0,1-.14,0c-.32-.11-.64-.21-.94-.34a.44.44,0,0,1-.28-.47c0-.14.05-.25.19-.29A2.73,2.73,0,0,0,96,24.85a.18.18,0,0,1,.1,0s.05,0,.06.07a.25.25,0,0,1-.1.23,2.18,2.18,0,0,1-1,.71.22.22,0,0,0-.11.1.13.13,0,0,0,.09.17l.84.31a1,1,0,0,1,.24.11s0,0,0,.09S96.05,26.68,96,26.7Z"/><path class="cls-127" d="M98.5,23.6h0c.08,0,.18,0,.26.08a2.1,2.1,0,0,0,1.57-.19c.15-.07.28-.16.41-.23s.15,0,.14.12A2.28,2.28,0,0,1,99.1,24a1.17,1.17,0,0,1-.55-.16C98.44,23.8,98.44,23.71,98.5,23.6Z"/><path class="cls-128" d="M94.12,21.55a.21.21,0,0,1-.19.22.36.36,0,0,1-.15,0l-1-.46a.15.15,0,0,1-.09-.21.15.15,0,0,1,.17-.1,3.84,3.84,0,0,1,1.1.36A.2.2,0,0,1,94.12,21.55Z"/><path class="cls-129" d="M93.8,24.23a1.18,1.18,0,0,0,1.35-.14.23.23,0,0,1,.35,0,1.44,1.44,0,0,1-1.61.48.32.32,0,0,1-.19-.17C93.66,24.32,93.69,24.26,93.8,24.23Z"/><path class="cls-130" d="M96.35,27.62a.7.7,0,0,1-.19,0,.15.15,0,0,1-.08-.12c0-.05,0-.09.08-.13a.19.19,0,0,1,.1,0,2.92,2.92,0,0,0,1-.27.45.45,0,0,1,.2,0,.16.16,0,0,1,.17.1.16.16,0,0,1-.08.18A2.44,2.44,0,0,1,96.35,27.62Z"/><path class="cls-131" d="M100.92,23.38l-.14-.12.34-.43c.18.08.21.13.13.23A.78.78,0,0,1,100.92,23.38Z"/><path class="cls-118" d="M93.9,27.31a.17.17,0,0,1,0-.1c.1,0,.24,0,.31.1Z"/><path class="cls-118" d="M94.32,27.42a.11.11,0,0,1-.1-.1A.12.12,0,0,1,94.32,27.42Z"/><path class="cls-132" d="M102.82,40.25c.12-.16.31-.11.47-.14,0,0,0,0,0,0a.07.07,0,0,1,0,.05.7.7,0,0,1-.37.17A.18.18,0,0,1,102.82,40.25Z"/><path class="cls-133" d="M102.82,40.25l.12.12-.12.09-.09-.1S102.77,40.28,102.82,40.25Z"/><path class="cls-134" d="M86.14,67.76a.08.08,0,0,1,0,.08L86,68a.17.17,0,0,1-.12-.16c0-1.15-.13-2.29-.07-3.44a.37.37,0,0,1,.08.29v.73a1.55,1.55,0,0,0,0,.31,7.11,7.11,0,0,1,.1,1.72A.39.39,0,0,0,86.14,67.76Z"/><path class="cls-110" d="M85.62,51.41a.29.29,0,0,1,.1.23c0,1.32,0,2.64,0,4a4,4,0,0,1-.06-1c0-1,0-1.92-.05-2.88A2.11,2.11,0,0,1,85.62,51.41Z"/><path class="cls-135" d="M86.56,68.83l.11.1.11.11.1.11.11.1a.3.3,0,0,0,.21.12l.33.19h.64v.1a.65.65,0,0,1-.54.08,2.2,2.2,0,0,1-.44-.12.2.2,0,0,1-.09-.05l-.22-.15a.12.12,0,0,1-.08-.06l0,0-.1-.09h0l-.09-.1h0L86.48,69h0a.13.13,0,0,1,0-.2Z"/><path class="cls-136" d="M91.77,70.82h-.84A1,1,0,0,1,91.77,70.82Z"/><path class="cls-112" d="M86.46,68.82V69a.19.19,0,0,1-.11-.2Z"/><path class="cls-116" d="M86.8,69.36l.08.06A.07.07,0,0,1,86.8,69.36Z"/><path class="cls-116" d="M86.68,69.25l.1.09C86.72,69.33,86.69,69.31,86.68,69.25Z"/><path class="cls-116" d="M86.58,69.14l.09.1A.09.09,0,0,1,86.58,69.14Z"/><path class="cls-112" d="M86.48,69a.13.13,0,0,1,.09.11A.1.1,0,0,1,86.48,69Z"/><path class="cls-116" d="M87.1,69.57l.09.06A.07.07,0,0,1,87.1,69.57Z"/><path class="cls-137" d="M84,41.2a3.37,3.37,0,0,0,1-.13c.18,0,.21-.15.09-.29l0,0a.33.33,0,0,0-.47-.2,1.32,1.32,0,0,1-.63.05.77.77,0,0,1-.19-.08s-.06-.07,0-.08,0-.11.09-.12a2.46,2.46,0,0,1,.26,0l.53,0a.3.3,0,0,0,.33-.28.07.07,0,0,1,.11-.06.14.14,0,0,1,.08.12c0,.14,0,.28,0,.42a.25.25,0,0,0,.18.18c.11,0,.15,0,.21-.12s.1-.3.25-.39a.08.08,0,0,1,.09,0,.1.1,0,0,1,.06.08c0,.15-.1.26-.16.38s-.26.29-.28.5-.19,0-.25.11a2.06,2.06,0,0,1-1.56.07s0-.05-.06-.07A.4.4,0,0,1,84,41.2Z"/><path class="cls-138" d="M85.2,41.21c0-.1.15-.11.25-.11a.51.51,0,0,1,.26.44l-.18.21c0-.14,0-.27-.09-.4S85.3,41.21,85.2,41.21Z"/><path class="cls-139" d="M84.24,42.18c-.21.17-.45.08-.68.08A1.22,1.22,0,0,1,84.24,42.18Z"/><path class="cls-140" d="M84,41.2h-.37c-.08-.06,0-.09,0-.09A.48.48,0,0,1,84,41.2Z"/><path class="cls-120" d="M99.53,69.12a.35.35,0,0,1,.28-.09h.35l1.09,0A8.26,8.26,0,0,1,99.53,69.12Z"/><path class="cls-82" d="M89,69.46h.2C89.16,69.55,89.09,69.56,89,69.46Z"/><path class="cls-67" d="M98.8,23.68a.29.29,0,0,1-.26-.08A.25.25,0,0,1,98.8,23.68Z"/></svg>