<svg id="Layer_1" data-name="Layer 1" xmlns="http://www.w3.org/2000/svg" viewBox="0 0 200 83.88"><defs><style>.cls-1{fill:#1a344e;}.cls-2{fill:#f43451;}.cls-3{fill:#326ae9;}.cls-4{fill:#0d1a27;}.cls-5{fill:#336be9;}.cls-6{fill:#1c3651;}.cls-7{fill:#f12e41;}.cls-8{fill:#213957;}.cls-9{fill:#13202d;}.cls-10{fill:#14202e;}.cls-11{fill:#121e2c;}.cls-12{fill:#192533;}.cls-13{fill:#172533;}.cls-14{fill:#b6caf7;}.cls-15{fill:#294362;}.cls-16{fill:#172633;}.cls-17{fill:#232c3b;}.cls-18{fill:#1f2e40;}.cls-19{fill:#152532;}.cls-20{fill:#11212e;}.cls-21{fill:#1b2837;}.cls-22{fill:#162835;}.cls-23{fill:#2f3b4b;}.cls-24{fill:#212d3e;}.cls-25{fill:#142633;}.cls-26{fill:#2c466a;}.cls-27{fill:#1e3140;}.cls-28{fill:#1f2b3a;}.cls-29{fill:#1f2937;}.cls-30{fill:#252231;}.cls-31{fill:#2b3446;}.cls-32{fill:#44486f;}.cls-33{fill:#142132;}.cls-34{fill:#372d3a;}.cls-35{fill:#3e486b;}.cls-36{fill:#3d4c5e;}.cls-37{fill:#4e5466;}.cls-38{fill:#434b70;}.cls-39{fill:#acb2b9;}.cls-40{fill:#3f486c;}.cls-41{fill:#213441;}.cls-42{fill:#495178;}.cls-43{fill:#c5fcfc;}.cls-44{fill:#162838;}.cls-45{fill:#2c2836;}.cls-46{fill:#fad3d3;}.cls-47{fill:#1e2936;}.cls-48{fill:#253a57;}.cls-49{fill:#453946;}.cls-50{fill:#f22e41;}.cls-51{fill:#fff;}.cls-52{fill:#feffff;}.cls-53{fill:#fefefe;}.cls-54{fill:#fcfdfd;}.cls-55{fill:#fdfefe;}.cls-56{fill:#fafbfc;}.cls-57{fill:#fafbfb;}.cls-58{fill:#172735;}.cls-59{fill:#f5d0d0;}.cls-60{fill:#17212e;}.cls-61{fill:#f7f9fa;}.cls-62{fill:#172635;}.cls-63{fill:#edf1f2;}.cls-64{fill:#f8fafb;}.cls-65{fill:#ec2e41;}.cls-66{fill:#e62e42;}.cls-67{fill:#f3f4f6;}.cls-68{fill:#2d2e41;}.cls-69{fill:#182937;}.cls-70{fill:#363b4f;}.cls-71{fill:#262835;}.cls-72{fill:#d7dde2;}.cls-73{fill:#f1f3f5;}.cls-74{fill:#303247;}.cls-75{fill:#272c3a;}.cls-76{fill:#363947;}.cls-77{fill:#132532;}.cls-78{fill:#35364b;}.cls-79{fill:#d1d8dc;}.cls-80{fill:#3d2330;}.cls-81{fill:#dbe3e7;}.cls-82{fill:#c4d5da;}.cls-83{fill:#303340;}.cls-84{fill:#3b3b49;}.cls-85{fill:#bbc5cc;}.cls-86{fill:#d0dadf;}.cls-87{fill:#2c3244;}.cls-88{fill:#d7afb1;}.cls-89{fill:#506175;}.cls-90{fill:#a0a8af;}.cls-91{fill:#8aa7b2;}.cls-92{fill:#b6c1c9;}.cls-93{fill:#8d9fab;}.cls-94{fill:#d2e3e6;}.cls-95{fill:#12202f;}.cls-96{fill:#8599a7;}.cls-97{fill:#989ba7;}.cls-98{fill:#9ebcc4;}.cls-99{fill:#e7b0b6;}.cls-100{fill:#304d60;}.cls-101{fill:#cce1e5;}.cls-102{fill:#2f4b5f;}.cls-103{fill:#4f6d7f;}.cls-104{fill:#98a3ad;}.cls-105{fill:#b8b8c1;}.cls-106{fill:#597d84;}.cls-107{fill:#54808d;}.cls-108{fill:#b5c9ce;}.cls-109{fill:#fefeff;}.cls-110{fill:#fdfdff;}.cls-111{fill:#fafcff;}.cls-112{fill:#eef2fd;}.cls-113{fill:#ecf2fd;}.cls-114{fill:#d8e4fb;}.cls-115{fill:#ccdafa;}.cls-116{fill:#c9d7f9;}.cls-117{fill:#93b1f3;}.cls-118{fill:#96b3f4;}.cls-119{fill:#7ea3f1;}.cls-120{fill:#7a9ff1;}.cls-121{fill:#d5e1fb;}.cls-122{fill:#cedcfa;}.cls-123{fill:#d5d1f8;}.cls-124{fill:#ccdaf9;}.cls-125{fill:#d5e1fa;}.cls-126{fill:#a7d9f9;}.cls-127{fill:#d2ddfa;}.cls-128{fill:#c4d2f8;}.cls-129{fill:#bfcbf7;}.cls-130{fill:#918aee;}.cls-131{fill:#abc0f5;}.cls-132{fill:#bdd1f8;}.cls-133{fill:#72a3f1;}.cls-134{fill:#bafaff;}.cls-135{fill:#7ea2f1;}.cls-136{fill:#a9c4f6;}.cls-137{fill:#aac1f6;}.cls-138{fill:#82a1f1;}.cls-139{fill:#adf0fd;}.cls-140{fill:#5787ed;}.cls-141{fill:#a5baf5;}.cls-142{fill:#aabbf5;}.cls-143{fill:#d8f0f3;}.cls-144{fill:#8190ee;}.cls-145{fill:#cbddfa;}.cls-146{fill:#94b6f4;}.cls-147{fill:#dee0fa;}.cls-148{fill:#c3dffa;}.cls-149{fill:#ccd7f9;}.cls-150{fill:#c1d6f9;}.cls-151{fill:#232d40;}.cls-152{fill:#253641;}.cls-153{fill:#2c2d3f;}.cls-154{fill:#23406f;}.cls-155{fill:#a2b6f4;}.cls-156{fill:#1f3955;}.cls-157{fill:#46455c;}.cls-158{fill:#656173;}.cls-159{fill:#5f8b97;}.cls-160{fill:#4c4960;}.cls-161{fill:#546073;}.cls-162{fill:#8496a0;}.cls-163{fill:#466778;}.cls-164{fill:#737685;}.cls-165{fill:#5c485f;}.cls-166{fill:#457f8d;}.cls-167{fill:#899ba3;}.cls-168{fill:#757b89;}.cls-169{fill:#8299a2;}.cls-170{fill:#415368;}.cls-171{fill:#686d7e;}.cls-172{fill:#d73048;}.cls-173{fill:#2b5fc9;}.cls-174{fill:#252d40;}.cls-175{fill:#242c3d;}.cls-176{fill:#203654;}.cls-177{fill:#1f3755;}.cls-178{fill:#1e395c;}.cls-179{fill:#252d39;}.cls-180{fill:#292c38;}.cls-181{fill:#44454f;}.cls-182{fill:#e7c5c6;}.cls-183{fill:#333641;}.cls-184{fill:#725b63;}.cls-185{fill:#72676f;}.cls-186{fill:#4f4b55;}.cls-187{fill:#5e525b;}.cls-188{fill:#d4adaf;}.cls-189{fill:#444751;}.cls-190{fill:#742b37;}.cls-191{fill:#d7888d;}.cls-192{fill:#483f4a;}.cls-193{fill:#5e434d;}.cls-194{fill:#35313f;}.cls-195{fill:#c8a0a3;}.cls-196{fill:#effea5;}.cls-197{fill:#192531;}.cls-198{fill:#19232f;}.cls-199{fill:#383c47;}.cls-200{fill:#393944;}.cls-201{fill:#463c47;}.cls-202{fill:#44434d;}.cls-203{fill:#262c38;}.cls-204{fill:#2f343f;}.cls-205{fill:#232b37;}.cls-206{fill:#494953;}.cls-207{fill:#4c4751;}.cls-208{fill:#322f3a;}.cls-209{fill:#4a4852;}.cls-210{fill:#381a27;}.cls-211{fill:#3a414b;}.cls-212{fill:#172a36;}.cls-213{fill:#5a464f;}.cls-214{fill:#35424c;}.cls-215{fill:#315c64;}.cls-216{fill:#4a1c29;}.cls-217{fill:#7d566a;}.cls-218{fill:#6d232f;}.cls-219{fill:#60344e;}.cls-220{fill:#97414c;}.cls-221{fill:#363943;}.cls-222{fill:#8c434d;}.cls-223{fill:#5f202d;}.cls-224{fill:#5b4b61;}.cls-225{fill:#373b54;}.cls-226{fill:#3b3c55;}.cls-227{fill:#3e7b81;}.cls-228{fill:#361e2b;}.cls-229{fill:#894a60;}.cls-230{fill:#78425a;}.cls-231{fill:#284e57;}.cls-232{fill:#4e4c62;}.cls-233{fill:#37444e;}.cls-234{fill:#59434e;}.cls-235{fill:#5d4d57;}.cls-236{fill:#2a2733;}.cls-237{fill:#2e3852;}.cls-238{fill:#16202d;}.cls-239{fill:#f8fafa;}.cls-240{fill:#f4f6f7;}</style></defs><path class="cls-1" d="M81.51,37.26a1.3,1.3,0,0,1-.11-.58A22.26,22.26,0,0,1,80.92,34a8.38,8.38,0,0,1,1.2-4.56,2.26,2.26,0,0,0,.22-.44.25.25,0,0,1,.06-.16h0a.52.52,0,0,1,.1-.11h0a1.14,1.14,0,0,1,.11-.11h0a1.14,1.14,0,0,1,.11-.11,2.18,2.18,0,0,1,.28-.25c.23-.16.21-.2.13-.45a2.34,2.34,0,0,1-.19-.62c0-.19.08-.38-.13-.51a4.61,4.61,0,0,1-.11-2.36c.18.15,0,.34.08.59a8.82,8.82,0,0,1,.41-2.08,1.69,1.69,0,0,1,.48-.67,10.42,10.42,0,0,1,2-1.22,2.92,2.92,0,0,1,1-.19,5.32,5.32,0,0,1,1.19.1c.5.08.95.34,1.46.39.4.24.85.39,1.24.67s.55.34.84.51l.62-.47a.21.21,0,0,1,.23.09,7.53,7.53,0,0,1,.67,2.06c1.11,4,2.14,8,3.23,12a4.11,4.11,0,0,0,.15.46c0,.09,0,.19,0,.26s-.06.22.08.28a14.92,14.92,0,0,1,.51,1.8c.22-.72.33-1.44.52-2.15.09-.16.26,0,.39-.08,0-.21-.28-.3-.25-.53a1.61,1.61,0,0,0,.14-.52q1.72-6.57,3.41-13.15c.06-.23.24-.47,0-.71a.44.44,0,0,0-.2,0,.34.34,0,0,1-.14,0,.22.22,0,0,1-.13,0l0-.06v-.06c0-.06.11-.09.13-.15h0a7.08,7.08,0,0,1,1.11-.43h0a6.05,6.05,0,0,1,1.7,0,1.31,1.31,0,0,1,.85.31.36.36,0,0,0,.45,0,1.51,1.51,0,0,1,.3-.1c.42,0,.8-.23,1.23-.18.07,0,.09,0,0,0s0-.05,0-.09a1.55,1.55,0,0,1,.8-.06,4,4,0,0,1,3.35,1.87,1.63,1.63,0,0,1,.09.19,5.89,5.89,0,0,1,.36,3.34,6.5,6.5,0,0,1-.42,1.57c0,.08-.05.18.06.23a.35.35,0,0,0,.15.26,2.9,2.9,0,0,1,1,1,3.61,3.61,0,0,0,.39.9,9.07,9.07,0,0,1,.82,3.62,7.55,7.55,0,0,1-.41,1.75,2,2,0,0,0,0,1.06,8.27,8.27,0,0,0-.23,1.71,6.25,6.25,0,0,1-.08,1.14c-.11,0,0,.3-.26.22a.49.49,0,0,1-.2-.36c-.09-.71-.66-1.13-1-1.71a3.44,3.44,0,0,1,.21-1,2.32,2.32,0,0,0-.23-1.57c-.12-.25-.29-.39-.51-.06a1.75,1.75,0,0,1-.83.58,1.57,1.57,0,0,1-1.44-.69,4.7,4.7,0,0,1-1-2.45c0-.22-.1-.45,0-.62a5.16,5.16,0,0,0,.13,1.13c.05.33.13.67.16,1a5.22,5.22,0,0,0,1,2.31c.11.18.24.18.4.05.34-.3.75-.5,1.07-.82a.35.35,0,0,1,.4,0,2.51,2.51,0,0,1,.64,2,.4.4,0,0,1-.3.09A2.28,2.28,0,0,0,107.93,40c0,.13,0,.25,0,.38s0,.45,0,.68a3.76,3.76,0,0,0,0,.58.49.49,0,0,1,0,.17c-.09.14,0,.46-.33.38a.51.51,0,0,1-.09-.26c-.06-.8.06-1.6-.07-2.4a.77.77,0,0,1-.07-.26c-.2-.38-.57-.63-.76-1a11.6,11.6,0,0,1-.74-3.86c-.08-.73.07-1.47-.08-2.21-.06-.07-.15-.14-.19,0-.63,2-1.76,3.87-2.31,5.94a.78.78,0,0,0,0,.58,20.46,20.46,0,0,1,.85,2.76,7.45,7.45,0,0,0,1.49.08.68.68,0,0,1,.29.11c.22.19.33.48.6.61l.1.09a.55.55,0,0,0,.19.18,3.73,3.73,0,0,1,.73.26.52.52,0,0,1,.11.1l0,.07a.23.23,0,0,1,0,.14.29.29,0,0,1-.12.07h-.15a1.33,1.33,0,0,0-.34,0c-.25.31,0,.54.13.78s.3.22.29.43a.22.22,0,0,1-.17.15c-.39,0-.68-.32-1.07-.36s-.55-.08-.76.16a.78.78,0,0,0-.08.82.48.48,0,0,0,.47.38h.7c.17,0,.34,0,.44.17a1.2,1.2,0,0,1-.35.78c-.13.08-.27.14-.4.21l-.14,0c-.1,0-.28-.08-.27.15a4.17,4.17,0,0,0,.08.7,2.43,2.43,0,0,1,.06.85c.17.79.34,1.58.52,2.37l.12.57a21.5,21.5,0,0,0,.65,2.51,4,4,0,0,0,.19.68c.29,1.24.69,2.46.87,3.73,0,.17,0,.37.2.49l.27.76a.7.7,0,0,1,0,.38.18.18,0,0,1-.22.11.36.36,0,0,1-.14-.11.79.79,0,0,0-.76-.42,41.38,41.38,0,0,0-5.1.38,2.25,2.25,0,0,0-.62.2.47.47,0,0,1-.37,0,.67.67,0,0,1-.11-.18,8.88,8.88,0,0,1-.41-1.51A2.15,2.15,0,0,0,101,57a13.19,13.19,0,0,0-.73-2.52A1.52,1.52,0,0,1,100,54c-.17-.51-.32-1-.49-1.55,0,0,0-.12-.07-.14-.27-.12-.24-.38-.29-.6-.09-.42-.17-.85-.24-1.27a1.22,1.22,0,0,1,0-.27c.06-.31,0-.47-.33-.23a1.26,1.26,0,0,1-.45.26c-.06,0-.12-.07-.17,0a.52.52,0,0,1-.13.06l-.34.14a1.3,1.3,0,0,1-.93,0,2.09,2.09,0,0,1-1.28-.63c-.1-.08-.21-.27-.35-.18a.29.29,0,0,0-.09.42,1.24,1.24,0,0,1-.07.54c-.05.3-.09.61-.16.91s0,.43-.26.57c-.05,0-.06.12-.09.19-.18.55-.35,1.1-.53,1.65a2.37,2.37,0,0,0-.17.84.55.55,0,0,1-.06.26A9.05,9.05,0,0,0,93,56.8c0,.08-.06.16-.09.25a3.86,3.86,0,0,0-.44,1.83.48.48,0,0,1-.12.36c-.15.17,0,.58-.44.5a4.27,4.27,0,0,0-1.5-.26c-1.62-.07-3.23-.28-4.85-.31a.33.33,0,0,1-.32-.17,2.86,2.86,0,0,1,.13-1.45,4.8,4.8,0,0,1,.29-1c.22-.13.23-.36.28-.56.47-1.76.91-3.53,1.46-5.26a.91.91,0,0,0,0-.74,2.12,2.12,0,0,1,.18-.79A6.33,6.33,0,0,0,88.11,47c0-.17,0-.33-.21-.39a1.59,1.59,0,0,1-.32-.16,1.08,1.08,0,0,1-.53-.27c-.13-.13-.17-.33-.29-.47a.39.39,0,0,0-.21-.13l-.12,0-.23-.08-.11,0-.24-.07a.41.41,0,0,1-.11-.07.32.32,0,0,1-.1-.17.2.2,0,0,1,.06-.11.34.34,0,0,1,.2,0l.12,0,.17.08.12.05.24.07.14,0a3.62,3.62,0,0,0,.57,0c.18,0,.35.08.54.08a.66.66,0,0,0,.66-.7.55.55,0,0,0-.58-.63,1.62,1.62,0,0,0-.94.2,1.06,1.06,0,0,1-.59.26c-.19,0-.15-.18-.11-.32s.4-.31.54-.52a.88.88,0,0,0,.11-.61c-.6.15-1.15.29-1.71.46a.49.49,0,0,1-.25.12h-.14a1.69,1.69,0,0,1-.27-.1.21.21,0,0,1-.1-.11.26.26,0,0,1,0-.21l.14-.07a1.27,1.27,0,0,0,.51-.12c.31-.16.67-.12,1-.28s.49-.16.74-.21.58-.2.82-.39a.68.68,0,0,0,.24-.12c.07-.07.06-.17.12-.24a1.76,1.76,0,0,1,.86-.31h.27c.86,0,.93-.07.83-1a4.38,4.38,0,0,1,.46-1.67,1,1,0,0,0,.07-.83A16.93,16.93,0,0,0,89.81,36a1.38,1.38,0,0,1-.17-.63,3.82,3.82,0,0,0-.51-1.57,17.71,17.71,0,0,1-.6-1.78c-.06-.2,0,.06-.09,0-.22,0-.21-.14-.26-.25s-.18-.08-.25,0c.06,1.57-.23,3.13-.09,4.7A2.7,2.7,0,0,1,87,38.65a2,2,0,0,0-.92.27.29.29,0,0,1-.16,0c-.26-.16-.33-.46-.49-.7a1.52,1.52,0,0,0-2.72,0c-.28.41-.34,1-.78,1.28a.35.35,0,0,1-.31-.09,17.11,17.11,0,0,1-.1-1.75.9.9,0,0,0,0-.56S81.57,37.21,81.51,37.26Z"/><path class="cls-2" d="M101.64,60,102,60a17.81,17.81,0,0,0,3.65,0,2.94,2.94,0,0,1,1.18.09,2.49,2.49,0,0,0,1.55.05c.12-.09.31,0,.41-.14l.09-.07a6,6,0,0,1,.62,1.85c.26,1.45.67,2.87,1,4.31.2.91.39,1.82.59,2.72.12.51.29,1,.41,1.53a.86.86,0,0,0,.45.58,1.11,1.11,0,0,0,.41.14,20.76,20.76,0,0,1,2.67.75,7.75,7.75,0,0,0,.78.24,5.13,5.13,0,0,1,1.2.52,1,1,0,0,1,.31.29c.15.23.28.47.41.71a1,1,0,0,1,.07.54.71.71,0,0,1-.76.68l-3.16.19a1.86,1.86,0,0,0-.33,0,10.73,10.73,0,0,1-2.77.22,7.48,7.48,0,0,0-1.25.06,6.51,6.51,0,0,1-.77,0c-.76,0-1.53,0-2.29,0-.49,0-1-.09-1.47-.13a2.5,2.5,0,0,1-.26-.07.39.39,0,0,1-.31-.34c-.08-.45-.18-.89-.27-1.34s-.23-1.17-.32-1.77c-.07-.41-.08-.83-.11-1.25-.08-.87-.3-1.72-.43-2.58s-.22-1.47-.35-2.21c-.21-1.27-.56-2.52-.87-3.77-.1-.44-.22-.88-.32-1.33A4,4,0,0,1,101.64,60Z"/><path class="cls-2" d="M92,59.75c.15,0,.15-.17.19-.28s0-.21.15-.23a3.11,3.11,0,0,1-.17.9c-.28,1.19-.59,2.37-.87,3.55a28.86,28.86,0,0,0-.51,2.9c-.08.62-.2,1.22-.32,1.83a19.29,19.29,0,0,0-.28,2.38A12.79,12.79,0,0,1,90,72.2c-.11.55-.24,1.1-.31,1.66a.62.62,0,0,1-.64.6c-.58.05-1.16.16-1.74.16s-1.2,0-1.8,0a7.17,7.17,0,0,1-1-.07c-.23,0-.47,0-.71,0-.43,0-.87,0-1.31,0a14.35,14.35,0,0,1-2.27-.26,3.41,3.41,0,0,0-.43-.06c-.92,0-1.82-.16-2.73-.13a.6.6,0,0,1-.5-.16.83.83,0,0,1-.25-.8,2,2,0,0,1,1-1.39,8.23,8.23,0,0,1,1.11-.43c.68-.2,1.35-.42,2-.64a7.57,7.57,0,0,1,1.16-.29,1.54,1.54,0,0,0,.51-.17.89.89,0,0,0,.45-.58c.41-1.32.64-2.69,1-4,.24-1,.48-2,.71-3,.14-.62.26-1.24.4-1.86A2.85,2.85,0,0,1,85,59.51c.15.25.28.38.63.22a1.47,1.47,0,0,1,1,.08,11.8,11.8,0,0,0,2.21.33c.24,0,.49,0,.59-.32s.39-.22.61-.19c.61.09,1.23.08,1.85.15l.08,0Z"/><path class="cls-3" d="M118,46.05c.1-.14.26-.12.4-.11a10.47,10.47,0,0,1,1.68.12.67.67,0,0,0,.28,0,5.2,5.2,0,0,1,1.86.39,1.42,1.42,0,0,1,.47.25,5.74,5.74,0,0,1,1.14,1.17,3.82,3.82,0,0,1,.64,1.44,15.24,15.24,0,0,1,.31,2.43c0,.64.11,1.27.16,1.91,0,.4,0,.8,0,1.2,0,1.78,0,3.57,0,5.35,0,1.07.07,2.15.13,3.22,0,.73.17,1.45.19,2.17,0,1.28.08,2.55.21,3.82,0,.29,0,.58,0,.87a7.4,7.4,0,0,0,.42,2.24.63.63,0,0,0,.39.43l0,0c.57.3.58.38.11.79a1.3,1.3,0,0,1-.86.43.29.29,0,0,0-.25.18.77.77,0,0,1-.66.33,4,4,0,0,1-.49,0,1.5,1.5,0,0,1-1.36-1,8.1,8.1,0,0,1-.54-2.22c-.07-.92-.17-1.85-.25-2.77,0-.22,0-.44,0-.66l0-6.11a30.44,30.44,0,0,0-.13-3.17.92.92,0,0,1-.13-.67c0-1,0-2,0-3,0-.72,0-1.44,0-2.16a13.52,13.52,0,0,0,0-1.8,8.36,8.36,0,0,0-.43-1.37A1.88,1.88,0,0,0,120,48.25a1.63,1.63,0,0,0-.69-.17.7.7,0,0,1-.42-.13.77.77,0,0,1-.08-.91,3,3,0,0,1,1.64.06,1.14,1.14,0,0,0,.26,0l.23.05a.6.6,0,0,1,.3.07,2.85,2.85,0,0,1,.72.41c.4.18.47.61.67.94,0,0,0,.1,0,.16a3.45,3.45,0,0,0,.14.42,8.36,8.36,0,0,1,.37,3.44c0,.27,0,.54,0,.82,0,3.29-.06,6.58,0,9.87a48.51,48.51,0,0,0,.62,7.31,5.74,5.74,0,0,1,.18.9,3.19,3.19,0,0,0,1,1.79,5.1,5.1,0,0,1-1.27-2.9,12.68,12.68,0,0,1,0-3.48c0-1.9-.14-3.81-.13-5.72,0-1,.17-1.91.12-2.88-.08-1.69-.23-3.37-.3-5,0-.26,0-.51,0-.77a8.87,8.87,0,0,0-.65-3.67c0-.08,0-.17-.08-.25a1,1,0,0,1-.08-.14c-.15-.28-.23-.61-.55-.77a3.49,3.49,0,0,0-.67-.4l-.12-.06c-.13-.06-.28,0-.4-.08a.74.74,0,0,0-.21,0l-.15,0a2.08,2.08,0,0,0-.36-.06L120,47a7,7,0,0,0-.79,0,.49.49,0,0,1-.36-.15C118.75,46.29,118.27,46.26,118,46.05Z"/><path class="cls-4" d="M118.86,47.06a2.6,2.6,0,0,0,.07.88.39.39,0,0,1,.08.14c-.07.45-.49.22-.71.38a7.38,7.38,0,0,1-1.41,0h-2.34a9.48,9.48,0,0,0-1.68.17c-.27,0-.54,0-.8.09a3,3,0,0,0-.72.36,4.24,4.24,0,0,1-1.36.38.83.83,0,0,0-.49.19,1.4,1.4,0,0,1-.85.32.83.83,0,0,1-.84-.39,1.2,1.2,0,0,1-.26-.53.17.17,0,0,1,.07-.27.38.38,0,0,1,.23.06c.29.28.5.72,1,.58a.6.6,0,0,0,.35-.13,1.6,1.6,0,0,1,1.42-.42c.32.05.56-.21.79-.42a1.45,1.45,0,0,0,.43-1.38,5.43,5.43,0,0,1-.09-.81,28.51,28.51,0,0,1,.18-4.43,4.48,4.48,0,0,1,.1,1.67c0,.73,0,1.45,0,2.18,0,.15,0,.29,0,.44a.14.14,0,0,0,.15.13c.87-.1,1.74,0,2.62-.12a9.26,9.26,0,0,1,1.58,0,9.68,9.68,0,0,0,1.52-.08,2.21,2.21,0,0,1,.79.18l.09.51a.44.44,0,0,1,.07.19A.29.29,0,0,1,118.86,47.06Z"/><path class="cls-5" d="M118.3,48.46a.73.73,0,0,1,.49-.19c.16,0,.14-.13.15-.23s.27,0,.4,0,.41.13.61.2a3.52,3.52,0,0,1,1.4,1.65,5.93,5.93,0,0,1,.42,2.08c0,.37,0,.75,0,1.13v.28a15.12,15.12,0,0,1,0,1.78q-.12,3.77-.11,7.55a1.49,1.49,0,0,1,0,.59,18.75,18.75,0,0,0,0,2.12,25.33,25.33,0,0,1,0,2.89,23,23,0,0,0,.07,4,8.62,8.62,0,0,0,.25,1.12,2.14,2.14,0,0,0,.44.81c.07.08.12.19.25.19s.14,0,.14.12a.23.23,0,0,1-.11.18.48.48,0,0,1-.64-.07,2.26,2.26,0,0,1-.55-.93,7,7,0,0,1-.34-1.87c0-1.19,0-2.37,0-3.55s0-2.22-.08-3.33a9,9,0,0,1,0-1c0-2.36,0-4.73,0-7.09a19.39,19.39,0,0,1,.06-2,8.33,8.33,0,0,0-.09-1.58,13.33,13.33,0,0,1-.08-1.41c0-.17,0-.33,0-.5a2.69,2.69,0,0,0-.45-1.43,5.63,5.63,0,0,0-.75-.94,1.25,1.25,0,0,0-1-.43C118.66,48.48,118.48,48.46,118.3,48.46Z"/><path class="cls-1" d="M92.68,21.36c.15-.22.44-.32.58-.6-.53.08-1,.15-1.52.24a2.05,2.05,0,0,1-.7,0c-.11-.25-.24-.49.13-.63a9.79,9.79,0,0,1,1.69-.29c.25,0,.51,0,.65-.3a.43.43,0,0,1,.21-.23c.49.22.28.73.45,1.08a.35.35,0,0,1,0,.14s-.11,0-.09.09.06,0,.1,0l.12.06.11.09.06.05a2.48,2.48,0,0,0,.42.26l.25.13.31.15.12.05a.64.64,0,0,0,.18.06,2.61,2.61,0,0,1,.27.06l.22,0c.15,0,.31,0,.47,0h.82a1.2,1.2,0,0,0,.38,0l.21-.06a.78.78,0,0,0,.48-.37A9.75,9.75,0,0,0,100,20.25a.36.36,0,0,1,.34-.13c.08,0,.13.09.08.19l-.26.4a.45.45,0,0,0,0,.36.08.08,0,0,0,0,.08.37.37,0,0,1,0,.23.18.18,0,0,1-.17.15.67.67,0,0,0-.53.33,7.88,7.88,0,0,1-3,2.17,3.17,3.17,0,0,1-1.54.3,2.13,2.13,0,0,1-2-2.22c0-.23.12-.56-.3-.57C92.71,21.51,92.64,21.47,92.68,21.36Z"/><path class="cls-6" d="M100.46,20.31l-.12-.14a14.15,14.15,0,0,0,.4-4.25,9.72,9.72,0,0,0-.37-2.52,3.62,3.62,0,0,0-.47-1,1.3,1.3,0,0,0-2.09-.28,1.38,1.38,0,0,1-.3.24c-.11,0-.17,0-.22-.13a.48.48,0,0,1,.17-.62,1.83,1.83,0,0,1,2.57,0,4.33,4.33,0,0,1,1.11,2.62,21.34,21.34,0,0,1,0,4.52c0,.52,0,.55.52.51.31,0,.62-.08.92-.11s.36-.14.32-.4c-.25-1.51-.21-3.05-.46-4.56A3.66,3.66,0,0,0,102,12.5c-.21-.31-.07-.52.33-.49a5,5,0,0,1,1.07.23.34.34,0,0,1,.17,0c.06.06.13.12.19.19a.11.11,0,0,1-.08.16,2,2,0,0,1-.6-.06.78.78,0,0,0-.48,0,10.47,10.47,0,0,1,.55,2.93c.06.85.12,1.7.21,2.55,0,.35.13.68.19,1a.25.25,0,0,0,.13.17.13.13,0,0,1,0,.22l-.15.15c-.08.09,0,.28-.13.32s-.25,0-.38.06c-.69.14-1.41.16-2.1.33A3,3,0,0,1,100.46,20.31Z"/><path class="cls-7" d="M92,59.85a.36.36,0,0,1-.45.08,2.4,2.4,0,0,0-.75-.08,2.39,2.39,0,0,1-.75-.07,1.94,1.94,0,0,0-.54,0c0,.06,0,.1,0,.12a.22.22,0,0,1,0,.29.25.25,0,0,1-.23.13,6.4,6.4,0,0,1-1,0c-.45,0-.89-.13-1.34-.2A1.11,1.11,0,0,1,86.7,60a3.89,3.89,0,0,0-1-.17c-.13,0-.17.1-.24.18s-.22.15-.33,0-.07-.32-.09-.48.07-.27.12-.41.07-.06.11-.1.07,0,.11,0a16.88,16.88,0,0,1,2,.07c.67,0,1.34.11,2,.16l.66.05,1.52.11a.49.49,0,0,1,.46.33h0a.06.06,0,0,0,0,.07S92,59.85,92,59.85Z"/><path class="cls-8" d="M91.15,20.51a.26.26,0,0,0-.11.37s0,.1,0,.16a1,1,0,0,1-.29-.45,12.76,12.76,0,0,1-.3-4.44,9.38,9.38,0,0,1,.37-2,5.11,5.11,0,0,1,.74-1.52A2,2,0,0,1,92.4,12c.11,0,.19-.07.23-.2s.12-.12.21-.16A7.74,7.74,0,0,0,95.13,9.9,18.88,18.88,0,0,0,98,6a8.43,8.43,0,0,0,.68-1.72,1.09,1.09,0,0,1,.1-.25l0,0s.08,0,.09,0a2.73,2.73,0,0,1,.1.48c0,.32,0,.65,0,1a1.76,1.76,0,0,1,0,.91A1.52,1.52,0,0,1,98.79,5a14.2,14.2,0,0,1-2.4,4.08,10.82,10.82,0,0,1-3.44,3,3.3,3.3,0,0,0-1.7,2.1A11.25,11.25,0,0,0,91.15,20.51Z"/><path class="cls-9" d="M112.48,36.78s0,0,0,0c-.28-.37-.27-.36-.15-.77s.3-1.12.48-1.67a2.57,2.57,0,0,0,0-1.07,5.6,5.6,0,0,0-.21-.9c0-.16-.08-.31-.11-.47a4.41,4.41,0,0,0-.43-1.33,4.26,4.26,0,0,1-.4-.9.18.18,0,0,1,.07-.19,5.84,5.84,0,0,1,1,2.16,8.62,8.62,0,0,1,.09,4.31A2.18,2.18,0,0,1,112.48,36.78Z"/><path class="cls-10" d="M82.4,28.94s0,.12,0,.16a15.47,15.47,0,0,1-.67,1.43,2.72,2.72,0,0,0-.42,1.11,3.56,3.56,0,0,1-.1.47,10.47,10.47,0,0,0-.1,2.56,2.5,2.5,0,0,0,.26,1.1,1,1,0,0,1,0,.91,3.34,3.34,0,0,1-.5-1.53,8.73,8.73,0,0,1,.41-4.44,5.43,5.43,0,0,1,1-1.78C82.35,28.88,82.38,28.89,82.4,28.94Z"/><path class="cls-11" d="M87.44,50a.37.37,0,0,1,.21.35,1.17,1.17,0,0,1-.08.37c-.46,1.48-.9,3-1.24,4.49-.08.33-.21.65-.29,1a1,1,0,0,1-.26.46c-.09.09-.07-.06-.11-.1.11-.46.2-.92.32-1.37.3-1.12.62-2.24.93-3.36C87.1,51.23,87.27,50.62,87.44,50Z"/><path class="cls-12" d="M81.65,48.16l0-.1a.4.4,0,0,1,0-.26.26.26,0,0,0,0-.19,1.28,1.28,0,0,1,0-.55c.1-.22,0-.47.08-.7,0,0,0,0,0-.06s0-.25.11-.34V42.17a3.92,3.92,0,0,1,.09-1.8c.2.15.18.36.19.57a14.94,14.94,0,0,0,.07,2.41,15.88,15.88,0,0,1,0,2.58,1.34,1.34,0,0,1-.07.27l-.07.25a4.81,4.81,0,0,0-.06,1.2s0,.09,0,.14,0,0,0,.06a.59.59,0,0,1,0,.13.56.56,0,0,0,.09.21.34.34,0,0,0,.21.08l.13,0,.13.07a1,1,0,0,1,.33.39c0,.09.07.22-.12.17h0l0,0a.26.26,0,0,0-.15-.07h0l0,0c-.06-.07-.15,0-.21-.1h0a.19.19,0,0,0-.14-.09s-.06,0-.07,0a.16.16,0,0,1-.09-.07l0,0a.1.1,0,0,1-.07-.07l0-.1A.35.35,0,0,0,81.65,48.16Z"/><path class="cls-13" d="M110.6,28.15c-.08,0-.08.16-.21.17a1.53,1.53,0,0,1,.12-.67,2.1,2.1,0,0,0,.2-.82,3.69,3.69,0,0,1,.18-.85,3.78,3.78,0,0,0,0-1.46,7.42,7.42,0,0,0-.34-1.31.19.19,0,0,1,0-.2,3.85,3.85,0,0,1,.57,1.8A6.85,6.85,0,0,1,110.6,28.15Z"/><path class="cls-14" d="M121.68,63.25c0-.11,0-.22,0-.33q0-3.35,0-6.69a9.55,9.55,0,0,1,.1-1.19s.07,0,.09,0v3.72c-.14.15-.09.35-.09.52,0,1.09,0,2.18,0,3.27V63A.34.34,0,0,1,121.68,63.25Z"/><path class="cls-15" d="M100.88,6.5c.31-.31.61-.62.92-.92a.16.16,0,0,1,.09,0,.2.2,0,0,1,.11,0,.11.11,0,0,1,.07.13c0,.15-.08.31-.13.46-.31.89-.61,1.78-.93,2.67a.51.51,0,0,0,.13.62s0,.09.08.14,0,.14-.12.15c-.56-.37-.65-.58-.43-1.17l.83-2.25s.06,0,0-.06c-.2.16-.31.45-.63.4A.08.08,0,0,1,100.88,6.5Z"/><path class="cls-16" d="M86.35,48.61a1.89,1.89,0,0,1-.39.82.73.73,0,0,1-.66.32,1.34,1.34,0,0,1-.91-.26,1.06,1.06,0,0,0-.69-.26,2.17,2.17,0,0,1-.42-.11c.45-.54.86-.58,1.32-.11s.58.51,1,.16c.16-.26.28-.55.46-.81s.17-.41.37-.37A1.84,1.84,0,0,1,86.35,48.61Z"/><path class="cls-17" d="M112.06,43.5l0-1.56a6.74,6.74,0,0,0-.08,1.49c0,.49,0,1,0,1.46v1.52c-.29-.06-.27-.32-.27-.52a43,43,0,0,1,.07-4.4c0-.33,0-.65,0-1s0-.48.18-.66l.23-.22c0,.39,0,.79,0,1.18,0,.72,0,1.44,0,2.16A1.35,1.35,0,0,1,112.06,43.5Z"/><path class="cls-18" d="M85.67,49.22a.47.47,0,0,1-.33.34.58.58,0,0,1-.46-.11,2.16,2.16,0,0,1-.5-.5c-.18-.22-.25-.23-.51-.11l-.59.28a1,1,0,0,1-.57-.19.09.09,0,0,0,0-.16l-.33-.38c.18-.16.38-.08.57,0a7.73,7.73,0,0,0,1.18.11A.81.81,0,0,1,85,49C85.15,49.28,85.47,49.1,85.67,49.22Z"/><path class="cls-19" d="M100.23,54.5c.07-.07.13,0,.17,0a2.47,2.47,0,0,1,.15.46c.1.47.26.93.4,1.39s.25,1,.36,1.46a.92.92,0,0,1,0,.33c0,.1-.1.14-.19.15-.13-.56-.27-1.13-.4-1.7S100.39,55.21,100.23,54.5Z"/><path class="cls-20" d="M98,50.12a4.43,4.43,0,0,0,.83-.61c.14.22.25.4.07.61l0-.17c0-.06,0-.12-.08,0a4,4,0,0,1-.43.39,1.72,1.72,0,0,1-1.64.25l-.35-.14c0-.09,0-.15.11-.1a3.64,3.64,0,0,0,1.09-.11c.09-.09.25,0,.34-.1h0A.06.06,0,0,1,98,50.12Z"/><path class="cls-21" d="M108.56,58.74c0,.06-.13.09-.17,0a1.44,1.44,0,0,1-.16-.51,14.46,14.46,0,0,0-.39-2c-.1-.47-.24-.94-.36-1.41a2.31,2.31,0,0,1,0-.37.06.06,0,0,1,.1,0,.05.05,0,0,1,0,.08c0,.08,0,.17.08.24a32.13,32.13,0,0,1,.9,3.76A.81.81,0,0,1,108.56,58.74Z"/><path class="cls-22" d="M107.66,48.81c-.09.06-.09.15-.11.24a.58.58,0,0,0-.37-.27,1.74,1.74,0,0,1-1.06-.51.41.41,0,0,1-.07-.11,1.38,1.38,0,0,0-.08-.27.47.47,0,0,1,0-.35.15.15,0,0,1,.12-.07c.26.17.25.58.59.67l.12,0a1.12,1.12,0,0,0,.26.08.62.62,0,0,0,.19,0,.23.23,0,0,0,.14-.1.17.17,0,0,1,.1-.06c.19,0,.16.24.22.37l0,.13A.19.19,0,0,1,107.66,48.81Z"/><path class="cls-23" d="M86.35,48.61l0-.66a.12.12,0,0,1,0-.14c.77-.16.89-.72.84-1.38.12-.09.19,0,.25.07s.06.25.08.37a1,1,0,0,1-1,1.23C86.39,48.26,86.49,48.47,86.35,48.61Z"/><path class="cls-24" d="M107.55,54.5h-.1a1.54,1.54,0,0,1-.23-.65c-.21-.7-.4-1.41-.61-2.11a.4.4,0,0,1,0-.41A29.3,29.3,0,0,1,107.55,54.5Z"/><path class="cls-25" d="M96.51,50.34l-.11.1h-.11c-.1-.08-.24,0-.34-.09a1.32,1.32,0,0,1-.86-.57c-.09-.05-.16-.07-.2.06l0,.17c-.18-.2-.11-.43-.06-.65s.12-.08.18,0a5.9,5.9,0,0,1,.62.5,1.44,1.44,0,0,0,.83.44S96.49,50.32,96.51,50.34Z"/><path class="cls-26" d="M98.93,6.39A.33.33,0,0,0,99,6.11c0-.21,0-.42,0-.62a1.94,1.94,0,0,1,.09.64c0,.56.08,1.12.13,1.68a1.55,1.55,0,0,0,0,.21.11.11,0,0,1,.18,0c-.11.33-.42.4-.5.1A2.2,2.2,0,0,1,98.93,6.39Z"/><path class="cls-27" d="M92.48,58.88a.72.72,0,0,1-.07-.76c.11-.39.25-.78.38-1.17,0,0,0-.07.07,0a.59.59,0,0,1,.06.14A7.29,7.29,0,0,1,92.48,58.88Z"/><path class="cls-28" d="M88.11,47a1.15,1.15,0,0,1,0,.89,13.86,13.86,0,0,1-.42,1.39c0,.06-.08,0-.12,0A21.83,21.83,0,0,1,88.11,47Z"/><path class="cls-29" d="M83.2,22.8a.28.28,0,0,1,.06.3c-.21.56-.27,1.16-.44,1.73,0,0,0,0-.07.05l0-.59A3.17,3.17,0,0,1,83.2,22.8Z"/><path class="cls-30" d="M85.67,20.91c0,.14-.13.2-.25.26l-1,.55A1.67,1.67,0,0,0,84,22a.41.41,0,0,1-.3.1A3.27,3.27,0,0,1,85.67,20.91Z"/><path class="cls-31" d="M81.85,40.39c-.13.11-.1.26-.1.4,0,.46,0,.92,0,1.38a.83.83,0,0,1,0-.15c0-.87-.09-1.74,0-2.61H82A1.1,1.1,0,0,1,81.85,40.39Z"/><path class="cls-32" d="M99.46,8H99.3a20.58,20.58,0,0,1,1.58-1.52v.13A2.68,2.68,0,0,1,99.46,8Z"/><path class="cls-33" d="M106.36,21l.2.07c-.09.14-.25,0-.36.1a1.27,1.27,0,0,1-.42.09c-.15,0-.28.07-.43.09a.2.2,0,0,1-.19-.07l.19-.06a.12.12,0,0,0,.1-.05A2.58,2.58,0,0,1,106.36,21Z"/><path class="cls-34" d="M103.56,21h-1.7a.39.39,0,0,1,.24-.1,6.53,6.53,0,0,1,1.17,0A.43.43,0,0,1,103.56,21Z"/><path class="cls-35" d="M101.12,9.68l.1-.13a4.07,4.07,0,0,1,.66.77l-.07,0a.2.2,0,0,1-.15,0C101.41,10.19,101.09,10.07,101.12,9.68Z"/><path class="cls-36" d="M100.14,21.48l.11-.14a.06.06,0,0,1,.08.05.34.34,0,0,1,0,.1c0,.17.11.17.22.1l0,.07c0,.1.13.17.1.3a.26.26,0,0,1-.41.08A.42.42,0,0,1,100.14,21.48Z"/><path class="cls-37" d="M92.68,21.36l.12.13a.68.68,0,0,1-.66.54L92,21.92A2.68,2.68,0,0,1,92.68,21.36Z"/><path class="cls-38" d="M102.43,11a2.34,2.34,0,0,1,.54.67l-.06,0a.26.26,0,0,1-.15,0,.83.83,0,0,1-.49-.56.22.22,0,0,1,.08-.13Z"/><path class="cls-34" d="M101.87,21a3.21,3.21,0,0,1-1.11.43A1.73,1.73,0,0,1,101.87,21Z"/><path class="cls-39" d="M106.13,48.17a.34.34,0,0,1,0,.1l-.11.12a3,3,0,0,1-.19-.89.13.13,0,0,1,.19,0l0,.45C106.09,48,106.07,48.1,106.13,48.17Z"/><path class="cls-40" d="M101.88,10.32a3.44,3.44,0,0,1,.55.65l-.05,0a.32.32,0,0,1-.14,0,.91.91,0,0,1-.51-.51.16.16,0,0,1,.11-.17Z"/><path class="cls-41" d="M82.82,26.65c0-.08.11-.1.16,0s.16.26,0,.54A1,1,0,0,1,82.82,26.65Z"/><path class="cls-42" d="M103.52,12.29h-.16a.46.46,0,0,1-.43-.38.19.19,0,0,1,.14-.16A1.67,1.67,0,0,1,103.52,12.29Z"/><path class="cls-43" d="M87.42,46.5l-.15-.1c-.2,0-.25-.12-.16-.29.16.09.36.12.47.29Z"/><path class="cls-44" d="M81.51,37.26a.38.38,0,0,1,0-.1s0,0,.07,0a.61.61,0,0,1-.07.54Z"/><path class="cls-45" d="M81.62,46.36c0,.24.09.49-.08.7A1.29,1.29,0,0,1,81.62,46.36Z"/><path class="cls-1" d="M96,50.35c.13,0,.25,0,.34.09A.38.38,0,0,1,96,50.35Z"/><path class="cls-45" d="M81.74,46c0,.13,0,.26-.11.34A.43.43,0,0,1,81.74,46Z"/><path class="cls-45" d="M81.63,47.72v.34a.36.36,0,0,1-.09-.34A.06.06,0,0,1,81.63,47.72Z"/><path class="cls-1" d="M94.89,49.84c0-.07,0-.16,0-.18s.12.05.15.12Z"/><path class="cls-46" d="M100.22,21.07c-.09-.12-.17-.23,0-.36C100.21,20.83,100.21,21,100.22,21.07Z"/><path class="cls-46" d="M100.33,21.39l-.08-.05v-.19A.22.22,0,0,1,100.33,21.39Z"/><path class="cls-47" d="M82.19,48.71a.2.2,0,0,1,.21.1A.22.22,0,0,1,82.19,48.71Z"/><path class="cls-48" d="M103.07,11.75l-.09.11a.11.11,0,0,1-.07-.08.15.15,0,0,1,0-.09.06.06,0,0,0,0,0Z"/><path class="cls-24" d="M107.65,54.82a.22.22,0,0,1-.08-.24A.27.27,0,0,1,107.65,54.82Z"/><path class="cls-1" d="M98.82,49.94l.05-.07,0,.08A.11.11,0,0,1,98.82,49.94Z"/><path class="cls-47" d="M82.46,48.83a.17.17,0,0,1,.15.07A.13.13,0,0,1,82.46,48.83Z"/><path class="cls-47" d="M82,48.61a.15.15,0,0,1,.14.09A.13.13,0,0,1,82,48.61Z"/><path class="cls-47" d="M81.87,48.49l.09.07C81.9,48.57,81.88,48.54,81.87,48.49Z"/><path class="cls-45" d="M81.78,48.39a.08.08,0,0,1,.07.07S81.77,48.44,81.78,48.39Z"/><path class="cls-45" d="M81.65,48.16a.13.13,0,0,1,.08.13A.11.11,0,0,1,81.65,48.16Z"/><path class="cls-47" d="M81.63,47.72h-.09v-.11Z"/><path class="cls-49" d="M82.4,28.94h-.08a.11.11,0,0,1,.08-.12Z"/><path class="cls-49" d="M82.51,28.7a.13.13,0,0,1-.1.11A.12.12,0,0,1,82.51,28.7Z"/><path class="cls-49" d="M82.62,28.59a.14.14,0,0,1-.11.11A.12.12,0,0,1,82.62,28.59Z"/><path class="cls-49" d="M82.73,28.48a.15.15,0,0,1-.11.11A.12.12,0,0,1,82.73,28.48Z"/><path class="cls-34" d="M100.76,21.46a.15.15,0,0,1-.09.13.05.05,0,0,1,0-.05l0,0Z"/><path class="cls-36" d="M100.66,21.51a.19.19,0,0,1,0,.08h0l0,0h0l0,0C100.58,21.54,100.6,21.51,100.66,21.51Z"/><path class="cls-1" d="M105.45,21.18a.07.07,0,0,1-.1.05C105.37,21.17,105.4,21.17,105.45,21.18Z"/><path class="cls-46" d="M92.14,22a2.65,2.65,0,0,0,.66-.54l.13-.09c.08,0,.14-.15.23-.11s.06.18.06.28a4,4,0,0,0,.1,1.14,1.93,1.93,0,0,0,2.28,1.46,5,5,0,0,0,1.63-.58,8.45,8.45,0,0,0,2.13-1.68c.16-.17.31-.35.46-.53s.16-.18.32.1.08.3.14.44.2.17.33,0,0-.09.07-.13v-.07l.12,0a.15.15,0,0,0,.09-.06.17.17,0,0,0,.1-.06c.13,0,.23-.13.4-.1a1.35,1.35,0,0,1,0,.66Q99.93,27.58,98.52,33l-.7,2.68c-.09.07,0,.37-.28.17a2.76,2.76,0,0,1,0-1.61c.38-.49-.11-.83-.21-1.23a7.73,7.73,0,0,1,0-.83,2,2,0,0,1,0-.24c0-.09.07-.18.1-.27a.5.5,0,0,1,0-.13,2.67,2.67,0,0,0,.09-.26,1.12,1.12,0,0,1,0-.13l.18-.37s0,0,0,0l0,0a1.21,1.21,0,0,1-.09.2l-.06.12a.91.91,0,0,0-.09.17.54.54,0,0,1,0,.11l-.06.19a.56.56,0,0,1,0,.12,1,1,0,0,1-.09.18.32.32,0,0,1-.1.1.24.24,0,0,1-.2,0,.23.23,0,0,1-.08-.12,2.92,2.92,0,0,0-.1-.4,5.21,5.21,0,0,0-.28-.59l0-.14c-.09-.11-.2-.2-.3-.31a.18.18,0,0,0-.1,0c0-.07.06,0,0,0a0,0,0,0,0,0,0s0,0,0,0l.1.07c.09.09.19.18.27.27a.29.29,0,0,1,0,.13,1.15,1.15,0,0,1,.12.25,1.77,1.77,0,0,1,.21.49.89.89,0,0,1,0,.32,6.1,6.1,0,0,1,0,1.13l0,.16c0,.1-.07.2-.11.3a.75.75,0,0,1-.41.37s0,0,0,0l0,0c.82.34.79,1,.73,1.74-.16.46-.29,1-.91,1a.9.9,0,0,1-.21-.49l-2-7.31-1.63-6A5,5,0,0,0,92.14,22Z"/><path class="cls-50" d="M107.31,48.47a.5.5,0,0,0-.26-.11c-.09,0-.19,0-.25-.11h0c-.49-.11-.56-.5-.59-.92a1.94,1.94,0,0,1,0-.59.55.55,0,0,1,.3-.3.61.61,0,0,0,.24-.44c0-.15.11-.21.22-.27.15-.21.4-.22.62-.29s.51-.27.21-.6-.3-.42,0-.61a5.92,5.92,0,0,1,1.34-.73c-.51-.31-1.14-.07-1.53-.5h0a.13.13,0,0,1-.05-.13c0-.19-.13-.38,0-.56s.08-.36.22-.51a.17.17,0,0,0,0-.1c-.11-.17,0-.36-.06-.54a3.07,3.07,0,0,0,0-.8,2.76,2.76,0,0,1,.4-1.66,2.48,2.48,0,0,1,1-.94,1.45,1.45,0,0,1,1.2-.14l.26.07c.09,0,0,.25.2.11a2.82,2.82,0,0,1,1.06,1.78,1.45,1.45,0,0,0,.07.26c0,1.78-.16,3.56-.13,5.34,0,.29,0,.58,0,.87a.41.41,0,0,0,.11.35c0,.31.07.61.09.91a2.41,2.41,0,0,1,0,.38,1,1,0,0,1-.53.88,2.3,2.3,0,0,1-1.44.3,1.22,1.22,0,0,0-1.2.68h-.22a.61.61,0,0,1-.59-.3l-.25-.35c-.12-.08,0-.24-.12-.33h0c-.19-.08.14-.45-.23-.44a.1.1,0,0,0,0,.09C107.39,48.32,107.41,48.43,107.31,48.47Z"/><path class="cls-50" d="M87.11,46.11a.41.41,0,0,0,.15.29.47.47,0,0,0,0,.31.81.81,0,0,1-.49,1.06l-.19.1c-.11.08-.16,0-.23-.07-.35.13-.06.49-.24.68l-.44.74a.85.85,0,0,1-.52.12.79.79,0,0,1-.26-.08c-.1-.07,0-.16,0-.24a.29.29,0,0,0-.14-.28.68.68,0,0,0-.46-.14,8,8,0,0,1-1.89-.21.07.07,0,0,0-.08,0s-.1,0-.16,0a.17.17,0,0,1-.1,0,.43.43,0,0,1-.12-.11.19.19,0,0,1,0-.1c0-.06,0-.1,0-.15h0a.21.21,0,0,1-.06-.17,8.7,8.7,0,0,1,0-1.35l0-.18a.41.41,0,0,1,.07-.15.75.75,0,0,0,0-.16c0-.86,0-1.72,0-2.57a14.29,14.29,0,0,1,0-1.85,1.5,1.5,0,0,0,0-.59v-.52c.05-.32,0-.67.13-1l.38-.83a3.29,3.29,0,0,1,.48-.73,1.58,1.58,0,0,1,2.55,0,3.84,3.84,0,0,1,.44.69,2.61,2.61,0,0,0,.17.28c.21.21.14.49.16.75,0,.63-.17,1.24-.11,1.87a2.88,2.88,0,0,0,.07.59,1.72,1.72,0,0,1,0,.64.77.77,0,0,1-.5.16,1,1,0,0,0-.51.14c-.17.12-.39,0-.57.1h0l0,0a.12.12,0,0,0,0,.21.08.08,0,0,0,.08,0c.08,0,.18,0,.24.11h0A2.3,2.3,0,0,1,86,44c.19.14.25.3.09.49a5.63,5.63,0,0,1-.36.46h0c-.07.13,0,.16.11.22a.16.16,0,0,0,.1,0c.06.06.16,0,.23.1h0c.09.11.24,0,.33.11a.11.11,0,0,0,.08,0c.08,0,.17,0,.24.08a.34.34,0,0,1,.24.25C87,45.88,87.08,46,87.11,46.11Z"/><path class="cls-51" d="M86.14,42.72a.16.16,0,0,1-.14-.18c0-.14,0-.27,0-.41a.39.39,0,0,0,.07-.23c0-.56,0-1.12.06-1.67v-.59c0-.11,0-.22,0-.32a.35.35,0,0,1,.06-.14,1.32,1.32,0,0,1,.22-.18c.1-.08.19-.18.29-.27l.11-.08h.07a3,3,0,0,0,.76-1.39,1.14,1.14,0,0,0,.11-.58c0-1.31.16-2.62.13-3.94a6.49,6.49,0,0,1,0-1.08c.11-.11.21-.24.39-.19s0,.46.16.64a.4.4,0,0,1,.2.24,27.34,27.34,0,0,0,1.11,2.81.38.38,0,0,1,0,.21,3.88,3.88,0,0,0,.28.81,16.37,16.37,0,0,1,.73,2,.29.29,0,0,1,0,.26,5.36,5.36,0,0,0-.64,1.93c.07.31-.12.56-.16.85s-.17.2-.33.19h-.65a1.69,1.69,0,0,0-1.47.66c-.14.18-.25.46-.58.42Z"/><path class="cls-51" d="M107.72,42.36v.38a.17.17,0,0,1-.08.18h-.07l-.84-.25c-.16-.06,0-.24-.15-.33h0c-.32-.06-.4-.41-.65-.56a.18.18,0,0,0-.18-.09c-.57-.14-1.16,0-1.73-.1-.17-.66-.34-1.33-.52-2a3.34,3.34,0,0,0-.36-.85.59.59,0,0,1,0-.47c.27-.84.56-1.68.9-2.51.14-.33.32-.65.45-1,.32-.78.62-1.56.93-2.33a1.93,1.93,0,0,0,.13-.65.57.57,0,0,1,.4.28c0,.72,0,1.44,0,2.16a19.35,19.35,0,0,0,.21,2.27,4.57,4.57,0,0,0,1.3,2.8l.16.1c.1.88,0,1.78.07,2.67a.14.14,0,0,0,0,.16.09.09,0,0,1,0,.07Z"/><path class="cls-52" d="M83.51,27.15a2.61,2.61,0,0,0,1.89.34.87.87,0,0,0,.24-.1A6.19,6.19,0,0,0,88.1,25.2c.1-.15.21-.3.32-.44a.2.2,0,0,0,.08-.15.05.05,0,0,1,0-.06c.18,0,.15.11.11.23a.12.12,0,0,1,0,.09.83.83,0,0,0-.07.13c-.17.38-.33.77-.5,1.15a12.14,12.14,0,0,0-1,2.89,1.92,1.92,0,0,1-.18.45,1.05,1.05,0,0,1-.44.47c-.22.1-.43,0-.65,0,0,0-.12-.06-.18-.11a3.33,3.33,0,0,0-.28-.25,1.86,1.86,0,0,0-1.54-.39l-.8.16c-.08,0-.17.12-.25.05s0-.19.06-.28a.89.89,0,0,0,.06-.2.91.91,0,0,1,.61-.77c.17-.08.2-.17.12-.35s-.15-.37-.23-.55S83.4,27.12,83.51,27.15Z"/><path class="cls-53" d="M102.43,46.77a1.37,1.37,0,0,1-1.25-1.84.91.91,0,0,1,.41-.5c.06,0,.14,0,.17-.11a.52.52,0,0,1,.63-.18,1.52,1.52,0,0,1,1.1,1.84A1.1,1.1,0,0,1,102.43,46.77Z"/><path class="cls-53" d="M91.65,43.87a1.26,1.26,0,1,1-1.23,1.18A1.2,1.2,0,0,1,91.65,43.87Z"/><path class="cls-7" d="M108.57,60a.66.66,0,0,1-.24.28.31.31,0,0,1-.2.06c-.41-.05-.81-.08-1.22-.1a.32.32,0,0,1-.16,0c-.39-.29-.82-.16-1.24-.12-.13,0-.25.06-.38.06h-2.71A.42.42,0,0,1,102,60a.41.41,0,0,1,.36-.21c.44-.07.89-.14,1.34-.19s1-.08,1.57-.14c.87-.09,1.74-.09,2.61-.11h.38a.27.27,0,0,1,.24.19,3.57,3.57,0,0,1,.16.46A.08.08,0,0,1,108.57,60Z"/><path class="cls-53" d="M106.54,45.63l-.87,0a.29.29,0,0,1-.31-.25,5.47,5.47,0,0,1-.15-.58.73.73,0,0,1,.87-.89,2.15,2.15,0,0,1,.78.24l.47.27c.31.11.57.29.51.65s-.38.39-.66.45S106.75,45.54,106.54,45.63Z"/><path class="cls-54" d="M107,32.64c.11.36.21.73.33,1.08a4,4,0,0,0,.75,1.31,1.61,1.61,0,0,0,1.31.65c.12,0,.25-.08.25.12a.77.77,0,0,1-.33.36,3.33,3.33,0,0,0-1,.74c-.18,0-.19-.15-.23-.23a7.28,7.28,0,0,0-.67-1.06,1.54,1.54,0,0,1-.27-.58,11.33,11.33,0,0,1-.3-1.82C106.89,33,106.7,32.78,107,32.64Z"/><path class="cls-55" d="M86.34,44.35c.12-.08.25-.15.37-.24a2.06,2.06,0,0,1,1.13-.35.68.68,0,0,1,.77.76,1.94,1.94,0,0,1-.12.53.51.51,0,0,1-.45.34,3.65,3.65,0,0,1-.81-.08c-.21-.14-.47,0-.67-.12h0c-.09-.09-.24,0-.33-.1h0c0-.07-.15-.05-.21-.11h0C85.7,44.55,86.11,44.5,86.34,44.35Z"/><path class="cls-56" d="M91.68,37.23a4.51,4.51,0,0,1,.22.44,3.28,3.28,0,0,0,.83,1.12,2.48,2.48,0,0,0,1.58.79l.21,0a.12.12,0,0,1,.1.16.54.54,0,0,1-.73.44,1.09,1.09,0,0,1-.34-.17,1.48,1.48,0,0,0-.81-.29l-.59-.11a.31.31,0,0,1-.28-.29c-.09-.62-.2-1.25-.3-1.88C91.55,37.36,91.47,37.23,91.68,37.23Z"/><path class="cls-54" d="M97.47,48.76a.93.93,0,0,1-.7.42.78.78,0,0,1-.77-.5.76.76,0,0,1-.06-.26,5.18,5.18,0,0,1,.16-1.88.88.88,0,0,1,.54-.64c.07,0,.15,0,.2,0a.17.17,0,0,1,0,.14,4.27,4.27,0,0,0-.22,1.5,1.34,1.34,0,0,0,.08.48.79.79,0,0,0,.59.58C97.35,48.64,97.44,48.64,97.47,48.76Z"/><path class="cls-57" d="M91.27,50.66A5.85,5.85,0,0,0,90,48.09c-.21-.25-.29-.58-.53-.81.07-.18.22-.15.33-.15a.77.77,0,0,1,.47.12,1.33,1.33,0,0,1,.43.42,4.71,4.71,0,0,1,.75,2.63,1.54,1.54,0,0,1-.09.37S91.3,50.72,91.27,50.66Z"/><path class="cls-56" d="M109.64,35.8a.3.3,0,0,0-.25-.12,1.67,1.67,0,0,0,.92-.87c0-.1.13-.11.22,0a1.28,1.28,0,0,1,.42.62,2.68,2.68,0,0,1,0,1.91l-.18.51a.5.5,0,0,0-.08.07s-.08.06-.1,0a.78.78,0,0,0,0-.16,1.47,1.47,0,0,0-.36-1.3,1.2,1.2,0,0,1-.21-.54c-.05-.18-.1-.2-.3-.1Z"/><path class="cls-58" d="M107.42,39.32a2.46,2.46,0,0,1-.94-1.1,5.12,5.12,0,0,1-.55-2,25.16,25.16,0,0,1-.12-3.25,2.68,2.68,0,0,1,.11-.85c.14.1.11.25.11.4v1.74a4.88,4.88,0,0,0,.09,1.08c.11.57.16,1.15.24,1.72a1.13,1.13,0,0,0,.06.32c.15.37.29.74.47,1.1a.89.89,0,0,0,.61.57.15.15,0,0,1,.12.16C107.61,39.3,107.5,39.29,107.42,39.32Z"/><path class="cls-59" d="M97.48,36.68a.48.48,0,0,1,0,.37c-.15.69-.31,1.38-.48,2.06a.5.5,0,0,1-.08.14A10.57,10.57,0,0,1,96.31,37,.92.92,0,0,1,97.48,36.68Z"/><path class="cls-60" d="M97.48,36.68a2.63,2.63,0,0,0-1.17.33l-.1,0c-.1,0-.13,0-.09-.1a1,1,0,0,1,.14-.21,1.79,1.79,0,0,0,.81-1c.12-.34-.06-.72.15-1.06s.08-.58.4-.72c.16,0,.17.13.1.26a5.65,5.65,0,0,0-.11,1.74.17.17,0,0,1,0,.23c.06.16.2.24.33.34a.23.23,0,0,1,.09.24.17.17,0,0,1-.23.15A3.37,3.37,0,0,1,97.48,36.68Z"/><path class="cls-56" d="M85,43.3a1.76,1.76,0,0,1,.35-.15A7.64,7.64,0,0,0,87,42.71a.25.25,0,0,1,.08.21A1.2,1.2,0,0,1,86.4,44s0,0-.07.08S86.12,44,86,44C85.74,43.68,85.27,43.67,85,43.3Z"/><path class="cls-61" d="M103.4,26.29a3.22,3.22,0,0,0,.74.64.26.26,0,0,1,.15.27,1.56,1.56,0,0,1,0,.43.54.54,0,0,1-.71.4.28.28,0,0,1-.23-.32,6.88,6.88,0,0,0,0-1.2C103.24,26.4,103.2,26.28,103.4,26.29Z"/><path class="cls-56" d="M107.46,44.3s-.07-.09-.12-.11c-.51-.21-.51-.69-.57-1.13,0-.09.06-.12.14-.09l.21.05c.09.1.23,0,.33.1a.1.1,0,0,0,.09,0c.09.06.18,0,.26,0l.13.05a1.9,1.9,0,0,0,.41,0l.14,0c.08.05.18.09.2.2-.16.45-.71.42-1,.76C107.64,44.31,107.56,44.4,107.46,44.3Z"/><path class="cls-62" d="M87.86,31.65a3.13,3.13,0,0,1,.13.91,27.7,27.7,0,0,1-.12,3.53,1.87,1.87,0,0,1-.12.58c-.11-.09-.1-.22-.1-.35a11.85,11.85,0,0,1,0-1.46,26.8,26.8,0,0,0,.1-3A.33.33,0,0,1,87.86,31.65Z"/><path class="cls-63" d="M89.57,51.39a.39.39,0,0,1-.31-.21,4.2,4.2,0,0,1-.76-2.4,1.26,1.26,0,0,1,.16-.63.12.12,0,0,1,.14,0,.24.24,0,0,1,.2.17s0,.08,0,.09c-.33.23-.27.52-.15.83.22.58.43,1.16.64,1.74C89.53,51.08,89.64,51.22,89.57,51.39Z"/><path class="cls-64" d="M101.14,50a.14.14,0,0,1,0-.08.27.27,0,0,0-.09-.12,2.64,2.64,0,0,0-.77-.68.2.2,0,0,1-.13-.21,1.65,1.65,0,0,1,.47-.95c.1-.09.2-.06.23.07.11.48.21,1,.31,1.43.06.07,0,.16.08.23a.17.17,0,0,1,0,.1C101.26,49.89,101.32,50,101.14,50Z"/><path class="cls-65" d="M92,30.33a.47.47,0,0,1,.4.2.54.54,0,0,1,0,.61.61.61,0,0,1-.54.39.29.29,0,0,1-.2-.05.7.7,0,0,1-.31-.69A.64.64,0,0,1,92,30.33Z"/><path class="cls-66" d="M101.28,29.46a.6.6,0,0,1,.55.72c-.06.28-.31.51-.51.47a.68.68,0,0,1-.52-.68A.53.53,0,0,1,101.28,29.46Z"/><path class="cls-67" d="M101.77,50.55l.4,0a2.7,2.7,0,0,1,0,1.49.85.85,0,0,1-.15.28.16.16,0,0,1-.12.08c-.07,0-.08-.06-.08-.11a4.49,4.49,0,0,0-.3-1.54C101.51,50.49,101.62,50.49,101.77,50.55Z"/><path class="cls-68" d="M107.65,44.19a.25.25,0,0,1,.16-.2l.71-.38a.2.2,0,0,0,.13-.15c-.05-.07-.15-.05-.21-.11h0c-.18-.13-.41,0-.6-.1h0s-.11-.05-.12-.12a.37.37,0,0,1,0-.11l1.37.25c.15,0,.39,0,.42.17s-.21.18-.35.24a3.23,3.23,0,0,0-.75.41,1.21,1.21,0,0,1-.47.26C107.75,44.4,107.64,44.4,107.65,44.19Z"/><path class="cls-69" d="M89.74,35.36a16,16,0,0,1-1-2.29,4.65,4.65,0,0,1-.34-1l0-.4a.92.92,0,0,1,.12.16,2.5,2.5,0,0,1,.09.25c.3,1,.7,1.92,1.09,2.87C89.81,35.11,89.89,35.24,89.74,35.36Z"/><path class="cls-70" d="M107.65,44.19a.26.26,0,0,0,.25.15c-.06.09-.23.14-.07.29a1.7,1.7,0,0,1,.26.34c.2.36.2.36-.2.52a3,3,0,0,1-.88.25c-.13-.15-.31-.07-.47-.11l.19-.09c.19,0,.39-.08.57-.14s.43-.08.5-.28-.16-.33-.29-.47l-.18-.19.13-.16Z"/><path class="cls-71" d="M86.89,42.51c.07,0,.21,0,.22-.14,0-.33.36-.46.55-.67a1.23,1.23,0,0,1,1.19-.33s.05.05,0,.08,0,0,0,0a2,2,0,0,0-.87.32.26.26,0,0,1-.09.14.2.2,0,0,1-.15.08,1.15,1.15,0,0,1-.6.53A.24.24,0,0,1,86.89,42.51Z"/><path class="cls-72" d="M88.65,24.78c0-.09,0-.18-.11-.23.21-.48.42-.95.64-1.42a.3.3,0,0,1,.33-.21A9.86,9.86,0,0,1,88.65,24.78Z"/><path class="cls-73" d="M102.36,23.68l-.58-.72a.18.18,0,0,1,0-.21,1.21,1.21,0,0,1,.21-.24c.14-.11.26-.06.33.11A1.57,1.57,0,0,1,102.36,23.68Z"/><path class="cls-74" d="M85,43.3a3.54,3.54,0,0,1,1.08.59c.09.24,0,.31-.22.22a1.21,1.21,0,0,1-.2-.09,7.46,7.46,0,0,0-.9-.55A.27.27,0,0,0,85,43.3Z"/><path class="cls-75" d="M88.85,41.49v-.12a1.35,1.35,0,0,1,.49,0c.43,0,.43,0,.56-.4l.18-.57a.39.39,0,0,1,.08.36c0,.21-.08.42-.12.62a.22.22,0,0,1-.28.18A3.49,3.49,0,0,0,88.85,41.49Z"/><path class="cls-76" d="M107.65,42.09a2.44,2.44,0,0,1-.06-.26c0-.81,0-1.61,0-2.41a.3.3,0,0,1,.09.24C107.66,40.47,107.66,41.28,107.65,42.09Z"/><path class="cls-77" d="M86.78,38.76a.82.82,0,0,1-.36.33s-.13,0-.18.1h0c-.26,0-.15-.2-.11-.33.28-.31.41-.35.76-.23h0Z"/><path class="cls-78" d="M85.9,44.11c.14,0,.21-.08.22-.22.11,0,.08.21.21.21s-.1.17,0,.25a4,4,0,0,1-.28.3A.27.27,0,0,0,86,45h-.33c0-.24.13-.39.27-.55S86.06,44.29,85.9,44.11Z"/><path class="cls-79" d="M106,47.49h-.19c0-.14-.06-.29-.11-.42a.28.28,0,0,1,.13-.32.21.21,0,0,1,.23-.09.28.28,0,0,1,.13.11.84.84,0,0,1-.16.73Z"/><path class="cls-80" d="M104,41.6l1.23,0a.56.56,0,0,1,.5.13h-1.59C104.09,41.71,104,41.7,104,41.6Z"/><path class="cls-81" d="M107,32.64a.26.26,0,0,0-.09.22c0,.12,0,.23,0,.35a2.73,2.73,0,0,1-.06-1.38l.07.07A3.66,3.66,0,0,1,107,32.64Z"/><path class="cls-82" d="M90.41,34.58c-.09-.16-.18-.31-.26-.47s-.05-.1,0-.14a.17.17,0,0,1,.2,0,.3.3,0,0,1,.09.13c0,.12,0,.24.08.37S90.52,34.61,90.41,34.58Z"/><path class="cls-83" d="M105.93,41.79a.35.35,0,0,1,.23.12,1.57,1.57,0,0,1,.19.26c.06.1.23,0,.23.18s-.21.13-.27,0S106,42,105.93,41.79Z"/><path class="cls-84" d="M86.12,38.87c0,.12,0,.24.11.33v.32c0,.08-.09.14-.19.1l0-.75Z"/><path class="cls-85" d="M101.14,50l.08-.21.3.56c0,.06,0,.13-.11.14A1.39,1.39,0,0,1,101.14,50Z"/><path class="cls-86" d="M91.68,37.23c-.09.06-.08.16-.11.24a.44.44,0,0,1-.11-.33c0-.12-.09-.25.12-.24A.54.54,0,0,1,91.68,37.23Z"/><path class="cls-76" d="M107.79,40.37a1.51,1.51,0,0,1,.08.79q0,.08-.09,0Z"/><path class="cls-78" d="M86.56,45.19c.22,0,.47,0,.67.12h-.46A.24.24,0,0,1,86.56,45.19Z"/><path class="cls-87" d="M107.72,42.36l0-.11a.28.28,0,0,0,.09-.23.24.24,0,0,1,.11-.21c0,.11,0,.22,0,.32A.25.25,0,0,1,107.72,42.36Z"/><path class="cls-88" d="M97.61,36.14v-.23l.21-.22C97.82,35.87,97.84,36.06,97.61,36.14Z"/><path class="cls-89" d="M90.62,34.7a.3.3,0,0,1,.09.28.18.18,0,0,1,0,.07s-.06,0-.07-.06l-.09-.18C90.53,34.76,90.55,34.7,90.62,34.7Z"/><path class="cls-90" d="M106.38,46.09a.84.84,0,0,1,.09-.19.09.09,0,0,1,.14,0s0,.06,0,.09-.06.17-.17.18A.16.16,0,0,1,106.38,46.09Z"/><path class="cls-91" d="M103.4,26.29c-.11,0-.08.15-.12.22a.31.31,0,0,1-.1-.24.83.83,0,0,1,0-.15l.14.08A.25.25,0,0,1,103.4,26.29Z"/><path class="cls-74" d="M84.56,43.12a.83.83,0,0,1,.57-.1C85,43.2,84.76,43.11,84.56,43.12Z"/><path class="cls-92" d="M91.58,36.9c-.1.05-.1.15-.12.24a.58.58,0,0,1-.11-.34c0-.11,0-.14.13-.12Z"/><path class="cls-93" d="M91.39,50.76s0,.08.07.13,0,.15-.07.16-.12-.08-.11-.17S91.32,50.77,91.39,50.76Z"/><path class="cls-94" d="M101.41,50.49l.11-.14.25.2c-.1,0-.2,0-.25.15A.26.26,0,0,1,101.41,50.49Z"/><path class="cls-95" d="M106,46.73l-.18,0-.06-.08c.07-.12.19-.14.35-.07S106.06,46.7,106,46.73Z"/><path class="cls-87" d="M107.78,41.16h.09a1.68,1.68,0,0,1,0,.55C107.71,41.55,107.8,41.34,107.78,41.16Z"/><path class="cls-96" d="M91.48,36.68l-.13.12a.43.43,0,0,1-.11-.34.08.08,0,0,1,.13,0Z"/><path class="cls-97" d="M90.62,34.7l-.12.11-.09-.23.12-.11A.32.32,0,0,1,90.62,34.7Z"/><path class="cls-98" d="M83.51,27.15l-.14.13a.19.19,0,0,1-.1-.17.12.12,0,0,1,0-.1c0-.05.09,0,.13,0A.94.94,0,0,1,83.51,27.15Z"/><path class="cls-74" d="M84.48,43.34c-.09,0-.19,0-.17-.13s.1-.09.17-.08Z"/><path class="cls-99" d="M106.55,46.45l-.16.19a.1.1,0,0,1-.1,0l0-.05A.29.29,0,0,1,106.55,46.45Z"/><path class="cls-78" d="M85.79,45.2c-.08,0-.17,0-.2-.08s0-.11.09-.14Z"/><path class="cls-100" d="M97.94,50.13c-.08.13-.21.1-.34.1C97.68,50.1,97.81,50.13,97.94,50.13Z"/><path class="cls-101" d="M108.57,60l.06-.08h.13C108.74,60.12,108.74,60.12,108.57,60Z"/><path class="cls-102" d="M107.45,43.12a.34.34,0,0,1-.33-.1A.32.32,0,0,1,107.45,43.12Z"/><path class="cls-78" d="M86.45,45.42a.32.32,0,0,1-.33-.11C86.24,45.31,86.37,45.3,86.45,45.42Z"/><path class="cls-83" d="M106.58,42.35c.1.09.09.23.14.33C106.55,42.63,106.58,42.49,106.58,42.35Z"/><path class="cls-103" d="M91.37,36.46h-.13c-.06-.05-.11-.1,0-.16s.08,0,.11.07S91.35,36.43,91.37,36.46Z"/><path class="cls-104" d="M87.74,42l.11-.11a.09.09,0,0,1,.13,0,.48.48,0,0,1-.1.17C87.81,42.15,87.77,42.1,87.74,42Z"/><path class="cls-78" d="M86.23,45.1c.12,0,.25,0,.33.1C86.44,45.21,86.31,45.23,86.23,45.1Z"/><path class="cls-105" d="M91.39,50.76l-.11.12v-.22h.1A.1.1,0,0,1,91.39,50.76Z"/><path class="cls-106" d="M106,46.73l.11-.12h.12c0,.11,0,.14-.11.11Z"/><path class="cls-78" d="M86.77,45.52a.27.27,0,0,1-.24-.08A.2.2,0,0,1,86.77,45.52Z"/><path class="cls-78" d="M86.12,45.31a.25.25,0,0,1-.23-.1A.21.21,0,0,1,86.12,45.31Z"/><path class="cls-78" d="M86,45a.25.25,0,0,1,.21.11A.2.2,0,0,1,86,45Z"/><path class="cls-85" d="M101.19,49.69a.2.2,0,0,1-.08-.23A.21.21,0,0,1,101.19,49.69Z"/><path class="cls-74" d="M84.8,43.47a.32.32,0,0,1-.24-.11A.2.2,0,0,1,84.8,43.47Z"/><path class="cls-102" d="M107.67,43.12l.12.12a.27.27,0,0,1-.25-.1Z"/><path class="cls-107" d="M88,41.92h-.13l.13-.11S88.08,41.88,88,41.92Z"/><path class="cls-34" d="M100.59,21.62a.11.11,0,0,1,.08,0v.12a.09.09,0,0,1,0,.07s0,0,0,0h0A.17.17,0,0,1,100.59,21.62Z"/><path class="cls-100" d="M98,50.12h-.1C98,50.07,98,50.05,98,50.12Z"/><path class="cls-85" d="M101,49.8c.06,0,.1.05.09.12A.12.12,0,0,1,101,49.8Z"/><path class="cls-108" d="M106.38,46.09l.07.07C106.38,46.18,106.35,46.16,106.38,46.09Z"/><path class="cls-102" d="M107.57,42.93a.06.06,0,0,1,.07,0l0,.09Z"/><path class="cls-72" d="M88.54,25a.12.12,0,0,1,.07-.13A.11.11,0,0,1,88.54,25Z"/><path class="cls-72" d="M88.5,24.61a.13.13,0,0,1-.08.15A.13.13,0,0,1,88.5,24.61Z"/><path class="cls-36" d="M100.68,21.82v-.11h.13A.14.14,0,0,1,100.68,21.82Z"/><path class="cls-36" d="M101,21.6a.09.09,0,0,1-.1.06A.08.08,0,0,1,101,21.6Z"/><path class="cls-1" d="M92,59.85l0-.08s0,0,0,0Z"/><path class="cls-109" d="M123.75,70.79a5.65,5.65,0,0,1-.29-1.28c-.12-.86-.23-1.73-.27-2.6s-.12-1.82-.17-2.73c0-.6,0-1.2,0-1.8l0-8.85c0-.76.07-1.53,0-2.29a7.48,7.48,0,0,0-.32-1.88,3,3,0,0,1-.06-.32c-.09-.1,0-.24-.1-.34a.08.08,0,0,1,0-.08c0-.11-.08-.23.11-.24a.13.13,0,0,1,0,.08.91.91,0,0,0,.07.14,7.87,7.87,0,0,1,.8,3.41c0,1.18.07,2.36.12,3.54,0,.44.06.88.12,1.31a15.4,15.4,0,0,1,0,2.88c0,.33,0,.66,0,1,0,1.11,0,2.22,0,3.33,0,1.45,0,2.91,0,4.36,0,.71,0,1.42.07,2.12C123.9,70.65,124,70.78,123.75,70.79Z"/><path class="cls-110" d="M124.5,62.6c.1,1,.21,1.94.3,2.92a4.84,4.84,0,0,1,0,.76c0,1,.1,2,.13,3,0,.5,0,1,.06,1.52s.08.76.15,1.13c0,.12.1.24-.11.22a5.59,5.59,0,0,1-.7-2.77c0-1.65,0-3.31,0-5a16.27,16.27,0,0,1,0-1.71C124.35,62.67,124.38,62.59,124.5,62.6Z"/><path class="cls-111" d="M122.75,68.17c.12,1,.28,2,.5,3,.07.3.1.61.18.91a2.24,2.24,0,0,0,.65,1.17,5.19,5.19,0,0,0,.85.84c-.14.26-.35.1-.54.08l-.37-.07a.91.91,0,0,1-.65-.6,6.83,6.83,0,0,1-.48-1.77c-.1-.86-.17-1.72-.25-2.58a3.7,3.7,0,0,1,0-.94C122.64,68.15,122.68,68.13,122.75,68.17Z"/><path class="cls-112" d="M123.75,70.79c.1-.06.1-.16.12-.25a.37.37,0,0,1,.07.14,7,7,0,0,0,.73,2,2.19,2.19,0,0,0,.79.81.71.71,0,0,1,.15.08.09.09,0,0,1,0,.09s0,0-.07,0a.63.63,0,0,1-.55-.19c-.27-.3-.55-.59-.8-.89a1.66,1.66,0,0,1-.3-.71A5.32,5.32,0,0,1,123.75,70.79Z"/><path class="cls-113" d="M121.24,49.79a6.23,6.23,0,0,0-1.31-1.54c0-.1,0-.16.12-.12a1.84,1.84,0,0,1,1.31,1.53C121.41,49.78,121.34,49.81,121.24,49.79Z"/><path class="cls-114" d="M124.2,54.72l0-1.19a1,1,0,0,1,0-.42c0-.06.08-.07.14,0a18,18,0,0,1,.12,3.28s-.07,0-.1,0l0-.3C124.17,55.62,124.31,55.16,124.2,54.72Z"/><path class="cls-115" d="M124.5,62.6a.36.36,0,0,0-.09.3v1c0,.2,0,.4,0,.6a2.5,2.5,0,0,1-.07-.26c0-.73,0-1.45,0-2.17.13-.37-.06-.76.11-1.13a.77.77,0,0,1,.07.36C124.5,61.71,124.5,62.16,124.5,62.6Z"/><path class="cls-116" d="M121.24,49.79l.12-.13a4,4,0,0,1,.43,1.34,2.7,2.7,0,0,1,0,.85.12.12,0,0,1-.17,0,.85.85,0,0,1-.07-.47A3.6,3.6,0,0,0,121.24,49.79Z"/><path class="cls-117" d="M124.2,53.08l0,.45a.79.79,0,0,1-.08-.48c0-.41,0-.83,0-1.25a4.75,4.75,0,0,0-.09-1.13q0-.08.09,0c0,.06.09.13.09.19a11.88,11.88,0,0,0,.12,1.79,1.62,1.62,0,0,1,0,.22C124.22,52.93,124.26,53,124.2,53.08Z"/><path class="cls-118" d="M122.66,68.17l0,1a.65.65,0,0,1-.09-.47c0-.76,0-1.51,0-2.27,0,0,.06-.06.09,0a5.43,5.43,0,0,1,.1,1.33C122.65,67.87,122.76,68,122.66,68.17Z"/><path class="cls-119" d="M121.87,55.05h-.09c0-.14,0-.28,0-.42a3.21,3.21,0,0,0-.09-1.07,1.13,1.13,0,0,1,0-.26c.07-.08,0-.17,0-.26a.28.28,0,0,1,0-.2s.08,0,.11,0Z"/><path class="cls-120" d="M122.32,50.34a.84.84,0,0,1,.11.41v1.68s0,.06-.05.09,0-.16,0-.25c0-.34,0-.68,0-1a3.1,3.1,0,0,0-.1-.91Q122.28,50.27,122.32,50.34Z"/><path class="cls-121" d="M122.64,48.38c-.09.06-.09.15-.11.24a2.72,2.72,0,0,0-.64-.93c0-.08,0-.16.14-.1A1.16,1.16,0,0,1,122.64,48.38Z"/><path class="cls-122" d="M124.42,60.91c0,.28,0,.56,0,.84a.34.34,0,0,1-.09.29,16,16,0,0,1,0-2s.06-.06.09,0Z"/><path class="cls-5" d="M121.88,52.87l-.08,0a1.78,1.78,0,0,1,0-1l0-.88a.42.42,0,0,1,.1.35C121.89,51.86,121.89,52.36,121.88,52.87Z"/><path class="cls-123" d="M118.86,47.06V47c.12-.08.25,0,.37-.05a3.52,3.52,0,0,1,.86.05h0c.1.11.26,0,.37.1a.06.06,0,0,1,.07,0c.06,0,.06.07,0,.12a1.13,1.13,0,0,1-.32,0A3.89,3.89,0,0,0,118.86,47.06Z"/><path class="cls-124" d="M123.77,49.57l-.36-1c0-.11,0-.14.11-.11a2,2,0,0,1,.35,1C123.92,49.57,123.86,49.58,123.77,49.57Z"/><path class="cls-125" d="M121.46,48.13a1,1,0,0,1,.44.66c0,.1.11.23-.1.23a5,5,0,0,0-.51-.86A.14.14,0,0,1,121.46,48.13Z"/><path class="cls-126" d="M122,47.59l-.14.1-.67-.39c0-.07.07-.08.11-.11A2,2,0,0,1,122,47.59Z"/><path class="cls-127" d="M124.2,54.72a.36.36,0,0,1,.09.3c0,.35,0,.69,0,1A3.78,3.78,0,0,1,124.2,54.72Z"/><path class="cls-128" d="M121.8,49a.29.29,0,0,0,.1-.23,2.07,2.07,0,0,1,.22.77c0,.11,0,.13-.1.11Z"/><path class="cls-129" d="M125.07,72.2c.09,0,.09-.14.11-.22a1.66,1.66,0,0,1,.22.75A.68.68,0,0,1,125.07,72.2Z"/><path class="cls-130" d="M124.39,74.18c.18-.05.38.06.54-.08a.36.36,0,0,1,.24.11A.86.86,0,0,1,124.39,74.18Z"/><path class="cls-131" d="M123.77,49.57l.1-.12a.84.84,0,0,1,.1.56.16.16,0,0,1,0,.23.32.32,0,0,1-.1-.22Z"/><path class="cls-132" d="M120.05,48.13l-.12.12a3.66,3.66,0,0,0-.55-.21s0,0,0-.07,0,0,0,0A1.29,1.29,0,0,1,120.05,48.13Z"/><path class="cls-133" d="M121.46,48.13l-.17,0a.44.44,0,0,1-.34-.31A.74.74,0,0,1,121.46,48.13Z"/><path class="cls-134" d="M120.08,47h-.92s0,0,0-.06,0,0,0,0A2.45,2.45,0,0,1,120.08,47Z"/><path class="cls-135" d="M122.65,66.41h-.09c0-.26,0-.51,0-.77,0-.05.07-.05.1,0Z"/><path class="cls-136" d="M124.4,60.07h-.09v-.64A1,1,0,0,1,124.4,60.07Z"/><path class="cls-137" d="M124,50.24V50c.16.2.1.44.11.66H124Z"/><path class="cls-138" d="M122.32,50.34h-.09l-.1-.34s0-.1.1-.11S122.33,50.18,122.32,50.34Z"/><path class="cls-139" d="M120.79,47.07a.51.51,0,0,1,.46.1c-.09.1-.22,0-.33.06l-.13,0C120.73,47.15,120.73,47.11,120.79,47.07Z"/><path class="cls-140" d="M122.65,65.65h-.1a.74.74,0,0,1,0-.46A.92.92,0,0,1,122.65,65.65Z"/><path class="cls-141" d="M124.4,56.68a.73.73,0,0,1-.05.46.81.81,0,0,1,0-.46S124.37,56.64,124.4,56.68Z"/><path class="cls-142" d="M122.23,49.89l-.1.11-.11-.33.1-.11A.44.44,0,0,1,122.23,49.89Z"/><path class="cls-143" d="M119.15,46.85a.28.28,0,0,0,0,.09h-.31v-.21Z"/><path class="cls-144" d="M119.36,47.93l0,.11h-.44a.09.09,0,0,1,0-.1Z"/><path class="cls-145" d="M122.66,68.17c0-.15-.06-.31.09-.43v.43h-.09Z"/><path class="cls-146" d="M123.52,48.49l-.11.11a1.51,1.51,0,0,1-.1-.17.08.08,0,0,1,.06-.11s.06,0,.08,0A.54.54,0,0,1,123.52,48.49Z"/><path class="cls-147" d="M120.92,47.23c.1-.08.22,0,.33-.06a.08.08,0,0,1,.08,0l-.11.11Z"/><path class="cls-148" d="M120.5,47.05c-.14,0-.28,0-.37-.1A.55.55,0,0,1,120.5,47.05Z"/><path class="cls-121" d="M122.55,48.7c.12.09.11.21.1.34A.35.35,0,0,1,122.55,48.7Z"/><path class="cls-149" d="M124.4,56.68h-.1v-.32h.1Z"/><path class="cls-150" d="M124.2,53.08a.18.18,0,0,1,.08-.21v.21Z"/><path class="cls-148" d="M120.79,47.07v.13l-.21,0v-.12Z"/><path class="cls-121" d="M122.74,48.6a.12.12,0,0,1-.07-.14A.13.13,0,0,1,122.74,48.6Z"/><path class="cls-151" d="M108.85,49.56a.31.31,0,0,0,.11-.27c0-.25,0-.34.24-.41a.87.87,0,0,1,.32-.06,7.7,7.7,0,0,0,2-.24,1.16,1.16,0,0,1-1.37.37.3.3,0,0,0-.34.11,1.87,1.87,0,0,1-.72.47A.76.76,0,0,1,108.85,49.56Z"/><path class="cls-152" d="M113.38,46.57a.12.12,0,0,1-.08,0s0,0-.08,0,0,0,.08,0A.12.12,0,0,1,113.38,46.57Z"/><path class="cls-153" d="M107.67,48.59a.41.41,0,0,1,.12.33l-.13-.11Z"/><path class="cls-154" d="M118.58,48.06s0,.06-.08,0l0-.09s.08,0,.1,0S118.57,48,118.58,48.06Z"/><path class="cls-121" d="M121.76,51.88c0,.32,0,.64,0,1l0,.21c0,.06,0,.06-.08,0a6.76,6.76,0,0,1,0-1.19Z"/><path class="cls-155" d="M121.68,53.07h.08a.21.21,0,0,1-.08.23Z"/><path class="cls-3" d="M103,11.77a.16.16,0,0,0,0,.09,1.31,1.31,0,0,0,.38.43.09.09,0,0,1-.12.07l-1-.22a.3.3,0,0,0-.16,0,.26.26,0,0,0-.13.08.14.14,0,0,0,0,.09,2.85,2.85,0,0,1,.7,1.84c.12.81.15,1.63.24,2.44a12.4,12.4,0,0,0,.28,2.43c.06.18,0,.27-.22.29l-1.72.22c-.14,0-.22,0-.22-.18a2.07,2.07,0,0,1,0-.43,19.14,19.14,0,0,0,.11-2.83,9.79,9.79,0,0,0-.36-2.8,3.65,3.65,0,0,0-.53-1.19l-.17-.22a1.63,1.63,0,0,0-2.15-.41c-.11.06-.22.14-.33.19a.41.41,0,0,0-.21.55.12.12,0,0,0,0,.1c0,.27,0,.58-.24.65s-.34-.26-.46-.46-.06-.17-.17-.19c-.41.75-.41.75-1,.13s-1-.54-1.42.1A3.86,3.86,0,0,0,93.49,14a11.59,11.59,0,0,0,.11,5.24c.05.21,0,.43.07.63s0,.3-.23.34l-1.22.19-1.07.14c-.09,0-.18,0-.2-.14-.08-.41-.18-.82-.23-1.24a12.29,12.29,0,0,1,0-3.09,10.55,10.55,0,0,1,.45-2,4.94,4.94,0,0,1,.62-1.21,1.67,1.67,0,0,1,.5-.49,7.23,7.23,0,0,1,.84-.51,6.41,6.41,0,0,0,1.43-1A14.94,14.94,0,0,0,97.24,7.7,15,15,0,0,0,98.6,5.09c0-.08.08-.15.12-.24.13.09.08.2.09.29s0,.22,0,.33,0,.18,0,.27,0,.22,0,.32,0,.22,0,.33a3.58,3.58,0,0,0,0,.8A7,7,0,0,1,99,8c0,.08,0,.18.1.23a.24.24,0,0,0,.28-.1s0-.06.06-.09a12.6,12.6,0,0,0,1.43-1.4l.64-.57c.11,0,.16,0,.13.12l-.78,2.19a1.49,1.49,0,0,0-.21.72c0,.26.31.38.45.59a3.12,3.12,0,0,0,.6.66.07.07,0,0,1,.06.1,2,2,0,0,0,.49.55.08.08,0,0,1,.06.1,1.89,1.89,0,0,0,.49.56A.18.18,0,0,1,103,11.77Z"/><path class="cls-46" d="M97.49,12.3c.12-.48.52-.64.93-.74a1.24,1.24,0,0,1,1.23.26,2.66,2.66,0,0,1,.57.79,6.46,6.46,0,0,1,.55,1.88,16.47,16.47,0,0,1,0,4c0,.11,0,.22,0,.33a2.35,2.35,0,0,1-.44,1.32l-.23.21a5.71,5.71,0,0,1-1.52,1.11,1.25,1.25,0,0,1-.63.31c-.13,0-.26.07-.39.1a1.72,1.72,0,0,1-.32,0h-.58a1.77,1.77,0,0,1-.32,0c-.12,0-.24-.07-.36-.09l-.14,0-.53-.19-.13,0c-.12-.07-.25-.13-.36-.21l-.35-.23a1,1,0,0,1-.38-.39L94,20.56s-.09-.11-.07-.14c.19-.3,0-.54-.12-.8a2.9,2.9,0,0,1-.4-1.34,11.59,11.59,0,0,1,.14-4.43,4,4,0,0,1,.49-1.2c.5-.78,1.17-.79,1.68,0a6.49,6.49,0,0,0,.37.6,3.72,3.72,0,0,1,.2-.5c0-.12,0-.33.24-.32s.23.17.3.3.08.16.13.23.26.2.34,0A2,2,0,0,1,97.49,12.3Z"/><path class="cls-156" d="M97.49,12.3a3.4,3.4,0,0,1-.23.94.19.19,0,0,1-.18.17c-.12,0-.14-.1-.18-.18a8.51,8.51,0,0,0-.39-.82c-.13.12-.13.25-.18.36s-.07.2-.12.3a2.72,2.72,0,0,1-.16.35.56.56,0,0,1-.25-.34,2.53,2.53,0,0,0-.38-.6.66.66,0,0,0-1.14,0,2.37,2.37,0,0,0-.4.71,7.39,7.39,0,0,0-.43,1.74,11.36,11.36,0,0,0,.31,4.53.86.86,0,0,1,0,.16.23.23,0,0,0-.1.22,5.4,5.4,0,0,1-.43-1.62,12.62,12.62,0,0,1-.12-2.61,8.26,8.26,0,0,1,.44-2.4,3,3,0,0,1,.62-1.08.86.86,0,0,1,1.26,0,3.51,3.51,0,0,1,.54.74c.16,0,.15-.15.18-.24s.13-.37.2-.56,0-.16.13-.14a.21.21,0,0,1,.11.1c.09.18.17.36.27.54s.07.24.22.33c.2-.19.12-.51.29-.71Z"/><path class="cls-157" d="M97.94,21.7l.65-.21c0,.28-.25.34-.45.42-.07-.07-.18,0-.24-.1S97.9,21.73,97.94,21.7Z"/><path class="cls-158" d="M94.54,21a.74.74,0,0,1,.33.22v0s0,.06,0,.07a.11.11,0,0,1,0,.1l-.05,0a.72.72,0,0,1-.53-.33A.25.25,0,0,1,94.54,21Z"/><path class="cls-159" d="M97.59,22h-1a.11.11,0,0,1,0-.14,5.62,5.62,0,0,1,.58,0,1.94,1.94,0,0,1,.34,0A.08.08,0,0,1,97.59,22Z"/><path class="cls-160" d="M94.54,21c0,.1-.13.11-.22.12h0a.63.63,0,0,0-.11-.12h0c-.06-.07-.19-.11-.11-.24a.27.27,0,0,1,0-.09A1.43,1.43,0,0,1,94.54,21Z"/><path class="cls-161" d="M94.1,20.81l.11.24a.53.53,0,0,1-.39-.26s0-.07,0-.1a.17.17,0,0,1,.1,0Z"/><path class="cls-162" d="M96.61,21.93a.28.28,0,0,1,0,.09,1.29,1.29,0,0,1-.55,0c0-.1.06-.12.14-.14s.24,0,.36,0Z"/><path class="cls-163" d="M97.92,21.8c.09,0,.17,0,.22.11h-.2a.21.21,0,0,1-.23,0,.14.14,0,0,1,0-.15A.18.18,0,0,1,97.92,21.8Z"/><path class="cls-164" d="M95.43,21.79a.49.49,0,0,1-.35-.19l0-.05a.74.74,0,0,1,.21,0,.15.15,0,0,1,.1.25Z"/><path class="cls-165" d="M97.7,21.92h.24c-.09.12-.22.11-.35.1a.34.34,0,0,0,0-.1S97.67,21.87,97.7,21.92Z"/><path class="cls-166" d="M96.17,21.91l-.1.08S96,22,96,21.93a.09.09,0,0,1,0-.13.2.2,0,0,1,.22,0A.07.07,0,0,1,96.17,21.91Z"/><path class="cls-167" d="M96,21.81v.12l-.3,0-.06,0a.13.13,0,0,1,.09-.1.38.38,0,0,1,.21,0Z"/><path class="cls-168" d="M95.08,21.6a.23.23,0,0,1-.22-.11h0a.17.17,0,0,1,.22,0,.09.09,0,0,1,0,.09s0,0,0,0Z"/><path class="cls-169" d="M95.43,21.79s0-.05,0-.07.13-.08.21,0a.09.09,0,0,1,0,.09s0,0,0,0h0a.11.11,0,0,1-.12,0Z"/><path class="cls-170" d="M95.52,21.83l.12,0s0,.06,0,.09A.13.13,0,0,1,95.52,21.83Z"/><path class="cls-171" d="M94.21,21l.11.12A.15.15,0,0,1,94.21,21Z"/><path class="cls-172" d="M87.55,59.59s0,0,0,0a.33.33,0,0,1-.29,0s0,0,0,0a.39.39,0,0,1,.3,0S87.54,59.57,87.55,59.59Z"/><path class="cls-31" d="M81.86,40.91a.92.92,0,0,1,.07.26c0,.73,0,1.45,0,2.18a.35.35,0,0,1-.11-.3C81.86,42.34,81.86,41.63,81.86,40.91Z"/><path class="cls-45" d="M81.84,46.41v1.42s-.06,0-.1,0V46.76C81.74,46.63,81.73,46.5,81.84,46.41Z"/><path class="cls-47" d="M81.94,48.05a.08.08,0,0,1,0,.07l0,.11-.05,0a.22.22,0,0,1-.11-.22S81.91,48,81.94,48.05Z"/><path class="cls-47" d="M82.11,48.25a.09.09,0,0,1,.07,0,.06.06,0,0,1,0,.06s0,0,0,0a.27.27,0,0,1-.22-.11h0A.14.14,0,0,1,82.11,48.25Z"/><path class="cls-45" d="M82.18,48.38v-.1a.16.16,0,0,1,.14.08Z"/><path class="cls-45" d="M81.94,48.05h-.09v-.12A.11.11,0,0,1,81.94,48.05Z"/><path class="cls-47" d="M81.74,47.83h.1a.1.1,0,0,1,0,.1Z"/><path class="cls-45" d="M81.94,46.08a.16.16,0,0,1-.07.15A.18.18,0,0,1,81.94,46.08Z"/><path class="cls-173" d="M101.66,6.18l-.13-.12s0-.07.06-.09a.75.75,0,0,1,.13-.06.36.36,0,0,1,0,.14A.35.35,0,0,1,101.66,6.18Z"/><path class="cls-174" d="M86.11,48.48c0-.23,0-.47,0-.71a.1.1,0,0,1,.14-.11s0,.09.06.14l0,.15a.28.28,0,0,0-.1.27A.26.26,0,0,1,86.11,48.48Z"/><path class="cls-175" d="M106.14,46.73a.15.15,0,0,0,.11-.11l.14,0c0,.23,0,.46,0,.69a.85.85,0,0,0,.45.93c-.27,0-.42-.11-.56-.32s-.06-.33-.2-.43A2.93,2.93,0,0,1,106.14,46.73Z"/><path class="cls-153" d="M107.44,48.15a.75.75,0,0,1,0-.15s.06-.11.1-.12.12,0,.12.12,0,.4,0,.59a.23.23,0,0,1-.11-.22A.29.29,0,0,0,107.44,48.15Z"/><path class="cls-175" d="M106.13,48.17a.21.21,0,0,1-.08-.23A.25.25,0,0,1,106.13,48.17Z"/><path class="cls-175" d="M106.8,48.25a.31.31,0,0,1,.25.11C106.94,48.37,106.85,48.36,106.8,48.25Z"/><path class="cls-153" d="M107.31,48.47l.13-.23C107.45,48.35,107.44,48.45,107.31,48.47Z"/><path class="cls-176" d="M101.78,10.44l-.06-.1.12,0A.09.09,0,0,1,101.78,10.44Z"/><path class="cls-177" d="M102.33,11.09l-.06-.1.11,0A.06.06,0,0,1,102.33,11.09Z"/><path class="cls-178" d="M103,11.77l-.13-.12.13,0A.11.11,0,0,1,103,11.77Z"/><path class="cls-179" d="M97.72,34.17a.3.3,0,0,0-.1-.23c-.16-.21-.43-.34-.46-.64a3.11,3.11,0,0,0-.16-.49c0-.26.16-.48.17-.73l.09-.22h0c0-.08,0-.17.08-.25a.08.08,0,0,1,0-.08c.07-.07,0-.17.1-.24a.08.08,0,0,1,0-.09c0-.05.06-.08.07-.14s0-.05,0-.07c.19,0,.15.12.1.23a.09.09,0,0,1,0,.09c-.06.07,0,.17-.09.23a.12.12,0,0,1,0,.1,1.12,1.12,0,0,0-.08.26l0,.18a1.91,1.91,0,0,0,0,1c.08.12.12.28.23.34s.23.32.12.53Z"/><path class="cls-180" d="M97.37,34.67a.84.84,0,0,0-.2.63.39.39,0,0,1-.1.39,5.81,5.81,0,0,0,0-.59,1.34,1.34,0,0,0-.27-.74.87.87,0,0,0-.64-.35s0,0-.06-.07.14,0,.19-.11l.22-.13c.09-.05.18-.09.21-.2s0-.15.1-.21a.05.05,0,0,0,0-.08c0-.06.05-.08.11-.06a.27.27,0,0,1,.16.17A1.34,1.34,0,0,0,97.37,34.67Z"/><path class="cls-181" d="M97.26,32.07a.62.62,0,0,1-.12.54.62.62,0,0,0-.08.24l-.08,0a.12.12,0,0,1-.08-.14c0-.27,0-.55,0-.83,0-.06.08-.08.14,0a.36.36,0,0,1,0,.09A.49.49,0,0,0,97.26,32.07Z"/><path class="cls-182" d="M96.93,31.87l0,1a.21.21,0,0,1,0,.3l-.09.05V31.85A0,0,0,0,1,96.93,31.87Z"/><path class="cls-183" d="M97.49,33.07a1,1,0,0,1,0-1Z"/><path class="cls-183" d="M97.72,31.23c0-.09,0-.18-.1-.23a.77.77,0,0,1,.19-.34c.11,0,.16,0,.13.12A1.45,1.45,0,0,1,97.72,31.23Z"/><path class="cls-184" d="M96.18,30.36a.65.65,0,0,1,.42.42.09.09,0,0,1-.13,0,1,1,0,0,1-.3-.31s0,0,0-.08Z"/><path class="cls-185" d="M96.83,31.55a1.27,1.27,0,0,1-.19-.45q.06-.08.12,0a.54.54,0,0,1,.16.34A.14.14,0,0,1,96.83,31.55Z"/><path class="cls-186" d="M96.83,31.55l.09-.11.12.43h-.11l-.08,0Z"/><path class="cls-187" d="M97.94,30.78l-.13-.12c0-.06.07-.13.11-.18a.09.09,0,0,1,.14,0,.1.1,0,0,1,0,.09A.33.33,0,0,1,97.94,30.78Z"/><path class="cls-188" d="M97.26,32.07s-.09.08-.13.07-.06-.11,0-.18l.18-.1Z"/><path class="cls-189" d="M96.76,31.1h-.12l-.1-.22s0,0,.08,0S96.73,31,96.76,31.1Z"/><path class="cls-183" d="M97.49,31.3a.23.23,0,0,1-.1.24A.28.28,0,0,1,97.49,31.3Z"/><path class="cls-183" d="M97.61,31.55a.21.21,0,0,1,.09-.23A.28.28,0,0,1,97.61,31.55Z"/><path class="cls-190" d="M96.3,33.83a.18.18,0,0,1-.19.11C96.11,33.79,96.23,33.85,96.3,33.83Z"/><path class="cls-182" d="M96.83,33.29a.18.18,0,0,1-.1.21A.2.2,0,0,1,96.83,33.29Z"/><path class="cls-183" d="M97.51,31.91a.26.26,0,0,1,.08-.26A.31.31,0,0,1,97.51,31.91Z"/><path class="cls-183" d="M97.37,31.62a.22.22,0,0,1-.08.25A.29.29,0,0,1,97.37,31.62Z"/><path class="cls-191" d="M96.05,30.43c-.08,0-.11-.08,0-.15s.06,0,.07,0,.05.06,0,.08S96.07,30.43,96.05,30.43Z"/><path class="cls-183" d="M97.59,31.07a.15.15,0,0,1-.07.14A.13.13,0,0,1,97.59,31.07Z"/><path class="cls-192" d="M96.62,30.88h-.08l-.07-.1h.13Z"/><path class="cls-193" d="M96.05,30.43a.43.43,0,0,0,0-.11l.11,0v.11Z"/><path class="cls-194" d="M86,39.62l.19-.1a2.09,2.09,0,0,1,0,.66c-.14.6,0,1.23-.1,1.84l-.13.11a.74.74,0,0,1-.1-.46A10.19,10.19,0,0,1,86,40.43C86,40.16,86,39.89,86,39.62Z"/><path class="cls-45" d="M82.11,48.25H82l0-.14Z"/><path class="cls-84" d="M86.12,42v-1.5a.39.39,0,0,1,.1-.34v1.55A.33.33,0,0,1,86.12,42Z"/><path class="cls-84" d="M86.24,39.19a.13.13,0,0,1,.18-.1A.2.2,0,0,1,86.24,39.19Z"/><path class="cls-1" d="M86.78,38.76a.14.14,0,0,1,.09-.12A.1.1,0,0,1,86.78,38.76Z"/><path class="cls-182" d="M97.37,34.67c-.08,0-.15,0-.17-.11a1.49,1.49,0,0,0-.46-.6c.1-.24.32-.41.3-.67a.09.09,0,0,1,0-.13c.12,0,.17.05.22.14a.48.48,0,0,0,.28.37c.13.07.07.18.07.27A1.52,1.52,0,0,0,97.37,34.67Z"/><path class="cls-195" d="M97.42,36.31s-.08.09-.13.1a.3.3,0,0,1-.16,0c-.06,0-.07-.07-.06-.13a2.72,2.72,0,0,1,.11-.25.06.06,0,0,1,.12,0A2.08,2.08,0,0,1,97.42,36.31Z"/><path class="cls-102" d="M107.83,43.25c.21,0,.43-.1.6.1C108.23,43.32,108,43.39,107.83,43.25Z"/><path class="cls-102" d="M108.44,43.35a.16.16,0,0,1,.21.11A.33.33,0,0,1,108.44,43.35Z"/><path class="cls-196" d="M94.88,14.81h-.73a.35.35,0,0,1-.26-.08s-.08-.07-.06-.13a.16.16,0,0,1,.06-.09,3.37,3.37,0,0,1,.53-.12c.29,0,.58-.08.86-.1.75-.07,1.46-.3,2.19-.4l1.4-.17a2.36,2.36,0,0,0,.65-.07.3.3,0,0,1,.21,0,.33.33,0,0,1,.24.27c0,.15-.11.22-.21.29a.21.21,0,0,1-.1,0,5.18,5.18,0,0,1-.87.11,15.72,15.72,0,0,0-2.36.31A6.08,6.08,0,0,1,94.88,14.81Z"/><path class="cls-197" d="M94.22,15.58,96,15.37a.29.29,0,0,1,.08.14.89.89,0,0,1-.62.92.79.79,0,0,1-1-.44.61.61,0,0,0-.16-.16.57.57,0,0,1-.11-.11A.11.11,0,0,1,94.22,15.58Z"/><path class="cls-198" d="M98.69,15.27a.86.86,0,0,1,.39,0,.9.9,0,0,1,.46,0,.7.7,0,0,1-.45.92c-.38.11-.71,0-.83-.42S98.43,15.3,98.69,15.27Z"/><path class="cls-199" d="M98.69,15.27a.24.24,0,0,1-.08.06c-.22,0-.24.2-.25.38-.22,0-.47-.08-.28.29a.73.73,0,0,1,.11.29.18.18,0,0,1-.15.16,1.19,1.19,0,0,1-.52-.85.21.21,0,0,1,.2-.26A6.33,6.33,0,0,1,98.69,15.27Z"/><path class="cls-200" d="M94.34,16.89c0-.15-.12-.21-.22-.28a1.28,1.28,0,0,1-.51-.79.1.1,0,0,1,0-.13.8.8,0,0,1,.55,0v0c-.25.46.28.61.36.93C94.56,16.77,94.52,16.89,94.34,16.89Z"/><path class="cls-201" d="M97.81,17.77a.62.62,0,0,0-.52,0c-.18.08-.25,0-.25-.2s0-.36,0-.54a.88.88,0,0,0,.06-.27s0,0,0-.06a.08.08,0,0,1,.11,0v.79a.72.72,0,0,1,.66.22C97.94,17.77,97.91,17.81,97.81,17.77Z"/><path class="cls-202" d="M96.51,16.23c-.06.17.09.25.16.36s.08.16,0,.24a.16.16,0,0,1-.27,0,.28.28,0,0,0-.45-.05h-.11a.15.15,0,0,1,0-.13.8.8,0,0,1,.13-.19c.14-.13.26-.31.46-.37S96.56,16.13,96.51,16.23Z"/><path class="cls-203" d="M94.34,16.89l.21-.23c.18-.11.32,0,.45.1a.18.18,0,0,1,0,.16c-.12,0-.25,0-.31.13a1,1,0,0,1-.17.28.14.14,0,0,1-.19,0,.16.16,0,0,1-.09-.18C94.25,17.08,94.3,17,94.34,16.89Z"/><path class="cls-204" d="M100,15.91c0,.1-.09.21,0,.28a.3.3,0,0,1,.13.09.17.17,0,0,1,0,.2.15.15,0,0,1-.18.08c-.16,0-.28-.16-.45-.13a.22.22,0,0,1-.06-.13.89.89,0,0,1,.23-.44.47.47,0,0,1,.12-.09h.08C100,15.78,100.08,15.81,100,15.91Z"/><path class="cls-205" d="M98,16.45l.13-.12a.45.45,0,0,1,.45.2.14.14,0,0,1,0,.14c-.17.09-.2.3-.34.41a.18.18,0,0,1-.2,0,.13.13,0,0,1,0-.15c0-.09.07-.16.1-.25S98.1,16.52,98,16.45Z"/><path class="cls-206" d="M96.51,16.23l-.11-.11c-.11-.22,0-.51-.26-.69a.14.14,0,0,1,.09-.12.62.62,0,0,1,.4,0C96.84,15.68,96.69,16,96.51,16.23Z"/><path class="cls-207" d="M97.81,17.77l.12-.09c.31.44.26.66-.21.95-.08-.05-.22,0-.26-.13a.61.61,0,0,0,.14-.07C98,18.25,98,18.19,97.81,17.77Z"/><path class="cls-208" d="M98.26,19.74h.21a.23.23,0,0,0,.1-.14c0-.07,0-.15.1-.16a.13.13,0,0,1,.15.11c0,.09.05.17.07.26s-.08.22-.18.16a.71.71,0,0,0-.45-.1l0-.06Z"/><path class="cls-209" d="M100,15.91l-.1-.11a.11.11,0,0,1-.06-.1,1.81,1.81,0,0,0,0-.23c0-.08,0-.16,0-.24a.1.1,0,0,1,.06-.09.46.46,0,0,1,.14-.07c.1,0,.18,0,.18.14A1.09,1.09,0,0,1,100,15.91Z"/><path class="cls-210" d="M98.6,16.67l0-.12a.46.46,0,0,1,.5-.07.37.37,0,0,1,.17.2.14.14,0,0,1,0,.09.43.43,0,0,1,0,.35v0c-.13,0-.17-.07-.23-.15C99,16.7,98.82,16.68,98.6,16.67Z"/><path class="cls-211" d="M96.4,20.07c-.18.19-.24.2-.33,0a.68.68,0,0,1-.07-.2.17.17,0,0,1,0-.13s.1,0,.14,0l.2.18s0,0,0,.08S96.41,20.07,96.4,20.07Z"/><path class="cls-212" d="M95.66,16.92c0,.1,0,.21,0,.32a.15.15,0,0,1-.11.16c-.12,0-.15-.06-.17-.16s-.09-.31,0-.44l.06-.05a.19.19,0,0,1,.15,0A.14.14,0,0,1,95.66,16.92Z"/><path class="cls-213" d="M95.53,16.79c-.13.13-.08.31-.14.46,0-.24-.24-.27-.41-.33v-.13A.37.37,0,0,1,95.53,16.79Z"/><path class="cls-214" d="M97.46,18.5c.09,0,.2,0,.26.13a1.88,1.88,0,0,1-.3.12c-.09,0-.2,0-.2-.12s.09-.13.19-.13Z"/><path class="cls-215" d="M96.4,20.07v-.13h0A1.74,1.74,0,0,1,97,19.9a.19.19,0,0,1,.17.06A2.15,2.15,0,0,1,96.4,20.07Z"/><path class="cls-216" d="M99.91,15.14l0,.1a.18.18,0,0,1-.28,0h-.52A1.81,1.81,0,0,1,99.91,15.14Z"/><path class="cls-217" d="M95.63,21.7l-.21,0-.11-.13s0-.05,0-.07,0,0,0,0a1.86,1.86,0,0,1,.57.21A.16.16,0,0,1,95.63,21.7Z"/><path class="cls-218" d="M97.07,19.92l-.68,0a1.11,1.11,0,0,1,.67-.1Z"/><path class="cls-219" d="M97.28,21.91l-.67,0,0,0s-.06,0,0,0,0,0,0,0h.67s0,0,0,.06S97.29,21.91,97.28,21.91Z"/><path class="cls-220" d="M97.37,19.83a1.22,1.22,0,0,1,.68-.09.09.09,0,0,1,0,.13.58.58,0,0,1-.23,0h-.3A.15.15,0,0,1,97.37,19.83Z"/><path class="cls-221" d="M99.25,16.68l-.11-.16c0-.19.17-.24.35-.19a.12.12,0,0,1,0,.14Z"/><path class="cls-222" d="M96.63,15.36l-.45,0a.09.09,0,0,1-.12,0,.79.79,0,0,1,.4-.1A.18.18,0,0,1,96.63,15.36Z"/><path class="cls-223" d="M94.21,15.66l-.55,0c.17-.16.37-.1.56-.11Z"/><path class="cls-224" d="M95.09,21.48h-.22v-.12l0-.06,0,0a1,1,0,0,1,.36.2C95.19,21.53,95.14,21.53,95.09,21.48Z"/><path class="cls-225" d="M97.28,21.91v-.09l.29,0a.08.08,0,0,1,.12,0,.16.16,0,0,1,0,.1h-.42Z"/><path class="cls-226" d="M96.61,21.82s0,.06,0,.08h-.46l0-.09a.08.08,0,0,1,.12,0Z"/><path class="cls-227" d="M97.82,19.85H98a.16.16,0,0,1,.22,0v0a.54.54,0,0,1-.45.07s0,0,0-.05Z"/><path class="cls-228" d="M97.37,19.83l.11,0s.06,0,0,.05l0,0-.27,0-.13,0s0,0,0-.07Z"/><path class="cls-229" d="M96.32,21.79l-.12,0H96s0,0,0-.07,0,0,0,0A.47.47,0,0,1,96.32,21.79Z"/><path class="cls-170" d="M96,21.7a.41.41,0,0,0,0,.11h-.34V21.7H96Z"/><path class="cls-230" d="M97.69,21.82l-.12,0a.49.49,0,0,1,.37-.09s0,.07,0,.1Z"/><path class="cls-231" d="M97.47,19.94a.09.09,0,0,0,0-.07l.34,0a.19.19,0,0,1,0,.08Z"/><path class="cls-221" d="M99.27,17.12l0-.35C99.33,16.88,99.42,17,99.27,17.12Z"/><path class="cls-213" d="M95.66,16.92l0-.13a.21.21,0,0,1,.05-.12l.06,0a.12.12,0,0,1,.12,0,.34.34,0,0,1,0,.1Z"/><path class="cls-221" d="M99,17l.23.15C99.08,17.24,99.06,17.23,99,17Z"/><path class="cls-232" d="M95.09,21.48l.14,0a.08.08,0,0,1,.07,0,.41.41,0,0,1,0,.11h-.22Z"/><path class="cls-233" d="M96.06,15.35l.12,0a.13.13,0,0,0,0,.06.14.14,0,0,1-.22,0,.31.31,0,0,1,0-.1A.12.12,0,0,1,96.06,15.35Z"/><path class="cls-234" d="M98.26,19.83H98a.34.34,0,0,1,0-.1h.21Z"/><path class="cls-235" d="M97.14,16.73a.23.23,0,0,1-.06.27A.32.32,0,0,1,97.14,16.73Z"/><path class="cls-236" d="M99.47,16.47v-.11a.13.13,0,0,1,.09-.07l0,.14A.1.1,0,0,1,99.47,16.47Z"/><path class="cls-235" d="M97.27,16.67h-.11c0-.05,0-.1.08-.08S97.26,16.64,97.27,16.67Z"/><path class="cls-234" d="M98.57,19.59a.12.12,0,0,1-.1.14Z"/><path class="cls-237" d="M94.85,21.3s0,0,0,.06l-.06-.05Z"/><path class="cls-181" d="M97.27,33.3c-.06,0-.11-.11-.2-.11a.27.27,0,0,1,0-.34h0C97.26,32.94,97.29,33.1,97.27,33.3Z"/><path class="cls-238" d="M97.06,32.85v.34a.12.12,0,0,1,0,.1l-.1-.13,0-.3Z"/><path class="cls-239" d="M96,15.47l.22,0h.16a.14.14,0,0,1,.15.11,1.85,1.85,0,0,1-.1.57c-.13.16-.22.36-.43.44-.06.07-.17,0-.23.11h0c-.06.06-.15,0-.22.09v0H95l-.42-.13a3.35,3.35,0,0,1-.55-.58c-.13-.21-.12-.23.13-.32l.09-.06c.14,0,.34-.06.37.19a.19.19,0,0,0,0,.1.58.58,0,0,0,.6.36.74.74,0,0,0,.62-.46C95.91,15.76,95.93,15.61,96,15.47Z"/><path class="cls-240" d="M99.55,16.29l-.09.07-.32.16-.56,0-.41-.22a1.54,1.54,0,0,1-.35-.64c0-.15,0-.19.15-.23s.3.1.39.25a.47.47,0,0,0,.52.35.58.58,0,0,0,.55-.37c.07-.14,0-.32.17-.44h.28c.13,0,.13.13.1.23s0,.16-.07.23a.31.31,0,0,0,0,.1h0c0,.05-.06.09-.08.14S99.6,16.15,99.55,16.29Z"/><path class="cls-46" d="M95.74,16.67a.21.21,0,0,1,.23-.11l-.11.12Z"/><path class="cls-46" d="M99.8,15.93a.15.15,0,0,1,.08-.14A.13.13,0,0,1,99.8,15.93Z"/><path class="cls-46" d="M99.91,15.7a.24.24,0,0,1,.07-.23A.2.2,0,0,1,99.91,15.7Z"/><path class="cls-46" d="M95.52,16.76a.21.21,0,0,1,.22-.09l-.11.12A.23.23,0,0,1,95.52,16.76Z"/></svg>