<svg id="Layer_1" data-name="Layer 1" xmlns="http://www.w3.org/2000/svg" viewBox="0 0 200 83.88"><defs><style>.cls-1{fill:#f1d1bf;}.cls-2{fill:#864953;}.cls-3{fill:#efffa4;}.cls-4{fill:#e9834d;}.cls-5{fill:#1b354e;}.cls-6{fill:#1d364f;}.cls-7{fill:#1b344e;}.cls-8{fill:#1e3650;}.cls-9{fill:#21364f;}.cls-10{fill:#263850;}.cls-11{fill:#2e435b;}.cls-12{fill:#2c3e4e;}.cls-13{fill:#274053;}.cls-14{fill:#34354f;}.cls-15{fill:#333d54;}.cls-16{fill:#444a56;}.cls-17{fill:#4c3751;}.cls-18{fill:#423550;}.cls-19{fill:#42556a;}.cls-20{fill:#704b63;}.cls-21{fill:#3f3f54;}.cls-22{fill:#4e4268;}.cls-23{fill:#50465e;}.cls-24{fill:#6d3a54;}.cls-25{fill:#37354f;}.cls-26{fill:#38485f;}.cls-27{fill:#4e364f;}.cls-28{fill:#4e3a54;}.cls-29{fill:#42587e;}.cls-30{fill:#607485;}.cls-31{fill:#64455d;}.cls-32{fill:#424362;}.cls-33{fill:#687385;}.cls-34{fill:#304447;}.cls-35{fill:#693953;}.cls-36{fill:#92576d;}.cls-37{fill:#5f7485;}.cls-38{fill:#653f58;}.cls-39{fill:#4b5b81;}.cls-40{fill:#43556e;}.cls-41{fill:#4b5c71;}.cls-42{fill:#626b7e;}.cls-43{fill:#3c445d;}.cls-44{fill:#6a415b;}.cls-45{fill:#3e5e8b;}.cls-46{fill:#613e58;}.cls-47{fill:#36788a;}.cls-48{fill:#536c7f;}.cls-49{fill:#38435c;}.cls-50{fill:#6e3f59;}.cls-51{fill:#53415a;}.cls-52{fill:#363750;}.cls-53{fill:#51425b;}.cls-54{fill:#74455e;}.cls-55{fill:#76455d;}.cls-56{fill:#673953;}.cls-57{fill:#77546b;}.cls-58{fill:#6e3d56;}.cls-59{fill:#737788;}.cls-60{fill:#54475f;}.cls-61{fill:#786c7f;}.cls-62{fill:#3f425a;}.cls-63{fill:#283a53;}.cls-64{fill:#674a62;}.cls-65{fill:#7f8d9b;}.cls-66{fill:#48586d;}.cls-67{fill:#438393;}.cls-68{fill:#767d8e;}.cls-69{fill:#574d64;}.cls-70{fill:#6d8191;}.cls-71{fill:#428998;}.cls-72{fill:#6b4e65;}.cls-73{fill:#376276;}.cls-74{fill:#7c7d8e;}.cls-75{fill:#594e65;}.cls-76{fill:#414d65;}.cls-77{fill:#687285;}.cls-78{fill:#655f74;}.cls-79{fill:#4c3f57;}.cls-80{fill:#4d7889;}.cls-81{fill:#777b8c;}.cls-82{fill:#745268;}.cls-83{fill:#4d475f;}.cls-84{fill:#314059;}.cls-85{fill:#2f5369;}.cls-86{fill:#463c55;}.cls-87{fill:#4f3c55;}.cls-88{fill:#5b6377;}.cls-89{fill:#363a53;}.cls-90{fill:#73798b;}.cls-91{fill:#343b56;}.cls-92{fill:#4c5a6f;}.cls-93{fill:#4c475f;}.cls-94{fill:#6b3f57;}.cls-95{fill:#6b5168;}.cls-96{fill:#507a8b;}.cls-97{fill:#e9eef1;}.cls-98{fill:#595269;}.cls-99{fill:#2c3c55;}.cls-100{fill:#fcfcfc;}.cls-101{fill:#6f5167;}.cls-102{fill:#e8edef;}.cls-103{fill:#5c4c63;}.cls-104{fill:#554a61;}.cls-105{fill:#313d56;}.cls-106{fill:#45445b;}.cls-107{fill:#f33451;}.cls-108{fill:#5f4d64;}.cls-109{fill:#fad3d3;}.cls-110{fill:#1f3751;}.cls-111{fill:#896059;}.cls-112{fill:#443751;}.cls-113{fill:#1e354e;}.cls-114{fill:#e9844e;}.cls-115{fill:#253c4f;}.cls-116{fill:#24393a;}.cls-117{fill:#4e3750;}.cls-118{fill:#5f3751;}.cls-119{fill:#af3550;}.cls-120{fill:#fff;}.cls-121{fill:#fefefe;}.cls-122{fill:#20364f;}.cls-123{fill:#283c54;}.cls-124{fill:#26374f;}.cls-125{fill:#d2d2d2;}.cls-126{fill:#cad4d2;}.cls-127{fill:#4f5061;}.cls-128{fill:#6a5a4f;}.cls-129{fill:#4f4a56;}.cls-130{fill:#805d53;}.cls-131{fill:#9aaeae;}.cls-132{fill:#a05748;}.cls-133{fill:#1e3548;}.cls-134{fill:#7a7789;}.cls-135{fill:#24364e;}.cls-136{fill:#2f3f56;}.cls-137{fill:#76344f;}.cls-138{fill:#f43451;}.cls-139{fill:#5f344f;}.cls-140{fill:#7e344f;}.cls-141{fill:#3269e7;}.cls-142{fill:#2b3c63;}.cls-143{fill:#62344f;}.cls-144{fill:#e43451;}.cls-145{fill:#47465e;}.cls-146{fill:#52344f;}.cls-147{fill:#4f344f;}.cls-148{fill:#fcfdfd;}.cls-149{fill:#2b385a;}.cls-150{fill:#b13450;}.cls-151{fill:#61566b;}.cls-152{fill:#326ae8;}.cls-153{fill:#cd3a56;}.cls-154{fill:#4a415c;}.cls-155{fill:#3f354f;}.cls-156{fill:#8c3651;}.cls-157{fill:#cd405c;}.cls-158{fill:#94556b;}.cls-159{fill:#db3652;}.cls-160{fill:#5d344f;}.cls-161{fill:#63344f;}.cls-162{fill:#77344f;}.cls-163{fill:#965e73;}.cls-164{fill:#3d3751;}.cls-165{fill:#643c55;}.cls-166{fill:#9b6276;}.cls-167{fill:#483a53;}.cls-168{fill:#614f65;}.cls-169{fill:#50344e;}.cls-170{fill:#283b54;}.cls-171{fill:#2c3a51;}.cls-172{fill:#3a3c52;}.cls-173{fill:#434357;}.cls-174{fill:#e9844f;}.cls-175{fill:#fcfaf9;}.cls-176{fill:#96d1d5;}.cls-177{fill:#dddddb;}.cls-178{fill:#f4dcd0;}.cls-179{fill:#cbc3ab;}.cls-180{fill:#9dbcac;}.cls-181{fill:#23374f;}.cls-182{fill:#22364f;}.cls-183{fill:#313d51;}.cls-184{fill:#35455c;}.cls-185{fill:#9f5748;}.cls-186{fill:#2c3948;}.cls-187{fill:#2a374b;}.cls-188{fill:#303a48;}.cls-189{fill:#3e3c4d;}.cls-190{fill:#463f48;}.cls-191{fill:#2a394e;}.cls-192{fill:#91524a;}.cls-193{fill:#353b48;}.cls-194{fill:#756f78;}.cls-195{fill:#1e354a;}.cls-196{fill:#23364e;}.cls-197{fill:#4b4249;}.cls-198{fill:#6e737e;}.cls-199{fill:#223750;}.cls-200{fill:#28374f;}.cls-201{fill:#383a4f;}.cls-202{fill:#1f3851;}.cls-203{fill:#4b5567;}.cls-204{fill:#f03451;}.cls-205{fill:#4b344e;}.cls-206{fill:#6f344f;}.cls-207{fill:#60344f;}.cls-208{fill:#30344e;}.cls-209{fill:#5a344f;}.cls-210{fill:#56344f;}.cls-211{fill:#4d344e;}.cls-212{fill:#493655;}.cls-213{fill:#4d344f;}.cls-214{fill:#8e344f;}.cls-215{fill:#ef3451;}.cls-216{fill:#323e6a;}.cls-217{fill:#53344f;}.cls-218{fill:#48344e;}.cls-219{fill:#44344e;}.cls-220{fill:#7f344f;}.cls-221{fill:#4a344f;}.cls-222{fill:#413654;}.cls-223{fill:#2f344e;}.cls-224{fill:#25344e;}.cls-225{fill:#64344f;}.cls-226{fill:#64344e;}.cls-227{fill:#24344f;}.cls-228{fill:#8c425b;}.cls-229{fill:#6a344e;}.cls-230{fill:#464058;}.cls-231{fill:#543a57;}.cls-232{fill:#583751;}.cls-233{fill:#535066;}.cls-234{fill:#627f8f;}.cls-235{fill:#586f81;}.cls-236{fill:#4c5469;}.cls-237{fill:#c33450;}.cls-238{fill:#b43350;}.cls-239{fill:#6c344e;}.cls-240{fill:#40445c;}.cls-241{fill:#50a0ac;}.cls-242{fill:#395c70;}.cls-243{fill:#417e8d;}.cls-244{fill:#4a465e;}.cls-245{fill:#5bafba;}.cls-246{fill:#9b344f;}.cls-247{fill:#5d6e81;}.cls-248{fill:#587586;}.cls-249{fill:#4a6e80;}.cls-250{fill:#49677a;}.cls-251{fill:#56687b;}.cls-252{fill:#3b3c61;}.cls-253{fill:#3e3d58;}.cls-254{fill:#2e344e;}.cls-255{fill:#3b7283;}.cls-256{fill:#675168;}.cls-257{fill:#5bafb9;}.cls-258{fill:#448c9b;}.cls-259{fill:#533851;}.cls-260{fill:#3a687b;}.cls-261{fill:#3b566c;}.cls-262{fill:#b23854;}.cls-263{fill:#f9d3d3;}.cls-264{fill:#ebfca3;}.cls-265{fill:#edfda3;}.cls-266{fill:#374960;}.cls-267{fill:#8e3450;}.cls-268{fill:#1d344e;}.cls-269{fill:#2a344e;}.cls-270{fill:#a33450;}.cls-271{fill:#bd344f;}.cls-272{fill:#47344e;}.cls-273{fill:#d53551;}.cls-274{fill:#df3450;}.cls-275{fill:#ce3450;}.cls-276{fill:#d93451;}.cls-277{fill:#7b344e;}.cls-278{fill:#cc3450;}.cls-279{fill:#503851;}.cls-280{fill:#35455d;}</style></defs><path class="cls-1" d="M83.78,17.76a3.32,3.32,0,0,0-1,.12l-5.57,1.27-4.1,1L69.27,21l-.37.07a.2.2,0,0,1-.24-.16c-.12-.44-.26-.88-.35-1.33-.23-1.11-.54-2.2-.8-3.3-.43-1.79-.85-3.58-1.28-5.37l-.84-3.61c0-.08,0-.16,0-.25-.06-.45-.06-.46.39-.56,1.13-.25,2.25-.5,3.38-.73.85-.19,1.72-.36,2.58-.54l3.5-.73,3.25-.68,5.23-1.09L87.36,2l3.37-.72L93.5.67,96.63,0a.23.23,0,0,1,.3.16,4.56,4.56,0,0,1,.18.6c.19,1,.48,2,.74,3,.42,1.58.84,3.15,1.24,4.74s.8,3.29,1.19,4.94a2.17,2.17,0,0,1,0,.25.35.35,0,0,1-.3.41,2.7,2.7,0,0,1-.49.12c-1.1.13-2.17.44-3.26.67l-4,.88c-.73.16-1.47.33-2.2.52-.17,0-.39,0-.5.23a.51.51,0,0,1-.35.15c-.51.09-1,.21-1.53.33l-.17.08a8.26,8.26,0,0,0-2.08.47.82.82,0,0,1-.35,0C84.66,17.58,84.25,17.84,83.78,17.76Z"/><path class="cls-2" d="M93.08,73.63a6.09,6.09,0,0,1,.58-.66,1,1,0,0,0,.34-.88c0-.5,0-1,0-1.51-.11-2.66-.07-5.32-.1-8,0-1,0-2.05,0-3.08A1.94,1.94,0,0,1,95,59.24a19.13,19.13,0,0,1,2.27,0c.25,0,.52,0,.64.31,0,1.35.06,2.69.08,4,0,.46,0,.92,0,1.38a23.06,23.06,0,0,0,0,3.22c0,.19,0,.38,0,.56,0,1.9.08,3.79.13,5.68,0,.12,0,.25,0,.38a.6.6,0,0,0-.08.08,2.68,2.68,0,0,1-1.29.06c-.6-.1-1.19-.21-1.33-1-.49-.26-1-.07-1.53-.13C93.66,73.8,93.32,73.91,93.08,73.63Z"/><path class="cls-3" d="M97.92,59.52a2.57,2.57,0,0,0-1.1-.14c-1,.06-2,.1-2.95.14h-.75a4.68,4.68,0,0,1-1.49-.13c-.24-.21-.18-.49-.19-.75,0-.59,0-1.19,0-1.79,0-.22.2-.32.36-.42.36-.21.71-.43.68-.92.17-.7-.38-1.2-.5-1.81s-.11-.92-.12-1.38.16-.65.65-.49a1.53,1.53,0,0,0,1.15-.06,1.06,1.06,0,0,1,.85-.13,2.07,2.07,0,0,1,.42,1.15,23.2,23.2,0,0,0,.7,2.47c.08.23.17.55.49.44s.24-.4.18-.64A23,23,0,0,0,95.36,52a1,1,0,0,1-.16-.66c.86-1,1.52-1,2.44-.2.51.46,1.18.62,1.69,1.07s.15,1.22.1,1.83c-.12,1.29,0,2.59-.05,3.89,0,.51.47.82.54,1.29a1.16,1.16,0,0,1-.89.31C98.66,59.51,98.29,59.52,97.92,59.52Z"/><path class="cls-2" d="M102.74,75.17c.26-.12.52-.23.52-.58l0,0a2.71,2.71,0,0,0,.45-1.73c0-1.46.06-2.93,0-4.39-.09-1.15-.09-2.3-.1-3.45,0-.12,0-.25,0-.37,1.15-.16,2.26-.66,3.45-.34.16,0,.33,0,.43.22s0,.54,0,.81c0,1.46.12,2.92.17,4.38,0,1.07.15,2.13.29,3.19a4.6,4.6,0,0,0,.28,1.15c-.3.32-.67.11-1,.13s-.5-.08-.75,0a2.64,2.64,0,0,1-.74.1c-.19,0-.36.08-.38.26-.08.65-.58.67-1,.75-.12,0-.24,0-.36,0a1,1,0,0,0-.58,0,1.24,1.24,0,0,1-.27,0A.39.39,0,0,1,102.74,75.17Z"/><path class="cls-4" d="M83.78,17.76s.09-.1.15-.11a8.92,8.92,0,0,1,1.25-.25c.06.09.13.17.2.26a3.33,3.33,0,0,1,.16.4c.18.51.3,1,.5,1.54a1.16,1.16,0,0,1,0,.18,3.14,3.14,0,0,0,.22.78,8.11,8.11,0,0,0,.59,1.74c.12.3.1.63.2.93a2.37,2.37,0,0,0,.09.36c.34,1,.61,2,.94,3,0,.16,0,.35.09.5a1.43,1.43,0,0,1,.14.34q1.5,5.16,3.05,10.29a3.58,3.58,0,0,0,.23.65,8.74,8.74,0,0,0,.53,1.81,1.15,1.15,0,0,1,0,.37c0,.91-.39,1.19-1.23,1a.94.94,0,0,1-.3-.26,5.34,5.34,0,0,1-.42-1.18q-1.2-4-2.38-8l-.06-.19C87.24,30,86.61,28,86.1,26.07A.93.93,0,0,1,86,25.7a1,1,0,0,0-.08-.61l-1.62-5.47C84.16,19,84,18.38,83.78,17.76Z"/><path class="cls-5" d="M107.48,64.48l-.93-.14a4.36,4.36,0,0,0-1.48.14c-.27,0-.53.12-.79.18a1.43,1.43,0,0,1-.68-.06l-.63-.41a.75.75,0,0,1-.33-.93c0-.1.06-.2.1-.3a.52.52,0,0,0,0-.47,1.31,1.31,0,0,1,0-.49,12.92,12.92,0,0,0,.08-1.38c0-.86.12-.82-.8-.88a6,6,0,0,1-2.07-.52,1.71,1.71,0,0,1-.72-1.51,28.8,28.8,0,0,1,.09-3.94c0-.31,0-.62.08-.93a.78.78,0,0,0-.19-.64c0-.15.09-.18.2-.2.62.2.52.74.47,1.16a37.17,37.17,0,0,0-.1,4.09c0,1.31.2,1.63,1.51,1.86.91.16,1.82.29,2.73.47a1.9,1.9,0,0,1,1.23.69c.55.92.53,1.34,0,1.89a1.37,1.37,0,0,1-1,.31c-.28,0-.6-.07-.78.26-.38,1,0,1.51,1,1.28a8.66,8.66,0,0,1,4,.14,1.51,1.51,0,0,1,1.11.76c.57,1.36,1.79,1.48,3,1.45a17.44,17.44,0,0,0,3.13-.35c1.1-.22,1.43-.64,1.5-1.77.11-1.74.37-3.46.52-5.2.2-2.41.65-4.78.79-7.2a6.43,6.43,0,0,1,1.13-2.5,1.73,1.73,0,0,0,.26-1.49c-.38-1.68-.71-3.38-1-5.08-.47-3.15-1-6.3-1.43-9.46a8.32,8.32,0,0,1,.31-3.74,6.3,6.3,0,0,0,.27-1.29,2.5,2.5,0,0,0-2.69-2.64,6,6,0,0,0-2.12.55,6.16,6.16,0,0,1-1.45.6.33.33,0,0,1-.27-.08.25.25,0,0,1,0-.19c0-.13.23-.09.29-.21.52-.28,1-.61,1.54-.84a5.43,5.43,0,0,1,2.9-.43,1.66,1.66,0,0,1,1,.48,1.61,1.61,0,0,0,.23.22,3,3,0,0,1,1.1,3,4.14,4.14,0,0,1-.19.79,8,8,0,0,0-.26,4.53c.17.74.22,1.5.34,2.24s.27,1.28.34,1.93c.15,1.42.45,2.81.6,4.24.12,1.08.35,2.15.55,3.22.15.81.32,1.61.5,2.41a1.4,1.4,0,0,1-.06.86,2.93,2.93,0,0,1-1,1.43.81.81,0,0,0-.32.64c-.17,1.93-.43,3.84-.68,5.76-.06.46-.08.92-.1,1.38-.09,1.45-.33,2.88-.48,4.32,0,.48-.06,1-.07,1.45a4.86,4.86,0,0,1-.11,1,1.87,1.87,0,0,1-1.4,1.45,3.2,3.2,0,0,1-1.3.21,4.79,4.79,0,0,0-1.13.14,4.88,4.88,0,0,1-2.43,0,4,4,0,0,0-.5-.07,1.74,1.74,0,0,1-1.43-1c-.09-.17-.2-.33-.27-.5a.82.82,0,0,0-.65-.53Z"/><path class="cls-6" d="M86,25.7a.4.4,0,0,1,.16.26c0,.06,0,.16-.06.16-.58,0-1,.46-1.6.52A1.84,1.84,0,0,0,82.94,28a3.81,3.81,0,0,0,.41,3.55,1.86,1.86,0,0,1,.36,1.11c0,.78,0,1.56,0,2.34A47.65,47.65,0,0,0,84,41.07c.19,1.71.12,3.44.36,5.15.09.6.13,1.21.17,1.81a2.85,2.85,0,0,0,.68,1.8.51.51,0,0,1,.17.57.13.13,0,0,1-.18.05,1.35,1.35,0,0,1-.74-.65A3,3,0,0,1,84,48.39c-.11-1.4-.26-2.8-.39-4.2,0-.31,0-.62,0-.94a22.51,22.51,0,0,0-.21-3.07,12.81,12.81,0,0,1-.14-1.63,59.3,59.3,0,0,1,0-6.11.67.67,0,0,0-.22-.61,2.2,2.2,0,0,1-.59-1.09,4.88,4.88,0,0,1-.11-2.37,3.25,3.25,0,0,1,1.07-1.81,2.24,2.24,0,0,1,.53-.33c.43-.17.87-.31,1.3-.46A2.55,2.55,0,0,1,86,25.7Z"/><path class="cls-7" d="M91.51,56.79a1.16,1.16,0,0,1,.15.71,11.93,11.93,0,0,0,0,1.89c0,.25,0,.5,0,.75a.89.89,0,0,0,.11.48,1.51,1.51,0,0,1-.33,1.94c-.12,0-.18,0-.22-.13a.43.43,0,0,1,0-.25,1.75,1.75,0,0,0-.91-2.33c-.4-.23-.82-.43-1.2-.68-.9-.59-.92-1.23-.08-1.88a2.16,2.16,0,0,1,1.4-.46,1.39,1.39,0,0,0,.71-.2C91.26,56.55,91.48,56.45,91.51,56.79Z"/><path class="cls-8" d="M111.55,26.6l.13.12c0,.16-.06.23-.17.29-.76.42-1.39,1-2.14,1.47a1.9,1.9,0,0,0-.4.77,4.1,4.1,0,0,1-2.29,2.43c-.12.05-.23.15-.35.14-1,0-1.32.73-1.81,1.32-.16.19-.26.45-.56.45a.26.26,0,0,1-.19-.21.57.57,0,0,1,.14-.47,4.38,4.38,0,0,0,.69-3.46,1.25,1.25,0,0,1,.75-1.38c.18,0,.23.13.26.27a4.31,4.31,0,0,0-.33,2c0,.62.31.84.9.64a3.15,3.15,0,0,0,2.18-2.17,1.91,1.91,0,0,1,1.06-1.31,3.29,3.29,0,0,0,2-3.47,2.51,2.51,0,0,1,.14-1.12c0-.12.06-.32.29-.22a9.37,9.37,0,0,1,0,2.05,3.75,3.75,0,0,1-.2,1.1,1.2,1.2,0,0,0-.08.49v.06a.47.47,0,0,0,0,.1A.13.13,0,0,0,111.55,26.6Z"/><path class="cls-9" d="M89.23,16.51a.63.63,0,0,1,.36,0l.54.7a4,4,0,0,0,.69.73A3.31,3.31,0,0,1,91.67,19a4.54,4.54,0,0,0,.67.91.21.21,0,0,0,.27.07,4.37,4.37,0,0,1,2.9.1c.38.11.76.26,1.14.38a3.37,3.37,0,0,1,.94.49c.38.27.77.52,1.14.79a.2.2,0,0,0,.32-.05,1.42,1.42,0,0,1,.58-.56c.12-.07.18,0,.22.1a.48.48,0,0,1,0,.18c-.7,1.21-1,1.3-2,.42a8,8,0,0,0-2.87-1.32,4,4,0,0,0-2.17-.1.83.83,0,0,1-1-.45,19.37,19.37,0,0,0-2.3-2.88C89.27,16.93,89,16.78,89.23,16.51Z"/><path class="cls-9" d="M101.32,20.26a5.54,5.54,0,0,1,3.53-.52c.23,0,.44.16.68,0,.07,0,.15,0,.22.08s.26.2.39.29.41.06.52.28a21.65,21.65,0,0,0-.61,5.25,2.24,2.24,0,0,1,0,.52,7.17,7.17,0,0,0-.11,1.31.56.56,0,0,1-.07.18c-.22.18-.28,0-.37-.16a.63.63,0,0,1,0-.19,2.68,2.68,0,0,0,0-.4,21.16,21.16,0,0,0-.08-2.76.81.81,0,0,1,.08-.55,4.36,4.36,0,0,0,.08-2.72c-.08-.48-.47-.61-.88-.65a6.31,6.31,0,0,0-2.37.16,2.22,2.22,0,0,1-.68.13C101.45,20.5,101.28,20.49,101.32,20.26Z"/><path class="cls-10" d="M106.5,20.41c-.13-.08-.3-.1-.36-.27.08,0,.17.05.23,0,.51-.78,1.26-1.36,1.77-2.13a1.53,1.53,0,0,1,.29-.33l1.91-1.92c.37-.37.73-.75,1.08-1.15a7,7,0,0,1,1.88-1.46,1.4,1.4,0,0,1,1.15-.14c0,.32-.3.24-.45.35a6.23,6.23,0,0,0-2.06,1.42c-1.77,1.68-3.28,3.59-5,5.29A2.46,2.46,0,0,1,106.5,20.41Z"/><path class="cls-11" d="M111.82,24.75c0-.53,0-1.07,0-1.6,0-.17,0-.34-.11-.47a1.42,1.42,0,0,1-.06-1.37c.42-1.16.93-2.29,1.41-3.42.08-.19.16-.39.4-.43s.24.14.14.3c-.17.41-.34.82-.5,1.23-.34.85-.67,1.71-1,2.57a1.9,1.9,0,0,0-.12.62c0,.61,0,1.22,0,1.83A1.7,1.7,0,0,1,111.82,24.75Z"/><path class="cls-12" d="M87,59.65a5.5,5.5,0,0,1-1-.7.81.81,0,0,1-.31-.71c0-.48,0-1-.05-1.44-.07-.68-.17-1.36-.25-2,0-.21,0-.42,0-.63s-.18-.49.1-.69a.37.37,0,0,1,.2.31,26.27,26.27,0,0,1,.51,3.74,1.65,1.65,0,0,0,.75,1.6.73.73,0,0,1,.14.16.35.35,0,0,0,0,.08C87,59.45,87.21,59.59,87,59.65Z"/><path class="cls-13" d="M91.21,62.4l.16.16a.91.91,0,0,1-1.06.46,3.05,3.05,0,0,1-2.54-2c-.13-.29-.25-.58-.37-.87.12-.1.23,0,.35,0,.37.29.46.74.68,1.11a2.39,2.39,0,0,0,1.88,1.3C90.65,62.61,90.9,62.38,91.21,62.4Z"/><path class="cls-14" d="M89.46,78.06l.24-.12a.34.34,0,0,1,.22,0c.61,0,1.22,0,1.83,0,.24,0,.56,0,.55.38s-.32.36-.56.35a5.36,5.36,0,0,1-2.48-.22.16.16,0,0,1-.05-.21h0C89.28,78.12,89.4,78.15,89.46,78.06Z"/><path class="cls-15" d="M114,13.21a.33.33,0,0,1,.25-.12.28.28,0,0,0,.25-.12h.12c.08.06.19,0,.26.11a.92.92,0,0,0,.52.19c.38,0,.58.29.79.54a.69.69,0,0,1,.11.54.4.4,0,0,1-.25.39.31.31,0,0,0-.15.1h0c-.06.07-.17.05-.23.12h0c-.13.09-.22,0-.27-.09a.31.31,0,0,1,.06-.16c.56-.49.51-.73-.15-1A9.9,9.9,0,0,1,114,13.21Z"/><path class="cls-16" d="M85.41,53.47c-.19.19-.06.45-.13.66a1.53,1.53,0,0,1-.11-.73c0-1,0-2,0-2.95l.12,0c.32.35.09.82.28,1.2C85.58,52.25,85.79,52.89,85.41,53.47Z"/><path class="cls-17" d="M102.6,77.18a3.26,3.26,0,0,0-.11-.61s0-.11.06-.16l.19-.1a3.48,3.48,0,0,1,2.48.07c.09.12,0,.19-.08.26a4.54,4.54,0,0,1-1.47.09.93.93,0,0,0-.89.43A.13.13,0,0,1,102.6,77.18Z"/><path class="cls-18" d="M98.41,76.16v.14c-.1.21,0,.45-.09.65l0,.49a.12.12,0,0,1-.17,0c-.3-1-.35-1-1.44-1.06-.1,0-.21,0-.31,0s-.53.05-.62-.29a4,4,0,0,1,2.33-.15A.47.47,0,0,1,98.41,76.16Z"/><path class="cls-19" d="M113.58,17.76c0-.1,0-.2-.14-.26a.23.23,0,0,1,0-.29,6.68,6.68,0,0,1,1-1.63.21.21,0,0,1,.2.17A16.48,16.48,0,0,1,113.58,17.76Z"/><path class="cls-20" d="M108.64,74.05a.79.79,0,0,1,.43,0,.57.57,0,0,1,.49.62c0,.4.09.79.13,1.19a.14.14,0,0,1-.18,0,1.18,1.18,0,0,1-.27-.82.61.61,0,0,0-.67-.66c-.26,0-.57.07-.7-.27C108.1,74,108.4,74.19,108.64,74.05Z"/><path class="cls-21" d="M101.32,20.26c.05.13.16.15.27.16a3.4,3.4,0,0,1-1.78.87l-.18-.14A4.06,4.06,0,0,1,101.32,20.26Z"/><path class="cls-22" d="M87.06,79.46a2.72,2.72,0,0,1,1-.52c.11-.08.15,0,.2.09A5.47,5.47,0,0,0,88,80.09c-.21.08-.3-.06-.37-.21s-.14-.29-.34-.3a.47.47,0,0,1-.15-.06Z"/><path class="cls-23" d="M102.84,81.22s-.1-.08-.11-.13a7.37,7.37,0,0,1,0-1.15,2.78,2.78,0,0,0,0-.5,1.79,1.79,0,0,1,0-.61.11.11,0,0,1,.17,0c.21.39.08.82.15,1.23,0,.22-.08.44,0,.65a.85.85,0,0,1,.09.22.29.29,0,0,1,0,.16.37.37,0,0,1-.21.12Z"/><path class="cls-24" d="M91.47,74a.11.11,0,0,1,.12-.11l.14-.09.22,0c.13-.07.28,0,.41-.08l.64,0c.15.16.42-.07.53.18a.39.39,0,0,1-.41.22,5.3,5.3,0,0,0-1.64.25A.26.26,0,0,1,91.47,74Z"/><path class="cls-25" d="M111.2,78.2l.35.25c0,.16,0,.26-.16.34a1.08,1.08,0,0,1-.31.07,1.27,1.27,0,0,1-.55,0c-.38-.14-.42-.32,0-.51a1.76,1.76,0,0,0,.45-.12A.21.21,0,0,1,111.2,78.2Z"/><path class="cls-26" d="M114.6,15.75l-.16-.16c0-.62.41-.72.89-.72a.3.3,0,0,0,.25.12C115.28,15.28,114.86,15.41,114.6,15.75Z"/><path class="cls-27" d="M93.53,73.8c-.17,0-.39,0-.53-.14a.07.07,0,0,1,.08,0l2.21,0c.18,0,.34,0,.36.25l-.08.07a.5.5,0,0,1-.21,0C94.76,73.86,94.12,74.11,93.53,73.8Z"/><path class="cls-28" d="M108.64,74.05a.35.35,0,0,1-.28.1l-.49,0a1.77,1.77,0,0,1-1.28.09.3.3,0,0,1-.21-.35c.34,0,.69,0,1,.06a4.21,4.21,0,0,0,.79,0Z"/><path class="cls-29" d="M86.79,81a2.15,2.15,0,0,1,0-1.28.38.38,0,0,1,.25-.27l0,0a.34.34,0,0,1,.07.18A7.64,7.64,0,0,1,87,80.84.33.33,0,0,1,86.79,81Z"/><path class="cls-30" d="M95.66,82.36l-.49.15c-.1,0-.16,0-.2-.09a6.31,6.31,0,0,0-.15-.73.34.34,0,0,1,0-.17c.23-.23.35,0,.47.14a.61.61,0,0,0,.33.41.37.37,0,0,1,.07.14A.22.22,0,0,1,95.66,82.36Z"/><path class="cls-31" d="M88.2,79.05,88,78.94a3.9,3.9,0,0,1,1.17-.75v.18A1.11,1.11,0,0,1,88.2,79.05Z"/><path class="cls-32" d="M113.22,79.45a1.68,1.68,0,0,1,.66.38.32.32,0,0,1-.13.1.48.48,0,0,0-.47.31c-.06.15-.16.37-.4.17a1.69,1.69,0,0,1,.1-.86C113,79.46,113.1,79.39,113.22,79.45Z"/><path class="cls-33" d="M87.57,82.86c-.49-.09-.63-.44-.61-.89.1-.11,0-.29.11-.39a.19.19,0,0,1,.21.13,1.16,1.16,0,0,0,.42.88.2.2,0,0,1,0,.17Z"/><path class="cls-34" d="M87.71,60.27l-.31-.11L87,59.65c.11-.09,0-.18,0-.27C87.54,59.43,87.73,59.66,87.71,60.27Z"/><path class="cls-35" d="M98.41,76.16,98.16,76A1.37,1.37,0,0,1,98,75a.55.55,0,0,1,.12-.19l0,0a.23.23,0,0,1,.16.23C98.36,75.39,98.39,75.78,98.41,76.16Z"/><path class="cls-36" d="M110.77,83.52a1.56,1.56,0,0,1-.71.07c-.26-.11-.56.08-.8-.13.33-.45.78-.23,1.19-.21A.42.42,0,0,1,110.77,83.52Z"/><path class="cls-37" d="M105.77,82.85a1,1,0,0,1-.4-.14.33.33,0,0,1,0-.24c.07-.18,0-.41.22-.55a.29.29,0,0,1,.4.11,1.54,1.54,0,0,1-.07.64A.39.39,0,0,1,105.77,82.85Z"/><path class="cls-38" d="M111.42,78.67l.13-.22a2.53,2.53,0,0,1,1,.63l0,.08a.24.24,0,0,1-.15.09h-.09C112,79.07,111.63,79,111.42,78.67Z"/><path class="cls-39" d="M113.68,79.85l.2,0a.39.39,0,0,1,.26.32,2.49,2.49,0,0,1,0,1.38c-.35-.32-.11-.77-.25-1.14C113.8,80.21,113.64,80.06,113.68,79.85Z"/><path class="cls-40" d="M87.07,81.59c0,.13,0,.28-.11.38,0-.32-.26-.61-.17-1l.14-.16a1.11,1.11,0,0,1,.41.58C87.3,81.56,87.16,81.54,87.07,81.59Z"/><path class="cls-41" d="M98.18,77.44h.11a10.3,10.3,0,0,1-.1,1.92C98,79.19,98,79,98,78.73s0-.67,0-1A.41.41,0,0,1,98.18,77.44Z"/><path class="cls-42" d="M114,82a5,5,0,0,1,0,.67c0,.2-.09.41-.35.45a.19.19,0,0,1-.15-.18,2.38,2.38,0,0,0,.22-.7.38.38,0,0,1,.17-.27A.14.14,0,0,1,114,82Z"/><path class="cls-43" d="M113.43,83l.13.13-.38.2a.36.36,0,0,0-.25.06h-.23c-.07-.1-.29,0-.28-.2A1,1,0,0,1,113.43,83Z"/><path class="cls-44" d="M111.2,78.2l-.17.14a1.1,1.1,0,0,1-.77-.59c0-.1.07-.14.15-.17A2.27,2.27,0,0,1,111.2,78.2Z"/><path class="cls-45" d="M114,80.21a.44.44,0,0,1,.13.39l0,.93c0,.13,0,.27-.14.35a.42.42,0,0,1-.22-.34C113.81,81.09,113.66,80.62,114,80.21Z"/><path class="cls-46" d="M102.76,76.4h-.21c0-.36,0-.72,0-1.09a.15.15,0,0,1,.15-.15h.36a.15.15,0,0,1,0,.16C102.77,75.63,103,76.08,102.76,76.4Z"/><path class="cls-47" d="M93.29,83.26a.42.42,0,0,1-.28.1,7.38,7.38,0,0,1-1.41,0,.14.14,0,0,1,.06-.17,1,1,0,0,1,.49-.09,4,4,0,0,1,1,0A.34.34,0,0,1,93.29,83.26Z"/><path class="cls-48" d="M109.43,83.64a3.06,3.06,0,0,1-1.59,0c.3-.3.68-.16,1-.19A1,1,0,0,1,109.43,83.64Z"/><path class="cls-49" d="M98.26,79.82l-.08.77a.2.2,0,0,1-.23,0c-.14-.13,0-.32-.14-.46a.32.32,0,0,1,0-.23.4.4,0,0,1,.26-.2A.34.34,0,0,1,98.26,79.82Z"/><path class="cls-50" d="M91.09,76.24v0l0,0a.11.11,0,0,1,.16,0c.17.31,0,.52-.2.75a.3.3,0,0,1-.16.08.24.24,0,0,1-.16-.07.36.36,0,0,1,.11-.37l.13-.13h0A.24.24,0,0,0,91.09,76.24Z"/><path class="cls-51" d="M89.9,78h-.2a1.56,1.56,0,0,1,.58-.56h.17a.2.2,0,0,1,.06.15A.7.7,0,0,1,89.9,78Z"/><path class="cls-52" d="M90.48,77.44l-.16,0,0,0c.15-.14.36-.23.44-.44h.11c.09.08.28,0,.29.21a.26.26,0,0,1-.2.2c-.06,0-.09-.12-.15,0a.48.48,0,0,1-.11.09A.16.16,0,0,1,90.48,77.44Z"/><path class="cls-53" d="M109.53,75.92h.16a.2.2,0,0,1,.11.19c0,.14,0,.27,0,.41s0,.19-.16.19A.54.54,0,0,1,109.53,75.92Z"/><path class="cls-54" d="M113.22,79.45l-.19.16c-.27,0-.55,0-.59-.4l0,0,.06-.06,0,0Z"/><path class="cls-55" d="M108.91,83.59l-1.07,0-.16,0c-.08,0-.09-.1,0-.17a1.53,1.53,0,0,1,1.17,0A.14.14,0,0,1,108.91,83.59Z"/><path class="cls-56" d="M98.26,79.82H98a1.17,1.17,0,0,1,0-1.06.13.13,0,0,1,.19-.05l0,.65Z"/><path class="cls-57" d="M102.82,78.83h-.1l-.09-.64c.1-.1-.11-.39.21-.37A.75.75,0,0,1,102.82,78.83Z"/><path class="cls-58" d="M92.12,83.23h-.51a.94.94,0,0,1-.7,0h0c-.1,0-.12-.07-.08-.15a.56.56,0,0,1,.3-.14,1.87,1.87,0,0,1,.94.09A.13.13,0,0,1,92.12,83.23Z"/><path class="cls-59" d="M104.37,82.22l-.34-.07a.38.38,0,0,1-.3-.17.27.27,0,0,1,.17-.2.39.39,0,0,1,.52.27A.22.22,0,0,1,104.37,82.22Z"/><path class="cls-60" d="M91.23,75.55a5.49,5.49,0,0,0,.14-.89.12.12,0,0,1,.17,0,.81.81,0,0,1,0,.85.25.25,0,0,1-.18.06Z"/><path class="cls-61" d="M107.22,83.5l-.29,0c-.07,0-.11,0-.16-.08l0,0a.34.34,0,0,1,0-.18.18.18,0,0,1,.14-.11c.26.1.66,0,.67.46A.34.34,0,0,1,107.22,83.5Z"/><path class="cls-62" d="M88.68,83c-.22,0-.44,0-.67,0a.35.35,0,0,1-.33-.12.07.07,0,0,1,0-.07s0,0,0,0a.07.07,0,0,0,0-.06,1.67,1.67,0,0,1,.94,0,.18.18,0,0,1,.1.15Z"/><path class="cls-63" d="M108.91,83.59s0-.06,0-.09a.22.22,0,0,1,.33,0l.47,0a.46.46,0,0,1,.34.08,1.68,1.68,0,0,1-.63,0Z"/><path class="cls-64" d="M109.68,76.68l.13-.17c.09.2.32.31.33.56,0,.08-.07.16-.19.15S109.49,77,109.68,76.68Z"/><path class="cls-65" d="M94.14,83a1.07,1.07,0,0,1-.66.26.33.33,0,0,1,0-.17.53.53,0,0,1,.52-.26A.24.24,0,0,1,94.14,83Z"/><path class="cls-66" d="M102.73,77.8c0,.13,0,.28-.1.39a3.79,3.79,0,0,1,0-1h.11A.43.43,0,0,1,102.73,77.8Z"/><path class="cls-67" d="M90.6,83.23a2.25,2.25,0,0,1-1.06-.1.48.48,0,0,1,.38-.17,1.13,1.13,0,0,1,.63.09A.12.12,0,0,1,90.6,83.23Z"/><path class="cls-68" d="M95,82.37l.15.14a1.21,1.21,0,0,1-.54.22c-.08,0-.16-.09-.15-.2A.41.41,0,0,1,95,82.37Z"/><path class="cls-69" d="M97.55,81.39a.53.53,0,0,1-.34.22.18.18,0,0,1-.19,0c0-.36.22-.45.53-.42A.17.17,0,0,1,97.55,81.39Z"/><path class="cls-70" d="M106.38,83.11a.85.85,0,0,1-.54-.23.52.52,0,0,1,.18-.18.38.38,0,0,1,.42.25A.19.19,0,0,1,106.38,83.11Z"/><path class="cls-71" d="M112.19,83.38a1.43,1.43,0,0,1-.79.1.19.19,0,0,1,0-.16.62.62,0,0,1,.26-.09.75.75,0,0,1,.44.08Z"/><path class="cls-72" d="M91.27,76.19H91.1c0-.15,0-.29,0-.44a.19.19,0,0,1,.12-.19l0,0a1,1,0,0,1,.12.45A.15.15,0,0,1,91.27,76.19Z"/><path class="cls-73" d="M89.48,83.11a1.46,1.46,0,0,1-.8-.1l0-.05a.69.69,0,0,1,.56-.1.48.48,0,0,1,.18.08A.14.14,0,0,1,89.48,83.11Z"/><path class="cls-74" d="M105.12,82.6c-.14-.06-.31-.07-.4-.22a.12.12,0,0,1,0-.16.44.44,0,0,1,.55.19C105.28,82.52,105.21,82.57,105.12,82.6Z"/><path class="cls-75" d="M94.14,83l-.13-.1c0-.19.18-.24.36-.23a.31.31,0,0,1,.15.1.28.28,0,0,1-.2.12h0Z"/><path class="cls-76" d="M97.9,80.57l.28,0,0,.25a.16.16,0,0,1-.14,0,.69.69,0,0,1-.37-.16.22.22,0,0,1,0-.16A.21.21,0,0,1,97.9,80.57Z"/><path class="cls-77" d="M98.05,80.84a.17.17,0,0,1,.1,0,.46.46,0,0,1-.36.39.23.23,0,0,1-.06-.16C97.78,80.91,97.84,80.78,98.05,80.84Z"/><path class="cls-78" d="M98.31,77c0-.22-.1-.45.09-.65A1.31,1.31,0,0,1,98.31,77Z"/><path class="cls-79" d="M97.79,81.06v.17a.34.34,0,0,1-.24.16v-.17C97.53,81,97.65,81,97.79,81.06Z"/><path class="cls-80" d="M90.91,83.25h.7a.38.38,0,0,1,0,.1A1.1,1.1,0,0,1,90.91,83.25Z"/><path class="cls-81" d="M96.54,81.88c-.09.15-.27.15-.39.26l-.05-.08a.33.33,0,0,1,0-.17.35.35,0,0,1,.45-.17A.14.14,0,0,1,96.54,81.88Z"/><path class="cls-82" d="M91.49,74.66h-.12c0-.22-.05-.45.1-.65l0,.27A.28.28,0,0,1,91.49,74.66Z"/><path class="cls-83" d="M103.24,81.72l-.17-.12a.15.15,0,0,0-.1-.09v-.06a.1.1,0,0,1,0-.15c.22-.06.34,0,.42.25a.57.57,0,0,1,0,.18A.1.1,0,0,1,103.24,81.72Z"/><path class="cls-84" d="M111.4,83.39a.28.28,0,0,1,0,.09,1.15,1.15,0,0,1-.52,0,.17.17,0,0,1,0-.17.46.46,0,0,1,.16-.07A.29.29,0,0,1,111.4,83.39Z"/><path class="cls-85" d="M112.41,83.23a.36.36,0,0,1,.29.13l-.51,0v0a.09.09,0,0,1,0-.13A.18.18,0,0,1,112.41,83.23Z"/><path class="cls-86" d="M89.48,83.11l0-.13a.41.41,0,0,1,.48,0,.1.1,0,0,1,0,.17l-.41,0h0Z"/><path class="cls-87" d="M110.41,77.58l-.13.12a.12.12,0,0,1-.15,0,.31.31,0,0,1,0-.32l.07-.06Z"/><path class="cls-88" d="M96.54,81.88v-.13a.22.22,0,0,1,.25-.19.28.28,0,0,1,.15.2Z"/><path class="cls-89" d="M103.34,81.71l0-.14c.25-.08.38,0,.4.28a.11.11,0,0,1-.17,0h-.14S103.34,81.79,103.34,81.71Z"/><path class="cls-90" d="M105.12,82.6l.14-.13c.14-.07.23,0,.26.11l-.15.13Z"/><path class="cls-91" d="M113.84,81.6c.11.06.1.18.13.28a.12.12,0,0,1,0,.1h-.11a.23.23,0,0,1-.1-.22A.31.31,0,0,1,113.84,81.6Z"/><path class="cls-82" d="M92.36,73.68c-.11.13-.26.1-.41.08A.5.5,0,0,1,92.36,73.68Z"/><path class="cls-92" d="M96.94,81.76l-.15-.15a.13.13,0,0,1,.18,0l.24,0A.29.29,0,0,1,96.94,81.76Z"/><path class="cls-93" d="M106.75,83.13l0,.15a.19.19,0,0,1-.21,0,.43.43,0,0,1,0-.11.11.11,0,0,1,0-.1s0-.06,0-.06A.2.2,0,0,1,106.75,83.13Z"/><path class="cls-94" d="M110.93,83.37a.5.5,0,0,1,0,.13l0,0h-.07l-.22-.13A.25.25,0,0,1,110.93,83.37Z"/><path class="cls-95" d="M104.37,82.22s0-.08,0-.12.22,0,.3.07a.21.21,0,0,1,0,.17C104.5,82.35,104.44,82.28,104.37,82.22Z"/><path class="cls-96" d="M107.22,83.5l.34,0h.06l.06.13A.59.59,0,0,1,107.22,83.5Z"/><path class="cls-87" d="M110,77.21l.12-.14,0,.23,0,0a.1.1,0,0,1-.13,0A.13.13,0,0,1,110,77.21Z"/><path class="cls-97" d="M96.15,82.14a.3.3,0,0,1-.23.11l0-.07c.05-.14.14-.16.26-.1Z"/><path class="cls-98" d="M103,81.33a.49.49,0,0,1,0,.12.18.18,0,0,1-.13-.23h0C103,81.15,103,81.23,103,81.33Z"/><path class="cls-31" d="M89.46,78.06a.21.21,0,0,1-.25.13A.28.28,0,0,1,89.46,78.06Z"/><path class="cls-2" d="M114.83,13.09a.26.26,0,0,1-.26-.11A.23.23,0,0,1,114.83,13.09Z"/><path class="cls-99" d="M103.59,81.86l.19,0,.07,0-.12.13Z"/><path class="cls-85" d="M112.93,83.36c.07-.1.14-.14.25-.06A.26.26,0,0,1,112.93,83.36Z"/><path class="cls-97" d="M95.66,82.36a.34.34,0,0,0,0-.1c.06-.1.14-.1.23,0l0,0A.3.3,0,0,1,95.66,82.36Z"/><path class="cls-2" d="M111.8,26.31a.21.21,0,0,1-.18.17.13.13,0,0,1-.12,0l0-.12h0Z"/><path class="cls-100" d="M106.52,83.24l.21,0v.08C106.63,83.36,106.55,83.34,106.52,83.24Z"/><path class="cls-101" d="M93.51,83.08l0,.16-.19,0,0,0a.11.11,0,0,1,0-.15A.23.23,0,0,1,93.51,83.08Z"/><path class="cls-102" d="M103.34,81.71l.11.14a.17.17,0,0,1-.21-.13Z"/><path class="cls-80" d="M90.6,83.23v-.09a.19.19,0,0,1,.28,0l0,.13Z"/><path class="cls-26" d="M115.6,15a.22.22,0,0,1,.23-.12A.22.22,0,0,1,115.6,15Z"/><path class="cls-103" d="M94.52,82.75l-.18,0c0-.09.07-.14.17-.11l.12.13,0,0Z"/><path class="cls-104" d="M106,82.77l-.17.11a.09.09,0,0,1-.07,0l.1-.12A.09.09,0,0,1,106,82.77Z"/><path class="cls-72" d="M91.09,76.24a.21.21,0,0,1-.12.19Z"/><path class="cls-82" d="M91.73,73.81a.15.15,0,0,1-.14.09C91.62,73.84,91.66,73.8,91.73,73.81Z"/><path class="cls-103" d="M94.32,82.87Z"/><path class="cls-105" d="M87.69,82.79s0,.08,0,.11a.12.12,0,0,1-.11,0S87.62,82.77,87.69,82.79Z"/><path class="cls-106" d="M106.5,83v.12h-.06l-.06,0V83A.1.1,0,0,1,106.5,83Z"/><polygon class="cls-107" points="90.3 77.37 90.32 77.41 90.28 77.38 90.3 77.37"/><path class="cls-26" d="M115.85,14.85a.16.16,0,0,1,.15-.1A.13.13,0,0,1,115.85,14.85Z"/><path class="cls-108" d="M104.61,82.34v-.1s.09,0,.13,0l0,.13A.14.14,0,0,1,104.61,82.34Z"/><path class="cls-102" d="M103,81.51a.09.09,0,0,1,.1.09Z"/><path class="cls-100" d="M106.77,83.39a.17.17,0,0,1,.16.08A.16.16,0,0,1,106.77,83.39Z"/><path class="cls-72" d="M91,76.43l-.13.13A.14.14,0,0,1,91,76.43Z"/><path class="cls-109" d="M88.05,26.7a2.17,2.17,0,0,1-.19-.33c-.27-.92-.53-1.85-.8-2.77-.08-.16,0-.31,0-.47A6.1,6.1,0,0,0,86.22,20c-.29-.62-.48-1.29-.71-1.94a1.35,1.35,0,0,1-.14-.35.22.22,0,0,1,0-.17.27.27,0,0,1,.24-.24l1.59-.34c.12,0,.2,0,.29.09.23-.12.36.06.49.17a13,13,0,0,1,1.68,1.87c.28.38.31.71-.12,1a2.34,2.34,0,0,0-.76,1.47c.19-.29.24-.65.41-.95S89.63,20,90,20s.57.32.76.59a.56.56,0,0,1-.08.79,5.43,5.43,0,0,0-1.32,4.13,8.14,8.14,0,0,1,.55-2.88,2.89,2.89,0,0,1,.65-1.06c.32-.32.63-.41,1-.05s.75,1,1.18,1.47A1.64,1.64,0,0,1,93,24.32a12.18,12.18,0,0,0-.9,2.4,2.25,2.25,0,0,0,0,1.18,2.56,2.56,0,0,1,.05.27.59.59,0,0,0,.15.33,7.82,7.82,0,0,0,.63.77,1.72,1.72,0,0,1,.32,1.53.48.48,0,0,1-.57.44,4.92,4.92,0,0,0-.76-.09l-.19,0a2.6,2.6,0,0,1-1.24-1,2.14,2.14,0,0,1-.56-1.62.56.56,0,0,0-.52-.7,1.88,1.88,0,0,1-1-.44,3.81,3.81,0,0,1-.4-.5A.2.2,0,0,1,88.05,26.7Z"/><path class="cls-2" d="M92.9,24.33c0-.15,0-.29,0-.43a1.41,1.41,0,0,0-.48-1.16,4.69,4.69,0,0,1-.89-1.19,1.62,1.62,0,0,0-.39-.7,41.61,41.61,0,0,0-2.71-3.37,3,3,0,0,0-.8-.6s.06-.07.09-.08l1.54-.29a.36.36,0,0,0,.1.28A21.21,21.21,0,0,0,90.9,18.5a2,2,0,0,1,.46.67,5.65,5.65,0,0,0,.62.94.49.49,0,0,0,.6.18,4.12,4.12,0,0,1,2.23,0s.06.05.1.08a2.05,2.05,0,0,1-1,.43c-.29-.22-.32,0-.4.22a4.43,4.43,0,0,0,0,2.23C93.58,23.92,93.46,24.12,92.9,24.33Z"/><path class="cls-110" d="M87.6,16.88a.74.74,0,0,1,.67.27,28.74,28.74,0,0,1,2.14,2.52c.34.5.72,1,1.09,1.44.12.15.16.3,0,.44-.46-.35-.46-.35-.83.08a3.39,3.39,0,0,0-.57,1,7.27,7.27,0,0,0-.52,2.52,1.57,1.57,0,0,1-.07.68.22.22,0,0,1-.14.11.19.19,0,0,1-.14-.11.64.64,0,0,1,0-.24,7.18,7.18,0,0,1,.56-3.14A3.35,3.35,0,0,1,90.88,21a4.2,4.2,0,0,0-.7-.93c-.08-.09-.2-.05-.29,0a1.4,1.4,0,0,0-.56.73c-.08.27-.16.53-.25.78a1.79,1.79,0,0,1-.2.39.17.17,0,0,1-.22.07.21.21,0,0,1-.12-.21,1,1,0,0,1,0-.24c0-.12.09-.24.14-.36.4-1.06.25-.88,1.13-1.59A9.6,9.6,0,0,0,87.54,17Z"/><path class="cls-111" d="M85.42,17.5v.13c0,.08-.1.08-.15,0a.25.25,0,0,1-.09-.24Z"/><path class="cls-27" d="M95.65,73.9s.11.1.1.15c0,.44.25.54.59.6.16,0,.33,0,.45.13a.24.24,0,0,1-.15.19.49.49,0,0,1-.17,0,3.15,3.15,0,0,0-.44,0,.77.77,0,0,1-.38-.12.7.7,0,0,1,0-.91Z"/><path class="cls-112" d="M96.66,74.9l.13-.12c.46,0,.91,0,1.37,0V75A1.47,1.47,0,0,1,96.66,74.9Z"/><path class="cls-113" d="M92,40.46l.1-.22a.35.35,0,0,1,.16-.18,2.61,2.61,0,0,1,2.84.86,4.13,4.13,0,0,1,.17,3.92,1.16,1.16,0,0,1-1.81.54c-.09-.07-.18-.16-.28-.23l-.13-.09a.57.57,0,0,0-.13-.08l-.07,0c-.11,0-.23-.06-.31.06a.78.78,0,0,0,0,.22c0,.16-.06.32-.09.48l0,.34a3.68,3.68,0,0,0,.15,1.58c.06.2.13.4.39.4a.58.58,0,0,1,.34.11c.15.44-.23.52-.48.67A1.77,1.77,0,0,0,92,50.93a1.07,1.07,0,0,0,1.45.61c.38-.12.73-.45,1.18-.19a.23.23,0,0,1-.13.31,3.34,3.34,0,0,0-.89.3,1.34,1.34,0,0,1-1.43-.08s-.08,0-.16,0a1.67,1.67,0,0,0,0,.59c0,.21,0,.42,0,.63s0,.41,0,.62c-.36.16-.7-.08-1,0a7,7,0,0,1-.78-.24,1.05,1.05,0,0,1-.79-1.15,12.3,12.3,0,0,0-.39-4c0-.13,0-.25,0-.38a1.89,1.89,0,0,1,.06-.67c.13-.33.28-.23.43,0,.2,1.61.92,3.16.6,4.85.95-.8.95-.8,1.17-1.9a2.19,2.19,0,0,1,.36-1,1.49,1.49,0,0,0,.23-1.53A3.19,3.19,0,0,1,91.75,46a2.73,2.73,0,0,0,.07-.75c0-.73.46-1,1.17-.85a5.19,5.19,0,0,1,.79.38c.46.22.78.12,1-.36a3.45,3.45,0,0,0-.24-3.2c-.41-.64-1.11-.58-1.76-.59C92.48,40.65,92.17,40.82,92,40.46Z"/><path class="cls-114" d="M94.54,51.66l.12-.21a.29.29,0,0,1,.16-.21c.16,0,.32-.07.41.12a5.22,5.22,0,0,1,.43,1c.32.91.58,1.84.81,2.77a1.32,1.32,0,0,1,0,.44.51.51,0,0,1-.4.43.44.44,0,0,1-.48-.21.9.9,0,0,1-.13-.28,24,24,0,0,1-1-3.63A.61.61,0,0,1,94.54,51.66Z"/><path class="cls-115" d="M95.23,51.36a.94.94,0,0,0-.47,0,2,2,0,0,1,2.74-.74,3.91,3.91,0,0,0,.7.53c.38.31,1,.35,1.14.91l-.16.14a5.72,5.72,0,0,1-2-1.25.84.84,0,0,0-1.1-.11C95.79,51,95.51,51.19,95.23,51.36Z"/><path class="cls-116" d="M91.21,53.61c.09,0,.18-.1.29-.07l.58.17a5.68,5.68,0,0,0,.28.55,1.59,1.59,0,0,1,.26,1.35c-.1.14-.09.37-.31.42a.2.2,0,0,1-.14-.11A1.88,1.88,0,0,0,91.38,54,.38.38,0,0,1,91.21,53.61Z"/><path class="cls-116" d="M91.51,56.79c-.08-.13-.18-.17-.31-.07a1.06,1.06,0,0,1-.87.27,2.76,2.76,0,0,1,1.89-1l0,0c0,.3-.25.35-.38.51Z"/><path class="cls-7" d="M91.87,56.5c.06-.21.29-.3.38-.51s.21-.29.37-.38C92.66,56.14,92.3,56.36,91.87,56.5Z"/><path class="cls-117" d="M106.38,73.92l.12.22s0,.08-.08.08c-.84,0-.94.58-.88,1.26a.72.72,0,0,1-.24.72c-.29-.31-.25-1-.92-.88-.13,0-.29-.08-.27-.27.15,0,.29,0,.44,0,.33-.07.61-.15.61-.61,0-.27.17-.35.49-.36A1.65,1.65,0,0,0,106.38,73.92Z"/><path class="cls-118" d="M104.11,75.05a.37.37,0,0,0,.29.14.91.91,0,0,1-1.3.08v-.09l.26,0a.58.58,0,0,1,.48,0Z"/><path class="cls-119" d="M103.84,75.15h-.48C103.57,75,103.62,75,103.84,75.15Z"/><path class="cls-120" d="M93.34,45.14l.27.16a1,1,0,0,0,1.49-.43,4.15,4.15,0,0,0-.22-4,1.23,1.23,0,0,0-.85-.59c-.39-.07-.79-.1-1.19-.15a1.51,1.51,0,0,0-.73.14.32.32,0,0,1-.2-.21c-.13-.44-.27-.87-.38-1.3a.66.66,0,0,1,0-.24,1.24,1.24,0,0,1,.13-.73,9.41,9.41,0,0,0,.38-5.53,1.21,1.21,0,0,1,0-1c.75-.22,1.15,0,1.23.77a2.21,2.21,0,0,0,0,.37c0,.16.08.32.13.47a1.28,1.28,0,0,1,0,.27,1.57,1.57,0,0,0,.8,1.26,3.33,3.33,0,0,1,.78.62,1.78,1.78,0,0,1,.3.58,10.94,10.94,0,0,0,.35,2.61,4.74,4.74,0,0,0,7.06,2.8,7.31,7.31,0,0,0,4-6.72,6,6,0,0,0-.27-2.11.66.66,0,0,1,0-.61,6.5,6.5,0,0,0,1.37-1,4.63,4.63,0,0,0,1-1.95.61.61,0,0,1,.36-.39c.37.56.15,1.17.14,1.77,0,2.92,0,5.82,1.4,8.51a4,4,0,0,0,3.49,2.51.59.59,0,0,1,.5.21,4.67,4.67,0,0,1,.06,1.86c0,.38-.07.75-.09,1.12-.16.91-.16,1.83-.33,2.74a.77.77,0,0,1-.89.74c-.61,0-1.22,0-1.83,0a31.1,31.1,0,0,0-5.18.57,4.18,4.18,0,0,0-.93.14c-1.8.12-3.6.2-5.41.18a5,5,0,0,1-1.55.1A5.23,5.23,0,0,1,97,48.24a3.59,3.59,0,0,0-2.7-.35.71.71,0,0,1-.2,0c-.32-.22-.27-.6-.37-.91a11.21,11.21,0,0,1-.54-1.73C93.22,45.13,93.27,45.11,93.34,45.14Z"/><path class="cls-2" d="M92,40.46c.09,0,.17.13.29.09a3.15,3.15,0,0,1,1.67.06,1,1,0,0,1,.68.52,3.92,3.92,0,0,1,.24,3.45.75.75,0,0,1-1.21.39l-.48-.3a1,1,0,0,0-1-.05c-.16.06-.25.14-.25.31s0,.46,0,.69a.57.57,0,0,1-.11.42,1.14,1.14,0,0,1-.05-1.13A26.13,26.13,0,0,1,90,47c-.14.14-.23.37-.5.3l-.09-.08s-.05-.06-.09-.07-.07,0-.07.07c0,.24,0,.48,0,.72s-.19.42-.48.41a11.68,11.68,0,0,0-.09,2.21c0,.31.07.64-.15.91-.4-.05-.28-.38-.31-.62A6.55,6.55,0,0,0,88,49.06c-.26-.07-.43.11-.59.26a2.79,2.79,0,0,1-1,.61c-.21.12,0,.26,0,.39a.89.89,0,0,1-.09.6c-.31.12-.26-.16-.33-.3s-.06-.22-.2-.19-.15.12-.19.22c-.13.3,0,.67-.22.93a.42.42,0,0,1-.11-.34c0-.27,0-.54,0-.81a.39.39,0,0,0-.14-.38,2.43,2.43,0,0,1-.72-1.16,4.72,4.72,0,0,1-.13-1c0-.81-.17-1.62-.23-2.43a23.25,23.25,0,0,1-.17-2.64,14.11,14.11,0,0,0-.22-2.75s0,0,0-.07c0-.69-.11-1.38-.12-2.07,0-1.76,0-3.53,0-5.29a1.33,1.33,0,0,0-.4-1.08A1.19,1.19,0,0,1,82.8,31a4.91,4.91,0,0,1-.15-2.79,3.13,3.13,0,0,1,.74-1.3.68.68,0,0,1,.47-.28.34.34,0,0,0,.24-.06.82.82,0,0,1,.93-.14.16.16,0,0,0,.12,0s0-.06,0-.09c-.1-.23-.11-.24.1-.26a1.33,1.33,0,0,1,.74,0c.08,0,.15,0,.21-.1.19.63.4,1.27.59,1.9.3,1,.59,2,.88,3,.1.34.19.68.28,1a.9.9,0,0,0-.93,1,1.91,1.91,0,0,1-.1.62,1.86,1.86,0,0,0,0,1.07,4.64,4.64,0,0,1-.09,1.44,17.65,17.65,0,0,0-.11,2.06,1.8,1.8,0,0,0-.14.86c0,1.44,0,2.89,0,4.34,0,.71-.06,1.42-.11,2.12a.38.38,0,0,1-.07.3,4.89,4.89,0,0,0-1,2.32,1.22,1.22,0,0,0,.29-.55c.06-.16.09-.32.14-.48A1.86,1.86,0,0,1,87,45.66a10.83,10.83,0,0,0,2.4-1.88c.14-.11.13-.3.18-.46a3.41,3.41,0,0,1,1.39-2,.61.61,0,0,0,.17.07.66.66,0,0,0,.89-.72A2.11,2.11,0,0,0,92,40.46Z"/><path class="cls-2" d="M92.12,31.32a1.63,1.63,0,0,0,.08.62,9.67,9.67,0,0,1-.47,6.21c0,.12-.11.22-.17.34a.37.37,0,0,1-.19-.23q-.86-2.9-1.69-5.78c-.41-1.37-.83-2.73-1.23-4.09a3.36,3.36,0,0,1-.24-1,.12.12,0,0,1,.17,0,2.09,2.09,0,0,0,1,.45.62.62,0,0,1,.55.71,2.31,2.31,0,0,0,.59,1.61,6.87,6.87,0,0,0,.91.88l.16.06a.7.7,0,0,0,.32.09C92,31.16,92.11,31.15,92.12,31.32Z"/><path class="cls-2" d="M88,32a13.71,13.71,0,0,1,.47,1.41c.3,1,.58,2,.87,2.94l1,3.67c-.27.54-.82.57-1.31.69a7.06,7.06,0,0,1-.92.15c-.39-.35-.19-.83-.26-1.24-.2-1.2-.41-2.41-.59-3.62a2.55,2.55,0,0,1-.06-.73,4.52,4.52,0,0,0-.09-2.1.66.66,0,0,1-.06-.2C87.09,32.07,87.17,32,88,32Z"/><path class="cls-121" d="M88.17,40.82c0-.12,0-.26.22-.24a3,3,0,0,0,2-.54,4.9,4.9,0,0,1,.36,1.2c-.06.31-.31.5-.48.73a4.14,4.14,0,0,0-.7,1.33,1.06,1.06,0,0,1-1,.88c-.41-.33-.26-.82-.29-1.22A4.83,4.83,0,0,1,88.17,40.82Z"/><path class="cls-122" d="M88.7,44.14a.81.81,0,0,1,.12-.14c.57-.45.48-.35.64-1a2.28,2.28,0,0,1,.49-.92c.24-.29.5-.56.76-.83l.26.12a.37.37,0,0,1-.17.32,3.28,3.28,0,0,0-1,1.31,1.32,1.32,0,0,0-.13.48.71.71,0,0,1-.37.61,6.79,6.79,0,0,0-.87.72,4.43,4.43,0,0,1-1.72,1.14.77.77,0,0,0-.5.45,4.37,4.37,0,0,0-.33.94,1.83,1.83,0,0,1-.43,1,.13.13,0,0,1-.17,0,.56.56,0,0,1-.1-.15.06.06,0,0,1,0-.06c.18-.58.35-1.16.55-1.73a1.53,1.53,0,0,1,.65-.75,1.09,1.09,0,0,1,.25-.23,18.19,18.19,0,0,0,1.65-1.1A2.59,2.59,0,0,0,88.7,44.14Z"/><path class="cls-123" d="M85.54,17.89a4.74,4.74,0,0,1,.24.51A19.74,19.74,0,0,0,86.88,21a3.74,3.74,0,0,1,.28,2.21c0,.09-.08.19-.21.11a3,3,0,0,1-.2-1A10.9,10.9,0,0,0,86.39,21l-.11-.23a.41.41,0,0,1,0-.16c0-.14-.11-.28-.15-.42s0-.14-.08-.2a.68.68,0,0,1,0-.14.28.28,0,0,0-.09-.18,6.69,6.69,0,0,1-.5-1.59C85.36,17.89,85.43,17.87,85.54,17.89Z"/><path class="cls-124" d="M88,32a1.34,1.34,0,0,1-.18.07c-.56.17-.56.17-.59.75a1.21,1.21,0,0,1,0,.19c-.09.11,0,.23,0,.34s-.05.45-.29.57c-.21-.11-.15-.26-.08-.42,0-.47.09-1,.15-1.43,0-.05.05-.14.09-.14.3-.05.59-.25.9-.06A.53.53,0,0,1,88,32Z"/><path class="cls-125" d="M86.42,20.79a2.46,2.46,0,0,1,.33,1.55s-.12-.08-.14-.13a15.18,15.18,0,0,1-.45-1.67.1.1,0,0,1,.16,0l0,0,0,0A.32.32,0,0,0,86.42,20.79Z"/><path class="cls-126" d="M86.32,20.54h-.16a1.49,1.49,0,0,1-.22-.74c0-.06,0-.06.08,0a.21.21,0,0,1,0,.11.42.42,0,0,1,.09.14A1.74,1.74,0,0,1,86.32,20.54Z"/><path class="cls-127" d="M88.32,27.36h-.11l-.14-.25a.21.21,0,0,1,0-.3,1.6,1.6,0,0,1,.37.41A.17.17,0,0,1,88.32,27.36Z"/><path class="cls-128" d="M87,23.31l.21-.11a.58.58,0,0,1-.1.4A.3.3,0,0,1,87,23.31Z"/><path class="cls-129" d="M85.54,17.89l-.13.14a.55.55,0,0,1-.14-.39h.15C85.48,17.71,85.55,17.78,85.54,17.89Z"/><path class="cls-130" d="M88.09,26.81l0,.3c-.13-.14-.17-.27,0-.41A.15.15,0,0,1,88.09,26.81Z"/><path class="cls-131" d="M86,19.79h-.08l0-.18Z"/><path class="cls-2" d="M98.65,48.54h1a1.2,1.2,0,0,0,.59-.09,4.09,4.09,0,0,0,1.35.1c.86,0,1.72,0,2.58,0a4.71,4.71,0,0,0,1.06,0,1.93,1.93,0,0,1,.41,0,5.69,5.69,0,0,0,.72-.12,35.18,35.18,0,0,1,6.15-.57,4.44,4.44,0,0,1,1.36.15.52.52,0,0,0,.66-.2.4.4,0,0,1,.18-.1c1.77.07,2.33-1.11,2.19-2.67-.24-2.56-.77-5.1-1.07-7.66a12.62,12.62,0,0,0-.4-1.72c0-.1,0-.28-.2-.23-.13.24,0,.53-.2.75-.38.07-.22-.25-.24-.37a4.32,4.32,0,0,0-1.14-2.09.58.58,0,0,0,.22.57c1,.89,1,2.13,1.16,3.32a4.34,4.34,0,0,1,0,.51c0,.83,0,1.67,0,2.5,0,.25,0,.51-.18.7a3.73,3.73,0,0,1-3.41-1.51,7.89,7.89,0,0,1-1.26-2.38,15.09,15.09,0,0,1-.75-3.94,28.74,28.74,0,0,1,0-4.15,3,3,0,0,0,0-.94,5.33,5.33,0,0,0,.93-.61,9.08,9.08,0,0,1,1.38-.94c.6-.29,1.2-.59,1.82-.85a5.47,5.47,0,0,1,2.65-.39,1.23,1.23,0,0,1,.74.31c.17.16.37.29.55.43a2.05,2.05,0,0,1,.81,1.63,4.14,4.14,0,0,1-.25,1.67,7.5,7.5,0,0,0-.39,2.4,13.13,13.13,0,0,0,.32,3c0,.14,0,.29.06.43a9.9,9.9,0,0,0,.26,1.87,11.11,11.11,0,0,1,.26,1.73,9.35,9.35,0,0,0,.19,1.18c.13.7.24,1.4.31,2.11,0,.52.16,1,.26,1.55.15.86.32,1.73.48,2.59.1.51.2,1,.33,1.53a1.75,1.75,0,0,1-.47,1.74,5.31,5.31,0,0,1-.65.6.52.52,0,0,0-.22.48v.76a.48.48,0,0,1-.1.35.62.62,0,0,1-.2-.57c0-.46-.17-.59-.64-.57-1.47,0-2.93.19-4.4.18s-3,0-4.46.15c-.22,0-.39-.15-.6-.18a4.23,4.23,0,0,0-2.06-.06c-1.3,0-2.59.19-3.9.24s-2.8.15-4.2.28a1.47,1.47,0,0,1-.74-.55,1,1,0,0,0-1.2-.28,4.22,4.22,0,0,0-1.48.88l-.1.09a.17.17,0,0,0-.21-.08c-.32.1-.64.21-1,.33a1.11,1.11,0,0,1-1.5-.49,1.48,1.48,0,0,1-.17-1.37,4.08,4.08,0,0,1,.43-.83.79.79,0,0,1,.44-.34,3.49,3.49,0,0,0,.39-.19.3.3,0,0,0,.16-.31,1.06,1.06,0,0,0,1-.24,3.53,3.53,0,0,1,2.77.43,4.55,4.55,0,0,0,2.93.47C99.59,48.75,99,49.1,98.65,48.54Z"/><path class="cls-132" d="M108.77,50.94a1,1,0,0,1,.29-.11c.68.05,1.33-.16,2-.14,1,0,2,0,3,0a4.4,4.4,0,0,0,1.25-.1,3.11,3.11,0,0,1,.75,0h1.13a2,2,0,0,0,.81-.09.92.92,0,0,1,.37,0c.2,0,.27.07.28.26s0,.59,0,.88a2,2,0,0,0,0,.25,17.73,17.73,0,0,1-.24,2.63c-.11.73-.18,1.46-.29,2.19s-.1,1.16-.14,1.75c-.07.88-.23,1.74-.32,2.62-.05.63-.18,1.25-.18,1.88s-.07,1.13-.11,1.7a2.67,2.67,0,0,1-.2.72.81.81,0,0,1-.31.38,3.16,3.16,0,0,1-1.89.59,14.62,14.62,0,0,0-1.88.22,2.93,2.93,0,0,1-1.18,0,5,5,0,0,0-.93-.16,1.44,1.44,0,0,1-1.2-.8c-.1-.17-.17-.34-.26-.51a1.29,1.29,0,0,0-.82-.64l-1.48-.32c-.24,0-.49-.07-.74-.11a3.39,3.39,0,0,0-1.19.09c-.31.06-.63.08-.93.17a1.36,1.36,0,0,1-1.26-.4.42.42,0,0,1-.11-.46c.07-.26.17-.52.25-.78a2.4,2.4,0,0,1,1.21-.22,1.18,1.18,0,0,0,1.17-1.27c-.1-2,0-3.93,0-5.9,0-.94.1-1.88.13-2.82,0-1.12,1-1.76,2.34-1.66C108.28,50.84,108.55,50.79,108.77,50.94Z"/><path class="cls-132" d="M98.18,51.31c0-.11.06-.21.18-.23h.32a6,6,0,0,0,1.19-.1,6.23,6.23,0,0,1,1.06,0,2.61,2.61,0,0,0,.88-.08,1.64,1.64,0,0,1,.5,0,8.44,8.44,0,0,0,1.94-.12,1.61,1.61,0,0,1,.44,0,3.67,3.67,0,0,0,.93-.09c.25-.06.55-.14.77.11,0,.31-.2.5-.36.71a1.86,1.86,0,0,0-.4,1.47,22.09,22.09,0,0,1-.09,2.82c0,1.36.1,2.72,0,4.08,0,.51,0,.55-.43.59a1.75,1.75,0,0,0-1.12-.62,9.38,9.38,0,0,1-1.47-.31,2.11,2.11,0,0,0-.62-.05,4.25,4.25,0,0,1-1.64-.4,1.07,1.07,0,0,1-.71-1.07c0-1.28,0-2.55,0-3.83a2.6,2.6,0,0,1,.07-.56,4.23,4.23,0,0,0,0-.94.51.51,0,0,0-.34-.54A7.92,7.92,0,0,0,98.18,51.31Z"/><path class="cls-133" d="M105.12,60.38c.11,0,.22,0,.23-.15s0-.34,0-.5a7.13,7.13,0,0,1,.1-1.38,1.09,1.09,0,0,0,0-.44,7.27,7.27,0,0,1-.1-1.68,15.93,15.93,0,0,1,.1-2.39,2.37,2.37,0,0,0,0-1,1.65,1.65,0,0,1,.29-1.31,6.75,6.75,0,0,1,.67-.83,2.61,2.61,0,0,1,2,0c0,.24-.12.18-.25.13h-.7a1.19,1.19,0,0,0-.9.38c-.13.13-.26.27-.38.41a1.19,1.19,0,0,0-.3.87c0,.19,0,.37,0,.56a6.84,6.84,0,0,1-.09,1.5,1.59,1.59,0,0,0,0,.38,19.68,19.68,0,0,0,.07,3.07.61.61,0,0,1,0,.19,17.74,17.74,0,0,0-.09,2.63,2.47,2.47,0,0,1-.07.81,1,1,0,0,1-.94.79l-1.5.18a.6.6,0,0,1,.57-.29c.23,0,.46,0,.69,0a1.18,1.18,0,0,0,1-1.14.72.72,0,0,0-.1-.29C105.29,60.71,105.21,60.55,105.12,60.38Z"/><path class="cls-134" d="M111.55,26.6h0s-.14,0-.15,0,0-.13.09-.15.06,0,.1,0l.08,0Z"/><path class="cls-132" d="M85.42,51.58c0-.24,0-.49,0-.74a.73.73,0,0,1,.31-.64.27.27,0,0,1,.43.16,1.56,1.56,0,0,1,0,.31.38.38,0,0,0,.11.28,3.83,3.83,0,0,1,.49,1.78c.22,1.22.32,2.47.43,3.7a36.15,36.15,0,0,0-.7-5.07,1.45,1.45,0,0,1,.67-1.83,6.44,6.44,0,0,1,.88-.59,1.05,1.05,0,0,1,.07-.11s.07-.06.11-.06.08,0,.08.08c0,.42,0,.83,0,1.25v1.07a.37.37,0,0,0,.11.28c.21.18.13.43.14.65,0,.78,0,1.56,0,2.33V49c0-.23-.06-.47.14-.66l.47-.37c.12.73.22,1.45.41,2.16A4.53,4.53,0,0,1,89.65,52a2,2,0,0,0,0,.49.89.89,0,0,0,.76.88c.29,0,.54.22.83.29l.41.37a1.65,1.65,0,0,1,.6,2,15.68,15.68,0,0,0-1.89,1,2,2,0,0,0-1.56.67.66.66,0,0,0-.06,1,1.47,1.47,0,0,0,.43.35c.4.22.8.46,1.21.66a2.64,2.64,0,0,1,1.21,1.53.7.7,0,0,1,0,.43c0,.28-.27.47-.34.73a3.69,3.69,0,0,1-.4.29.32.32,0,0,1-.23.08,3.36,3.36,0,0,1-1.31-.35A3.32,3.32,0,0,1,88.13,61a2.89,2.89,0,0,0-.42-.77,1.17,1.17,0,0,0-.75-.89h0l-.12-.13-.55-.4a.64.64,0,0,1-.34-.62c0-.19,0-.38,0-.56a9,9,0,0,0-.19-1.8c-.11-.8-.28-1.6-.33-2.41C85.41,52.84,85.41,52.21,85.42,51.58Z"/><path class="cls-2" d="M93.86,20.79c.08,0,.18,0,.22-.08a.93.93,0,0,1,.83-.3,5.27,5.27,0,0,1,1.08.3,4.1,4.1,0,0,1,1.69.91,8.11,8.11,0,0,0,.83.57.45.45,0,0,0,.73-.16c.17-.27.28-.58.57-.74a12.2,12.2,0,0,1,1.78-.87l.9-.26a7.07,7.07,0,0,1,2-.12c.19,0,.37.09.55.1a.72.72,0,0,1,.68.71,9.6,9.6,0,0,1,.15,1.93,1.57,1.57,0,0,1-.21.78.77.77,0,0,0-.1.77,1.84,1.84,0,0,1,.06.62c0,.71,0,1.43,0,2.14-.06.07,0,.18-.1.26l0,.13c.06.23.22.47-.12.63-.14.15-.26.32-.41.47a.67.67,0,0,0-.22.56c0,.12,0,.25,0,.37a3.45,3.45,0,0,1,0,1.5,2.6,2.6,0,0,0,0,.56,1.16,1.16,0,0,1-.22.7,6.13,6.13,0,0,0-.69,1.12,1.75,1.75,0,0,1-.66.89A5.6,5.6,0,0,0,101.8,37c-.31.8-.66,1.54-1.63,1.72a5.8,5.8,0,0,1-1.5,0,2.64,2.64,0,0,1-1.91-1.21A19.26,19.26,0,0,1,95.08,35a1.38,1.38,0,0,0-.53-.43,2,2,0,0,1-1.11-1.64,8.37,8.37,0,0,1-.19-2.54,1.4,1.4,0,0,0-.49-1.28,3.1,3.1,0,0,1-.62-.85,1.29,1.29,0,0,1,0-.19l-.06-.2a2.34,2.34,0,0,1-.05-.7,5.73,5.73,0,0,1,1.34-3.06.89.89,0,0,0,.12-.89,3.72,3.72,0,0,1,0-1.93C93.55,21.09,93.56,20.83,93.86,20.79Z"/><path class="cls-109" d="M115.33,14.87a1.34,1.34,0,0,0-.89.72c-.29.66-.75,1.23-1,1.91a2.39,2.39,0,0,0-.13.21c-.38.93-.83,1.81-1.15,2.76a1.81,1.81,0,0,1-.13.35,2.94,2.94,0,0,0-.34,1.86,7.14,7.14,0,0,0-.11,1.38,5.25,5.25,0,0,1-.27,1.8,2.1,2.1,0,0,1-.84,1.14,9.59,9.59,0,0,1-1.49.94.53.53,0,0,0-.31.44,3.67,3.67,0,0,1-.52,1.34,3.72,3.72,0,0,1-1.8,1.42,1.54,1.54,0,0,1-.74.07c-.32,0-.46-.16-.47-.48,0-.53,0-1.05,0-1.58a.54.54,0,0,1,.14-.34.86.86,0,0,0,.25-.42c.09-.22,0-.48.23-.66,0,0,0-.06,0-.09.14-.47,0-1,.11-1.42l0-.52a8.48,8.48,0,0,1,.31-2.29,4.76,4.76,0,0,1,1-1.56c.15-.12.25-.28.4-.39.48-.2.65.18.82.48a5.06,5.06,0,0,1,.75,2.94c0,.23,0,.46,0,.69a4.94,4.94,0,0,0-.9-3.94A1.15,1.15,0,0,1,109,20c.23,0,.33.12.46.26a5.85,5.85,0,0,1,.6.81c.17.29.28.6.42.9a3.75,3.75,0,0,0-1-1.72.69.69,0,0,1,0-1.05q1.16-1.38,2.34-2.73a6.78,6.78,0,0,0,.69-.73,4,4,0,0,1,2.31-1.63c.45,0,.78.17.55.73Z"/><path class="cls-2" d="M106.6,31.57c.09.35.2.69.27,1a7.49,7.49,0,0,1-.25,4.22A7.69,7.69,0,0,1,103,41.14a5.37,5.37,0,0,1-2.4.69A4.63,4.63,0,0,1,96,39.25a6.26,6.26,0,0,1-.71-3.65,8.18,8.18,0,0,1,1.25,1.64c.93,1.51,2,1.7,3.81,1.35.88-.16,1.08-.92,1.39-1.58a6.37,6.37,0,0,1,1.84-3.18,1.11,1.11,0,0,1,.4-.29c.23-.13.31-.39.46-.59a2,2,0,0,1,.4-.47.58.58,0,0,0,.3-.44.32.32,0,0,1,.35-.28A2.31,2.31,0,0,0,106.6,31.57Z"/><path class="cls-135" d="M104,33.54a5.74,5.74,0,0,1-1,1.19,2,2,0,0,0-.54.82c-.18.52-.4,1-.61,1.51-.12,0-.18,0-.13-.13a14.21,14.21,0,0,1,.55-1.79.49.49,0,0,1,.14-.21c.49-.43.83-1,1.3-1.43l.15-.11Z"/><path class="cls-136" d="M105.74,27.73a1,1,0,0,1-.23.66c0-.11,0-.22-.14-.28.16-.19,0-.43.12-.63Z"/><path class="cls-121" d="M111.54,26.46h-.05l0,0c0-.07,0-.15.11-.14Z"/><path class="cls-2" d="M107.37,21.9a4.84,4.84,0,0,0-1.36,3,2.42,2.42,0,0,1-.11.8c0-.59,0-1.17,0-1.75a.4.4,0,0,1,.05-.24,2,2,0,0,0,.21-1.09c0-.54,0-1.08,0-1.62,0-.19,0-.24.24-.26s.24-.09.13-.33a.44.44,0,0,1,.12-.28l.26-.27c.89-.94,1.82-1.85,2.67-2.83.68-.8,1.46-1.49,2.16-2.27a10.27,10.27,0,0,1,1.22-1.07,2.67,2.67,0,0,1,1-.48,1.41,1.41,0,0,1,.89.2,1.07,1.07,0,0,0,.46.17.77.77,0,0,1,.51.32.46.46,0,0,1-.14.79l-.34.17c0-.45-.1-.57-.56-.63a2.62,2.62,0,0,0-2,1.09c-.61.86-1.4,1.6-2.09,2.4-1,1.23-2,2.53-3.06,3.73C107.46,21.56,107.5,21.77,107.37,21.9Z"/><path class="cls-136" d="M105.87,26.22a5.24,5.24,0,0,1-.11,1.42c0-.37,0-.73,0-1.1A.35.35,0,0,1,105.87,26.22Z"/><path class="cls-136" d="M105.51,27.35a.27.27,0,0,1,.1-.26A.26.26,0,0,1,105.51,27.35Z"/><path class="cls-34" d="M86.82,59.26a.16.16,0,0,1,.12.13A.18.18,0,0,1,86.82,59.26Z"/><path class="cls-107" d="M96.66,74.9a3.35,3.35,0,0,0,1,0,4.13,4.13,0,0,1,.5,0,5.67,5.67,0,0,1,0,1.09c-.39,0-.79,0-1.18-.05a9.51,9.51,0,0,0-1.19.08,6.12,6.12,0,0,1-.53.83,5.76,5.76,0,0,1-.75.81.65.65,0,0,0-.15.88c.26.67-.42.71-.7,1a1.68,1.68,0,0,1-2,1.09,13.25,13.25,0,0,0-1.78-.07,11.86,11.86,0,0,0-1.18-.14c-.27,0-.55-.07-.69-.36,0-.13-.09-.27-.12-.41a.56.56,0,0,1,.3-.67l1-.68a.59.59,0,0,1,.37,0,9.9,9.9,0,0,0,2.37.11l.12,0a.19.19,0,0,0,.17-.16.18.18,0,0,0-.14-.19,2.1,2.1,0,0,0-.43,0l-1.51,0c-.1,0-.21,0-.26-.11a3.12,3.12,0,0,0,.58-.51l.25-.12c.42.05.84-.11,1.26,0a7.32,7.32,0,0,1,.93.09c.07,0,.18,0,.14-.13s-.1-.06-.16-.08a2.43,2.43,0,0,0-.76,0A2,2,0,0,1,91,76.93a.33.33,0,0,1,.09-.27.63.63,0,0,0,.2-.47l.06-.15a.6.6,0,0,1,0-.49,1.79,1.79,0,0,0,.13-.89c0-.12,0-.25,0-.38a1,1,0,0,1,.81-.36l.81,0a.6.6,0,0,0,.41-.1c.48,0,1,0,1.45,0a1,1,0,0,1,.55.1,5.37,5.37,0,0,1,0,1.61c.07-.28,0-.53.2-.72l.36,0c.12.08.27,0,.39.09Z"/><path class="cls-137" d="M90.76,78.22h1.09A1.84,1.84,0,0,1,90.76,78.22Z"/><path class="cls-138" d="M103.1,75.27a2.51,2.51,0,0,0,1.3-.08l.56,0a.22.22,0,0,1,.25.22c0,.17,0,.34,0,.5s0,.17.1.21c.12-.19,0-.4,0-.61s0-.67,0-1a.29.29,0,0,1,.32-.31l.81,0,1.37,0a.68.68,0,0,0,.42.09c.2,0,.41,0,.61,0s.49.19.49.52a7.87,7.87,0,0,0,.14,1.1,1.67,1.67,0,0,0,.15.76.33.33,0,0,0,.11.26l.23.27s0,.06,0,.08c-.53.38-1.12.12-1.68.2a1.06,1.06,0,0,0-.5,0c.17.26.43.08.65.13a3,3,0,0,0,.79-.07,1.46,1.46,0,0,1,.9.08l.12,0,.75.64c-.08.14-.22.07-.33.09a12.52,12.52,0,0,0-1.61.15c.71,0,1.39.32,2.1.13l.23,0a4,4,0,0,1,1,.54c.14.21.42.23.59.4a1.29,1.29,0,0,1-.16.9c-.22.34-.59.3-.91.37-.91,0-1.81.18-2.72.17a4.91,4.91,0,0,1-.86-.06c-.53-.15-.75-.59-1-1a1.75,1.75,0,0,0-.48-.27.52.52,0,0,1-.33-.75c.15-.37,0-.61-.21-.9-.38-.54-1-.88-1.15-1.6a5.3,5.3,0,0,0-2.1-.06,2.29,2.29,0,0,1-.37,0,2.74,2.74,0,0,1,0-.81C102.72,75.33,102.9,75.29,103.1,75.27Z"/><path class="cls-138" d="M102.73,77.8l0-.61c.05-.57.06-.58.63-.6s1.16,0,1.75,0a10.58,10.58,0,0,1,1.57,1.77c.21.28,0,.59-.18.87a1.37,1.37,0,0,0-.29.42c-.08.19-.25.32-.34.51-.16.46.05,1-.15,1.4,0,.08-.13.14-.21.1A8.74,8.74,0,0,1,103,80.21c-.12-.11-.11-.25-.12-.4l0-1A1.9,1.9,0,0,0,102.73,77.8Z"/><path class="cls-139" d="M106.37,79.2a1.68,1.68,0,0,0,.24-.69c0-.26-.28-.4-.43-.6-.35-.46-.78-.84-1.09-1.34l.14-.12c.26.29.45.64.74.91s.49.56.75.84a.44.44,0,0,1,.09.56,2.9,2.9,0,0,0-.16.41.2.2,0,0,0,.1.27l.77.39a.33.33,0,0,1-.15.11,1.06,1.06,0,0,1-.92-.38A.57.57,0,0,1,106.37,79.2Z"/><path class="cls-138" d="M98.06,78.71c0,.37,0,.74,0,1.11L97.8,80a7.69,7.69,0,0,1-1.94,1.13,1.42,1.42,0,0,1-.54.17.29.29,0,0,1-.14-.13c-.17-.45,0-.94-.14-1.4a3.07,3.07,0,0,0-.35-.51,5,5,0,0,1-.41-.76c-.19-.29,0-.51.15-.73s.57-.55.81-.87a1.1,1.1,0,0,1,1.18-.68,12.59,12.59,0,0,1,1.5.1c.21,0,.25.07.26.28v.87l0,.24C98,78,98.19,78.37,98.06,78.71Z"/><path class="cls-140" d="M96.42,76.19c-.2.18-.5,0-.69.19s-.21.4-.4.53l0,0c-.08,0-.09-.08-.12-.13.11-.23.35-.4.42-.67,0-.08.13-.08.21-.07a.32.32,0,0,0,.27.1Z"/><path class="cls-141" d="M94.82,79.22l.31.31a3.74,3.74,0,0,1,.05,1.56c-.06.45-.58.48-.92.65a2.87,2.87,0,0,1-1.17.05c-1.6,0-3.2,0-4.8-.14a2.22,2.22,0,0,1-.89-.1.6.6,0,0,1-.08-.08.89.89,0,0,1-.39-.62,3.7,3.7,0,0,1,.14-1.24.21.21,0,0,1,.15-.14l.42-.06c.1.27,0,.61.37.72a3.08,3.08,0,0,0,1,.23l.75.1c.66.2,1.35,0,2,.14a2.23,2.23,0,0,0,.63,0,1,1,0,0,0,.89-.77c0-.14.07-.29.24-.33a1.75,1.75,0,0,0,.68-.3C94.47,78.93,94.64,79,94.82,79.22Z"/><path class="cls-142" d="M87.22,79.47l-.15.14,0-.12Z"/><path class="cls-102" d="M104.74,82.25h-.13a.32.32,0,0,0-.25-.14c-.1-.22-.31-.23-.51-.25l0,0h0a.72.72,0,0,0-.42-.26.63.63,0,0,0-.38-.24c0-.08,0-.14-.14-.1a.27.27,0,0,1,.25-.18.44.44,0,0,1,.16,0l.54.17.52.18.28.13a1.25,1.25,0,0,0,.27.1l.13,0,.25.12.26.11a.28.28,0,0,1,.09.1c0,.21.11.41-.07.59a.41.41,0,0,0-.26-.11A1.41,1.41,0,0,0,104.74,82.25Z"/><path class="cls-143" d="M103,80.21l2.64,1.37a.15.15,0,0,1,0,.11.12.12,0,0,1,0,0,.28.28,0,0,1-.26.06c-.33-.14-.64-.29-1-.44s-.72-.35-1.07-.55c-.14-.08-.26-.13-.37,0-.15-.08-.15-.22-.12-.36A1.53,1.53,0,0,1,103,80.21Z"/><path class="cls-144" d="M103,80.84s0-.08,0-.12,0-.22.17-.15c.43.2.86.42,1.28.63l.06,0c0,.11,0,.15-.13.17s-.38-.15-.59-.13a.8.8,0,0,0-.39-.14c-.08-.07-.2-.1-.26-.2Z"/><path class="cls-145" d="M103.11,80.94a.49.49,0,0,1,.28.13c0,.08-.09.08-.16,0l-.14,0S103.1,81,103.11,80.94Z"/><path class="cls-146" d="M111.19,78.71a.55.55,0,0,1-.35.12h-1.76a1.9,1.9,0,0,1-.25,0,.2.2,0,0,1-.17-.17.2.2,0,0,1,.12-.2,1.71,1.71,0,0,1,.3-.09h1.45s.11,0,.17.07c-.12,0-.26,0-.34.12s.12.15.34.15Z"/><path class="cls-147" d="M95.78,74.79l-.14.94c-.16-.07-.12-.18-.12-.26,0-.52,0-1,0-1.57h.12v.56A.36.36,0,0,0,95.78,74.79Z"/><path class="cls-148" d="M94.51,82.6a.2.2,0,0,0-.17.11c-.14,0-.23.11-.33.17s-.37.06-.5.2l-.26,0a3.12,3.12,0,0,1-1.14,0l-1,0c-.39-.11-.79,0-1.18-.09l-.52,0h0c-.23-.13-.49,0-.71-.12s-.69,0-1-.14c0,0-.09-.1-.14-.12a.53.53,0,0,1-.38-.57c0-.1,0-.21,0-.31a.14.14,0,0,1,.15,0c.15,0,.28.16.43.21a1.67,1.67,0,0,0,.49.08,1.26,1.26,0,0,1,.27,0,1.35,1.35,0,0,0,.82,0A8.68,8.68,0,0,1,91,82a1.9,1.9,0,0,0,.71.09h.58A3.71,3.71,0,0,0,94,81.92l.16,0a2.32,2.32,0,0,0,.38-.07l.14,0,.14,0h.08a.55.55,0,0,1,.12.64A1.24,1.24,0,0,0,94.51,82.6Z"/><path class="cls-97" d="M97,81.57l-.18,0c-.12,0-.17.09-.25.14a.79.79,0,0,0-.39.19.69.69,0,0,1-.51.19l-.11,0c-.14.06-.23,0-.24-.13s0-.2,0-.3a.24.24,0,0,1,0-.08.38.38,0,0,1,.1-.12,1.58,1.58,0,0,1,.35-.16l.29-.1.34-.11.27-.12c.11-.05.22-.08.33-.12l.14,0,.27-.09a.37.37,0,0,1,.29,0c.13,0,.29-.14.38.07a.47.47,0,0,0-.26.22.45.45,0,0,0-.25.16A1.36,1.36,0,0,0,97,81.57Z"/><path class="cls-149" d="M94.22,81.59c.11-.12.26-.12.4-.17.52-.19.52-.19.52-.76,0-.38,0-.75,0-1.13a.4.4,0,0,1,.16.38c0,.43,0,.86,0,1.29a.34.34,0,0,1,0,.36.48.48,0,0,1-.08.16h0l-.16-.17a.13.13,0,0,0-.21,0,.44.44,0,0,1-.39.16A.33.33,0,0,1,94.22,81.59Z"/><path class="cls-150" d="M94.52,81.61l.38,0v.16h0a.59.59,0,0,1-.2.12h0a.68.68,0,0,1-.37.06.15.15,0,0,1-.11-.12C94.26,81.63,94.44,81.69,94.52,81.61Z"/><path class="cls-151" d="M95.64,82.13l.51-.19v.14l-.24.15-.23,0Z"/><path class="cls-152" d="M106.51,79.46a1.56,1.56,0,0,0,.84.39c.34.31.38.89.91,1a8.67,8.67,0,0,0,2.69-.07c.39-.07.79.06,1.17-.1l.75-.2c.27-.07.31-.28.34-.51s.05-.28.36-.18l.11,0,.27.36c0,.27,0,.53,0,.8a1.18,1.18,0,0,1-.12.59l0,.12a.36.36,0,0,1-.3.27c-.64.12-1.29-.07-1.94,0-1.4.23-2.82,0-4.23.17a.67.67,0,0,1-.2,0c-1.65-.57-1.49-.34-1.36-2.29a1,1,0,0,0,.33-.29C106.21,79.5,106.3,79.3,106.51,79.46Z"/><path class="cls-153" d="M87.32,81.76l-.15,0-.1-.14a.25.25,0,0,1,.25-.12h0A.21.21,0,0,1,87.32,81.76Z"/><path class="cls-100" d="M106.5,83l-.12-.06a.53.53,0,0,0-.37-.18l-.14,0c0-.16,0-.31,0-.47a.18.18,0,0,1,.13-.17,2.37,2.37,0,0,1,1,.25l.16.07a3,3,0,0,0,.79,0H109a1.77,1.77,0,0,0,.69-.08.76.76,0,0,1,.21,0c.61,0,1.23,0,1.84,0h.91c.31,0,.61-.11.92-.18a.29.29,0,0,1,.18,0,.8.8,0,0,1-.32.81,3.26,3.26,0,0,1-1,.26.2.2,0,0,0-.21,0c-.15.12-.33,0-.49.06a2.36,2.36,0,0,0-.7,0h0l0,0-.38,0a3.34,3.34,0,0,0-1.3.09l-.33,0h-1.3l0,0h0l-.81-.35C106.67,83.08,106.61,83,106.5,83Z"/><path class="cls-154" d="M107,82.48a4.51,4.51,0,0,1-1-.39c-.11-.16-.27-.09-.42-.1a.11.11,0,0,1-.08,0,.08.08,0,0,1-.06-.1,1,1,0,0,1,.17-.13V80.29a.42.42,0,0,1,.15-.39c0,.4,0,.79,0,1.19s0,.48.4.6a5.5,5.5,0,0,1,1,.4C107.16,82.24,107.22,82.41,107,82.48Z"/><path class="cls-155" d="M112.52,79.11v0h-.05S112.48,79.12,112.52,79.11Z"/><path class="cls-156" d="M98.06,78.71a2,2,0,0,1,.1-1v1h-.1Z"/><path class="cls-157" d="M113.75,82.16l-.18.07a.28.28,0,0,1-.08-.15.25.25,0,0,1,.09-.23l.21-.13a1.84,1.84,0,0,0,0,.25Z"/><path class="cls-158" d="M92.11,83.14h1.14v.1H92.12A.28.28,0,0,1,92.11,83.14Z"/><path class="cls-159" d="M97.9,80.57l-.22.07c-.11.1-.26.14-.37.23s-.2,0-.27.11h0c-.09.08-.2,0-.31.07a1.2,1.2,0,0,0-.23.11l-.17,0a.23.23,0,0,1-.21-.14,4,4,0,0,1,1.82-1C98.11,80.28,98,80.42,97.9,80.57Z"/><path class="cls-160" d="M97.94,80.1a1.52,1.52,0,0,1-.49.25,6.51,6.51,0,0,0-1.34.74.22.22,0,0,1-.31,0,.11.11,0,0,1,0-.09s0,0,0,0a20.2,20.2,0,0,1,2-1Z"/><path class="cls-161" d="M91,76.93l1.26,0c.08,0,.17.07.17.18a.15.15,0,0,1-.11.12c-.4,0-.82.35-1.2-.07l-.25-.24Z"/><path class="cls-162" d="M91.1,77.18l.24.06c.11,0,.11,0,.5-.14,0,0,.08,0,.11,0a3.2,3.2,0,0,1,.42.1.1.1,0,0,1,.14,0,.2.2,0,0,1,0,.15c-.12.08-.27,0-.39.09l-1.12,0a.31.31,0,0,1-.27-.12v0a.14.14,0,0,1,.15,0Z"/><path class="cls-50" d="M90.87,77.3h-.15C90.77,77.21,90.82,77.23,90.87,77.3Z"/><path class="cls-163" d="M90,83a4.28,4.28,0,0,1,1.18.09l-.26,0H90.6l-.65,0A.34.34,0,0,0,90,83Z"/><path class="cls-164" d="M91.36,75.55a1,1,0,0,1,0,.49.39.39,0,0,1,0-.47Z"/><path class="cls-165" d="M88.7,82.87a1,1,0,0,1,.71.11l-.7,0S88.7,82.9,88.7,82.87Z"/><path class="cls-166" d="M111,83.35a1.15,1.15,0,0,1,.68-.09s0,0,0,.06,0,0,0,0l-.29,0Z"/><path class="cls-167" d="M111.7,83.35a.28.28,0,0,1,0-.09,1.1,1.1,0,0,1,.51,0,.28.28,0,0,0,0,.09Z"/><path class="cls-168" d="M97.27,80.82a.86.86,0,0,1,.41-.19v.14c0,.08-.13.08-.21.08A.11.11,0,0,1,97.27,80.82Z"/><path class="cls-169" d="M108.15,77.33l1.85,0,.15,0c0,.11,0,.23,0,.34a.16.16,0,0,1-.2.09,2.08,2.08,0,0,0-.66-.05,2.37,2.37,0,0,1-.85,0c.15-.27.33-.21.47-.23a2.32,2.32,0,0,0-.58,0,.49.49,0,0,1-.17-.06.11.11,0,0,1,0-.1S108.14,77.33,108.15,77.33Z"/><path class="cls-124" d="M93.86,20.79a3.6,3.6,0,0,0-.29,2.31,6.18,6.18,0,0,1,.07.62.55.55,0,0,1-.17.45,5.54,5.54,0,0,0-1.22,2.37,5.12,5.12,0,0,0-.14.68c-.33-.1-.16-.33-.13-.52a6,6,0,0,1,.69-2c.07-.13.15-.25.23-.37s.15-.15.23-.21a.68.68,0,0,0,.21-.74c-.08-.4-.15-.81-.2-1.23a4.75,4.75,0,0,1,.15-1,2.85,2.85,0,0,1,.13-.48.26.26,0,0,1,.29-.19c.16,0,.15.17.16.29S93.86,20.76,93.86,20.79Z"/><path class="cls-170" d="M92.24,28.11a1.91,1.91,0,0,0,.53.83l.31.32a1,1,0,0,1,.29.74v.19a10.84,10.84,0,0,0,.12,2.13,5.23,5.23,0,0,1,0,.69c0,.14,0,.16-.13.14l0-.21c-.08-.13,0-.29-.11-.41a.44.44,0,0,1-.12-.34c0-.19,0-.38,0-.57a.29.29,0,0,0-.28-.28l-.69,0-.39-.07c-.07-.07-.18,0-.25-.11l-.11,0c.06-.29.24-.15.39-.12a.09.09,0,0,1,.1,0c.26.15.55,0,.82.11.37-.06.36-.07.39-.34A1.79,1.79,0,0,0,92.5,29a2.93,2.93,0,0,1-.39-.56c-.08-.06,0-.17-.11-.24V28q.06-.09.12,0h0Z"/><path class="cls-171" d="M88.32,27.36l.14-.14a2.65,2.65,0,0,0,1.26.49c.3.05.36.11.38.39a2.06,2.06,0,0,1,0,.43,1.83,1.83,0,0,0,.42,1.39.91.91,0,0,1,.09.17c0,.14,0,.18-.16.17a2,2,0,0,1-.73-1.52,1.61,1.61,0,0,1,0-.31c0-.36,0-.35-.36-.46l-.53-.18A1,1,0,0,1,88.32,27.36Z"/><path class="cls-172" d="M90.46,30.26l.16-.17c.1.1.21.19.3.3a2.12,2.12,0,0,0,.84.61c-.13,0-.29,0-.39.12A3.54,3.54,0,0,1,90.46,30.26Z"/><path class="cls-173" d="M92.11,28H92a1.67,1.67,0,0,1,0-1.28c0,.17,0,.38.13.52Z"/><path class="cls-172" d="M92.68,31.12h-.55a.29.29,0,0,1-.27-.12A1.76,1.76,0,0,1,92.68,31.12Z"/><path class="cls-173" d="M92,28.23a.24.24,0,0,1,.11.24A.2.2,0,0,1,92,28.23Z"/><path class="cls-2" d="M96.53,74.9a.49.49,0,0,1-.39-.09A.38.38,0,0,1,96.53,74.9Z"/><path class="cls-132" d="M89.46,47.28l.77-.82a8.17,8.17,0,0,0,1-1.12,2.16,2.16,0,0,1,.4-.4.76.76,0,0,1,.21-.11c0,.43,0,.82,0,1.21a5.25,5.25,0,0,0,.27,2,1,1,0,0,1-.21,1,3,3,0,0,0-.54,1.39.17.17,0,0,0,0,.12c.2.37,0,.58-.28.8a7.05,7.05,0,0,0-1,1.07s-.07,0-.15,0a2.9,2.9,0,0,1,0-.93,3.45,3.45,0,0,0-.12-1.66c-.17-.67-.28-1.35-.39-2A5.44,5.44,0,0,1,89.46,47.28Z"/><path class="cls-174" d="M94.15,48c-.21.45-.35.49-.74.24l-.16-.1-.35,0a1,1,0,0,0-.11-.77A6,6,0,0,1,92.37,46a1.34,1.34,0,0,0-.07-.4l.07-.48c.09-.11.14-.26.3-.29s.24,0,.33.06h0a1.49,1.49,0,0,0,.14.12h0c0,.05.14.07.15.16a10.89,10.89,0,0,1,.78,2.36,1.57,1.57,0,0,0,.09.23.28.28,0,0,1,.07.13A.18.18,0,0,1,94.15,48Z"/><path class="cls-175" d="M92.46,45.91a14.56,14.56,0,0,0,.74,2c-.06.16-.25.08-.3.22s-.19.17-.37.12A4.6,4.6,0,0,1,92.25,46C92.3,45.94,92.35,45.87,92.46,45.91Z"/><path class="cls-176" d="M93,44.89h-.32c-.1,0-.2.08-.3,0C92.65,44.69,92.71,44.69,93,44.89Z"/><path class="cls-177" d="M92.46,45.91l-.21.11a.77.77,0,0,1,0-.42C92.41,45.67,92.5,45.75,92.46,45.91Z"/><path class="cls-178" d="M92.38,44.89h.3a.65.65,0,0,1-.31.23C92.35,45,92.32,45,92.38,44.89Z"/><path class="cls-179" d="M93.27,45.17,93.12,45c.11,0,.19,0,.22.13A.09.09,0,0,1,93.27,45.17Z"/><path class="cls-180" d="M93.13,45a.16.16,0,0,1-.14-.12C93.07,44.89,93.13,44.92,93.13,45Z"/><path class="cls-181" d="M114.6,47.67a.65.65,0,0,1-.16.46c-.12.12-.25.17-.39.07a1.69,1.69,0,0,0-1.07-.28c-.77,0-1.54,0-2.31,0a13.39,13.39,0,0,0-1.8.2l-.93.11a7.85,7.85,0,0,1-1.67.19c-.2,0-.44.21-.53-.15a2.88,2.88,0,0,1,.92-.17c1.26-.19,2.52-.38,3.79-.53a18.91,18.91,0,0,1,2.38,0l1.2,0c.19,0,.26-.06.29-.26.09-.68.19-1.36.26-2a6.56,6.56,0,0,1,.14-1c.37.08.24.4.3.63a10.09,10.09,0,0,1-.24,2.51A2.53,2.53,0,0,1,114.6,47.67Z"/><path class="cls-124" d="M94.15,48v-.11a.44.44,0,0,1,.13-.14,2.89,2.89,0,0,1,2.47.15,6,6,0,0,0,1.9.61c.19.18.43.12.65.13a1.59,1.59,0,0,1,.92.2,1.4,1.4,0,0,1-.59.18,4.93,4.93,0,0,1-3-.69A3.37,3.37,0,0,0,95.4,48a.72.72,0,0,0-.25,0A3,3,0,0,1,94.15,48Z"/><path class="cls-182" d="M100.44,38.69l-.37.08a3.86,3.86,0,0,1-1.85,0,2.18,2.18,0,0,1-1.42-1,10.8,10.8,0,0,0-1-1.4,6.55,6.55,0,0,1-.46-.87c-.08-.18-.28-.29-.31-.5s0-.17.15-.17a3.79,3.79,0,0,1,.58.89,3.86,3.86,0,0,0,.58.81c.22.28.44.56.64.86a2.37,2.37,0,0,0,1.25,1,2.12,2.12,0,0,0,.61.11h1.38C100.31,38.52,100.45,38.46,100.44,38.69Z"/><path class="cls-183" d="M114.85,44.9c0-.21.07-.46-.13-.64,0-.33,0-.67,0-1a14.32,14.32,0,0,0,.06-2.07c0-.89,0-1.79,0-2.69v-.68c.11-.19,0-.4.07-.6s0-.21.17-.15a.92.92,0,0,1,.2.76c0,2.14.11,4.27-.12,6.4C115.13,44.48,115.2,44.79,114.85,44.9Z"/><path class="cls-124" d="M105.74,48.28c.13.2.34.12.53.15-.2.17-.43.1-.65.11a3.43,3.43,0,0,0-1.06,0,1.2,1.2,0,0,1,.7,0,.45.45,0,0,1-.35.11h-.68a13.5,13.5,0,0,0-2.77,0h-.85a.4.4,0,0,1-.4-.22c.54,0,1.09,0,1.63,0,1.2,0,2.39-.14,3.59-.15Z"/><path class="cls-184" d="M95.14,34.92l-.15.17a3.27,3.27,0,0,0-.74-.54,1.5,1.5,0,0,1-.86-1.4l.13-.14c0,.06.09.11.09.16a1.74,1.74,0,0,0,1,1.28C94.79,34.58,95,34.67,95.14,34.92Z"/><path class="cls-184" d="M93.25,32.53c.16.1.13.26.11.41Z"/><path class="cls-2" d="M94.28,47.78l-.13.14v-.16Z"/><path class="cls-185" d="M88.45,44.38c-.38.29-.78.56-1.15.86-.19.15-.43.16-.62.29s-.23-.16-.21-.31c.21-2.11,0-4.22.09-6.33a1.47,1.47,0,0,1,.12-.8,3,3,0,0,1-.08-1.46c0-.09.07-.16.07-.24,0-.62.2-1.22.14-1.85h.1c.2.14.2.39.28.59.06.43.12.86.2,1.29.32,1.87.57,3.74.78,5.62A18.38,18.38,0,0,0,88.45,44.38Z"/><path class="cls-186" d="M88.06,48.94a1.3,1.3,0,0,1-.48.48l-.52.35a1.07,1.07,0,0,0-.5,1,4,4,0,0,0,.06.5,20.29,20.29,0,0,1,.46,2.79c.07.75.16,1.5.25,2.24,0,.15.07.29.09.43s.1.28-.08.31-.13-.12-.16-.22a3.57,3.57,0,0,1-.11-.55c0-.55-.11-1.09-.16-1.63a18.21,18.21,0,0,0-.42-2.73c-.07-.32-.14-.65-.2-1s0-.51,0-.76-.11-.24,0-.37a2.14,2.14,0,0,0,1.06-.63,1,1,0,0,1,.39-.3A.3.3,0,0,1,88.06,48.94Z"/><path class="cls-187" d="M86.68,38.09v6.22a3.29,3.29,0,0,1-.08.94.23.23,0,0,0,.08.28.27.27,0,0,1-.26.11.8.8,0,0,1-.07-.67,2.79,2.79,0,0,0,.08-.81c0-1.74,0-3.48,0-5.22a5.43,5.43,0,0,1,0-.57A.31.31,0,0,1,86.68,38.09Z"/><path class="cls-188" d="M88.72,48.29c0,1.35,0,2.69,0,4,0,.82,0,1.64,0,2.46a3.15,3.15,0,0,1,0,.43s-.05,0-.09.07a.08.08,0,0,1-.1-.06,1.16,1.16,0,0,1,0-.49c0-1.09,0-2.19,0-3.28,0-.92,0-1.84,0-2.76,0-.13,0-.25,0-.38s0-.4.17-.4S88.68,48.16,88.72,48.29Z"/><path class="cls-189" d="M86.81,33.52c0,.14,0,.29.11.39.2.25.06.44-.1.64h0A1,1,0,0,1,86.81,33.52Z"/><path class="cls-190" d="M86.32,49.82c0,.12.18.24,0,.37a1.36,1.36,0,0,0-.12-.12c-.15-.08-.08-.14,0-.21Z"/><path class="cls-172" d="M91.48,31.14a.25.25,0,0,1,.25.11A.25.25,0,0,1,91.48,31.14Z"/><path class="cls-191" d="M88.45,44.38a.7.7,0,0,1-.27-.46c0-.5-.08-1-.13-1.5-.09-.94-.15-1.87-.31-2.8s-.28-1.82-.41-2.72a3.62,3.62,0,0,1,0-.57c0-.15-.18-.34.12-.39.1.64.19,1.28.3,1.92a15.33,15.33,0,0,1,.36,2.79c0,.06,0,.11.08.17.1,1,.21,2.07.31,3.1,0,.16.07.23.22.22A.38.38,0,0,1,88.45,44.38Z"/><path class="cls-192" d="M86.82,34.55c0-.22.07-.43.1-.64l.15-.62s.05-.13.13-.14.22.07.23.18a12.83,12.83,0,0,1,0,1.86s0,.07-.07.11a1.2,1.2,0,0,1-.2-.82c-.12.14.14.4-.09.57a.31.31,0,0,1-.11-.26A.25.25,0,0,0,86.82,34.55Z"/><path class="cls-193" d="M87.05,35.05c0-.25,0-.51,0-.76s.08-.19.13-.15a.15.15,0,0,1,0,.17c-.11.34.12.65.1,1s.11.42.09.64-.1.25-.12.39a.5.5,0,0,1-.1-.21A7.45,7.45,0,0,0,87.05,35.05Z"/><path class="cls-194" d="M87.2,33.15l-.13.14a.26.26,0,0,1,.11-.26Z"/><path class="cls-126" d="M86.42,20.79a.26.26,0,0,1-.1-.2A.23.23,0,0,1,86.42,20.79Z"/><path class="cls-131" d="M86.15,20a.14.14,0,0,1-.09-.14A.14.14,0,0,1,86.15,20Z"/><path class="cls-132" d="M114.85,44.9a.7.7,0,0,0,.11-.41,66.7,66.7,0,0,0,.12-6.78A1,1,0,0,0,115,37a1,1,0,0,1,0-1c0-.19,0-.37,0-.55a.42.42,0,0,1,.11-.34,3,3,0,0,1,.57,1.56c.33,1.41.34,2.87.64,4.28.26,1.21.38,2.44.57,3.66a3.48,3.48,0,0,1-.36,2,1.62,1.62,0,0,1-1.65.92.23.23,0,0,1-.22-.2A14,14,0,0,0,114.85,44.9Z"/><path class="cls-195" d="M114.72,47.53a1.91,1.91,0,0,0,.85-.18,1.36,1.36,0,0,0,.85-.88,12.34,12.34,0,0,0,.3-1.34,1.4,1.4,0,0,0,0-.5c-.18-.72-.2-1.45-.34-2.17-.1-.49-.18-1-.27-1.48s-.19-1.28-.27-1.93a18.07,18.07,0,0,0-.71-3.63,2,2,0,0,1,0-.24c0-.07,0-.13,0-.19s0-.16.15-.18.19.07.22.18c.22.92.48,1.82.61,2.76.08.53.1,1.08.16,1.62s.12.83.19,1.24.22,1.06.29,1.6c0,.35.1.71.13,1.06,0,.54.15,1.07.23,1.61a4,4,0,0,1-.25,1.6,1.57,1.57,0,0,1-.64.91,1.65,1.65,0,0,1-1.47.28s0-.07,0-.1S114.7,47.53,114.72,47.53Z"/><path class="cls-196" d="M115,36.07c0,.32,0,.65,0,1s0,.34,0,.5a.33.33,0,0,1-.12.28c0-.65-.08-1.29-.15-1.93a2,2,0,0,0-.75-1.33,2.73,2.73,0,0,1-.59-.87.36.36,0,0,1,0-.18.2.2,0,0,1,.12-.2.21.21,0,0,1,.23,0,1.46,1.46,0,0,1,.16.19,4,4,0,0,0,.76,1,.42.42,0,0,1,.11.28,4.07,4.07,0,0,1,.14,1A.36.36,0,0,0,115,36.07Z"/><path class="cls-181" d="M101.46,48.66a.35.35,0,0,1,.27-.11H104a.33.33,0,0,1,.27.12Z"/><path class="cls-181" d="M105.26,48.55a2.83,2.83,0,0,1-.77-.07,3.23,3.23,0,0,1,1,0s.1.07.15.1Z"/><path class="cls-197" d="M108.14,50.83c.09,0,.2,0,.25-.13a.36.36,0,0,1,.38.24C108.55,50.93,108.32,51,108.14,50.83Z"/><path class="cls-198" d="M114.72,47.53v.14h-.11a2.28,2.28,0,0,1,0-.26Z"/><path class="cls-10" d="M96,28.09l.38-.21a1.53,1.53,0,0,0-.37-.66.71.71,0,0,0-.94-.25,2.26,2.26,0,0,0-1,.81c-.09.11-.17.23-.27.34s-.08,0-.1,0a.13.13,0,0,1,0-.11,2.08,2.08,0,0,1,1.56-1.31,1.05,1.05,0,0,1,1,.43c.45.6.87,1.23,1.3,1.85a.94.94,0,0,1,.1.23c.1.67.67.72,1.16.87A.35.35,0,0,0,99.1,30a1.34,1.34,0,0,1,.38-.22c.39-.06.55-.33.7-.65a5.75,5.75,0,0,1,1-1.39,2.34,2.34,0,0,1,1.43-.84,1.31,1.31,0,0,1,1.38,1,.13.13,0,0,1-.06.1.14.14,0,0,1-.11,0c-.11-.05-.14-.15-.2-.24a1,1,0,0,0-1.55-.35l-.21.14s0,0,0,.08l.19.13a1.12,1.12,0,1,1-1.46,1.7c-.07-.06-.14-.09-.22,0a.18.18,0,0,0,0,.27,6.37,6.37,0,0,1,1.08,1.76.1.1,0,0,1,0,.1s0,0,0,0a.22.22,0,0,1-.24-.07l-.18-.19a3.62,3.62,0,0,1-.62-.87.58.58,0,0,0-.85-.26,1.59,1.59,0,0,1-1.67,0,1.78,1.78,0,0,0-.6-.16.37.37,0,0,1-.19-.18c.19-1,0-1.43-.83-1.6A.24.24,0,0,1,96,28.09Z"/><path class="cls-199" d="M97,29.85l.17.15c0,.22,0,.45,0,.68a2.11,2.11,0,0,1-.31,1.5.8.8,0,0,0,.2,1.17,1,1,0,0,0,1.34,0c.06-.11.12-.22.27-.21.27.26.46.32.46-.16s0-.67,0-1a1.11,1.11,0,0,1,.54-.94.43.43,0,0,1,.58,0c.21.2.09.38-.07.55A2,2,0,0,0,99.74,33c0,.52.21.63.67.43a1.43,1.43,0,0,0,.91-1.82l0-.15c.75.61.73.58.32,1.51a.92.92,0,0,1-.36.42c-.22.13-.4.31-.61.44a1.17,1.17,0,0,1-1,.19c-.16,0-.33-.05-.49-.08s-.15,0-.18,0c-.27.24-.6.13-.9.16a1.81,1.81,0,0,1-1.64-.59,1.09,1.09,0,0,1-.25-1.16,1.55,1.55,0,0,1,.37-.72.58.58,0,0,0,.19-.51c0-.14,0-.29,0-.44,0-.35,0-.35-.4-.49a1.41,1.41,0,0,1-.94-1,1.08,1.08,0,0,1,.11-.73.57.57,0,0,1,.45-.39l.16.13a.26.26,0,0,1,0,.24c-.34.8-.21,1.06.65,1.28A.42.42,0,0,1,97,29.85Z"/><path class="cls-200" d="M98.12,35.89a1.43,1.43,0,0,1-.06-.7c.18,0,.18.16.3.19a.7.7,0,0,0,.36-.07,3.94,3.94,0,0,1,1.18-.15.53.53,0,0,0,.47-.12c.06-.07.11-.21.24-.12a.42.42,0,0,1,.08.23c0,.1,0,.21,0,.31s-.12.2-.21.11a.56.56,0,0,0-.53-.09A10.72,10.72,0,0,0,98.12,35.89Z"/><path class="cls-201" d="M100.44,38.69a.3.3,0,0,0-.26-.12c.23-.18.53-.21.76-.4a.93.93,0,0,0,.37-.48,2.2,2.2,0,0,1,.39-.76l.13.13a3.43,3.43,0,0,0-.23.52,1.49,1.49,0,0,1-.93,1Z"/><path class="cls-173" d="M92.24,28.11,92.11,28Z"/><path class="cls-202" d="M107.51,21.43a5.21,5.21,0,0,1,1-1.29,6.72,6.72,0,0,0,.75-.94,4.28,4.28,0,0,1,.82-1,10.6,10.6,0,0,0,1.31-1.61,1.86,1.86,0,0,1,.48-.49,3.38,3.38,0,0,0,1-1.07,1.77,1.77,0,0,1,1.06-.74c.16,0,.32-.1.48-.15a.45.45,0,0,1,.41.11,2.13,2.13,0,0,1-1,.47,1.23,1.23,0,0,0-.66.45c-.68.91-1.57,1.64-2.22,2.58a1.94,1.94,0,0,1-.33.37,7.85,7.85,0,0,0-1.32,1.64,4.74,4.74,0,0,0,.57.72,4.24,4.24,0,0,1,.92,1.77.21.21,0,0,1-.07.16.15.15,0,0,1-.22,0,1,1,0,0,1-.22-.45,3.42,3.42,0,0,0-.75-1.29c-.15-.17-.27-.37-.42-.57a4.85,4.85,0,0,0-1,1,.63.63,0,0,0,.2.36,4.89,4.89,0,0,1,1.09,3.15c0,.36,0,.72,0,1.07a.41.41,0,0,1-.12.35.14.14,0,0,1-.17,0S109,26,109,26a1.56,1.56,0,0,1,0-.31c0-.42,0-.84,0-1.26a5,5,0,0,0-1-2.79c-.12-.17-.24-.14-.37,0S107.49,21.55,107.51,21.43Z"/><path class="cls-203" d="M107.51,21.43l.14.13c-.06.13-.11.28-.28.34C107.4,21.74,107.34,21.55,107.51,21.43Z"/><path class="cls-204" d="M92.54,75.9c-.16,0-.32.06-.42-.12a4,4,0,0,0,.06-1.2c.19-.32.48-.24.76-.19a11.57,11.57,0,0,0,1.18,0c.73,0,.79.06.77.78a.79.79,0,0,1,0,.3c-.2.29-.53.12-.78.21C93.56,75.85,93,75.69,92.54,75.9Z"/><path class="cls-205" d="M92.11,79.21c.09.05.12.12,0,.19a.37.37,0,0,1-.29.06l-2.24-.13a.7.7,0,0,1-.55-.24c0-.12,0-.17.14-.13h0a.09.09,0,0,0,.13,0,11,11,0,0,1,2.62.15.44.44,0,0,1,.15.1c0,.05-.11,0-.17.07A.24.24,0,0,0,92.11,79.21Z"/><path class="cls-206" d="M94.74,75.54c0-.25,0-.5,0-.74s-.08-.26-.27-.27-.66,0-1,0a1.07,1.07,0,0,1-.66-.1c.14-.17.36,0,.51-.13l1.2,0a.42.42,0,0,1,.45.26,2.7,2.7,0,0,0-.06.8C94.94,75.47,94.93,75.6,94.74,75.54Z"/><path class="cls-207" d="M95.16,76.81l.12.13c-.3.35-.59.71-.89,1-.15.16-.07.31,0,.47s0,.13-.12.15a2.26,2.26,0,0,0-.16-.26.32.32,0,0,1,0-.4l.77-.87Z"/><path class="cls-208" d="M92.54,75.9c-.06-.19-.05-.25.08-.25H94c.15,0,.35-.17.4.13A11.38,11.38,0,0,1,92.54,75.9Z"/><path class="cls-209" d="M92.5,77.19h-.13v-.12A.94.94,0,0,1,93,77h.18c.11,0,.21,0,.23.17s-.08.18-.17.22a.78.78,0,0,1-.48.08c-.22,0-.44-.07-.67-.1.1-.14.25-.1.39-.12s.43,0,.65-.11c.06,0-.08-.07,0,0s0,0,0,0A1.18,1.18,0,0,1,92.5,77.19Z"/><path class="cls-209" d="M94.38,75.78c-.1-.14-.27-.09-.4-.13.23-.16.5-.09.76-.11s.14-.23.15-.37-.07-.44.12-.63c0,.29,0,.58,0,.87s-.07.38-.41.39Z"/><path class="cls-210" d="M94.24,78.61l.12-.15c.06.12.1.28.23.35s.18.25.23.41c-.2,0-.37-.13-.57,0a.87.87,0,0,1-.69.22l.47-.27C94.33,79,94.33,79,94.24,78.61Z"/><path class="cls-211" d="M93.36,74.3c-.14.17-.34.08-.51.13s-.5-.05-.63.24c0,0,0,.12-.12.14-.11-.31,0-.47.2-.51A4.18,4.18,0,0,1,93.36,74.3Z"/><path class="cls-212" d="M91.8,80.6H90.32a.81.81,0,0,1-.53-.13l1.67,0A.49.49,0,0,1,91.8,80.6Z"/><path class="cls-213" d="M92.1,74.81l.12-.14a2.58,2.58,0,0,1,0,.92.22.22,0,0,1-.14.19Z"/><path class="cls-162" d="M93,77l-.66,0L92.24,77A1.34,1.34,0,0,1,93,77Z"/><path class="cls-214" d="M89.2,79l-.14.13c-.07,0-.11-.13,0-.2S89.17,78.88,89.2,79Z"/><path class="cls-214" d="M89.34,79c0,.08-.09.09-.13,0Z"/><path class="cls-215" d="M108.77,76.16a.3.3,0,0,1-.26.14h-1.79c-.07,0-.14-.07-.22-.11a.45.45,0,0,1,.36-.13h-.36c-.34,0-.51-.15-.5-.5s-.09-.64.28-.81q1.17,0,2.34,0c.26.22.08.5.09.75A1.52,1.52,0,0,0,108.77,76.16Z"/><path class="cls-216" d="M112.12,80.71a.7.7,0,0,1-.17.09l-1.68.17a7.39,7.39,0,0,0-1.24.09,1.24,1.24,0,0,1-.89-.21.1.1,0,0,1,.15,0c.33,0,.65.16,1,0,.85,0,1.69-.12,2.54-.17Z"/><path class="cls-217" d="M106.11,75.54c.08.34.08.36.32.36l1.51,0c.16,0,.34-.06.47.09-.49.19-1,0-1.52.12l-.39,0c-.16-.06-.37.06-.51-.12s0-.18-.1-.26v-.5C106.13,75.23,106,75.48,106.11,75.54Z"/><path class="cls-218" d="M109.53,79.44a1.44,1.44,0,0,1,.89-.11.13.13,0,0,1,0,.1s0,0,0,0a.36.36,0,0,1-.29,0c.2.09.35-.08.53-.1s.58-.07.79.21a.48.48,0,0,1-.29.1h-1.63A.19.19,0,0,1,109.53,79.44Z"/><path class="cls-219" d="M108.64,74.82l-2.38,0c-.11,0-.13,0-.12-.11a19.11,19.11,0,0,1,2.51,0,.1.1,0,0,1,0,.1S108.65,74.82,108.64,74.82Z"/><path class="cls-220" d="M108.14,77.44h1.19c-.23.22-.49,0-.71.21l.68.06a1.87,1.87,0,0,1-.91.1l-.11-.1a.36.36,0,0,1-.16-.14A.12.12,0,0,1,108.14,77.44Z"/><path class="cls-221" d="M108.64,74.82v-.14a.27.27,0,0,1,.24.36,6.09,6.09,0,0,0-.12,1.12c-.13-.07-.13-.2-.13-.31Z"/><path class="cls-147" d="M108.39,77.67v.14a1.59,1.59,0,0,1-.78,0,.2.2,0,0,1-.14-.19.19.19,0,0,1,.15-.16.58.58,0,0,1,.53,0h0v.11s0,.06-.09,0,0,0,.07,0A.43.43,0,0,1,108.39,77.67Z"/><path class="cls-222" d="M108.29,80.83l-.15,0a.68.68,0,0,1-.54-.44c-.08-.19-.17-.37-.25-.56l.17,0s.1.09.11.14A1.11,1.11,0,0,0,108.29,80.83Z"/><path class="cls-223" d="M109.53,79.44v.28a1,1,0,0,1-.66.07c-.08,0-.21-.07-.11-.21s.36,0,.51-.11Z"/><path class="cls-224" d="M111.46,79.61a2,2,0,0,0-.93-.15c0,.05-.08.05-.11,0v-.12h1.13c.07.07.2.11.12.25Z"/><path class="cls-225" d="M106.14,74.69l.12.11c-.21.21-.1.49-.15.74l-.22-.24C105.88,75.06,105.81,74.79,106.14,74.69Z"/><path class="cls-226" d="M111.67,79.58l-.12-.25h.06c.1,0,.22-.13.27,0S111.82,79.54,111.67,79.58Z"/><path class="cls-220" d="M108.15,77.44h-.53a.57.57,0,0,1,.53-.1Z"/><path class="cls-218" d="M109.28,79.47c-.14.17-.33.1-.51.11C108.91,79.39,109.1,79.46,109.28,79.47Z"/><path class="cls-225" d="M105.89,75.8a.25.25,0,0,1,.1.26A.27.27,0,0,1,105.89,75.8Z"/><path class="cls-227" d="M106.51,79.46l-.42.15c.07-.15,0-.38.28-.41A.29.29,0,0,1,106.51,79.46Z"/><path class="cls-228" d="M95.27,81.59l0-.38h.14c.07.09.06-.07.12,0a.3.3,0,0,1,.13,0,.32.32,0,0,1,.13.18.14.14,0,0,1-.09.11.45.45,0,0,1-.29.12A.11.11,0,0,1,95.27,81.59Z"/><path class="cls-229" d="M95.65,81.23h-.28a1,1,0,0,1,.41-.22v.12C95.79,81.21,95.77,81.27,95.65,81.23Z"/><path class="cls-230" d="M94.52,81.61a.36.36,0,0,1-.25.13l-.09.07a.13.13,0,0,0-.07.09l.08.09-.5.24a.55.55,0,0,1-.31,0l-1-.06a.1.1,0,0,1,0-.1s0-.05,0-.05a1.63,1.63,0,0,1,.87-.11s0,0,0,0l0,0H93.1c-.36,0-.71,0-1.07,0H90.15a2.47,2.47,0,0,1-.61-.05,2.44,2.44,0,0,0-.39-.07c-.23,0-.46,0-.69,0s-.27-.06-.26-.25a5,5,0,0,1,1.5.07,4.2,4.2,0,0,0,.87,0c.77,0,1.54,0,2.31,0a1.14,1.14,0,0,1,.37,0,1.69,1.69,0,0,0,1,0Z"/><path class="cls-231" d="M88.2,81.49a.37.37,0,0,0,.28.13c-.17.42-.46.08-.68.18,0,.09.39-.1.26.22a.53.53,0,0,1-.39,0,.33.33,0,0,1-.35-.23v-.28Z"/><path class="cls-232" d="M103.74,81.2l.61.15.05.08-.07.07-.59-.17s-.06-.06,0-.09S103.72,81.2,103.74,81.2Z"/><path class="cls-233" d="M103.74,81.2v.13a1.08,1.08,0,0,1-.51-.23l.16,0A.51.51,0,0,1,103.74,81.2Z"/><path class="cls-234" d="M105.5,81.87a.28.28,0,0,0,0,.09.35.35,0,0,1-.28-.09l0-.07C105.37,81.79,105.45,81.78,105.5,81.87Z"/><path class="cls-235" d="M104.6,81.62c-.11,0-.21,0-.27-.12a.16.16,0,0,1,0-.07c.11,0,.22,0,.27.11Z"/><path class="cls-234" d="M105.23,81.87a.3.3,0,0,1-.25-.11l0-.07a.22.22,0,0,1,.22,0,.11.11,0,0,1,0,.13Z"/><path class="cls-235" d="M104.87,81.72a.3.3,0,0,1-.27-.1l0-.06a.23.23,0,0,1,.24,0A.12.12,0,0,1,104.87,81.72Z"/><path class="cls-236" d="M104.87,81.72a.31.31,0,0,1,0-.1c.1-.08.13,0,.13.08a.13.13,0,0,0,0,.06A.21.21,0,0,1,104.87,81.72Z"/><path class="cls-237" d="M105,81.7l-.13-.08-.22-.06-.27-.13s0-.05,0-.08l.13-.11a2.51,2.51,0,0,1,.87.49s-.08,0-.12,0Z"/><path class="cls-238" d="M105.23,81.73h.39a.19.19,0,0,1-.12.14l-.23-.05Z"/><path class="cls-239" d="M109.78,78.62a1.28,1.28,0,0,1-.75,0A1.37,1.37,0,0,1,109.78,78.62Z"/><path class="cls-240" d="M91.09,82.11H89.24a.42.42,0,0,1-.43,0c.06-.32.32-.29.54-.27.51,0,1,0,1.52,0a.48.48,0,0,1,.2.07l.06.08Z"/><path class="cls-241" d="M88.82,82.09l.42,0a.76.76,0,0,1-.84,0,.28.28,0,0,1,.25-.12A.3.3,0,0,1,88.82,82.09Z"/><path class="cls-242" d="M92.36,82.12s0,.07,0,.1a2,2,0,0,1-.64,0,.12.12,0,0,1,.05-.18A.45.45,0,0,1,92.36,82.12Z"/><path class="cls-243" d="M91.73,82.11s0,.07,0,.11a.88.88,0,0,1-.65-.11v0a.51.51,0,0,1,.38-.08A.34.34,0,0,1,91.73,82.11Z"/><path class="cls-244" d="M88.72,82.09l-.31,0-.18,0c-.08,0-.08-.1,0-.16C88.42,81.86,88.63,81.79,88.72,82.09Z"/><path class="cls-245" d="M88.17,82l.06.12c-.19,0-.4.07-.56-.11l.42,0Z"/><path class="cls-246" d="M94.19,82,94,82c-.07,0-.06-.08,0-.13l.14-.1h.12a.48.48,0,0,0,0,.12.09.09,0,0,1-.07.13Z"/><path class="cls-247" d="M94.2,82l.07-.13h.43A.61.61,0,0,1,94.2,82Z"/><path class="cls-141" d="M94.7,81.85l.2-.12A.21.21,0,0,1,94.7,81.85Z"/><path class="cls-248" d="M96.42,81.24a.5.5,0,0,1-.37.13l0-.05c0-.21.18-.14.3-.16A.12.12,0,0,1,96.42,81.24Z"/><path class="cls-249" d="M97.27,80.82l.19,0A.47.47,0,0,1,97,81C97.07,80.85,97.17,80.85,97.27,80.82Z"/><path class="cls-250" d="M96.69,81H97c-.07.16-.23.13-.36.16l-.07,0A.16.16,0,0,1,96.69,81Z"/><path class="cls-248" d="M96.41,81.1l.12,0a.11.11,0,0,1,.12,0l0,0a.3.3,0,0,1-.26.11l0,0S96.37,81.11,96.41,81.1Z"/><path class="cls-251" d="M95.73,81.48l.06-.12a.14.14,0,0,1,.21,0l0,0A.36.36,0,0,1,95.73,81.48Z"/><path class="cls-30" d="M95.27,81.59h.17l-.17.12Z"/><path class="cls-252" d="M107.25,82.1c.15-.15.35-.12.53-.13a7,7,0,0,0,1.3-.09,1.53,1.53,0,0,1,.37,0,5.06,5.06,0,0,0,1.86,0,1,1,0,0,1,.25,0,.19.19,0,0,1,0,.18c-.08.17-.25.19-.41.21H110c-.85,0-1.7,0-2.55,0A.29.29,0,0,1,107.25,82.1Z"/><path class="cls-253" d="M111.56,82v-.13a1.08,1.08,0,0,1,.48-.09,8,8,0,0,0,1.54.07l0,.26a.36.36,0,0,1-.3.08C112.69,82.06,112.09,82.32,111.56,82Z"/><path class="cls-254" d="M107.25,82.1l.14.12a.32.32,0,0,1-.13.3.2.2,0,0,1-.24,0h0a.37.37,0,0,0,.06-.29s.05-.07.07-.1Z"/><path class="cls-255" d="M111.84,82.48h-2.07a.16.16,0,0,1,0-.18.65.65,0,0,1,.3-.06h1.45a.66.66,0,0,1,.2.06A.19.19,0,0,1,111.84,82.48Z"/><path class="cls-256" d="M113.34,82.11h.2l0,.12a2,2,0,0,1-.87.23.16.16,0,0,1,0-.17C112.83,82,113.1,82.14,113.34,82.11Z"/><path class="cls-93" d="M107,82.48h.28a.5.5,0,0,1,.57,0,.1.1,0,0,1,0,.17c-.18,0-.36,0-.54,0A.31.31,0,0,1,107,82.48Z"/><path class="cls-257" d="M109.67,82.5a.86.86,0,0,1-.65.09l0-.08.05-.07a.61.61,0,0,1,.51,0A.25.25,0,0,1,109.67,82.5Z"/><path class="cls-258" d="M109,82.49a.31.31,0,0,1,0,.1h-.63a.12.12,0,0,1,.06-.17A.47.47,0,0,1,109,82.49Z"/><path class="cls-259" d="M111.84,82.48a.25.25,0,0,1,0-.11.47.47,0,0,1,.6-.07.11.11,0,0,1,0,.18A.86.86,0,0,1,111.84,82.48Z"/><path class="cls-260" d="M108.4,82.5a.28.28,0,0,1,0,.09h-.52a.19.19,0,0,0,0-.1A.32.32,0,0,1,108.4,82.5Z"/><path class="cls-261" d="M112.41,82.48a.2.2,0,0,0,0-.11.19.19,0,0,1,.25,0,.62.62,0,0,0,0,.13Z"/><path class="cls-252" d="M109.79,82.38a.44.44,0,0,1,0,.1.12.12,0,0,1-.1,0v0s0,0,0-.08,0,0,0,0A.11.11,0,0,1,109.79,82.38Z"/><path class="cls-262" d="M96,81.33l-.21,0-.14-.13.13-.11.34,0h.29a.36.36,0,0,1,0,.09A.84.84,0,0,0,96,81.33Z"/><path class="cls-262" d="M96.65,81.08h-.12l.16-.09Z"/><path class="cls-237" d="M92.5,77.19h.61c-.19.16-.4.1-.6.11A.2.2,0,0,1,92.5,77.19Z"/><path class="cls-220" d="M109.82,77.51s-.07,0-.1,0-.06,0-.09,0,.06,0,.09,0A.19.19,0,0,1,109.82,77.51Z"/><path class="cls-263" d="M98.54,33.44c-.06.32-.06.33-.26.33h-.62a1.36,1.36,0,0,1-.59-.18A1,1,0,0,1,96.75,32a.86.86,0,0,1,.13-.14.49.49,0,0,0,.2-.49A8.27,8.27,0,0,0,97,30.5a.57.57,0,0,1,.17-.5.45.45,0,0,1,.62,0,1.77,1.77,0,0,0,.93.33.53.53,0,0,0,.42-.09.83.83,0,0,1,.15-.11c.52-.34.87-.27,1.17.29a5,5,0,0,0,.66,1l0,0,.16.17a3.82,3.82,0,0,1,.21.46.86.86,0,0,1-.26,1,4.91,4.91,0,0,1-.89.59.74.74,0,0,1-.48.12c-.14,0-.26,0-.27-.21a4,4,0,0,1,0-1.25c.11-.39.21-.78.62-1a.15.15,0,0,0,0-.16.18.18,0,0,0-.13-.12.39.39,0,0,0-.24,0,.86.86,0,0,0-.61.91c.06.54,0,1.08,0,1.62-.21,0-.38.08-.52,0s-.09-.28-.14-.41a.44.44,0,0,1-.11-.34c0-.57-.46-.86-.68-1.29.12.45.52.74.65,1.18C98.61,33,98.42,33.2,98.54,33.44Z"/><path class="cls-264" d="M97,29.85l-.24,0a.8.8,0,0,1-.88-.45.87.87,0,0,1,.1-1l.18-.18.12,0c.23-.13.38,0,.53.15a4,4,0,0,1,.41.69.55.55,0,0,1-.09.69Z"/><path class="cls-265" d="M102.25,28.6a1,1,0,0,1-.61.86.87.87,0,0,1-.94-.12.31.31,0,0,1-.08-.44,4.78,4.78,0,0,1,.64-.84.43.43,0,0,1,.51-.11A.63.63,0,0,1,102.25,28.6Z"/><polygon class="cls-2" points="101.16 31.48 101.12 31.47 101.12 31.43 101.16 31.44 101.16 31.48"/><path class="cls-266" d="M98.68,32.78v.38c-.11.06-.11.18-.13.28-.15-.25-.06-.53-.13-.79C98.55,32.58,98.62,32.67,98.68,32.78Z"/><path class="cls-267" d="M90.74,79.08l.13,0c-.05,0-.09.07-.13.07a.75.75,0,0,1-.16,0C90.6,79.09,90.66,79.09,90.74,79.08Z"/><path class="cls-268" d="M92.11,79.21a.26.26,0,0,1-.27.12l-.1,0s0-.06.06-.06Z"/><path class="cls-269" d="M106.89,76.16a.43.43,0,0,1,.34-.1l1.18,0c.06.12,0,.15-.1.15A8.42,8.42,0,0,1,106.89,76.16Z"/><path class="cls-270" d="M110.42,79.45h.11c-.15.19-.32.11-.54.1C110.14,79.41,110.29,79.48,110.42,79.45Z"/><path class="cls-271" d="M108.39,77.67H108a.15.15,0,0,1-.09,0c0-.09.08-.07.13-.08h.13A.35.35,0,0,1,108.39,77.67Z"/><path class="cls-272" d="M95.43,81.23h.08S95.47,81.34,95.43,81.23Z"/><path class="cls-273" d="M88.17,82h-.08c-.11-.13-.31,0-.45-.18.28-.17.6,0,.84-.17h.71c.08.06.18,0,.27.09l.6,0a1.52,1.52,0,0,0,.82,0h1.2c.07.05.07.11,0,.16a2.28,2.28,0,0,1-1,.06H89.48a1.17,1.17,0,0,0-.66.12h-.1A.89.89,0,0,0,88.17,82Z"/><path class="cls-274" d="M91.12,82c.09-.11.21-.1.34-.11h.69a3.57,3.57,0,0,1,1.22,0l.11,0a.38.38,0,0,1,.14.14c-.08.12-.2.11-.33.11H91.73l-.25,0c-.11-.09-.27,0-.38-.09Z"/><path class="cls-231" d="M93.37,81.84H92.15a.86.86,0,0,0-.07-.1h1A.4.4,0,0,1,93.37,81.84Z"/><path class="cls-231" d="M90.88,81.74a.76.76,0,0,1-.82,0Z"/><path class="cls-231" d="M89.46,81.7a.27.27,0,0,1-.27-.09A.28.28,0,0,1,89.46,81.7Z"/><path class="cls-231" d="M94.15,81.74l-.14.1Z"/><path class="cls-231" d="M93.62,82l-.14-.14A.17.17,0,0,1,93.62,82Z"/><path class="cls-231" d="M91.1,82a.41.41,0,0,1,.38.09l-.38,0Z"/><path class="cls-275" d="M109.79,82.38h-.12c-.21.1-.45,0-.65.09v0H107.9l-.6,0a.27.27,0,0,1,.09-.25,11.66,11.66,0,0,1,2.13-.12c.21,0,.42,0,.63,0s0,.16-.11.21Z"/><path class="cls-276" d="M112.69,82.33l-.25,0h-.64l-.12,0c-.15-.1-.33,0-.49-.07s0-.06,0-.09,0-.05,0-.05.27,0,.38-.13c.52,0,1,0,1.56,0a.68.68,0,0,1,.22.09c-.07.12-.19.12-.32.13A.4.4,0,0,0,112.69,82.33Z"/><path class="cls-277" d="M111.18,82.22c.17,0,.36,0,.5.12H110l.11-.21h.17a.15.15,0,0,0,.2,0h.18C110.85,82.23,111,82.11,111.18,82.22Z"/><path class="cls-278" d="M111.18,82.22c-.17,0-.35.07-.48-.09h.48Z"/><path class="cls-275" d="M110.52,82.13c-.07.11-.13.11-.2,0Z"/><path class="cls-279" d="M109,82.47c.2-.14.43-.08.65-.09,0,0,0,.05,0,.07Z"/><path class="cls-280" d="M98.68,32.78l-.27-.13a5.26,5.26,0,0,1-.63-.91c0-.1-.18-.09-.27-.13a.12.12,0,0,1-.06-.16.23.23,0,0,1,.11-.14.49.49,0,0,1,.24,0,.66.66,0,0,1,.41.37,2.52,2.52,0,0,0,.46.66A.32.32,0,0,1,98.68,32.78Z"/></svg>