<svg id="Layer_1" data-name="Layer 1" xmlns="http://www.w3.org/2000/svg" viewBox="0 0 500 500"><defs><style>.cls-1{fill:#f1d2c0;}.cls-2{fill:#874a54;}.cls-3{fill:#eceda3;}.cls-4{fill:#ea834d;}.cls-5{fill:#1c364f;}.cls-6{fill:#1e364f;}.cls-7{fill:#1c354f;}.cls-8{fill:#1f3650;}.cls-9{fill:#22364f;}.cls-10{fill:#273850;}.cls-11{fill:#2f445b;}.cls-12{fill:#2d3e4e;}.cls-13{fill:#284053;}.cls-14{fill:#35354f;}.cls-15{fill:#343d54;}.cls-16{fill:#444b57;}.cls-17{fill:#4d3851;}.cls-18{fill:#433550;}.cls-19{fill:#43566b;}.cls-20{fill:#714c64;}.cls-21{fill:#403f54;}.cls-22{fill:#4f4369;}.cls-23{fill:#50475f;}.cls-24{fill:#6e3b55;}.cls-25{fill:#38354f;}.cls-26{fill:#39495f;}.cls-27{fill:#4e374f;}.cls-28{fill:#4f3b54;}.cls-29{fill:#43597e;}.cls-30{fill:#627586;}.cls-31{fill:#65465e;}.cls-32{fill:#434463;}.cls-33{fill:#687486;}.cls-34{fill:#304447;}.cls-35{fill:#6a3a54;}.cls-36{fill:#93586e;}.cls-37{fill:#607586;}.cls-38{fill:#664059;}.cls-39{fill:#4c5c82;}.cls-40{fill:#45566f;}.cls-41{fill:#4c5c72;}.cls-42{fill:#646c7f;}.cls-43{fill:#3d455e;}.cls-44{fill:#6b425c;}.cls-45{fill:#3f5f8c;}.cls-46{fill:#623e59;}.cls-47{fill:#37798b;}.cls-48{fill:#546d80;}.cls-49{fill:#39445d;}.cls-50{fill:#6f405a;}.cls-51{fill:#54425b;}.cls-52{fill:#373750;}.cls-53{fill:#52435c;}.cls-54{fill:#75465f;}.cls-55{fill:#77465e;}.cls-56{fill:#683a54;}.cls-57{fill:#78556c;}.cls-58{fill:#6f3e57;}.cls-59{fill:#747889;}.cls-60{fill:#554760;}.cls-61{fill:#786d80;}.cls-62{fill:#41425a;}.cls-63{fill:#283a53;}.cls-64{fill:#684b63;}.cls-65{fill:#7f8d9b;}.cls-66{fill:#49596d;}.cls-67{fill:#458494;}.cls-68{fill:#777e8e;}.cls-69{fill:#584e65;}.cls-70{fill:#6e8291;}.cls-71{fill:#448998;}.cls-72{fill:#6c4f66;}.cls-73{fill:#386377;}.cls-74{fill:#7c7d8e;}.cls-75{fill:#5a4f66;}.cls-76{fill:#424e66;}.cls-77{fill:#697386;}.cls-78{fill:#666075;}.cls-79{fill:#4d3f57;}.cls-80{fill:#4e7889;}.cls-81{fill:#787c8d;}.cls-82{fill:#755369;}.cls-83{fill:#4e485f;}.cls-84{fill:#32415a;}.cls-85{fill:#30546a;}.cls-86{fill:#473c55;}.cls-87{fill:#4f3d56;}.cls-88{fill:#5b6377;}.cls-89{fill:#373a53;}.cls-90{fill:#747a8b;}.cls-91{fill:#353c57;}.cls-92{fill:#4e5b70;}.cls-93{fill:#4d4860;}.cls-94{fill:#6c4058;}.cls-95{fill:#6c5269;}.cls-96{fill:#517a8b;}.cls-97{fill:#e9eef1;}.cls-98{fill:#5a536a;}.cls-99{fill:#2c3c55;}.cls-100{fill:#fdfdfd;}.cls-101{fill:#705268;}.cls-102{fill:#e8edef;}.cls-103{fill:#5d4d64;}.cls-104{fill:#564b62;}.cls-105{fill:#323d56;}.cls-106{fill:#46455c;}.cls-107{fill:#e83954;}.cls-108{fill:#604e65;}.cls-109{fill:#fad3d3;}.cls-110{fill:#203751;}.cls-111{fill:#8a615a;}.cls-112{fill:#453751;}.cls-113{fill:#1f364f;}.cls-114{fill:#ea844e;}.cls-115{fill:#263c4f;}.cls-116{fill:#24393a;}.cls-117{fill:#4e3750;}.cls-118{fill:#5f3851;}.cls-119{fill:#b03651;}.cls-120{fill:#fff;}.cls-121{fill:#21364f;}.cls-122{fill:#293c54;}.cls-123{fill:#27374f;}.cls-124{fill:#d2d2d2;}.cls-125{fill:#cad4d2;}.cls-126{fill:#505162;}.cls-127{fill:#6b5b50;}.cls-128{fill:#504b57;}.cls-129{fill:#815e54;}.cls-130{fill:#9aaeae;}.cls-131{fill:#a15848;}.cls-132{fill:#1f3649;}.cls-133{fill:#7b788a;}.cls-134{fill:#24364e;}.cls-135{fill:#304056;}.cls-136{fill:#773550;}.cls-137{fill:#e83a54;}.cls-138{fill:#603450;}.cls-139{fill:#7f3550;}.cls-140{fill:#4064ad;}.cls-141{fill:#2b3c63;}.cls-142{fill:#633550;}.cls-143{fill:#e43652;}.cls-144{fill:#48475e;}.cls-145{fill:#52344f;}.cls-146{fill:#4f344f;}.cls-147{fill:#fdfefe;}.cls-148{fill:#2c385a;}.cls-149{fill:#b13551;}.cls-150{fill:#62576c;}.cls-151{fill:#3f64ad;}.cls-152{fill:#ce3b57;}.cls-153{fill:#4b415c;}.cls-154{fill:#3f354f;}.cls-155{fill:#8e3752;}.cls-156{fill:#ce415d;}.cls-157{fill:#96566c;}.cls-158{fill:#db3753;}.cls-159{fill:#5e3550;}.cls-160{fill:#633450;}.cls-161{fill:#783550;}.cls-162{fill:#975f74;}.cls-163{fill:#3d3751;}.cls-164{fill:#653d56;}.cls-165{fill:#9c6377;}.cls-166{fill:#493a53;}.cls-167{fill:#615066;}.cls-168{fill:#50344e;}.cls-169{fill:#293b55;}.cls-170{fill:#2c3a51;}.cls-171{fill:#3b3d53;}.cls-172{fill:#444357;}.cls-173{fill:#ea8450;}.cls-174{fill:#fdfbfa;}.cls-175{fill:#97d2d6;}.cls-176{fill:#dddddc;}.cls-177{fill:#f4dcd0;}.cls-178{fill:#cbc3ab;}.cls-179{fill:#9ebdad;}.cls-180{fill:#23374f;}.cls-181{fill:#313e51;}.cls-182{fill:#36465c;}.cls-183{fill:#a05949;}.cls-184{fill:#2d3948;}.cls-185{fill:#2a374b;}.cls-186{fill:#313b49;}.cls-187{fill:#3e3c4d;}.cls-188{fill:#463f49;}.cls-189{fill:#2b394e;}.cls-190{fill:#92534b;}.cls-191{fill:#363b49;}.cls-192{fill:#767079;}.cls-193{fill:#1f364a;}.cls-194{fill:#23364e;}.cls-195{fill:#4c434a;}.cls-196{fill:#6e747f;}.cls-197{fill:#233750;}.cls-198{fill:#28374f;}.cls-199{fill:#383a4f;}.cls-200{fill:#203851;}.cls-201{fill:#4c5668;}.cls-202{fill:#e83953;}.cls-203{fill:#4b344e;}.cls-204{fill:#703550;}.cls-205{fill:#613550;}.cls-206{fill:#31344e;}.cls-207{fill:#5a344f;}.cls-208{fill:#573550;}.cls-209{fill:#4d354f;}.cls-210{fill:#4a3655;}.cls-211{fill:#8f344f;}.cls-212{fill:#e83852;}.cls-213{fill:#333e6a;}.cls-214{fill:#53344f;}.cls-215{fill:#48344e;}.cls-216{fill:#44344e;}.cls-217{fill:#803550;}.cls-218{fill:#4a344f;}.cls-219{fill:#423654;}.cls-220{fill:#30344e;}.cls-221{fill:#26344e;}.cls-222{fill:#653550;}.cls-223{fill:#65354f;}.cls-224{fill:#253550;}.cls-225{fill:#8d435c;}.cls-226{fill:#6b354f;}.cls-227{fill:#474158;}.cls-228{fill:#543b57;}.cls-229{fill:#593851;}.cls-230{fill:#545166;}.cls-231{fill:#64808f;}.cls-232{fill:#597082;}.cls-233{fill:#4d556a;}.cls-234{fill:#c43651;}.cls-235{fill:#b43551;}.cls-236{fill:#6d344f;}.cls-237{fill:#41445c;}.cls-238{fill:#51a0ac;}.cls-239{fill:#3b5d71;}.cls-240{fill:#437f8d;}.cls-241{fill:#4b475f;}.cls-242{fill:#5cb0ba;}.cls-243{fill:#9b3450;}.cls-244{fill:#5e6f82;}.cls-245{fill:#5a7687;}.cls-246{fill:#4c6f80;}.cls-247{fill:#4b687b;}.cls-248{fill:#57697c;}.cls-249{fill:#3c3c61;}.cls-250{fill:#3f3e59;}.cls-251{fill:#2e344e;}.cls-252{fill:#3c7384;}.cls-253{fill:#675269;}.cls-254{fill:#5cafb9;}.cls-255{fill:#468c9b;}.cls-256{fill:#533952;}.cls-257{fill:#3c697c;}.cls-258{fill:#3c576c;}.cls-259{fill:#b33955;}.cls-260{fill:#f9d4d3;}.cls-261{fill:#e8eba2;}.cls-262{fill:#eaeba2;}.cls-263{fill:#384a60;}.cls-264{fill:#903451;}.cls-265{fill:#1e354f;}.cls-266{fill:#2b344e;}.cls-267{fill:#a43551;}.cls-268{fill:#be3550;}.cls-269{fill:#47344e;}.cls-270{fill:#d53752;}.cls-271{fill:#e03551;}.cls-272{fill:#cf3451;}.cls-273{fill:#da3552;}.cls-274{fill:#7d354f;}.cls-275{fill:#cd3451;}.cls-276{fill:#503851;}.cls-277{fill:#36465d;}</style></defs><path class="cls-1" d="M161.11,109.45a19.07,19.07,0,0,0-5.62.67c-10.49,2.45-21,4.78-31.5,7.19-7.72,1.78-15.43,3.62-23.15,5.43l-21.78,5.12c-.69.16-1.4.25-2.1.38a1.09,1.09,0,0,1-1.35-.85c-.71-2.5-1.48-5-2-7.55-1.28-6.27-3-12.42-4.51-18.63Q65.46,86,61.88,70.81q-2.41-10.19-4.79-20.38C57,50,57,49.49,56.9,49c-.35-2.56-.37-2.62,2.2-3.19q9.52-2.13,19.07-4.15c4.86-1,9.74-2,14.6-3q9.9-2.06,19.79-4.15L131,30.68l29.52-6.16q10.42-2.19,20.83-4.41c6.37-1.35,12.72-2.73,19.09-4.07,5.2-1.1,10.42-2.15,15.63-3.24l17.7-3.75a1.34,1.34,0,0,1,1.71.88,25.78,25.78,0,0,1,1,3.4c1.08,5.71,2.75,11.27,4.22,16.88,2.34,8.93,4.75,17.85,7,26.8,2.33,9.3,4.51,18.63,6.75,27.95a7.35,7.35,0,0,1,.18,1.41,2,2,0,0,1-1.67,2.35,18.82,18.82,0,0,1-2.77.63c-6.25.73-12.28,2.52-18.41,3.83-7.52,1.59-15,3.27-22.53,4.95-4.16.93-8.32,1.85-12.44,2.92-1,.25-2.19.23-2.81,1.32a3,3,0,0,1-2,.86c-2.92.48-5.81,1.16-8.68,1.87a4.69,4.69,0,0,1-.94.43c-4,.68-8,1-11.74,2.69a5.73,5.73,0,0,1-2,.13C166.05,108.42,163.71,109.87,161.11,109.45Z"/><path class="cls-2" d="M213.67,425.35a30,30,0,0,1,3.25-3.74,5.41,5.41,0,0,0,1.94-5c-.18-2.84-.08-5.69-.19-8.53-.57-15-.4-30.08-.54-45.12-.06-5.8,0-11.6,0-17.4,1.88-1.57,4.26-1.4,6.44-1.63a99.85,99.85,0,0,1,12.83-.12c1.42,0,2.9.17,3.62,1.75.15,7.6.34,15.21.45,22.81,0,2.61-.09,5.23-.2,7.84a136,136,0,0,0,.22,18.17c.09,1.06.12,2.13.14,3.2q.36,16.05.7,32.09c0,.71.09,1.42.14,2.13-.14.15-.29.3-.42.46-2.39,1-4.85.56-7.3.34-3.39-.57-6.76-1.2-7.55-5.41-2.77-1.5-5.75-.42-8.62-.75C216.92,426.26,215.05,426.92,213.67,425.35Z"/><path class="cls-3" d="M241.05,345.57a15,15,0,0,0-6.27-.83c-5.53.33-11.08.56-16.62.83l-4.26,0c-2.84,0-5.69.16-8.44-.76-1.37-1.14-1-2.74-1.09-4.21-.15-3.37.25-6.74-.09-10.1.13-1.28,1.12-1.83,2.05-2.43,2-1.18,4-2.38,3.81-5.17,1-3.94-2.15-6.76-2.82-10.26,0-2.61-.59-5.17-.68-7.76-.11-2.89.92-3.69,3.67-2.77a8.77,8.77,0,0,0,6.53-.37c1.5-.64,3-1.43,4.77-.75,1.86,1.78,1.88,4.27,2.4,6.52a127.07,127.07,0,0,0,4,14c.45,1.29.94,3.09,2.79,2.51s1.33-2.3,1-3.66A125.56,125.56,0,0,0,226.54,303c-.48-1.19-1.22-2.32-.86-3.72,4.83-5.43,8.56-5.84,13.77-1.14,2.86,2.59,6.67,3.54,9.53,6,2.24,3.32.89,6.92.58,10.34-.66,7.34-.2,14.66-.28,22,0,2.91,2.67,4.63,3.08,7.33a6.6,6.6,0,0,1-5.08,1.74C245.21,345.52,243.13,345.58,241.05,345.57Z"/><path class="cls-2" d="M268.26,434c1.47-.64,2.94-1.29,3-3.25,0-.1.1-.21.17-.31,2.23-2.89,2.49-6.24,2.5-9.73.05-8.29.36-16.58-.26-24.84-.5-6.5-.51-13-.57-19.5,0-.71,0-1.42.07-2.13,6.47-.88,12.75-3.72,19.49-1.9.91.24,1.89.29,2.42,1.24-.05,1.53-.21,3.07-.15,4.59.3,8.26.65,16.52,1,24.78.23,6,.85,12,1.61,18a26.26,26.26,0,0,0,1.61,6.52c-1.69,1.83-3.78.62-5.69.75-1.43.1-2.81-.46-4.23-.24a16.34,16.34,0,0,1-4.17.59c-1,0-2,.43-2.14,1.45-.46,3.67-3.31,3.77-6,4.22a19.62,19.62,0,0,1-2,.18,6.34,6.34,0,0,0-3.29.16,5.69,5.69,0,0,1-1.48.21A2.29,2.29,0,0,1,268.26,434Z"/><path class="cls-4" d="M161.11,109.45c.26-.21.51-.55.8-.6,2.38-.41,4.64-1.4,7.08-1.47a16.59,16.59,0,0,0,1.14,1.51,20.91,20.91,0,0,1,.91,2.26c1,2.87,1.71,5.85,2.83,8.69a8.68,8.68,0,0,1,.23,1,16.76,16.76,0,0,0,1.22,4.43c1.14,3.28,1.51,6.81,3.35,9.86.65,1.68.54,3.51,1.11,5.21a13,13,0,0,0,.55,2c1.87,5.63,3.43,11.35,5.32,17,.16,1-.13,2,.48,2.85a9.4,9.4,0,0,1,.82,1.9c5.6,19.45,11.39,38.84,17.21,58.22a18.83,18.83,0,0,0,1.33,3.66,46.61,46.61,0,0,0,3,10.22,5.94,5.94,0,0,1,.07,2.1c-.22,5.16-2.24,6.7-7,5.34a4.92,4.92,0,0,1-1.68-1.43c-1.3-2.05-1.61-4.45-2.39-6.68-4.53-15-9-30.07-13.42-45.11a8.3,8.3,0,0,1-.34-1.07c-3.05-11-6.65-21.85-9.52-32.9a4.67,4.67,0,0,1-.31-2.12,6,6,0,0,0-.49-3.45q-4.58-15.45-9.14-30.92C163.22,116.46,162.16,113,161.11,109.45Z"/><path class="cls-5" d="M295.07,373.59l-5.22-.81c-2.87-.44-5.62.31-8.4.83-1.5.29-3,.66-4.47,1a7.11,7.11,0,0,1-3.82-.36c-1.2-.76-2.4-1.52-3.59-2.29a4.32,4.32,0,0,1-1.86-5.26,13.83,13.83,0,0,1,.57-1.68,2.86,2.86,0,0,0,0-2.67,5.86,5.86,0,0,1-.17-2.79c.12-2.61.52-5.22.42-7.81-.18-4.83.69-4.63-4.53-5a34.74,34.74,0,0,1-11.66-2.92c-3-2.07-4.12-5.06-4.08-8.54.09-7.42-.63-14.86.47-22.27.26-1.74.32-3.52.49-5.28a4.31,4.31,0,0,0-1.09-3.6c-.07-.84.49-1,1.15-1.14,3.46,1.13,2.91,4.15,2.61,6.55-1,7.7-.45,15.4-.55,23.1-.09,7.46,1.16,9.22,8.56,10.53,5.12.92,10.29,1.64,15.4,2.66,2.74.55,5.25,1.51,7,3.9,3.09,5.22,3,7.57-.29,10.67-1.61,1.53-3.52,1.72-5.57,1.78-1.59,0-3.4-.4-4.41,1.45-2.15,5.56,0,8.56,5.87,7.26a48.22,48.22,0,0,1,22.88.82c2.64.68,5.24,1.79,6.29,4.28,3.24,7.67,10.12,8.34,16.7,8.2a100.65,100.65,0,0,0,17.67-2c6.21-1.25,8.11-3.63,8.51-10,.61-9.84,2.09-19.6,2.9-29.41,1.13-13.61,3.67-27.06,4.51-40.7A35.85,35.85,0,0,1,363.71,288c2-2.6,2.16-5.42,1.47-8.46-2.15-9.5-4-19.07-5.42-28.69-2.65-17.84-5.71-35.63-8.09-53.5a47.41,47.41,0,0,1,1.76-21.14,38.18,38.18,0,0,0,1.52-7.3C356,160,347,153,339.77,154c-4.14.55-8.22,1.18-12,3.12a37.34,37.34,0,0,1-8.2,3.43A1.83,1.83,0,0,1,318,160a1.34,1.34,0,0,1-.14-1c.29-.74,1.28-.52,1.65-1.17,2.89-1.62,5.68-3.47,8.71-4.79a30.75,30.75,0,0,1,16.36-2.44,9.15,9.15,0,0,1,5.65,2.76,12.41,12.41,0,0,0,1.3,1.21c5.76,4.37,7.22,10.33,6.25,17.13a23.65,23.65,0,0,1-1.1,4.48,45.6,45.6,0,0,0-1.44,25.63c.93,4.19,1.2,8.46,1.88,12.67.59,3.63,1.54,7.22,1.93,10.87.87,8,2.55,15.93,3.42,24,.65,6.12,2,12.18,3.13,18.25.84,4.55,1.8,9.08,2.8,13.6a8.12,8.12,0,0,1-.32,4.88c-1.21,3.15-2.82,6.06-5.6,8.09a4.53,4.53,0,0,0-1.85,3.61c-.94,10.89-2.42,21.71-3.82,32.55-.34,2.58-.44,5.2-.59,7.81-.49,8.19-1.85,16.28-2.67,24.44-.27,2.72-.36,5.45-.4,8.18a31.63,31.63,0,0,1-.63,5.64c-.88,4.54-4,6.83-8,8.22a19.2,19.2,0,0,1-7.34,1.21,23.9,23.9,0,0,0-6.35.76,28,28,0,0,1-13.76,0,19,19,0,0,0-2.82-.42,10,10,0,0,1-8.13-5.64,31.82,31.82,0,0,1-1.47-2.84,4.64,4.64,0,0,0-3.71-3Z"/><path class="cls-6" d="M173.89,154.33a2.24,2.24,0,0,1,.86,1.46c0,.35,0,.89-.32.9-3.3.11-5.71,2.63-9.07,3-4.44.43-7.64,3.31-9,7.6-2.27,7-2.09,13.82,2.34,20a10.51,10.51,0,0,1,2,6.31c0,4.39.08,8.79,0,13.18a264.62,264.62,0,0,0,1.51,34.47c1.07,9.66.63,19.44,2,29.09.49,3.4.72,6.84,1,10.27.26,3.72,1.18,7.27,3.82,10.15.81.88,1.51,1.88,1,3.2a.73.73,0,0,1-1,.29,7.46,7.46,0,0,1-4.16-3.63,17.17,17.17,0,0,1-2.66-8c-.61-7.92-1.5-15.82-2.23-23.74-.16-1.77-.19-3.55-.19-5.33a126.29,126.29,0,0,0-1.23-17.38,83.68,83.68,0,0,1-.78-9.22c-.32-11.51-.76-23,.08-34.52a3.83,3.83,0,0,0-1.25-3.47,12.68,12.68,0,0,1-3.37-6.16,27.41,27.41,0,0,1-.58-13.37,18,18,0,0,1,6.05-10.23,11.39,11.39,0,0,1,3-1.89c2.41-1,4.9-1.75,7.35-2.59A14.73,14.73,0,0,1,173.89,154.33Z"/><path class="cls-7" d="M204.77,330.13a6.23,6.23,0,0,1,.85,4,67.62,67.62,0,0,0-.16,10.65l-.21,4.26a5.24,5.24,0,0,0,.62,2.73c2.13,4.11,1.43,7.77-1.87,11-.69.23-1-.19-1.24-.73a2.89,2.89,0,0,1,.05-1.4c1.91-6,.37-10-5.16-13.18-2.26-1.29-4.6-2.44-6.77-3.87-5.11-3.35-5.21-6.95-.45-10.62a12.39,12.39,0,0,1,7.91-2.61,8,8,0,0,0,4-1.12C203.4,328.74,204.6,328.19,204.77,330.13Z"/><path class="cls-8" d="M318.12,159.41l.69.68c.31.9-.34,1.31-.93,1.63-4.31,2.38-7.85,5.89-12.13,8.32a10.29,10.29,0,0,0-2.24,4.35,23.29,23.29,0,0,1-12.95,13.78c-.65.27-1.31.8-2,.77-5.4-.19-7.45,4.14-10.25,7.47-.89,1.07-1.46,2.51-3.19,2.53a1.5,1.5,0,0,1-1.07-1.19,3.51,3.51,0,0,1,.8-2.66c4.59-5.88,4.82-12.62,3.9-19.57-.49-3.68,1.08-6.16,4.28-7.77,1,0,1.29.69,1.45,1.51a24.64,24.64,0,0,0-1.87,11.36c.3,3.54,1.74,4.78,5.12,3.64,6.08-2.06,10.54-6,12.32-12.31a10.75,10.75,0,0,1,6-7.41c8.2-3.94,11.76-10.6,11.13-19.62a14.15,14.15,0,0,1,.79-6.31c.27-.66.37-1.78,1.64-1.24a52.84,52.84,0,0,1,0,11.59c.25,2.2-.79,4.16-1.14,6.24-.16.92-.68,1.78-.45,2.76l-.05.32a5.76,5.76,0,0,0-.33.6A.85.85,0,0,0,318.12,159.41Z"/><path class="cls-9" d="M191.89,102.37a3.53,3.53,0,0,1,2.06,0c1,1.31,2,2.61,3,3.95a23.25,23.25,0,0,0,3.92,4.13,19.59,19.59,0,0,1,4.84,6.09,24.45,24.45,0,0,0,3.74,5.19,1.29,1.29,0,0,0,1.58.39c5.54-2.23,11-1,16.38.57,2.16.63,4.26,1.48,6.41,2.15a18.37,18.37,0,0,1,5.36,2.74c2.12,1.52,4.31,3,6.44,4.46a1.15,1.15,0,0,0,1.81-.28c.93-1.22,1.73-2.58,3.27-3.16.69-.38,1,0,1.23.6a2.51,2.51,0,0,1-.29,1c-3.92,6.82-5.42,7.34-11.58,2.36-4.85-3.93-10.48-5.7-16.21-7.48-4-1.13-8.13-1.7-12.27-.57a4.64,4.64,0,0,1-5.71-2.5c-3.29-6.31-8.71-10.87-13-16.32C192.11,104.76,190.75,103.89,191.89,102.37Z"/><path class="cls-9" d="M260.28,123.6c6.3-3.35,13-4,20-2.94,1.25.19,2.47.86,3.79.17.43-.23.87.12,1.26.43.71.58,1.47,1.11,2.21,1.66.83.8,2.35.33,2.94,1.58-2.81,9.7-3.07,19.7-3.44,29.68a13.2,13.2,0,0,1-.28,2.94c-.85,2.4-.24,4.93-.61,7.38a3.19,3.19,0,0,1-.43,1.05c-1.25,1-1.56-.19-2.08-.9a2.8,2.8,0,0,1-.16-1.11,17.18,17.18,0,0,0,.13-2.27c-.18-5.2.35-10.41-.5-15.59a5.28,5.28,0,0,1,.46-3.13c2.43-5,1.35-10.2.48-15.33-.47-2.72-2.68-3.47-5-3.71a36,36,0,0,0-13.39.89,11.32,11.32,0,0,1-3.82.74C261,124.93,260,124.85,260.28,123.6Z"/><path class="cls-10" d="M289.54,124.44c-.71-.46-1.67-.59-2-1.52.44,0,1,.25,1.31-.24,2.88-4.39,7.1-7.68,10-12.07a12.7,12.7,0,0,1,1.65-1.87c3.61-3.61,7.23-7.2,10.83-10.83q3.14-3.15,6.1-6.48A39.22,39.22,0,0,1,328,83.14a7.8,7.8,0,0,1,6.52-.77c0,1.79-1.7,1.32-2.56,2-4.57,1.68-8.15,4.77-11.61,8-10,9.45-18.58,20.29-28.44,29.88A19.31,19.31,0,0,1,289.54,124.44Z"/><path class="cls-11" d="M319.64,149c0-3-.07-6-.12-9.07,0-.91.18-1.88-.62-2.61-1.77-2.52-1.24-5.23-.33-7.77,2.37-6.55,5.21-12.92,7.94-19.32.46-1.08.89-2.24,2.29-2.46,1,.26,1.31.81.76,1.74-.94,2.3-1.91,4.59-2.82,6.9q-2.85,7.29-5.67,14.58a10.37,10.37,0,0,0-.64,3.49q-.14,5.16-.3,10.32C320.08,146.17,320.28,147.62,319.64,149Z"/><path class="cls-12" d="M179.07,346.28c-2.22-.9-3.9-2.6-5.83-3.93-1.41-1-1.71-2.43-1.74-4-.06-2.71-.07-5.42-.32-8.12-.36-3.87-.92-7.72-1.37-11.58-.13-1.16-.16-2.34-.24-3.51-.12-1.36-1-2.82.58-3.92a2.13,2.13,0,0,1,1.09,1.74c1.08,7,2.83,14,2.9,21.14,0,3.89.81,7,4.26,9a6.47,6.47,0,0,1,.75.91c.11.17.2.34.31.5C179.53,345.14,180.45,346,179.07,346.28Z"/><path class="cls-13" d="M203.11,361.85l.89.89c-1.3,2.49-3.4,2.91-6,2.61-7.12-.85-11.57-5-14.37-11.26-.72-1.62-1.39-3.27-2.08-4.9.68-.56,1.34-.26,2,.05,2.07,1.61,2.61,4.16,3.86,6.27,2.42,4.08,5.63,6.82,10.6,7.34C199.91,363.05,201.32,361.71,203.11,361.85Z"/><path class="cls-14" d="M193.22,450.4l1.31-.73a2.77,2.77,0,0,1,1.3-.28c3.43-.05,6.87-.19,10.3,0,1.38.1,3.16.14,3.13,2.11s-1.81,2.06-3.18,2c-4.68-.1-9.49,1-14-1.26a.87.87,0,0,1-.3-1.18h0C192.18,450.74,192.85,450.86,193.22,450.4Z"/><path class="cls-15" d="M331.67,83.74a1.67,1.67,0,0,1,1.42-.69,1.57,1.57,0,0,0,1.41-.68l.69,0c.43.35,1.08.2,1.48.64a5.26,5.26,0,0,0,2.91,1.07c2.14.11,3.28,1.62,4.47,3.06a4,4,0,0,1,.63,3,2.28,2.28,0,0,1-1.4,2.23,1.42,1.42,0,0,0-.86.58l-.11,0c-.34.41-1,.25-1.31.67l-.11,0c-.75.53-1.24.28-1.56-.5a1.92,1.92,0,0,1,.38-.92c3.12-2.78,2.89-4.1-.84-5.73C336.5,85.59,333.91,85.09,331.67,83.74Z"/><path class="cls-16" d="M170.28,311.34c-1.05,1.1-.32,2.53-.71,3.75a8.61,8.61,0,0,1-.62-4.16c0-5.56,0-11.12,0-16.68a5.4,5.4,0,0,1,.69-.08c1.81,2,.52,4.63,1.57,6.77C171.27,304.44,172.47,308,170.28,311.34Z"/><path class="cls-17" d="M267.48,445.41c-.29-1.13-.07-2.35-.61-3.45-.1-.21.21-.61.34-.91l1.1-.59c4.69-1,9.38-2,14,.42.54.69.1,1.09-.42,1.47-2.72.94-5.54.44-8.31.48-2.14,0-3.88.56-5,2.47A.76.76,0,0,1,267.48,445.41Z"/><path class="cls-18" d="M243.8,439.65l-.06.8c-.53,1.17.13,2.51-.5,3.67,0,.9-.07,1.81-.1,2.72a.68.68,0,0,1-1-.16c-1.67-5.69-1.94-5.89-8.12-5.95-.59,0-1.18,0-1.77,0-1.32-.23-3,.25-3.48-1.68,4.24-2.43,8.73-1,13.14-.85A2.65,2.65,0,0,1,243.8,439.65Z"/><path class="cls-19" d="M329.56,109.47c-.08-.59-.14-1.18-.77-1.47a1.36,1.36,0,0,1-.25-1.64c1.82-3.12,3-6.65,5.65-9.24a1.25,1.25,0,0,1,1.16,1A103.07,103.07,0,0,1,329.56,109.47Z"/><path class="cls-20" d="M301.65,427.7a5,5,0,0,1,2.44.27,3.31,3.31,0,0,1,2.77,3.54c.1,2.24.49,4.47.75,6.71a.92.92,0,0,1-1.07.13,6.8,6.8,0,0,1-1.5-4.65c-.12-2.47-1.3-3.63-3.8-3.71-1.44-.05-3.19.37-4-1.53C298.58,427.32,300.29,428.49,301.65,427.7Z"/><path class="cls-21" d="M260.28,123.6c.27.69.86.81,1.5.87-2.77,2.82-6.29,4.11-10,4.95l-1-.82A23,23,0,0,1,260.28,123.6Z"/><path class="cls-22" d="M179.61,458.31a15.94,15.94,0,0,1,5.56-2.95c.63-.44.88,0,1.12.48-.95,1.89-.9,4-1.46,6-1.18.47-1.71-.34-2.08-1.19s-.83-1.62-1.91-1.69a3.12,3.12,0,0,1-.9-.32Z"/><path class="cls-23" d="M268.87,468.27c-.22-.26-.6-.5-.62-.76A35.58,35.58,0,0,1,268,461a20,20,0,0,0,0-2.79,10.42,10.42,0,0,1,.13-3.48.7.7,0,0,1,1,.11c1.19,2.23.43,4.68.85,7,.21,1.2-.49,2.46.2,3.65a3.61,3.61,0,0,1,.52,1.25,2,2,0,0,1-.2.89,2,2,0,0,1-1.18.66Z"/><path class="cls-24" d="M204.57,427.45a.64.64,0,0,1,.66-.62l.82-.48,1.24-.27c.73-.39,1.59-.08,2.32-.47l3.62-.12c.8.89,2.36-.39,3,1a2.19,2.19,0,0,1-2.33,1.24,30.94,30.94,0,0,0-9.27,1.38A1.49,1.49,0,0,1,204.57,427.45Z"/><path class="cls-25" d="M316.09,451.14l2,1.44c.31.92-.17,1.47-.89,1.91a4.93,4.93,0,0,1-1.72.42,7.82,7.82,0,0,1-3.13-.17c-2.13-.79-2.4-1.8-.16-2.89a9.58,9.58,0,0,0,2.52-.67A1.2,1.2,0,0,1,316.09,451.14Z"/><path class="cls-26" d="M335.35,98.09l-.94-.94c0-3.48,2.33-4,5.08-4.07a1.66,1.66,0,0,0,1.4.7C339.21,95.43,336.81,96.15,335.35,98.09Z"/><path class="cls-27" d="M216.22,426.31c-1-.3-2.2.23-3-.82a.39.39,0,0,1,.44-.14c4.16,0,8.32.08,12.47.1,1,0,1.92.18,2.06,1.43l-.48.35a3.08,3.08,0,0,1-1.16.16C223.15,426.63,219.52,428.06,216.22,426.31Z"/><path class="cls-28" d="M301.65,427.7a2,2,0,0,1-1.57.59c-.93,0-1.86.11-2.79.16-2.32,1.42-4.78.9-7.23.49a1.66,1.66,0,0,1-1.18-1.95c1.92.1,3.87,0,5.76.33a22.29,22.29,0,0,0,4.47.15Z"/><path class="cls-29" d="M178.09,467.08c-1-2.45-.37-4.88.13-7.29a2.05,2.05,0,0,1,1.39-1.48l.27.15a2.15,2.15,0,0,1,.38,1c-.33,2.18-.2,4.43-.87,6.57A1.93,1.93,0,0,1,178.09,467.08Z"/><path class="cls-30" d="M228.25,474.67l-2.78.86c-.56.27-.87,0-1.11-.49a31,31,0,0,0-.87-4.13,2.43,2.43,0,0,1,.16-1c1.34-1.3,2-.22,2.67.77a3.58,3.58,0,0,0,1.85,2.33,1.49,1.49,0,0,1,.42.79A1.36,1.36,0,0,1,228.25,474.67Z"/><path class="cls-31" d="M186.06,456l-.89-.61c2.1-1.58,4-3.45,6.62-4.23l0,1A6.35,6.35,0,0,1,186.06,456Z"/><path class="cls-32" d="M327.53,458.24a9.39,9.39,0,0,1,3.75,2.12,1.62,1.62,0,0,1-.74.58,2.78,2.78,0,0,0-2.66,1.78c-.34.85-.88,2.07-2.24,1a10,10,0,0,1,.52-4.87C326.48,458.3,326.84,457.88,327.53,458.24Z"/><path class="cls-33" d="M182.52,477.53c-2.8-.55-3.56-2.49-3.48-5,.58-.64-.09-1.65.67-2.24a1.14,1.14,0,0,1,1.16.73c.3,1.91.63,3.81,2.39,5a1.26,1.26,0,0,1,.07.95Z"/><path class="cls-34" d="M183.33,349.82l-1.79-.63-2.47-2.91c.62-.51-.07-1,0-1.5C182.32,345,183.43,346.34,183.33,349.82Z"/><path class="cls-35" d="M243.8,439.65l-1.41-.68c-1.31-1.83-.93-3.85-.66-5.87a2.49,2.49,0,0,1,.64-1l.13-.27a1.3,1.3,0,0,1,.9,1.31C243.55,435.3,243.67,437.48,243.8,439.65Z"/><path class="cls-36" d="M313.71,481.26a9.1,9.1,0,0,1-4,.38c-1.45-.61-3.17.43-4.53-.73,1.87-2.56,4.42-1.31,6.76-1.22A2.59,2.59,0,0,1,313.71,481.26Z"/><path class="cls-37" d="M285.39,477.48a5.23,5.23,0,0,1-2.22-.84,1.88,1.88,0,0,1,.25-1.35c.43-1,.27-2.28,1.26-3.07a1.63,1.63,0,0,1,2.24.62,7.78,7.78,0,0,1-.4,3.61A2.36,2.36,0,0,1,285.39,477.48Z"/><path class="cls-38" d="M317.37,453.83l.7-1.25a14.91,14.91,0,0,1,5.78,3.54l-.18.47a1.57,1.57,0,0,1-.84.51l-.51-.06C320.61,456.07,318.54,455.64,317.37,453.83Z"/><path class="cls-39" d="M330.16,460.52l1.12-.16a2.26,2.26,0,0,1,1.46,1.8c.51,2.62.81,5.24-.2,7.82-2-1.82-.58-4.37-1.41-6.43C330.81,462.54,329.94,461.7,330.16,460.52Z"/><path class="cls-40" d="M179.71,470.35c-.17.74.06,1.59-.67,2.15-.16-1.84-1.45-3.47-.95-5.42l.78-.95a6,6,0,0,1,2.32,3.29C181,470.17,180.22,470.07,179.71,470.35Z"/><path class="cls-41" d="M242.51,446.88l.63,0c-.09,3.64.17,7.29-.59,10.88-1.17-.94-1-2.29-1.07-3.56,0-1.89-.06-3.78.12-5.66A2.41,2.41,0,0,1,242.51,446.88Z"/><path class="cls-42" d="M331.66,472.53a34.15,34.15,0,0,1-.23,3.8c-.19,1.12-.48,2.33-1.95,2.54a1.06,1.06,0,0,1-.87-1,14.29,14.29,0,0,0,1.23-3.95,2.14,2.14,0,0,1,1-1.56A.77.77,0,0,1,331.66,472.53Z"/><path class="cls-43" d="M328.73,478.15l.75.72L327.29,480a2.16,2.16,0,0,0-1.38.32h-1.32c-.4-.56-1.63,0-1.6-1.14A5.58,5.58,0,0,1,328.73,478.15Z"/><path class="cls-44" d="M316.09,451.14l-.95.82c-2.08-.27-3.28-1.71-4.36-3.31,0-.58.41-.83.89-1A12.12,12.12,0,0,1,316.09,451.14Z"/><path class="cls-45" d="M331.67,462.54c.76.57.7,1.4.72,2.22l.15,5.22a2.24,2.24,0,0,1-.76,2,2.48,2.48,0,0,1-1.24-2C330.9,467.53,330,464.84,331.67,462.54Z"/><path class="cls-46" d="M268.37,441l-1.16,0c.06-2.05.12-4.1.21-6.15a.9.9,0,0,1,.84-.89l2.05.06a.86.86,0,0,1,0,.95C268.46,436.62,269.61,439.21,268.37,441Z"/><path class="cls-47" d="M214.83,479.76a2.25,2.25,0,0,1-1.58.57,40.41,40.41,0,0,1-7.93-.12.71.71,0,0,1,.34-.94,6.08,6.08,0,0,1,2.73-.52c1.86.07,3.74-.2,5.58.3A1.76,1.76,0,0,1,214.83,479.76Z"/><path class="cls-48" d="M306.1,481.93a17,17,0,0,1-9,0c1.71-1.68,3.87-.88,5.85-1.06A5.23,5.23,0,0,1,306.1,481.93Z"/><path class="cls-49" d="M242.94,460.33c-.16,1.46-.31,2.91-.47,4.36a1.07,1.07,0,0,1-1.28.26c-.79-.7-.23-1.79-.77-2.56a1.91,1.91,0,0,1-.28-1.34,2.16,2.16,0,0,1,1.46-1.12A1.8,1.8,0,0,1,242.94,460.33Z"/><path class="cls-50" d="M202.42,440.06l-.09-.17.12-.14a.69.69,0,0,1,.92-.08c1,1.77-.18,3-1.11,4.26a1.87,1.87,0,0,1-.92.46,1.18,1.18,0,0,1-.9-.43,2.13,2.13,0,0,1,.63-2.09c.23-.25.5-.46.71-.73h0A1.45,1.45,0,0,0,202.42,440.06Z"/><path class="cls-51" d="M195.71,449.76l-1.18-.09a9.37,9.37,0,0,1,3.29-3.12,6,6,0,0,1,1,0,.94.94,0,0,1,.35.84A3.83,3.83,0,0,1,195.71,449.76Z"/><path class="cls-52" d="M199,446.87l-.89-.2-.13-.2c.87-.8,2-1.3,2.51-2.5l.61.08c.5.46,1.58.14,1.66,1.19a1.44,1.44,0,0,1-1.17,1.13c-.3.21-.48-.67-.82-.09a2.94,2.94,0,0,1-.61.56A1,1,0,0,1,199,446.87Z"/><path class="cls-53" d="M306.69,438.29l.92-.07a1.14,1.14,0,0,1,.6,1.08l.06,2.32c.34.89-.15,1.09-.9,1.09C306,441.42,305.47,440,306.69,438.29Z"/><path class="cls-54" d="M327.53,458.24l-1,.9c-1.57-.1-3.15-.18-3.36-2.28l.13-.19.33-.34.27-.21Z"/><path class="cls-55" d="M303.18,481.66l-6.08.24-.9-.07a.55.55,0,0,1-.12-1,8.51,8.51,0,0,1,6.66-.22A.81.81,0,0,1,303.18,481.66Z"/><path class="cls-56" d="M242.94,460.33h-1.33c-1.25-1.95-1-4-.28-6a.71.71,0,0,1,1-.29l.18,3.68Z"/><path class="cls-57" d="M268.75,454.71h-.61l-.48-3.59c.58-.6-.63-2.2,1.19-2.11C270.18,450.94,270.32,452.84,268.75,454.71Z"/><path class="cls-58" d="M208.22,479.63l-2.88,0a5.17,5.17,0,0,1-3.92,0h0c-.53-.08-.67-.36-.42-.83a2.89,2.89,0,0,1,1.66-.76c1.8-.11,3.62-.36,5.34.49A.74.74,0,0,1,208.22,479.63Z"/><path class="cls-59" d="M277.5,473.91c-.64-.14-1.28-.29-1.93-.4a2.17,2.17,0,0,1-1.67-.95,1.47,1.47,0,0,1,1-1.17,2.24,2.24,0,0,1,2.94,1.54A1.33,1.33,0,0,1,277.5,473.91Z"/><path class="cls-60" d="M203.21,436.16c.65-1.61.39-3.36.77-5a.71.71,0,0,1,1,.18,4.65,4.65,0,0,1-.22,4.81,1.41,1.41,0,0,1-1.05.29Z"/><path class="cls-61" d="M293.64,481.13,292,481a1.53,1.53,0,0,1-.91-.5l-.23-.12a1.72,1.72,0,0,1-.19-1,.91.91,0,0,1,.77-.65c1.48.55,3.74,0,3.77,2.62A1.85,1.85,0,0,1,293.64,481.13Z"/><path class="cls-62" d="M188.81,478.36c-1.27,0-2.54.09-3.8.08a2.08,2.08,0,0,1-1.87-.69.36.36,0,0,1-.12-.42c.06-.12.11-.19.16-.19a.29.29,0,0,0,0-.35,9.36,9.36,0,0,1,5.32.27,1,1,0,0,1,.58.86Z"/><path class="cls-63" d="M303.18,481.66a4.38,4.38,0,0,1,0-.5,1.25,1.25,0,0,1,1.87-.13c.89.05,1.79.11,2.68.13a2.55,2.55,0,0,1,1.89.48,9.5,9.5,0,0,1-3.56.29Z"/><path class="cls-64" d="M307.54,442.58l.73-1c.47,1.13,1.8,1.75,1.86,3.13-.19.48-.41.94-1.06.88C308,444.91,306.47,444.39,307.54,442.58Z"/><path class="cls-65" d="M219.64,478.21a6,6,0,0,1-3.7,1.43,1.38,1.38,0,0,1-.22-.93c.59-1.24,1.73-1.4,2.91-1.47A1.32,1.32,0,0,1,219.64,478.21Z"/><path class="cls-66" d="M268.25,448.91c-.19.74,0,1.58-.59,2.21a21.41,21.41,0,0,1-.18-5.71l.64,0A2.42,2.42,0,0,1,268.25,448.91Z"/><path class="cls-67" d="M199.67,479.6c-2,0-4.07.34-6-.57a2.75,2.75,0,0,1,2.15-1,6.56,6.56,0,0,1,3.55.51A.77.77,0,0,1,199.67,479.6Z"/><path class="cls-68" d="M224.64,474.73l.83.8a6.88,6.88,0,0,1-3.06,1.26c-.42-.27-.87-.52-.8-1.13A2.25,2.25,0,0,1,224.64,474.73Z"/><path class="cls-69" d="M239,469.18a3.22,3.22,0,0,1-1.94,1.29,1,1,0,0,1-1.06,0c0-2.05,1.23-2.51,3-2.34A.84.84,0,0,1,239,469.18Z"/><path class="cls-70" d="M288.89,478.94a5,5,0,0,1-3.06-1.32,2.55,2.55,0,0,1,1-1A2.2,2.2,0,0,1,289.2,478,1.23,1.23,0,0,1,288.89,478.94Z"/><path class="cls-71" d="M321.74,480.47c-1.41.78-2.95.61-4.47.56a.88.88,0,0,1,.21-.91,3,3,0,0,1,1.45-.49,4.13,4.13,0,0,1,2.49.43Z"/><path class="cls-72" d="M203.46,439.8l-1-.05.06-2.48a1.15,1.15,0,0,1,.7-1.11l.28.14a6.15,6.15,0,0,1,.7,2.55A.85.85,0,0,1,203.46,439.8Z"/><path class="cls-73" d="M193.33,478.94c-1.53,0-3.1.29-4.52-.58l.14-.26a3.89,3.89,0,0,1,3.16-.59,2.85,2.85,0,0,1,1,.44A.81.81,0,0,1,193.33,478.94Z"/><path class="cls-74" d="M281.73,476c-.79-.32-1.72-.4-2.26-1.2a.77.77,0,0,1,0-.92A2.53,2.53,0,0,1,282.6,475C282.65,475.58,282.25,475.85,281.73,476Z"/><path class="cls-75" d="M219.64,478.21l-.74-.57a1.72,1.72,0,0,1,2-1.32,1.65,1.65,0,0,1,.88.58,1.55,1.55,0,0,1-1.14.67h0Z"/><path class="cls-76" d="M240.89,464.59l1.58.1c0,.47-.09.93-.14,1.39a.89.89,0,0,1-.8.3,3.74,3.74,0,0,1-2.08-.94,1.08,1.08,0,0,1,.12-.89A1.1,1.1,0,0,1,240.89,464.59Z"/><path class="cls-77" d="M241.74,466.12a1.31,1.31,0,0,1,.59,0,2.62,2.62,0,0,1-2,2.23,1.48,1.48,0,0,1-.37-.93C240.21,466.49,240.6,465.77,241.74,466.12Z"/><path class="cls-78" d="M243.24,444.12c-.14-1.27-.59-2.57.5-3.67C243.68,441.69,243.9,443,243.24,444.12Z"/><path class="cls-79" d="M240.32,467.36v.95a2,2,0,0,1-1.37.87l-.06-.92C238.82,467.09,239.51,467.12,240.32,467.36Z"/><path class="cls-80" d="M201.42,479.7l3.92,0a2.53,2.53,0,0,1,0,.55C204,480.31,202.64,480.49,201.42,479.7Z"/><path class="cls-81" d="M233.24,472c-.5.86-1.54.89-2.22,1.47l-.29-.4a1.88,1.88,0,0,1,.05-1,2,2,0,0,1,2.54-1A.68.68,0,0,1,233.24,472Z"/><path class="cls-82" d="M204.66,431.15H204c.07-1.26-.26-2.58.59-3.71.06.53.13,1.06.19,1.58A1.53,1.53,0,0,1,204.66,431.15Z"/><path class="cls-83" d="M271.1,471.07l-1-.69a.8.8,0,0,0-.55-.48,2.32,2.32,0,0,1,0-.37.55.55,0,0,1,.16-.83c1.26-.34,1.95.29,2.36,1.4a1.87,1.87,0,0,1-.17,1A.53.53,0,0,1,271.1,471.07Z"/><path class="cls-84" d="M317.27,480.5a1.19,1.19,0,0,1,0,.53,6.6,6.6,0,0,1-2.9.1,1,1,0,0,1,.14-.95,2.52,2.52,0,0,1,.95-.41A1.74,1.74,0,0,1,317.27,480.5Z"/><path class="cls-85" d="M322.94,479.59a2.08,2.08,0,0,1,1.65.75l-2.85.13-.05-.31a.52.52,0,0,1,.1-.72A1,1,0,0,1,322.94,479.59Z"/><path class="cls-86" d="M193.33,478.94l-.23-.75a2.26,2.26,0,0,1,2.7-.3.59.59,0,0,1,.16,1l-2.29.18-.19,0Z"/><path class="cls-87" d="M311.67,447.66l-.76.67a.74.74,0,0,1-.87-.08,1.78,1.78,0,0,1-.08-1.86l.38-.31Z"/><path class="cls-88" d="M233.24,472l0-.72a1.21,1.21,0,0,1,1.41-1,1.47,1.47,0,0,1,.88,1.1Z"/><path class="cls-89" d="M271.7,471c0-.26.06-.53.1-.79,1.41-.43,2.12.15,2.23,1.57a.55.55,0,0,1-.93.08l-.79,0C272.15,471.52,271.67,471.45,271.7,471Z"/><path class="cls-90" d="M281.73,476l.83-.7c.74-.39,1.27-.28,1.46.62l-.85.7Z"/><path class="cls-91" d="M331,470.42c.66.33.61,1,.76,1.57a.65.65,0,0,1-.12.54l-.61,0a1.31,1.31,0,0,1-.56-1.29A1.44,1.44,0,0,1,331,470.42Z"/><path class="cls-82" d="M209.61,425.61c-.65.75-1.49.59-2.32.47A2.72,2.72,0,0,1,209.61,425.61Z"/><path class="cls-92" d="M235.5,471.29l-.88-.86a.79.79,0,0,1,1.06-.2l1.33.24A1.71,1.71,0,0,1,235.5,471.29Z"/><path class="cls-93" d="M291,479.07l-.09.81a1,1,0,0,1-1.2-.23,1.61,1.61,0,0,1-.15-.61.7.7,0,0,1-.21-.59c0-.21.09-.31.14-.31A1.12,1.12,0,0,1,291,479.07Z"/><path class="cls-94" d="M314.62,480.42l-.24.71-.32.15-.35,0-1.27-.76A1.42,1.42,0,0,1,314.62,480.42Z"/><path class="cls-95" d="M277.5,473.91a5.08,5.08,0,0,0-.07-.67c.74-.59,1.28-.3,1.73.38a1.12,1.12,0,0,1-.32.95C278.26,474.62,277.9,474.23,277.5,473.91Z"/><path class="cls-96" d="M293.64,481.13l1.91-.13.35.09.3.74A3.37,3.37,0,0,1,293.64,481.13Z"/><path class="cls-87" d="M309.47,445.57l.66-.82.21,1.33-.18.17a.59.59,0,0,1-.69,0A.62.62,0,0,1,309.47,445.57Z"/><path class="cls-97" d="M231,473.42a1.65,1.65,0,0,1-1.31.67l-.24-.42c.29-.78.81-.93,1.52-.56Z"/><path class="cls-98" d="M269.61,468.87a2.09,2.09,0,0,1,0,.66c-.57-.23-.91-.59-.72-1.26l0,0C269.57,467.85,269.65,468.28,269.61,468.87Z"/><path class="cls-31" d="M193.22,450.4a1.27,1.27,0,0,1-1.44.73A1.5,1.5,0,0,1,193.22,450.4Z"/><path class="cls-2" d="M336.67,83.06a1.48,1.48,0,0,1-1.48-.64A1.32,1.32,0,0,1,336.67,83.06Z"/><path class="cls-99" d="M273.1,471.86l1-.18.43.14c-.23.24-.45.49-.68.74Z"/><path class="cls-85" d="M325.91,480.33c.36-.54.79-.8,1.38-.32A1.35,1.35,0,0,1,325.91,480.33Z"/><path class="cls-97" d="M228.25,474.67a2.5,2.5,0,0,0,.07-.54c.36-.59.8-.57,1.29-.18l.1.14A1.66,1.66,0,0,1,228.25,474.67Z"/><path class="cls-2" d="M319.53,157.81a1.24,1.24,0,0,1-1,.92.71.71,0,0,1-.65-.17,3.85,3.85,0,0,1,.28-.66l-.06.06Z"/><path class="cls-100" d="M289.67,479.65l1.2.24a1.91,1.91,0,0,0,0,.48C290.3,480.36,289.84,480.24,289.67,479.65Z"/><path class="cls-101" d="M216.09,478.76l-.15.88-1.11.12-.22-.15a.68.68,0,0,1,.08-.87A1.27,1.27,0,0,1,216.09,478.76Z"/><path class="cls-102" d="M271.7,471c.21.27.41.55.61.82a1,1,0,0,1-1.21-.76Z"/><path class="cls-80" d="M199.67,479.6a4.7,4.7,0,0,1,0-.53,1.08,1.08,0,0,1,1.57-.08c.05.23.1.47.16.71Z"/><path class="cls-26" d="M341,93.73a1.21,1.21,0,0,1,1.31-.67A1.35,1.35,0,0,1,341,93.73Z"/><path class="cls-103" d="M221.82,476.9l-1-.21c.15-.51.42-.82,1-.62l.64.72-.28.13Z"/><path class="cls-104" d="M286.76,477l-.93.62a.52.52,0,0,1-.44-.14l.62-.7A.47.47,0,0,1,286.76,477Z"/><path class="cls-72" d="M202.42,440.06a1.18,1.18,0,0,1-.66,1.09Z"/><path class="cls-82" d="M206.05,426.35a.83.83,0,0,1-.82.48A.73.73,0,0,1,206.05,426.35Z"/><path class="cls-103" d="M220.69,477.58h0Z"/><path class="cls-105" d="M183.18,477.14c0,.21,0,.41,0,.61a.69.69,0,0,1-.62-.22C182.64,477.23,182.8,477,183.18,477.14Z"/><path class="cls-106" d="M289.56,478.38q0,.33,0,.66l-.33,0-.31-.13c0-.31,0-.63,0-.94A.65.65,0,0,1,289.56,478.38Z"/><polygon class="cls-107" points="197.93 446.47 198.06 446.68 197.82 446.55 197.93 446.47"/><path class="cls-26" d="M342.42,93a.91.91,0,0,1,.86-.58A.85.85,0,0,1,342.42,93Z"/><path class="cls-108" d="M278.84,474.57a4.87,4.87,0,0,0,0-.54c.26-.27.5-.24.72.06,0,.24-.07.49-.1.73A.85.85,0,0,1,278.84,474.57Z"/><path class="cls-102" d="M269.6,469.9a.5.5,0,0,1,.55.48Z"/><path class="cls-100" d="M291.06,480.49a1,1,0,0,1,.91.5A1,1,0,0,1,291.06,480.49Z"/><path class="cls-72" d="M201.78,441.14l-.71.73A.77.77,0,0,1,201.78,441.14Z"/><path class="cls-109" d="M185.24,160a9.22,9.22,0,0,1-1.06-1.84c-1.55-5.21-3-10.44-4.55-15.66-.46-.88.21-1.76,0-2.63.61-6.56-2.08-12.24-4.75-17.93-1.66-3.54-2.72-7.3-4-11a8.87,8.87,0,0,1-.78-2,1.07,1.07,0,0,1,.3-1,1.51,1.51,0,0,1,1.35-1.41c3-.59,6-1.25,9-1.9.66-.14,1.13.26,1.66.49,1.28-.67,2,.34,2.74,1a73.32,73.32,0,0,1,9.52,10.55c1.59,2.15,1.73,4-.69,5.75-2.79,2-3.48,5.24-4.31,8.34,1.06-1.66,1.39-3.66,2.32-5.38s2.21-3.57,4.48-3.62,3.19,1.78,4.28,3.34a3.19,3.19,0,0,1-.43,4.48c-6.39,6.53-7.6,14.71-7.48,23.31a46.37,46.37,0,0,1,3.11-16.28,16.9,16.9,0,0,1,3.7-6c1.79-1.78,3.56-2.31,5.51-.28,2.3,2.71,4.25,5.69,6.66,8.33,2,2.22,1.77,5.05,1.44,7.8-1.7,4.52-4.36,8.69-5.08,13.57a12.42,12.42,0,0,0,0,6.68c.11.51.18,1,.26,1.53a3.62,3.62,0,0,0,.83,1.86,51.41,51.41,0,0,0,3.56,4.37c2.35,2.48,2.29,5.56,1.85,8.63a2.75,2.75,0,0,1-3.25,2.51,24.78,24.78,0,0,0-4.29-.53,5.57,5.57,0,0,1-1.06-.23c-3.11-.86-5-3.23-7-5.51a12.3,12.3,0,0,1-3.15-9.19c.18-2.23-.58-3.5-2.93-4a10.69,10.69,0,0,1-5.45-2.47,20.76,20.76,0,0,1-2.28-2.83A1.22,1.22,0,0,1,185.24,160Z"/><path class="cls-2" d="M212.65,146.58a20.1,20.1,0,0,1-.15-2.44,8.06,8.06,0,0,0-2.75-6.56,26.54,26.54,0,0,1-5-6.68,9.86,9.86,0,0,0-2.2-4c-5-6.47-9.77-13.06-15.35-19a16.31,16.31,0,0,0-4.51-3.38c.16-.16.31-.43.5-.47,2.9-.56,5.8-1.1,8.7-1.65a2.09,2.09,0,0,0,.6,1.6c3,3.17,5.48,6.83,8.85,9.67a11.34,11.34,0,0,1,2.62,3.75,28.4,28.4,0,0,0,3.51,5.31,2.76,2.76,0,0,0,3.38,1.07c4.2-1.39,8.4-.74,12.58.21.21,0,.37.28.56.42-1.83,1-3.49,2.5-5.77,2.45-1.68-1.24-1.86.11-2.27,1.25-1.48,4.2-.73,8.39-.06,12.59C216.47,144.27,215.81,145.4,212.65,146.58Z"/><path class="cls-110" d="M182.69,104.49a4,4,0,0,1,3.76,1.48c4.1,4.71,8.56,9.09,12.1,14.28,1.93,2.81,4.11,5.45,6.2,8.16.65.85.89,1.66,0,2.49-2.6-2-2.64-2-4.7.42a19,19,0,0,0-3.21,5.51,40.38,40.38,0,0,0-2.94,14.23,9.3,9.3,0,0,1-.42,3.85,1.12,1.12,0,0,1-.79.59,1.1,1.1,0,0,1-.78-.58,4,4,0,0,1-.23-1.39,40.72,40.72,0,0,1,3.16-17.74c1.48-3.44,2.67-5,6.4-8.23-.93-2-2.55-3.54-4-5.21-.45-.53-1.13-.32-1.63,0a8,8,0,0,0-3.19,4.15c-.46,1.48-.9,3-1.43,4.41a11.27,11.27,0,0,1-1.09,2.2,1,1,0,0,1-1.27.36,1.14,1.14,0,0,1-.65-1.15,4.46,4.46,0,0,1,.23-1.4c.21-.67.5-1.33.75-2,2.31-6,1.43-5,6.41-9-1.8-3.84-7.56-10.38-13-14.79Z"/><path class="cls-111" d="M170.37,108v.72c-.27.43-.55.44-.86,0a1.43,1.43,0,0,1-.52-1.38Z"/><path class="cls-27" d="M228.2,426.88c.2.27.6.56.58.81-.24,2.49,1.41,3.08,3.34,3.4.88.15,1.87-.07,2.54.76a1.37,1.37,0,0,1-.86,1,2.82,2.82,0,0,1-1,0,15.85,15.85,0,0,0-2.48-.2,3.87,3.87,0,0,1-2.14-.65,4,4,0,0,1,0-5.17Z"/><path class="cls-112" d="M233.91,432.49l.75-.64c2.57.18,5.15-.24,7.71.23l0,.73C239.53,433.79,236.66,434.6,233.91,432.49Z"/><path class="cls-113" d="M207.64,237.8l.54-1.24a2,2,0,0,1,.92-1c4.53-2.28,13.58.44,16,4.85a23.42,23.42,0,0,1,1,22.17c-2.07,4.51-5.92,5.54-10.22,3.06-.54-.42-1-.89-1.59-1.28q-.37-.25-.75-.54l-.73-.47-.39-.17c-.65-.15-1.29-.29-1.77.37a5.71,5.71,0,0,0-.25,1.23c-.07.93-.34,1.81-.5,2.72-.07.64-.1,1.28-.13,1.92a20.9,20.9,0,0,0,.82,8.92c.37,1.13.73,2.25,2.22,2.27a3.11,3.11,0,0,1,1.91.63c.84,2.51-1.29,2.93-2.72,3.8-4.09,2.5-6.07,8.09-4.21,12,1.7,3.58,4.36,4.6,8.17,3.42,2.14-.66,4.15-2.55,6.66-1.07a1.23,1.23,0,0,1-.74,1.75,18.88,18.88,0,0,0-5,1.69c-2.8,1.28-5.46,1.39-8.06-.42-.17-.11-.45-.05-.93-.1a9.42,9.42,0,0,0-.08,3.35c0,1.18.19,2.36.23,3.54s0,2.36,0,3.54c-2,.89-3.93-.44-5.92-.11a33.33,33.33,0,0,1-4.39-1.37c-3-1.09-5-3.52-4.46-6.48,1.39-7.85-1.14-15.18-2.23-22.7-.1-.71-.15-1.41-.21-2.12a10.23,10.23,0,0,1,.34-3.82c.69-1.86,1.57-1.28,2.44-.11,1.1,9.12,5.19,17.87,3.36,27.45,5.39-4.56,5.37-4.56,6.61-10.76.4-2,.77-4.09,2.07-5.64,2.29-2.71,2.21-5.52,1.3-8.68-.85-3-1.47-6-.78-9.16a13.94,13.94,0,0,0,.43-4.22c.14-4.11,2.59-5.91,6.58-4.83a28.42,28.42,0,0,1,4.48,2.16c2.64,1.22,4.4.7,5.4-2,2.25-6.18,2.28-12.38-1.37-18.08-2.32-3.62-6.27-3.27-10-3.32C210.26,238.86,208.54,239.84,207.64,237.8Z"/><path class="cls-114" d="M221.9,301.11l.69-1.18a1.65,1.65,0,0,1,.93-1.2c.89-.2,1.78-.37,2.28.71a28.77,28.77,0,0,1,2.48,5.48c1.79,5.15,3.25,10.38,4.54,15.67a6.74,6.74,0,0,1,.3,2.44,2.94,2.94,0,0,1-2.24,2.46,2.59,2.59,0,0,1-2.76-1.19,6.07,6.07,0,0,1-.74-1.59,147.36,147.36,0,0,1-5.48-20.54A5.36,5.36,0,0,1,221.9,301.11Z"/><path class="cls-115" d="M225.8,299.44a4.78,4.78,0,0,0-2.65,0c2.26-5.34,11.32-7.81,15.53-4.19a21.87,21.87,0,0,0,3.95,3c2.11,1.74,5.45,2,6.41,5.15l-.88.78a33.52,33.52,0,0,1-11.33-7.06c-1.86-1.84-3.77-1.95-6.18-.64C229,297.39,227.41,298.45,225.8,299.44Z"/><path class="cls-116" d="M203.07,312.11c.54-.17,1-.55,1.65-.35,1.08.35,2.18.64,3.27.95a30.09,30.09,0,0,0,1.63,3.08,9.31,9.31,0,0,1,1.46,7.65c-.58.8-.51,2.09-1.79,2.36a1,1,0,0,1-.75-.6c.58-4.51-.64-8.27-4.48-11A2.07,2.07,0,0,1,203.07,312.11Z"/><path class="cls-116" d="M204.77,330.13c-.42-.78-1-1-1.72-.41a6,6,0,0,1-4.92,1.52c2.57-3.73,6.49-5,10.65-5.79l.17.17c.27,1.68-1.38,1.94-2.12,2.88Z"/><path class="cls-7" d="M206.83,328.5c.35-1.22,1.65-1.75,2.12-2.88,1.1-.34,1.21-1.65,2.13-2.18C211.26,326.47,209.26,327.66,206.83,328.5Z"/><path class="cls-117" d="M288.88,427l.69,1.2c-.14.2-.29.49-.48.5-4.73.22-5.34,3.23-5,7.08.12,1.34.21,2.86-1.35,4.07-1.64-1.75-1.41-5.64-5.2-5-.75-.27-1.63-.41-1.52-1.53.82-.09,1.65-.11,2.45-.27,1.88-.39,3.5-.86,3.48-3.45,0-1.52.95-2,2.76-2A10.45,10.45,0,0,0,288.88,427Z"/><path class="cls-118" d="M276,433.34c.36.63,1,.7,1.62.82-2.31,2.53-4.8,2-7.36.46,0-.19,0-.37,0-.55l1.47-.1a3.15,3.15,0,0,1,2.7,0Z"/><path class="cls-119" d="M274.48,433.93l-2.7,0C273,433.09,273.23,433.09,274.48,433.93Z"/><path class="cls-120" d="M215.16,264.24c.5.31,1,.64,1.5.93,3.2,1.79,6.86.83,8.4-2.45a23.53,23.53,0,0,0,2.19-13.5,24.18,24.18,0,0,0-3.42-9.28,6.92,6.92,0,0,0-4.8-3.36c-2.22-.4-4.47-.57-6.71-.81a7.81,7.81,0,0,0-4.14.79,1.86,1.86,0,0,1-1.16-1.22c-.73-2.45-1.47-4.9-2.14-7.36a3.48,3.48,0,0,1,.21-1.35c-.37-1.47.22-2.78.72-4.1A53.13,53.13,0,0,0,208,191.26c-.42-1.82-1.14-3.65,0-5.49,4.27-1.24,6.5.16,7,4.38a13.15,13.15,0,0,0,.25,2.07c.26.88.42,1.79.72,2.67a8.81,8.81,0,0,1,.3,1.53c-.09,3.39,2.17,5.29,4.53,7.1,1.48,1.14,3.23,1.95,4.39,3.49a10.74,10.74,0,0,1,1.71,3.33,59.67,59.67,0,0,0,2,14.75c5,16.8,22.93,25.09,39.88,15.82,14.77-8.07,22.67-20.83,22.82-38,0-4.07-.09-8.07-1.51-11.94a3.8,3.8,0,0,1,.12-3.44,37.5,37.5,0,0,0,7.73-5.43c3.07-3.09,4.68-7,6-11a3.25,3.25,0,0,1,2-2.2c2.14,3.17.89,6.6.83,10-.28,16.52.16,32.94,7.89,48.15,4.13,8.13,10.17,13.6,19.74,14.18a3.44,3.44,0,0,1,2.85,1.18c1,3.49.7,7,.3,10.54-.25,2.11-.4,4.21-.48,6.33-.93,5.13-.94,10.36-1.89,15.5-.6,3.22-2.14,4.19-5,4.14-3.44-.05-6.89.05-10.33,0-9.91-.23-19.56,1.82-29.28,3.22-1.76.25-3.57.15-5.27.81-10.19.63-20.38,1.13-30.59,1-2.88.84-5.82.61-8.75.58a29.4,29.4,0,0,1-9.82-2.7,20.52,20.52,0,0,0-15.31-2,3,3,0,0,1-1.1-.24c-1.8-1.23-1.57-3.35-2.11-5.1-1-3.27-2.52-6.38-3.07-9.8C214.47,264.2,214.73,264.06,215.16,264.24Z"/><path class="cls-2" d="M207.64,237.8c.5.29,1,.72,1.62.51,3.19-1,6.34-.41,9.46.33a5.85,5.85,0,0,1,3.83,3c3.64,6.29,3.81,12.8,1.34,19.5-1,2.77-3.68,4.36-6.85,2.21-.88-.6-1.81-1.14-2.71-1.7a5.53,5.53,0,0,0-5.44-.31c-.89.37-1.39.8-1.4,1.76,0,1.31,0,2.62-.05,3.92a3.12,3.12,0,0,1-.61,2.34c-1.43-2-1.14-4.1-.31-6.36A133.82,133.82,0,0,1,196,274.62c-.78.8-1.25,2.13-2.77,1.75l-.52-.45c-.17-.15-.32-.38-.51-.43s-.42.25-.42.39c-.06,1.37-.06,2.73-.08,4.1-.61,1.12-1.12,2.36-2.72,2.29-1.17,4.14-.19,8.36-.51,12.52-.14,1.74.38,3.59-.85,5.16-2.3-.31-1.6-2.2-1.76-3.54-.41-3.34.63-6.77-.67-10-1.51-.36-2.44.63-3.33,1.51a16.24,16.24,0,0,1-5.59,3.45c-1.15.66-.07,1.45-.11,2.17a4.81,4.81,0,0,1-.5,3.41c-1.73.67-1.46-.92-1.87-1.7-.26-.5-.33-1.21-1.1-1.09s-.86.71-1.09,1.25c-.71,1.7.29,3.81-1.27,5.3a2.49,2.49,0,0,1-.62-1.94c0-1.52-.06-3-.09-4.57a2.32,2.32,0,0,0-.77-2.18,13.6,13.6,0,0,1-4.08-6.55,25.16,25.16,0,0,1-.73-5.62c-.19-4.63-1-9.19-1.33-13.79-.41-4.95-1.14-9.89-.93-14.9a80.53,80.53,0,0,0-1.26-15.57c0-.11,0-.23-.05-.35-.24-3.9-.66-7.8-.71-11.71q-.19-15-.09-29.95c0-2.41-.43-4.46-2.27-6.1a6.61,6.61,0,0,1-1.85-3c-1.64-5.17-2.28-10.4-.88-15.75a18,18,0,0,1,4.2-7.35,3.7,3.7,0,0,1,2.69-1.55,1.76,1.76,0,0,0,1.32-.36c1.57-1.53,3.37-1.5,5.28-.79a1,1,0,0,0,.68-.1c.08,0,.08-.37,0-.52-.62-1.33-.63-1.38.51-1.49,1.39-.14,2.75-.77,4.19-.14.44.2.88-.22,1.19-.6,1.12,3.59,2.26,7.17,3.34,10.77q2.53,8.48,5,17c.56,1.92,1,3.86,1.57,5.79-3.64.29-5.34,2.19-5.24,5.9a12.31,12.31,0,0,1-.57,3.5,10.4,10.4,0,0,0,.15,6c.56,2.74-.2,5.42-.51,8.1a100.81,100.81,0,0,0-.62,11.65,10.1,10.1,0,0,0-.78,4.86c0,8.18-.07,16.36,0,24.54,0,4-.29,8-.6,12a2.11,2.11,0,0,1-.42,1.67c-3.58,3.39-4.24,8.06-5.77,13.12a7.11,7.11,0,0,0,1.63-3.1c.3-.9.49-1.83.75-2.74,1-3.58,2.77-6.21,6.55-7.73,5.46-2.21,9.08-7.08,13.62-10.64.77-.6.74-1.7,1-2.61a19.27,19.27,0,0,1,7.83-11,7.41,7.41,0,0,0,1,.37c3.11.69,5.06-.88,5-4.08C207.74,238.73,207.67,238.27,207.64,237.8Z"/><path class="cls-2" d="M208.21,186.12a10.1,10.1,0,0,0,.49,3.49c2.83,12,2.23,23.71-2.64,35.12-.28.65-.64,1.26-1,1.9a2.06,2.06,0,0,1-1.13-1.28q-4.75-16.35-9.55-32.69c-2.28-7.71-4.64-15.4-6.93-23.11-.57-1.92-1.39-3.79-1.36-5.84a.8.8,0,0,1,1-.12,11.74,11.74,0,0,0,5.38,2.56c2.29.48,3.11,1.85,3.06,4a13.1,13.1,0,0,0,3.37,9.08,43.28,43.28,0,0,0,5.13,5c.3.09.59.2.89.32a3.78,3.78,0,0,0,1.83.5C207.4,185.22,208.17,185.17,208.21,186.12Z"/><path class="cls-2" d="M184.69,190.05a64.61,64.61,0,0,1,2.68,8c1.71,5.52,3.3,11.07,4.91,16.62q3,10.36,6,20.73c-1.52,3.09-4.67,3.26-7.43,3.91a40.39,40.39,0,0,1-5.19.84c-2.2-1.95-1.06-4.66-1.45-7-1.16-6.81-2.33-13.63-3.36-20.46-.05-1.38-.67-2.72-.35-4.14.43-4,1-8-.48-11.86a3.89,3.89,0,0,1-.35-1.16C179.77,190.38,180.25,189.85,184.69,190.05Z"/><path class="cls-120" d="M185.89,239.81c.17-.69.31-1.48,1.28-1.34,4.14.55,7.67-1,11.07-3.08a27.34,27.34,0,0,1,2,6.81c-.33,1.73-1.7,2.83-2.68,4.13a22.64,22.64,0,0,0-3.95,7.51c-.79,2.78-2.48,4.85-5.72,5-2.34-1.84-1.5-4.65-1.66-6.91C185.94,247.91,184.38,243.87,185.89,239.81Z"/><path class="cls-121" d="M188.92,258.59a5.21,5.21,0,0,1,.66-.8c3.21-2.52,2.74-2,3.6-5.68a13,13,0,0,1,2.81-5.23c1.34-1.63,2.83-3.13,4.25-4.69l1.48.71a2.18,2.18,0,0,1-.95,1.81,18.73,18.73,0,0,0-5.41,7.36,7.18,7.18,0,0,0-.72,2.73,4.1,4.1,0,0,1-2.14,3.47,44.66,44.66,0,0,0-4.93,4.08c-3,2.5-5.68,5.4-9.67,6.42a4.45,4.45,0,0,0-2.85,2.52,28,28,0,0,0-1.89,5.34c-.5,1.93-.84,4-2.4,5.45-.26.25-.62.46-.95.2a3.16,3.16,0,0,1-.6-.82.5.5,0,0,1,0-.34c1-3.28,2-6.58,3.09-9.82a9.06,9.06,0,0,1,3.68-4.24,9.27,9.27,0,0,1,1.42-1.31c3.35-1.71,6.25-4.1,9.35-6.2C187.43,259.14,188.29,259.12,188.92,258.59Z"/><path class="cls-122" d="M171.05,110.19a29.88,29.88,0,0,1,1.35,2.87,114.13,114.13,0,0,0,6.24,14.67c2.06,4,2,8.19,1.56,12.46-.26.49-.48,1.07-1.22.62a18.71,18.71,0,0,1-1.13-5.48c-.28-2.73-1.37-5.25-2-7.88a11.74,11.74,0,0,1-.59-1.3,3.5,3.5,0,0,1-.22-.86c-.28-.8-.57-1.6-.84-2.41-.15-.37-.27-.75-.42-1.12a2.5,2.5,0,0,1-.15-.76,1.6,1.6,0,0,0-.46-1,37.16,37.16,0,0,1-2.86-9C170,110.2,170.39,110.06,171.05,110.19Z"/><path class="cls-123" d="M184.69,190.05a7,7,0,0,1-1,.43c-3.18,1-3.18.94-3.35,4.23,0,.35,0,.71,0,1.06-.55.64.08,1.3,0,1.95-.24,1.22-.3,2.54-1.65,3.19-1.15-.58-.82-1.46-.46-2.35.28-2.69.55-5.38.86-8.07,0-.31.3-.81.52-.84,1.68-.26,3.33-1.39,5.09-.31A1.89,1.89,0,0,1,184.69,190.05Z"/><path class="cls-124" d="M176,126.56c1.31,2.78,2.52,5.57,1.87,8.77-.26-.24-.66-.44-.74-.73-.87-3.13-2.08-6.18-2.59-9.42a.56.56,0,0,1,.9,0l.12.14-.08.16A1.86,1.86,0,0,0,176,126.56Z"/><path class="cls-125" d="M175.42,125.15l-.9,0a8.8,8.8,0,0,1-1.23-4.21c.13-.31.29-.32.46,0a1,1,0,0,1,.23.59,2.71,2.71,0,0,1,.48.8C174.75,123.28,175.43,124.1,175.42,125.15Z"/><path class="cls-126" d="M186.78,163.73a4.71,4.71,0,0,0-.65,0c-.27-.47-.54-.94-.82-1.41a1.21,1.21,0,0,1,.16-1.68,7.8,7.8,0,0,1,2.06,2.33A.92.92,0,0,1,186.78,163.73Z"/><path class="cls-127" d="M179,140.81l1.22-.62a3.06,3.06,0,0,1-.57,2.27A1.67,1.67,0,0,1,179,140.81Z"/><path class="cls-128" d="M171.05,110.19l-.76.8a3.32,3.32,0,0,1-.78-2.23l.86,0C170.68,109.17,171.09,109.57,171.05,110.19Z"/><path class="cls-129" d="M185.47,160.62c-.05.56-.11,1.12-.16,1.68-.7-.76-.95-1.53-.07-2.34A1,1,0,0,1,185.47,160.62Z"/><path class="cls-130" d="M173.75,120.94a3.55,3.55,0,0,1-.46,0c0-.33-.09-.66-.14-1Z"/><path class="cls-2" d="M245.15,283.46c1.83,0,3.65,0,5.48,0a6.78,6.78,0,0,0,3.33-.55c2.48,1.08,5.1.36,7.64.57,4.87-.11,9.75.26,14.6-.28,2-.07,4,.22,6-.29a14.13,14.13,0,0,1,2.35-.15,30.45,30.45,0,0,0,4-.65c11.57-1.48,23.05-3.82,34.81-3.25,2.6.13,5.22-.06,7.71.87a3,3,0,0,0,3.7-1.17,2.33,2.33,0,0,1,1-.55c10,.42,13.2-6.28,12.38-15.08-1.34-14.5-4.31-28.84-6-43.33a77.22,77.22,0,0,0-2.26-9.71c-.14-.55,0-1.58-1.15-1.28-.74,1.31-.07,3-1.14,4.19-2.11.41-1.23-1.41-1.32-2.09-.63-4.67-3.47-8-6.44-11.77a3.31,3.31,0,0,0,1.2,3.22c5.82,5,5.79,12,6.57,18.77a24.2,24.2,0,0,1,.07,2.83c0,4.73,0,9.46,0,14.18,0,1.39.21,2.87-1,4-8,.72-14.3-2.39-19.27-8.55a43.42,43.42,0,0,1-7.1-13.45A84.22,84.22,0,0,1,306,197.65a163.86,163.86,0,0,1-.15-23.45,16.89,16.89,0,0,0-.06-5.31,33.07,33.07,0,0,0,5.25-3.5,52.64,52.64,0,0,1,7.76-5.3c3.44-1.6,6.83-3.34,10.33-4.79a31.61,31.61,0,0,1,15-2.23,6.88,6.88,0,0,1,4.18,1.8c.95.88,2.05,1.61,3.09,2.4a11.59,11.59,0,0,1,4.6,9.21,23.48,23.48,0,0,1-1.44,9.43,41.68,41.68,0,0,0-2.2,13.61,74.07,74.07,0,0,0,1.78,16.93,15.67,15.67,0,0,1,.35,2.46A58.31,58.31,0,0,0,356,219.44a66.51,66.51,0,0,1,1.48,9.82,55.89,55.89,0,0,0,1.05,6.66c.74,4,1.39,7.92,1.79,11.93.29,2.94.91,5.84,1.43,8.75q1.33,7.33,2.75,14.66c.57,2.9,1.1,5.82,1.85,8.68a9.78,9.78,0,0,1-2.66,9.8,29.21,29.21,0,0,1-3.65,3.39,3,3,0,0,0-1.28,2.74c0,1.43,0,2.85,0,4.28a2.77,2.77,0,0,1-.57,2,3.71,3.71,0,0,1-1.1-3.24c.07-2.6-.94-3.36-3.65-3.25-8.28.33-16.55,1.1-24.84,1s-16.82.11-25.21.85c-1.23,0-2.22-.84-3.4-1-3.85-1.33-7.74-1-11.65-.37-7.37,0-14.67,1.1-22,1.36-7.92.28-15.86.87-23.77,1.57a8.48,8.48,0,0,1-4.2-3.09c-1.88-2.31-4.41-2.37-6.75-1.56a23.23,23.23,0,0,0-8.4,5l-.56.51a1,1,0,0,0-1.2-.49c-1.79.62-3.58,1.22-5.33,1.91-3.62,1.4-6.45.49-8.52-2.76a8.46,8.46,0,0,1-.93-7.77,22.14,22.14,0,0,1,2.44-4.68,4.55,4.55,0,0,1,2.44-1.95,16.32,16.32,0,0,0,2.25-1,1.72,1.72,0,0,0,.87-1.79c2,.3,4,.31,5.62-1.32a20,20,0,0,1,15.65,2.42c4.52,2.8,9.66,3.2,16.58,2.66C250.5,284.68,247.32,286.63,245.15,283.46Z"/><path class="cls-131" d="M302.37,297c.56-.21,1.13-.63,1.66-.59,3.81.26,7.5-.92,11.31-.83,5.57.12,11.15,0,16.72,0a25.88,25.88,0,0,0,7.06-.55,16.65,16.65,0,0,1,4.25-.14c2.13,0,4.27,0,6.4,0a12.24,12.24,0,0,0,4.57-.5,5.46,5.46,0,0,1,2.11-.15c1.1,0,1.53.4,1.57,1.49.06,1.66,0,3.32.05,5,0,.48.05.95.08,1.42A93.82,93.82,0,0,1,356.83,317c-.61,4.1-1,8.23-1.62,12.34-.49,3.29-.59,6.6-.84,9.91-.37,5-1.3,9.87-1.76,14.82-.33,3.54-1,7-1.06,10.62,0,3.2-.38,6.4-.58,9.59a15.71,15.71,0,0,1-1.14,4.1,4.56,4.56,0,0,1-1.77,2.15,17.73,17.73,0,0,1-10.7,3.34,72.05,72.05,0,0,0-10.59,1.27,17,17,0,0,1-6.71-.08,30.75,30.75,0,0,0-5.25-.93c-3.22-.18-5.26-1.93-6.79-4.53-.54-.92-.93-1.92-1.48-2.84a7.14,7.14,0,0,0-4.62-3.65c-2.78-.62-5.55-1.25-8.34-1.81-1.39-.28-2.81-.41-4.22-.62a18.74,18.74,0,0,0-6.71.52c-1.73.37-3.55.45-5.24,1-3,.88-5-.67-7.14-2.24a2.35,2.35,0,0,1-.62-2.63c.39-1.49.93-2.93,1.41-4.4,2.08-1.44,4.53-1,6.82-1.24,4.06-.36,6.87-3.13,6.66-7.17-.6-11.11-.13-22.23-.23-33.35,0-5.31.57-10.64.77-16,.25-6.35,5.6-9.94,13.23-9.38C299.58,296.48,301.15,296.17,302.37,297Z"/><path class="cls-131" d="M242.5,299.11c.1-.62.35-1.16,1-1.26a15.15,15.15,0,0,1,1.78-.08,33.76,33.76,0,0,0,6.71-.54c1.93-.43,4-.14,6-.17a15.31,15.31,0,0,0,4.94-.5,10.14,10.14,0,0,1,2.83-.2c3.66-.15,7.35.37,11-.67a10.22,10.22,0,0,1,2.48-.06,21.53,21.53,0,0,0,5.29-.51c1.39-.36,3.07-.79,4.33.63.17,1.75-1.1,2.83-2,4a10.41,10.41,0,0,0-2.27,8.31c.82,5.34-.69,10.61-.52,16,.24,7.67.59,15.36.07,23-.2,2.89-.3,3.08-2.43,3.34a9.81,9.81,0,0,0-6.34-3.51,56.32,56.32,0,0,1-8.31-1.75,11.74,11.74,0,0,0-3.52-.3,24.35,24.35,0,0,1-9.24-2.23,6.07,6.07,0,0,1-4-6.08c.05-7.22,0-14.44,0-21.66a17.88,17.88,0,0,1,.41-3.16,22.43,22.43,0,0,0,.22-5.3c-.06-1.33-.38-2.61-1.94-3C247.1,301.6,244.69,300.51,242.5,299.11Z"/><path class="cls-132" d="M281.75,350.43c.63,0,1.22-.13,1.28-.88.08-.94.05-1.89.09-2.84.11-2.59-.07-5.2.53-7.77a5.72,5.72,0,0,0,0-2.47,39.73,39.73,0,0,1-.55-9.55c.07-4.48-.19-9,.57-13.46a14.37,14.37,0,0,0-.17-5.65c-.66-2.73.17-5.11,1.61-7.4a41.53,41.53,0,0,1,3.8-4.66c3.76-1.92,7.53-1.15,11.31-.07.1,1.38-.7,1-1.44.73l-3.91,0a6.68,6.68,0,0,0-5.1,2.11c-.74.77-1.46,1.55-2.15,2.36a6.5,6.5,0,0,0-1.71,4.89c.07,1.06,0,2.13,0,3.19,0,2.84.18,5.68-.5,8.48a8.88,8.88,0,0,0-.11,2.13c0,5.79-.51,11.6.41,17.37a3.43,3.43,0,0,1,0,1.06c-.74,4.94-.5,9.91-.47,14.88a15.32,15.32,0,0,1-.43,4.56,5.93,5.93,0,0,1-5.33,4.51c-2.81.37-5.63.66-8.45,1a3.32,3.32,0,0,1,3.24-1.64c1.29,0,2.58,0,3.86,0,2.9-.11,5.92-3.56,5.69-6.44a3.62,3.62,0,0,0-.6-1.62C282.71,352.29,282.25,351.35,281.75,350.43Z"/><path class="cls-133" d="M318.12,159.41c-.11,0-.21.07-.32.09-.29,0-.77.17-.84.06-.29-.48,0-.78.49-.89a.37.37,0,0,1,.61-.06,1,1,0,0,1,.42.12Z"/><path class="cls-131" d="M170.33,300.68c0-1.4.13-2.81,0-4.2a4.08,4.08,0,0,1,1.75-3.61,1.54,1.54,0,0,1,2.45.88,10.16,10.16,0,0,1,.1,1.75,2.18,2.18,0,0,0,.59,1.59c2.29,3,2.15,6.69,2.78,10.08,1.27,6.9,1.8,13.93,2.47,20.92-.88-9.61-1.76-19.23-4-28.65-1-4.39-.52-7.94,3.79-10.36,1.74-1,3-2.69,5-3.37a2.56,2.56,0,0,1,.39-.58,1,1,0,0,1,.58-.34.62.62,0,0,1,.45.42c0,2.36.05,4.72.07,7.09,0,2,0,4,0,6a2.23,2.23,0,0,0,.6,1.61c1.19,1,.78,2.41.79,3.67.05,4.39,0,8.78,0,13.18,0-10.34,0-20.68,0-31,0-1.26-.39-2.64.74-3.7L191.7,280A111.8,111.8,0,0,0,194,292.17a25.41,25.41,0,0,1,.3,10.56,9.9,9.9,0,0,0-.17,2.82c.32,2.6,1.55,4.5,4.28,4.95,1.68.27,3.07,1.25,4.68,1.61.78.71,1.54,1.44,2.36,2.1,3.77,3,4.82,6.54,3.35,11.24-3.44,2.14-7.45,3.22-10.65,5.79-3.59-.25-6.35,1.47-8.84,3.77-2,1.9-2.13,3.7-.35,5.89a7.93,7.93,0,0,0,2.45,2c2.29,1.23,4.49,2.61,6.83,3.74,3.7,1.79,5.4,5.1,6.86,8.63a4.29,4.29,0,0,1-.07,2.43c-.28,1.57-1.51,2.66-1.9,4.15-.76.56-1.5,1.14-2.29,1.64a2.05,2.05,0,0,1-1.32.44c-2.47-.59-5.1-.38-7.39-2a18.68,18.68,0,0,1-6.42-7.78,18.12,18.12,0,0,0-2.36-4.32c-.63-2.36-1.82-4.23-4.27-5l-.08,0a3.32,3.32,0,0,1-.7-.7c-1-.76-2.06-1.56-3.14-2.27a3.71,3.71,0,0,1-1.92-3.52c.06-1.06-.06-2.13,0-3.18.17-3.45-.56-6.8-1-10.17-.65-4.54-1.58-9-1.9-13.62C170.3,307.79,170.32,304.23,170.33,300.68Z"/><path class="cls-2" d="M218.1,126.55c.42-.15,1-.16,1.24-.45a5.32,5.32,0,0,1,4.65-1.7c2.18.06,4.06,1.21,6.11,1.73a23.68,23.68,0,0,1,9.59,5.12,44.44,44.44,0,0,0,4.65,3.25c1.78,1.14,3,.87,4.18-.94,1-1.48,1.53-3.24,3.22-4.14a67.8,67.8,0,0,1,10-4.95c1.7-.49,3.39-1,5.1-1.46,3.72-1,7.52-.79,11.3-.66,1,0,2.07.49,3.12.57,2.49.21,3.59,1.9,3.85,4,.45,3.63,1.1,7.25.84,10.94a8.74,8.74,0,0,1-1.22,4.39,4.49,4.49,0,0,0-.57,4.36,10.15,10.15,0,0,1,.35,3.51c0,4,0,8.06,0,12.08-.39.42-.26,1-.61,1.47l-.08.73c.31,1.29,1.22,2.7-.7,3.56-.77.89-1.49,1.84-2.33,2.66a3.73,3.73,0,0,0-1.22,3.19,18.38,18.38,0,0,0,.18,2.11,19.8,19.8,0,0,1,0,8.43,12.14,12.14,0,0,0-.13,3.19,6.43,6.43,0,0,1-1.25,4c-1.36,2.06-3,3.94-3.9,6.3-.53,2.21-2.21,3.77-3.74,5.06-4.77,4.05-5.9,9.79-7.81,15.21-1.73,4.49-3.74,8.72-9.18,9.71a32.16,32.16,0,0,1-8.54.22c-4.72-.39-8-3.15-10.76-6.85-3.38-4.58-6.84-9.09-9.51-14.15a8.21,8.21,0,0,0-3-2.47c-3.56-2.09-6.09-4.9-6.29-9.28a45.74,45.74,0,0,1-1-14.33,7.89,7.89,0,0,0-2.79-7.22,18,18,0,0,1-3.53-4.8c-.08-.37-.15-.75-.21-1.12s-.22-.73-.31-1.1a12.22,12.22,0,0,1-.3-3.95c1.15-6.37,3-12.44,7.55-17.32,1.44-1.53,1.08-3.28.73-5a21,21,0,0,1,.17-10.9C216.35,128.3,216.4,126.79,218.1,126.55Z"/><path class="cls-109" d="M339.49,93.08c-2.08.88-4.18,1.72-5.07,4.07-1.65,3.74-4.24,7-5.63,10.85a7.08,7.08,0,0,0-.76,1.17c-2.11,5.22-4.69,10.25-6.5,15.6a8.91,8.91,0,0,1-.74,2c-2.09,3.27-2.16,6.87-1.89,10.54a37,37,0,0,0-.63,7.79,30,30,0,0,1-1.55,10.15,11.62,11.62,0,0,1-4.74,6.47c-2.78,1.8-5.32,4-8.39,5.33a2.88,2.88,0,0,0-1.76,2.47,21.32,21.32,0,0,1-2.95,7.57c-2.34,4-6.12,6.19-10.16,8a8.37,8.37,0,0,1-4.22.42c-1.81-.18-2.56-.9-2.63-2.73-.1-3-.07-5.93-.12-8.9a2.9,2.9,0,0,1,.78-1.92,4.7,4.7,0,0,0,1.41-2.42c.5-1.22.22-2.72,1.32-3.72a.37.37,0,0,0,.1-.52c.8-2.63-.22-5.4.6-8,.06-1,.13-2,.2-2.94.53-4.3,0-8.68,1.75-12.9a27.33,27.33,0,0,1,5.7-8.86c.85-.64,1.43-1.57,2.28-2.21,2.72-1.12,3.67,1,4.6,2.72,2.9,5.14,4.77,10.6,4.27,16.65-.1,1.3,0,2.61,0,3.92,1.26-9-.07-14.86-5.07-22.33-2-3,.35-8.41,4-9.07,1.31-.23,1.91.69,2.62,1.48a28.67,28.67,0,0,1,3.37,4.59c1,1.6,1.6,3.37,2.41,5.06a21.45,21.45,0,0,0-5.68-9.72c-2-1.93-2-3.9-.26-6,4.35-5.18,8.77-10.29,13.21-15.39,1.25-1.43,2.9-2.54,3.89-4.15,3.05-5,7.79-7.45,13.06-9.23,2.54.24,4.44,1,3.14,4.12Z"/><path class="cls-2" d="M290.1,187.54c.52,1.94,1.13,3.87,1.55,5.83a42.49,42.49,0,0,1-1.43,23.85c-3.88,10.67-10.59,19-20.7,24.43a31.18,31.18,0,0,1-13.58,3.91c-11.54.45-20.18-4.49-25.71-14.61a35.51,35.51,0,0,1-4-20.67,45.27,45.27,0,0,1,7.05,9.32c5.25,8.55,11.48,9.61,21.53,7.6,5-.9,6.15-5.17,7.89-8.94,1.88-6.92,5.05-13.08,10.42-18a6,6,0,0,1,2.25-1.62c1.32-.74,1.73-2.2,2.57-3.31a10,10,0,0,1,2.29-2.66,3.23,3.23,0,0,0,1.68-2.49,1.77,1.77,0,0,1,2-1.58A13.66,13.66,0,0,0,290.1,187.54Z"/><path class="cls-134" d="M275.36,198.66a34.11,34.11,0,0,1-5.71,6.74,11.45,11.45,0,0,0-3.07,4.65c-1,2.89-2.28,5.69-3.44,8.52-.66.16-1,0-.74-.75.54-3.52,2.11-6.73,3.12-10.11a2.62,2.62,0,0,1,.76-1.18c2.77-2.42,4.72-5.59,7.38-8.1.26-.24.57-.42.85-.64Z"/><path class="cls-135" d="M285.26,165.8a5.87,5.87,0,0,1-1.32,3.72c-.1-.6-.16-1.24-.79-1.58.88-1.06.31-2.4.7-3.56Z"/><path class="cls-120" d="M318.06,158.61h-.31l-.3.07c.06-.4.09-.82.66-.77C318.1,158.14,318.08,158.37,318.06,158.61Z"/><path class="cls-2" d="M294.46,132.82a27.6,27.6,0,0,0-7.71,17c-.14,1.5.06,3.06-.59,4.5-.06-3.29-.12-6.58-.15-9.87a2.7,2.7,0,0,1,.33-1.35c1.16-1.92,1.16-4,1.16-6.16,0-3.07,0-6.13-.06-9.19,0-1,.26-1.34,1.37-1.43,1.28-.1,1.33-.5.73-1.87a2.59,2.59,0,0,1,.67-1.61l1.48-1.53c5.05-5.31,10.32-10.43,15.08-16,3.86-4.5,8.29-8.41,12.22-12.83a57.65,57.65,0,0,1,6.93-6,14.78,14.78,0,0,1,5.75-2.69,8,8,0,0,1,5,1.1,6.2,6.2,0,0,0,2.59,1,4.37,4.37,0,0,1,2.9,1.77c1.53,1.8,1.25,3.37-.83,4.52-.61.34-1.25.61-1.88.91,0-2.53-.56-3.17-3.19-3.55-4.62.52-8.45,2.11-11.35,6.19-3.48,4.87-7.91,9-11.81,13.58-5.91,6.91-11.24,14.29-17.31,21C295,130.92,295.21,132.14,294.46,132.82Z"/><path class="cls-135" d="M286,157.25c0,2.69.19,5.4-.6,8,0-2.06-.05-4.11-.08-6.17A2.14,2.14,0,0,1,286,157.25Z"/><path class="cls-135" d="M283.93,163.65a1.58,1.58,0,0,1,.61-1.47A1.46,1.46,0,0,1,283.93,163.65Z"/><path class="cls-34" d="M178.28,344.1a.94.94,0,0,1,.7.7A.87.87,0,0,1,178.28,344.1Z"/><path class="cls-107" d="M233.91,432.49a18.51,18.51,0,0,0,5.66.22,17.9,17.9,0,0,1,2.83.1c0,2.05.36,4.11,0,6.16-2.23,0-4.47-.19-6.7-.31a53.54,53.54,0,0,0-6.67.47,37.9,37.9,0,0,1-3,4.69,32.77,32.77,0,0,1-4.23,4.58c-1.49,1.49-2,3.05-.83,5,1.44,3.82-2.4,4-4,5.77-2.33,4.67-5.72,7.39-11.27,6.18-3.34-.71-6.72-.13-10.07-.38-2.22-.39-4.45-.62-6.69-.83-1.5-.14-3.09-.37-3.9-2-.22-.78-.5-1.55-.65-2.34a3.21,3.21,0,0,1,1.68-3.79q2.87-1.92,5.75-3.82a3.55,3.55,0,0,1,2.09-.15c4.41,1.17,8.91.59,13.38.62a2.83,2.83,0,0,0,.7-.11,1.05,1.05,0,0,0,.92-.92,1,1,0,0,0-.76-1,12,12,0,0,0-2.46-.26c-2.83,0-5.67.06-8.5.11-.6,0-1.19,0-1.47-.64,1-1,2.42-1.63,3.24-2.89l1.43-.66c2.39.29,4.72-.66,7.11-.29a40.82,40.82,0,0,1,5.29.51c.36,0,1-.06.78-.74-.11-.3-.58-.36-.92-.46a15.76,15.76,0,0,0-4.28-.24c-2.22-.12-4.56.49-6.57-1a1.73,1.73,0,0,1,.52-1.52,3.74,3.74,0,0,0,1.15-2.68c.1-.29.2-.57.29-.86a3.46,3.46,0,0,1,.17-2.73c1-1.58.63-3.35.74-5.06,0-.7.06-1.41.1-2.12,1.1-1.62,2.78-2,4.57-2.06,1.52-.07,3-.09,4.55-.12a3.77,3.77,0,0,0,2.34-.54c2.73,0,5.46,0,8.19,0a5.48,5.48,0,0,1,3.09.6,30.1,30.1,0,0,1,.29,9.09c.42-1.58.1-3,1.16-4.06l2,.08c.67.46,1.54.06,2.21.5Z"/><path class="cls-136" d="M200.55,451.28h6.18C204.68,452.09,202.59,451.73,200.55,451.28Z"/><path class="cls-137" d="M270.3,434.62c2.47.16,5,.66,7.36-.46,1.06-.05,2.12-.12,3.18-.16a1.21,1.21,0,0,1,1.39,1.25c.08.94.08,1.88.13,2.83,0,.45,0,.93.58,1.16.64-1.08.25-2.28.27-3.44,0-1.88-.09-3.78,0-5.66,0-1.16.63-1.7,1.8-1.77,1.53-.09,3.07-.12,4.6-.18l7.72.26a3.86,3.86,0,0,0,2.35.51c1.16,0,2.33,0,3.49.17,1.91.24,2.78,1.05,2.75,2.94a44.27,44.27,0,0,0,.81,6.22c-.24,1.53.38,2.89.84,4.29a1.85,1.85,0,0,0,.6,1.49,19.11,19.11,0,0,1,1.34,1.5,2.54,2.54,0,0,0-.14.47c-3,2.13-6.35.66-9.5,1.09a7.1,7.1,0,0,0-2.83.25c1,1.47,2.45.47,3.66.72a15.7,15.7,0,0,0,4.48-.4,8.5,8.5,0,0,1,5.1.48,2.6,2.6,0,0,0,.67.15l4.24,3.63c-.45.79-1.24.37-1.87.52-3-.22-6,.67-9.09.86,4-.2,7.84,1.76,11.89.71l1.29-.22c2.15.57,3.89,1.91,5.75,3,.82,1.2,2.38,1.32,3.36,2.28a7.63,7.63,0,0,1-.93,5.1c-1.23,1.9-3.33,1.66-5.15,2.09-5.14-.05-10.22,1-15.38.92a21.79,21.79,0,0,1-4.84-.33c-3-.8-4.23-3.29-5.53-5.73a8.9,8.9,0,0,0-2.76-1.53c-1.92-.89-2.7-2.29-1.86-4.28s0-3.42-1.19-5.07c-2.11-3.05-5.85-4.94-6.46-9a29.1,29.1,0,0,0-11.9-.33,13.49,13.49,0,0,1-2.11.06c-.43-1.51-.12-3.05-.16-4.59S269.18,434.73,270.3,434.62Z"/><path class="cls-137" d="M268.25,448.91c0-1.15-.09-2.3-.13-3.45.3-3.22.32-3.3,3.53-3.4s6.61-.07,9.91-.09a59.62,59.62,0,0,1,8.87,10c1.21,1.57-.28,3.34-1,4.91a7,7,0,0,0-1.6,2.39c-.5,1.06-1.44,1.82-1.95,2.87-.88,2.59.27,5.39-.83,8-.29.42-.73.74-1.19.54-5-2.2-10.12-4.3-14.27-8.07a2.91,2.91,0,0,1-.65-2.27c0-1.85-.11-3.71-.17-5.57S269.25,450.77,268.25,448.91Z"/><path class="cls-138" d="M288.82,456.82c.49-1.3,1.46-2.53,1.33-3.92s-1.57-2.25-2.41-3.35c-2-2.6-4.44-4.79-6.17-7.58l.81-.69c1.45,1.65,2.51,3.6,4.16,5.12s2.77,3.21,4.22,4.76a2.44,2.44,0,0,1,.52,3.18,15.16,15.16,0,0,0-.88,2.3,1.18,1.18,0,0,0,.54,1.52c1.45.77,2.91,1.49,4.37,2.24a1.76,1.76,0,0,1-.87.6,6,6,0,0,1-5.21-2.16A3.1,3.1,0,0,1,288.82,456.82Z"/><path class="cls-137" d="M241.85,454l-.24,6.31-1.24.84c-3,3.27-7.37,4.17-11,6.37a6.86,6.86,0,0,1-3,.95,1.33,1.33,0,0,1-.81-.69c-.95-2.59.07-5.36-.76-8a20.06,20.06,0,0,0-2-2.87c-.66-1.49-1.93-2.64-2.35-4.27-1.08-1.66-.1-2.9.86-4.14,1.39-1.78,3.25-3.13,4.6-4.95,1.25-3,3.65-3.92,6.67-3.8a68.27,68.27,0,0,1,8.45.57c1.18.11,1.44.4,1.46,1.54,0,1.65,0,3.3,0,4.94,0,.45-.09.89-.13,1.34C241.64,450.1,242.54,452.14,241.85,454Z"/><path class="cls-139" d="M232.57,439.82c-1.16,1-2.85.08-3.93,1s-1.18,2.25-2.26,3c-.09.07-.2.12-.29.18-.44,0-.5-.45-.68-.73.65-1.35,2-2.26,2.39-3.79.12-.47.74-.45,1.21-.41a1.82,1.82,0,0,0,1.53.57C231.21,439.72,231.89,439.78,232.57,439.82Z"/><path class="cls-140" d="M223.48,456.93l1.77,1.77c.91,2.9.64,5.92.28,8.79-.32,2.55-3.24,2.71-5.19,3.68-2.16.91-4.38.32-6.6.3-9.06-.1-18.12,0-27.16-.79-1.68-.11-3.42.23-5-.56l-.45-.45c-1.09-1-2.12-2-2.23-3.54.23-2.33-.22-4.74.82-7a1.19,1.19,0,0,1,.85-.78l2.39-.34c.54,1.48,0,3.44,2.09,4.06a17.25,17.25,0,0,0,5.83,1.29c1.4.16,2.79.37,4.19.56,3.74,1.14,7.65-.28,11.39.77a11.09,11.09,0,0,0,3.54-.21c2.47-.54,4.4-1.7,5.07-4.34.2-.81.36-1.65,1.36-1.88a8.94,8.94,0,0,0,3.82-1.7C221.52,455.32,222.5,455.86,223.48,456.93Z"/><path class="cls-141" d="M180.54,458.37l-.85.78c.06-.23.13-.46.19-.69A1.82,1.82,0,0,1,180.54,458.37Z"/><path class="cls-102" d="M279.57,474.09l-.72-.06a1.68,1.68,0,0,0-1.42-.79c-.55-1.27-1.72-1.31-2.85-1.42l-.19-.14h-.24a4.2,4.2,0,0,0-2.35-1.47,3.59,3.59,0,0,0-2.19-1.34c-.07-.44-.22-.79-.78-.58a2.91,2.91,0,0,1,2.35-1.1c1,.25,2,.64,3,.94s2,.66,3,1c.53.21,1,.47,1.55.72a12.3,12.3,0,0,0,1.52.6,6.86,6.86,0,0,1,.76.27c.48.22.95.46,1.43.69s1,.39,1.45.62a1.15,1.15,0,0,1,.52.57c.2,1.15.58,2.31-.39,3.32a2.11,2.11,0,0,0-1.46-.62A7.62,7.62,0,0,0,279.57,474.09Z"/><path class="cls-142" d="M269.57,462.55l14.93,7.71a.83.83,0,0,1,.24.61c0,.23,0,.34-.09.34a1.77,1.77,0,0,1-1.46.33c-1.82-.8-3.63-1.65-5.42-2.53-2-1-4.06-2-6-3.08-.8-.46-1.47-.76-2.11.18a1.64,1.64,0,0,1-.67-2A9,9,0,0,1,269.57,462.55Z"/><path class="cls-143" d="M269.64,466.11c0-.23-.07-.47-.07-.7,0-.67.2-1.24,1-.85,2.42,1.16,4.82,2.39,7.23,3.59l.3.18c.18.65-.18.9-.73,1-1.2.14-2.13-.85-3.31-.78a4.4,4.4,0,0,0-2.23-.75c-.45-.42-1.12-.56-1.47-1.13Z"/><path class="cls-144" d="M270.36,466.68a2.49,2.49,0,0,1,1.6.74c-.24.4-.53.45-.88.14l-.79-.25C270.31,467.1,270.33,466.89,270.36,466.68Z"/><path class="cls-145" d="M316.08,454.05a2.93,2.93,0,0,1-2,.66l-10,.05a7.43,7.43,0,0,1-1.41-.16,1.1,1.1,0,0,1-.95-.92,1,1,0,0,1,.68-1.13,4.84,4.84,0,0,1,1.69-.51c2.72-.05,5.45,0,8.18,0a3,3,0,0,1,1,.43c-.66.15-1.46-.06-1.89.64-.26.41.64.84,1.9.87Z"/><path class="cls-146" d="M229,431.91c-.26,1.71-.52,3.43-.8,5.31-.92-.41-.71-1-.71-1.49,0-3,0-5.9.06-8.85l.68,0c0,1.05,0,2.1,0,3.15A2.05,2.05,0,0,0,229,431.91Z"/><path class="cls-147" d="M221.77,476.07a1.21,1.21,0,0,0-1,.62c-.79,0-1.27.58-1.87.94-.92.41-2.05.33-2.81,1.13l-1.45.29a18.69,18.69,0,0,1-6.46,0l-5.47-.27c-2.2-.63-4.51.22-6.7-.5l-2.91-.13-.2,0c-1.26-.68-2.74,0-4-.63-1.86-.46-3.87.14-5.66-.8-.25-.24-.47-.59-.77-.68-1.63-.5-2.09-1.72-2.13-3.23,0-.59,0-1.17-.06-1.76a.86.86,0,0,1,.82-.3c.87.3,1.58.93,2.46,1.23a8.93,8.93,0,0,0,2.76.42,7.48,7.48,0,0,1,1.49.25,7.68,7.68,0,0,0,4.69-.26,49,49,0,0,1,9.54,0,11.19,11.19,0,0,0,4,.51l3.32,0c3.19-.18,6.49.82,9.55-.81a7.3,7.3,0,0,1,.91-.27,19.86,19.86,0,0,0,2.15-.41l.78-.25a3.15,3.15,0,0,1,.81-.16l.4,0a3.08,3.08,0,0,1,.71,3.58A6.71,6.71,0,0,0,221.77,476.07Z"/><path class="cls-97" d="M235.68,470.23l-1.06.2c-.65-.05-1,.5-1.41.8a5,5,0,0,0-2.21,1.09,4,4,0,0,1-2.86,1.08c-.21.06-.44.09-.65.17-.77.3-1.3.2-1.34-.77,0-.56-.08-1.12-.11-1.68,0-.15.07-.3.1-.44a2.71,2.71,0,0,1,.59-.67,8.63,8.63,0,0,1,2-.92c.53-.18,1.07-.35,1.6-.54s1.32-.41,1.95-.67l1.5-.66c.63-.25,1.28-.43,1.91-.69a6.24,6.24,0,0,1,.76-.28c.52-.16,1-.33,1.55-.51a2.21,2.21,0,0,1,1.62-.06c.74,0,1.64-.8,2.12.44a2.59,2.59,0,0,0-1.42,1.24,2.43,2.43,0,0,0-1.43.9A7.4,7.4,0,0,0,235.68,470.23Z"/><path class="cls-148" d="M220.12,470.32c.6-.67,1.48-.68,2.25-.95,2.95-1.06,2.95-1.05,2.93-4.29,0-2.13,0-4.25-.05-6.38a2.15,2.15,0,0,1,.91,2.12c0,2.45,0,4.89.05,7.34a1.82,1.82,0,0,1,.3,2,2.79,2.79,0,0,1-.46.95v0c-.3-.33-.59-.66-.9-1a.77.77,0,0,0-1.17,0c-.51.84-1.36.88-2.21.95A2,2,0,0,1,220.12,470.32Z"/><path class="cls-149" d="M221.82,470.45l2.15-.25,0,.95h0a3,3,0,0,1-1.1.66h0a3.49,3.49,0,0,1-2.08.35.76.76,0,0,1-.62-.71C220.36,470.55,221.34,470.93,221.82,470.45Z"/><path class="cls-150" d="M228.14,473.4l2.86-1.08c0,.27,0,.53,0,.79l-1.38.84-1.29.18Z"/><path class="cls-151" d="M289.59,458.31a9.37,9.37,0,0,0,4.74,2.21c1.92,1.75,2.18,5,5.16,5.8,5.1.85,10.16.36,15.2-.42,2.2-.35,4.47.38,6.62-.52l4.24-1.15c1.51-.38,1.76-1.57,1.94-2.88.21-1.56.28-1.57,2-1l.66.19c.51.67,1,1.35,1.51,2,0,1.51,0,3,0,4.52a6.41,6.41,0,0,1-.69,3.36c-.1.22-.19.45-.28.68a2,2,0,0,1-1.66,1.5c-3.64.65-7.32-.4-11,.15-7.93,1.3-16-.19-23.9,1a4.24,4.24,0,0,1-1.18,0c-9.3-3.24-8.43-1.93-7.69-12.93a5.78,5.78,0,0,0,1.89-1.69C287.9,458.51,288.39,457.39,289.59,458.31Z"/><path class="cls-152" d="M181.1,471.29l-.83-.17-.56-.76c.28-.61.82-.68,1.39-.69l0,0A1.16,1.16,0,0,1,181.1,471.29Z"/><path class="cls-100" d="M289.56,478.38l-.71-.38a3,3,0,0,0-2.09-1l-.75-.22c0-.88,0-1.76,0-2.64a1,1,0,0,1,.73-1c2-.19,3.73.86,5.57,1.4.3.12.6.26.89.4a14.84,14.84,0,0,0,4.46.23l2.67,0h3.33a10.82,10.82,0,0,0,3.92-.45,6,6,0,0,1,1.18-.22c3.46-.15,6.92-.05,10.37-.08l3.5,0,1.65,0c1.75-.24,3.47-.63,5.2-1a1.77,1.77,0,0,1,1,.14c.13,1.83-.12,3.5-1.81,4.61s-3.88.89-5.79,1.44a1.2,1.2,0,0,0-1.15.07c-.86.67-1.86.23-2.79.36-1.31.1-2.66-.24-3.95.28h-.23l-.2.12-2.18.08c-2.47-.13-4.95-.31-7.35.53l-1.87.13-7.32-.07-.16-.12-.19,0L291,479.07C290.53,478.77,290.16,478.34,289.56,478.38Z"/><path class="cls-153" d="M292.44,475.36c-1.89-.75-4-1-5.68-2.21-.62-.9-1.53-.51-2.35-.53a1.28,1.28,0,0,1-.47-.18.47.47,0,0,1-.32-.6,5.6,5.6,0,0,1,1-.72c0-.29-.05-.57-.08-.86,0-2.43,0-4.86,0-7.3a2.25,2.25,0,0,1,.83-2.15c0,2.22.33,4.43.1,6.68s.24,2.72,2.23,3.41a27.12,27.12,0,0,1,5.51,2.28C293.3,474,293.6,475,292.44,475.36Z"/><path class="cls-154" d="M323.58,456.33l-.06.27-.27.07A.34.34,0,0,1,323.58,456.33Z"/><path class="cls-155" d="M241.85,454c0-1.95-.51-4,.53-5.82,0,1.94,0,3.89,0,5.83l-.26,0Z"/><path class="cls-156" d="M330.54,473.54l-1,.44a1.61,1.61,0,0,1-.5-.85,1.45,1.45,0,0,1,.56-1.33l1.14-.7c.1.47.2.94.31,1.41Z"/><path class="cls-157" d="M208.18,479.09l6.46,0,0,.56-6.39,0C208.21,479.45,208.19,479.27,208.18,479.09Z"/><path class="cls-158" d="M240.89,464.59l-1.23.34c-.6.6-1.46.8-2.1,1.35-.48.27-1.13.09-1.53.59l0,0c-.52.45-1.17.28-1.77.37a5.6,5.6,0,0,0-1.28.62c-.32.08-.64.15-1,.21a1.18,1.18,0,0,1-1.18-.76c2.79-3,6.51-4.21,10.27-5.37C242.11,462.91,241.46,463.75,240.89,464.59Z"/><path class="cls-159" d="M241.14,461.92a8.88,8.88,0,0,1-2.75,1.42,35.54,35.54,0,0,0-7.57,4.16,1.36,1.36,0,0,1-1.8.31.56.56,0,0,1-.25-.54q.06-.3.15-.3a113.7,113.7,0,0,1,11.45-5.79Z"/><path class="cls-160" d="M201.79,444l7.14.11c.42.22.93.37.95,1a1,1,0,0,1-.61.7c-2.26-.09-4.65,1.95-6.79-.38L201.05,444Z"/><path class="cls-161" d="M202.48,445.42l1.35.33c.65.17.64.17,2.82-.79a1.21,1.21,0,0,1,.65-.15c.79.17,1.57.39,2.35.59a.6.6,0,0,1,.82,0,1.15,1.15,0,0,1,0,.89c-.67.42-1.54,0-2.18.49l-6.34.1a1.77,1.77,0,0,1-1.55-.66l0-.13a.69.69,0,0,1,.8,0Z"/><path class="cls-50" d="M201.14,446.1l-.8,0C200.61,445.57,200.88,445.67,201.14,446.1Z"/><path class="cls-162" d="M196,478.32c2.24.11,4.51-.27,6.7.5l-1.49.17-1.57.08-3.69-.22A.88.88,0,0,0,196,478.32Z"/><path class="cls-163" d="M203.92,436.21a5.18,5.18,0,0,1-.17,2.73,2.3,2.3,0,0,1-.27-2.64A1.64,1.64,0,0,1,203.92,436.21Z"/><path class="cls-164" d="M188.89,477.59c1.39-.11,2.78-.25,4,.63l-4-.12A4.43,4.43,0,0,0,188.89,477.59Z"/><path class="cls-165" d="M315.05,480.3a6.46,6.46,0,0,1,3.85-.53c.18.09.24.2.2.32s-.09.19-.15.19l-1.67.22Z"/><path class="cls-166" d="M319,480.28a1,1,0,0,1-.05-.51,6.55,6.55,0,0,1,2.89-.11,1.24,1.24,0,0,0-.1.5Z"/><path class="cls-167" d="M237.36,466a4.41,4.41,0,0,1,2.3-1.07c0,.25,0,.5,0,.75-.26.47-.71.48-1.17.48A.68.68,0,0,1,237.36,466Z"/><path class="cls-168" d="M298.89,446.25l10.44-.21.83.21c0,.64,0,1.28.08,1.93a.89.89,0,0,1-1.11.53,11,11,0,0,0-3.75-.32c-1.47.44-2.91.21-4.79.13.83-1.54,1.82-1.21,2.65-1.28a11.65,11.65,0,0,0-3.28.27,2.41,2.41,0,0,1-1-.35.62.62,0,0,1-.24-.59C298.78,446.36,298.83,446.25,298.89,446.25Z"/><path class="cls-123" d="M218.1,126.55a19.91,19.91,0,0,0-1.64,13.06,31.82,31.82,0,0,1,.38,3.52,3.1,3.1,0,0,1-1,2.55c-3.75,3.73-5.3,8.59-6.87,13.43a37.14,37.14,0,0,0-.8,3.8c-1.88-.57-.89-1.86-.74-2.94.45-4.06,2.11-7.7,3.92-11.28.37-.73.86-1.41,1.3-2.11.43-.4.85-.82,1.31-1.18,1.37-1.12,1.53-2.51,1.18-4.16-.47-2.3-.85-4.63-1.13-7-.24-2,.64-3.95.87-5.94a12.68,12.68,0,0,1,.73-2.73,1.42,1.42,0,0,1,1.61-1.09c.93.17.88,1,.89,1.67C218.11,126.31,218.1,126.43,218.1,126.55Z"/><path class="cls-169" d="M208.89,168a11.17,11.17,0,0,0,3,4.73c.56.61,1.18,1.17,1.74,1.78a5.61,5.61,0,0,1,1.66,4.19c0,.35,0,.71,0,1.07.09,4-.22,8.06.64,12.06a22,22,0,0,1,.17,3.91c.29.75-.07.9-.72.78l-.15-1.2c-.45-.71,0-1.67-.62-2.33a2.41,2.41,0,0,1-.7-1.94c-.07-1.06-.09-2.13-.22-3.19a1.62,1.62,0,0,0-1.61-1.6c-1.3-.05-2.6-.06-3.9-.09l-2.15-.4c-.4-.4-1.05-.23-1.45-.64A2.52,2.52,0,0,1,204,185c.31-1.62,1.35-.84,2.21-.67a.45.45,0,0,1,.55.08c1.46.8,3.14-.06,4.62.61,2.14-.37,2.06-.39,2.25-1.93.48-3.82-.07-7.21-3.22-9.9A14.92,14.92,0,0,1,208.2,170c-.45-.33-.26-1-.66-1.33l0-1.41c.22-.35.45-.35.69,0h0C208.44,167.47,208.67,167.71,208.89,168Z"/><path class="cls-170" d="M186.78,163.73l.75-.78a15.09,15.09,0,0,0,7.13,2.75c1.7.3,2,.62,2.17,2.18a13.59,13.59,0,0,1,0,2.47,10.36,10.36,0,0,0,2.38,7.87,5.1,5.1,0,0,1,.5.92c.25.8-.12,1.05-.86,1-2.84-2.15-3.82-5.22-4.18-8.58-.06-.58,0-1.17,0-1.76-.05-2-.05-2-2-2.61q-1.51-.47-3-1A5.19,5.19,0,0,1,186.78,163.73Z"/><path class="cls-171" d="M198.88,180.11l.86-1c.58.56,1.2,1.1,1.74,1.7a11.86,11.86,0,0,0,4.73,3.46c-.76.14-1.65-.13-2.21.67A18.8,18.8,0,0,1,198.88,180.11Z"/><path class="cls-172" d="M208.2,167.24h-.69a9.43,9.43,0,0,1-.08-7.28c.28,1-.29,2.16.74,2.94Z"/><path class="cls-171" d="M211.38,185c-1,0-2.07.06-3.1.07a1.88,1.88,0,0,1-1.52-.68C208.33,184.37,209.91,184.23,211.38,185Z"/><path class="cls-172" d="M207.54,168.66a1.35,1.35,0,0,1,.67,1.33A1.15,1.15,0,0,1,207.54,168.66Z"/><path class="cls-2" d="M233.18,432.49A2.56,2.56,0,0,1,231,432C231.77,431.87,232.58,431.75,233.18,432.49Z"/><path class="cls-131" d="M193.23,276.37c1.43-1.56,2.85-3.12,4.29-4.66,1.95-2.07,4.17-3.88,5.71-6.33a13,13,0,0,1,2.24-2.28,6.22,6.22,0,0,1,1.16-.59c.31,2.39,0,4.61.2,6.8-.39,3.85.51,7.55,1.55,11.18a5.66,5.66,0,0,1-1.23,5.87c-2,2.22-2.37,5.1-3,7.86a1.16,1.16,0,0,0,0,.69c1.13,2.1-.24,3.26-1.57,4.52a39.75,39.75,0,0,0-5.51,6c-.1.13-.41.12-.82.23a14,14,0,0,1,.05-5.21c.75-3.26.07-6.36-.71-9.43-.95-3.79-1.57-7.63-2.2-11.47A24.24,24.24,0,0,1,193.23,276.37Z"/><path class="cls-173" d="M219.74,280.59c-1.23,2.54-2,2.79-4.24,1.33l-.89-.56-2-.16a6.11,6.11,0,0,0-.6-4.37,31.07,31.07,0,0,1-2.36-7.72,7.88,7.88,0,0,0-.44-2.26c.14-.91.27-1.82.41-2.73.53-.59.8-1.46,1.72-1.62.65,0,1.32-.16,1.87.34l-.06,0a6.57,6.57,0,0,0,.78.71l-.05,0c.27.3.78.4.81.91a62.2,62.2,0,0,1,4.44,13.36,6.53,6.53,0,0,0,.52,1.3,1.78,1.78,0,0,1,.38.75A1.47,1.47,0,0,1,219.74,280.59Z"/><path class="cls-174" d="M210.18,268.58a75.54,75.54,0,0,0,4.17,11.4c-.34.9-1.43.45-1.72,1.22-.64.22-1.08,1-2,.69-1-4.12-2.78-8.18-1.59-12.65C209.24,268.76,209.55,268.38,210.18,268.58Z"/><path class="cls-175" d="M213.24,262.84h-1.81a1.61,1.61,0,0,1-1.74,0C211.23,261.69,211.59,261.69,213.24,262.84Z"/><path class="cls-176" d="M210.18,268.58l-1.19.66a4.44,4.44,0,0,1,.25-2.39C209.89,267.24,210.39,267.72,210.18,268.58Z"/><path class="cls-177" d="M209.69,262.86l1.74,0a3.74,3.74,0,0,1-1.78,1.28A1.29,1.29,0,0,1,209.69,262.86Z"/><path class="cls-178" d="M214.72,264.41l-.81-.91a1.06,1.06,0,0,1,1.25.74A.49.49,0,0,1,214.72,264.41Z"/><path class="cls-179" d="M214,263.52a.81.81,0,0,1-.78-.71C213.62,262.85,213.94,263,214,263.52Z"/><path class="cls-180" d="M335.31,278.56a3.29,3.29,0,0,1-.88,2.59c-.7.69-1.39,1-2.18.38A9.62,9.62,0,0,0,326.2,280c-4.37,0-8.75-.15-13.11,0a91.48,91.48,0,0,0-10.16,1.12c-1.74.27-3.51.41-5.25.65-3.13.43-6.25,1.29-9.46,1.05-1.13.2-2.48,1.21-3-.83,1.63-.87,3.46-.69,5.2-.95,7.13-1.09,14.27-2.13,21.43-3a97.78,97.78,0,0,1,13.48-.28c2.25,0,4.5.12,6.74.14,1.09,0,1.51-.34,1.66-1.43.53-3.86,1.06-7.73,1.49-11.61a41.09,41.09,0,0,1,.76-5.61c2.11.47,1.37,2.28,1.7,3.6A54.23,54.23,0,0,1,336.33,277,7.62,7.62,0,0,1,335.31,278.56Z"/><path class="cls-123" d="M219.74,280.59a1.85,1.85,0,0,1,0-.62,2.72,2.72,0,0,1,.7-.81c4.79-1.61,9.5-1.69,14,.88,3.34,1.91,7,2.67,10.72,3.42,1.07,1,2.44.69,3.71.77,1.75.11,3.54-.05,5.18,1.1a8.64,8.64,0,0,1-3.35,1,27.71,27.71,0,0,1-16.93-3.93,19.2,19.2,0,0,0-7-2.27,3.32,3.32,0,0,0-1.39.14A17.75,17.75,0,0,1,219.74,280.59Z"/><path class="cls-9" d="M255.26,227.8c-.69.14-1.39.25-2.07.43a21.71,21.71,0,0,1-10.44.21,12.11,12.11,0,0,1-8-5.33,58.27,58.27,0,0,0-5.9-7.91c-1.27-1.42-1.61-3.35-2.61-4.92-.46-1-1.59-1.66-1.73-2.87-.29-.8.13-1,.8-.93a20.44,20.44,0,0,1,3.32,5,20,20,0,0,0,3.28,4.6c1.25,1.58,2.45,3.17,3.59,4.83a13.21,13.21,0,0,0,7.08,5.61,11.33,11.33,0,0,0,3.45.65l7.81-.06C254.56,226.8,255.32,226.46,255.26,227.8Z"/><path class="cls-181" d="M336.73,262.92c-.27-1.22.4-2.62-.73-3.66.1-1.88.18-3.77.31-5.65a85.81,85.81,0,0,0,.32-11.67c0-5.08,0-10.15.06-15.22,0-1.29,0-2.59,0-3.89.6-1.07.18-2.25.35-3.36.09-.58.14-1.19,1-.85,1.25,1.21,1.15,2.81,1.14,4.32-.16,12.05.61,24.12-.73,36.15C338.32,260.53,338.73,262.29,336.73,262.92Z"/><path class="cls-123" d="M285.24,282c.75,1.14,1.95.68,3,.83-1.09,1-2.42.58-3.67.64-2-.68-4-.15-6-.24a6.73,6.73,0,0,1,4,.32,2.61,2.61,0,0,1-1.95.63H276.7a77.32,77.32,0,0,0-15.66,0l-4.82,0a2.25,2.25,0,0,1-2.26-1.26c3.08,0,6.17-.16,9.24-.07,6.78.21,13.5-.79,20.27-.86Z"/><path class="cls-182" d="M225.29,206.48l-.8.93a18.34,18.34,0,0,0-4.22-3c-3-1.79-5.05-4.16-4.86-7.9l.72-.78c.19.29.51.57.54.88.33,3.57,2.83,5.49,5.51,7.24C223.35,204.57,224.72,205,225.29,206.48Z"/><path class="cls-182" d="M214.64,192.94c.91.59.72,1.47.62,2.33C215.05,194.5,214.84,193.72,214.64,192.94Z"/><path class="cls-2" d="M220.42,279.16l-.7.81c0-.3,0-.6,0-.9Z"/><path class="cls-183" d="M187.48,260c-2.17,1.62-4.38,3.17-6.48,4.87-1.06.86-2.42.92-3.5,1.64-1.15-.08-1.31-.93-1.22-1.78,1.2-11.91.2-23.86.53-35.78,0-1.53-.23-3.1.65-4.5-1.07-2.72-.71-5.51-.41-8.3,0-.45.39-.9.37-1.34-.19-3.51,1.12-6.91.81-10.43l.53-.08c1.18.81,1.14,2.2,1.6,3.35.37,2.43.66,4.87,1.13,7.28,1.81,10.56,3.23,21.17,4.42,31.8C186.41,251.1,186.42,255.59,187.48,260Z"/><path class="cls-184" d="M185.31,285.71a7.35,7.35,0,0,1-2.74,2.74c-1,.67-2,1.29-3,2a6.11,6.11,0,0,0-2.82,5.78,22,22,0,0,0,.36,2.82,119.76,119.76,0,0,1,2.61,15.75c.38,4.24.91,8.47,1.41,12.7.1.82.39,1.61.52,2.43.09.63.52,1.54-.46,1.75-.77.16-.78-.71-.9-1.26a16.36,16.36,0,0,1-.62-3.13c-.11-3.08-.63-6.13-.92-9.19a113.66,113.66,0,0,0-2.36-15.43c-.44-1.84-.79-3.71-1.18-5.56l.27-4.31c.41-.71-.62-1.36-.09-2.07a12,12,0,0,0,6-3.59,6,6,0,0,1,2.24-1.69A1.81,1.81,0,0,1,185.31,285.71Z"/><path class="cls-185" d="M177.46,224.4q0,17.6,0,35.18a17.17,17.17,0,0,1-.46,5.29,1.42,1.42,0,0,0,.49,1.59,1.5,1.5,0,0,1-1.51.6,4.78,4.78,0,0,1-.39-3.8,14.16,14.16,0,0,0,.44-4.57q0-14.76.06-29.52c0-1.07,0-2.14.11-3.2A1.75,1.75,0,0,1,177.46,224.4Z"/><path class="cls-186" d="M189,282.07q0,11.4,0,22.79c0,4.63.06,9.26.06,13.89a16.79,16.79,0,0,1-.23,2.45c0,.14-.32.28-.51.35s-.44,0-.57-.29a6.67,6.67,0,0,1-.21-2.81q-.06-9.26-.11-18.51l.09-15.63c0-.71-.05-1.42,0-2.13.08-.88-.24-2.29.94-2.29C189.24,279.88,188.77,281.31,189,282.07Z"/><path class="cls-187" d="M178.19,198.56c.1.76-.11,1.61.64,2.17,1.13,1.42.33,2.52-.58,3.62l0,0A5.57,5.57,0,0,1,178.19,198.56Z"/><path class="cls-188" d="M175.43,290.71c.19.68,1,1.34.08,2.07a3.63,3.63,0,0,0-.71-.65c-.81-.44-.43-.82,0-1.18A2.6,2.6,0,0,1,175.43,290.71Z"/><path class="cls-171" d="M204.61,185.08a1.51,1.51,0,0,1,1.45.64A1.48,1.48,0,0,1,204.61,185.08Z"/><path class="cls-189" d="M187.48,260a4.07,4.07,0,0,1-1.52-2.63c-.21-2.82-.43-5.65-.71-8.46-.52-5.28-.89-10.58-1.79-15.82s-1.58-10.26-2.31-15.4a30.82,30.82,0,0,1-.13-3.19c-.11-.86-1-2,.71-2.24.57,3.62,1.09,7.25,1.71,10.86.89,5.24,2.1,10.44,2,15.81,0,.31.28.62.43.93.59,5.85,1.2,11.7,1.76,17.55.09.87.38,1.29,1.27,1.23A2.19,2.19,0,0,1,187.48,260Z"/><path class="cls-190" d="M178.25,204.35c.2-1.21.39-2.41.58-3.62s.57-2.34.85-3.51c.24-.25.29-.69.74-.74.61.11,1.26.35,1.28,1a74.16,74.16,0,0,1-.1,10.54c0,.2-.25.38-.39.57-1.2-1.45-1.11-3.14-1.15-4.6-.67.76.79,2.26-.47,3.2a1.74,1.74,0,0,1-.65-1.44A1.57,1.57,0,0,0,178.25,204.35Z"/><path class="cls-191" d="M179.59,207.19c0-1.43,0-2.85.06-4.28,0-.6.42-1.08.71-.86a.79.79,0,0,1,.27.94c-.62,2,.67,3.71.58,5.6-.33,1.28.6,2.38.52,3.62-.81.56-.58,1.46-.71,2.24-.19-.41-.54-.81-.54-1.21A42.43,42.43,0,0,0,179.59,207.19Z"/><path class="cls-192" d="M180.42,196.48l-.74.74a1.43,1.43,0,0,1,.65-1.45Z"/><path class="cls-125" d="M176,126.56a1.39,1.39,0,0,1-.52-1.11A1.31,1.31,0,0,1,176,126.56Z"/><path class="cls-130" d="M174.46,122.33a.74.74,0,0,1-.48-.8A.81.81,0,0,1,174.46,122.33Z"/><path class="cls-131" d="M336.73,262.92a3.62,3.62,0,0,0,.62-2.35c1.12-12.76.94-25.54.72-38.32,0-1.27.28-2.63-.62-3.77-.87-1.82-1.21-3.65-.13-5.52,0-1,.05-2.09.07-3.13a2.34,2.34,0,0,1,.61-1.92c2.37,2.48,2.51,5.81,3.22,8.85,1.86,8,1.9,16.22,3.61,24.22,1.46,6.83,2.16,13.78,3.23,20.67A19.63,19.63,0,0,1,346,273c-1.76,3.78-5.17,5.31-9.31,5.21a1.34,1.34,0,0,1-1.24-1.15A75.74,75.74,0,0,0,336.73,262.92Z"/><path class="cls-193" d="M336,277.77a10.87,10.87,0,0,0,4.84-1,7.75,7.75,0,0,0,4.76-5,72.61,72.61,0,0,0,1.71-7.6,6.93,6.93,0,0,0-.13-2.83c-1-4-1.11-8.2-1.91-12.26-.55-2.79-1-5.59-1.51-8.38-.67-3.61-1.1-7.24-1.52-10.88a106.23,106.23,0,0,0-4-20.52,9.32,9.32,0,0,1-.25-1.4c0-.35.06-.71.13-1.06s.28-.92.85-1c.73-.08,1.06.37,1.21,1,1.25,5.17,2.73,10.29,3.48,15.57.43,3,.55,6.12.9,9.18.27,2.34.64,4.68,1,7,.52,3,1.26,6,1.65,9.06.25,2,.56,4,.72,6,.26,3.08.89,6.08,1.34,9.12s-.69,6.06-1.42,9a8.83,8.83,0,0,1-3.63,5.12,9.22,9.22,0,0,1-8.34,1.58c-.2-.19-.25-.37-.17-.53S335.93,277.77,336,277.77Z"/><path class="cls-194" d="M337.32,213c0,1.84.09,3.68.13,5.52,0,.93-.06,1.87-.07,2.8a1.88,1.88,0,0,1-.66,1.56c-.28-3.64-.49-7.28-.87-10.91a11.6,11.6,0,0,0-4.23-7.52,15.28,15.28,0,0,1-3.35-4.89,2.56,2.56,0,0,1-.17-1,1.1,1.1,0,0,1,.67-1.13,1.24,1.24,0,0,1,1.32.24,6.73,6.73,0,0,1,.89,1.08c1.43,1.85,2.3,4.11,4.32,5.53a2.61,2.61,0,0,1,.62,1.59c.29,1.85,1,3.64.79,5.56A2,2,0,0,0,337.32,213Z"/><path class="cls-180" d="M261,284.18a1.92,1.92,0,0,1,1.55-.66h12.57a1.9,1.9,0,0,1,1.54.66Z"/><path class="cls-180" d="M282.52,283.55c-1.44-.14-2.93.12-4.35-.43a18.36,18.36,0,0,1,5.53-.21c.3,0,.57.37.85.56Z"/><path class="cls-195" d="M298.79,296.41c.54-.12,1.13-.15,1.44-.74a2,2,0,0,1,2.14,1.36C301.15,297,299.85,297.38,298.79,296.41Z"/><path class="cls-196" d="M336,277.77c0,.25-.05.51-.08.76l-.62,0,.15-1.47Z"/><path class="cls-10" d="M230.19,167.85l2.13-1.18a8,8,0,0,0-2.09-3.73c-1.62-2-2.77-2.2-5.29-1.41s-4.18,2.62-5.78,4.54c-.53.63-1,1.32-1.52,2a.59.59,0,0,1-.58.09.73.73,0,0,1-.21-.62c1-3.51,5.24-7,8.8-7.42a6.14,6.14,0,0,1,6,2.44c2.52,3.43,4.88,7,7.3,10.49a3.43,3.43,0,0,1,.57,1.3c.59,3.8,3.82,4,6.58,4.9a2,2,0,0,0,1.65-.49,6.29,6.29,0,0,1,2.14-1.23c2.19-.37,3.12-1.9,3.92-3.7a33.09,33.09,0,0,1,5.45-7.86,13.15,13.15,0,0,1,8.12-4.72c3.35-.49,7.45,2.49,7.78,5.75a.74.74,0,0,1-.32.58.8.8,0,0,1-.66,0c-.58-.25-.79-.84-1.12-1.32-2.31-3.29-4.4-4.48-8.77-2a12.5,12.5,0,0,0-1.16.79c-.08.06-.1.21-.2.45.35.24.71.51,1.08.75a6,6,0,0,1-.16,10.28c-3.06,1.85-4.86,1.71-8.09-.7-.41-.3-.77-.5-1.24-.16a1.05,1.05,0,0,0-.21,1.56c3,2.72,4.15,6.54,6.07,9.91a.63.63,0,0,1,.2.57c0,.2-.09.3-.14.3a1.24,1.24,0,0,1-1.34-.38c-.37-.34-.7-.71-1-1.08a22.45,22.45,0,0,1-3.46-4.91c-1.19-2-3-2.65-4.83-1.5-3.29,2-6.33,1.28-9.42-.23a11.66,11.66,0,0,0-3.4-.91,1.92,1.92,0,0,1-1.09-1c1.07-5.51-.27-8.09-4.69-9A1.5,1.5,0,0,1,230.19,167.85Z"/><path class="cls-197" d="M235.85,177.82l.93.82c.3,1.28-.1,2.56.06,3.86a11.87,11.87,0,0,1-1.73,8.48,4.56,4.56,0,0,0,1.1,6.62,5.7,5.7,0,0,0,7.57-.08c.35-.62.68-1.26,1.56-1.18,1.5,1.49,2.58,1.83,2.61-.92,0-1.9,0-3.8,0-5.7a6.32,6.32,0,0,1,3.07-5.32,2.41,2.41,0,0,1,3.27.08c1.16,1.14.48,2.16-.39,3.08-2.2,2.34-2.66,5.26-2.64,8.27s1.2,3.58,3.84,2.42c4.58-2,6.33-5.39,5.12-10.26l.09-.88c4.27,3.48,4.13,3.28,1.82,8.56a5.16,5.16,0,0,1-2,2.38c-1.21.74-2.26,1.73-3.46,2.48a6.65,6.65,0,0,1-5.69,1.09,19.57,19.57,0,0,0-2.79-.47c-.34-.05-.83-.22-1-.06-1.5,1.34-3.4.72-5.06.89-3.51.35-6.81-.44-9.31-3.31a6.3,6.3,0,0,1-1.4-6.58,9.14,9.14,0,0,1,2.11-4,3.47,3.47,0,0,0,1.09-2.88c-.05-.83,0-1.66,0-2.49-.06-2-.06-2-2.22-2.77A8,8,0,0,1,227,174.2c-.44-1.53.13-2.82.6-4.13a3.25,3.25,0,0,1,2.57-2.21l.87.73a1.4,1.4,0,0,1-.14,1.33c-1.94,4.54-1.21,6,3.69,7.25A2.49,2.49,0,0,1,235.85,177.82Z"/><path class="cls-198" d="M242.19,212a8.38,8.38,0,0,1-.38-4c1-.2,1,.9,1.71,1.07s1.39-.23,2.06-.4a23.77,23.77,0,0,1,6.66-.84,3,3,0,0,0,2.65-.7c.36-.39.63-1.17,1.33-.64a2,2,0,0,1,.48,1.27,8.07,8.07,0,0,1,0,1.77c-.06.73-.64,1.11-1.18.63a3.07,3.07,0,0,0-3-.51C249.07,210.31,245.56,210.66,242.19,212Z"/><path class="cls-199" d="M255.26,227.8c-.32-.57-.88-.62-1.44-.69,1.3-1,3-1.21,4.29-2.27a5.8,5.8,0,0,0,2.1-2.7,12,12,0,0,1,2.19-4.32l.74.75a19.65,19.65,0,0,0-1.28,2.91,8.48,8.48,0,0,1-5.3,5.78Z"/><path class="cls-172" d="M208.89,168l-.68-.71Z"/><path class="cls-200" d="M295.23,130.18c1.32-2.86,3.56-5,5.63-7.29a35,35,0,0,0,4.2-5.29,24.08,24.08,0,0,1,4.69-5.79c3-2.59,4.95-6,7.38-9.12a12.07,12.07,0,0,1,2.73-2.75,20.19,20.19,0,0,0,5.44-6.06,9.74,9.74,0,0,1,6-4.16c.91-.25,1.8-.6,2.72-.83a2.36,2.36,0,0,1,2.31.58c-1.47,1.51-3.45,2.09-5.35,2.67a7,7,0,0,0-3.74,2.56c-3.86,5.13-8.9,9.24-12.54,14.56a12.32,12.32,0,0,1-1.9,2.12,44.79,44.79,0,0,0-7.47,9.25,27.11,27.11,0,0,0,3.25,4.07c2.74,2.8,4,6.37,5.2,10a1.1,1.1,0,0,1-.38.91.88.88,0,0,1-1.25-.16,5.94,5.94,0,0,1-1.24-2.53,19.19,19.19,0,0,0-4.25-7.33,38.35,38.35,0,0,1-2.38-3.24c-2.39,1.54-3.81,3.87-5.48,5.73a3.69,3.69,0,0,0,1.11,2.06,27.59,27.59,0,0,1,6.19,17.8c0,2,0,4-.06,6.06a2.43,2.43,0,0,1-.68,2c-.26.23-.58.46-.95.25-.19-.1-.44-.27-.47-.44a11.45,11.45,0,0,1-.13-1.75c0-2.38.14-4.75.08-7.13-.14-5.9-2.41-11-5.74-15.82-.67-1-1.31-.76-2.05-.17C295.39,131.12,295.11,130.88,295.23,130.18Z"/><path class="cls-201" d="M295.23,130.18l.83.72c-.36.78-.66,1.62-1.6,1.92C294.65,131.92,294.27,130.85,295.23,130.18Z"/><path class="cls-202" d="M210.6,438.17c-.88.09-1.8.33-2.36-.68.89-2.23.11-4.54.32-6.81,1.07-1.77,2.71-1.32,4.29-1.08a57.47,57.47,0,0,0,6.69.14c4.15.06,4.45.35,4.35,4.39a5.08,5.08,0,0,1-.26,1.73c-1.15,1.64-3,.66-4.45,1.19C216.39,437.89,213.36,437,210.6,438.17Z"/><path class="cls-203" d="M208.19,456.86c.5.29.65.67.19,1.08a2.2,2.2,0,0,1-1.67.37c-4.22-.23-8.44-.44-12.65-.73a4,4,0,0,1-3.13-1.36c-.15-.71.09-1,.82-.74h0a.57.57,0,0,0,.77,0,59,59,0,0,1,14.78.84c.32.05.59.35.88.54-.25.29-.64.24-.94.4A1.51,1.51,0,0,0,208.19,456.86Z"/><path class="cls-204" d="M223,436.11c.07-1.4.2-2.8.19-4.19,0-1-.45-1.47-1.53-1.5-1.87,0-3.74.05-5.61,0-1.27,0-2.59.19-3.74-.59.81-.93,2.05,0,2.93-.71,2.24-.05,4.49-.11,6.74-.13a2.31,2.31,0,0,1,2.54,1.49c-.63,1.47-.16,3-.31,4.52C224.17,435.74,224.11,436.47,223,436.11Z"/><path class="cls-205" d="M225.41,443.33l.68.73c-1.67,2-3.3,4-5,5.93-.82.91-.42,1.73-.15,2.62-.2.32-.24.76-.7.87l-.87-1.49a1.75,1.75,0,0,1,.23-2.23c1.44-1.67,2.9-3.31,4.37-4.94C224.41,444.3,224.92,443.83,225.41,443.33Z"/><path class="cls-206" d="M210.6,438.17c-.35-1.06-.24-1.43.47-1.43,2.56,0,5.12,0,7.68,0,.84,0,2-1,2.24.73A65.64,65.64,0,0,1,210.6,438.17Z"/><path class="cls-207" d="M210.39,445.46l-.74-.06c0-.23,0-.45,0-.67a5.27,5.27,0,0,1,3.73-.12,7.18,7.18,0,0,1,1,0c.59.1,1.17.32,1.29,1s-.44,1-1,1.25a4.13,4.13,0,0,1-2.69.44c-1.25-.26-2.52-.37-3.78-.55.54-.78,1.4-.57,2.15-.68,1.1-.71,2.46.14,3.7-.64.32-.06-.43-.36-.17,0,.1.15,0,.25-.23.25C212.6,445.71,211.46,446.05,210.39,445.46Z"/><path class="cls-207" d="M221,437.49c-.57-.78-1.48-.5-2.24-.73,1.33-.89,2.85-.49,4.29-.65.9-.43.79-1.26.87-2.05.13-1.21-.42-2.54.65-3.57.05,1.63.18,3.26.13,4.88-.07,1.92-.39,2.18-2.31,2.23A11,11,0,0,1,221,437.49Z"/><path class="cls-208" d="M220.22,453.48l.7-.87c.34.73.54,1.61,1.29,2,1,.51,1,1.45,1.27,2.32-1.08-.29-2.09-.73-3.22.13a4.91,4.91,0,0,1-3.86,1.22l2.64-1.53C220.74,455.77,220.74,455.77,220.22,453.48Z"/><path class="cls-209" d="M215.28,429.13c-.81.95-2,.42-2.93.71-1.31.09-2.79-.25-3.53,1.35-.21.29-.26.72-.69.83-.61-1.79-.31-2.69,1.11-2.92A23.49,23.49,0,0,1,215.28,429.13Z"/><path class="cls-210" d="M206.43,464.71c-2.79,0-5.59,0-8.39,0a4.63,4.63,0,0,1-3-.75l9.45.1A2.94,2.94,0,0,1,206.43,464.71Z"/><path class="cls-209" d="M208.13,432l.69-.83a13.8,13.8,0,0,1,.19,5.24,1.25,1.25,0,0,1-.77,1.07C208.2,435.67,208.17,433.85,208.13,432Z"/><path class="cls-161" d="M213.37,444.61l-3.73.12-.71-.62C210.43,444.05,212,443.73,213.37,444.61Z"/><path class="cls-211" d="M191.75,455.48l-.82.74c-.41-.32-.62-.76-.2-1.13S191.54,455,191.75,455.48Z"/><path class="cls-211" d="M192.53,455.48c-.25.45-.51.52-.77,0Z"/><path class="cls-212" d="M302.38,439.62a1.6,1.6,0,0,1-1.46.8c-3.38,0-6.77,0-10.15,0-.4,0-.8-.4-1.2-.61a2.35,2.35,0,0,1,2-.74c2.11,0,4.23,0,6.35,0,.47,0,.83,0,.35,0l-.18,0h-8.58c-1.91,0-2.88-.84-2.81-2.79.12-1.68-.52-3.62,1.59-4.6,4.4-.11,8.8-.14,13.2,0,1.47,1.25.48,2.81.54,4.24C302.12,437.12,301.74,438.42,302.38,439.62Z"/><path class="cls-213" d="M321.31,465.38a2.85,2.85,0,0,1-.93.48c-3.17.35-6.33.71-9.5.94-2.35.18-4.7,0-7.05.52a6.87,6.87,0,0,1-5-1.17.6.6,0,0,1,.87-.11c1.85.07,3.68.9,5.55.15,4.8.05,9.56-.67,14.34-.92A12.71,12.71,0,0,1,321.31,465.38Z"/><path class="cls-214" d="M287.32,436.15c.49,1.93.48,2,1.81,2,2.85.11,5.7.14,8.55.23.92,0,1.93-.3,2.68.55-2.8,1-5.78-.19-8.59.67l-2.2.13c-.93-.36-2.1.29-2.89-.68-.36-.43-.24-1-.56-1.48,0-.95,0-1.89,0-2.84C287.42,434.39,286.81,435.77,287.32,436.15Z"/><path class="cls-215" d="M306.67,458.16c1.58-1,3.31-.69,5-.59a.54.54,0,0,1,.22.53c-.05.2-.09.29-.15.29a2.05,2.05,0,0,1-1.61.12c1.12.52,2-.43,3-.58,1.58.1,3.31-.37,4.5,1.19a2.46,2.46,0,0,1-1.64.56l-9.24.1A1.13,1.13,0,0,1,306.67,458.16Z"/><path class="cls-216" d="M301.63,432.06l-13.42-.12c-.67.28-.76-.09-.71-.63a114,114,0,0,1,14.2-.07c.19.2.25.39.16.56S301.7,432.06,301.63,432.06Z"/><path class="cls-217" d="M298.84,446.85h6.69c-1.31,1.27-2.77.25-4,1.23l3.85.31c-1.63.9-3.4.51-5.13.57a6.48,6.48,0,0,0-.62-.54,2.58,2.58,0,0,1-.95-.79A.88.88,0,0,1,298.84,446.85Z"/><path class="cls-218" d="M301.63,432.06c0-.27,0-.55.07-.82a1.58,1.58,0,0,1,1.36,2.08,35.3,35.3,0,0,0-.68,6.3c-.74-.38-.72-1.09-.73-1.77C301.63,435.92,301.63,434,301.63,432.06Z"/><path class="cls-146" d="M300.24,448.17V449a9,9,0,0,1-4.44-.18,1.07,1.07,0,0,1-.77-1,1.09,1.09,0,0,1,.86-1,3.26,3.26,0,0,1,3,.08v0c0,.21,0,.42,0,.63s-.22.37-.46.3c-.06.26,0,.22.35.18A2.57,2.57,0,0,1,300.24,448.17Z"/><path class="cls-219" d="M299.68,466l-.87.11a3.92,3.92,0,0,1-3-2.5c-.46-1-1-2.09-1.44-3.13l1-.12c.21.25.57.48.61.75A6.34,6.34,0,0,0,299.68,466Z"/><path class="cls-220" d="M306.67,458.16c0,.54,0,1.08.05,1.62a5.54,5.54,0,0,1-3.71.36c-.45-.12-1.2-.36-.61-1.16.84-.73,2,0,2.86-.65Z"/><path class="cls-221" d="M317.6,459.12c-1.72-.5-3.42-1.16-5.27-.81-.25.27-.45.24-.62-.09,0-.22,0-.44,0-.65h6.42c.39.37,1.11.58.69,1.37Z"/><path class="cls-222" d="M287.5,431.31l.71.63c-1.22,1.21-.6,2.8-.89,4.21l-1.24-1.38C286,433.4,285.63,431.89,287.5,431.31Z"/><path class="cls-223" d="M318.8,459l-.69-1.37a1.35,1.35,0,0,1,.34-.06c.53,0,1.22-.73,1.51-.14C320.45,458.35,319.65,458.75,318.8,459Z"/><path class="cls-217" d="M298.85,446.87l-3-.08c.88-.86,1.94-.64,3-.54C298.87,446.46,298.86,446.66,298.85,446.87Z"/><path class="cls-215" d="M305.26,458.33c-.78,1-1.87.57-2.86.65C303.16,457.92,304.26,458.32,305.26,458.33Z"/><path class="cls-222" d="M286.12,437.61a1.55,1.55,0,0,1,.56,1.48A1.41,1.41,0,0,1,286.12,437.61Z"/><path class="cls-224" d="M289.59,458.31l-2.36.81c.41-.85.19-2.13,1.59-2.3A1.69,1.69,0,0,1,289.59,458.31Z"/><path class="cls-225" d="M226.06,470.31l.15-2.15a1.4,1.4,0,0,1,.41.06H227c.44.5.38-.36.68-.25a1.39,1.39,0,0,1,.78.12,1.66,1.66,0,0,1,.7,1,.71.71,0,0,1-.5.6,2.58,2.58,0,0,1-1.62.69A.59.59,0,0,1,226.06,470.31Z"/><path class="cls-226" d="M228.22,468.3l-.83,0-.43,0-.34-.1a5.81,5.81,0,0,1,2.3-1.25c0,.23,0,.46,0,.68C229,468.21,228.88,468.55,228.22,468.3Z"/><path class="cls-227" d="M221.82,470.45a2.15,2.15,0,0,1-1.45.75l-.5.4a.76.76,0,0,0-.35.49c.14.18.27.34.42.5-.95.46-1.91.9-2.84,1.38a3,3,0,0,1-1.72.27c-1.89-.13-3.78-.24-5.67-.35a.55.55,0,0,1-.19-.55c0-.19.1-.29.15-.29,1.54-1,3.26-.57,4.88-.65,0,0,.17-.11.17-.11a1,1,0,0,0-.21-.14l-.74-.08c-2-.06-4,0-6,0-2.17,0-4.33,0-6.49,0l-4.17,0a17.43,17.43,0,0,1-3.46-.27,10.67,10.67,0,0,0-2.17-.42c-1.3-.09-2.6,0-3.89-.2-.72-.23-1.54-.38-1.47-1.42a28.76,28.76,0,0,1,8.43.36,23,23,0,0,0,4.92.26c4.36,0,8.72,0,13.08,0a5.85,5.85,0,0,1,2.1.09c1.89.77,3.68.18,5.49-.18Z"/><path class="cls-228" d="M186.1,469.78a2,2,0,0,0,1.55.7c-.94,2.4-2.61.46-3.85,1.07.11.47,2.24-.57,1.5,1.2a3.09,3.09,0,0,1-2.2-.13,1.92,1.92,0,0,1-2-1.33l0-1.58Z"/><path class="cls-229" d="M273.91,468.13l3.5.86.23.45-.35.37-3.35-1c-.23-.15-.31-.3-.24-.46S273.84,468.13,273.91,468.13Z"/><path class="cls-230" d="M273.91,468.13l0,.71a5.73,5.73,0,0,1-2.86-1.28l.87-.14A2.7,2.7,0,0,1,273.91,468.13Z"/><path class="cls-231" d="M283.87,471.92c0,.17,0,.35.07.52a1.93,1.93,0,0,1-1.57-.54l.3-.36C283.13,471.48,283.59,471.41,283.87,471.92Z"/><path class="cls-232" d="M278.78,470.5a1.62,1.62,0,0,1-1.49-.69,2.12,2.12,0,0,1,.18-.37c.67-.16,1.3-.23,1.54.63Z"/><path class="cls-231" d="M282.37,471.9a1.59,1.59,0,0,1-1.44-.61c.06-.14.12-.27.17-.4a1.5,1.5,0,0,1,1.26,0,.72.72,0,0,1,.26.76Z"/><path class="cls-232" d="M280.31,471.08a1.77,1.77,0,0,1-1.53-.58l.26-.32a1.19,1.19,0,0,1,1.34.05A.67.67,0,0,1,280.31,471.08Z"/><path class="cls-233" d="M280.31,471.08l-.06-.56c.59-.48.74-.15.77.41a1.06,1.06,0,0,0-.09.36A1.39,1.39,0,0,1,280.31,471.08Z"/><path class="cls-234" d="M281,470.93l-.77-.41-1.22-.34-1.56-.74a3.47,3.47,0,0,0-.06-.45l.69-.66c1.69.86,3.64,1.24,4.93,2.8-.21.28-.43.29-.65,0Z"/><path class="cls-235" d="M282.38,471.14a3.53,3.53,0,0,1,.65,0l1.55,0a1,1,0,0,1-.71.81l-1.26-.29A2.19,2.19,0,0,1,282.38,471.14Z"/><path class="cls-236" d="M308.08,453.55c-1.4.65-2.8.35-4.21.18C305.27,453.07,306.67,453.39,308.08,453.55Z"/><path class="cls-237" d="M202.42,473.29H191.94a2.32,2.32,0,0,1-2.4,0c.35-1.83,1.8-1.64,3.06-1.55,2.86.21,5.71,0,8.56.14a2.52,2.52,0,0,1,1.15.37l.35.49Z"/><path class="cls-238" d="M189.56,473.16l2.38.13c-1.56.82-3.12,1.15-4.71.08a1.5,1.5,0,0,1,1.38-.66A1.54,1.54,0,0,1,189.56,473.16Z"/><path class="cls-239" d="M209.62,473.32a2.82,2.82,0,0,0,.09.57,10.61,10.61,0,0,1-3.6,0,.66.66,0,0,1,.24-1A2.56,2.56,0,0,1,209.62,473.32Z"/><path class="cls-240" d="M206,473.29c0,.2.05.39.08.58a5.06,5.06,0,0,1-3.69-.58l.07-.28a3,3,0,0,1,2.12-.5A2.08,2.08,0,0,1,206,473.29Z"/><path class="cls-241" d="M189,473.16l-1.77.21-1-.15q-.65-.39-.12-.93C187.31,471.84,188.48,471.44,189,473.16Z"/><path class="cls-242" d="M185.89,472.54l.36.68c-1.09,0-2.25.37-3.15-.6l2.36-.15Z"/><path class="cls-243" d="M219.94,472.59a4.19,4.19,0,0,1-.95-.13c-.4-.15-.36-.43-.07-.69l.78-.62a4.91,4.91,0,0,1,.67.05,5.15,5.15,0,0,0,0,.68.48.48,0,0,1-.4.7Z"/><path class="cls-244" d="M220,472.58l.4-.7,2.43-.08A3.29,3.29,0,0,1,220,472.58Z"/><path class="cls-140" d="M222.84,471.81l1.1-.66A1.2,1.2,0,0,1,222.84,471.81Z"/><path class="cls-245" d="M232.56,468.36a2.94,2.94,0,0,1-2.08.75l-.32-.3c.12-1.16,1-.82,1.71-.89A.72.72,0,0,1,232.56,468.36Z"/><path class="cls-246" d="M237.36,466l1.08.16a2.64,2.64,0,0,1-2.41.71C236.21,466.17,236.82,466.13,237.36,466Z"/><path class="cls-247" d="M234.05,466.91l2-.06c-.43.87-1.31.72-2,.91l-.38-.19A.76.76,0,0,1,234.05,466.91Z"/><path class="cls-245" d="M232.52,467.56a2,2,0,0,0,.63-.19.72.72,0,0,1,.68.06,1.35,1.35,0,0,1,.19.33,1.82,1.82,0,0,1-1.46.6l-.27-.3A.33.33,0,0,1,232.52,467.56Z"/><path class="cls-248" d="M228.64,469.7,229,469a.8.8,0,0,1,1.21-.17,3.07,3.07,0,0,0,.29.24A2.19,2.19,0,0,1,228.64,469.7Z"/><path class="cls-30" d="M226.06,470.31l1,.08-1,.7C226.05,470.83,226.06,470.57,226.06,470.31Z"/><path class="cls-249" d="M293.77,473.19c.87-.81,2-.66,3-.7a40.47,40.47,0,0,0,7.37-.49,6.46,6.46,0,0,1,2.1.05c3.49.36,7,.79,10.47-.12a5.46,5.46,0,0,1,1.4,0,1,1,0,0,1,.26,1c-.48,1-1.39,1.08-2.31,1.19s-1.8,0-2.7,0a9.87,9.87,0,0,1-1.09,0l-1.67,0c-.39,0-.78,0-1.16,0-4.82,0-9.62,0-14.43.23A1.66,1.66,0,0,1,293.77,473.19Z"/><path class="cls-250" d="M318.14,472.64l0-.73a6,6,0,0,1,2.73-.49c2.89.6,5.83.3,8.75.38l-.24,1.45a1.87,1.87,0,0,1-1.71.45C324.52,473,321.15,474.48,318.14,472.64Z"/><path class="cls-251" d="M293.77,473.19l.8.7a1.78,1.78,0,0,1-.74,1.72,1.27,1.27,0,0,1-1.37-.22l0,0a2.24,2.24,0,0,0,.34-1.66c0-.13.26-.34.4-.52A2.32,2.32,0,0,1,293.77,473.19Z"/><path class="cls-252" d="M319.72,475.36H308.05a.8.8,0,0,1,.29-1A3.57,3.57,0,0,1,310,474c2.72,0,5.45,0,8.18,0a2.55,2.55,0,0,1,1.13.36A1,1,0,0,1,319.72,475.36Z"/><path class="cls-253" d="M328.23,473.27l1.13,0,.18.73c-1.49,1-3.28.92-5,1.25a.92.92,0,0,1-.28-1C325.31,472.74,326.88,473.44,328.23,473.27Z"/><path class="cls-93" d="M292.46,475.39l1.63-.06a2.68,2.68,0,0,1,3.17-.23.58.58,0,0,1,.05.95c-1,.06-2.05.16-3.08.16A1.84,1.84,0,0,1,292.46,475.39Z"/><path class="cls-254" d="M307.48,475.5a5.12,5.12,0,0,1-3.68.5l-.15-.46c.09-.13.18-.27.28-.4a3.41,3.41,0,0,1,2.84-.28A1.48,1.48,0,0,1,307.48,475.5Z"/><path class="cls-255" d="M303.84,475.43a3.64,3.64,0,0,1,0,.57h-3.58a.76.76,0,0,1,.34-1A2.68,2.68,0,0,1,303.84,475.43Z"/><path class="cls-256" d="M319.72,475.36a2.08,2.08,0,0,1-.23-.63,2.66,2.66,0,0,1,3.42-.36.61.61,0,0,1,.07,1A4.93,4.93,0,0,1,319.72,475.36Z"/><path class="cls-257" d="M300.31,475.45a4.85,4.85,0,0,1-.09.55l-2.91.05a2.46,2.46,0,0,0,.16-.59A1.85,1.85,0,0,1,300.31,475.45Z"/><path class="cls-258" d="M323,475.39a2.29,2.29,0,0,0,.17-.62,1,1,0,0,1,1.39-.24,3.3,3.3,0,0,0,0,.7Z"/><path class="cls-249" d="M308.16,474.77a4.08,4.08,0,0,1-.11.59.87.87,0,0,1-.57.14l0-.3a.4.4,0,0,1-.14-.45c.05-.15.11-.22.16-.22A.64.64,0,0,1,308.16,474.77Z"/><path class="cls-259" d="M230.19,468.87,229,469l-.76-.74.7-.65,1.91-.15,1.69.06a2.07,2.07,0,0,1-.23.5A4.17,4.17,0,0,0,230.19,468.87Z"/><path class="cls-259" d="M233.83,467.43a2,2,0,0,1-.68-.06l.9-.46Z"/><path class="cls-234" d="M210.39,445.46h3.43c-1.07.91-2.26.58-3.4.63A1.33,1.33,0,0,1,210.39,445.46Z"/><path class="cls-217" d="M308.29,447.25c-.18.1-.37.26-.55.26s-.35-.19-.52-.3c.18-.09.37-.26.55-.25S308.12,447.15,308.29,447.25Z"/><path class="cls-260" d="M244.52,198.09c-.33,1.82-.33,1.85-1.43,1.88s-2.35,0-3.53,0a7.09,7.09,0,0,1-3.35-1c-4.18-2.37-3.73-6.29-1.78-9a3.51,3.51,0,0,1,.74-.75,2.92,2.92,0,0,0,1.11-2.81,44,44,0,0,0-.43-4.89,3.17,3.17,0,0,1,.93-2.85c1.2-.68,2.29-1,3.5.16,1.43,1.36,3.43,1.48,5.26,1.87a2.93,2.93,0,0,0,2.37-.5c.29-.2.54-.45.84-.64,3-1.91,4.94-1.49,6.63,1.68a32.07,32.07,0,0,0,3.73,5.55l.22.25.93,1c.4.86.88,1.69,1.19,2.57a4.92,4.92,0,0,1-1.49,5.51,31.23,31.23,0,0,1-5,3.33,4.61,4.61,0,0,1-2.73.68c-.77-.06-1.45-.31-1.49-1.19-.11-2.36-.65-4.71,0-7.08.59-2.21,1.17-4.37,3.49-5.49a1,1,0,0,0,.31-.89,1.23,1.23,0,0,0-.73-.7,2.58,2.58,0,0,0-1.37-.09,4.89,4.89,0,0,0-3.48,5.14c.37,3.08-.06,6.12,0,9.16-1.17.06-2.14.48-2.93-.13s-.52-1.54-.8-2.31a2.47,2.47,0,0,1-.6-1.91c.25-3.25-2.6-4.84-3.85-7.28.66,2.53,2.92,4.17,3.69,6.65C244.94,195.33,243.87,196.72,244.52,198.09Z"/><path class="cls-261" d="M235.85,177.82c-.47.07-.93.17-1.39.23a4.52,4.52,0,0,1-5-2.55,5,5,0,0,1,.57-5.9c.31-.36.66-.67,1-1a2.17,2.17,0,0,0,.68-.15c1.29-.75,2.18-.25,3,.83a22.3,22.3,0,0,1,2.36,3.92,3,3,0,0,1-.55,3.85C236.3,177.28,236.08,177.56,235.85,177.82Z"/><path class="cls-262" d="M265.49,170.72a5.43,5.43,0,0,1-3.43,4.9,5,5,0,0,1-5.31-.71,1.8,1.8,0,0,1-.47-2.5,30.25,30.25,0,0,1,3.62-4.75,2.42,2.42,0,0,1,2.87-.58A3.53,3.53,0,0,1,265.49,170.72Z"/><polygon class="cls-2" points="259.33 187.01 259.11 186.98 259.11 186.76 259.32 186.79 259.33 187.01"/><path class="cls-263" d="M245.32,194.34c0,.72,0,1.44-.07,2.16-.57.38-.57,1-.73,1.59-.81-1.39-.31-3-.7-4.45C244.61,193.25,245,193.74,245.32,194.34Z"/><path class="cls-264" d="M200.44,456.15l.72.29c-.25.14-.49.37-.74.38a2.64,2.64,0,0,1-.89-.25C199.66,456.22,200,456.19,200.44,456.15Z"/><path class="cls-265" d="M208.19,456.86a1.47,1.47,0,0,1-1.51.67,1.92,1.92,0,0,1-.6-.25c.12-.12.22-.34.35-.35.58-.06,1.17-.05,1.76-.07Z"/><path class="cls-266" d="M291.77,439.64a2.31,2.31,0,0,1,1.93-.59l6.66-.08c.33.65-.15.82-.6.86A46.36,46.36,0,0,1,291.77,439.64Z"/><path class="cls-267" d="M311.71,458.22a2.21,2.21,0,0,0,.62.09c-.82,1.05-1.84.62-3.06.55C310.13,458,311,458.42,311.71,458.22Z"/><path class="cls-268" d="M300.24,448.17c-.8,0-1.6.08-2.4.07-.17,0-.49-.16-.49-.23,0-.49.45-.41.76-.47s.45,0,.68-.06A2.14,2.14,0,0,1,300.24,448.17Z"/><path class="cls-269" d="M227,468.32l.43,0C227.27,468.55,227.16,468.9,227,468.32Z"/><path class="cls-270" d="M185.89,472.54l-.43-.07c-.62-.72-1.78-.28-2.58-1,1.61-1,3.41.11,4.77-1l4,0c.46.31,1,.27,1.52.52l3.39.23a8.61,8.61,0,0,0,4.67,0H208a.51.51,0,0,1,0,.9c-1.79.79-3.65.35-5.5.35-3.07,0-6.15,0-9.22,0-1.28,0-2.63-.14-3.78.67H189A4.71,4.71,0,0,0,185.89,472.54Z"/><path class="cls-271" d="M202.56,472.45a2.28,2.28,0,0,1,1.94-.62l3.89-.11a20.67,20.67,0,0,1,6.93,0,1.91,1.91,0,0,0,.63.13,2.49,2.49,0,0,1,.79.76c-.47.67-1.18.64-1.88.65l-5.24,0-3.59,0-1.4-.15c-.65-.49-1.52,0-2.17-.51Z"/><path class="cls-228" d="M215.32,471.74l-6.93,0-.36-.52,5.34-.09A2.31,2.31,0,0,1,215.32,471.74Z"/><path class="cls-228" d="M201.25,471.2a4.3,4.3,0,0,1-4.67,0Z"/><path class="cls-228" d="M193.19,471a1.76,1.76,0,0,1-1.52-.52A1.52,1.52,0,0,1,193.19,471Z"/><path class="cls-228" d="M219.7,471.15l-.78.62Z"/><path class="cls-228" d="M216.74,472.63l-.79-.76A1,1,0,0,1,216.74,472.63Z"/><path class="cls-228" d="M202.46,472.63a2.6,2.6,0,0,1,2.17.51l-2.14-.13A2.43,2.43,0,0,0,202.46,472.63Z"/><path class="cls-272" d="M308.16,474.77l-.72,0c-1.16.56-2.51-.17-3.65.52l0,.1-3.53,0h-2.84l-3.38-.13a1.4,1.4,0,0,1,.48-1.44c4-.95,8-.44,12-.65,1.18-.06,2.37.06,3.56.09.55.77-.15.93-.59,1.21Z"/><path class="cls-273" d="M324.54,474.53l-1.39.24-3.66,0a3.46,3.46,0,0,0-.64-.13c-.88-.57-1.9-.08-2.81-.41a.54.54,0,0,1-.2-.54c0-.19.09-.29.15-.29.73-.18,1.55-.13,2.15-.72,2.94,0,5.87,0,8.81.11a3.92,3.92,0,0,1,1.27.52c-.42.66-1.1.69-1.79.72S325.06,474,324.54,474.53Z"/><path class="cls-274" d="M316,473.89c1,.21,2.05-.12,2.86.71l-9.28-.05c.19-.41.39-.81.59-1.22l1,.05a.86.86,0,0,0,1.12,0h1C314.11,474,315.17,473.29,316,473.89Z"/><path class="cls-275" d="M316,473.89c-.93,0-1.94.38-2.7-.52H316A4.69,4.69,0,0,0,316,473.89Z"/><path class="cls-272" d="M312.26,473.38c-.37.61-.74.63-1.12,0Z"/><path class="cls-276" d="M303.79,475.33c1.12-.82,2.41-.5,3.65-.52a2.54,2.54,0,0,0,0,.39Z"/><path class="cls-277" d="M245.32,194.34l-1.5-.7c-1.08-1.79-2.83-3.11-3.59-5.14-.22-.59-1-.53-1.52-.78a.7.7,0,0,1-.36-.88,1.38,1.38,0,0,1,.65-.78,2.24,2.24,0,0,1,1.35-.09,3.89,3.89,0,0,1,2.35,2,13.41,13.41,0,0,0,2.57,3.77A1.74,1.74,0,0,1,245.32,194.34Z"/></svg>