<svg id="Layer_1" data-name="Layer 1" xmlns="http://www.w3.org/2000/svg" viewBox="0 0 300 300"><defs><style>.cls-1{fill:#f1d2c0;}.cls-2{fill:#874a54;}.cls-3{fill:#eceda3;}.cls-4{fill:#ea834d;}.cls-5{fill:#1c364f;}.cls-6{fill:#1e364f;}.cls-7{fill:#1c354f;}.cls-8{fill:#1f3650;}.cls-9{fill:#22364f;}.cls-10{fill:#273850;}.cls-11{fill:#2f445b;}.cls-12{fill:#2d3e4e;}.cls-13{fill:#284053;}.cls-14{fill:#35354f;}.cls-15{fill:#343d54;}.cls-16{fill:#444b57;}.cls-17{fill:#4d3851;}.cls-18{fill:#433550;}.cls-19{fill:#43566b;}.cls-20{fill:#714c64;}.cls-21{fill:#403f54;}.cls-22{fill:#4f4369;}.cls-23{fill:#50475f;}.cls-24{fill:#6e3b55;}.cls-25{fill:#38354f;}.cls-26{fill:#39495f;}.cls-27{fill:#4e374f;}.cls-28{fill:#4f3b54;}.cls-29{fill:#43597e;}.cls-30{fill:#627586;}.cls-31{fill:#65465e;}.cls-32{fill:#434463;}.cls-33{fill:#687486;}.cls-34{fill:#304447;}.cls-35{fill:#6a3a54;}.cls-36{fill:#93586e;}.cls-37{fill:#607586;}.cls-38{fill:#664059;}.cls-39{fill:#4c5c82;}.cls-40{fill:#45566f;}.cls-41{fill:#4c5c72;}.cls-42{fill:#646c7f;}.cls-43{fill:#3d455e;}.cls-44{fill:#6b425c;}.cls-45{fill:#3f5f8c;}.cls-46{fill:#623e59;}.cls-47{fill:#37798b;}.cls-48{fill:#546d80;}.cls-49{fill:#39445d;}.cls-50{fill:#6f405a;}.cls-51{fill:#54425b;}.cls-52{fill:#373750;}.cls-53{fill:#52435c;}.cls-54{fill:#75465f;}.cls-55{fill:#77465e;}.cls-56{fill:#683a54;}.cls-57{fill:#78556c;}.cls-58{fill:#6f3e57;}.cls-59{fill:#747889;}.cls-60{fill:#554760;}.cls-61{fill:#786d80;}.cls-62{fill:#41425a;}.cls-63{fill:#283a53;}.cls-64{fill:#684b63;}.cls-65{fill:#7f8d9b;}.cls-66{fill:#49596d;}.cls-67{fill:#458494;}.cls-68{fill:#777e8e;}.cls-69{fill:#584e65;}.cls-70{fill:#6e8291;}.cls-71{fill:#448998;}.cls-72{fill:#6c4f66;}.cls-73{fill:#386377;}.cls-74{fill:#7c7d8e;}.cls-75{fill:#5a4f66;}.cls-76{fill:#424e66;}.cls-77{fill:#697386;}.cls-78{fill:#666075;}.cls-79{fill:#4d3f57;}.cls-80{fill:#4e7889;}.cls-81{fill:#787c8d;}.cls-82{fill:#755369;}.cls-83{fill:#4e485f;}.cls-84{fill:#32415a;}.cls-85{fill:#30546a;}.cls-86{fill:#473c55;}.cls-87{fill:#4f3d56;}.cls-88{fill:#5b6377;}.cls-89{fill:#373a53;}.cls-90{fill:#747a8b;}.cls-91{fill:#353c57;}.cls-92{fill:#4e5b70;}.cls-93{fill:#4d4860;}.cls-94{fill:#6c4058;}.cls-95{fill:#6c5269;}.cls-96{fill:#517a8b;}.cls-97{fill:#e9eef1;}.cls-98{fill:#5a536a;}.cls-99{fill:#2c3c55;}.cls-100{fill:#fdfdfd;}.cls-101{fill:#705268;}.cls-102{fill:#e8edef;}.cls-103{fill:#5d4d64;}.cls-104{fill:#564b62;}.cls-105{fill:#323d56;}.cls-106{fill:#46455c;}.cls-107{fill:#e83954;}.cls-108{fill:#604e65;}.cls-109{fill:#fad3d3;}.cls-110{fill:#203751;}.cls-111{fill:#8a615a;}.cls-112{fill:#453751;}.cls-113{fill:#1f364f;}.cls-114{fill:#ea844e;}.cls-115{fill:#263c4f;}.cls-116{fill:#24393a;}.cls-117{fill:#4e3750;}.cls-118{fill:#5f3851;}.cls-119{fill:#b03651;}.cls-120{fill:#fff;}.cls-121{fill:#21364f;}.cls-122{fill:#293c54;}.cls-123{fill:#27374f;}.cls-124{fill:#d2d2d2;}.cls-125{fill:#cad4d2;}.cls-126{fill:#505162;}.cls-127{fill:#6b5b50;}.cls-128{fill:#504b57;}.cls-129{fill:#815e54;}.cls-130{fill:#9aaeae;}.cls-131{fill:#a15848;}.cls-132{fill:#1f3649;}.cls-133{fill:#7b788a;}.cls-134{fill:#24364e;}.cls-135{fill:#304056;}.cls-136{fill:#773550;}.cls-137{fill:#e83a54;}.cls-138{fill:#603450;}.cls-139{fill:#7f3550;}.cls-140{fill:#4064ad;}.cls-141{fill:#2b3c63;}.cls-142{fill:#633550;}.cls-143{fill:#e43652;}.cls-144{fill:#48475e;}.cls-145{fill:#52344f;}.cls-146{fill:#4f344f;}.cls-147{fill:#fdfefe;}.cls-148{fill:#2c385a;}.cls-149{fill:#b13551;}.cls-150{fill:#62576c;}.cls-151{fill:#3f64ad;}.cls-152{fill:#ce3b57;}.cls-153{fill:#4b415c;}.cls-154{fill:#3f354f;}.cls-155{fill:#8e3752;}.cls-156{fill:#ce415d;}.cls-157{fill:#96566c;}.cls-158{fill:#db3753;}.cls-159{fill:#5e3550;}.cls-160{fill:#633450;}.cls-161{fill:#783550;}.cls-162{fill:#975f74;}.cls-163{fill:#3d3751;}.cls-164{fill:#653d56;}.cls-165{fill:#9c6377;}.cls-166{fill:#493a53;}.cls-167{fill:#615066;}.cls-168{fill:#50344e;}.cls-169{fill:#293b55;}.cls-170{fill:#2c3a51;}.cls-171{fill:#3b3d53;}.cls-172{fill:#444357;}.cls-173{fill:#ea8450;}.cls-174{fill:#fdfbfa;}.cls-175{fill:#97d2d6;}.cls-176{fill:#dddddc;}.cls-177{fill:#f4dcd0;}.cls-178{fill:#cbc3ab;}.cls-179{fill:#9ebdad;}.cls-180{fill:#23374f;}.cls-181{fill:#313e51;}.cls-182{fill:#36465c;}.cls-183{fill:#a05949;}.cls-184{fill:#2d3948;}.cls-185{fill:#2a374b;}.cls-186{fill:#313b49;}.cls-187{fill:#3e3c4d;}.cls-188{fill:#463f49;}.cls-189{fill:#2b394e;}.cls-190{fill:#92534b;}.cls-191{fill:#363b49;}.cls-192{fill:#767079;}.cls-193{fill:#1f364a;}.cls-194{fill:#23364e;}.cls-195{fill:#4c434a;}.cls-196{fill:#6e747f;}.cls-197{fill:#233750;}.cls-198{fill:#28374f;}.cls-199{fill:#383a4f;}.cls-200{fill:#203851;}.cls-201{fill:#4c5668;}.cls-202{fill:#e83953;}.cls-203{fill:#4b344e;}.cls-204{fill:#703550;}.cls-205{fill:#613550;}.cls-206{fill:#31344e;}.cls-207{fill:#5a344f;}.cls-208{fill:#573550;}.cls-209{fill:#4d354f;}.cls-210{fill:#4a3655;}.cls-211{fill:#8f344f;}.cls-212{fill:#e83852;}.cls-213{fill:#333e6a;}.cls-214{fill:#53344f;}.cls-215{fill:#48344e;}.cls-216{fill:#44344e;}.cls-217{fill:#803550;}.cls-218{fill:#4a344f;}.cls-219{fill:#423654;}.cls-220{fill:#30344e;}.cls-221{fill:#26344e;}.cls-222{fill:#653550;}.cls-223{fill:#65354f;}.cls-224{fill:#253550;}.cls-225{fill:#8d435c;}.cls-226{fill:#6b354f;}.cls-227{fill:#474158;}.cls-228{fill:#543b57;}.cls-229{fill:#593851;}.cls-230{fill:#545166;}.cls-231{fill:#64808f;}.cls-232{fill:#597082;}.cls-233{fill:#4d556a;}.cls-234{fill:#c43651;}.cls-235{fill:#b43551;}.cls-236{fill:#6d344f;}.cls-237{fill:#41445c;}.cls-238{fill:#51a0ac;}.cls-239{fill:#3b5d71;}.cls-240{fill:#437f8d;}.cls-241{fill:#4b475f;}.cls-242{fill:#5cb0ba;}.cls-243{fill:#9b3450;}.cls-244{fill:#5e6f82;}.cls-245{fill:#5a7687;}.cls-246{fill:#4c6f80;}.cls-247{fill:#4b687b;}.cls-248{fill:#57697c;}.cls-249{fill:#3c3c61;}.cls-250{fill:#3f3e59;}.cls-251{fill:#2e344e;}.cls-252{fill:#3c7384;}.cls-253{fill:#675269;}.cls-254{fill:#5cafb9;}.cls-255{fill:#468c9b;}.cls-256{fill:#533952;}.cls-257{fill:#3c697c;}.cls-258{fill:#3c576c;}.cls-259{fill:#b33955;}.cls-260{fill:#f9d4d3;}.cls-261{fill:#e8eba2;}.cls-262{fill:#eaeba2;}.cls-263{fill:#384a60;}.cls-264{fill:#903451;}.cls-265{fill:#1e354f;}.cls-266{fill:#2b344e;}.cls-267{fill:#a43551;}.cls-268{fill:#be3550;}.cls-269{fill:#47344e;}.cls-270{fill:#d53752;}.cls-271{fill:#e03551;}.cls-272{fill:#cf3451;}.cls-273{fill:#da3552;}.cls-274{fill:#7d354f;}.cls-275{fill:#cd3451;}.cls-276{fill:#503851;}.cls-277{fill:#36465d;}</style></defs><path class="cls-1" d="M111.7,76.52a8.62,8.62,0,0,0-2.66.32c-5,1.15-9.93,2.26-14.89,3.4-3.66.84-7.31,1.71-11,2.57l-10.3,2.42c-.32.07-.66.12-1,.18a.52.52,0,0,1-.64-.4c-.34-1.19-.7-2.37-1-3.58-.6-3-1.42-5.87-2.13-8.81C67,67.83,65.9,63,64.76,58.24,64,55,63.25,51.81,62.5,48.6c0-.22-.06-.45-.09-.67-.17-1.21-.17-1.24,1-1.51q4.5-1,9-2c2.3-.49,4.61-.94,6.91-1.42l9.36-2,8.71-1.82c4.65-1,9.31-1.93,14-2.91l9.86-2.08c3-.64,6-1.3,9-1.93l7.4-1.53L146.06,29a.63.63,0,0,1,.81.42,11.36,11.36,0,0,1,.46,1.61c.52,2.7,1.31,5.33,2,8,1.11,4.23,2.25,8.45,3.31,12.68,1.11,4.4,2.14,8.81,3.19,13.22a3.08,3.08,0,0,1,.09.67,1,1,0,0,1-.79,1.11,8.29,8.29,0,0,1-1.31.3c-3,.34-5.81,1.19-8.71,1.81-3.56.76-7.1,1.55-10.65,2.34-2,.44-3.94.88-5.89,1.39-.46.11-1,.1-1.33.62a1.49,1.49,0,0,1-.93.41c-1.39.22-2.75.55-4.11.88a1.82,1.82,0,0,1-.45.2,21.22,21.22,0,0,0-5.55,1.28,2.81,2.81,0,0,1-1,.06C114,76,112.94,76.72,111.7,76.52Z"/><path class="cls-2" d="M136.57,226a14.49,14.49,0,0,1,1.54-1.76,2.56,2.56,0,0,0,.91-2.37c-.08-1.34,0-2.68-.09-4-.26-7.11-.18-14.23-.25-21.34,0-2.75,0-5.49,0-8.24a5.15,5.15,0,0,1,3.05-.76,47.26,47.26,0,0,1,6.07-.06c.67,0,1.37.08,1.71.82.07,3.6.16,7.2.21,10.8,0,1.23,0,2.47-.09,3.7a64.94,64.94,0,0,0,.1,8.6c0,.5.06,1,.07,1.52l.33,15.17c0,.34,0,.67.06,1-.06.07-.13.14-.19.22a7.2,7.2,0,0,1-3.45.16c-1.61-.27-3.2-.57-3.58-2.56-1.31-.71-2.72-.2-4.07-.35C138.11,226.39,137.22,226.7,136.57,226Z"/><path class="cls-3" d="M149.52,188.21a7.25,7.25,0,0,0-3-.39c-2.62.16-5.25.27-7.87.39h-2a12.44,12.44,0,0,1-4-.35c-.65-.54-.49-1.3-.52-2-.07-1.59.12-3.18,0-4.77.06-.61.53-.87,1-1.15.94-.56,1.88-1.13,1.8-2.45.46-1.86-1-3.2-1.33-4.85,0-1.24-.29-2.45-.33-3.67-.05-1.37.44-1.75,1.74-1.31a4.18,4.18,0,0,0,3.09-.18,2.83,2.83,0,0,1,2.25-.35c.89.84.9,2,1.14,3.08a60.05,60.05,0,0,0,1.88,6.61c.21.61.44,1.46,1.32,1.19s.62-1.09.46-1.73a59.68,59.68,0,0,0-2.46-8.18,2.73,2.73,0,0,1-.41-1.76c2.28-2.57,4.05-2.76,6.52-.54,1.35,1.22,3.15,1.67,4.5,2.86,1.06,1.57.42,3.27.28,4.89-.32,3.47-.1,6.94-.14,10.41,0,1.37,1.27,2.18,1.46,3.46a3.1,3.1,0,0,1-2.4.82C151.49,188.19,150.5,188.22,149.52,188.21Z"/><path class="cls-2" d="M162.39,230.05c.7-.3,1.39-.61,1.42-1.53a.25.25,0,0,1,.08-.15,7.2,7.2,0,0,0,1.18-4.61c0-3.91.17-7.84-.12-11.75-.24-3.07-.24-6.14-.27-9.22,0-.34,0-.67,0-1,3.06-.42,6-1.76,9.22-.9.43.12.89.14,1.15.59,0,.72-.1,1.45-.08,2.17.14,3.91.31,7.82.46,11.73.11,2.85.4,5.68.76,8.51A13.1,13.1,0,0,0,177,227c-.79.86-1.78.29-2.69.35-.67.05-1.32-.21-2-.11a7.68,7.68,0,0,1-2,.28c-.5,0-.95.2-1,.69-.22,1.73-1.57,1.78-2.82,2-.32,0-.64.09-1,.09a2.92,2.92,0,0,0-1.55.07,2.42,2.42,0,0,1-.7.1A1.08,1.08,0,0,1,162.39,230.05Z"/><path class="cls-4" d="M111.7,76.52c.13-.1.25-.26.39-.29a23.85,23.85,0,0,1,3.34-.69c.16.25.36.48.54.71a10.86,10.86,0,0,1,.43,1.07c.49,1.36.81,2.77,1.34,4.11a4.15,4.15,0,0,1,.11.48,7.55,7.55,0,0,0,.58,2.09c.53,1.56.71,3.23,1.58,4.67.31.79.26,1.66.52,2.47a6.9,6.9,0,0,0,.27,1c.88,2.66,1.62,5.37,2.51,8,.08.45-.06.94.23,1.35a4.23,4.23,0,0,1,.39.9c2.65,9.2,5.39,18.37,8.14,27.54a9.05,9.05,0,0,0,.63,1.74,22.09,22.09,0,0,0,1.41,4.83,2.75,2.75,0,0,1,0,1c-.1,2.44-1.06,3.17-3.3,2.53a2.29,2.29,0,0,1-.8-.68,14.7,14.7,0,0,1-1.13-3.16c-2.15-7.11-4.24-14.22-6.35-21.34a4.16,4.16,0,0,1-.16-.5c-1.44-5.21-3.14-10.34-4.5-15.57a2.14,2.14,0,0,1-.15-1,2.77,2.77,0,0,0-.23-1.63L113.2,81.49C112.71,79.83,112.2,78.18,111.7,76.52Z"/><path class="cls-5" d="M175.08,201.47l-2.47-.38a11.63,11.63,0,0,0-4,.39c-.71.14-1.41.31-2.11.47a3.29,3.29,0,0,1-1.81-.17L163,200.7a2.05,2.05,0,0,1-.88-2.49,7.52,7.52,0,0,1,.27-.8,1.31,1.31,0,0,0,0-1.26,2.88,2.88,0,0,1-.08-1.32c.06-1.23.25-2.46.21-3.69-.09-2.29.32-2.19-2.15-2.35a16.25,16.25,0,0,1-5.52-1.38,4.52,4.52,0,0,1-1.92-4c0-3.51-.3-7,.22-10.53.12-.83.15-1.67.23-2.5a2,2,0,0,0-.52-1.71c0-.39.24-.49.55-.54,1.63.54,1.38,2,1.23,3.1a99.71,99.71,0,0,0-.26,10.93c0,3.53.55,4.36,4,5,2.43.43,4.87.77,7.29,1.25A5,5,0,0,1,169,190.2c1.47,2.47,1.42,3.59-.13,5.06a3.63,3.63,0,0,1-2.64.83c-.75,0-1.6-.18-2.08.69-1,2.63,0,4.05,2.77,3.44a22.79,22.79,0,0,1,10.83.38,4,4,0,0,1,3,2c1.54,3.63,4.79,4,7.9,3.88a48.21,48.21,0,0,0,8.36-.94c2.94-.59,3.84-1.72,4-4.73.3-4.65,1-9.27,1.38-13.91.53-6.44,1.73-12.8,2.13-19.25a17,17,0,0,1,3-6.69,4.55,4.55,0,0,0,.7-4c-1-4.5-1.89-9-2.56-13.58-1.26-8.44-2.7-16.85-3.83-25.31a22.43,22.43,0,0,1,.83-10,17.73,17.73,0,0,0,.72-3.46c.52-4.21-3.74-7.52-7.18-7.07a17.09,17.09,0,0,0-5.67,1.47,17.13,17.13,0,0,1-3.88,1.62.84.84,0,0,1-.74-.23.65.65,0,0,1-.07-.49c.14-.35.61-.25.78-.56,1.37-.76,2.69-1.64,4.13-2.26A14.42,14.42,0,0,1,198.5,96a4.32,4.32,0,0,1,2.68,1.3,5.49,5.49,0,0,0,.61.57c2.73,2.07,3.42,4.89,3,8.1a11.22,11.22,0,0,1-.52,2.13,21.49,21.49,0,0,0-.68,12.12c.44,2,.56,4,.89,6,.28,1.72.72,3.42.91,5.14.41,3.8,1.21,7.54,1.62,11.34.31,2.9.94,5.77,1.48,8.64.4,2.15.85,4.29,1.33,6.43a3.87,3.87,0,0,1-.16,2.31,8.1,8.1,0,0,1-2.64,3.83,2.09,2.09,0,0,0-.88,1.7c-.45,5.15-1.15,10.28-1.81,15.4-.16,1.22-.21,2.46-.28,3.7-.23,3.87-.87,7.7-1.26,11.56-.13,1.29-.17,2.57-.19,3.87a15.06,15.06,0,0,1-.3,2.67,5,5,0,0,1-3.76,3.88,9,9,0,0,1-3.47.58,10.93,10.93,0,0,0-3,.36,13.4,13.4,0,0,1-6.51,0,8.37,8.37,0,0,0-1.33-.2,4.74,4.74,0,0,1-3.84-2.67,14.39,14.39,0,0,1-.7-1.35,2.2,2.2,0,0,0-1.76-1.4Z"/><path class="cls-6" d="M117.75,97.75a1.06,1.06,0,0,1,.41.69c0,.17,0,.42-.16.43-1.55,0-2.7,1.24-4.28,1.39a4.93,4.93,0,0,0-4.28,3.6c-1.07,3.3-1,6.54,1.1,9.48a5,5,0,0,1,1,3c0,2.08,0,4.16,0,6.24a125.23,125.23,0,0,0,.71,16.31c.51,4.57.3,9.19,1,13.76.23,1.6.34,3.23.45,4.86a7.56,7.56,0,0,0,1.81,4.8,1.35,1.35,0,0,1,.45,1.51.35.35,0,0,1-.49.14,3.56,3.56,0,0,1-2-1.72,8,8,0,0,1-1.26-3.77c-.29-3.75-.71-7.49-1.06-11.23-.07-.84-.09-1.68-.09-2.53a58,58,0,0,0-.58-8.22,39.64,39.64,0,0,1-.37-4.36,161.72,161.72,0,0,1,0-16.33,1.82,1.82,0,0,0-.59-1.64,5.92,5.92,0,0,1-1.59-2.91,12.93,12.93,0,0,1-.28-6.33,8.57,8.57,0,0,1,2.86-4.84,5.33,5.33,0,0,1,1.41-.89c1.14-.46,2.32-.83,3.48-1.23A6.82,6.82,0,0,1,117.75,97.75Z"/><path class="cls-7" d="M132.36,180.91a3,3,0,0,1,.4,1.9,31.4,31.4,0,0,0-.07,5c0,.67-.07,1.34-.11,2a2.43,2.43,0,0,0,.3,1.29,4,4,0,0,1-.89,5.19c-.32.11-.47-.09-.58-.35a1.23,1.23,0,0,1,0-.66c.91-2.83.18-4.74-2.44-6.23-1.07-.61-2.17-1.16-3.2-1.83-2.42-1.59-2.47-3.29-.22-5a5.87,5.87,0,0,1,3.75-1.23,3.86,3.86,0,0,0,1.9-.53C131.71,180.25,132.28,180,132.36,180.91Z"/><path class="cls-8" d="M186,100.15l.32.32c.15.43-.16.62-.44.78-2,1.12-3.71,2.78-5.73,3.93a4.83,4.83,0,0,0-1.06,2.06,11,11,0,0,1-6.13,6.52,2.56,2.56,0,0,1-.93.36c-2.56-.09-3.53,2-4.85,3.54-.42.5-.69,1.18-1.51,1.19a.69.69,0,0,1-.5-.56,1.62,1.62,0,0,1,.38-1.26c2.17-2.78,2.28-6,1.84-9.26a3.3,3.3,0,0,1,2-3.67c.47,0,.61.32.68.71a11.64,11.64,0,0,0-.88,5.38c.14,1.67.82,2.26,2.42,1.72a8.49,8.49,0,0,0,5.82-5.83,5.12,5.12,0,0,1,2.83-3.5c3.88-1.87,5.57-5,5.27-9.28a6.77,6.77,0,0,1,.37-3c.13-.31.18-.84.78-.58a25.1,25.1,0,0,1,0,5.48,10.59,10.59,0,0,1-.54,3,3.09,3.09,0,0,0-.21,1.31l0,.15-.15.28A.35.35,0,0,0,186,100.15Z"/><path class="cls-9" d="M126.27,73.17a1.69,1.69,0,0,1,1,0c.48.62,1,1.23,1.42,1.87A11.1,11.1,0,0,0,130.52,77a9.41,9.41,0,0,1,2.29,2.88,11,11,0,0,0,1.77,2.46.59.59,0,0,0,.74.18c2.63-1.05,5.2-.47,7.75.27,1,.3,2,.7,3,1a8.82,8.82,0,0,1,2.54,1.29c1,.73,2,1.4,3.05,2.12a.55.55,0,0,0,.86-.14,3.63,3.63,0,0,1,1.54-1.49c.33-.18.47,0,.58.28a1,1,0,0,1-.14.47c-1.85,3.23-2.56,3.48-5.47,1.12-2.3-1.86-5-2.7-7.67-3.54a10.83,10.83,0,0,0-5.81-.27,2.2,2.2,0,0,1-2.7-1.18c-1.55-3-4.11-5.14-6.16-7.72C126.37,74.3,125.73,73.89,126.27,73.17Z"/><path class="cls-9" d="M158.62,83.21a14.76,14.76,0,0,1,9.44-1.39c.59.09,1.17.41,1.79.08.21-.11.42.06.6.21.34.27.69.52,1,.78s1.12.15,1.39.75c-1.33,4.59-1.45,9.32-1.62,14a5.91,5.91,0,0,1-.14,1.39c-.4,1.13-.11,2.33-.29,3.49a1.35,1.35,0,0,1-.2.5c-.59.47-.74-.09-1-.43a1.37,1.37,0,0,1-.08-.53,7.59,7.59,0,0,0,.06-1.07,56.67,56.67,0,0,0-.23-7.37,2.51,2.51,0,0,1,.21-1.48c1.16-2.39.64-4.83.23-7.25-.22-1.29-1.27-1.65-2.37-1.76a17.11,17.11,0,0,0-6.33.42,5.54,5.54,0,0,1-1.81.35C159,83.84,158.5,83.8,158.62,83.21Z"/><path class="cls-10" d="M172.46,83.61c-.34-.22-.79-.28-1-.72.21,0,.47.12.62-.12,1.37-2.07,3.36-3.62,4.73-5.7a5.47,5.47,0,0,1,.78-.89c1.7-1.71,3.42-3.41,5.12-5.12,1-1,1.95-2,2.89-3.07a18.36,18.36,0,0,1,5-3.92,3.71,3.71,0,0,1,3.09-.36c0,.84-.81.62-1.21.93a16.28,16.28,0,0,0-5.5,3.81c-4.73,4.47-8.78,9.59-13.45,14.13A9,9,0,0,1,172.46,83.61Z"/><path class="cls-11" d="M186.7,95.21l-.06-4.29c0-.43.09-.89-.29-1.24a3.78,3.78,0,0,1-.16-3.67c1.12-3.1,2.47-6.11,3.76-9.14.22-.51.42-1.06,1.08-1.17.47.13.62.39.36.83-.45,1.08-.9,2.17-1.33,3.26q-1.35,3.45-2.68,6.9a4.88,4.88,0,0,0-.31,1.65c0,1.63-.09,3.25-.14,4.88A4.8,4.8,0,0,1,186.7,95.21Z"/><path class="cls-12" d="M120.2,188.55a15,15,0,0,1-2.76-1.86,2.14,2.14,0,0,1-.82-1.91c0-1.28,0-2.57-.15-3.84-.17-1.83-.44-3.65-.65-5.48-.06-.55-.08-1.11-.11-1.66s-.48-1.33.27-1.85a1,1,0,0,1,.52.82c.51,3.33,1.34,6.62,1.37,10,0,1.84.38,3.3,2,4.27a2.93,2.93,0,0,1,.36.43l.14.24C120.42,188,120.86,188.4,120.2,188.55Z"/><path class="cls-13" d="M131.57,195.92l.42.42a2.45,2.45,0,0,1-2.84,1.23c-3.37-.4-5.47-2.35-6.8-5.32-.34-.77-.65-1.55-1-2.32.32-.27.63-.13.94,0,1,.76,1.23,2,1.83,3a6.37,6.37,0,0,0,5,3.47C130.06,196.48,130.73,195.85,131.57,195.92Z"/><path class="cls-14" d="M126.9,237.81l.62-.35a1.27,1.27,0,0,1,.61-.13c1.62,0,3.25-.09,4.87,0,.65,0,1.49.06,1.48,1s-.86,1-1.5,1c-2.22,0-4.49.47-6.62-.59a.42.42,0,0,1-.14-.56h0C126.4,238,126.72,238,126.9,237.81Z"/><path class="cls-15" d="M192.39,64.36a.78.78,0,0,1,.67-.33.75.75,0,0,0,.67-.32l.32,0c.21.17.52.1.7.3a2.44,2.44,0,0,0,1.38.51c1,0,1.55.77,2.11,1.45a1.88,1.88,0,0,1,.31,1.42,1.08,1.08,0,0,1-.67,1,.78.78,0,0,0-.41.28l-.05,0c-.16.19-.46.11-.62.31l-.05,0c-.35.26-.59.14-.74-.23a.9.9,0,0,1,.18-.44c1.48-1.31,1.37-1.93-.4-2.71A29.38,29.38,0,0,1,192.39,64.36Z"/><path class="cls-16" d="M116,172c-.5.52-.15,1.2-.33,1.78a4.17,4.17,0,0,1-.3-2c0-2.63,0-5.26,0-7.89l.33,0c.86.93.25,2.19.74,3.2C116.51,168.76,117.08,170.46,116,172Z"/><path class="cls-17" d="M162,235.45a7.62,7.62,0,0,0-.29-1.64c0-.09.11-.28.16-.43l.53-.28c2.21-.47,4.43-.95,6.6.2.26.33,0,.52-.19.7a12.37,12.37,0,0,1-3.93.23,2.5,2.5,0,0,0-2.38,1.16A.37.37,0,0,1,162,235.45Z"/><path class="cls-18" d="M150.82,232.72l0,.38c-.25.55.07,1.18-.23,1.73l-.05,1.29A.32.32,0,0,1,150,236c-.79-2.69-.92-2.78-3.84-2.81-.28,0-.56,0-.84,0-.62-.11-1.41.12-1.64-.79,2-1.15,4.13-.48,6.21-.41A1.23,1.23,0,0,1,150.82,232.72Z"/><path class="cls-19" d="M191.39,76.53c0-.28-.07-.56-.36-.7a.65.65,0,0,1-.12-.78c.86-1.47,1.4-3.14,2.67-4.36a.59.59,0,0,1,.55.45A47,47,0,0,1,191.39,76.53Z"/><path class="cls-20" d="M178.19,227.06a2.26,2.26,0,0,1,1.15.14,1.56,1.56,0,0,1,1.31,1.67c0,1.06.23,2.12.36,3.17a.44.44,0,0,1-.51.06,3.18,3.18,0,0,1-.71-2.19,1.62,1.62,0,0,0-1.8-1.76c-.68,0-1.5.17-1.87-.73C176.73,226.89,177.54,227.44,178.19,227.06Z"/><path class="cls-21" d="M158.62,83.21c.12.33.41.38.71.41A9.05,9.05,0,0,1,154.58,86l-.49-.38A10.85,10.85,0,0,1,158.62,83.21Z"/><path class="cls-22" d="M120.46,241.55a7.5,7.5,0,0,1,2.63-1.4c.29-.21.41,0,.53.23a14.53,14.53,0,0,0-.69,2.84c-.56.22-.81-.16-1-.56s-.39-.77-.9-.8a1.69,1.69,0,0,1-.43-.15Z"/><path class="cls-23" d="M162.68,246.26c-.1-.12-.28-.24-.29-.36a16.79,16.79,0,0,1-.11-3.09,8.32,8.32,0,0,0,0-1.32,5.09,5.09,0,0,1,.07-1.65.34.34,0,0,1,.47.06c.56,1,.2,2.21.4,3.31.1.57-.23,1.16.1,1.72a1.84,1.84,0,0,1,.24.6,1.06,1.06,0,0,1-.09.42,1,1,0,0,1-.56.31Z"/><path class="cls-24" d="M132.26,227a.3.3,0,0,1,.32-.29l.39-.23.58-.13c.34-.18.75,0,1.1-.22l1.71-.06c.38.42,1.11-.18,1.41.49a1,1,0,0,1-1.11.59,14.75,14.75,0,0,0-4.38.65A.71.71,0,0,1,132.26,227Z"/><path class="cls-25" d="M185,238.16l.94.68c.14.43-.09.69-.43.9a2.3,2.3,0,0,1-.81.2,3.85,3.85,0,0,1-1.48-.08c-1-.38-1.13-.86-.08-1.37a4.53,4.53,0,0,0,1.2-.32A.57.57,0,0,1,185,238.16Z"/><path class="cls-26" d="M194.13,71.14l-.44-.44c0-1.65,1.1-1.9,2.4-1.93a.76.76,0,0,0,.66.33C196,69.88,194.82,70.23,194.13,71.14Z"/><path class="cls-27" d="M137.78,226.41c-.47-.14-1.05.11-1.42-.39a.19.19,0,0,1,.21-.07l5.9.05c.49,0,.9.09,1,.68l-.22.16a1.52,1.52,0,0,1-.56.08C141.05,226.56,139.34,227.24,137.78,226.41Z"/><path class="cls-28" d="M178.19,227.06a.94.94,0,0,1-.74.29c-.44,0-.88.05-1.32.07a4.68,4.68,0,0,1-3.43.23.77.77,0,0,1-.55-.92,27.21,27.21,0,0,1,2.72.16A10.67,10.67,0,0,0,177,227Z"/><path class="cls-29" d="M119.74,245.69a5.77,5.77,0,0,1,.06-3.44,1,1,0,0,1,.66-.7l.12.07a.89.89,0,0,1,.18.49,19.34,19.34,0,0,1-.41,3.11A.91.91,0,0,1,119.74,245.69Z"/><path class="cls-30" d="M143.46,249.28l-1.31.41c-.27.13-.41,0-.52-.23a16.08,16.08,0,0,0-.41-2,1,1,0,0,1,.07-.46c.64-.61.94-.1,1.26.37a1.71,1.71,0,0,0,.88,1.1.66.66,0,0,1,.19.37A.57.57,0,0,1,143.46,249.28Z"/><path class="cls-31" d="M123.51,240.44l-.42-.29a10.2,10.2,0,0,1,3.13-2v.48A3,3,0,0,1,123.51,240.44Z"/><path class="cls-32" d="M190.43,241.51a4.69,4.69,0,0,1,1.78,1,.71.71,0,0,1-.36.28,1.32,1.32,0,0,0-1.25.84c-.16.4-.42,1-1.06.46a4.61,4.61,0,0,1,.24-2.3C189.93,241.54,190.11,241.34,190.43,241.51Z"/><path class="cls-33" d="M121.83,250.64c-1.32-.26-1.68-1.18-1.64-2.38.27-.3,0-.78.31-1.06a.55.55,0,0,1,.55.34,3.15,3.15,0,0,0,1.13,2.38.59.59,0,0,1,0,.45Z"/><path class="cls-34" d="M122.21,190.22l-.84-.29-1.17-1.38c.29-.24,0-.47,0-.71C121.74,188,122.26,188.58,122.21,190.22Z"/><path class="cls-35" d="M150.82,232.72l-.66-.32a3.65,3.65,0,0,1-.32-2.78,1.22,1.22,0,0,1,.3-.48l.06-.13a.62.62,0,0,1,.43.62C150.7,230.66,150.76,231.69,150.82,232.72Z"/><path class="cls-36" d="M183.89,252.4a4.41,4.41,0,0,1-1.91.19c-.69-.3-1.5.2-2.15-.35.89-1.21,2.09-.62,3.2-.58A1.21,1.21,0,0,1,183.89,252.4Z"/><path class="cls-37" d="M170.5,250.62a2.54,2.54,0,0,1-1.06-.4,1,1,0,0,1,.12-.64c.21-.48.13-1.08.6-1.45a.77.77,0,0,1,1.06.29,3.68,3.68,0,0,1-.19,1.71A1.15,1.15,0,0,1,170.5,250.62Z"/><path class="cls-38" d="M185.62,239.43c.11-.2.22-.4.34-.59a7,7,0,0,1,2.73,1.67l-.09.22a.65.65,0,0,1-.39.24l-.24,0C187.16,240.49,186.18,240.28,185.62,239.43Z"/><path class="cls-39" d="M191.68,242.59l.53-.08a1.07,1.07,0,0,1,.68.86,6.39,6.39,0,0,1-.09,3.7c-.93-.86-.28-2.07-.66-3C192,243.55,191.57,243.15,191.68,242.59Z"/><path class="cls-40" d="M120.5,247.24c-.08.35,0,.76-.31,1-.08-.87-.69-1.64-.45-2.57l.37-.45a2.9,2.9,0,0,1,1.1,1.56C121.1,247.16,120.75,247.11,120.5,247.24Z"/><path class="cls-41" d="M150.21,236.14l.3,0a27.72,27.72,0,0,1-.28,5.15c-.55-.45-.47-1.09-.51-1.69,0-.89,0-1.78.06-2.68A1.16,1.16,0,0,1,150.21,236.14Z"/><path class="cls-42" d="M192.38,248.28a15.22,15.22,0,0,1-.11,1.79c-.09.53-.22,1.1-.92,1.2a.49.49,0,0,1-.41-.47,6.79,6.79,0,0,0,.59-1.87,1,1,0,0,1,.45-.74A.34.34,0,0,1,192.38,248.28Z"/><path class="cls-43" d="M191,250.93l.35.34-1,.54a1.09,1.09,0,0,0-.66.15H189c-.19-.26-.77,0-.76-.54A2.65,2.65,0,0,1,191,250.93Z"/><path class="cls-44" d="M185,238.16l-.45.38A3,3,0,0,1,182.5,237c0-.28.2-.4.43-.47A5.7,5.7,0,0,1,185,238.16Z"/><path class="cls-45" d="M192.39,243.55c.36.27.33.66.34,1,0,.82.05,1.65.07,2.47a1,1,0,0,1-.36,1,1.19,1.19,0,0,1-.59-.93C192,245.91,191.61,244.64,192.39,243.55Z"/><path class="cls-46" d="M162.44,233.37h-.55c0-1,.06-1.94.1-2.91a.43.43,0,0,1,.4-.42l1,0a.41.41,0,0,1,0,.45C162.49,231.29,163,232.51,162.44,233.37Z"/><path class="cls-47" d="M137.12,251.69a1.11,1.11,0,0,1-.75.28,19.58,19.58,0,0,1-3.75-.06.34.34,0,0,1,.16-.45,2.72,2.72,0,0,1,1.29-.24,11.12,11.12,0,0,1,2.64.14A.89.89,0,0,1,137.12,251.69Z"/><path class="cls-48" d="M180.29,252.72a8.06,8.06,0,0,1-4.25,0c.8-.8,1.82-.42,2.76-.5A2.42,2.42,0,0,1,180.29,252.72Z"/><path class="cls-49" d="M150.41,242.5l-.22,2.07a.52.52,0,0,1-.6.12c-.38-.33-.11-.85-.37-1.21a.94.94,0,0,1-.13-.63,1,1,0,0,1,.69-.54A.89.89,0,0,1,150.41,242.5Z"/><path class="cls-50" d="M131.25,232.91l-.05-.08.06-.06a.33.33,0,0,1,.44,0c.46.84-.09,1.41-.53,2a.81.81,0,0,1-.43.22.54.54,0,0,1-.43-.2,1,1,0,0,1,.3-1c.1-.12.23-.22.33-.35h0A.73.73,0,0,0,131.25,232.91Z"/><path class="cls-51" d="M128.07,237.5l-.55,0a4.48,4.48,0,0,1,1.55-1.48,3.39,3.39,0,0,1,.45,0,.45.45,0,0,1,.17.39A1.83,1.83,0,0,1,128.07,237.5Z"/><path class="cls-52" d="M129.61,236.14l-.43-.1-.06-.09c.41-.38,1-.62,1.19-1.19l.29,0c.24.22.74.07.78.56a.67.67,0,0,1-.55.54c-.14.1-.22-.32-.39,0a1.73,1.73,0,0,1-.28.26C130,236.21,129.79,236.28,129.61,236.14Z"/><path class="cls-53" d="M180.57,232.08l.44,0a.54.54,0,0,1,.28.51l0,1.1c.16.42-.07.52-.43.52A1.43,1.43,0,0,1,180.57,232.08Z"/><path class="cls-54" d="M190.43,241.51l-.49.43c-.75-.05-1.49-.09-1.6-1.08l.06-.09.16-.16.13-.1Z"/><path class="cls-55" d="M178.91,252.59l-2.87.12-.43,0c-.21-.14-.23-.29-.06-.47a4.05,4.05,0,0,1,3.15-.1A.38.38,0,0,1,178.91,252.59Z"/><path class="cls-56" d="M150.41,242.5h-.62a3,3,0,0,1-.14-2.84.34.34,0,0,1,.5-.14l.08,1.74Z"/><path class="cls-57" d="M162.62,239.85h-.28l-.23-1.69c.28-.29-.3-1.05.56-1A2,2,0,0,1,162.62,239.85Z"/><path class="cls-58" d="M134,251.63l-1.36,0a2.45,2.45,0,0,1-1.86,0h0c-.26,0-.32-.17-.2-.4a1.44,1.44,0,0,1,.78-.36,4.85,4.85,0,0,1,2.53.23A.35.35,0,0,1,134,251.63Z"/><path class="cls-59" d="M166.76,248.93c-.3-.07-.6-.14-.91-.19a1,1,0,0,1-.79-.45.7.7,0,0,1,.45-.56,1.06,1.06,0,0,1,1.39.73A.61.61,0,0,1,166.76,248.93Z"/><path class="cls-60" d="M131.62,231.07a15.79,15.79,0,0,0,.37-2.37.33.33,0,0,1,.46.09,2.18,2.18,0,0,1-.11,2.27.62.62,0,0,1-.49.14Z"/><path class="cls-61" d="M174.4,252.34l-.79-.07c-.19,0-.3-.13-.43-.23l-.11-.06a.8.8,0,0,1-.09-.48.43.43,0,0,1,.36-.31c.7.26,1.77,0,1.79,1.24A.85.85,0,0,1,174.4,252.34Z"/><path class="cls-62" d="M124.81,251c-.6,0-1.2,0-1.8,0a1,1,0,0,1-.88-.33.16.16,0,0,1-.06-.19c0-.06.05-.1.08-.1a.14.14,0,0,0,0-.16,4.51,4.51,0,0,1,2.52.13.48.48,0,0,1,.27.4Z"/><path class="cls-63" d="M178.91,252.59a1.79,1.79,0,0,1,0-.23.6.6,0,0,1,.89-.07l1.26.07a1.21,1.21,0,0,1,.9.23,4.58,4.58,0,0,1-1.69.13Z"/><path class="cls-64" d="M181,234.1l.35-.45c.22.53.85.83.88,1.48-.09.23-.19.45-.5.42C181.18,235.21,180.47,235,181,234.1Z"/><path class="cls-65" d="M139.39,251a2.87,2.87,0,0,1-1.75.68.63.63,0,0,1-.1-.44c.28-.59.82-.67,1.38-.7A.61.61,0,0,1,139.39,251Z"/><path class="cls-66" d="M162.39,237.1c-.09.35,0,.75-.28,1.05a10.19,10.19,0,0,1-.09-2.7l.31,0A1.15,1.15,0,0,1,162.39,237.1Z"/><path class="cls-67" d="M129.94,251.62a6,6,0,0,1-2.83-.27,1.32,1.32,0,0,1,1-.46,3.08,3.08,0,0,1,1.67.24A.36.36,0,0,1,129.94,251.62Z"/><path class="cls-68" d="M141.76,249.31l.39.38a3.25,3.25,0,0,1-1.45.6c-.2-.13-.41-.25-.38-.54A1.08,1.08,0,0,1,141.76,249.31Z"/><path class="cls-69" d="M148.53,246.69a1.53,1.53,0,0,1-.92.61.47.47,0,0,1-.5,0c0-1,.58-1.19,1.41-1.11A.41.41,0,0,1,148.53,246.69Z"/><path class="cls-70" d="M172.15,251.31a2.36,2.36,0,0,1-1.44-.63,1.19,1.19,0,0,1,.48-.49,1,1,0,0,1,1.11.69A.57.57,0,0,1,172.15,251.31Z"/><path class="cls-71" d="M187.69,252a3.91,3.91,0,0,1-2.11.27.42.42,0,0,1,.1-.44,1.49,1.49,0,0,1,.68-.23,1.94,1.94,0,0,1,1.18.21Z"/><path class="cls-72" d="M131.74,232.79l-.48,0,0-1.17a.55.55,0,0,1,.33-.53l.13.06a2.88,2.88,0,0,1,.33,1.21C132.08,232.58,132,232.75,131.74,232.79Z"/><path class="cls-73" d="M127,251.31a3.83,3.83,0,0,1-2.14-.28l.07-.12a1.83,1.83,0,0,1,1.49-.28,1.46,1.46,0,0,1,.48.21A.4.4,0,0,1,127,251.31Z"/><path class="cls-74" d="M168.77,249.93c-.38-.16-.82-.19-1.08-.57a.39.39,0,0,1,0-.44,1.2,1.2,0,0,1,1.48.5C169.2,249.72,169,249.85,168.77,249.93Z"/><path class="cls-75" d="M139.39,251l-.35-.27a.82.82,0,0,1,1-.62.73.73,0,0,1,.41.27.69.69,0,0,1-.54.32h0Z"/><path class="cls-76" d="M149.45,244.52l.74,0-.06.65a.4.4,0,0,1-.38.14,1.7,1.7,0,0,1-1-.44.48.48,0,0,1,0-.42A.53.53,0,0,1,149.45,244.52Z"/><path class="cls-77" d="M149.85,245.24a.65.65,0,0,1,.28,0,1.25,1.25,0,0,1-1,1.06.77.77,0,0,1-.17-.44C149.12,245.42,149.31,245.07,149.85,245.24Z"/><path class="cls-78" d="M150.56,234.83c-.07-.6-.28-1.21.23-1.73A3.64,3.64,0,0,1,150.56,234.83Z"/><path class="cls-79" d="M149.17,245.83v.45a.93.93,0,0,1-.64.41l0-.44C148.47,245.7,148.79,245.72,149.17,245.83Z"/><path class="cls-80" d="M130.77,251.66h1.86a2.35,2.35,0,0,1,0,.26A2.83,2.83,0,0,1,130.77,251.66Z"/><path class="cls-81" d="M145.82,248c-.23.4-.72.42-1,.69,0-.06-.09-.12-.13-.19a.81.81,0,0,1,0-.46.94.94,0,0,1,1.2-.45A.32.32,0,0,1,145.82,248Z"/><path class="cls-82" d="M132.31,228.7H132c0-.59-.13-1.21.27-1.75l.09.75A.72.72,0,0,1,132.31,228.7Z"/><path class="cls-83" d="M163.74,247.58l-.46-.32A.36.36,0,0,0,163,247a1.09,1.09,0,0,1,0-.18.26.26,0,0,1,.08-.39c.6-.16.92.14,1.11.66a1,1,0,0,1-.07.48A.25.25,0,0,1,163.74,247.58Z"/><path class="cls-84" d="M185.58,252a.57.57,0,0,1,0,.26,3.33,3.33,0,0,1-1.37,0,.46.46,0,0,1,.06-.45,1.27,1.27,0,0,1,.45-.19A.83.83,0,0,1,185.58,252Z"/><path class="cls-85" d="M188.26,251.61a1,1,0,0,1,.78.36l-1.35.06,0-.15a.25.25,0,0,1,0-.34A.49.49,0,0,1,188.26,251.61Z"/><path class="cls-86" d="M127,251.31l-.11-.36a1.07,1.07,0,0,1,1.28-.14.27.27,0,0,1,.07.45l-1.08.09H127Z"/><path class="cls-87" d="M182.93,236.51l-.36.32a.35.35,0,0,1-.41,0,.82.82,0,0,1,0-.88l.18-.15Z"/><path class="cls-88" d="M145.82,248v-.34a.57.57,0,0,1,.67-.49.72.72,0,0,1,.42.52Z"/><path class="cls-89" d="M164,247.55l0-.37c.68-.21,1,.07,1.06.74a.27.27,0,0,1-.44,0l-.37,0C164.23,247.79,164,247.76,164,247.55Z"/><path class="cls-90" d="M168.77,249.93l.39-.34c.35-.18.6-.13.69.3l-.41.33Z"/><path class="cls-91" d="M192.08,247.28c.31.15.29.47.36.74a.31.31,0,0,1-.06.26l-.29,0a.62.62,0,0,1-.26-.6A.63.63,0,0,1,192.08,247.28Z"/><path class="cls-82" d="M134.65,226.08c-.31.35-.71.28-1.1.22A1.28,1.28,0,0,1,134.65,226.08Z"/><path class="cls-92" d="M146.9,247.69l-.42-.41a.38.38,0,0,1,.5-.1l.63.12A.8.8,0,0,1,146.9,247.69Z"/><path class="cls-93" d="M173.13,251.37l0,.38a.46.46,0,0,1-.57-.11,1,1,0,0,1-.07-.29.31.31,0,0,1-.1-.27c0-.1,0-.15.07-.15A.53.53,0,0,1,173.13,251.37Z"/><path class="cls-94" d="M184.32,252c0,.12-.07.23-.11.34l-.15.07h-.17l-.6-.35A.67.67,0,0,1,184.32,252Z"/><path class="cls-95" d="M166.76,248.93a1.73,1.73,0,0,0,0-.32c.35-.28.6-.14.82.18a.54.54,0,0,1-.15.45A.91.91,0,0,1,166.76,248.93Z"/><path class="cls-96" d="M174.4,252.34l.9-.06.17,0c0,.12.09.24.14.36A1.6,1.6,0,0,1,174.4,252.34Z"/><path class="cls-87" d="M181.89,235.52l.31-.39.1.63-.09.08a.27.27,0,0,1-.32,0A.29.29,0,0,1,181.89,235.52Z"/><path class="cls-97" d="M144.77,248.69a.75.75,0,0,1-.61.32l-.12-.2a.45.45,0,0,1,.72-.26Z"/><path class="cls-98" d="M163,246.54a1.06,1.06,0,0,1,0,.31.45.45,0,0,1-.34-.59h0C163,246.06,163.05,246.27,163,246.54Z"/><path class="cls-31" d="M126.9,237.81a.62.62,0,0,1-.69.34A.71.71,0,0,1,126.9,237.81Z"/><path class="cls-2" d="M194.75,64a.69.69,0,0,1-.7-.3A.62.62,0,0,1,194.75,64Z"/><path class="cls-99" d="M164.68,248l.5-.09.2.07-.32.35Z"/><path class="cls-85" d="M189.66,252c.17-.25.38-.37.66-.15A.64.64,0,0,1,189.66,252Z"/><path class="cls-97" d="M143.46,249.28a.69.69,0,0,0,0-.25c.17-.28.37-.27.61-.08l0,.06A.78.78,0,0,1,143.46,249.28Z"/><path class="cls-2" d="M186.64,99.39a.56.56,0,0,1-.49.44.32.32,0,0,1-.31-.08,1.73,1.73,0,0,1,.14-.31l0,0Z"/><path class="cls-100" d="M172.52,251.64l.57.11a.9.9,0,0,0,0,.23C172.82,252,172.6,251.92,172.52,251.64Z"/><path class="cls-101" d="M137.71,251.22c0,.14,0,.28-.07.42l-.52.05-.1-.07a.32.32,0,0,1,0-.41A.59.59,0,0,1,137.71,251.22Z"/><path class="cls-102" d="M164,247.55l.29.39a.48.48,0,0,1-.57-.36Z"/><path class="cls-80" d="M129.94,251.62v-.25a.51.51,0,0,1,.74,0c0,.11,0,.22.07.34Z"/><path class="cls-26" d="M196.8,69.08a.57.57,0,0,1,.62-.31A.64.64,0,0,1,196.8,69.08Z"/><path class="cls-103" d="M140.42,250.34l-.49-.1c.07-.24.2-.38.47-.29l.3.34-.13.06Z"/><path class="cls-104" d="M171.14,250.39l-.43.29a.26.26,0,0,1-.21-.06c.09-.12.19-.23.29-.34A.22.22,0,0,1,171.14,250.39Z"/><path class="cls-72" d="M131.25,232.91a.57.57,0,0,1-.31.52Z"/><path class="cls-82" d="M133,226.43a.43.43,0,0,1-.39.23A.35.35,0,0,1,133,226.43Z"/><path class="cls-103" d="M139.89,250.66h0Z"/><path class="cls-105" d="M122.15,250.45c0,.1,0,.2,0,.29a.33.33,0,0,1-.3-.1C121.89,250.5,122,250.39,122.15,250.45Z"/><path class="cls-106" d="M172.47,251c0,.1,0,.21,0,.31l-.15,0-.15-.06c0-.15,0-.3,0-.45A.31.31,0,0,1,172.47,251Z"/><polygon class="cls-107" points="129.12 235.95 129.18 236.04 129.07 235.99 129.12 235.95"/><path class="cls-26" d="M197.47,68.74a.46.46,0,0,1,.41-.28A.38.38,0,0,1,197.47,68.74Z"/><path class="cls-108" d="M167.4,249.24a2.26,2.26,0,0,0,0-.26c.13-.12.24-.11.34,0s0,.23,0,.35A.41.41,0,0,1,167.4,249.24Z"/><path class="cls-102" d="M163,247c.15,0,.23.08.25.23Z"/><path class="cls-100" d="M173.18,252a.45.45,0,0,1,.43.23A.42.42,0,0,1,173.18,252Z"/><path class="cls-72" d="M130.94,233.42l-.33.35A.36.36,0,0,1,130.94,233.42Z"/><path class="cls-109" d="M123.12,100.41a4.24,4.24,0,0,1-.5-.87c-.74-2.46-1.44-4.94-2.16-7.41-.21-.41.11-.83,0-1.24.29-3.1-1-5.79-2.25-8.48-.79-1.68-1.29-3.46-1.91-5.19a4.48,4.48,0,0,1-.37-.94.54.54,0,0,1,.15-.45.7.7,0,0,1,.63-.66c1.42-.28,2.84-.6,4.26-.9.31-.07.53.12.78.23.61-.32.95.16,1.3.48a34.93,34.93,0,0,1,4.5,5c.75,1,.82,1.9-.32,2.72-1.33,1-1.65,2.48-2,3.94.5-.78.65-1.73,1.1-2.54s1-1.69,2.11-1.72,1.51.85,2,1.58a1.5,1.5,0,0,1-.21,2.12c-3,3.09-3.59,7-3.53,11a21.84,21.84,0,0,1,1.47-7.7,7.81,7.81,0,0,1,1.75-2.84c.84-.84,1.68-1.09,2.6-.13,1.09,1.28,2,2.69,3.15,3.94,1,1,.84,2.39.68,3.69-.8,2.14-2.06,4.11-2.4,6.42a5.85,5.85,0,0,0,0,3.16c0,.24.08.48.12.72a1.68,1.68,0,0,0,.39.88,23.84,23.84,0,0,0,1.69,2.07c1.11,1.17,1.08,2.63.87,4.08a1.3,1.3,0,0,1-1.54,1.19,11.5,11.5,0,0,0-2-.25,2.68,2.68,0,0,1-.49-.11,7.15,7.15,0,0,1-3.33-2.61,5.83,5.83,0,0,1-1.49-4.34,1.52,1.52,0,0,0-1.39-1.88,5.11,5.11,0,0,1-2.58-1.17,9.82,9.82,0,0,1-1.07-1.34A.55.55,0,0,1,123.12,100.41Z"/><path class="cls-2" d="M136.09,94.08a8.88,8.88,0,0,1-.07-1.15,3.81,3.81,0,0,0-1.3-3.1,12.39,12.39,0,0,1-2.37-3.17,4.68,4.68,0,0,0-1-1.89c-2.35-3.06-4.62-6.18-7.27-9a7.55,7.55,0,0,0-2.13-1.6c.08-.07.15-.2.24-.22,1.37-.27,2.74-.52,4.12-.78a1,1,0,0,0,.28.76,53.26,53.26,0,0,0,4.19,4.57A5.26,5.26,0,0,1,132,80.28a13.53,13.53,0,0,0,1.67,2.51,1.31,1.31,0,0,0,1.6.5,10.9,10.9,0,0,1,5.94.1c.1,0,.18.13.27.2a5.3,5.3,0,0,1-2.73,1.16c-.79-.59-.88,0-1.07.59-.7,2-.35,4,0,6C137.89,93,137.58,93.53,136.09,94.08Z"/><path class="cls-110" d="M121.91,74.17a1.91,1.91,0,0,1,1.78.7,75.49,75.49,0,0,1,5.73,6.76c.91,1.33,1.94,2.58,2.93,3.85.31.41.42.79,0,1.18-1.23-1-1.25-1-2.23.2a9.21,9.21,0,0,0-1.51,2.61,19.18,19.18,0,0,0-1.39,6.73A4.67,4.67,0,0,1,127,98a.54.54,0,0,1-.37.28.51.51,0,0,1-.37-.27,1.64,1.64,0,0,1-.11-.66A19.16,19.16,0,0,1,127.66,89a9.05,9.05,0,0,1,3-3.89,11.53,11.53,0,0,0-1.88-2.47c-.21-.25-.53-.15-.77,0a3.77,3.77,0,0,0-1.51,2c-.22.7-.43,1.4-.67,2.09a5.94,5.94,0,0,1-.52,1,.48.48,0,0,1-.6.17.55.55,0,0,1-.31-.55,2.06,2.06,0,0,1,.11-.65c.1-.33.23-.64.35-1,1.09-2.83.68-2.36,3-4.26a25.82,25.82,0,0,0-6.17-7Z"/><path class="cls-111" d="M116.09,75.83v.34c-.12.21-.26.21-.4,0a.68.68,0,0,1-.25-.65Z"/><path class="cls-27" d="M143.44,226.68c.1.13.29.26.27.38-.11,1.18.67,1.46,1.59,1.61.41.07.88,0,1.2.36a.66.66,0,0,1-.41.49,1.36,1.36,0,0,1-.45,0,9.23,9.23,0,0,0-1.18-.09,1.82,1.82,0,0,1-1-.31,1.88,1.88,0,0,1,0-2.44Z"/><path class="cls-112" d="M146.14,229.33l.36-.3a34,34,0,0,1,3.64.11c0,.11,0,.23,0,.34C148.8,230,147.45,230.33,146.14,229.33Z"/><path class="cls-113" d="M133.71,137.24l.26-.59a.92.92,0,0,1,.44-.49c2.14-1.08,6.42.21,7.58,2.29a11.07,11.07,0,0,1,.47,10.49c-1,2.14-2.8,2.62-4.84,1.45-.25-.2-.49-.42-.75-.61s-.24-.16-.35-.25l-.35-.22-.18-.08c-.31-.08-.61-.14-.84.17a2.3,2.3,0,0,0-.12.58,11.27,11.27,0,0,1-.24,1.29c0,.3,0,.6-.06.91a9.9,9.9,0,0,0,.39,4.22c.18.53.34,1.06,1,1.07a1.48,1.48,0,0,1,.91.3c.39,1.19-.61,1.38-1.29,1.8a4.71,4.71,0,0,0-2,5.67,2.83,2.83,0,0,0,3.86,1.62c1-.31,2-1.2,3.15-.51a.58.58,0,0,1-.35.83,9.4,9.4,0,0,0-2.38.8,3.57,3.57,0,0,1-3.81-.2c-.08-.05-.21,0-.44,0a4.41,4.41,0,0,0,0,1.58c0,.56.09,1.12.11,1.68s0,1.11,0,1.67c-.94.42-1.86-.21-2.8,0A15.05,15.05,0,0,1,129,172a2.79,2.79,0,0,1-2.11-3.06c.65-3.72-.54-7.19-1.06-10.75,0-.33-.07-.66-.1-1a5,5,0,0,1,.16-1.81c.33-.88.75-.61,1.15-.05.52,4.31,2.46,8.45,1.59,13,2.55-2.16,2.55-2.16,3.13-5.09a5.75,5.75,0,0,1,1-2.67,4.08,4.08,0,0,0,.62-4.11,8.71,8.71,0,0,1-.37-4.33,6.67,6.67,0,0,0,.2-2c.07-1.95,1.23-2.8,3.12-2.29a14.13,14.13,0,0,1,2.11,1c1.25.58,2.08.34,2.56-1a9.3,9.3,0,0,0-.65-8.56c-1.1-1.7-3-1.54-4.71-1.57C135,137.73,134.14,138.2,133.71,137.24Z"/><path class="cls-114" d="M140.46,167.18l.33-.55a.74.74,0,0,1,.44-.57c.42-.1.84-.18,1.07.33a13.55,13.55,0,0,1,1.18,2.6c.85,2.43,1.54,4.91,2.15,7.41a3.22,3.22,0,0,1,.14,1.15,1.39,1.39,0,0,1-1.06,1.17,1.22,1.22,0,0,1-1.31-.57,3.22,3.22,0,0,1-.35-.75,70.66,70.66,0,0,1-2.59-9.72A2.78,2.78,0,0,1,140.46,167.18Z"/><path class="cls-115" d="M142.3,166.39a2.31,2.31,0,0,0-1.25,0c1.07-2.52,5.36-3.69,7.35-2a10.41,10.41,0,0,0,1.87,1.43c1,.83,2.58.93,3,2.43l-.42.37a15.83,15.83,0,0,1-5.36-3.33,2.18,2.18,0,0,0-2.92-.31C143.81,165.42,143.07,165.92,142.3,166.39Z"/><path class="cls-116" d="M131.55,172.39c.26-.08.48-.26.79-.17.51.16,1,.3,1.54.45a14.45,14.45,0,0,0,.77,1.46,4.4,4.4,0,0,1,.69,3.62c-.27.37-.24,1-.84,1.11a.45.45,0,0,1-.36-.28,5.07,5.07,0,0,0-2.12-5.2A1,1,0,0,1,131.55,172.39Z"/><path class="cls-116" d="M132.36,180.91c-.2-.37-.48-.47-.81-.19a2.84,2.84,0,0,1-2.33.71c1.21-1.76,3.07-2.35,5-2.73l.08.08c.14.79-.65.92-1,1.36Z"/><path class="cls-7" d="M133.33,180.14c.17-.58.78-.83,1-1.36.53-.16.58-.78,1-1C135.43,179.18,134.48,179.74,133.33,180.14Z"/><path class="cls-117" d="M172.15,226.73l.32.57c-.06.09-.13.23-.22.24-2.24.1-2.53,1.52-2.36,3.34a1.9,1.9,0,0,1-.64,1.93c-.77-.83-.66-2.67-2.46-2.35-.35-.13-.77-.2-.72-.72.39-.05.78-.06,1.16-.13.89-.19,1.66-.41,1.65-1.63,0-.72.45-.94,1.3-1A4.89,4.89,0,0,0,172.15,226.73Z"/><path class="cls-118" d="M166.07,229.74a1,1,0,0,0,.77.38c-1.09,1.2-2.27.95-3.48.22v-.26l.7-.05a1.51,1.51,0,0,1,1.28,0Z"/><path class="cls-119" d="M165.34,230l-1.28,0C164.62,229.62,164.74,229.62,165.34,230Z"/><path class="cls-120" d="M137.27,149.74c.24.15.47.31.71.44a2.74,2.74,0,0,0,4-1.16,11.14,11.14,0,0,0,1-6.38,11.38,11.38,0,0,0-1.62-4.39,3.21,3.21,0,0,0-2.27-1.59c-1-.19-2.11-.27-3.17-.39a3.69,3.69,0,0,0-2,.38.91.91,0,0,1-.55-.58c-.34-1.16-.69-2.32-1-3.48a1.64,1.64,0,0,1,.1-.64,3.12,3.12,0,0,1,.34-1.94,25.09,25.09,0,0,0,1-14.79,3.31,3.31,0,0,1,0-2.6c2-.58,3.07.08,3.29,2.07a6.4,6.4,0,0,0,.12,1c.12.42.2.85.34,1.26a4.7,4.7,0,0,1,.14.73c0,1.6,1,2.5,2.14,3.36a9.51,9.51,0,0,1,2.08,1.65,5,5,0,0,1,.81,1.57,28,28,0,0,0,.94,7c2.38,7.95,10.85,11.87,18.86,7.49,7-3.82,10.73-9.86,10.8-18a15.69,15.69,0,0,0-.71-5.65,1.75,1.75,0,0,1,.06-1.62,17.55,17.55,0,0,0,3.65-2.57,12.52,12.52,0,0,0,2.82-5.21,1.53,1.53,0,0,1,1-1c1,1.49.42,3.12.39,4.71-.13,7.81.08,15.58,3.73,22.78,2,3.84,4.82,6.43,9.34,6.7a1.61,1.61,0,0,1,1.35.56,12.35,12.35,0,0,1,.14,5c-.11,1-.19,2-.22,3-.44,2.43-.45,4.9-.9,7.33a2,2,0,0,1-2.37,2c-1.63,0-3.27,0-4.9,0-4.68-.11-9.25.86-13.84,1.52a10.59,10.59,0,0,0-2.5.39c-4.82.29-9.64.53-14.47.47a14,14,0,0,1-4.14.27,13.59,13.59,0,0,1-4.64-1.28,9.69,9.69,0,0,0-7.24-.92,1.32,1.32,0,0,1-.52-.12c-.86-.58-.75-1.58-1-2.41a34,34,0,0,1-1.44-4.63C137,149.72,137.07,149.66,137.27,149.74Z"/><path class="cls-2" d="M133.71,137.24c.24.13.46.33.77.24a8.32,8.32,0,0,1,4.48.15,2.78,2.78,0,0,1,1.81,1.39,10.39,10.39,0,0,1,.63,9.23,2,2,0,0,1-3.24,1.05c-.42-.29-.85-.54-1.28-.81a2.59,2.59,0,0,0-2.57-.14c-.42.17-.66.37-.66.83l0,1.85a1.42,1.42,0,0,1-.29,1.11,3,3,0,0,1-.14-3,65.28,65.28,0,0,1-5,5.52c-.37.38-.59,1-1.31.83l-.25-.21c-.08-.07-.15-.19-.24-.2s-.2.11-.2.18c0,.64,0,1.29,0,1.94-.28.53-.53,1.11-1.28,1.08-.55,2-.09,3.95-.24,5.92-.07.83.18,1.7-.4,2.44-1.09-.14-.76-1-.84-1.67-.19-1.58.3-3.2-.31-4.74-.72-.17-1.16.29-1.58.71a7.63,7.63,0,0,1-2.64,1.63c-.55.31,0,.69-.06,1a2.26,2.26,0,0,1-.23,1.61c-.82.32-.69-.43-.89-.8s-.15-.58-.52-.52-.4.34-.51.59c-.34.81.13,1.8-.6,2.51a1.19,1.19,0,0,1-.3-.92c0-.72,0-1.44,0-2.16a1.06,1.06,0,0,0-.37-1,6.42,6.42,0,0,1-1.92-3.1,11.83,11.83,0,0,1-.35-2.66c-.09-2.19-.45-4.35-.63-6.52a57.15,57.15,0,0,1-.44-7.05,37.88,37.88,0,0,0-.59-7.36l0-.17c-.11-1.85-.31-3.69-.33-5.54q-.09-7.08,0-14.17a3.48,3.48,0,0,0-1.07-2.88,3.19,3.19,0,0,1-.88-1.43,13.22,13.22,0,0,1-.41-7.45,8.5,8.5,0,0,1,2-3.47,1.75,1.75,0,0,1,1.27-.74.8.8,0,0,0,.62-.17,2.19,2.19,0,0,1,2.5-.37.46.46,0,0,0,.32-.05s0-.17,0-.24c-.29-.63-.3-.66.24-.71a3.63,3.63,0,0,1,2-.07c.2.1.41-.1.56-.28.53,1.7,1.07,3.39,1.58,5.09.8,2.68,1.58,5.36,2.36,8,.27.91.5,1.83.74,2.74a2.38,2.38,0,0,0-2.47,2.79,6.06,6.06,0,0,1-.27,1.66,4.89,4.89,0,0,0,.07,2.86,12,12,0,0,1-.24,3.83,48.32,48.32,0,0,0-.3,5.51,4.9,4.9,0,0,0-.37,2.3c0,3.87,0,7.74,0,11.61,0,1.91-.14,3.8-.29,5.69a1,1,0,0,1-.19.79c-1.7,1.6-2,3.81-2.74,6.21a3.3,3.3,0,0,0,.78-1.47c.14-.43.23-.87.35-1.3a5,5,0,0,1,3.1-3.65c2.58-1,4.3-3.35,6.45-5,.36-.28.34-.8.47-1.23a9.11,9.11,0,0,1,3.71-5.22,2.38,2.38,0,0,0,.47.17,1.77,1.77,0,0,0,2.38-1.93C133.76,137.67,133.73,137.46,133.71,137.24Z"/><path class="cls-2" d="M134,112.79a4.64,4.64,0,0,0,.23,1.65A26,26,0,0,1,133,131.05c-.13.31-.3.6-.46.9a1,1,0,0,1-.53-.6q-2.25-7.74-4.52-15.47c-1.08-3.65-2.19-7.29-3.28-10.93a9.09,9.09,0,0,1-.64-2.77.39.39,0,0,1,.47-.05,5.45,5.45,0,0,0,2.54,1.21,1.66,1.66,0,0,1,1.45,1.91,6.19,6.19,0,0,0,1.59,4.3,20.08,20.08,0,0,0,2.43,2.36l.42.15a1.74,1.74,0,0,0,.86.24C133.6,112.36,134,112.34,134,112.79Z"/><path class="cls-2" d="M122.86,114.65a29.44,29.44,0,0,1,1.27,3.78c.81,2.61,1.56,5.23,2.32,7.86,1,3.26,1.88,6.53,2.82,9.8-.72,1.47-2.21,1.54-3.52,1.85a17.88,17.88,0,0,1-2.45.4c-1-.92-.5-2.2-.69-3.3-.55-3.22-1.1-6.45-1.58-9.68a7.16,7.16,0,0,1-.17-2,12,12,0,0,0-.23-5.61,2,2,0,0,1-.16-.55C120.53,114.8,120.76,114.55,122.86,114.65Z"/><path class="cls-120" d="M123.43,138.19c.08-.33.14-.7.6-.64a8,8,0,0,0,5.24-1.46,13.39,13.39,0,0,1,.95,3.22,5,5,0,0,1-1.27,2,10.62,10.62,0,0,0-1.87,3.55,2.84,2.84,0,0,1-2.71,2.36c-1.1-.87-.71-2.2-.78-3.27C123.45,142,122.71,140.11,123.43,138.19Z"/><path class="cls-121" d="M124.86,147.07a2.33,2.33,0,0,1,.31-.38c1.52-1.19,1.3-.92,1.71-2.69a6,6,0,0,1,1.33-2.47c.63-.77,1.33-1.48,2-2.22l.7.34a1,1,0,0,1-.45.85,8.78,8.78,0,0,0-2.56,3.49,3.39,3.39,0,0,0-.35,1.29,1.92,1.92,0,0,1-1,1.64,21.3,21.3,0,0,0-2.33,1.93c-1.4,1.18-2.69,2.55-4.57,3a2.11,2.11,0,0,0-1.35,1.2,13.24,13.24,0,0,0-.89,2.52,5,5,0,0,1-1.14,2.58c-.12.12-.29.22-.45.1a1.39,1.39,0,0,1-.28-.39s0-.11,0-.16c.48-1.55.93-3.12,1.46-4.65a16.49,16.49,0,0,1,2.41-2.62,42,42,0,0,0,4.43-2.94C124.16,147.33,124.56,147.32,124.86,147.07Z"/><path class="cls-122" d="M116.41,76.87c.21.45.47.89.64,1.36a53.53,53.53,0,0,0,3,6.94,10,10,0,0,1,.73,5.89c-.12.23-.22.51-.57.29a8.8,8.8,0,0,1-.54-2.59,26.83,26.83,0,0,0-1-3.73,4.78,4.78,0,0,1-.28-.61,1.45,1.45,0,0,1-.1-.41c-.14-.38-.28-.76-.4-1.14-.07-.17-.13-.36-.2-.53a1.15,1.15,0,0,1-.07-.36.77.77,0,0,0-.22-.48,17.68,17.68,0,0,1-1.35-4.25C115.91,76.87,116.09,76.81,116.41,76.87Z"/><path class="cls-123" d="M122.86,114.65a3.76,3.76,0,0,1-.46.2c-1.5.45-1.5.45-1.58,2,0,.17,0,.33,0,.5-.26.3,0,.62,0,.93-.11.57-.14,1.2-.78,1.51-.54-.28-.38-.7-.22-1.12.14-1.27.26-2.54.41-3.82,0-.14.15-.38.25-.39.79-.13,1.57-.66,2.4-.15A.77.77,0,0,1,122.86,114.65Z"/><path class="cls-124" d="M118.74,84.61a6.5,6.5,0,0,1,.88,4.15c-.12-.11-.31-.21-.35-.34A40.87,40.87,0,0,1,118.05,84a.27.27,0,0,1,.43,0l0,.06,0,.08A.91.91,0,0,0,118.74,84.61Z"/><path class="cls-125" d="M118.48,84h-.43a4.26,4.26,0,0,1-.59-2c.07-.15.14-.15.22,0a.43.43,0,0,1,.11.28,1.14,1.14,0,0,1,.23.38A4.53,4.53,0,0,1,118.48,84Z"/><path class="cls-126" d="M123.85,102.19h-.31l-.39-.66a.58.58,0,0,1,.08-.8,3.77,3.77,0,0,1,1,1.1A.42.42,0,0,1,123.85,102.19Z"/><path class="cls-127" d="M120.16,91.35l.57-.29a1.41,1.41,0,0,1-.27,1.07A.8.8,0,0,1,120.16,91.35Z"/><path class="cls-128" d="M116.41,76.87l-.36.38a1.6,1.6,0,0,1-.37-1.06l.4,0C116.23,76.39,116.43,76.58,116.41,76.87Z"/><path class="cls-129" d="M123.23,100.72c0,.27,0,.53-.08.8-.33-.36-.45-.72,0-1.11A.51.51,0,0,1,123.23,100.72Z"/><path class="cls-130" d="M117.68,82l-.22,0-.06-.47C117.5,81.65,117.59,81.8,117.68,82Z"/><path class="cls-2" d="M151.46,158.83c.86,0,1.73,0,2.59,0a3.16,3.16,0,0,0,1.58-.26c1.17.51,2.41.17,3.61.27,2.31-.06,4.61.12,6.91-.13a13.4,13.4,0,0,0,2.83-.14,6.9,6.9,0,0,1,1.11-.07,15,15,0,0,0,1.9-.31c5.47-.7,10.91-1.81,16.47-1.54a11.42,11.42,0,0,1,3.64.42,1.41,1.41,0,0,0,1.76-.56,1,1,0,0,1,.48-.26c4.72.2,6.24-3,5.85-7.13-.64-6.86-2-13.65-2.85-20.5a38.34,38.34,0,0,0-1.07-4.6c-.07-.25,0-.74-.54-.6-.36.62,0,1.42-.54,2-1,.19-.59-.67-.63-1-.3-2.2-1.64-3.78-3.05-5.57a1.6,1.6,0,0,0,.57,1.53c2.76,2.37,2.74,5.69,3.11,8.88a11.94,11.94,0,0,1,0,1.34c0,2.24,0,4.47,0,6.7,0,.66.1,1.36-.48,1.88a10,10,0,0,1-9.12-4.05,20.66,20.66,0,0,1-3.36-6.36,39.8,39.8,0,0,1-2-10.54,77.45,77.45,0,0,1-.07-11.09,7.83,7.83,0,0,0,0-2.51,16.1,16.1,0,0,0,2.49-1.66,25.49,25.49,0,0,1,3.66-2.51c1.63-.76,3.23-1.58,4.89-2.26a15,15,0,0,1,7.09-1.06,3.3,3.3,0,0,1,2,.85,17.88,17.88,0,0,0,1.46,1.14,5.47,5.47,0,0,1,2.18,4.36,11.3,11.3,0,0,1-.68,4.46,19.57,19.57,0,0,0-1,6.44,34.69,34.69,0,0,0,.84,8,6.72,6.72,0,0,1,.16,1.17,27.91,27.91,0,0,0,.7,5,31.64,31.64,0,0,1,.71,4.65,25.92,25.92,0,0,0,.49,3.14c.35,1.88.66,3.75.85,5.65.13,1.39.43,2.76.68,4.14q.63,3.47,1.3,6.93c.26,1.37.51,2.76.87,4.11a4.64,4.64,0,0,1-1.26,4.64,13.78,13.78,0,0,1-1.73,1.6,1.44,1.44,0,0,0-.6,1.3c0,.67,0,1.34,0,2a1.41,1.41,0,0,1-.27,1,1.76,1.76,0,0,1-.53-1.54c0-1.23-.44-1.59-1.72-1.53-3.92.15-7.83.52-11.75.49s-8,.05-11.93.4c-.58,0-1.05-.4-1.61-.48a11.42,11.42,0,0,0-5.51-.17c-3.48,0-6.93.52-10.42.64-3.75.14-7.5.42-11.24.75a4,4,0,0,1-2-1.47A2.67,2.67,0,0,0,145,164a11.08,11.08,0,0,0-4,2.34l-.26.25a.47.47,0,0,0-.57-.23c-.84.29-1.69.57-2.52.89a3,3,0,0,1-4-1.3,4,4,0,0,1-.44-3.67,10.38,10.38,0,0,1,1.15-2.22,2.16,2.16,0,0,1,1.16-.92,7.24,7.24,0,0,0,1.06-.49.84.84,0,0,0,.42-.85,2.82,2.82,0,0,0,2.65-.62,9.46,9.46,0,0,1,7.41,1.14c2.13,1.32,4.56,1.52,7.84,1.26C154,159.41,152.48,160.33,151.46,158.83Z"/><path class="cls-131" d="M178.53,165.25c.26-.1.53-.3.78-.28,1.81.13,3.55-.43,5.35-.39,2.64.06,5.28,0,7.92,0a12.49,12.49,0,0,0,3.33-.26,7.47,7.47,0,0,1,2-.07h3a5.67,5.67,0,0,0,2.16-.24,2.76,2.76,0,0,1,1-.07c.52,0,.72.19.74.71,0,.78,0,1.57,0,2.35,0,.23,0,.45,0,.68a46,46,0,0,1-.63,7c-.29,1.94-.48,3.89-.77,5.84-.23,1.55-.27,3.12-.39,4.69-.18,2.34-.62,4.66-.84,7-.15,1.67-.49,3.32-.5,5,0,1.51-.18,3-.27,4.54a7.38,7.38,0,0,1-.54,1.94,2.16,2.16,0,0,1-.84,1,8.37,8.37,0,0,1-5.06,1.58,36.45,36.45,0,0,0-5,.6,7.75,7.75,0,0,1-3.18,0,15.9,15.9,0,0,0-2.48-.44,3.8,3.8,0,0,1-3.21-2.14c-.25-.43-.44-.91-.7-1.34a3.39,3.39,0,0,0-2.18-1.73c-1.32-.29-2.63-.59-3.95-.86-.66-.13-1.33-.19-2-.29a8.93,8.93,0,0,0-3.17.25c-.82.17-1.68.21-2.48.45-1.39.42-2.38-.31-3.38-1.05a1.14,1.14,0,0,1-.29-1.25c.19-.7.44-1.39.67-2.08,1-.68,2.14-.49,3.22-.59a3.18,3.18,0,0,0,3.15-3.39c-.28-5.26-.06-10.52-.1-15.78,0-2.51.27-5,.36-7.55.12-3,2.65-4.7,6.26-4.44C177.21,165,178,164.85,178.53,165.25Z"/><path class="cls-131" d="M150.21,166.24c0-.3.16-.55.49-.6a7.87,7.87,0,0,1,.84,0,15.56,15.56,0,0,0,3.18-.25,13.51,13.51,0,0,1,2.85-.08,7.4,7.4,0,0,0,2.34-.24,4.93,4.93,0,0,1,1.34-.1c1.73-.07,3.48.18,5.19-.31a5.12,5.12,0,0,1,1.18,0,10.1,10.1,0,0,0,2.5-.24,1.86,1.86,0,0,1,2,.3c.08.83-.53,1.34-1,1.89a4.92,4.92,0,0,0-1.07,3.94c.39,2.52-.33,5-.25,7.55a107.11,107.11,0,0,1,0,10.9c-.09,1.37-.14,1.46-1.15,1.59a4.62,4.62,0,0,0-3-1.67,26.92,26.92,0,0,1-3.93-.82,5.68,5.68,0,0,0-1.66-.15,11.35,11.35,0,0,1-4.37-1A2.87,2.87,0,0,1,153.9,184c0-3.41,0-6.83,0-10.24a7.7,7.7,0,0,1,.19-1.5,10.54,10.54,0,0,0,.1-2.51c0-.63-.18-1.23-.91-1.43A20.83,20.83,0,0,0,150.21,166.24Z"/><path class="cls-132" d="M168.77,190.52c.3,0,.58-.07.61-.42s0-.9,0-1.34a19.69,19.69,0,0,1,.25-3.68,2.72,2.72,0,0,0,0-1.17,18.51,18.51,0,0,1-.26-4.52,41,41,0,0,1,.27-6.36,6.74,6.74,0,0,0-.09-2.68,4.42,4.42,0,0,1,.77-3.5,19,19,0,0,1,1.8-2.2c1.77-.91,3.56-.55,5.34,0,.05.66-.32.48-.68.35l-1.85,0a3.19,3.19,0,0,0-2.41,1c-.35.37-.69.74-1,1.12a3.1,3.1,0,0,0-.81,2.31c0,.5,0,1,0,1.51a17,17,0,0,1-.23,4,4.17,4.17,0,0,0-.05,1,51.28,51.28,0,0,0,.19,8.22,1.41,1.41,0,0,1,0,.5,44.75,44.75,0,0,0-.22,7,7.21,7.21,0,0,1-.21,2.16,2.79,2.79,0,0,1-2.52,2.13c-1.33.17-2.66.31-4,.47a1.57,1.57,0,0,1,1.53-.78c.61,0,1.22,0,1.83,0a3.15,3.15,0,0,0,2.69-3,1.89,1.89,0,0,0-.28-.76C169.23,191.39,169,191,168.77,190.52Z"/><path class="cls-133" d="M186,100.15a.83.83,0,0,1-.15,0c-.14,0-.37.08-.4,0-.14-.23,0-.37.23-.42a.18.18,0,0,1,.29,0,.66.66,0,0,1,.2.06C186.09,99.94,186,100,186,100.15Z"/><path class="cls-131" d="M116.07,167c0-.66.06-1.33,0-2a1.92,1.92,0,0,1,.83-1.7.72.72,0,0,1,1.16.41,5.69,5.69,0,0,1,.05.83,1,1,0,0,0,.28.75c1.08,1.41,1,3.17,1.31,4.77.6,3.27.85,6.59,1.17,9.9A99.83,99.83,0,0,0,119,166.39c-.48-2.07-.25-3.75,1.79-4.9.82-.46,1.43-1.27,2.36-1.59a1.73,1.73,0,0,1,.19-.28.48.48,0,0,1,.27-.16.28.28,0,0,1,.21.2c0,1.12,0,2.24,0,3.35v2.86a1,1,0,0,0,.29.76c.56.48.36,1.14.37,1.73,0,2.08,0,4.16,0,6.24q0-7.33,0-14.67c0-.6-.18-1.25.35-1.75l1.28-1a56.17,56.17,0,0,0,1.08,5.76,11.88,11.88,0,0,1,.15,5,4.58,4.58,0,0,0-.08,1.33,2.36,2.36,0,0,0,2,2.34c.79.13,1.45.59,2.22.77.37.33.72.68,1.11,1a4.43,4.43,0,0,1,1.58,5.32c-1.62,1-3.52,1.52-5,2.74a5.46,5.46,0,0,0-4.18,1.78,1.78,1.78,0,0,0-.17,2.79A3.78,3.78,0,0,0,126,187c1.08.58,2.13,1.24,3.23,1.77,1.75.85,2.56,2.41,3.24,4.08a2,2,0,0,1,0,1.15c-.13.74-.71,1.26-.9,2-.36.26-.71.54-1.08.77a1,1,0,0,1-.62.21c-1.17-.28-2.42-.18-3.5-1a8.84,8.84,0,0,1-3-3.68,8.71,8.71,0,0,0-1.12-2.05,3.08,3.08,0,0,0-2-2.38h0a1.29,1.29,0,0,1-.33-.33c-.5-.36-1-.74-1.49-1.07a1.79,1.79,0,0,1-.91-1.67c0-.5,0-1,0-1.51a24.13,24.13,0,0,0-.49-4.8c-.3-2.15-.74-4.28-.9-6.45Z"/><path class="cls-2" d="M138.66,84.61c.2-.07.47-.08.59-.22a2.54,2.54,0,0,1,2.2-.8,13.24,13.24,0,0,1,2.89.82,11.17,11.17,0,0,1,4.54,2.42,21.13,21.13,0,0,0,2.2,1.54,1.22,1.22,0,0,0,2-.45c.46-.69.73-1.53,1.53-2a33.23,33.23,0,0,1,4.75-2.34c.8-.23,1.6-.48,2.41-.69a18.43,18.43,0,0,1,5.34-.31c.5,0,1,.23,1.48.27a1.92,1.92,0,0,1,1.82,1.88,26.43,26.43,0,0,1,.4,5.18A4.12,4.12,0,0,1,170.2,92a2.13,2.13,0,0,0-.27,2.06,4.89,4.89,0,0,1,.17,1.66c0,1.9,0,3.81,0,5.71-.18.2-.12.5-.29.7l0,.34c.14.61.57,1.28-.33,1.69-.37.42-.71.87-1.11,1.26a1.74,1.74,0,0,0-.57,1.5,8.1,8.1,0,0,0,.08,1,9.26,9.26,0,0,1,0,4,6.35,6.35,0,0,0-.06,1.51,3,3,0,0,1-.59,1.88,15,15,0,0,0-1.84,3,4.77,4.77,0,0,1-1.77,2.39c-2.26,1.92-2.79,4.63-3.7,7.19-.81,2.13-1.76,4.13-4.34,4.6a15.19,15.19,0,0,1-4,.1,7,7,0,0,1-5.09-3.24,52.79,52.79,0,0,1-4.49-6.69,3.94,3.94,0,0,0-1.42-1.17,5.23,5.23,0,0,1-3-4.39,21.46,21.46,0,0,1-.5-6.78,3.71,3.71,0,0,0-1.32-3.41,8.71,8.71,0,0,1-1.67-2.27c0-.18-.07-.36-.1-.53s-.1-.35-.14-.52a5.9,5.9,0,0,1-.15-1.87c.55-3,1.42-5.89,3.58-8.2a2.41,2.41,0,0,0,.34-2.38,10,10,0,0,1,.08-5.15C137.83,85.43,137.86,84.72,138.66,84.61Z"/><path class="cls-109" d="M196.09,68.77a3.72,3.72,0,0,0-2.4,1.93c-.78,1.77-2,3.3-2.66,5.13a2.8,2.8,0,0,0-.36.56c-1,2.47-2.22,4.84-3.08,7.37a4.05,4.05,0,0,1-.35.94,7.72,7.72,0,0,0-.89,5,17.57,17.57,0,0,0-.3,3.69,14.24,14.24,0,0,1-.73,4.8,5.53,5.53,0,0,1-2.24,3.06,28.41,28.41,0,0,1-4,2.52,1.36,1.36,0,0,0-.83,1.17,10,10,0,0,1-1.39,3.58,9.89,9.89,0,0,1-4.81,3.79,4,4,0,0,1-2,.2c-.85-.09-1.21-.43-1.24-1.29-.05-1.4,0-2.81-.06-4.21a1.43,1.43,0,0,1,.37-.91,2.19,2.19,0,0,0,.67-1.14c.24-.58.1-1.29.63-1.77a.17.17,0,0,0,0-.24c.38-1.25-.1-2.55.28-3.8l.1-1.39c.25-2,0-4.11.83-6.1a12.81,12.81,0,0,1,2.69-4.19c.41-.31.68-.75,1.08-1,1.29-.53,1.74.5,2.18,1.28a13.65,13.65,0,0,1,2,7.88c0,.62,0,1.24,0,1.86a13.36,13.36,0,0,0-2.4-10.56,3.05,3.05,0,0,1,1.91-4.29c.61-.11.9.32,1.24.69A14.05,14.05,0,0,1,182,85.43a26.33,26.33,0,0,1,1.14,2.4,10.18,10.18,0,0,0-2.69-4.6,1.84,1.84,0,0,1-.12-2.82q3.09-3.68,6.25-7.28a17,17,0,0,0,1.84-2c1.44-2.35,3.68-3.52,6.18-4.36,1.2.11,2.1.45,1.48,2Z"/><path class="cls-2" d="M172.73,113.46c.24.92.53,1.83.73,2.76a20.07,20.07,0,0,1-.68,11.28A20.64,20.64,0,0,1,163,139.06a14.76,14.76,0,0,1-6.42,1.84A12.42,12.42,0,0,1,144.4,134a16.7,16.7,0,0,1-1.89-9.77,21.42,21.42,0,0,1,3.33,4.4c2.48,4,5.43,4.55,10.19,3.6,2.36-.43,2.91-2.45,3.73-4.23a17.22,17.22,0,0,1,4.93-8.51,2.84,2.84,0,0,1,1.06-.76c.63-.35.82-1,1.22-1.57a4.5,4.5,0,0,1,1.08-1.25,1.51,1.51,0,0,0,.79-1.18.84.84,0,0,1,1-.75A6.56,6.56,0,0,0,172.73,113.46Z"/><path class="cls-134" d="M165.75,118.72a16.14,16.14,0,0,1-2.7,3.19,5.36,5.36,0,0,0-1.45,2.2c-.47,1.37-1.08,2.69-1.63,4-.31.07-.48,0-.35-.36a38.22,38.22,0,0,1,1.47-4.78,1.34,1.34,0,0,1,.37-.56c1.31-1.14,2.23-2.64,3.49-3.83a4.17,4.17,0,0,1,.4-.3Z"/><path class="cls-135" d="M170.44,103.17a2.78,2.78,0,0,1-.63,1.77c-.05-.29-.07-.59-.37-.75.41-.5.14-1.14.33-1.69Z"/><path class="cls-120" d="M186,99.77h-.14l-.15,0c0-.19,0-.39.32-.36Z"/><path class="cls-2" d="M174.79,87.58a13,13,0,0,0-3.65,8,6.41,6.41,0,0,1-.28,2.13c0-1.56-.06-3.11-.07-4.67a1.27,1.27,0,0,1,.16-.64,5.34,5.34,0,0,0,.54-2.91c0-1.45,0-2.9,0-4.35,0-.49.12-.63.64-.67s.63-.24.35-.89a1.19,1.19,0,0,1,.32-.76l.69-.73c2.39-2.51,4.89-4.93,7.14-7.56,1.82-2.13,3.92-4,5.78-6.07a27,27,0,0,1,3.28-2.86,7,7,0,0,1,2.72-1.27,3.71,3.71,0,0,1,2.38.52,3,3,0,0,0,1.22.46,2,2,0,0,1,1.37.84,1.23,1.23,0,0,1-.39,2.14c-.28.16-.59.28-.89.43,0-1.2-.26-1.5-1.5-1.68A7.05,7.05,0,0,0,189.2,70c-1.64,2.31-3.74,4.27-5.58,6.43-2.8,3.27-5.32,6.76-8.19,10C175,86.68,175.14,87.25,174.79,87.58Z"/><path class="cls-135" d="M170.76,99.13a12.79,12.79,0,0,1-.28,3.8c0-1,0-2,0-2.92A1,1,0,0,1,170.76,99.13Z"/><path class="cls-135" d="M169.8,102.16a.78.78,0,0,1,.29-.7A.69.69,0,0,1,169.8,102.16Z"/><path class="cls-34" d="M119.83,187.52a.44.44,0,0,1,.33.33A.4.4,0,0,1,119.83,187.52Z"/><path class="cls-107" d="M146.14,229.33a8.93,8.93,0,0,0,2.68.11,7.53,7.53,0,0,1,1.34,0,17.79,17.79,0,0,1,0,2.92c-1.06,0-2.12-.09-3.18-.15a24,24,0,0,0-3.15.23,19,19,0,0,1-1.43,2.21,16.49,16.49,0,0,1-2,2.17,1.7,1.7,0,0,0-.4,2.34c.68,1.81-1.13,1.9-1.87,2.73-1.11,2.21-2.71,3.5-5.34,2.93a34.39,34.39,0,0,0-4.76-.19c-1-.18-2.1-.29-3.16-.39a2,2,0,0,1-1.85-.94c-.1-.37-.24-.73-.31-1.11a1.52,1.52,0,0,1,.8-1.79l2.72-1.81a1.64,1.64,0,0,1,1-.07c2.09.56,4.22.28,6.34.29a1.26,1.26,0,0,0,.33,0,.49.49,0,0,0,.43-.43.45.45,0,0,0-.36-.49,5.65,5.65,0,0,0-1.16-.13c-1.34,0-2.68,0-4,.05-.29,0-.56,0-.7-.3a8.68,8.68,0,0,0,1.54-1.36l.67-.32c1.13.14,2.24-.31,3.37-.14a21.17,21.17,0,0,1,2.5.25c.17,0,.48,0,.37-.35-.05-.15-.28-.17-.44-.22a7.23,7.23,0,0,0-2-.11c-1.06-.06-2.16.23-3.11-.47a.82.82,0,0,1,.24-.72,1.79,1.79,0,0,0,.55-1.27c0-.13.09-.27.14-.41a1.65,1.65,0,0,1,.07-1.29,4.55,4.55,0,0,0,.36-2.39c0-.33,0-.67,0-1a2.51,2.51,0,0,1,2.17-1c.71,0,1.43,0,2.15-.06a1.76,1.76,0,0,0,1.1-.25c1.3,0,2.59,0,3.88,0a2.53,2.53,0,0,1,1.46.28,14.24,14.24,0,0,1,.14,4.3c.2-.75,0-1.43.54-1.92l1,0c.32.22.73,0,1.05.24Z"/><path class="cls-136" d="M130.36,238.22h2.93A4.88,4.88,0,0,1,130.36,238.22Z"/><path class="cls-137" d="M163.36,230.34a6.74,6.74,0,0,0,3.48-.22c.5,0,1-.06,1.5-.07a.57.57,0,0,1,.66.59c0,.44,0,.89.06,1.34,0,.21,0,.44.27.55a2.92,2.92,0,0,0,.13-1.63c0-.89,0-1.79,0-2.68,0-.55.29-.8.85-.84.72,0,1.45,0,2.17-.08l3.66.12a1.78,1.78,0,0,0,1.11.24c.55,0,1.1,0,1.65.08.9.12,1.31.5,1.3,1.4a22.3,22.3,0,0,0,.38,2.94,4.25,4.25,0,0,0,.4,2,.91.91,0,0,0,.28.71c.23.22.43.47.64.71a1.87,1.87,0,0,0-.07.22c-1.4,1-3,.32-4.49.52a3.18,3.18,0,0,0-1.34.12c.47.69,1.16.22,1.73.34a7.2,7.2,0,0,0,2.12-.19,4.06,4.06,0,0,1,2.41.22,1.16,1.16,0,0,0,.32.08l2,1.71c-.21.38-.58.18-.88.25a32.9,32.9,0,0,0-4.3.4c1.9-.09,3.71.84,5.62.34l.61-.1a10.72,10.72,0,0,1,2.72,1.43c.39.57,1.13.63,1.6,1.08a3.63,3.63,0,0,1-.45,2.41c-.58.9-1.57.79-2.43,1-2.44,0-4.84.47-7.28.44a10.35,10.35,0,0,1-2.29-.16c-1.41-.38-2-1.56-2.61-2.71a4.41,4.41,0,0,0-1.31-.72,1.42,1.42,0,0,1-.88-2c.41-1,0-1.62-.56-2.4-1-1.44-2.77-2.34-3.06-4.27a13.87,13.87,0,0,0-5.63-.16,6.59,6.59,0,0,1-1,0,8.83,8.83,0,0,1-.07-2.18C162.36,230.5,162.83,230.39,163.36,230.34Z"/><path class="cls-137" d="M162.39,237.1l-.06-1.63c.14-1.52.15-1.56,1.67-1.61s3.12,0,4.69,0a28.49,28.49,0,0,1,4.19,4.72c.57.74-.13,1.58-.48,2.32a3.46,3.46,0,0,0-.76,1.13c-.23.5-.68.86-.92,1.36-.42,1.23.12,2.55-.4,3.76-.13.2-.34.36-.56.26a23.73,23.73,0,0,1-6.75-3.82,1.33,1.33,0,0,1-.3-1.07l-.09-2.63A5.25,5.25,0,0,0,162.39,237.1Z"/><path class="cls-138" d="M172.12,240.84c.23-.61.69-1.2.63-1.85s-.75-1.07-1.14-1.59c-.93-1.23-2.1-2.26-2.92-3.58l.38-.33a30.16,30.16,0,0,0,2,2.42c.73.68,1.31,1.52,2,2.25a1.17,1.17,0,0,1,.24,1.51,7.93,7.93,0,0,0-.42,1.09.57.57,0,0,0,.26.71c.69.37,1.38.71,2.07,1.07a.89.89,0,0,1-.41.28,2.85,2.85,0,0,1-2.47-1A1.47,1.47,0,0,1,172.12,240.84Z"/><path class="cls-137" d="M149.9,239.52c0,1-.08,2-.11,3l-.59.4c-1.42,1.54-3.49,2-5.2,3a3.33,3.33,0,0,1-1.44.45.65.65,0,0,1-.38-.33c-.45-1.22,0-2.54-.36-3.76a9.14,9.14,0,0,0-.94-1.36,13.63,13.63,0,0,1-1.11-2c-.51-.79-.05-1.37.41-2,.65-.84,1.53-1.48,2.17-2.34a2.94,2.94,0,0,1,3.16-1.8,31.49,31.49,0,0,1,4,.27c.55.05.68.19.69.73,0,.78,0,1.56,0,2.34l-.06.63C149.8,237.66,150.22,238.63,149.9,239.52Z"/><path class="cls-139" d="M145.51,232.8c-.55.47-1.35,0-1.86.49s-.56,1.07-1.07,1.43l-.14.09c-.21,0-.23-.21-.32-.35.31-.64.94-1.07,1.13-1.79.06-.23.35-.21.58-.19a.91.91,0,0,0,.72.27C144.87,232.75,145.19,232.78,145.51,232.8Z"/><path class="cls-140" d="M141.21,240.89l.83.84a9.59,9.59,0,0,1,.14,4.16c-.15,1.21-1.54,1.28-2.45,1.74a7.51,7.51,0,0,1-3.13.14c-4.28-.05-8.57,0-12.85-.37a5.85,5.85,0,0,1-2.38-.27l-.21-.21a2.51,2.51,0,0,1-1-1.68c.11-1.1-.11-2.24.39-3.3a.53.53,0,0,1,.4-.36l1.13-.16c.25.69,0,1.62,1,1.92a8.38,8.38,0,0,0,2.75.61c.67.07,1.32.17,2,.26,1.77.54,3.62-.13,5.4.36a5.22,5.22,0,0,0,1.67-.09,2.78,2.78,0,0,0,2.39-2.06c.1-.38.18-.78.65-.89a4.18,4.18,0,0,0,1.81-.8C140.28,240.13,140.74,240.39,141.21,240.89Z"/><path class="cls-141" d="M120.9,241.58l-.4.36c0-.1,0-.21.08-.32A.69.69,0,0,1,120.9,241.58Z"/><path class="cls-102" d="M167.74,249l-.34,0a.8.8,0,0,0-.67-.37c-.26-.6-.81-.62-1.35-.67l-.09-.07h-.11a2,2,0,0,0-1.12-.69,1.66,1.66,0,0,0-1-.64c0-.21-.1-.37-.37-.27a.74.74,0,0,1,.69-.47.71.71,0,0,1,.43-.05c.48.12.95.3,1.43.44s.94.31,1.4.48c.25.1.49.23.74.35a5.66,5.66,0,0,0,.72.28,2.09,2.09,0,0,1,.35.13l.68.32c.23.1.46.19.68.3a.51.51,0,0,1,.25.27c.1.54.28,1.09-.18,1.57a1,1,0,0,0-.69-.3A3.68,3.68,0,0,0,167.74,249Z"/><path class="cls-142" d="M163,243.55l7.06,3.65a.44.44,0,0,1,.12.29c0,.11,0,.16,0,.16a.86.86,0,0,1-.69.16c-.87-.38-1.72-.79-2.57-1.2s-1.92-.93-2.84-1.46c-.39-.22-.7-.36-1,.09a.77.77,0,0,1-.32-1A4.06,4.06,0,0,1,163,243.55Z"/><path class="cls-143" d="M163.05,245.24a1.86,1.86,0,0,1,0-.33c0-.32.09-.59.47-.41,1.15.55,2.29,1.13,3.42,1.7l.15.09c.08.3-.09.42-.35.48-.57.06-1-.41-1.56-.37a2.1,2.1,0,0,0-1.06-.36c-.21-.2-.53-.26-.69-.53Z"/><path class="cls-144" d="M163.39,245.51a1.15,1.15,0,0,1,.75.35q-.16.28-.42.06l-.37-.12A2.89,2.89,0,0,1,163.39,245.51Z"/><path class="cls-145" d="M185,239.53a1.34,1.34,0,0,1-.94.31l-4.71,0a3,3,0,0,1-.67-.08.53.53,0,0,1-.45-.43.51.51,0,0,1,.32-.54,2.37,2.37,0,0,1,.8-.24c1.29,0,2.58,0,3.87,0a1.32,1.32,0,0,1,.46.2c-.31.07-.69,0-.9.3s.31.4.9.42Z"/><path class="cls-146" d="M143.79,229.06l-.37,2.51c-.44-.19-.34-.48-.34-.7,0-1.4,0-2.8,0-4.19h.32c0,.5,0,1,0,1.49A1,1,0,0,0,143.79,229.06Z"/><path class="cls-147" d="M140.4,250a.57.57,0,0,0-.47.29c-.38,0-.6.28-.89.45s-1,.15-1.33.53l-.68.14a9,9,0,0,1-3.06,0l-2.59-.13c-1-.3-2.13.11-3.16-.24l-1.38-.06-.1,0c-.59-.33-1.29,0-1.89-.3-.88-.22-1.83.06-2.68-.38-.12-.11-.22-.28-.36-.32a1.42,1.42,0,0,1-1-1.53l0-.83a.41.41,0,0,1,.39-.15c.41.15.75.45,1.16.59a4.16,4.16,0,0,0,1.31.19,4.1,4.1,0,0,1,.7.12,3.66,3.66,0,0,0,2.22-.12,23.43,23.43,0,0,1,4.51,0,5.27,5.27,0,0,0,1.89.25h1.57c1.51-.08,3.06.39,4.52-.38a2.9,2.9,0,0,1,.42-.12,8.75,8.75,0,0,0,1-.2l.37-.12a1.59,1.59,0,0,1,.38-.07h.19a1.45,1.45,0,0,1,.34,1.69A3.16,3.16,0,0,0,140.4,250Z"/><path class="cls-97" d="M147,247.18l-.5.1c-.31,0-.45.24-.67.38a2.36,2.36,0,0,0-1,.51,1.94,1.94,0,0,1-1.35.52l-.31.07c-.37.15-.62.1-.64-.36,0-.26,0-.53-.05-.8,0-.06,0-.13.05-.2a1.08,1.08,0,0,1,.28-.32,4,4,0,0,1,.94-.43l.76-.26c.31-.11.62-.19.92-.32l.71-.31c.3-.12.61-.2.9-.32a2.67,2.67,0,0,1,.36-.14c.25-.07.49-.15.74-.24a1,1,0,0,1,.77,0c.35,0,.77-.38,1,.21a1.23,1.23,0,0,0-.68.59,1.14,1.14,0,0,0-.67.42A3.52,3.52,0,0,0,147,247.18Z"/><path class="cls-148" d="M139.62,247.23c.28-.32.7-.32,1.06-.45,1.4-.5,1.4-.5,1.39-2l0-3a1,1,0,0,1,.44,1c0,1.16,0,2.32,0,3.48a.85.85,0,0,1,.14.94,1.08,1.08,0,0,1-.22.44h0c-.14-.15-.28-.31-.43-.45a.35.35,0,0,0-.55,0c-.24.39-.64.41-1,.44A.92.92,0,0,1,139.62,247.23Z"/><path class="cls-149" d="M140.43,247.29l1-.12,0,.45h0a1.39,1.39,0,0,1-.52.31h0a1.66,1.66,0,0,1-1,.16.35.35,0,0,1-.3-.33C139.73,247.34,140.2,247.52,140.43,247.29Z"/><path class="cls-150" d="M143.42,248.69l1.35-.52c0,.13,0,.25,0,.38l-.65.4-.61.08C143.47,248.92,143.44,248.8,143.42,248.69Z"/><path class="cls-151" d="M172.48,241.55a4.49,4.49,0,0,0,2.25,1c.9.83,1,2.36,2.44,2.75a22.53,22.53,0,0,0,7.19-.2c1-.17,2.11.18,3.13-.25l2-.54c.71-.18.83-.74.91-1.37s.13-.74,1-.48l.32.09.71,1c0,.71,0,1.42,0,2.14a3.14,3.14,0,0,1-.33,1.59c0,.1-.09.21-.13.32a.94.94,0,0,1-.78.7c-1.73.31-3.47-.18-5.2.08-3.75.61-7.55-.09-11.3.47a2.09,2.09,0,0,1-.56,0c-4.4-1.53-4-.9-3.64-6.11a2.77,2.77,0,0,0,.9-.8C171.68,241.64,171.92,241.11,172.48,241.55Z"/><path class="cls-152" d="M121.16,247.69l-.39-.08-.27-.37a.64.64,0,0,1,.66-.32v0A.55.55,0,0,1,121.16,247.69Z"/><path class="cls-100" d="M172.47,251l-.34-.18a1.39,1.39,0,0,0-1-.47l-.35-.11c0-.41,0-.83,0-1.25a.48.48,0,0,1,.34-.46,6.9,6.9,0,0,1,2.64.66l.42.19a7.45,7.45,0,0,0,2.11.11h2.84a5,5,0,0,0,1.85-.22,3.66,3.66,0,0,1,.56-.1c1.64-.07,3.27,0,4.91,0h1.65l.78,0c.83-.11,1.64-.29,2.46-.46a.82.82,0,0,1,.49.06,2.12,2.12,0,0,1-.85,2.18c-.83.57-1.84.42-2.74.68a.6.6,0,0,0-.55,0c-.4.31-.88.11-1.31.17a5.59,5.59,0,0,0-1.87.13h-.11l-.1.05-1,.05a8.82,8.82,0,0,0-3.47.24l-.89.07-3.46,0-.08-.06-.09,0-2.17-.91C172.93,251.22,172.75,251,172.47,251Z"/><path class="cls-153" d="M173.83,249.61a12.38,12.38,0,0,1-2.69-1c-.29-.43-.72-.25-1.11-.25a.6.6,0,0,1-.22-.09.21.21,0,0,1-.15-.28c.12-.16.31-.22.45-.35,0-.13,0-.26,0-.4,0-1.15,0-2.3,0-3.45a1.07,1.07,0,0,1,.39-1c0,1.05.16,2.1.05,3.16s.11,1.29,1.06,1.61a12.86,12.86,0,0,1,2.6,1.08C174.24,249,174.38,249.42,173.83,249.61Z"/><path class="cls-154" d="M188.56,240.61l0,.13-.13,0A.17.17,0,0,1,188.56,240.61Z"/><path class="cls-155" d="M149.9,239.52a5.37,5.37,0,0,1,.25-2.75v2.76h-.25Z"/><path class="cls-156" d="M191.85,248.75l-.47.21a.83.83,0,0,1-.24-.4.69.69,0,0,1,.27-.63l.54-.33c.05.22.1.44.14.66Z"/><path class="cls-157" d="M134,251.38l3.06,0a2.26,2.26,0,0,0,0,.26h-3C134,251.55,134,251.46,134,251.38Z"/><path class="cls-158" d="M149.45,244.52l-.59.16c-.28.28-.69.38-1,.64s-.54,0-.72.28l0,0c-.25.22-.56.14-.84.18a2.31,2.31,0,0,0-.61.3l-.45.1a.55.55,0,0,1-.56-.37,10.48,10.48,0,0,1,4.85-2.54C150,243.72,149.72,244.12,149.45,244.52Z"/><path class="cls-159" d="M149.56,243.25a4.25,4.25,0,0,1-1.3.68,16.67,16.67,0,0,0-3.58,2,.64.64,0,0,1-.85.14.26.26,0,0,1-.12-.25c0-.1,0-.15.07-.15a54.94,54.94,0,0,1,5.42-2.73Z"/><path class="cls-160" d="M131,234.78l3.37.05c.21.11.45.17.46.47a.5.5,0,0,1-.29.33c-1.07,0-2.2.92-3.22-.18l-.67-.65Z"/><path class="cls-161" d="M131.27,235.45l.64.16c.31.08.31.08,1.34-.38a.59.59,0,0,1,.31-.07c.37.08.74.18,1.11.28a.28.28,0,0,1,.38,0,.45.45,0,0,1,0,.41c-.31.21-.72,0-1,.24l-3,0a.86.86,0,0,1-.73-.32l0-.06a.35.35,0,0,1,.38,0Z"/><path class="cls-50" d="M130.64,235.77h-.38C130.39,235.52,130.52,235.57,130.64,235.77Z"/><path class="cls-162" d="M128.22,251a10.84,10.84,0,0,1,3.16.24l-.7.08-.74,0-1.75-.11A.52.52,0,0,0,128.22,251Z"/><path class="cls-163" d="M132,231.09a2.36,2.36,0,0,1-.07,1.29,1.07,1.07,0,0,1-.13-1.25Z"/><path class="cls-164" d="M124.85,250.67a2.61,2.61,0,0,1,1.89.3l-1.86-.06Z"/><path class="cls-165" d="M184.53,252a3.08,3.08,0,0,1,1.82-.25q.12.06.09.15c0,.06,0,.09-.07.09l-.79.1Z"/><path class="cls-166" d="M186.37,251.94a.4.4,0,0,1,0-.24,3,3,0,0,1,1.36,0,.59.59,0,0,0,0,.23Z"/><path class="cls-167" d="M147.78,245.18a2.07,2.07,0,0,1,1.08-.5c0,.12,0,.23,0,.35s-.34.23-.56.23A.32.32,0,0,1,147.78,245.18Z"/><path class="cls-168" d="M176.88,235.84l4.94-.1.39.1c0,.31,0,.61,0,.91a.42.42,0,0,1-.53.25,5.54,5.54,0,0,0-1.77-.15,6.94,6.94,0,0,1-2.26.07c.39-.73.86-.58,1.25-.61a5.39,5.39,0,0,0-1.55.13,1.21,1.21,0,0,1-.46-.17.32.32,0,0,1-.12-.27C176.83,235.89,176.85,235.84,176.88,235.84Z"/><path class="cls-123" d="M138.66,84.61a9.42,9.42,0,0,0-.77,6.18,15,15,0,0,1,.18,1.66,1.47,1.47,0,0,1-.47,1.21c-1.78,1.76-2.51,4.06-3.25,6.35a18,18,0,0,0-.39,1.8c-.88-.27-.41-.88-.34-1.39a15.86,15.86,0,0,1,1.85-5.34c.18-.35.41-.67.62-1s.4-.38.61-.56a1.79,1.79,0,0,0,.57-2q-.35-1.64-.54-3.3a11.63,11.63,0,0,1,.41-2.8,6,6,0,0,1,.35-1.3.66.66,0,0,1,.76-.51c.44.08.42.45.42.79A1,1,0,0,1,138.66,84.61Z"/><path class="cls-169" d="M134.31,104.19a5.32,5.32,0,0,0,1.43,2.24c.26.29.56.55.83.84a2.66,2.66,0,0,1,.78,2,4.34,4.34,0,0,0,0,.51,30.23,30.23,0,0,0,.3,5.7,10.38,10.38,0,0,1,.08,1.85c.14.36,0,.43-.34.37l-.07-.56c-.21-.34,0-.79-.29-1.11a1.11,1.11,0,0,1-.33-.91c0-.51,0-1-.11-1.51a.76.76,0,0,0-.76-.76l-1.84,0-1-.19c-.19-.19-.5-.11-.69-.3a1.5,1.5,0,0,1-.29-.06c.15-.76.64-.4,1-.32a.21.21,0,0,1,.26,0c.69.37,1.49,0,2.18.28,1-.17,1-.18,1.07-.91a4.8,4.8,0,0,0-1.53-4.68,7.2,7.2,0,0,1-1-1.51c-.21-.15-.12-.46-.31-.62v-.67c.1-.16.21-.17.32,0h0Z"/><path class="cls-170" d="M123.85,102.19l.35-.37a7.14,7.14,0,0,0,3.37,1.31c.81.14,1,.29,1,1a5.63,5.63,0,0,1,0,1.16,5,5,0,0,0,1.13,3.73,2.61,2.61,0,0,1,.24.43c.12.38-.06.5-.41.47a5.47,5.47,0,0,1-2-4.06c0-.28,0-.56,0-.84,0-1,0-.94-.95-1.23-.48-.15-1-.31-1.42-.49A2.4,2.4,0,0,1,123.85,102.19Z"/><path class="cls-171" d="M129.57,110l.41-.47c.28.27.57.52.82.81a5.58,5.58,0,0,0,2.24,1.63c-.36.07-.78-.06-1,.32A9.09,9.09,0,0,1,129.57,110Z"/><path class="cls-172" d="M134,103.85h-.32a4.42,4.42,0,0,1,0-3.44c.13.46-.14,1,.34,1.39C134,102.49,134,103.17,134,103.85Z"/><path class="cls-171" d="M135.48,112.25l-1.46,0a.9.9,0,0,1-.72-.32A4.38,4.38,0,0,1,135.48,112.25Z"/><path class="cls-172" d="M133.67,104.53a.64.64,0,0,1,.31.63A.55.55,0,0,1,133.67,104.53Z"/><path class="cls-2" d="M145.8,229.33a1.18,1.18,0,0,1-1.05-.24C145.13,229,145.51,229,145.8,229.33Z"/><path class="cls-131" d="M126.9,155.48c.67-.74,1.35-1.48,2-2.21a20.21,20.21,0,0,0,2.7-3,6.35,6.35,0,0,1,1.06-1.08,3.31,3.31,0,0,1,.55-.28c.14,1.13,0,2.19.09,3.22a14,14,0,0,0,.74,5.29,2.68,2.68,0,0,1-.59,2.78,8,8,0,0,0-1.43,3.71.61.61,0,0,0,0,.33c.54,1-.11,1.54-.74,2.14a18.48,18.48,0,0,0-2.61,2.84c0,.07-.19.06-.39.11a6.55,6.55,0,0,1,0-2.46,9.38,9.38,0,0,0-.34-4.47c-.45-1.79-.74-3.61-1-5.42A12.71,12.71,0,0,1,126.9,155.48Z"/><path class="cls-173" d="M139.44,157.48c-.58,1.2-1,1.32-2,.63-.14-.1-.28-.18-.42-.27l-.94-.07a2.92,2.92,0,0,0-.28-2.07,14.63,14.63,0,0,1-1.12-3.66,3.5,3.5,0,0,0-.21-1.06l.2-1.3c.25-.27.37-.68.81-.76s.62-.08.88.16h0a2.91,2.91,0,0,0,.37.33h0c.13.15.37.19.38.43a28.78,28.78,0,0,1,2.1,6.32,4,4,0,0,0,.25.62.78.78,0,0,1,.18.35A.64.64,0,0,1,139.44,157.48Z"/><path class="cls-174" d="M134.92,151.79a36.16,36.16,0,0,0,2,5.4c-.16.42-.68.21-.81.58-.31.1-.52.45-1,.32-.46-2-1.32-3.87-.76-6C134.47,151.88,134.62,151.7,134.92,151.79Z"/><path class="cls-175" d="M136.36,149.08h-.85a.8.8,0,0,1-.83,0C135.42,148.53,135.58,148.53,136.36,149.08Z"/><path class="cls-176" d="M134.92,151.79l-.57.32a2.17,2.17,0,0,1,.12-1.13C134.78,151.16,135,151.39,134.92,151.79Z"/><path class="cls-177" d="M134.68,149.09h.83a1.75,1.75,0,0,1-.84.6A.62.62,0,0,1,134.68,149.09Z"/><path class="cls-178" d="M137.06,149.82l-.38-.43a.5.5,0,0,1,.59.35A.21.21,0,0,1,137.06,149.82Z"/><path class="cls-179" d="M136.71,149.4a.38.38,0,0,1-.37-.33C136.55,149.08,136.7,149.16,136.71,149.4Z"/><path class="cls-180" d="M194.11,156.51a1.58,1.58,0,0,1-.41,1.23c-.34.33-.67.45-1,.18a4.6,4.6,0,0,0-2.86-.74c-2.07,0-4.14-.07-6.2,0a43.4,43.4,0,0,0-4.81.53c-.82.13-1.66.19-2.48.31a21,21,0,0,1-4.48.49c-.53.1-1.17.58-1.41-.39a7.38,7.38,0,0,1,2.46-.45c3.38-.51,6.75-1,10.14-1.42a46.84,46.84,0,0,1,6.38-.13c1.06,0,2.13.06,3.19.07.51,0,.71-.16.78-.68.25-1.83.5-3.65.71-5.49a19.63,19.63,0,0,1,.36-2.65c1,.22.65,1.08.8,1.7a25.55,25.55,0,0,1-.65,6.69A3.18,3.18,0,0,1,194.11,156.51Z"/><path class="cls-123" d="M139.44,157.48a1,1,0,0,1,0-.3,1.33,1.33,0,0,1,.33-.38,7.78,7.78,0,0,1,6.63.42,16.49,16.49,0,0,0,5.07,1.61c.51.49,1.16.33,1.75.37a4.31,4.31,0,0,1,2.46.52,4.14,4.14,0,0,1-1.59.49,13.16,13.16,0,0,1-8-1.86,9.08,9.08,0,0,0-3.31-1.08,1.68,1.68,0,0,0-.66.07A8.49,8.49,0,0,1,139.44,157.48Z"/><path class="cls-9" d="M156.24,132.5c-.32.07-.66.12-1,.21a10.45,10.45,0,0,1-4.94.1,5.74,5.74,0,0,1-3.79-2.52,28.27,28.27,0,0,0-2.79-3.75,16.64,16.64,0,0,1-1.24-2.32c-.21-.49-.75-.79-.81-1.36-.14-.38.06-.46.37-.44a9.65,9.65,0,0,1,1.58,2.36,9.29,9.29,0,0,0,1.55,2.18c.59.75,1.16,1.5,1.69,2.29a6.35,6.35,0,0,0,3.35,2.65,5.47,5.47,0,0,0,1.64.31l3.69,0C155.91,132,156.27,131.87,156.24,132.5Z"/><path class="cls-181" d="M194.78,149.12c-.12-.58.19-1.24-.34-1.73.05-.89.08-1.79.14-2.68a40.63,40.63,0,0,0,.16-5.52q0-3.6,0-7.19c0-.62,0-1.23,0-1.85.28-.5.08-1.06.16-1.59.05-.27.07-.56.48-.4a2.53,2.53,0,0,1,.53,2.05c-.07,5.7.29,11.41-.34,17.09C195.54,148,195.73,148.82,194.78,149.12Z"/><path class="cls-123" d="M170.42,158.14c.36.54.93.32,1.41.39-.51.47-1.14.28-1.73.31a9.33,9.33,0,0,0-2.84-.11,3.11,3.11,0,0,1,1.88.15,1.24,1.24,0,0,1-.92.29h-1.84a36.6,36.6,0,0,0-7.4,0H156.7a1.06,1.06,0,0,1-1.07-.59c1.46,0,2.92-.08,4.37,0,3.21.09,6.39-.38,9.59-.41Z"/><path class="cls-182" d="M142.06,122.42l-.37.44a8.84,8.84,0,0,0-2-1.44,4,4,0,0,1-2.3-3.74c.12-.12.23-.24.34-.37.09.14.24.27.26.42.15,1.69,1.34,2.6,2.6,3.42C141.15,121.51,141.8,121.74,142.06,122.42Z"/><path class="cls-182" d="M137,116c.43.28.34.7.29,1.11C137.22,116.75,137.12,116.38,137,116Z"/><path class="cls-2" d="M139.76,156.8l-.33.38c0-.14,0-.28,0-.42Z"/><path class="cls-183" d="M124.18,147.71c-1,.77-2.07,1.5-3.07,2.31-.5.4-1.14.43-1.65.77-.54,0-.62-.44-.58-.84.57-5.63.09-11.29.25-16.93a4,4,0,0,1,.31-2.13,8,8,0,0,1-.2-3.92c0-.21.19-.43.18-.63-.09-1.67.53-3.27.38-4.94l.26,0c.55.39.53,1,.75,1.59.18,1.15.31,2.3.54,3.44.85,5,1.52,10,2.09,15A48.91,48.91,0,0,0,124.18,147.71Z"/><path class="cls-184" d="M123.15,159.9a3.47,3.47,0,0,1-1.29,1.29c-.46.32-1,.61-1.4.94a2.89,2.89,0,0,0-1.34,2.74,10.11,10.11,0,0,0,.18,1.33,58.45,58.45,0,0,1,1.23,7.45c.18,2,.43,4,.66,6,0,.39.19.76.25,1.15s.25.73-.22.82-.37-.33-.42-.59a8.44,8.44,0,0,1-.3-1.48c0-1.46-.3-2.9-.43-4.35a53,53,0,0,0-1.12-7.3c-.2-.87-.37-1.75-.55-2.63l.12-2c.2-.33-.29-.64,0-1a5.65,5.65,0,0,0,2.83-1.69,2.92,2.92,0,0,1,1.06-.81A.87.87,0,0,1,123.15,159.9Z"/><path class="cls-185" d="M119.44,130.89c0,5.55,0,11.1,0,16.65a8.09,8.09,0,0,1-.21,2.5.67.67,0,0,0,.23.75.72.72,0,0,1-.72.29,2.28,2.28,0,0,1-.18-1.8,6.9,6.9,0,0,0,.21-2.16l0-14c0-.5,0-1,0-1.51A.83.83,0,0,1,119.44,130.89Z"/><path class="cls-186" d="M124.89,158.18V169c0,2.19,0,4.38,0,6.57a9.28,9.28,0,0,1-.11,1.16c0,.07-.15.13-.24.16s-.21,0-.27-.14a3,3,0,0,1-.1-1.32q0-4.38,0-8.76c0-2.46,0-4.93,0-7.39,0-.34,0-.68,0-1s-.11-1.08.45-1.09C125,157.14,124.79,157.82,124.89,158.18Z"/><path class="cls-187" d="M119.78,118.67c0,.36,0,.76.31,1,.53.67.15,1.19-.27,1.71h0A2.67,2.67,0,0,1,119.78,118.67Z"/><path class="cls-188" d="M118.48,162.26c.09.33.48.64,0,1a1.92,1.92,0,0,0-.34-.3c-.38-.21-.2-.39,0-.56A1.39,1.39,0,0,1,118.48,162.26Z"/><path class="cls-171" d="M132.28,112.3a.69.69,0,0,1,.69.3A.72.72,0,0,1,132.28,112.3Z"/><path class="cls-189" d="M124.18,147.71a1.91,1.91,0,0,1-.72-1.24c-.1-1.34-.2-2.67-.34-4-.24-2.49-.42-5-.84-7.48s-.75-4.85-1.1-7.28c-.07-.5,0-1-.06-1.51s-.47-.93.34-1.06c.27,1.71.52,3.43.81,5.14a40.94,40.94,0,0,1,1,7.47c0,.15.13.3.21.45.28,2.76.57,5.53.83,8.3,0,.41.18.61.6.58A1,1,0,0,1,124.18,147.71Z"/><path class="cls-190" d="M119.82,121.41l.27-1.71c.13-.56.27-1.11.4-1.66.11-.12.14-.33.35-.35s.6.17.61.47a36.14,36.14,0,0,1,0,5c0,.09-.12.18-.19.27a3.24,3.24,0,0,1-.54-2.18c-.32.36.37,1.07-.22,1.51a.84.84,0,0,1-.31-.68A.73.73,0,0,0,119.82,121.41Z"/><path class="cls-191" d="M120.45,122.75c0-.67,0-1.34,0-2,0-.29.21-.51.34-.41a.39.39,0,0,1,.13.45c-.29.92.32,1.75.27,2.65-.15.6.29,1.12.25,1.71-.39.27-.28.69-.34,1.06a1.62,1.62,0,0,1-.25-.58A21.44,21.44,0,0,0,120.45,122.75Z"/><path class="cls-192" d="M120.84,117.69l-.35.35a.68.68,0,0,1,.31-.69C120.81,117.46,120.83,117.58,120.84,117.69Z"/><path class="cls-125" d="M118.74,84.61a.65.65,0,0,1-.25-.52A.6.6,0,0,1,118.74,84.61Z"/><path class="cls-130" d="M118,82.61a.36.36,0,0,1-.23-.38A.39.39,0,0,1,118,82.61Z"/><path class="cls-131" d="M194.78,149.12a1.75,1.75,0,0,0,.3-1.11,174.12,174.12,0,0,0,.34-18.13c0-.6.13-1.25-.3-1.79a2.64,2.64,0,0,1-.06-2.61l0-1.48a1.14,1.14,0,0,1,.29-.9c1.12,1.17,1.19,2.74,1.53,4.18.88,3.77.9,7.68,1.7,11.46.7,3.23,1,6.52,1.53,9.78a9.26,9.26,0,0,1-1,5.38,4.33,4.33,0,0,1-4.4,2.46.62.62,0,0,1-.59-.54A35.08,35.08,0,0,0,194.78,149.12Z"/><path class="cls-193" d="M194.44,156.14a5.14,5.14,0,0,0,2.29-.47,3.67,3.67,0,0,0,2.25-2.36,33.49,33.49,0,0,0,.81-3.6,3.31,3.31,0,0,0-.06-1.33c-.47-1.91-.53-3.88-.9-5.81-.26-1.31-.47-2.64-.72-4-.31-1.7-.52-3.42-.72-5.15a50.12,50.12,0,0,0-1.89-9.7,4.8,4.8,0,0,1-.12-.66c0-.17,0-.34.06-.51s.14-.43.4-.46.51.17.58.47c.59,2.45,1.29,4.87,1.65,7.37.2,1.44.26,2.89.42,4.34.13,1.11.3,2.21.49,3.31.25,1.44.6,2.85.78,4.29.12,1,.27,1.89.35,2.83.12,1.46.42,2.88.63,4.31a11.2,11.2,0,0,1-.67,4.28,4.16,4.16,0,0,1-1.72,2.42,4.34,4.34,0,0,1-3.94.75c-.1-.09-.13-.17-.08-.25S194.4,156.14,194.44,156.14Z"/><path class="cls-194" d="M195.06,125.48l.06,2.61c0,.45,0,.89,0,1.33a.93.93,0,0,1-.31.74c-.14-1.72-.24-3.45-.42-5.16a5.47,5.47,0,0,0-2-3.56,7.22,7.22,0,0,1-1.59-2.32,1.12,1.12,0,0,1-.08-.49.53.53,0,0,1,.31-.53.59.59,0,0,1,.63.11,2.92,2.92,0,0,1,.42.51,10.81,10.81,0,0,0,2,2.62c.19.13.26.49.3.75a10.18,10.18,0,0,1,.37,2.63A1,1,0,0,0,195.06,125.48Z"/><path class="cls-180" d="M159,159.17a.91.91,0,0,1,.73-.31h5.95a.91.91,0,0,1,.72.31Z"/><path class="cls-180" d="M169.14,158.88a8,8,0,0,1-2.06-.2,8.24,8.24,0,0,1,2.62-.1c.14,0,.27.17.4.26Z"/><path class="cls-195" d="M176.83,165c.26-.05.54-.07.69-.35a1,1,0,0,1,1,.64C178,165.24,177.34,165.42,176.83,165Z"/><path class="cls-196" d="M194.44,156.14l0,.36h-.3c0-.23,0-.46.07-.69Z"/><path class="cls-10" d="M144.38,104.15l1-.57a3.75,3.75,0,0,0-1-1.76,1.86,1.86,0,0,0-2.5-.66,5.89,5.89,0,0,0-2.73,2.14c-.25.3-.47.63-.72.93a.32.32,0,0,1-.28,0,.37.37,0,0,1-.1-.3,5.53,5.53,0,0,1,4.17-3.5,2.9,2.9,0,0,1,2.82,1.15c1.19,1.62,2.31,3.3,3.45,5a1.44,1.44,0,0,1,.27.62c.28,1.79,1.81,1.91,3.12,2.31a.9.9,0,0,0,.77-.23,3.18,3.18,0,0,1,1-.58c1-.18,1.47-.9,1.85-1.75a15.67,15.67,0,0,1,2.58-3.72A6.21,6.21,0,0,1,162,101a3.49,3.49,0,0,1,3.68,2.72.34.34,0,0,1-.15.27.37.37,0,0,1-.31,0c-.28-.11-.37-.39-.53-.62-1.09-1.56-2.08-2.12-4.15-.95a4.91,4.91,0,0,0-.55.38s0,.1-.09.21c.16.11.33.24.51.35a2.85,2.85,0,0,1-.08,4.86c-1.45.88-2.3.81-3.82-.32-.2-.15-.37-.24-.59-.08a.5.5,0,0,0-.1.74c1.42,1.28,2,3.09,2.87,4.68a.3.3,0,0,1,.09.27c0,.1,0,.15-.06.15a.6.6,0,0,1-.64-.18c-.17-.16-.33-.34-.49-.51a10.73,10.73,0,0,1-1.63-2.33,1.55,1.55,0,0,0-2.29-.7c-1.55,1-3,.6-4.45-.11a5.41,5.41,0,0,0-1.62-.44.87.87,0,0,1-.51-.47c.51-2.61-.13-3.83-2.22-4.27A.72.72,0,0,1,144.38,104.15Z"/><path class="cls-197" d="M147.06,108.86l.44.39c.14.6-.05,1.21,0,1.83a5.63,5.63,0,0,1-.82,4,2.15,2.15,0,0,0,.52,3.13,2.7,2.7,0,0,0,3.58,0c.17-.29.32-.6.74-.56.71.71,1.22.87,1.24-.43,0-.9,0-1.8,0-2.7a3,3,0,0,1,1.46-2.52,1.14,1.14,0,0,1,1.54,0c.55.54.23,1-.18,1.46a5.32,5.32,0,0,0-1.25,3.91c0,1.39.57,1.69,1.81,1.15a3.79,3.79,0,0,0,2.43-4.86c0-.14,0-.28,0-.41,2,1.64,2,1.55.86,4a2.36,2.36,0,0,1-1,1.13c-.56.35-1.06.82-1.63,1.17a3.14,3.14,0,0,1-2.69.52,9.57,9.57,0,0,0-1.32-.22c-.16,0-.4-.11-.48,0-.71.63-1.61.34-2.39.42a4.88,4.88,0,0,1-4.41-1.56,3,3,0,0,1-.66-3.12,4.24,4.24,0,0,1,1-1.91,1.66,1.66,0,0,0,.51-1.36c0-.4,0-.79,0-1.18,0-1,0-1-1-1.31a3.77,3.77,0,0,1-2.52-2.7,2.94,2.94,0,0,1,.28-2,1.52,1.52,0,0,1,1.21-1l.41.35c.13.22,0,.42-.06.63-.92,2.14-.57,2.82,1.74,3.42A1.21,1.21,0,0,1,147.06,108.86Z"/><path class="cls-198" d="M150.06,125a3.88,3.88,0,0,1-.18-1.88c.48-.09.48.43.81.51s.65-.11,1-.19a11.21,11.21,0,0,1,3.15-.4,1.45,1.45,0,0,0,1.26-.33c.17-.18.3-.55.63-.3a1,1,0,0,1,.23.6,4.61,4.61,0,0,1,0,.83c0,.35-.3.53-.56.3a1.47,1.47,0,0,0-1.4-.24A28.76,28.76,0,0,0,150.06,125Z"/><path class="cls-199" d="M156.24,132.5c-.15-.27-.41-.29-.68-.32.62-.48,1.42-.57,2-1.08a2.68,2.68,0,0,0,1-1.27,5.85,5.85,0,0,1,1-2.05l.35.36a9.35,9.35,0,0,0-.61,1.38,4,4,0,0,1-2.5,2.73Z"/><path class="cls-172" d="M134.31,104.19l-.33-.33Z"/><path class="cls-200" d="M175.15,86.32a13.94,13.94,0,0,1,2.67-3.44,17.08,17.08,0,0,0,2-2.51A11.26,11.26,0,0,1,182,77.64a28.94,28.94,0,0,0,3.49-4.32A5.68,5.68,0,0,1,186.8,72a9.56,9.56,0,0,0,2.58-2.87,4.62,4.62,0,0,1,2.81-2c.44-.11.86-.28,1.29-.39a1.13,1.13,0,0,1,1.1.28A5.64,5.64,0,0,1,192,68.33a3.26,3.26,0,0,0-1.77,1.21c-1.82,2.43-4.21,4.37-5.93,6.89a5.7,5.7,0,0,1-.9,1,21.53,21.53,0,0,0-3.53,4.37,12.19,12.19,0,0,0,1.54,1.93,11.52,11.52,0,0,1,2.46,4.74.55.55,0,0,1-.18.43.43.43,0,0,1-.6-.08,2.94,2.94,0,0,1-.58-1.19,9,9,0,0,0-2-3.47,17.88,17.88,0,0,1-1.13-1.53,13.16,13.16,0,0,0-2.59,2.7,1.69,1.69,0,0,0,.53,1,13.14,13.14,0,0,1,2.93,8.42c0,1,0,1.91,0,2.87a1.17,1.17,0,0,1-.33.92c-.12.11-.27.22-.45.12s-.21-.13-.22-.21a5.69,5.69,0,0,1-.06-.83c0-1.12.07-2.25,0-3.37a13.53,13.53,0,0,0-2.72-7.49c-.31-.45-.62-.36-1-.07C175.22,86.77,175.1,86.65,175.15,86.32Z"/><path class="cls-201" d="M175.15,86.32l.4.35c-.18.37-.32.76-.76.91C174.88,87.15,174.69,86.64,175.15,86.32Z"/><path class="cls-202" d="M135.12,232c-.42,0-.85.15-1.12-.32.42-1.06.05-2.15.15-3.22.51-.84,1.28-.63,2-.52a25.77,25.77,0,0,0,3.17.07c2,0,2.1.17,2.05,2.08a2.3,2.3,0,0,1-.12.82c-.54.77-1.42.31-2.1.56C137.85,231.89,136.42,231.45,135.12,232Z"/><path class="cls-203" d="M134,240.86c.23.14.3.32.08.51a1,1,0,0,1-.79.17c-2-.1-4-.2-6-.34a1.89,1.89,0,0,1-1.48-.64c-.07-.34,0-.47.39-.35h0a.28.28,0,0,0,.37,0,27.74,27.74,0,0,1,7,.4c.15,0,.28.16.42.25-.12.14-.31.11-.45.19A.7.7,0,0,0,134,240.86Z"/><path class="cls-204" d="M141,231c0-.66.09-1.32.09-2,0-.49-.21-.69-.72-.71-.89,0-1.77,0-2.66,0a3,3,0,0,1-1.77-.28c.39-.44,1,0,1.39-.34,1.06,0,2.12-.05,3.19-.06a1.1,1.1,0,0,1,1.2.71,7,7,0,0,0-.15,2.14C141.54,230.87,141.51,231.22,141,231Z"/><path class="cls-205" d="M142.12,234.46l.32.35c-.79.93-1.56,1.89-2.37,2.8-.39.43-.2.82-.07,1.24-.1.15-.12.36-.33.41l-.42-.7a.83.83,0,0,1,.12-1.06c.68-.79,1.37-1.56,2.06-2.34C141.65,234.92,141.89,234.69,142.12,234.46Z"/><path class="cls-206" d="M135.12,232c-.17-.5-.12-.68.22-.68H139c.4,0,.93-.45,1.06.35A31,31,0,0,1,135.12,232Z"/><path class="cls-207" d="M135,235.47l-.35,0c0-.11,0-.21,0-.32a2.51,2.51,0,0,1,1.77-.05,4,4,0,0,1,.49,0c.28,0,.55.16.61.47s-.21.48-.45.59a2,2,0,0,1-1.28.21c-.59-.13-1.19-.18-1.79-.26.26-.37.66-.27,1-.32.52-.34,1.17.06,1.75-.31.15,0-.2-.17-.08,0s0,.12-.11.12A3.1,3.1,0,0,1,135,235.47Z"/><path class="cls-207" d="M140,231.7c-.27-.37-.7-.24-1.06-.35.63-.42,1.35-.23,2-.31.43-.2.38-.59.41-1,.06-.56-.2-1.19.31-1.68,0,.77.09,1.54.06,2.31s-.18,1-1.09,1.05A4.89,4.89,0,0,1,140,231.7Z"/><path class="cls-208" d="M139.67,239.26l.33-.41c.16.34.25.76.61.94s.49.69.6,1.1c-.51-.13-1-.34-1.52.06a2.29,2.29,0,0,1-1.83.58l1.25-.72C139.91,240.35,139.91,240.35,139.67,239.26Z"/><path class="cls-209" d="M137.33,227.74c-.38.45-.93.2-1.39.34-.62,0-1.32-.12-1.66.64-.11.13-.13.34-.33.39-.29-.85-.15-1.27.52-1.38A11.41,11.41,0,0,1,137.33,227.74Z"/><path class="cls-210" d="M133.15,244.57c-1.33,0-2.65,0-4,0a2.22,2.22,0,0,1-1.41-.36l4.46,0A1.43,1.43,0,0,1,133.15,244.57Z"/><path class="cls-209" d="M134,229.11l.33-.39a6.67,6.67,0,0,1,.08,2.48.58.58,0,0,1-.36.5C134,230.84,134,230,134,229.11Z"/><path class="cls-161" d="M136.43,235.07l-1.77.05-.34-.29A3.4,3.4,0,0,1,136.43,235.07Z"/><path class="cls-211" d="M126.2,240.21l-.39.35c-.19-.15-.29-.36-.09-.54S126.1,240,126.2,240.21Z"/><path class="cls-211" d="M126.57,240.21c-.12.21-.24.24-.37,0Z"/><path class="cls-212" d="M178.53,232.71a.76.76,0,0,1-.69.37c-1.6,0-3.2,0-4.8,0-.19,0-.38-.18-.57-.28a1.1,1.1,0,0,1,1-.35h3c.22,0,.39,0,.16,0h-4.14c-.9,0-1.36-.4-1.33-1.32s-.25-1.71.75-2.18c2.08,0,4.16-.06,6.24,0,.7.59.23,1.33.26,2A4,4,0,0,0,178.53,232.71Z"/><path class="cls-213" d="M187.49,244.89a1.55,1.55,0,0,1-.44.23c-1.5.16-3,.33-4.49.44a22,22,0,0,0-3.34.25,3.31,3.31,0,0,1-2.38-.55.29.29,0,0,1,.42-.06c.87,0,1.74.43,2.62.08,2.27,0,4.52-.32,6.78-.44A5.78,5.78,0,0,1,187.49,244.89Z"/><path class="cls-214" d="M171.41,231.06c.23.92.23.94.86,1,1.34.05,2.69.07,4,.11.44,0,.91-.14,1.27.26-1.33.49-2.74-.09-4.07.32l-1,.06c-.44-.17-1,.13-1.36-.33-.17-.2-.12-.49-.27-.7l0-1.34C171.46,230.23,171.17,230.89,171.41,231.06Z"/><path class="cls-215" d="M180.56,241.48a3.9,3.9,0,0,1,2.38-.29.27.27,0,0,1,.1.26c0,.09,0,.14-.07.13a1,1,0,0,1-.76.06c.53.25.92-.2,1.39-.27.75,0,1.57-.18,2.13.56a1.1,1.1,0,0,1-.78.26l-4.37.05A.54.54,0,0,1,180.56,241.48Z"/><path class="cls-216" d="M178.18,229.13l-6.35-.06c-.32.14-.36,0-.34-.29a52,52,0,0,1,6.72,0c.09.1.12.18.08.27S178.21,229.13,178.18,229.13Z"/><path class="cls-217" d="M176.86,236.13H180c-.62.6-1.31.12-1.89.58l1.82.14a4.88,4.88,0,0,1-2.42.27,2.48,2.48,0,0,0-.3-.25,1.33,1.33,0,0,1-.45-.37A.41.41,0,0,1,176.86,236.13Z"/><path class="cls-218" d="M178.18,229.13l0-.39a.75.75,0,0,1,.65,1,16.79,16.79,0,0,0-.33,3c-.35-.18-.34-.52-.34-.84C178.18,231,178.18,230,178.18,229.13Z"/><path class="cls-146" d="M177.52,236.75v.37a4.15,4.15,0,0,1-2.1-.08.5.5,0,0,1-.37-.49.53.53,0,0,1,.41-.45,1.54,1.54,0,0,1,1.4,0h0l0,.3c0,.12-.1.17-.21.14,0,.12,0,.1.16.08A1.18,1.18,0,0,1,177.52,236.75Z"/><path class="cls-219" d="M177.26,245.2l-.42.06a1.85,1.85,0,0,1-1.43-1.19c-.22-.49-.46-1-.68-1.48l.46-.05c.1.11.27.22.29.35A3,3,0,0,0,177.26,245.2Z"/><path class="cls-220" d="M180.56,241.48l0,.76a2.58,2.58,0,0,1-1.75.17c-.21-.06-.57-.17-.29-.54s1,0,1.36-.32Z"/><path class="cls-221" d="M185.73,241.93a5.16,5.16,0,0,0-2.49-.38c-.12.12-.21.11-.29,0s0-.21,0-.32h3c.19.18.53.28.33.65Z"/><path class="cls-222" d="M171.49,228.78l.34.29c-.57.57-.28,1.33-.42,2-.2-.21-.39-.43-.59-.65C170.79,229.76,170.61,229.05,171.49,228.78Z"/><path class="cls-223" d="M186.3,241.85l-.33-.65.16,0c.26,0,.58-.34.72-.06C187.08,241.57,186.7,241.76,186.3,241.85Z"/><path class="cls-217" d="M176.87,236.14l-1.4,0a1.56,1.56,0,0,1,1.41-.26C176.87,235.94,176.87,236,176.87,236.14Z"/><path class="cls-215" d="M179.9,241.55c-.37.46-.89.28-1.36.32C178.9,241.36,179.42,241.55,179.9,241.55Z"/><path class="cls-222" d="M170.84,231.75a.76.76,0,0,1,.27.7A.66.66,0,0,1,170.84,231.75Z"/><path class="cls-224" d="M172.48,241.55l-1.11.38c.19-.4.09-1,.75-1.09A.79.79,0,0,1,172.48,241.55Z"/><path class="cls-225" d="M142.43,247.23c0-.34,0-.68.07-1a.58.58,0,0,1,.19,0h.18c.2.24.18-.17.32-.12a.68.68,0,0,1,.37.06.79.79,0,0,1,.33.47.36.36,0,0,1-.24.29,1.27,1.27,0,0,1-.77.32A.28.28,0,0,1,142.43,247.23Z"/><path class="cls-226" d="M143.45,246.27h-.39l-.21,0-.15,0a2.81,2.81,0,0,1,1.08-.6c0,.11,0,.22,0,.33C143.82,246.23,143.76,246.39,143.45,246.27Z"/><path class="cls-227" d="M140.43,247.29a1,1,0,0,1-.69.35l-.24.19a.46.46,0,0,0-.17.24l.2.23c-.44.22-.9.43-1.34.66a1.51,1.51,0,0,1-.81.12l-2.68-.16a.28.28,0,0,1-.1-.26c0-.09.05-.14.08-.14a4.26,4.26,0,0,1,2.31-.31s.08-.05.08-.05l-.1-.07c-.13,0-.23,0-.35,0-1,0-1.91,0-2.85,0h-5a7.51,7.51,0,0,1-1.64-.12,5.07,5.07,0,0,0-1-.2c-.61,0-1.23,0-1.84-.1-.34-.11-.73-.17-.69-.67a14,14,0,0,1,4,.17,11.31,11.31,0,0,0,2.33.13H136a3,3,0,0,1,1,0,4.27,4.27,0,0,0,2.6-.08Z"/><path class="cls-228" d="M123.53,247a.93.93,0,0,0,.73.34c-.44,1.13-1.23.21-1.82.5,0,.22,1.06-.27.71.57a1.49,1.49,0,0,1-1-.06.92.92,0,0,1-1-.63c0-.25,0-.5,0-.75Z"/><path class="cls-229" d="M165.07,246.19l1.65.41.11.21-.17.18-1.58-.46c-.11-.07-.15-.15-.12-.22S165,246.19,165.07,246.19Z"/><path class="cls-230" d="M165.07,246.19c0,.12,0,.23,0,.34a2.68,2.68,0,0,1-1.36-.61l.42-.06A1.29,1.29,0,0,1,165.07,246.19Z"/><path class="cls-231" d="M169.78,248a1,1,0,0,0,0,.25.91.91,0,0,1-.74-.25l.14-.17C169.43,247.78,169.64,247.74,169.78,248Z"/><path class="cls-232" d="M167.37,247.31a.76.76,0,0,1-.71-.32,1,1,0,0,1,.09-.18c.32-.08.61-.11.73.3Z"/><path class="cls-231" d="M169.07,248a.79.79,0,0,1-.68-.29,1.08,1.08,0,0,1,.08-.19.68.68,0,0,1,.59,0,.31.31,0,0,1,.12.36Z"/><path class="cls-232" d="M168.09,247.59a.83.83,0,0,1-.72-.28l.12-.15a.57.57,0,0,1,.64,0A.32.32,0,0,1,168.09,247.59Z"/><path class="cls-233" d="M168.09,247.59l0-.27c.28-.23.35-.07.37.2a.47.47,0,0,0,0,.17A.63.63,0,0,1,168.09,247.59Z"/><path class="cls-234" d="M168.43,247.52l-.37-.2-.57-.16-.74-.35a.76.76,0,0,0,0-.21l.33-.31a6.21,6.21,0,0,1,2.33,1.32c-.1.13-.2.14-.31,0Z"/><path class="cls-235" d="M169.07,247.62a1.09,1.09,0,0,1,.31,0h.73a.46.46,0,0,1-.33.38l-.6-.13A1.2,1.2,0,0,1,169.07,247.62Z"/><path class="cls-236" d="M181.23,239.29a3.47,3.47,0,0,1-2,.09A3.55,3.55,0,0,1,181.23,239.29Z"/><path class="cls-237" d="M131.24,248.63h-5a1.11,1.11,0,0,1-1.14,0c.17-.87.86-.78,1.45-.73,1.35.1,2.7,0,4.05.06a1.27,1.27,0,0,1,.54.17l.17.24Z"/><path class="cls-238" d="M125.16,248.57l1.13.06a2,2,0,0,1-2.23,0,.71.71,0,0,1,.65-.31A.73.73,0,0,1,125.16,248.57Z"/><path class="cls-239" d="M134.65,248.65a1.28,1.28,0,0,0,0,.27,5.17,5.17,0,0,1-1.71,0,.31.31,0,0,1,.12-.47A1.21,1.21,0,0,1,134.65,248.65Z"/><path class="cls-240" d="M133,248.63c0,.1,0,.19,0,.28a2.36,2.36,0,0,1-1.74-.28l0-.13a1.41,1.41,0,0,1,1-.23A1,1,0,0,1,133,248.63Z"/><path class="cls-241" d="M124.9,248.57l-.84.1-.46-.07c-.21-.12-.22-.27-.06-.44C124.1,248,124.65,247.76,124.9,248.57Z"/><path class="cls-242" d="M123.43,248.28c0,.11.11.21.17.32-.52,0-1.07.17-1.49-.28l1.11-.07Z"/><path class="cls-243" d="M139.53,248.3a2.22,2.22,0,0,1-.45-.06c-.18-.07-.16-.2,0-.33l.37-.29.32,0a1.82,1.82,0,0,0,0,.33.23.23,0,0,1-.19.33Z"/><path class="cls-244" d="M139.56,248.3c.06-.11.12-.22.19-.33l1.15,0A1.6,1.6,0,0,1,139.56,248.3Z"/><path class="cls-140" d="M140.91,247.93l.52-.31A.58.58,0,0,1,140.91,247.93Z"/><path class="cls-245" d="M145.5,246.3a1.4,1.4,0,0,1-1,.36l-.15-.15c.06-.55.48-.38.81-.41A.3.3,0,0,1,145.5,246.3Z"/><path class="cls-246" d="M147.78,245.18l.51.08a1.27,1.27,0,0,1-1.14.34C147.23,245.27,147.52,245.25,147.78,245.18Z"/><path class="cls-247" d="M146.21,245.62l1,0c-.21.42-.63.35-1,.44l-.17-.09A.33.33,0,0,1,146.21,245.62Z"/><path class="cls-245" d="M145.48,245.92a.75.75,0,0,0,.3-.09.38.38,0,0,1,.33,0,.8.8,0,0,1,.08.16.84.84,0,0,1-.69.28l-.12-.14A.16.16,0,0,1,145.48,245.92Z"/><path class="cls-248" d="M143.65,246.94l.16-.32a.39.39,0,0,1,.57-.08l.14.12A1.06,1.06,0,0,1,143.65,246.94Z"/><path class="cls-30" d="M142.43,247.23l.45,0-.46.33Z"/><path class="cls-249" d="M174.46,248.59a2,2,0,0,1,1.42-.34,18.51,18.51,0,0,0,3.49-.23,3,3,0,0,1,1,0,13.78,13.78,0,0,0,5-.06,2.9,2.9,0,0,1,.66,0,.46.46,0,0,1,.12.47c-.22.46-.66.51-1.09.57s-.85,0-1.28,0h-1.31l-.54,0c-2.28,0-4.55,0-6.83.1A.77.77,0,0,1,174.46,248.59Z"/><path class="cls-250" d="M186,248.33V248a2.87,2.87,0,0,1,1.29-.23,23.87,23.87,0,0,0,4.14.18c0,.23-.08.46-.11.68a.89.89,0,0,1-.81.22C189,248.5,187.41,249.19,186,248.33Z"/><path class="cls-251" d="M174.46,248.59l.38.33a.86.86,0,0,1-.35.81.6.6,0,0,1-.65-.1v0a1.05,1.05,0,0,0,.16-.78c0-.06.12-.17.19-.25A.87.87,0,0,1,174.46,248.59Z"/><path class="cls-252" d="M186.74,249.61h-5.52a.38.38,0,0,1,.13-.48,1.74,1.74,0,0,1,.81-.17H186a1.27,1.27,0,0,1,.53.17A.47.47,0,0,1,186.74,249.61Z"/><path class="cls-253" d="M190.76,248.62h.54c0,.12,0,.23.08.35a5.62,5.62,0,0,1-2.34.59.43.43,0,0,1-.13-.45C189.38,248.37,190.12,248.71,190.76,248.62Z"/><path class="cls-93" d="M173.84,249.63l.77,0a1.25,1.25,0,0,1,1.5-.11.28.28,0,0,1,0,.45c-.49,0-1,.08-1.46.07A.87.87,0,0,1,173.84,249.63Z"/><path class="cls-254" d="M181,249.68a2.46,2.46,0,0,1-1.74.24l-.08-.22.13-.19a1.6,1.6,0,0,1,1.35-.13A.71.71,0,0,1,181,249.68Z"/><path class="cls-255" d="M179.22,249.65a2.44,2.44,0,0,1,0,.27h-1.7a.36.36,0,0,1,.16-.47A1.26,1.26,0,0,1,179.22,249.65Z"/><path class="cls-256" d="M186.74,249.61a.79.79,0,0,1-.11-.29,1.25,1.25,0,0,1,1.62-.18.3.3,0,0,1,0,.49A2.32,2.32,0,0,1,186.74,249.61Z"/><path class="cls-257" d="M177.56,249.66c0,.08,0,.17-.05.26l-1.37,0a1.28,1.28,0,0,0,.07-.28A.88.88,0,0,1,177.56,249.66Z"/><path class="cls-258" d="M188.28,249.63a1.11,1.11,0,0,0,.08-.3.49.49,0,0,1,.66-.11,1.22,1.22,0,0,0,0,.33Z"/><path class="cls-249" d="M181.27,249.34a2.56,2.56,0,0,1-.05.27.41.41,0,0,1-.28.07v-.14a.22.22,0,0,1-.07-.22c0-.06.06-.1.08-.1A.3.3,0,0,1,181.27,249.34Z"/><path class="cls-259" d="M144.38,246.54l-.57.08-.36-.35.33-.3.9-.07.8,0a.87.87,0,0,1-.1.24A2,2,0,0,0,144.38,246.54Z"/><path class="cls-259" d="M146.11,245.86a.93.93,0,0,1-.33,0l.43-.21Z"/><path class="cls-234" d="M135,235.47h1.62c-.51.43-1.07.27-1.61.3A.61.61,0,0,1,135,235.47Z"/><path class="cls-217" d="M181.33,236.32c-.09,0-.18.12-.26.12a.79.79,0,0,1-.25-.14c.09-.05.18-.13.26-.12S181.25,236.27,181.33,236.32Z"/><path class="cls-260" d="M151.16,118.45c-.16.86-.16.88-.67.89s-1.12,0-1.67,0a3.43,3.43,0,0,1-1.59-.48,2.71,2.71,0,0,1-.84-4.26,1.66,1.66,0,0,1,.35-.35,1.38,1.38,0,0,0,.52-1.33,19.63,19.63,0,0,0-.2-2.31,1.51,1.51,0,0,1,.44-1.35,1.22,1.22,0,0,1,1.66.08,4.83,4.83,0,0,0,2.49.88,1.38,1.38,0,0,0,1.11-.24c.14-.09.26-.21.4-.3,1.4-.9,2.34-.71,3.14.79a14.72,14.72,0,0,0,1.76,2.63l.11.12.44.46c.19.41.41.8.56,1.22a2.33,2.33,0,0,1-.7,2.61,16.06,16.06,0,0,1-2.38,1.57,2.13,2.13,0,0,1-1.29.32c-.36,0-.68-.15-.7-.56a10.46,10.46,0,0,1,0-3.35,3.44,3.44,0,0,1,1.65-2.6c.1,0,.18-.3.15-.42a.6.6,0,0,0-.35-.33,1.2,1.2,0,0,0-.65,0,2.32,2.32,0,0,0-1.64,2.43c.17,1.45,0,2.89,0,4.33-.55,0-1,.23-1.38-.06s-.25-.73-.38-1.09a1.21,1.21,0,0,1-.29-.91c.12-1.53-1.23-2.28-1.82-3.44.32,1.2,1.38,2,1.75,3.14C151.36,117.14,150.86,117.8,151.16,118.45Z"/><path class="cls-261" d="M147.06,108.86l-.66.11a2.14,2.14,0,0,1-2.34-1.21,2.34,2.34,0,0,1,.27-2.79c.14-.17.31-.32.46-.47a1.23,1.23,0,0,0,.33-.08c.61-.35,1-.11,1.42.4a10.8,10.8,0,0,1,1.11,1.85,1.42,1.42,0,0,1-.26,1.82C147.27,108.61,147.17,108.74,147.06,108.86Z"/><path class="cls-262" d="M161.08,105.5a2.57,2.57,0,0,1-1.62,2.32,2.35,2.35,0,0,1-2.51-.33.87.87,0,0,1-.23-1.19,14.9,14.9,0,0,1,1.72-2.25,1.15,1.15,0,0,1,1.36-.27A1.68,1.68,0,0,1,161.08,105.5Z"/><polygon class="cls-2" points="158.17 113.21 158.07 113.19 158.06 113.09 158.16 113.11 158.17 113.21"/><path class="cls-263" d="M151.54,116.67l0,1c-.27.18-.27.48-.35.75-.38-.66-.14-1.41-.33-2.1C151.21,116.16,151.39,116.39,151.54,116.67Z"/><path class="cls-264" d="M130.31,240.53l.34.13c-.12.07-.23.18-.35.18a1.11,1.11,0,0,1-.42-.12C129.94,240.56,130.08,240.54,130.31,240.53Z"/><path class="cls-265" d="M134,240.86a.7.7,0,0,1-.72.32,1.13,1.13,0,0,1-.28-.12c.05-.06.1-.16.16-.17l.84,0Z"/><path class="cls-266" d="M173.51,232.72a1.07,1.07,0,0,1,.92-.28l3.15,0c.15.31-.08.39-.28.4A22.83,22.83,0,0,1,173.51,232.72Z"/><path class="cls-267" d="M183,241.51a1.35,1.35,0,0,0,.29,0c-.39.49-.87.29-1.45.26C182.2,241.4,182.6,241.6,183,241.51Z"/><path class="cls-268" d="M177.52,236.75c-.38,0-.76,0-1.13,0-.09,0-.24-.08-.24-.12,0-.23.22-.19.36-.22a1.77,1.77,0,0,1,.32,0A1,1,0,0,1,177.52,236.75Z"/><path class="cls-269" d="M142.85,246.28l.21,0C143,246.39,143,246.56,142.85,246.28Z"/><path class="cls-270" d="M123.43,248.28l-.21,0c-.29-.35-.84-.14-1.22-.48.77-.46,1.62.06,2.26-.46h1.9c.22.14.49.12.72.24l1.61.11a4,4,0,0,0,2.21,0h3.2a.24.24,0,0,1,0,.42,6.21,6.21,0,0,1-2.61.17c-1.45,0-2.91,0-4.36,0a3.1,3.1,0,0,0-1.79.32h-.26A2.23,2.23,0,0,0,123.43,248.28Z"/><path class="cls-271" d="M131.31,248.24a1.09,1.09,0,0,1,.92-.3l1.84-.05a9.51,9.51,0,0,1,3.28,0,.77.77,0,0,0,.3.06,1.27,1.27,0,0,1,.37.36c-.22.32-.56.31-.89.31l-2.48,0-1.7,0-.66-.07c-.3-.23-.72,0-1-.24Z"/><path class="cls-228" d="M137.35,247.9h-3.28l-.17-.24,2.52-.05A1.13,1.13,0,0,1,137.35,247.9Z"/><path class="cls-228" d="M130.7,247.65a2,2,0,0,1-2.21,0Z"/><path class="cls-228" d="M126.88,247.54a.81.81,0,0,1-.72-.24A.72.72,0,0,1,126.88,247.54Z"/><path class="cls-228" d="M139.42,247.62l-.37.29Z"/><path class="cls-228" d="M138,248.32l-.37-.36A.49.49,0,0,1,138,248.32Z"/><path class="cls-228" d="M131.27,248.32a1.21,1.21,0,0,1,1,.24l-1-.06C131.28,248.44,131.27,248.38,131.27,248.32Z"/><path class="cls-272" d="M181.27,249.34h-.34c-.55.27-1.19-.08-1.73.25l0,.05h-3l-1.6-.06a.65.65,0,0,1,.23-.68,30.94,30.94,0,0,1,5.69-.31c.56,0,1.12,0,1.68,0,.26.37-.07.44-.28.58Z"/><path class="cls-273" d="M189,249.22l-.66.11-1.73,0a1.55,1.55,0,0,0-.31-.06c-.41-.27-.9,0-1.32-.19a.26.26,0,0,1-.1-.26c0-.09,0-.13.07-.13a2.07,2.07,0,0,0,1-.34c1.39,0,2.78,0,4.17,0a1.89,1.89,0,0,1,.6.24,1,1,0,0,1-.85.35C189.59,249,189.26,249,189,249.22Z"/><path class="cls-274" d="M185,248.92c.45.1,1-.06,1.35.33l-4.39,0c.1-.19.19-.39.28-.58l.47,0a.38.38,0,0,0,.52,0h.49C184.08,248.94,184.58,248.63,185,248.92Z"/><path class="cls-275" d="M185,248.92c-.44,0-.92.18-1.28-.25H185Z"/><path class="cls-272" d="M183.2,248.67c-.17.29-.35.31-.52,0Z"/><path class="cls-276" d="M179.2,249.6a2.72,2.72,0,0,1,1.73-.25,1.21,1.21,0,0,0,0,.19Z"/><path class="cls-277" d="M151.54,116.67l-.71-.32a15.42,15.42,0,0,1-1.7-2.44c-.1-.28-.47-.25-.71-.36a.35.35,0,0,1-.18-.42.68.68,0,0,1,.31-.37,1.09,1.09,0,0,1,.64-.05,1.84,1.84,0,0,1,1.11,1,6.53,6.53,0,0,0,1.22,1.79A.82.82,0,0,1,151.54,116.67Z"/></svg>