<svg id="Layer_1" data-name="Layer 1" xmlns="http://www.w3.org/2000/svg" viewBox="0 0 65.48 99.41"><defs><style>.cls-1{fill:#f1d2c0;}.cls-2{fill:#874a54;}.cls-3{fill:#eceda3;}.cls-4{fill:#ea834d;}.cls-5{fill:#1c364f;}.cls-6{fill:#1e364f;}.cls-7{fill:#1c354f;}.cls-8{fill:#1f3650;}.cls-9{fill:#22364f;}.cls-10{fill:#273850;}.cls-11{fill:#2f445b;}.cls-12{fill:#2d3e4e;}.cls-13{fill:#284053;}.cls-14{fill:#35354f;}.cls-15{fill:#343d54;}.cls-16{fill:#444b57;}.cls-17{fill:#4d3851;}.cls-18{fill:#433550;}.cls-19{fill:#43566b;}.cls-20{fill:#714c64;}.cls-21{fill:#403f54;}.cls-22{fill:#4f4369;}.cls-23{fill:#50475f;}.cls-24{fill:#6e3b55;}.cls-25{fill:#38354f;}.cls-26{fill:#39495f;}.cls-27{fill:#4e374f;}.cls-28{fill:#4f3b54;}.cls-29{fill:#43597e;}.cls-30{fill:#627586;}.cls-31{fill:#65465e;}.cls-32{fill:#434463;}.cls-33{fill:#687486;}.cls-34{fill:#304447;}.cls-35{fill:#6a3a54;}.cls-36{fill:#93586e;}.cls-37{fill:#607586;}.cls-38{fill:#664059;}.cls-39{fill:#4c5c82;}.cls-40{fill:#45566f;}.cls-41{fill:#4c5c72;}.cls-42{fill:#646c7f;}.cls-43{fill:#3d455e;}.cls-44{fill:#6b425c;}.cls-45{fill:#3f5f8c;}.cls-46{fill:#623e59;}.cls-47{fill:#37798b;}.cls-48{fill:#546d80;}.cls-49{fill:#39445d;}.cls-50{fill:#6f405a;}.cls-51{fill:#54425b;}.cls-52{fill:#373750;}.cls-53{fill:#52435c;}.cls-54{fill:#75465f;}.cls-55{fill:#77465e;}.cls-56{fill:#683a54;}.cls-57{fill:#78556c;}.cls-58{fill:#6f3e57;}.cls-59{fill:#747889;}.cls-60{fill:#554760;}.cls-61{fill:#786d80;}.cls-62{fill:#41425a;}.cls-63{fill:#283a53;}.cls-64{fill:#684b63;}.cls-65{fill:#7f8d9b;}.cls-66{fill:#49596d;}.cls-67{fill:#458494;}.cls-68{fill:#777e8e;}.cls-69{fill:#584e65;}.cls-70{fill:#6e8291;}.cls-71{fill:#448998;}.cls-72{fill:#6c4f66;}.cls-73{fill:#386377;}.cls-74{fill:#7c7d8e;}.cls-75{fill:#5a4f66;}.cls-76{fill:#424e66;}.cls-77{fill:#697386;}.cls-78{fill:#666075;}.cls-79{fill:#4d3f57;}.cls-80{fill:#4e7889;}.cls-81{fill:#787c8d;}.cls-82{fill:#755369;}.cls-83{fill:#4e485f;}.cls-84{fill:#32415a;}.cls-85{fill:#30546a;}.cls-86{fill:#473c55;}.cls-87{fill:#4f3d56;}.cls-88{fill:#5b6377;}.cls-89{fill:#373a53;}.cls-90{fill:#747a8b;}.cls-91{fill:#353c57;}.cls-92{fill:#4e5b70;}.cls-93{fill:#4d4860;}.cls-94{fill:#6c4058;}.cls-95{fill:#6c5269;}.cls-96{fill:#517a8b;}.cls-97{fill:#e9eef1;}.cls-98{fill:#5a536a;}.cls-99{fill:#2c3c55;}.cls-100{fill:#fdfdfd;}.cls-101{fill:#705268;}.cls-102{fill:#e8edef;}.cls-103{fill:#5d4d64;}.cls-104{fill:#564b62;}.cls-105{fill:#323d56;}.cls-106{fill:#46455c;}.cls-107{fill:#e83954;}.cls-108{fill:#604e65;}.cls-109{fill:#fad3d3;}.cls-110{fill:#203751;}.cls-111{fill:#8a615a;}.cls-112{fill:#453751;}.cls-113{fill:#1f364f;}.cls-114{fill:#ea844e;}.cls-115{fill:#263c4f;}.cls-116{fill:#24393a;}.cls-117{fill:#4e3750;}.cls-118{fill:#5f3851;}.cls-119{fill:#b03651;}.cls-120{fill:#fff;}.cls-121{fill:#21364f;}.cls-122{fill:#293c54;}.cls-123{fill:#27374f;}.cls-124{fill:#d2d2d2;}.cls-125{fill:#cad4d2;}.cls-126{fill:#505162;}.cls-127{fill:#6b5b50;}.cls-128{fill:#504b57;}.cls-129{fill:#815e54;}.cls-130{fill:#9aaeae;}.cls-131{fill:#a15848;}.cls-132{fill:#1f3649;}.cls-133{fill:#7b788a;}.cls-134{fill:#24364e;}.cls-135{fill:#304056;}.cls-136{fill:#773550;}.cls-137{fill:#e83a54;}.cls-138{fill:#603450;}.cls-139{fill:#7f3550;}.cls-140{fill:#4064ad;}.cls-141{fill:#2b3c63;}.cls-142{fill:#633550;}.cls-143{fill:#e43652;}.cls-144{fill:#48475e;}.cls-145{fill:#52344f;}.cls-146{fill:#4f344f;}.cls-147{fill:#fdfefe;}.cls-148{fill:#2c385a;}.cls-149{fill:#b13551;}.cls-150{fill:#62576c;}.cls-151{fill:#3f64ad;}.cls-152{fill:#ce3b57;}.cls-153{fill:#4b415c;}.cls-154{fill:#3f354f;}.cls-155{fill:#8e3752;}.cls-156{fill:#ce415d;}.cls-157{fill:#96566c;}.cls-158{fill:#db3753;}.cls-159{fill:#5e3550;}.cls-160{fill:#633450;}.cls-161{fill:#783550;}.cls-162{fill:#975f74;}.cls-163{fill:#3d3751;}.cls-164{fill:#653d56;}.cls-165{fill:#9c6377;}.cls-166{fill:#493a53;}.cls-167{fill:#615066;}.cls-168{fill:#50344e;}.cls-169{fill:#293b55;}.cls-170{fill:#2c3a51;}.cls-171{fill:#3b3d53;}.cls-172{fill:#444357;}.cls-173{fill:#ea8450;}.cls-174{fill:#fdfbfa;}.cls-175{fill:#97d2d6;}.cls-176{fill:#dddddc;}.cls-177{fill:#f4dcd0;}.cls-178{fill:#cbc3ab;}.cls-179{fill:#9ebdad;}.cls-180{fill:#23374f;}.cls-181{fill:#313e51;}.cls-182{fill:#36465c;}.cls-183{fill:#a05949;}.cls-184{fill:#2d3948;}.cls-185{fill:#2a374b;}.cls-186{fill:#313b49;}.cls-187{fill:#3e3c4d;}.cls-188{fill:#463f49;}.cls-189{fill:#2b394e;}.cls-190{fill:#92534b;}.cls-191{fill:#363b49;}.cls-192{fill:#767079;}.cls-193{fill:#1f364a;}.cls-194{fill:#23364e;}.cls-195{fill:#4c434a;}.cls-196{fill:#6e747f;}.cls-197{fill:#233750;}.cls-198{fill:#28374f;}.cls-199{fill:#383a4f;}.cls-200{fill:#203851;}.cls-201{fill:#4c5668;}.cls-202{fill:#e83953;}.cls-203{fill:#4b344e;}.cls-204{fill:#703550;}.cls-205{fill:#613550;}.cls-206{fill:#31344e;}.cls-207{fill:#5a344f;}.cls-208{fill:#573550;}.cls-209{fill:#4d354f;}.cls-210{fill:#4a3655;}.cls-211{fill:#8f344f;}.cls-212{fill:#e83852;}.cls-213{fill:#333e6a;}.cls-214{fill:#53344f;}.cls-215{fill:#48344e;}.cls-216{fill:#44344e;}.cls-217{fill:#803550;}.cls-218{fill:#4a344f;}.cls-219{fill:#423654;}.cls-220{fill:#30344e;}.cls-221{fill:#26344e;}.cls-222{fill:#653550;}.cls-223{fill:#65354f;}.cls-224{fill:#253550;}.cls-225{fill:#8d435c;}.cls-226{fill:#6b354f;}.cls-227{fill:#474158;}.cls-228{fill:#543b57;}.cls-229{fill:#593851;}.cls-230{fill:#545166;}.cls-231{fill:#64808f;}.cls-232{fill:#597082;}.cls-233{fill:#4d556a;}.cls-234{fill:#c43651;}.cls-235{fill:#b43551;}.cls-236{fill:#6d344f;}.cls-237{fill:#41445c;}.cls-238{fill:#51a0ac;}.cls-239{fill:#3b5d71;}.cls-240{fill:#437f8d;}.cls-241{fill:#4b475f;}.cls-242{fill:#5cb0ba;}.cls-243{fill:#9b3450;}.cls-244{fill:#5e6f82;}.cls-245{fill:#5a7687;}.cls-246{fill:#4c6f80;}.cls-247{fill:#4b687b;}.cls-248{fill:#57697c;}.cls-249{fill:#3c3c61;}.cls-250{fill:#3f3e59;}.cls-251{fill:#2e344e;}.cls-252{fill:#3c7384;}.cls-253{fill:#675269;}.cls-254{fill:#5cafb9;}.cls-255{fill:#468c9b;}.cls-256{fill:#533952;}.cls-257{fill:#3c697c;}.cls-258{fill:#3c576c;}.cls-259{fill:#b33955;}.cls-260{fill:#f9d4d3;}.cls-261{fill:#e8eba2;}.cls-262{fill:#eaeba2;}.cls-263{fill:#384a60;}.cls-264{fill:#903451;}.cls-265{fill:#1e354f;}.cls-266{fill:#2b344e;}.cls-267{fill:#a43551;}.cls-268{fill:#be3550;}.cls-269{fill:#47344e;}.cls-270{fill:#d53752;}.cls-271{fill:#e03551;}.cls-272{fill:#cf3451;}.cls-273{fill:#da3552;}.cls-274{fill:#7d354f;}.cls-275{fill:#cd3451;}.cls-276{fill:#503851;}.cls-277{fill:#36465d;}</style></defs><path class="cls-1" d="M34.66,21.68a3.93,3.93,0,0,0-1.18.14l-6.61,1.51c-1.63.37-3.24.76-4.86,1.14l-4.58,1.08-.44.08a.24.24,0,0,1-.28-.18c-.15-.53-.31-1.05-.42-1.59-.27-1.31-.63-2.61-.95-3.91-.51-2.13-1-4.25-1.51-6.38-.34-1.43-.68-2.85-1-4.28,0-.1,0-.2,0-.3-.07-.53-.08-.55.46-.67l4-.87,3.06-.63L24.47,6l3.86-.81,6.2-1.29,4.37-.93,4-.85,3.28-.68L49.91.6a.28.28,0,0,1,.35.19,4.44,4.44,0,0,1,.21.71c.23,1.2.58,2.37.89,3.54.49,1.88,1,3.75,1.47,5.63s.94,3.91,1.41,5.87a.92.92,0,0,1,0,.29.43.43,0,0,1-.35.5,3.75,3.75,0,0,1-.58.13c-1.31.15-2.58.53-3.87.8l-4.73,1c-.87.2-1.74.39-2.61.62-.2,0-.46,0-.59.27a.59.59,0,0,1-.41.18c-.62.1-1.22.25-1.83.4l-.19.09a9.52,9.52,0,0,0-2.47.56,1.19,1.19,0,0,1-.42,0C35.7,21.46,35.21,21.77,34.66,21.68Z" transform="translate(-12.75 -0.59)"/><path class="cls-2" d="M45.69,88a5.83,5.83,0,0,1,.69-.79,1.14,1.14,0,0,0,.4-1c0-.59,0-1.19,0-1.78-.12-3.16-.08-6.32-.11-9.48,0-1.21,0-2.43,0-3.65A2.34,2.34,0,0,1,48,70.91a20.11,20.11,0,0,1,2.69,0c.3,0,.61,0,.76.37,0,1.6.07,3.19.09,4.79,0,.55,0,1.1,0,1.64a28.63,28.63,0,0,0,0,3.82c0,.22,0,.45,0,.67l.15,6.74c0,.15,0,.29,0,.44l-.08.1a3.09,3.09,0,0,1-1.54.07c-.71-.12-1.41-.25-1.58-1.13-.58-.32-1.21-.09-1.81-.16C46.38,88.19,46,88.33,45.69,88Z" transform="translate(-12.75 -0.59)"/><path class="cls-3" d="M51.44,71.25a3.23,3.23,0,0,0-1.31-.18c-1.17.08-2.33.12-3.5.18h-.89A5.57,5.57,0,0,1,44,71.09c-.29-.24-.22-.58-.23-.89,0-.7,0-1.41,0-2.12,0-.27.24-.38.43-.51.42-.25.84-.5.8-1.08.21-.83-.45-1.42-.59-2.16,0-.55-.12-1.08-.14-1.63s.19-.77.77-.58A1.81,1.81,0,0,0,46.36,62a1.25,1.25,0,0,1,1-.15,2.41,2.41,0,0,1,.5,1.37,27.18,27.18,0,0,0,.84,2.93c.09.27.19.65.58.53s.28-.49.21-.77a25.32,25.32,0,0,0-1.1-3.63,1.26,1.26,0,0,1-.18-.78c1-1.14,1.8-1.23,2.9-.24.6.54,1.39.74,2,1.27.48.69.19,1.45.13,2.17-.14,1.54,0,3.08-.06,4.61,0,.61.56,1,.65,1.54a1.44,1.44,0,0,1-1.07.37C52.31,71.24,51.88,71.25,51.44,71.25Z" transform="translate(-12.75 -0.59)"/><path class="cls-2" d="M57.15,89.82c.31-.14.62-.28.63-.69,0,0,0,0,0-.06a3.21,3.21,0,0,0,.52-2c0-1.73.08-3.47-.05-5.21-.11-1.36-.11-2.73-.12-4.09,0-.15,0-.3,0-.45,1.36-.19,2.68-.78,4.09-.4.19,0,.4.06.51.26s0,.65,0,1c.06,1.73.14,3.46.2,5.2,0,1.26.18,2.52.34,3.77a5.39,5.39,0,0,0,.34,1.37c-.36.39-.79.13-1.2.16a8.65,8.65,0,0,0-.88,0,3.28,3.28,0,0,1-.88.12c-.22,0-.42.09-.45.31-.1.77-.69.79-1.25.88a3,3,0,0,1-.43,0,1.35,1.35,0,0,0-.69,0,1.55,1.55,0,0,1-.31,0A.51.51,0,0,1,57.15,89.82Z" transform="translate(-12.75 -0.59)"/><path class="cls-4" d="M34.66,21.68c.05,0,.11-.12.17-.13a10.78,10.78,0,0,1,1.48-.3,3.65,3.65,0,0,0,.24.31,4,4,0,0,1,.19.48c.22.6.36,1.23.6,1.82a1.55,1.55,0,0,1,0,.21,3.67,3.67,0,0,0,.26.93,10.74,10.74,0,0,0,.7,2.07c.14.35.12.74.24,1.1a2.17,2.17,0,0,0,.11.42c.4,1.18.72,2.39,1.12,3.57,0,.19,0,.41.1.59a2,2,0,0,1,.17.4q1.77,6.14,3.62,12.23a3.47,3.47,0,0,0,.28.76,9.45,9.45,0,0,0,.62,2.15,1.3,1.3,0,0,1,0,.44c0,1.08-.47,1.41-1.47,1.12a.92.92,0,0,1-.35-.3,6.34,6.34,0,0,1-.51-1.4q-1.42-4.74-2.81-9.47a.88.88,0,0,1-.07-.23c-.65-2.31-1.4-4.58-2-6.9a.87.87,0,0,1-.07-.45,1.26,1.26,0,0,0-.1-.72l-1.92-6.49Z" transform="translate(-12.75 -0.59)"/><path class="cls-5" d="M62.78,77.13,61.68,77a5.23,5.23,0,0,0-1.76.18l-.94.21a1.56,1.56,0,0,1-.8-.08l-.75-.48a.9.9,0,0,1-.39-1.1,2.53,2.53,0,0,1,.12-.36.61.61,0,0,0,0-.56,1.25,1.25,0,0,1,0-.58c0-.55.11-1.1.09-1.64,0-1,.14-1-1-1a7.37,7.37,0,0,1-2.44-.62A2,2,0,0,1,53,69.1a34.65,34.65,0,0,1,.1-4.67c0-.37.07-.74.1-1.11a.88.88,0,0,0-.23-.76c0-.18.11-.22.24-.24.73.24.62.87.55,1.38a43.57,43.57,0,0,0-.11,4.85c0,1.56.24,1.93,1.79,2.21,1.08.19,2.16.34,3.24.56a2.18,2.18,0,0,1,1.46.81c.65,1.1.63,1.59-.06,2.24a1.62,1.62,0,0,1-1.17.38c-.33,0-.71-.09-.93.3-.45,1.17,0,1.8,1.24,1.53a10.12,10.12,0,0,1,4.8.17,1.77,1.77,0,0,1,1.32.9c.68,1.61,2.13,1.75,3.51,1.72A21.3,21.3,0,0,0,72.52,79c1.3-.26,1.7-.76,1.78-2.1.13-2.06.44-4.11.61-6.17.24-2.86.77-5.68,1-8.55a7.54,7.54,0,0,1,1.33-3,2.06,2.06,0,0,0,.31-1.78c-.45-2-.84-4-1.14-6-.56-3.75-1.2-7.48-1.7-11.24A10.1,10.1,0,0,1,75,35.7a8,8,0,0,0,.32-1.53A3,3,0,0,0,72.17,31a7.33,7.33,0,0,0-2.52.65,7.83,7.83,0,0,1-1.72.72.39.39,0,0,1-.33-.1.28.28,0,0,1,0-.22c.06-.16.27-.11.35-.25a19,19,0,0,1,1.82-1,6.34,6.34,0,0,1,3.44-.51,1.84,1.84,0,0,1,1.18.57,3.45,3.45,0,0,0,.28.26A3.53,3.53,0,0,1,76,34.74a5.26,5.26,0,0,1-.23.95,9.46,9.46,0,0,0-.3,5.37c.19.88.25,1.78.39,2.67s.32,1.51.41,2.28c.18,1.68.53,3.34.71,5,.14,1.28.42,2.56.66,3.83.18,1,.38,1.91.59,2.86a1.69,1.69,0,0,1-.07,1,3.6,3.6,0,0,1-1.17,1.7.94.94,0,0,0-.39.76c-.2,2.28-.51,4.55-.8,6.83-.07.54-.1,1.09-.13,1.64-.1,1.72-.38,3.42-.56,5.13C75,75.38,75,76,75,76.53a7.75,7.75,0,0,1-.13,1.18,2.27,2.27,0,0,1-1.67,1.73,4.05,4.05,0,0,1-1.54.25,5.07,5.07,0,0,0-1.34.16,5.89,5.89,0,0,1-2.89,0,2.9,2.9,0,0,0-.59-.09,2.1,2.1,0,0,1-1.7-1.19,5.58,5.58,0,0,1-.31-.59,1,1,0,0,0-.78-.63Z" transform="translate(-12.75 -0.59)"/><path class="cls-6" d="M37.34,31.1a.47.47,0,0,1,.18.31c0,.07,0,.19-.07.19-.69,0-1.19.55-1.9.62a2.19,2.19,0,0,0-1.9,1.59A4.51,4.51,0,0,0,34.14,38a2.2,2.2,0,0,1,.43,1.33c0,.92,0,1.84,0,2.76a56.5,56.5,0,0,0,.31,7.24c.23,2,.14,4.08.43,6.11.1.71.15,1.43.2,2.15a3.4,3.4,0,0,0,.8,2.13.63.63,0,0,1,.21.68.16.16,0,0,1-.22.06,1.6,1.6,0,0,1-.87-.77A3.65,3.65,0,0,1,34.87,58c-.13-1.66-.32-3.32-.47-5,0-.38,0-.75,0-1.12a26.13,26.13,0,0,0-.26-3.65,17.91,17.91,0,0,1-.16-1.94,70.14,70.14,0,0,1,0-7.25.78.78,0,0,0-.27-.72,2.67,2.67,0,0,1-.7-1.3,5.77,5.77,0,0,1-.13-2.8,3.78,3.78,0,0,1,1.27-2.15,2.32,2.32,0,0,1,.63-.4c.51-.2,1-.37,1.54-.54A3,3,0,0,1,37.34,31.1Z" transform="translate(-12.75 -0.59)"/><path class="cls-7" d="M43.82,68a1.23,1.23,0,0,1,.18.84,14,14,0,0,0,0,2.24c0,.29,0,.59,0,.89a1,1,0,0,0,.14.57,1.79,1.79,0,0,1-.4,2.3c-.14.05-.21,0-.26-.15a.57.57,0,0,1,0-.29,2.08,2.08,0,0,0-1.08-2.77c-.48-.27-1-.51-1.42-.81-1.07-.71-1.1-1.46-.1-2.23a2.65,2.65,0,0,1,1.66-.55,1.77,1.77,0,0,0,.85-.23C43.54,67.72,43.79,67.6,43.82,68Z" transform="translate(-12.75 -0.59)"/><path class="cls-8" d="M67.62,32.17l.14.14c.07.19-.07.28-.19.34-.91.5-1.65,1.24-2.55,1.75a2.26,2.26,0,0,0-.47.91,4.91,4.91,0,0,1-2.71,2.9,1.45,1.45,0,0,1-.42.16c-1.13,0-1.56.87-2.15,1.57-.19.22-.31.52-.67.53a.34.34,0,0,1-.23-.25.8.8,0,0,1,.17-.56,5.14,5.14,0,0,0,.82-4.11,1.48,1.48,0,0,1,.9-1.63c.21,0,.27.14.3.32a5.22,5.22,0,0,0-.39,2.38c.06.74.37,1,1.08.76a3.74,3.74,0,0,0,2.58-2.58,2.25,2.25,0,0,1,1.26-1.55,3.91,3.91,0,0,0,2.34-4.12,2.88,2.88,0,0,1,.16-1.33c.06-.14.08-.37.34-.26a11,11,0,0,1,0,2.43,4.74,4.74,0,0,1-.24,1.31c0,.2-.14.38-.09.58l0,.07-.06.13A.14.14,0,0,0,67.62,32.17Z" transform="translate(-12.75 -0.59)"/><path class="cls-9" d="M41.12,20.19a.79.79,0,0,1,.43,0l.64.83a4.5,4.5,0,0,0,.82.87,3.93,3.93,0,0,1,1,1.28,5.22,5.22,0,0,0,.79,1.09.28.28,0,0,0,.33.08,5.09,5.09,0,0,1,3.44.12c.45.13.89.31,1.34.45a3.79,3.79,0,0,1,1.13.58l1.35.93a.24.24,0,0,0,.38-.06c.2-.25.36-.54.69-.66.14-.08.21,0,.26.13a.83.83,0,0,1-.06.21c-.83,1.43-1.14,1.54-2.44.49A9.76,9.76,0,0,0,47.83,25a4.68,4.68,0,0,0-2.57-.12,1,1,0,0,1-1.2-.52,22.65,22.65,0,0,0-2.74-3.43C41.17,20.69,40.88,20.51,41.12,20.19Z" transform="translate(-12.75 -0.59)"/><path class="cls-9" d="M55.48,24.65A6.6,6.6,0,0,1,59.67,24c.26,0,.52.18.79,0,.09-.05.19,0,.27.09l.46.35c.18.17.5.07.62.33a25.14,25.14,0,0,0-.72,6.23,3.26,3.26,0,0,1-.06.62,8,8,0,0,0-.13,1.55.85.85,0,0,1-.09.22c-.26.21-.33,0-.44-.19a1,1,0,0,1,0-.24c0-.15,0-.31,0-.47a25.47,25.47,0,0,0-.11-3.27,1.14,1.14,0,0,1,.1-.66,5.14,5.14,0,0,0,.1-3.22c-.1-.57-.56-.73-1.05-.78a7.59,7.59,0,0,0-2.81.19,2.46,2.46,0,0,1-.8.15C55.63,24.93,55.43,24.91,55.48,24.65Z" transform="translate(-12.75 -0.59)"/><path class="cls-10" d="M61.62,24.83c-.15-.1-.35-.13-.43-.32.1,0,.21,0,.28-.05.6-.92,1.49-1.61,2.09-2.54a4.25,4.25,0,0,1,.35-.39c.76-.76,1.52-1.51,2.27-2.27.44-.44.87-.9,1.28-1.36a8.19,8.19,0,0,1,2.23-1.74A1.65,1.65,0,0,1,71.06,16c0,.38-.36.28-.54.42a7.23,7.23,0,0,0-2.44,1.69c-2.1,2-3.9,4.26-6,6.27A3.56,3.56,0,0,1,61.62,24.83Z" transform="translate(-12.75 -0.59)"/><path class="cls-11" d="M67.94,30l0-1.9c0-.19,0-.39-.13-.55a1.66,1.66,0,0,1-.06-1.63c.49-1.37,1.09-2.71,1.66-4.06.1-.22.19-.46.48-.51s.28.17.16.36c-.2.49-.4,1-.59,1.45l-1.19,3.06a2.31,2.31,0,0,0-.14.74q0,1.08-.06,2.16A2.17,2.17,0,0,1,67.94,30Z" transform="translate(-12.75 -0.59)"/><path class="cls-12" d="M38.43,71.4a6.81,6.81,0,0,1-1.23-.83,1,1,0,0,1-.36-.84c0-.57,0-1.14-.07-1.71-.07-.81-.19-1.62-.29-2.43,0-.24,0-.49,0-.74s-.21-.59.13-.82a.46.46,0,0,1,.23.36,32,32,0,0,1,.6,4.44,2,2,0,0,0,.9,1.9,1.46,1.46,0,0,1,.16.19l.06.11C38.53,71.16,38.72,71.33,38.43,71.4Z" transform="translate(-12.75 -0.59)"/><path class="cls-13" d="M43.47,74.67l.19.18a1.08,1.08,0,0,1-1.26.55,3.64,3.64,0,0,1-3-2.36c-.15-.34-.29-.69-.43-1,.14-.12.28-.06.42,0,.43.34.54.87.81,1.32a2.83,2.83,0,0,0,2.22,1.54C42.8,74.92,43.1,74.64,43.47,74.67Z" transform="translate(-12.75 -0.59)"/><path class="cls-14" d="M41.4,93.26l.28-.16a.49.49,0,0,1,.27,0c.72,0,1.44,0,2.16,0,.29,0,.66,0,.66.45s-.38.43-.67.42a6.52,6.52,0,0,1-2.94-.26.18.18,0,0,1-.06-.25h0C41.18,93.33,41.32,93.35,41.4,93.26Z" transform="translate(-12.75 -0.59)"/><path class="cls-15" d="M70.46,16.28a.36.36,0,0,1,.3-.14.33.33,0,0,0,.3-.15h.14c.09.08.23.05.31.14a1.27,1.27,0,0,0,.61.23,1.29,1.29,0,0,1,.94.64.87.87,0,0,1,.14.63.5.5,0,0,1-.3.47.28.28,0,0,0-.18.12h0c-.07.09-.21.05-.28.14h0c-.16.11-.26.06-.33-.11a.46.46,0,0,1,.08-.19c.66-.58.61-.86-.17-1.2A12.36,12.36,0,0,1,70.46,16.28Z" transform="translate(-12.75 -0.59)"/><path class="cls-16" d="M36.58,64.06c-.22.23-.06.53-.15.79A2,2,0,0,1,36.3,64v-3.5l.14,0c.39.41.11,1,.33,1.42C36.79,62.61,37,63.37,36.58,64.06Z" transform="translate(-12.75 -0.59)"/><path class="cls-17" d="M57,92.21a3.73,3.73,0,0,0-.13-.73s0-.12.07-.19l.23-.12a4.14,4.14,0,0,1,2.94.09c.11.14,0,.23-.09.31a5.4,5.4,0,0,1-1.75.1,1.1,1.1,0,0,0-1,.52A.17.17,0,0,1,57,92.21Z" transform="translate(-12.75 -0.59)"/><path class="cls-18" d="M52,91v.17c-.12.24,0,.52-.11.77l0,.57a.14.14,0,0,1-.21,0c-.35-1.19-.41-1.23-1.7-1.24H49.6c-.28,0-.63,0-.73-.36.89-.51,1.83-.21,2.75-.17A.54.54,0,0,1,52,91Z" transform="translate(-12.75 -0.59)"/><path class="cls-19" d="M70,21.68c0-.12,0-.24-.16-.31a.28.28,0,0,1,0-.34A8.39,8.39,0,0,1,71,19.09a.28.28,0,0,1,.25.2A20.65,20.65,0,0,1,70,21.68Z" transform="translate(-12.75 -0.59)"/><path class="cls-20" d="M64.16,88.49a1.11,1.11,0,0,1,.51.06.69.69,0,0,1,.59.74c0,.47.1.94.15,1.41a.18.18,0,0,1-.22,0,1.46,1.46,0,0,1-.32-1,.71.71,0,0,0-.79-.78c-.31,0-.67.08-.84-.32C63.52,88.41,63.88,88.66,64.16,88.49Z" transform="translate(-12.75 -0.59)"/><path class="cls-21" d="M55.48,24.65c.05.14.18.17.31.18a3.94,3.94,0,0,1-2.11,1l-.21-.17A4.74,4.74,0,0,1,55.48,24.65Z" transform="translate(-12.75 -0.59)"/><path class="cls-22" d="M38.54,94.92a3.3,3.3,0,0,1,1.17-.62c.13-.09.18,0,.23.1a6.8,6.8,0,0,0-.3,1.26c-.25.1-.36-.07-.44-.25s-.17-.34-.4-.35L38.61,95A.46.46,0,0,0,38.54,94.92Z" transform="translate(-12.75 -0.59)"/><path class="cls-23" d="M57.28,97c0-.06-.13-.11-.13-.16a7.85,7.85,0,0,1,0-1.37,3.87,3.87,0,0,0,0-.59,2.24,2.24,0,0,1,0-.73.15.15,0,0,1,.21,0c.25.46.09,1,.18,1.46,0,.26-.11.52,0,.77a.85.85,0,0,1,.11.26.58.58,0,0,1,0,.19.45.45,0,0,1-.25.14Z" transform="translate(-12.75 -0.59)"/><path class="cls-24" d="M43.78,88.44a.14.14,0,0,1,.14-.13l.17-.1.26-.06c.16-.08.34,0,.49-.1l.76,0c.17.18.49-.08.62.21a.46.46,0,0,1-.49.27,6.09,6.09,0,0,0-1.94.29A.32.32,0,0,1,43.78,88.44Z" transform="translate(-12.75 -0.59)"/><path class="cls-25" d="M67.19,93.41l.42.3c.07.2,0,.31-.19.41a1.05,1.05,0,0,1-.36.08,1.63,1.63,0,0,1-.66,0c-.44-.17-.5-.38,0-.61a2,2,0,0,0,.53-.14A.26.26,0,0,1,67.19,93.41Z" transform="translate(-12.75 -0.59)"/><path class="cls-26" d="M71.24,19.29,71,19.1c0-.73.49-.85,1.07-.86a.32.32,0,0,0,.29.15C72.05,18.74,71.54,18.89,71.24,19.29Z" transform="translate(-12.75 -0.59)"/><path class="cls-27" d="M46.23,88.2c-.21-.06-.46,0-.63-.17a.08.08,0,0,1,.09,0l2.62,0c.22,0,.4,0,.43.3l-.1.07a.67.67,0,0,1-.24,0C47.68,88.27,46.92,88.57,46.23,88.2Z" transform="translate(-12.75 -0.59)"/><path class="cls-28" d="M64.16,88.49a.43.43,0,0,1-.33.13l-.58,0a2.05,2.05,0,0,1-1.52.1.35.35,0,0,1-.25-.41,12.09,12.09,0,0,1,1.21.07,4.25,4.25,0,0,0,.94,0Z" transform="translate(-12.75 -0.59)"/><path class="cls-29" d="M38.22,96.76a2.66,2.66,0,0,1,0-1.53.41.41,0,0,1,.29-.31l.06,0a.53.53,0,0,1,.08.22,9.31,9.31,0,0,1-.18,1.38A.46.46,0,0,1,38.22,96.76Z" transform="translate(-12.75 -0.59)"/><path class="cls-30" d="M48.75,98.35l-.58.18c-.12.06-.18,0-.23-.1a6.42,6.42,0,0,0-.19-.87.48.48,0,0,1,0-.2c.28-.27.42,0,.56.16a.74.74,0,0,0,.39.49.34.34,0,0,1,.08.17A.23.23,0,0,1,48.75,98.35Z" transform="translate(-12.75 -0.59)"/><path class="cls-31" d="M39.9,94.43l-.19-.13a4.52,4.52,0,0,1,1.39-.89v.21A1.33,1.33,0,0,1,39.9,94.43Z" transform="translate(-12.75 -0.59)"/><path class="cls-32" d="M69.6,94.9a2,2,0,0,1,.78.45.44.44,0,0,1-.15.12.59.59,0,0,0-.56.37c-.07.18-.19.44-.47.2a2.09,2.09,0,0,1,.11-1C69.38,94.91,69.45,94.83,69.6,94.9Z" transform="translate(-12.75 -0.59)"/><path class="cls-33" d="M39.15,99c-.58-.11-.75-.52-.73-1,.12-.14,0-.35.14-.47a.24.24,0,0,1,.25.15,1.37,1.37,0,0,0,.5,1,.28.28,0,0,1,0,.2Z" transform="translate(-12.75 -0.59)"/><path class="cls-34" d="M39.32,72.14,39,72c-.18-.2-.35-.41-.52-.61.13-.11,0-.21,0-.32C39.11,71.14,39.34,71.41,39.32,72.14Z" transform="translate(-12.75 -0.59)"/><path class="cls-35" d="M52,91l-.3-.14a1.65,1.65,0,0,1-.14-1.23.55.55,0,0,1,.14-.22l0-.06a.27.27,0,0,1,.19.28Z" transform="translate(-12.75 -0.59)"/><path class="cls-36" d="M66.69,99.73a1.85,1.85,0,0,1-.84.09c-.31-.13-.67.09-1-.16.39-.54.93-.27,1.42-.25A.5.5,0,0,1,66.69,99.73Z" transform="translate(-12.75 -0.59)"/><path class="cls-37" d="M60.75,98.94a1.11,1.11,0,0,1-.47-.17.37.37,0,0,1,.06-.29c.09-.21,0-.48.26-.64a.34.34,0,0,1,.47.13,1.72,1.72,0,0,1-.08.75A.47.47,0,0,1,60.75,98.94Z" transform="translate(-12.75 -0.59)"/><path class="cls-38" d="M67.46,94l.15-.27a3,3,0,0,1,1.21.75l0,.1a.32.32,0,0,1-.18.1H68.5C68.14,94.45,67.71,94.36,67.46,94Z" transform="translate(-12.75 -0.59)"/><path class="cls-39" d="M70.15,95.38l.23,0a.47.47,0,0,1,.31.38,2.86,2.86,0,0,1,0,1.64c-.42-.38-.13-.92-.3-1.35C70.28,95.81,70.1,95.63,70.15,95.38Z" transform="translate(-12.75 -0.59)"/><path class="cls-40" d="M38.56,97.45c0,.15,0,.33-.14.45,0-.39-.3-.73-.2-1.14l.17-.2a1.25,1.25,0,0,1,.48.69C38.83,97.41,38.67,97.39,38.56,97.45Z" transform="translate(-12.75 -0.59)"/><path class="cls-41" d="M51.75,92.52h.13a13.36,13.36,0,0,1-.12,2.28c-.25-.19-.21-.48-.23-.74s0-.8,0-1.19A.5.5,0,0,1,51.75,92.52Z" transform="translate(-12.75 -0.59)"/><path class="cls-42" d="M70.46,97.9a5.29,5.29,0,0,1,0,.8c0,.23-.1.49-.41.53a.22.22,0,0,1-.18-.21,2.87,2.87,0,0,0,.26-.83.43.43,0,0,1,.2-.32A.15.15,0,0,1,70.46,97.9Z" transform="translate(-12.75 -0.59)"/><path class="cls-43" d="M69.85,99.08l.15.15-.45.24a.47.47,0,0,0-.29.07H69c-.09-.11-.34,0-.34-.24A1.19,1.19,0,0,1,69.85,99.08Z" transform="translate(-12.75 -0.59)"/><path class="cls-44" d="M67.19,93.41l-.19.17a1.33,1.33,0,0,1-.92-.69c0-.12.08-.17.19-.21A2.53,2.53,0,0,1,67.19,93.41Z" transform="translate(-12.75 -0.59)"/><path class="cls-45" d="M70.46,95.81c.16.12.15.29.16.46l0,1.1c0,.16,0,.32-.16.42a.52.52,0,0,1-.26-.41C70.3,96.85,70.12,96.29,70.46,95.81Z" transform="translate(-12.75 -0.59)"/><path class="cls-46" d="M57.18,91.29h-.25c0-.43,0-.86,0-1.29a.18.18,0,0,1,.17-.18h.43a.18.18,0,0,1,0,.2C57.2,90.36,57.44,90.91,57.18,91.29Z" transform="translate(-12.75 -0.59)"/><path class="cls-47" d="M45.94,99.42a.47.47,0,0,1-.34.12,7.68,7.68,0,0,1-1.66,0,.14.14,0,0,1,.07-.19,1.26,1.26,0,0,1,.57-.11,5.08,5.08,0,0,1,1.17.06A.4.4,0,0,1,45.94,99.42Z" transform="translate(-12.75 -0.59)"/><path class="cls-48" d="M65.1,99.88a3.67,3.67,0,0,1-1.89,0c.36-.35.81-.18,1.23-.22A1.08,1.08,0,0,1,65.1,99.88Z" transform="translate(-12.75 -0.59)"/><path class="cls-49" d="M51.84,95.34l-.1.92a.23.23,0,0,1-.27,0c-.17-.14,0-.37-.16-.54a.38.38,0,0,1-.06-.28.44.44,0,0,1,.31-.23A.37.37,0,0,1,51.84,95.34Z" transform="translate(-12.75 -0.59)"/><path class="cls-50" d="M43.33,91.09l0,0,0,0a.15.15,0,0,1,.19,0c.21.38,0,.63-.23.9a.47.47,0,0,1-.2.1.34.34,0,0,1-.19-.09.46.46,0,0,1,.14-.44c0-.06.1-.1.15-.16h0A.27.27,0,0,0,43.33,91.09Z" transform="translate(-12.75 -0.59)"/><path class="cls-51" d="M41.92,93.12l-.24,0a2,2,0,0,1,.68-.65.66.66,0,0,1,.2,0,.19.19,0,0,1,.08.17A.81.81,0,0,1,41.92,93.12Z" transform="translate(-12.75 -0.59)"/><path class="cls-52" d="M42.6,92.52l-.18,0,0,0c.18-.17.43-.27.52-.52H43c.11.1.33,0,.35.25a.3.3,0,0,1-.24.24c-.07,0-.1-.14-.18,0a.46.46,0,0,1-.12.12A.23.23,0,0,1,42.6,92.52Z" transform="translate(-12.75 -0.59)"/><path class="cls-53" d="M65.22,90.71h.19a.25.25,0,0,1,.13.23c0,.16,0,.32,0,.48s0,.23-.19.23A.63.63,0,0,1,65.22,90.71Z" transform="translate(-12.75 -0.59)"/><path class="cls-54" d="M69.6,94.9l-.22.19c-.33,0-.67,0-.71-.48l0,0,.07-.07,0,0Z" transform="translate(-12.75 -0.59)"/><path class="cls-55" d="M64.48,99.82l-1.27.05H63a.12.12,0,0,1,0-.21,1.79,1.79,0,0,1,1.4-.05A.17.17,0,0,1,64.48,99.82Z" transform="translate(-12.75 -0.59)"/><path class="cls-56" d="M51.84,95.34h-.28a1.37,1.37,0,0,1-.06-1.26.15.15,0,0,1,.22-.06l0,.77Z" transform="translate(-12.75 -0.59)"/><path class="cls-57" d="M57.26,94.16h-.13l-.1-.75c.12-.13-.13-.46.25-.45A.9.9,0,0,1,57.26,94.16Z" transform="translate(-12.75 -0.59)"/><path class="cls-58" d="M44.55,99.39h-.61a1.06,1.06,0,0,1-.82,0h0q-.16,0-.09-.18a.75.75,0,0,1,.35-.16,2.14,2.14,0,0,1,1.12.11A.15.15,0,0,1,44.55,99.39Z" transform="translate(-12.75 -0.59)"/><path class="cls-59" d="M59.09,98.19l-.4-.08a.47.47,0,0,1-.35-.2.32.32,0,0,1,.2-.25.46.46,0,0,1,.61.33A.25.25,0,0,1,59.09,98.19Z" transform="translate(-12.75 -0.59)"/><path class="cls-60" d="M43.5,90.27a7.62,7.62,0,0,0,.16-1,.14.14,0,0,1,.2,0,1,1,0,0,1,0,1,.35.35,0,0,1-.22.06Z" transform="translate(-12.75 -0.59)"/><path class="cls-61" d="M62.48,99.71l-.35,0c-.08,0-.13-.06-.19-.11l0,0a.34.34,0,0,1,0-.22A.2.2,0,0,1,62,99.2c.31.11.79,0,.8.55A.42.42,0,0,1,62.48,99.71Z" transform="translate(-12.75 -0.59)"/><path class="cls-62" d="M40.47,99.13h-.79a.46.46,0,0,1-.4-.14.08.08,0,0,1,0-.09s0,0,0,0a0,0,0,0,0,0-.07,1.94,1.94,0,0,1,1.12,0,.23.23,0,0,1,.12.18Z" transform="translate(-12.75 -0.59)"/><path class="cls-63" d="M64.48,99.82s0-.07,0-.11a.26.26,0,0,1,.39,0l.57,0a.54.54,0,0,1,.39.11,2.3,2.3,0,0,1-.74.06Z" transform="translate(-12.75 -0.59)"/><path class="cls-64" d="M65.4,91.61l.15-.2c.1.24.38.37.39.66,0,.1-.08.2-.22.19C65.49,92.1,65.17,92,65.4,91.61Z" transform="translate(-12.75 -0.59)"/><path class="cls-65" d="M47,99.1a1.31,1.31,0,0,1-.78.29.3.3,0,0,1-.05-.19.64.64,0,0,1,.61-.31A.29.29,0,0,1,47,99.1Z" transform="translate(-12.75 -0.59)"/><path class="cls-66" d="M57.15,92.94c0,.16,0,.33-.12.47a4.39,4.39,0,0,1,0-1.2h.13A.5.5,0,0,1,57.15,92.94Z" transform="translate(-12.75 -0.59)"/><path class="cls-67" d="M42.75,99.39a2.84,2.84,0,0,1-1.26-.12.59.59,0,0,1,.46-.21,1.44,1.44,0,0,1,.74.11A.16.16,0,0,1,42.75,99.39Z" transform="translate(-12.75 -0.59)"/><path class="cls-68" d="M48,98.36a1.37,1.37,0,0,0,.17.17,1.51,1.51,0,0,1-.64.27c-.09-.06-.18-.11-.17-.24A.48.48,0,0,1,48,98.36Z" transform="translate(-12.75 -0.59)"/><path class="cls-69" d="M51,97.2a.68.68,0,0,1-.41.27.2.2,0,0,1-.22,0c0-.43.26-.52.63-.49A.18.18,0,0,1,51,97.2Z" transform="translate(-12.75 -0.59)"/><path class="cls-70" d="M61.48,99.25a1,1,0,0,1-.64-.28.63.63,0,0,1,.21-.22.47.47,0,0,1,.5.31A.28.28,0,0,1,61.48,99.25Z" transform="translate(-12.75 -0.59)"/><path class="cls-71" d="M68.38,99.57a1.78,1.78,0,0,1-.94.12.17.17,0,0,1,0-.19.55.55,0,0,1,.3-.11.93.93,0,0,1,.52.09Z" transform="translate(-12.75 -0.59)"/><path class="cls-72" d="M43.55,91h-.21c0-.17,0-.35,0-.52a.23.23,0,0,1,.15-.23l0,0a1.12,1.12,0,0,1,.15.53C43.7,90.94,43.66,91,43.55,91Z" transform="translate(-12.75 -0.59)"/><path class="cls-73" d="M41.42,99.25a1.72,1.72,0,0,1-1-.12l0-.06a.83.83,0,0,1,.67-.12.64.64,0,0,1,.21.09A.17.17,0,0,1,41.42,99.25Z" transform="translate(-12.75 -0.59)"/><path class="cls-74" d="M60,98.64c-.17-.07-.36-.09-.47-.26a.14.14,0,0,1,0-.19.52.52,0,0,1,.65.22C60.17,98.54,60.09,98.6,60,98.64Z" transform="translate(-12.75 -0.59)"/><path class="cls-75" d="M47,99.1,46.79,99a.36.36,0,0,1,.43-.27.32.32,0,0,1,.18.12.29.29,0,0,1-.24.14h0Z" transform="translate(-12.75 -0.59)"/><path class="cls-76" d="M51.41,96.24l.33,0,0,.29a.18.18,0,0,1-.17.06.74.74,0,0,1-.43-.19.21.21,0,0,1,0-.19A.23.23,0,0,1,51.41,96.24Z" transform="translate(-12.75 -0.59)"/><path class="cls-77" d="M51.59,96.56a.17.17,0,0,1,.12,0,.57.57,0,0,1-.42.47.3.3,0,0,1-.08-.2C51.26,96.64,51.35,96.48,51.59,96.56Z" transform="translate(-12.75 -0.59)"/><path class="cls-78" d="M51.9,91.94c0-.27-.12-.54.11-.77A1.7,1.7,0,0,1,51.9,91.94Z" transform="translate(-12.75 -0.59)"/><path class="cls-79" d="M51.29,96.82V97a.43.43,0,0,1-.29.18V97C51,96.76,51.12,96.77,51.29,96.82Z" transform="translate(-12.75 -0.59)"/><path class="cls-80" d="M43.12,99.41h.82a.2.2,0,0,1,0,.11A1.23,1.23,0,0,1,43.12,99.41Z" transform="translate(-12.75 -0.59)"/><path class="cls-81" d="M49.8,97.78c-.1.18-.32.19-.47.31L49.27,98a.46.46,0,0,1,0-.2c.14-.18.3-.3.54-.2A.14.14,0,0,1,49.8,97.78Z" transform="translate(-12.75 -0.59)"/><path class="cls-82" d="M43.8,89.22h-.14c0-.27-.06-.54.12-.78l0,.33A.32.32,0,0,1,43.8,89.22Z" transform="translate(-12.75 -0.59)"/><path class="cls-83" d="M57.75,97.6l-.2-.15a.18.18,0,0,0-.12-.1v-.08a.11.11,0,0,1,0-.17.37.37,0,0,1,.49.29.36.36,0,0,1,0,.21C57.86,97.66,57.81,97.66,57.75,97.6Z" transform="translate(-12.75 -0.59)"/><path class="cls-84" d="M67.44,99.58a.2.2,0,0,1,0,.11,1.56,1.56,0,0,1-.61,0,.24.24,0,0,1,0-.2.72.72,0,0,1,.2-.09A.36.36,0,0,1,67.44,99.58Z" transform="translate(-12.75 -0.59)"/><path class="cls-85" d="M68.63,99.39a.42.42,0,0,1,.35.15l-.6,0V99.5a.11.11,0,0,1,0-.15A.21.21,0,0,1,68.63,99.39Z" transform="translate(-12.75 -0.59)"/><path class="cls-86" d="M41.42,99.25l-.05-.16a.48.48,0,0,1,.57-.06.13.13,0,0,1,0,.2l-.49,0h0Z" transform="translate(-12.75 -0.59)"/><path class="cls-87" d="M66.27,92.68l-.16.14a.15.15,0,0,1-.19,0,.35.35,0,0,1,0-.38l.08-.07Z" transform="translate(-12.75 -0.59)"/><path class="cls-88" d="M49.8,97.78v-.15a.26.26,0,0,1,.3-.22.36.36,0,0,1,.19.23Z" transform="translate(-12.75 -0.59)"/><path class="cls-89" d="M57.87,97.58l0-.16c.29-.1.44,0,.46.33a.11.11,0,0,1-.19,0H58C58,97.69,57.87,97.68,57.87,97.58Z" transform="translate(-12.75 -0.59)"/><path class="cls-90" d="M60,98.64l.17-.15c.16-.08.27-.06.31.13l-.18.15Z" transform="translate(-12.75 -0.59)"/><path class="cls-91" d="M70.33,97.46c.14.07.13.21.16.33a.11.11,0,0,1,0,.11h-.13a.28.28,0,0,1-.11-.27A.25.25,0,0,1,70.33,97.46Z" transform="translate(-12.75 -0.59)"/><path class="cls-82" d="M44.84,88.05c-.14.16-.31.13-.49.1A.58.58,0,0,1,44.84,88.05Z" transform="translate(-12.75 -0.59)"/><path class="cls-92" d="M50.28,97.64l-.19-.18a.17.17,0,0,1,.22,0l.28,0A.34.34,0,0,1,50.28,97.64Z" transform="translate(-12.75 -0.59)"/><path class="cls-93" d="M61.92,99.27l0,.18a.21.21,0,0,1-.25,0,.31.31,0,0,1,0-.13.13.13,0,0,1,0-.12c0-.05,0-.07,0-.07A.24.24,0,0,1,61.92,99.27Z" transform="translate(-12.75 -0.59)"/><path class="cls-94" d="M66.88,99.56a.88.88,0,0,1,0,.15l-.06,0h-.08l-.26-.15A.29.29,0,0,1,66.88,99.56Z" transform="translate(-12.75 -0.59)"/><path class="cls-95" d="M59.09,98.19a.71.71,0,0,0,0-.14c.15-.12.27-.06.36.08a.22.22,0,0,1-.07.2C59.25,98.34,59.18,98.26,59.09,98.19Z" transform="translate(-12.75 -0.59)"/><path class="cls-96" d="M62.48,99.71l.4,0,.07,0a.77.77,0,0,1,.07.16A.75.75,0,0,1,62.48,99.71Z" transform="translate(-12.75 -0.59)"/><path class="cls-87" d="M65.8,92.24l.14-.17,0,.28,0,0a.12.12,0,0,1-.15,0A.14.14,0,0,1,65.8,92.24Z" transform="translate(-12.75 -0.59)"/><path class="cls-97" d="M49.33,98.09a.32.32,0,0,1-.27.14L49,98.14c.06-.16.17-.19.32-.11Z" transform="translate(-12.75 -0.59)"/><path class="cls-98" d="M57.44,97.13a.61.61,0,0,1,0,.14c-.12,0-.19-.12-.15-.26h0C57.43,96.92,57.44,97,57.44,97.13Z" transform="translate(-12.75 -0.59)"/><path class="cls-31" d="M41.4,93.26a.27.27,0,0,1-.3.15A.3.3,0,0,1,41.4,93.26Z" transform="translate(-12.75 -0.59)"/><path class="cls-2" d="M71.51,16.14A.3.3,0,0,1,71.2,16,.28.28,0,0,1,71.51,16.14Z" transform="translate(-12.75 -0.59)"/><path class="cls-99" d="M58.17,97.76l.22,0,.09,0-.14.16Z" transform="translate(-12.75 -0.59)"/><path class="cls-85" d="M69.26,99.54c.07-.11.16-.17.29-.07A.29.29,0,0,1,69.26,99.54Z" transform="translate(-12.75 -0.59)"/><path class="cls-97" d="M48.75,98.35a.43.43,0,0,0,0-.11c.07-.13.17-.12.27,0l0,0A.35.35,0,0,1,48.75,98.35Z" transform="translate(-12.75 -0.59)"/><path class="cls-2" d="M67.92,31.83a.28.28,0,0,1-.22.2.14.14,0,0,1-.14,0,.84.84,0,0,1,.06-.14h0Z" transform="translate(-12.75 -0.59)"/><path class="cls-100" d="M61.65,99.4l.25,0a.31.31,0,0,0,0,.1C61.78,99.55,61.68,99.52,61.65,99.4Z" transform="translate(-12.75 -0.59)"/><path class="cls-101" d="M46.2,99.21l0,.18-.23,0,0,0a.14.14,0,0,1,0-.18A.26.26,0,0,1,46.2,99.21Z" transform="translate(-12.75 -0.59)"/><path class="cls-102" d="M57.87,97.58l.13.17a.21.21,0,0,1-.25-.16Z" transform="translate(-12.75 -0.59)"/><path class="cls-80" d="M42.75,99.39v-.11a.22.22,0,0,1,.33,0l0,.15Z" transform="translate(-12.75 -0.59)"/><path class="cls-26" d="M72.42,18.38a.26.26,0,0,1,.28-.14A.29.29,0,0,1,72.42,18.38Z" transform="translate(-12.75 -0.59)"/><path class="cls-103" d="M47.4,98.82l-.22,0c0-.1.09-.17.21-.12l.14.15-.06,0Z" transform="translate(-12.75 -0.59)"/><path class="cls-104" d="M61,98.84l-.2.13a.09.09,0,0,1-.09,0l.13-.15C61,98.75,61,98.77,61,98.84Z" transform="translate(-12.75 -0.59)"/><path class="cls-72" d="M43.33,91.09a.22.22,0,0,1-.14.22Z" transform="translate(-12.75 -0.59)"/><path class="cls-82" d="M44.09,88.21a.17.17,0,0,1-.17.1C44,88.24,44,88.19,44.09,88.21Z" transform="translate(-12.75 -0.59)"/><path class="cls-103" d="M47.17,99h0Z" transform="translate(-12.75 -0.59)"/><path class="cls-105" d="M39.29,98.87a.57.57,0,0,1,0,.13.14.14,0,0,1-.13,0C39.18,98.89,39.21,98.84,39.29,98.87Z" transform="translate(-12.75 -0.59)"/><path class="cls-106" d="M61.62,99.13v.14h-.07l-.07,0v-.2A.13.13,0,0,1,61.62,99.13Z" transform="translate(-12.75 -0.59)"/><polygon class="cls-107" points="29.64 91.84 29.67 91.88 29.62 91.86 29.64 91.84"/><path class="cls-26" d="M72.72,18.23a.19.19,0,0,1,.18-.12A.17.17,0,0,1,72.72,18.23Z" transform="translate(-12.75 -0.59)"/><path class="cls-108" d="M59.37,98.33a.41.41,0,0,0,0-.11c0-.06.1,0,.15,0a.77.77,0,0,0,0,.15A.17.17,0,0,1,59.37,98.33Z" transform="translate(-12.75 -0.59)"/><path class="cls-102" d="M57.43,97.35a.11.11,0,0,1,.12.1Z" transform="translate(-12.75 -0.59)"/><path class="cls-100" d="M61.94,99.57a.21.21,0,0,1,.19.11A.2.2,0,0,1,61.94,99.57Z" transform="translate(-12.75 -0.59)"/><path class="cls-72" d="M43.2,91.31l-.15.16C43.05,91.37,43.11,91.33,43.2,91.31Z" transform="translate(-12.75 -0.59)"/><path class="cls-109" d="M39.72,32.28a1.79,1.79,0,0,1-.22-.38c-.32-1.1-.64-2.19-1-3.29-.1-.18,0-.37,0-.55a7.25,7.25,0,0,0-1-3.77c-.35-.74-.57-1.53-.85-2.3a1.92,1.92,0,0,1-.16-.42.25.25,0,0,1,.06-.2.33.33,0,0,1,.28-.29c.64-.12,1.26-.26,1.89-.4.14,0,.24.06.35.1.27-.14.42.07.58.22a15.47,15.47,0,0,1,2,2.21c.34.45.37.84-.14,1.21a2.79,2.79,0,0,0-.9,1.75c.22-.35.29-.77.48-1.13s.47-.75.94-.76.67.37.9.7a.67.67,0,0,1-.09.94,6.43,6.43,0,0,0-1.57,4.89A10,10,0,0,1,42,27.4a3.65,3.65,0,0,1,.78-1.26c.38-.38.75-.49,1.16-.06s.89,1.19,1.39,1.75a1.89,1.89,0,0,1,.31,1.63,14,14,0,0,0-1.07,2.85,2.7,2.7,0,0,0,0,1.41,3,3,0,0,1,.06.32.72.72,0,0,0,.17.39,11,11,0,0,0,.75.91,2.06,2.06,0,0,1,.39,1.82.57.57,0,0,1-.68.52,5.52,5.52,0,0,0-.91-.11,1,1,0,0,1-.22,0,3.21,3.21,0,0,1-1.47-1.15A2.6,2.6,0,0,1,42,34.44a.69.69,0,0,0-.62-.84,2.23,2.23,0,0,1-1.14-.51,4,4,0,0,1-.48-.6A.26.26,0,0,1,39.72,32.28Z" transform="translate(-12.75 -0.59)"/><path class="cls-2" d="M45.48,29.47a4.36,4.36,0,0,1,0-.51,1.66,1.66,0,0,0-.58-1.37,5.57,5.57,0,0,1-1-1.41,2.1,2.1,0,0,0-.46-.84,49.38,49.38,0,0,0-3.23-4,3.24,3.24,0,0,0-.94-.71s.06-.09.1-.1l1.83-.35a.44.44,0,0,0,.13.34,27.3,27.3,0,0,0,1.85,2,2.17,2.17,0,0,1,.55.79,6,6,0,0,0,.74,1.11.59.59,0,0,0,.71.23,4.74,4.74,0,0,1,2.64,0s.08.06.12.09a2.34,2.34,0,0,1-1.21.51c-.35-.26-.39,0-.48.27a5.25,5.25,0,0,0,0,2.64C46.28,29,46.14,29.23,45.48,29.47Z" transform="translate(-12.75 -0.59)"/><path class="cls-110" d="M39.19,20.64A.84.84,0,0,1,40,21a34.7,34.7,0,0,1,2.54,3c.4.59.86,1.14,1.3,1.71.14.18.19.35,0,.52-.55-.42-.55-.42-1,.09a4.33,4.33,0,0,0-.67,1.16,8.49,8.49,0,0,0-.62,3,1.83,1.83,0,0,1-.09.81.21.21,0,0,1-.16.13.26.26,0,0,1-.17-.12,1,1,0,0,1,0-.3,8.47,8.47,0,0,1,.66-3.72,4.07,4.07,0,0,1,1.34-1.73,4.84,4.84,0,0,0-.83-1.09.24.24,0,0,0-.34,0,1.62,1.62,0,0,0-.67.87c-.1.31-.19.62-.3.92a2.92,2.92,0,0,1-.23.47.23.23,0,0,1-.27.07.26.26,0,0,1-.14-.24,1.35,1.35,0,0,1,.05-.29c0-.15.11-.28.16-.42.49-1.26.3-1.05,1.35-1.89a11.45,11.45,0,0,0-2.74-3.11Z" transform="translate(-12.75 -0.59)"/><path class="cls-111" d="M36.6,21.37v.16q-.08.13-.18,0a.3.3,0,0,1-.11-.28Z" transform="translate(-12.75 -0.59)"/><path class="cls-27" d="M48.74,88.32c0,.06.13.12.12.17,0,.52.3.65.71.71.18,0,.39,0,.53.16a.29.29,0,0,1-.18.22h-.2a4.57,4.57,0,0,0-.52,0,.7.7,0,0,1-.45-.13.83.83,0,0,1,0-1.09Z" transform="translate(-12.75 -0.59)"/><path class="cls-112" d="M49.94,89.5l.16-.14a14.61,14.61,0,0,1,1.62,0v.15A1.75,1.75,0,0,1,49.94,89.5Z" transform="translate(-12.75 -0.59)"/><path class="cls-113" d="M44.43,48.63l.11-.27a.39.39,0,0,1,.19-.21,3.07,3.07,0,0,1,3.37,1,4.89,4.89,0,0,1,.21,4.65,1.38,1.38,0,0,1-2.15.64l-.33-.27a.91.91,0,0,1-.16-.11l-.15-.1-.09,0a.31.31,0,0,0-.37.07,1.19,1.19,0,0,0-.05.26,3.59,3.59,0,0,1-.11.57c0,.14,0,.27,0,.41a4.24,4.24,0,0,0,.17,1.87c.08.24.15.47.47.48a.66.66,0,0,1,.4.13c.17.53-.27.61-.57.8a2.09,2.09,0,0,0-.89,2.51,1.26,1.26,0,0,0,1.72.72c.45-.14.87-.53,1.4-.22a.27.27,0,0,1-.16.37,4,4,0,0,0-1.06.35,1.59,1.59,0,0,1-1.69-.09s-.09,0-.19,0a2.11,2.11,0,0,0,0,.71c0,.24,0,.49,0,.74s0,.49,0,.74c-.42.19-.83-.09-1.24,0a7,7,0,0,1-.92-.29,1.24,1.24,0,0,1-.94-1.36c.29-1.65-.24-3.19-.47-4.77,0-.14,0-.29,0-.44a2,2,0,0,1,.07-.8c.14-.39.33-.27.51,0,.23,1.91,1.09,3.75.71,5.76,1.13-1,1.12-1,1.38-2.26A2.6,2.6,0,0,1,44,59a1.79,1.79,0,0,0,.27-1.82,3.79,3.79,0,0,1-.16-1.92,3,3,0,0,0,.09-.89,1,1,0,0,1,1.38-1,6.75,6.75,0,0,1,.94.45c.55.26.92.15,1.13-.43a4.08,4.08,0,0,0-.29-3.79c-.48-.76-1.31-.69-2.08-.7C45,48.85,44.61,49.05,44.43,48.63Z" transform="translate(-12.75 -0.59)"/><path class="cls-114" d="M47.42,61.92l.15-.25a.31.31,0,0,1,.19-.25c.19-.05.37-.08.48.14a6.33,6.33,0,0,1,.52,1.16,34.12,34.12,0,0,1,1,3.28,1.55,1.55,0,0,1,.07.52.61.61,0,0,1-.48.51.52.52,0,0,1-.57-.25,1.13,1.13,0,0,1-.16-.33,30.78,30.78,0,0,1-1.15-4.31A1.62,1.62,0,0,1,47.42,61.92Z" transform="translate(-12.75 -0.59)"/><path class="cls-115" d="M48.24,61.56a1.06,1.06,0,0,0-.56,0,2.34,2.34,0,0,1,3.26-.88,4.54,4.54,0,0,0,.83.63c.45.37,1.15.42,1.35,1.09l-.19.16a7.21,7.21,0,0,1-2.38-1.48,1,1,0,0,0-1.29-.14C48.91,61.13,48.58,61.36,48.24,61.56Z" transform="translate(-12.75 -0.59)"/><path class="cls-116" d="M43.47,64.23c.11,0,.21-.12.34-.08l.69.2a5,5,0,0,0,.34.65,1.94,1.94,0,0,1,.31,1.6c-.12.17-.11.44-.38.5a.22.22,0,0,1-.15-.13,2.26,2.26,0,0,0-.94-2.3A.43.43,0,0,1,43.47,64.23Z" transform="translate(-12.75 -0.59)"/><path class="cls-116" d="M43.82,68c-.08-.16-.21-.21-.36-.09a1.25,1.25,0,0,1-1,.32A3.22,3.22,0,0,1,44.67,67l0,0c.06.35-.29.41-.44.61Z" transform="translate(-12.75 -0.59)"/><path class="cls-7" d="M44.26,67.67c.07-.26.34-.37.44-.61.23-.07.26-.35.45-.46C45.19,67.24,44.77,67.49,44.26,67.67Z" transform="translate(-12.75 -0.59)"/><path class="cls-117" d="M61.48,88.34l.15.25s-.06.11-.1.11c-1,0-1.13.68-1.05,1.48a.85.85,0,0,1-.28.86c-.35-.37-.3-1.18-1.09-1-.16-.06-.35-.09-.32-.32.17,0,.34,0,.51-.06.4-.08.73-.18.73-.73,0-.31.2-.41.58-.42A2,2,0,0,0,61.48,88.34Z" transform="translate(-12.75 -0.59)"/><path class="cls-118" d="M58.79,89.68c.07.13.21.14.34.17a1.09,1.09,0,0,1-1.55.09v-.11l.31,0a.64.64,0,0,1,.57,0Z" transform="translate(-12.75 -0.59)"/><path class="cls-119" d="M58.46,89.8h-.57C58.14,89.62,58.2,89.62,58.46,89.8Z" transform="translate(-12.75 -0.59)"/><path class="cls-120" d="M46,54.17l.32.2a1.21,1.21,0,0,0,1.76-.51A4.89,4.89,0,0,0,48.54,51a5.1,5.1,0,0,0-.71-2,1.49,1.49,0,0,0-1-.7c-.47-.08-.94-.12-1.41-.17a1.73,1.73,0,0,0-.87.16.36.36,0,0,1-.24-.25c-.16-.52-.31-1-.45-1.55,0-.08,0-.19,0-.28a1.43,1.43,0,0,1,.15-.86,11.17,11.17,0,0,0,.46-6.57,1.44,1.44,0,0,1,0-1.15c.9-.26,1.36,0,1.46.92a3.29,3.29,0,0,0,0,.44c.06.18.09.37.15.56a1.14,1.14,0,0,1,.07.32,1.81,1.81,0,0,0,1,1.49,4.35,4.35,0,0,1,.92.73,2.33,2.33,0,0,1,.36.7,12.64,12.64,0,0,0,.42,3.1,5.63,5.63,0,0,0,8.37,3.32,8.66,8.66,0,0,0,4.79-8,6.83,6.83,0,0,0-.32-2.5.79.79,0,0,1,0-.73,7.64,7.64,0,0,0,1.62-1.14,5.44,5.44,0,0,0,1.25-2.31.69.69,0,0,1,.42-.46c.45.66.19,1.38.18,2.09-.06,3.47,0,6.91,1.65,10.11a4.82,4.82,0,0,0,4.15,3,.77.77,0,0,1,.6.25,5.67,5.67,0,0,1,.06,2.21c0,.45-.08.89-.1,1.33-.2,1.08-.2,2.18-.4,3.26a.9.9,0,0,1-1,.87c-.73,0-1.45,0-2.17,0a36.29,36.29,0,0,0-6.15.68,4.51,4.51,0,0,0-1.1.17c-2.14.13-4.28.23-6.43.21a6.66,6.66,0,0,1-1.84.12,6.38,6.38,0,0,1-2.06-.57,4.28,4.28,0,0,0-3.21-.41.59.59,0,0,1-.23,0c-.38-.26-.33-.7-.44-1.07a14.92,14.92,0,0,1-.65-2.06C45.86,54.17,45.91,54.14,46,54.17Z" transform="translate(-12.75 -0.59)"/><path class="cls-2" d="M44.43,48.63c.1.06.2.15.34.1a3.6,3.6,0,0,1,2,.07,1.24,1.24,0,0,1,.81.62,4.63,4.63,0,0,1,.28,4.1A.89.89,0,0,1,46.4,54l-.57-.36a1.16,1.16,0,0,0-1.14-.06c-.19.07-.29.16-.29.37s0,.54,0,.82a.72.72,0,0,1-.13.49,1.34,1.34,0,0,1-.07-1.33A28.41,28.41,0,0,1,42,56.36c-.16.16-.26.44-.58.36l-.11-.09s-.06-.08-.1-.09-.09.05-.09.08c0,.29,0,.57,0,.86s-.24.5-.57.48a12.88,12.88,0,0,0-.11,2.63c0,.36.08.75-.18,1.08-.48-.06-.33-.46-.37-.74a7.48,7.48,0,0,0-.14-2.11c-.31-.07-.51.14-.7.32a3.55,3.55,0,0,1-1.17.73c-.24.13,0,.3,0,.45a1,1,0,0,1-.11.72c-.36.14-.3-.2-.39-.36s-.07-.26-.23-.23-.18.15-.23.26c-.15.36.06.8-.27,1.12a.61.61,0,0,1-.13-.41c0-.32,0-.64,0-1a.47.47,0,0,0-.16-.46,2.82,2.82,0,0,1-.85-1.37,5.24,5.24,0,0,1-.16-1.18c0-1-.2-1.93-.28-2.9a27.11,27.11,0,0,1-.19-3.13,17.85,17.85,0,0,0-.26-3.26.22.22,0,0,1,0-.08c-.06-.82-.14-1.64-.15-2.46q0-3.13,0-6.29a1.54,1.54,0,0,0-.48-1.27,1.46,1.46,0,0,1-.39-.64,5.8,5.8,0,0,1-.18-3.3,3.75,3.75,0,0,1,.88-1.55.79.79,0,0,1,.56-.32.35.35,0,0,0,.28-.08A1,1,0,0,1,36.14,32a.23.23,0,0,0,.14,0s0-.08,0-.11c-.13-.28-.13-.29.11-.32a1.64,1.64,0,0,1,.88,0c.1,0,.19,0,.25-.12.24.75.48,1.5.7,2.26q.54,1.78,1.05,3.57c.12.4.22.81.33,1.21a1.06,1.06,0,0,0-1.1,1.24,2.43,2.43,0,0,1-.12.74,2.17,2.17,0,0,0,0,1.26,5.46,5.46,0,0,1-.1,1.71,19.84,19.84,0,0,0-.13,2.44,2.1,2.1,0,0,0-.17,1c0,1.72,0,3.44,0,5.15,0,.85-.06,1.69-.13,2.53a.43.43,0,0,1-.08.35,5.73,5.73,0,0,0-1.22,2.75,1.55,1.55,0,0,0,.35-.65c.06-.19.1-.38.15-.57a2.24,2.24,0,0,1,1.38-1.63,12.53,12.53,0,0,0,2.86-2.23c.16-.12.15-.36.21-.55a4,4,0,0,1,1.64-2.31,1.72,1.72,0,0,0,.21.07.78.78,0,0,0,1.06-.85C44.45,48.82,44.43,48.72,44.43,48.63Z" transform="translate(-12.75 -0.59)"/><path class="cls-2" d="M44.55,37.78a2,2,0,0,0,.1.73,11.51,11.51,0,0,1-.56,7.37,3,3,0,0,1-.2.4.42.42,0,0,1-.23-.27c-.67-2.29-1.33-4.58-2-6.86-.48-1.62-1-3.24-1.45-4.85a4.08,4.08,0,0,1-.29-1.23.2.2,0,0,1,.21,0,2.29,2.29,0,0,0,1.13.54.73.73,0,0,1,.64.85,2.75,2.75,0,0,0,.71,1.91,9.65,9.65,0,0,0,1.07,1l.19.06a.73.73,0,0,0,.38.11C44.38,37.59,44.54,37.58,44.55,37.78Z" transform="translate(-12.75 -0.59)"/><path class="cls-2" d="M39.61,38.6a12.73,12.73,0,0,1,.56,1.68c.36,1.16.69,2.32,1,3.49.42,1.45.84,2.9,1.25,4.35-.32.65-1,.68-1.56.82a9.53,9.53,0,0,1-1.09.18c-.46-.41-.22-1-.3-1.47-.24-1.43-.49-2.86-.71-4.29a3.2,3.2,0,0,1-.07-.87,5.37,5.37,0,0,0-.1-2.49.72.72,0,0,1-.07-.25C38.58,38.67,38.68,38.56,39.61,38.6Z" transform="translate(-12.75 -0.59)"/><path class="cls-120" d="M39.86,49.05c0-.15.07-.31.27-.29a3.48,3.48,0,0,0,2.32-.64,5.47,5.47,0,0,1,.42,1.43,2.25,2.25,0,0,1-.56.87A4.83,4.83,0,0,0,41.48,52a1.25,1.25,0,0,1-1.2,1c-.49-.39-.31-1-.35-1.45A5.73,5.73,0,0,1,39.86,49.05Z" transform="translate(-12.75 -0.59)"/><path class="cls-121" d="M40.5,53a.75.75,0,0,1,.14-.17c.67-.53.57-.41.75-1.19a2.86,2.86,0,0,1,.59-1.1c.28-.34.59-.66.89-1l.31.15a.45.45,0,0,1-.19.38,3.77,3.77,0,0,0-1.14,1.54,1.42,1.42,0,0,0-.15.57.86.86,0,0,1-.45.73,9.49,9.49,0,0,0-1,.86,5.4,5.4,0,0,1-2,1.35.91.91,0,0,0-.59.53,5.33,5.33,0,0,0-.4,1.12,2.23,2.23,0,0,1-.51,1.14s-.13.1-.19,0a.55.55,0,0,1-.13-.17.09.09,0,0,1,0-.07c.21-.69.41-1.38.65-2.06a1.85,1.85,0,0,1,.77-.89,2,2,0,0,1,.3-.28,19.57,19.57,0,0,0,2-1.3C40.18,53.1,40.36,53.1,40.5,53Z" transform="translate(-12.75 -0.59)"/><path class="cls-122" d="M36.75,21.84a6.54,6.54,0,0,1,.28.6,23.15,23.15,0,0,0,1.31,3.08,4.51,4.51,0,0,1,.33,2.61c-.06.11-.1.23-.26.13a3.75,3.75,0,0,1-.24-1.15,11.73,11.73,0,0,0-.42-1.65,1.59,1.59,0,0,1-.12-.27.61.61,0,0,1-.05-.18l-.18-.51a2.34,2.34,0,0,0-.09-.24l0-.16a.29.29,0,0,0-.09-.21A7.73,7.73,0,0,1,36.58,22C36.52,21.84,36.61,21.81,36.75,21.84Z" transform="translate(-12.75 -0.59)"/><path class="cls-123" d="M39.61,38.6a1.76,1.76,0,0,1-.2.09c-.67.2-.67.2-.71.89a1.62,1.62,0,0,1,0,.22c-.11.14,0,.27,0,.41s-.06.53-.35.67c-.24-.12-.17-.31-.1-.49l.18-1.7c0-.06.07-.17.11-.17.36-.06.7-.3,1.07-.07A.38.38,0,0,1,39.61,38.6Z" transform="translate(-12.75 -0.59)"/><path class="cls-124" d="M37.78,25.27a2.83,2.83,0,0,1,.39,1.84C38.12,27.06,38,27,38,27a17.09,17.09,0,0,1-.55-2,.12.12,0,0,1,.19,0l0,0,0,0A.38.38,0,0,0,37.78,25.27Z" transform="translate(-12.75 -0.59)"/><path class="cls-125" d="M37.66,25h-.19a1.92,1.92,0,0,1-.26-.88c0-.07.07-.07.1,0a.21.21,0,0,1,0,.13.54.54,0,0,1,.1.16A2.12,2.12,0,0,1,37.66,25Z" transform="translate(-12.75 -0.59)"/><path class="cls-126" d="M40.05,33.07h-.14l-.17-.3a.26.26,0,0,1,0-.35,1.55,1.55,0,0,1,.43.49A.17.17,0,0,1,40.05,33.07Z" transform="translate(-12.75 -0.59)"/><path class="cls-127" d="M38.41,28.26l.26-.13a.67.67,0,0,1-.12.48A.36.36,0,0,1,38.41,28.26Z" transform="translate(-12.75 -0.59)"/><path class="cls-128" d="M36.75,21.84l-.17.16a.76.76,0,0,1-.16-.47h.18A.51.51,0,0,1,36.75,21.84Z" transform="translate(-12.75 -0.59)"/><path class="cls-129" d="M39.77,32.42l0,.35c-.15-.15-.2-.32,0-.49A.19.19,0,0,1,39.77,32.42Z" transform="translate(-12.75 -0.59)"/><path class="cls-130" d="M37.31,24.09h-.1l0-.21Z" transform="translate(-12.75 -0.59)"/><path class="cls-2" d="M52.3,58.21h1.15a1.4,1.4,0,0,0,.7-.12,4.59,4.59,0,0,0,1.61.12c1,0,2,.06,3.06-.06a5.33,5.33,0,0,0,1.26-.06,2.69,2.69,0,0,1,.49,0,5.89,5.89,0,0,0,.84-.14,41.68,41.68,0,0,1,7.31-.68,5.49,5.49,0,0,1,1.62.18.62.62,0,0,0,.78-.24.45.45,0,0,1,.21-.12c2.1.09,2.77-1.32,2.6-3.16-.29-3-.91-6.06-1.27-9.1a16.26,16.26,0,0,0-.47-2c0-.11,0-.33-.24-.27-.16.28,0,.63-.24.88-.45.09-.26-.29-.28-.44a5.21,5.21,0,0,0-1.35-2.47.69.69,0,0,0,.25.68c1.22,1.05,1.21,2.52,1.38,3.94a5.76,5.76,0,0,1,0,.59c0,1,0,2,0,3,0,.29,0,.6-.21.83a4.44,4.44,0,0,1-4.05-1.79A9.26,9.26,0,0,1,66,44.87a17.7,17.7,0,0,1-.89-4.67,33.8,33.8,0,0,1,0-4.93,3.45,3.45,0,0,0,0-1.11,6.92,6.92,0,0,0,1.11-.74,11.91,11.91,0,0,1,1.62-1.11c.73-.34,1.44-.7,2.17-1a6.54,6.54,0,0,1,3.15-.47,1.48,1.48,0,0,1,.88.37,8.11,8.11,0,0,0,.65.51,2.43,2.43,0,0,1,1,1.93,4.78,4.78,0,0,1-.3,2,8.65,8.65,0,0,0-.46,2.86A15.68,15.68,0,0,0,75.18,42a2.32,2.32,0,0,1,.07.52,12.66,12.66,0,0,0,.32,2.21,15.75,15.75,0,0,1,.31,2.06,11,11,0,0,0,.22,1.4c.15.83.29,1.66.37,2.51.06.61.19,1.22.3,1.83.19,1,.38,2,.58,3.08.12.61.23,1.22.39,1.82a2.06,2.06,0,0,1-.56,2.06,6.48,6.48,0,0,1-.77.71.67.67,0,0,0-.27.58c0,.3,0,.59,0,.89a.6.6,0,0,1-.12.43.84.84,0,0,1-.23-.69c0-.54-.19-.7-.76-.68-1.74.07-3.48.23-5.22.22s-3.53,0-5.29.18c-.26,0-.47-.18-.72-.21a5,5,0,0,0-2.44-.08c-1.55,0-3.08.23-4.62.29s-3.33.18-5,.33a1.9,1.9,0,0,1-.88-.65,1.17,1.17,0,0,0-1.41-.33,4.82,4.82,0,0,0-1.77,1l-.11.11a.22.22,0,0,0-.26-.1c-.37.13-.75.25-1.12.4a1.33,1.33,0,0,1-1.78-.58,1.75,1.75,0,0,1-.2-1.63,4.87,4.87,0,0,1,.51-1,1,1,0,0,1,.51-.41,2.91,2.91,0,0,0,.48-.21.36.36,0,0,0,.18-.38,1.27,1.27,0,0,0,1.18-.28,4.2,4.2,0,0,1,3.29.51,5.46,5.46,0,0,0,3.48.56C53.42,58.47,52.76,58.88,52.3,58.21Z" transform="translate(-12.75 -0.59)"/><path class="cls-131" d="M64.31,61.06a1.08,1.08,0,0,1,.35-.13c.8.06,1.58-.19,2.38-.17,1.17,0,2.34,0,3.51,0A5.28,5.28,0,0,0,72,60.65a3.29,3.29,0,0,1,.89,0h1.35a2.55,2.55,0,0,0,1-.1,1.12,1.12,0,0,1,.45,0c.23,0,.32.08.33.31s0,.7,0,1.05c0,.1,0,.2,0,.29a19.36,19.36,0,0,1-.27,3.13c-.13.86-.22,1.72-.34,2.59-.11.69-.13,1.38-.18,2.08C75.15,71,75,72,74.86,73c-.07.74-.22,1.48-.22,2.23s-.08,1.34-.12,2a3.53,3.53,0,0,1-.24.86,1,1,0,0,1-.37.45,3.75,3.75,0,0,1-2.25.7,14.8,14.8,0,0,0-2.22.27,3.52,3.52,0,0,1-1.41,0,7.16,7.16,0,0,0-1.11-.19,1.71,1.71,0,0,1-1.42-.95c-.11-.2-.2-.41-.31-.6a1.48,1.48,0,0,0-1-.76c-.58-.14-1.17-.27-1.75-.39l-.89-.13a4,4,0,0,0-1.41.12,10.59,10.59,0,0,0-1.1.2,1.61,1.61,0,0,1-1.49-.47.48.48,0,0,1-.13-.56c.08-.31.19-.61.29-.92a2.73,2.73,0,0,1,1.43-.26,1.42,1.42,0,0,0,1.4-1.51c-.12-2.33,0-4.66,0-7,0-1.11.12-2.23.16-3.35.06-1.33,1.18-2.09,2.78-2C63.73,60.94,64.06,60.88,64.31,61.06Z" transform="translate(-12.75 -0.59)"/><path class="cls-131" d="M51.74,61.5c0-.13.08-.25.22-.27s.25,0,.38,0a6.14,6.14,0,0,0,1.41-.11,6.59,6.59,0,0,1,1.26,0,3,3,0,0,0,1-.1,2.28,2.28,0,0,1,.59,0A9.42,9.42,0,0,0,59,60.78a1.81,1.81,0,0,1,.52,0,4.65,4.65,0,0,0,1.11-.11.81.81,0,0,1,.91.13c0,.37-.23.59-.42.84a2.17,2.17,0,0,0-.48,1.75,28.92,28.92,0,0,1-.11,3.35,46,46,0,0,1,0,4.84c0,.61-.06.65-.51.7a2.07,2.07,0,0,0-1.33-.74,11.69,11.69,0,0,1-1.74-.36,2.27,2.27,0,0,0-.74-.07,5,5,0,0,1-1.94-.47,1.25,1.25,0,0,1-.84-1.27c0-1.52,0-3,0-4.55a3,3,0,0,1,.09-.66,4.65,4.65,0,0,0,0-1.12c0-.28-.08-.54-.4-.63A8.39,8.39,0,0,0,51.74,61.5Z" transform="translate(-12.75 -0.59)"/><path class="cls-132" d="M60,72.27c.14,0,.26,0,.27-.18s0-.4,0-.6a9.85,9.85,0,0,1,.11-1.63,1.14,1.14,0,0,0,0-.52,8.46,8.46,0,0,1-.11-2,17.75,17.75,0,0,1,.12-2.82,3,3,0,0,0,0-1.19,2,2,0,0,1,.34-1.55,9.49,9.49,0,0,1,.8-1,3.14,3.14,0,0,1,2.37,0c0,.3-.14.22-.3.16h-.82a1.4,1.4,0,0,0-1.07.45c-.15.16-.31.32-.45.49a1.34,1.34,0,0,0-.36,1c0,.22,0,.44,0,.67a7.11,7.11,0,0,1-.11,1.78,2.16,2.16,0,0,0,0,.44,22.23,22.23,0,0,0,.09,3.65.81.81,0,0,1,0,.22,21.83,21.83,0,0,0-.1,3.13,3.13,3.13,0,0,1-.09,1,1.23,1.23,0,0,1-1.12.94c-.59.08-1.18.14-1.77.21a.68.68,0,0,1,.68-.34h.81a1.39,1.39,0,0,0,1.19-1.35.7.7,0,0,0-.12-.34Z" transform="translate(-12.75 -0.59)"/><path class="cls-133" d="M67.62,32.17l-.07,0c-.06,0-.16,0-.17,0s0-.16.1-.19.08,0,.13,0a.16.16,0,0,1,.09,0Z" transform="translate(-12.75 -0.59)"/><path class="cls-131" d="M36.59,61.83a8.81,8.81,0,0,0,0-.89.82.82,0,0,1,.37-.75.32.32,0,0,1,.51.18,1.51,1.51,0,0,1,0,.37.51.51,0,0,0,.13.33,4.56,4.56,0,0,1,.58,2.12c.27,1.45.38,2.92.52,4.39a45.15,45.15,0,0,0-.83-6,1.71,1.71,0,0,1,.79-2.17c.37-.2.63-.56,1.05-.71a.5.5,0,0,1,.08-.12.21.21,0,0,1,.12-.07.13.13,0,0,1,.1.09c0,.49,0,1,0,1.49v1.26a.47.47,0,0,0,.13.34c.25.21.16.51.17.77,0,.92,0,1.84,0,2.77q0-3.25,0-6.51c0-.27-.08-.56.15-.78l.57-.44A22.19,22.19,0,0,0,41.56,60a5.19,5.19,0,0,1,.06,2.22,1.94,1.94,0,0,0,0,.59,1.05,1.05,0,0,0,.89,1c.36,0,.65.26,1,.34.16.14.32.3.49.44A2,2,0,0,1,44.67,67a18.57,18.57,0,0,0-2.24,1.21,2.48,2.48,0,0,0-1.86.79.79.79,0,0,0-.07,1.24,1.78,1.78,0,0,0,.52.42c.48.26.94.55,1.43.78a3.11,3.11,0,0,1,1.44,1.82.82.82,0,0,1,0,.51c0,.32-.31.55-.4.87A5.85,5.85,0,0,1,43,75a.42.42,0,0,1-.27.09,3.08,3.08,0,0,1-2.9-2,3.83,3.83,0,0,0-.5-.91,1.38,1.38,0,0,0-.89-1.06h0a.54.54,0,0,1-.15-.15c-.22-.16-.43-.33-.66-.48a.78.78,0,0,1-.4-.73c0-.23,0-.45,0-.67A10.94,10.94,0,0,0,37,66.92c-.13-1-.33-1.89-.4-2.86C36.59,63.32,36.59,62.57,36.59,61.83Z" transform="translate(-12.75 -0.59)"/><path class="cls-2" d="M46.62,25.27c.09,0,.21,0,.26-.1a1.14,1.14,0,0,1,1-.35,5.67,5.67,0,0,1,1.28.36,5,5,0,0,1,2,1.08,11.2,11.2,0,0,0,1,.68.55.55,0,0,0,.88-.2c.2-.31.32-.68.67-.87a14.24,14.24,0,0,1,2.11-1c.36-.1.71-.21,1.07-.3a7.87,7.87,0,0,1,2.37-.14c.22,0,.44.1.66.12a.86.86,0,0,1,.81.83,12.67,12.67,0,0,1,.18,2.3,1.89,1.89,0,0,1-.26.92.93.93,0,0,0-.12.92,2,2,0,0,1,.07.73c0,.85,0,1.7,0,2.54-.08.09,0,.22-.13.31l0,.15c.07.27.26.57-.14.75-.16.19-.31.38-.49.56a.81.81,0,0,0-.26.67c0,.14,0,.3,0,.44a4.07,4.07,0,0,1,0,1.77,2.51,2.51,0,0,0,0,.67,1.37,1.37,0,0,1-.27.83,7.55,7.55,0,0,0-.82,1.33,2.1,2.1,0,0,1-.78,1.06A6.56,6.56,0,0,0,56,44.48c-.36.94-.79,1.83-1.93,2a6.7,6.7,0,0,1-1.79,0,3.12,3.12,0,0,1-2.26-1.43,22.63,22.63,0,0,1-2-3,1.76,1.76,0,0,0-.63-.52,2.32,2.32,0,0,1-1.32-2,9.81,9.81,0,0,1-.22-3,1.64,1.64,0,0,0-.59-1.51,3.87,3.87,0,0,1-.74-1c0-.08,0-.16,0-.24a1.55,1.55,0,0,1-.07-.23,2.88,2.88,0,0,1-.06-.83A6.89,6.89,0,0,1,46,29.23a1.07,1.07,0,0,0,.16-1.06,4.44,4.44,0,0,1,0-2.29C46.25,25.64,46.26,25.32,46.62,25.27Z" transform="translate(-12.75 -0.59)"/><path class="cls-109" d="M72.11,18.24A1.68,1.68,0,0,0,71,19.1c-.34.78-.89,1.46-1.18,2.27,0,.09-.12.16-.16.25-.44,1.1-1,2.15-1.36,3.28a1.84,1.84,0,0,1-.16.41,3.48,3.48,0,0,0-.4,2.21,8.19,8.19,0,0,0-.13,1.64,6.44,6.44,0,0,1-.32,2.13,2.48,2.48,0,0,1-1,1.36,13.43,13.43,0,0,1-1.76,1.12.6.6,0,0,0-.37.51,4.47,4.47,0,0,1-.62,1.59,4.38,4.38,0,0,1-2.13,1.69,1.79,1.79,0,0,1-.89.08c-.38,0-.54-.18-.55-.57,0-.62,0-1.25,0-1.87a.6.6,0,0,1,.17-.4c.12-.16.28-.29.29-.51s.05-.57.28-.78a.07.07,0,0,0,0-.11c.17-.55,0-1.13.13-1.68l0-.62a9.63,9.63,0,0,1,.37-2.71,5.75,5.75,0,0,1,1.19-1.86c.18-.13.3-.33.48-.46.57-.24.77.22,1,.57a6,6,0,0,1,.9,3.49,7.48,7.48,0,0,0,0,.82,5.9,5.9,0,0,0-1.06-4.68,1.36,1.36,0,0,1,.85-1.91c.27-.05.4.15.55.31a5.56,5.56,0,0,1,.7,1,10.32,10.32,0,0,1,.51,1.06,4.49,4.49,0,0,0-1.19-2,.82.82,0,0,1-.06-1.25c.92-1.09,1.84-2.17,2.78-3.23a6.71,6.71,0,0,0,.81-.88,4.76,4.76,0,0,1,2.74-1.93c.54.05.94.2.66.86Z" transform="translate(-12.75 -0.59)"/><path class="cls-2" d="M61.74,38.07c.11.41.24.82.32,1.23a8.83,8.83,0,0,1-.3,5,9.13,9.13,0,0,1-4.34,5.12,6.55,6.55,0,0,1-2.85.82,5.5,5.5,0,0,1-5.4-3.06,7.42,7.42,0,0,1-.84-4.34,9.93,9.93,0,0,1,1.48,1.95c1.1,1.8,2.41,2,4.52,1.6,1-.19,1.29-1.09,1.65-1.88a7.68,7.68,0,0,1,2.19-3.77,1.29,1.29,0,0,1,.47-.34c.28-.16.37-.46.54-.7a2.14,2.14,0,0,1,.48-.55.69.69,0,0,0,.36-.53.36.36,0,0,1,.42-.33A2.78,2.78,0,0,0,61.74,38.07Z" transform="translate(-12.75 -0.59)"/><path class="cls-134" d="M58.64,40.41a6.74,6.74,0,0,1-1.2,1.41,2.49,2.49,0,0,0-.64,1c-.21.61-.48,1.19-.72,1.79-.14,0-.22,0-.16-.16a17.34,17.34,0,0,1,.66-2.12.51.51,0,0,1,.16-.25c.58-.51,1-1.17,1.55-1.7a1.92,1.92,0,0,1,.17-.13Z" transform="translate(-12.75 -0.59)"/><path class="cls-135" d="M60.72,33.51a1.19,1.19,0,0,1-.28.78c0-.13,0-.26-.16-.33.18-.22.06-.51.14-.75Z" transform="translate(-12.75 -0.59)"/><path class="cls-120" d="M67.61,32h-.13c0-.08,0-.17.14-.16Z" transform="translate(-12.75 -0.59)"/><path class="cls-2" d="M62.65,26.59A5.81,5.81,0,0,0,61,30.15a2.54,2.54,0,0,1-.12,1c0-.69,0-1.38,0-2.07a.57.57,0,0,1,.07-.29,2.4,2.4,0,0,0,.24-1.29c0-.64,0-1.29,0-1.93,0-.22,0-.28.29-.3s.28-.11.15-.39a.52.52,0,0,1,.14-.34l.31-.32c1.06-1.12,2.17-2.19,3.17-3.36.81-.94,1.74-1.77,2.56-2.69a11,11,0,0,1,1.46-1.27,3.25,3.25,0,0,1,1.2-.57,1.78,1.78,0,0,1,1.06.23,1.24,1.24,0,0,0,.54.21.89.89,0,0,1,.61.37.55.55,0,0,1-.17.95l-.4.19c0-.53-.11-.66-.66-.74a3.1,3.1,0,0,0-2.39,1.29c-.73,1-1.66,1.9-2.48,2.86-1.24,1.45-2.36,3-3.63,4.41C62.76,26.19,62.81,26.44,62.65,26.59Z" transform="translate(-12.75 -0.59)"/><path class="cls-135" d="M60.87,31.72a5.93,5.93,0,0,1-.13,1.68c0-.43,0-.86,0-1.3A.4.4,0,0,1,60.87,31.72Z" transform="translate(-12.75 -0.59)"/><path class="cls-135" d="M60.44,33.06a.33.33,0,0,1,.13-.31A.3.3,0,0,1,60.44,33.06Z" transform="translate(-12.75 -0.59)"/><path class="cls-34" d="M38.26,70.94a.21.21,0,0,1,.15.15A.19.19,0,0,1,38.26,70.94Z" transform="translate(-12.75 -0.59)"/><path class="cls-107" d="M49.94,89.5a4,4,0,0,0,1.19,0c.19,0,.4,0,.6,0a8.05,8.05,0,0,1,0,1.3c-.47,0-.94,0-1.4-.07a11.14,11.14,0,0,0-1.41.1,7.89,7.89,0,0,1-.63,1,7.34,7.34,0,0,1-.89,1,.76.76,0,0,0-.17,1c.3.8-.51.84-.84,1.21A2,2,0,0,1,44,96.39a16.63,16.63,0,0,0-2.12-.09c-.46-.08-.93-.13-1.4-.17a.89.89,0,0,1-.82-.42,3.94,3.94,0,0,1-.14-.49.67.67,0,0,1,.36-.79l1.2-.81a.83.83,0,0,1,.44,0,10.59,10.59,0,0,0,2.81.13l.15,0a.22.22,0,0,0,.19-.19.2.2,0,0,0-.16-.22,2.22,2.22,0,0,0-.51-.06c-.6,0-1.19,0-1.79,0-.13,0-.25,0-.31-.14.22-.21.51-.34.68-.6l.3-.14c.5.06,1-.14,1.5-.06a8.32,8.32,0,0,1,1.11.1c.07,0,.21,0,.16-.15s-.12-.08-.19-.1a3.41,3.41,0,0,0-.9,0c-.47,0-1,.1-1.38-.21a.35.35,0,0,1,.11-.32.78.78,0,0,0,.24-.56l.06-.18a.75.75,0,0,1,0-.57,2,2,0,0,0,.16-1.06c0-.15,0-.3,0-.45a1.1,1.1,0,0,1,1-.43c.32,0,.64,0,1,0a.77.77,0,0,0,.49-.11H48a1.21,1.21,0,0,1,.65.13,6.7,6.7,0,0,1,.06,1.91c.09-.33,0-.63.24-.86l.43,0c.14.1.32,0,.46.11Z" transform="translate(-12.75 -0.59)"/><path class="cls-136" d="M42.94,93.44h1.3A2.14,2.14,0,0,1,42.94,93.44Z" transform="translate(-12.75 -0.59)"/><path class="cls-137" d="M57.58,89.94a3,3,0,0,0,1.55-.09l.66,0a.27.27,0,0,1,.3.27c0,.19,0,.39,0,.59s0,.2.12.24c.14-.22.06-.48.06-.72s0-.79,0-1.19c0-.24.14-.35.38-.37l1,0,1.62.06a.84.84,0,0,0,.49.11,5.94,5.94,0,0,1,.73,0c.4,0,.59.22.58.62a9.24,9.24,0,0,0,.17,1.3,1.84,1.84,0,0,0,.18.9.38.38,0,0,0,.12.32,4.12,4.12,0,0,1,.28.31.36.36,0,0,0,0,.1c-.63.45-1.34.14-2,.23a1.47,1.47,0,0,0-.59.05c.2.31.51.1.77.15a3.23,3.23,0,0,0,.93-.08,1.82,1.82,0,0,1,1.08.1.32.32,0,0,0,.14,0c.29.26.59.51.89.76-.1.17-.26.08-.4.11a15.26,15.26,0,0,0-1.9.18c.84,0,1.64.37,2.49.15l.27,0a5,5,0,0,1,1.21.63c.17.26.5.28.71.48a1.6,1.6,0,0,1-.2,1.07c-.26.4-.7.35-1.08.44-1.08,0-2.15.21-3.23.19a5,5,0,0,1-1-.06c-.62-.17-.88-.7-1.16-1.21a1.83,1.83,0,0,0-.58-.32.64.64,0,0,1-.39-.9c.18-.43,0-.72-.25-1.06-.44-.64-1.22-1-1.35-1.9a6.19,6.19,0,0,0-2.5-.07,3.24,3.24,0,0,1-.44,0,4,4,0,0,1,0-1C57.14,90,57.35,90,57.58,89.94Z" transform="translate(-12.75 -0.59)"/><path class="cls-137" d="M57.15,92.94l0-.72c.07-.68.07-.69.75-.71s1.38,0,2.08,0a12.76,12.76,0,0,1,1.86,2.09c.25.33-.06.7-.22,1a1.45,1.45,0,0,0-.33.51c-.11.22-.3.38-.41.6-.19.54,0,1.13-.18,1.67a.21.21,0,0,1-.25.11,10.53,10.53,0,0,1-3-1.69.64.64,0,0,1-.14-.48l0-1.17A2.42,2.42,0,0,0,57.15,92.94Z" transform="translate(-12.75 -0.59)"/><path class="cls-138" d="M61.47,94.6c.1-.27.31-.53.28-.82s-.33-.47-.51-.7c-.41-.55-.93-1-1.29-1.59l.17-.15A11.11,11.11,0,0,0,61,92.42c.33.3.58.67.89,1a.52.52,0,0,1,.11.66,2.62,2.62,0,0,0-.19.49.23.23,0,0,0,.12.31c.3.17.61.32.91.48a.36.36,0,0,1-.18.12A1.25,1.25,0,0,1,61.56,95,.59.59,0,0,1,61.47,94.6Z" transform="translate(-12.75 -0.59)"/><path class="cls-137" d="M51.61,94c0,.44,0,.88,0,1.32l-.26.18A9,9,0,0,1,49,96.86a1.42,1.42,0,0,1-.64.2.31.31,0,0,1-.17-.15c-.2-.54,0-1.12-.16-1.67a3.53,3.53,0,0,0-.41-.6,6.07,6.07,0,0,1-.5-.9c-.22-.35,0-.61.18-.87s.69-.65,1-1a1.29,1.29,0,0,1,1.4-.79,11.61,11.61,0,0,1,1.77.12c.25,0,.31.08.31.32s0,.69,0,1l0,.28C51.56,93.19,51.75,93.62,51.61,94Z" transform="translate(-12.75 -0.59)"/><path class="cls-139" d="M49.66,91c-.24.2-.6,0-.83.21s-.24.48-.47.64l-.06,0c-.09,0-.1-.1-.14-.16.13-.28.41-.47.5-.79,0-.1.15-.1.25-.09a.39.39,0,0,0,.32.12C49.38,91,49.52,91,49.66,91Z" transform="translate(-12.75 -0.59)"/><path class="cls-140" d="M47.75,94.63l.37.37a4.24,4.24,0,0,1,.06,1.84c-.06.54-.68.57-1.09.78a3.38,3.38,0,0,1-1.38.06c-1.9,0-3.81,0-5.7-.16A2.91,2.91,0,0,1,39,97.4a.94.94,0,0,0-.1-.1,1.11,1.11,0,0,1-.46-.74,4.3,4.3,0,0,1,.17-1.47.24.24,0,0,1,.18-.16l.5-.07c.11.31,0,.72.44.85A3.43,3.43,0,0,0,40.9,96c.3,0,.59.08.88.12.79.24,1.61-.06,2.39.16a2.29,2.29,0,0,0,.74,0A1.25,1.25,0,0,0,46,95.31c0-.17.07-.35.29-.4a1.94,1.94,0,0,0,.8-.36C47.34,94.29,47.55,94.4,47.75,94.63Z" transform="translate(-12.75 -0.59)"/><path class="cls-141" d="M38.74,94.93l-.18.16s0-.09,0-.14A.32.32,0,0,1,38.74,94.93Z" transform="translate(-12.75 -0.59)"/><path class="cls-102" d="M59.53,98.23h-.15a.38.38,0,0,0-.3-.17c-.12-.26-.36-.27-.6-.3l0,0h0a.89.89,0,0,0-.5-.3.71.71,0,0,0-.45-.29c0-.09,0-.16-.17-.12a.33.33,0,0,1,.31-.2.31.31,0,0,1,.19,0c.21,0,.42.14.63.2l.62.21.33.15a2.15,2.15,0,0,0,.32.13.76.76,0,0,1,.16.06l.3.14.3.13a.25.25,0,0,1,.11.12c.05.24.13.49-.08.7a.44.44,0,0,0-.31-.13A1.55,1.55,0,0,0,59.53,98.23Z" transform="translate(-12.75 -0.59)"/><path class="cls-142" d="M57.43,95.81l3.13,1.62a.16.16,0,0,1,0,.12s0,.08,0,.08a.36.36,0,0,1-.3.06c-.39-.16-.76-.34-1.14-.53s-.85-.41-1.26-.64c-.17-.1-.31-.16-.45,0-.17-.09-.17-.26-.14-.42A1.79,1.79,0,0,1,57.43,95.81Z" transform="translate(-12.75 -0.59)"/><path class="cls-143" d="M57.44,96.55s0-.09,0-.14,0-.26.21-.18c.51.24,1,.5,1.52.75l.06,0c0,.14,0,.19-.16.21s-.44-.18-.69-.16a1,1,0,0,0-.47-.16c-.09-.09-.23-.12-.31-.23Z" transform="translate(-12.75 -0.59)"/><path class="cls-144" d="M57.59,96.68a.49.49,0,0,1,.34.15c0,.08-.11.09-.19,0l-.16,0S57.59,96.72,57.59,96.68Z" transform="translate(-12.75 -0.59)"/><path class="cls-145" d="M67.19,94a.57.57,0,0,1-.41.14h-2.1a1.53,1.53,0,0,1-.3,0,.22.22,0,0,1-.19-.2.21.21,0,0,1,.14-.23.89.89,0,0,1,.35-.11c.58,0,1.15,0,1.72,0a.5.5,0,0,1,.2.08c-.13,0-.3,0-.39.14s.13.18.4.18Z" transform="translate(-12.75 -0.59)"/><path class="cls-146" d="M48.9,89.37l-.17,1.12c-.19-.09-.15-.22-.15-.31,0-.62,0-1.24,0-1.86h.14V89A.4.4,0,0,0,48.9,89.37Z" transform="translate(-12.75 -0.59)"/><path class="cls-147" d="M47.39,98.65a.26.26,0,0,0-.21.12c-.16,0-.26.13-.39.2s-.43.07-.59.24l-.3.06a3.88,3.88,0,0,1-1.36,0l-1.15-.06c-.46-.13-.94,0-1.4-.1l-.62,0h0c-.26-.15-.57,0-.84-.13s-.81,0-1.19-.17c0,0-.1-.13-.16-.15a.63.63,0,0,1-.45-.67c0-.13,0-.25,0-.37a.17.17,0,0,1,.17-.07c.19.07.34.2.52.26a1.9,1.9,0,0,0,.58.09l.31,0a1.6,1.6,0,0,0,1,0,10.28,10.28,0,0,1,2,0,2.16,2.16,0,0,0,.84.11h.69a4.42,4.42,0,0,0,2-.16.6.6,0,0,1,.19-.06,3.58,3.58,0,0,0,.45-.09l.16,0a.51.51,0,0,1,.17,0h.09a.66.66,0,0,1,.15.75A1.43,1.43,0,0,0,47.39,98.65Z" transform="translate(-12.75 -0.59)"/><path class="cls-97" d="M50.31,97.42l-.22,0c-.14,0-.2.11-.3.17a1.05,1.05,0,0,0-.46.23.88.88,0,0,1-.6.23l-.14,0c-.16.06-.27,0-.28-.16s0-.24,0-.35,0-.07,0-.1a.81.81,0,0,1,.12-.14,2.26,2.26,0,0,1,.42-.19l.34-.11.41-.14.31-.14c.14-.05.27-.09.4-.15l.16-.06.33-.1a.5.5,0,0,1,.34,0c.16,0,.35-.16.45.1a.51.51,0,0,0-.3.26A.46.46,0,0,0,51,97,1.54,1.54,0,0,0,50.31,97.42Z" transform="translate(-12.75 -0.59)"/><path class="cls-148" d="M47.05,97.44c.12-.14.31-.14.47-.2.62-.22.62-.22.61-.9,0-.45,0-.89,0-1.34a.43.43,0,0,1,.19.44c0,.52,0,1,0,1.54a.39.39,0,0,1,.07.42.54.54,0,0,1-.1.2h0l-.19-.21a.16.16,0,0,0-.24,0,.51.51,0,0,1-.47.2A.41.41,0,0,1,47.05,97.44Z" transform="translate(-12.75 -0.59)"/><path class="cls-149" d="M47.4,97.47l.46-.06v.2h0a.79.79,0,0,1-.23.14h0a.64.64,0,0,1-.43.07.16.16,0,0,1-.13-.15C47.1,97.49,47.3,97.57,47.4,97.47Z" transform="translate(-12.75 -0.59)"/><path class="cls-150" d="M48.73,98.09l.6-.23V98L49,98.2l-.27,0S48.74,98.14,48.73,98.09Z" transform="translate(-12.75 -0.59)"/><path class="cls-151" d="M61.63,94.92a2,2,0,0,0,1,.46c.4.37.45,1.05,1.08,1.22a10,10,0,0,0,3.19-.09,5.4,5.4,0,0,0,1.39-.11l.89-.24c.32-.08.37-.33.41-.61s.06-.32.42-.21l.14,0c.1.14.21.28.31.43,0,.31,0,.63,0,.94a1.33,1.33,0,0,1-.14.71l-.06.14a.46.46,0,0,1-.35.32c-.76.13-1.54-.09-2.3,0-1.67.27-3.36,0-5,.21a1,1,0,0,1-.25,0c-2-.68-1.77-.41-1.61-2.72a1.22,1.22,0,0,0,.4-.35C61.28,95,61.38,94.72,61.63,94.92Z" transform="translate(-12.75 -0.59)"/><path class="cls-152" d="M38.86,97.64l-.18,0-.12-.16a.28.28,0,0,1,.29-.15h0A.25.25,0,0,1,38.86,97.64Z" transform="translate(-12.75 -0.59)"/><path class="cls-100" d="M61.62,99.13l-.15-.08a.59.59,0,0,0-.43-.21l-.16,0v-.55A.24.24,0,0,1,61,98a3,3,0,0,1,1.17.3l.18.08a3,3,0,0,0,.94,0h1.26a2.05,2.05,0,0,0,.82-.09l.25,0c.73,0,1.45,0,2.18,0h1.08c.36-.05.73-.13,1.09-.2a.29.29,0,0,1,.22,0,1,1,0,0,1-.38,1,4,4,0,0,1-1.22.31.26.26,0,0,0-.24,0c-.18.14-.39,0-.58.08a2.57,2.57,0,0,0-.83,0h0l-.05,0-.45,0a3.87,3.87,0,0,0-1.55.11l-.39,0H63l0,0h0l-1-.41C61.83,99.21,61.75,99.12,61.62,99.13Z" transform="translate(-12.75 -0.59)"/><path class="cls-153" d="M62.23,98.5A5.56,5.56,0,0,1,61,98c-.13-.19-.32-.1-.5-.11a.21.21,0,0,1-.1,0,.08.08,0,0,1-.06-.12.75.75,0,0,1,.2-.15l0-.18V95.89a.47.47,0,0,1,.18-.45c0,.47.07.93,0,1.4s.05.58.47.72a6.17,6.17,0,0,1,1.16.48C62.41,98.22,62.47,98.41,62.23,98.5Z" transform="translate(-12.75 -0.59)"/><path class="cls-154" d="M68.77,94.5l0,.06h0S68.72,94.51,68.77,94.5Z" transform="translate(-12.75 -0.59)"/><path class="cls-155" d="M51.61,94a2.31,2.31,0,0,1,.11-1.22V94h-.11Z" transform="translate(-12.75 -0.59)"/><path class="cls-156" d="M70.23,98.12l-.21.09a.34.34,0,0,1-.11-.18.3.3,0,0,1,.12-.28l.24-.15.06.3Z" transform="translate(-12.75 -0.59)"/><path class="cls-157" d="M44.54,99.28H45.9a.49.49,0,0,0,0,.12H44.55S44.54,99.32,44.54,99.28Z" transform="translate(-12.75 -0.59)"/><path class="cls-158" d="M51.41,96.24l-.26.07c-.13.12-.31.17-.44.28s-.24,0-.32.12h0c-.11.09-.25.06-.38.08a1,1,0,0,0-.27.13l-.2,0a.26.26,0,0,1-.25-.16,4.69,4.69,0,0,1,2.16-1.13C51.66,95.88,51.53,96.06,51.41,96.24Z" transform="translate(-12.75 -0.59)"/><path class="cls-159" d="M51.46,95.67a1.69,1.69,0,0,1-.58.3,7.48,7.48,0,0,0-1.59.88.28.28,0,0,1-.38.06.13.13,0,0,1,0-.11s0-.06,0-.06a22.69,22.69,0,0,1,2.41-1.22Z" transform="translate(-12.75 -0.59)"/><path class="cls-160" d="M43.2,91.91l1.5,0c.09,0,.19.07.2.2a.22.22,0,0,1-.13.15c-.48,0-1,.41-1.43-.08l-.3-.29Z" transform="translate(-12.75 -0.59)"/><path class="cls-161" d="M43.34,92.21l.29.07c.13,0,.13,0,.59-.16a.23.23,0,0,1,.14,0l.49.13a.12.12,0,0,1,.17,0,.31.31,0,0,1,0,.19c-.14.09-.33,0-.46.1l-1.33,0a.42.42,0,0,1-.33-.14v0a.17.17,0,0,1,.17,0Z" transform="translate(-12.75 -0.59)"/><path class="cls-50" d="M43.06,92.35h-.17C43,92.24,43,92.26,43.06,92.35Z" transform="translate(-12.75 -0.59)"/><path class="cls-162" d="M42,99.12a4.7,4.7,0,0,1,1.4.1l-.31,0-.33,0-.77,0A.41.41,0,0,0,42,99.12Z" transform="translate(-12.75 -0.59)"/><path class="cls-163" d="M43.64,90.28a1,1,0,0,1,0,.57.49.49,0,0,1-.06-.55Z" transform="translate(-12.75 -0.59)"/><path class="cls-164" d="M40.49,99a1.13,1.13,0,0,1,.84.13l-.83,0A.34.34,0,0,0,40.49,99Z" transform="translate(-12.75 -0.59)"/><path class="cls-165" d="M67,99.53a1.38,1.38,0,0,1,.8-.11s0,0,0,.07,0,0,0,0l-.36,0Z" transform="translate(-12.75 -0.59)"/><path class="cls-166" d="M67.8,99.53a.22.22,0,0,1,0-.11,1.4,1.4,0,0,1,.61,0,.36.36,0,0,0,0,.1Z" transform="translate(-12.75 -0.59)"/><path class="cls-167" d="M50.67,96.53a.92.92,0,0,1,.48-.22v.15c0,.1-.15.11-.25.11A.14.14,0,0,1,50.67,96.53Z" transform="translate(-12.75 -0.59)"/><path class="cls-168" d="M63.58,92.39l2.2,0,.17,0c0,.14,0,.28,0,.41a.18.18,0,0,1-.24.11,2.3,2.3,0,0,0-.78-.07,2.79,2.79,0,0,1-1,0c.17-.32.38-.25.56-.27a2.65,2.65,0,0,0-.69.06.52.52,0,0,1-.21-.07.17.17,0,0,1-.05-.13S63.57,92.39,63.58,92.39Z" transform="translate(-12.75 -0.59)"/><path class="cls-123" d="M46.62,25.27A4.18,4.18,0,0,0,46.28,28a6,6,0,0,1,.08.74.65.65,0,0,1-.21.54,6.54,6.54,0,0,0-1.44,2.82,5.29,5.29,0,0,0-.17.79c-.4-.12-.19-.39-.16-.61a7,7,0,0,1,.83-2.37,4.12,4.12,0,0,1,.27-.45c.09-.08.18-.17.27-.24a.81.81,0,0,0,.25-.88c-.1-.48-.18-1-.24-1.46A5.25,5.25,0,0,1,46,25.65a2.36,2.36,0,0,1,.15-.58.3.3,0,0,1,.34-.23c.19,0,.18.2.18.35Z" transform="translate(-12.75 -0.59)"/><path class="cls-169" d="M44.69,34a2.4,2.4,0,0,0,.63,1l.37.38a1.15,1.15,0,0,1,.35.88v.22A13.38,13.38,0,0,0,46.17,39a4.51,4.51,0,0,1,0,.82c.06.16,0,.19-.15.17l0-.25c-.1-.15,0-.35-.13-.49a.53.53,0,0,1-.15-.41c0-.22,0-.45,0-.67a.32.32,0,0,0-.33-.33c-.28,0-.55,0-.82,0l-.46-.09c-.08-.08-.22,0-.3-.13a.31.31,0,0,1-.13,0c.07-.34.29-.17.47-.14a.09.09,0,0,1,.11,0c.31.17.66,0,1,.13.45-.08.43-.08.47-.41A2.11,2.11,0,0,0,45,35.06a3.18,3.18,0,0,1-.46-.67c-.1-.07-.06-.21-.15-.28v-.3c.05-.07.09-.07.14,0h0Z" transform="translate(-12.75 -0.59)"/><path class="cls-170" d="M40.05,33.07l.15-.16a3.25,3.25,0,0,0,1.5.58c.36.06.43.13.46.46a2.9,2.9,0,0,1,0,.51,2.21,2.21,0,0,0,.5,1.66,1.18,1.18,0,0,1,.11.19c0,.17,0,.22-.18.2a2.38,2.38,0,0,1-.88-1.8c0-.12,0-.24,0-.37,0-.42,0-.42-.42-.54l-.63-.22A1.06,1.06,0,0,1,40.05,33.07Z" transform="translate(-12.75 -0.59)"/><path class="cls-171" d="M42.59,36.51l.18-.2c.12.12.25.23.36.36a2.47,2.47,0,0,0,1,.72c-.16,0-.35,0-.47.15A3.88,3.88,0,0,1,42.59,36.51Z" transform="translate(-12.75 -0.59)"/><path class="cls-172" d="M44.54,33.81H44.4a2,2,0,0,1,0-1.52c.06.2-.06.45.16.61Z" transform="translate(-12.75 -0.59)"/><path class="cls-171" d="M45.21,37.54h-.65a.4.4,0,0,1-.32-.14A2,2,0,0,1,45.21,37.54Z" transform="translate(-12.75 -0.59)"/><path class="cls-172" d="M44.4,34.11a.29.29,0,0,1,.15.28A.26.26,0,0,1,44.4,34.11Z" transform="translate(-12.75 -0.59)"/><path class="cls-2" d="M49.79,89.5a.51.51,0,0,1-.46-.11C49.49,89.37,49.66,89.34,49.79,89.5Z" transform="translate(-12.75 -0.59)"/><path class="cls-131" d="M41.4,56.72l.9-1a8.83,8.83,0,0,0,1.2-1.32,2.67,2.67,0,0,1,.47-.48,1,1,0,0,1,.24-.13c.07.5,0,1,0,1.43a6,6,0,0,0,.32,2.35,1.18,1.18,0,0,1-.26,1.23,3.58,3.58,0,0,0-.63,1.65.26.26,0,0,0,0,.15c.24.44,0,.68-.33.94a8.63,8.63,0,0,0-1.16,1.26s-.08,0-.17,0a2.85,2.85,0,0,1,0-1.09,4.13,4.13,0,0,0-.15-2c-.2-.8-.33-1.6-.46-2.41A5,5,0,0,1,41.4,56.72Z" transform="translate(-12.75 -0.59)"/><path class="cls-173" d="M47,57.61c-.26.53-.43.58-.89.28l-.19-.12-.41,0a1.28,1.28,0,0,0-.13-.92,6.61,6.61,0,0,1-.5-1.62,1.57,1.57,0,0,0-.09-.48l.09-.57c.11-.12.17-.31.36-.34s.28,0,.39.07h0a1.07,1.07,0,0,0,.16.14h0c.06.06.17.08.17.19A12.52,12.52,0,0,1,46.84,57c0,.09.08.18.11.27a.35.35,0,0,1,.08.16A.25.25,0,0,1,47,57.61Z" transform="translate(-12.75 -0.59)"/><path class="cls-174" d="M45,55.09a16.2,16.2,0,0,0,.87,2.39c-.07.19-.3.09-.35.26s-.23.2-.44.14a5.33,5.33,0,0,1-.33-2.66C44.76,55.12,44.83,55.05,45,55.09Z" transform="translate(-12.75 -0.59)"/><path class="cls-175" d="M45.6,53.88h-.38c-.12,0-.24.1-.36,0C45.18,53.64,45.26,53.64,45.6,53.88Z" transform="translate(-12.75 -0.59)"/><path class="cls-176" d="M45,55.09l-.25.13a1,1,0,0,1,0-.5C44.9,54.81,45,54.91,45,55.09Z" transform="translate(-12.75 -0.59)"/><path class="cls-177" d="M44.86,53.89h.36a.72.72,0,0,1-.37.27C44.82,54.06,44.79,54,44.86,53.89Z" transform="translate(-12.75 -0.59)"/><path class="cls-178" d="M45.91,54.21,45.74,54a.22.22,0,0,1,.26.15A.08.08,0,0,1,45.91,54.21Z" transform="translate(-12.75 -0.59)"/><path class="cls-179" d="M45.75,54a.17.17,0,0,1-.16-.14C45.68,53.88,45.75,53.92,45.75,54Z" transform="translate(-12.75 -0.59)"/><path class="cls-180" d="M71.23,57.18a.75.75,0,0,1-.18.55c-.15.14-.3.2-.46.08a2,2,0,0,0-1.27-.33c-.92,0-1.84,0-2.76,0a19.25,19.25,0,0,0-2.13.23c-.36.06-.73.09-1.1.14a9.48,9.48,0,0,1-2,.22c-.23,0-.52.25-.62-.18a3.34,3.34,0,0,1,1.09-.2c1.5-.22,3-.44,4.5-.63a20.54,20.54,0,0,1,2.83,0l1.41,0c.23,0,.32-.07.35-.29.11-.82.22-1.63.31-2.44a11.54,11.54,0,0,1,.16-1.18c.45.1.29.48.36.76a10.91,10.91,0,0,1-.29,3A1.24,1.24,0,0,1,71.23,57.18Z" transform="translate(-12.75 -0.59)"/><path class="cls-123" d="M47,57.61a.23.23,0,0,1,.14-.3,3.44,3.44,0,0,1,2.94.18,7.49,7.49,0,0,0,2.25.72c.23.21.51.15.78.16a2,2,0,0,1,1.09.23,1.78,1.78,0,0,1-.71.22A5.77,5.77,0,0,1,49.91,58a4,4,0,0,0-1.47-.47.58.58,0,0,0-.29,0A3.91,3.91,0,0,1,47,57.61Z" transform="translate(-12.75 -0.59)"/><path class="cls-9" d="M54.42,46.53c-.14,0-.29,0-.43.09a4.64,4.64,0,0,1-2.19,0,2.59,2.59,0,0,1-1.69-1.12,13.19,13.19,0,0,0-1.23-1.66,6.79,6.79,0,0,1-.55-1c-.1-.22-.34-.35-.37-.61s0-.2.17-.19a4.37,4.37,0,0,1,.7,1.05,4.08,4.08,0,0,0,.69,1c.26.33.51.66.75,1a2.83,2.83,0,0,0,1.49,1.18,2.23,2.23,0,0,0,.72.13h1.64C54.28,46.32,54.44,46.24,54.42,46.53Z" transform="translate(-12.75 -0.59)"/><path class="cls-181" d="M71.53,53.9c-.06-.26.08-.55-.16-.77,0-.39,0-.79.07-1.19a20,20,0,0,0,.07-2.45c0-1.06,0-2.13,0-3.19,0-.27,0-.54,0-.82s0-.47.07-.7,0-.25.21-.18a1.15,1.15,0,0,1,.24.91c0,2.53.13,5.06-.16,7.58C71.86,53.4,72,53.77,71.53,53.9Z" transform="translate(-12.75 -0.59)"/><path class="cls-123" d="M60.72,57.9c.16.24.41.15.62.18-.22.21-.5.12-.77.13a4.43,4.43,0,0,0-1.26-.05,1.52,1.52,0,0,1,.84.07.56.56,0,0,1-.41.13h-.82a16.34,16.34,0,0,0-3.28,0h-1a.49.49,0,0,1-.48-.27c.65,0,1.3,0,1.94,0,1.42,0,2.84-.17,4.26-.18Z" transform="translate(-12.75 -0.59)"/><path class="cls-182" d="M48.13,42.05l-.17.19a3.63,3.63,0,0,0-.88-.63,1.78,1.78,0,0,1-1-1.66l.15-.17c0,.07.11.12.11.19a2.08,2.08,0,0,0,1.16,1.52C47.72,41.65,48,41.75,48.13,42.05Z" transform="translate(-12.75 -0.59)"/><path class="cls-182" d="M45.9,39.21c.19.12.15.31.13.49Z" transform="translate(-12.75 -0.59)"/><path class="cls-2" d="M47.11,57.31l-.15.17v-.19Z" transform="translate(-12.75 -0.59)"/><path class="cls-183" d="M40.19,53.28c-.45.33-.92.66-1.36,1-.22.18-.5.19-.73.34-.24,0-.28-.19-.26-.37.25-2.5,0-5,.11-7.51a1.83,1.83,0,0,1,.14-.95A3.66,3.66,0,0,1,38,44.07c0-.1.09-.19.08-.28,0-.74.24-1.45.17-2.19l.11,0c.25.17.24.46.34.71.08.5.14,1,.24,1.52.38,2.22.67,4.45.93,6.68A21.86,21.86,0,0,0,40.19,53.28Z" transform="translate(-12.75 -0.59)"/><path class="cls-184" d="M39.74,58.68a1.61,1.61,0,0,1-.58.58l-.62.41A1.32,1.32,0,0,0,38,60.89a3.81,3.81,0,0,0,.08.59,26.24,26.24,0,0,1,.54,3.31c.08.89.19,1.77.3,2.66,0,.17.08.34.11.51s.11.33-.1.37-.16-.15-.19-.26a3.85,3.85,0,0,1-.13-.66c0-.65-.13-1.29-.19-1.93a22.26,22.26,0,0,0-.5-3.24c-.09-.39-.16-.78-.24-1.17s0-.6,0-.9-.13-.29,0-.44A2.48,2.48,0,0,0,38.92,59a1.29,1.29,0,0,1,.47-.36A.4.4,0,0,1,39.74,58.68Z" transform="translate(-12.75 -0.59)"/><path class="cls-185" d="M38.09,45.81V53.2A3.79,3.79,0,0,1,38,54.31a.29.29,0,0,0,.1.33.33.33,0,0,1-.32.13,1,1,0,0,1-.08-.8,3.13,3.13,0,0,0,.09-1c0-2.07,0-4.13,0-6.2,0-.22,0-.45,0-.67A.35.35,0,0,1,38.09,45.81Z" transform="translate(-12.75 -0.59)"/><path class="cls-186" d="M40.51,57.92V62.7c0,1,0,2,0,2.92a2.94,2.94,0,0,1-.05.51s-.06.06-.1.08a.09.09,0,0,1-.12-.06,1.33,1.33,0,0,1,0-.59c0-1.3,0-2.59,0-3.89,0-1.09,0-2.19,0-3.28,0-.15,0-.3,0-.45s-.05-.48.2-.48S40.47,57.76,40.51,57.92Z" transform="translate(-12.75 -0.59)"/><path class="cls-187" d="M38.24,40.39c0,.16,0,.33.14.45.24.3.07.53-.12.76h0A1.17,1.17,0,0,1,38.24,40.39Z" transform="translate(-12.75 -0.59)"/><path class="cls-188" d="M37.67,59.73c0,.15.21.28,0,.44a.66.66,0,0,0-.15-.14c-.17-.09-.09-.17,0-.25Z" transform="translate(-12.75 -0.59)"/><path class="cls-171" d="M43.79,37.56a.3.3,0,0,1,.3.13A.3.3,0,0,1,43.79,37.56Z" transform="translate(-12.75 -0.59)"/><path class="cls-189" d="M40.19,53.28a.89.89,0,0,1-.31-.56L39.73,51c-.11-1.11-.19-2.22-.38-3.33s-.33-2.15-.48-3.23a4.93,4.93,0,0,1,0-.67c0-.18-.21-.41.15-.47.12.76.23,1.52.36,2.28a18.5,18.5,0,0,1,.42,3.32c0,.07.06.13.09.2.12,1.22.25,2.45.37,3.68,0,.18.08.27.27.26A.5.5,0,0,1,40.19,53.28Z" transform="translate(-12.75 -0.59)"/><path class="cls-190" d="M38.26,41.6l.12-.76.18-.73c0-.06.06-.15.15-.16s.27.07.27.21a16.29,16.29,0,0,1,0,2.21c0,.05-.05.08-.08.12a1.44,1.44,0,0,1-.24-1c-.14.16.16.47-.1.67a.36.36,0,0,1-.14-.3A.35.35,0,0,0,38.26,41.6Z" transform="translate(-12.75 -0.59)"/><path class="cls-191" d="M38.54,42.2c0-.3,0-.6,0-.9,0-.13.09-.23.15-.18a.18.18,0,0,1,.06.2c-.13.41.14.78.12,1.17s.12.5.11.76c-.17.12-.12.31-.15.47,0-.08-.12-.17-.12-.25A8.83,8.83,0,0,0,38.54,42.2Z" transform="translate(-12.75 -0.59)"/><path class="cls-192" d="M38.71,40l-.15.16a.31.31,0,0,1,.13-.31Z" transform="translate(-12.75 -0.59)"/><path class="cls-125" d="M37.78,25.27a.27.27,0,0,1-.11-.23A.27.27,0,0,1,37.78,25.27Z" transform="translate(-12.75 -0.59)"/><path class="cls-130" d="M37.46,24.38a.15.15,0,0,1-.1-.16A.14.14,0,0,1,37.46,24.38Z" transform="translate(-12.75 -0.59)"/><path class="cls-131" d="M71.53,53.9a.77.77,0,0,0,.13-.49,80.1,80.1,0,0,0,.15-8c0-.27.06-.55-.13-.79a1.17,1.17,0,0,1,0-1.16c0-.22,0-.44,0-.66a.54.54,0,0,1,.13-.4,3.6,3.6,0,0,1,.68,1.86c.39,1.67.4,3.4.76,5.08.3,1.44.45,2.9.68,4.34A4.27,4.27,0,0,1,73.48,56a1.93,1.93,0,0,1-2,1.09.27.27,0,0,1-.26-.24A15.55,15.55,0,0,0,71.53,53.9Z" transform="translate(-12.75 -0.59)"/><path class="cls-193" d="M71.38,57a2.5,2.5,0,0,0,1-.21,1.63,1.63,0,0,0,1-1.05,14.26,14.26,0,0,0,.36-1.6,1.47,1.47,0,0,0,0-.59c-.21-.85-.23-1.72-.4-2.58-.11-.58-.21-1.17-.31-1.75-.15-.76-.24-1.52-.33-2.29a22,22,0,0,0-.83-4.31,2.47,2.47,0,0,1-.06-.29l0-.22c0-.1.06-.2.18-.21s.22.08.25.21A30.83,30.83,0,0,1,73,45.4c.09.64.12,1.29.19,1.93s.14,1,.22,1.47.27,1.26.35,1.9c.05.42.11.84.15,1.26,0,.64.19,1.27.28,1.91a5,5,0,0,1-.3,1.9,1.81,1.81,0,0,1-.76,1.07,1.93,1.93,0,0,1-1.75.34.12.12,0,0,1,0-.12A.07.07,0,0,1,71.38,57Z" transform="translate(-12.75 -0.59)"/><path class="cls-194" d="M71.65,43.41l0,1.16c0,.19,0,.39,0,.59a.38.38,0,0,1-.13.32c-.06-.76-.11-1.52-.19-2.29a2.42,2.42,0,0,0-.89-1.57,3.42,3.42,0,0,1-.7-1,.56.56,0,0,1,0-.22.23.23,0,0,1,.13-.24.27.27,0,0,1,.28,0,1.37,1.37,0,0,1,.19.23,4.62,4.62,0,0,0,.91,1.16.58.58,0,0,1,.13.34,4.51,4.51,0,0,1,.16,1.16A.43.43,0,0,0,71.65,43.41Z" transform="translate(-12.75 -0.59)"/><path class="cls-180" d="M55.64,58.36a.4.4,0,0,1,.32-.14H58.6a.39.39,0,0,1,.32.14Z" transform="translate(-12.75 -0.59)"/><path class="cls-180" d="M60.15,58.23a3.55,3.55,0,0,1-.92-.09,3.78,3.78,0,0,1,1.16,0c.07,0,.12.07.18.11Z" transform="translate(-12.75 -0.59)"/><path class="cls-195" d="M63.56,60.93c.12,0,.24,0,.3-.16a.42.42,0,0,1,.45.29C64.06,61.05,63.79,61.13,63.56,60.93Z" transform="translate(-12.75 -0.59)"/><path class="cls-196" d="M71.38,57l0,.16h-.13l0-.31Z" transform="translate(-12.75 -0.59)"/><path class="cls-10" d="M49.16,33.94l.45-.25a1.73,1.73,0,0,0-.44-.78.84.84,0,0,0-1.11-.3,2.68,2.68,0,0,0-1.22,1c-.11.13-.2.27-.31.41a.11.11,0,0,1-.17-.12,2.46,2.46,0,0,1,1.85-1.55,1.28,1.28,0,0,1,1.25.51c.53.72,1,1.46,1.53,2.2a.59.59,0,0,1,.12.27c.13.8.8.85,1.38,1a.42.42,0,0,0,.35-.1,1.38,1.38,0,0,1,.45-.26c.46-.08.65-.4.82-.77a6.78,6.78,0,0,1,1.15-1.65,2.76,2.76,0,0,1,1.7-1,1.57,1.57,0,0,1,1.64,1.21.19.19,0,0,1-.07.12.23.23,0,0,1-.14,0c-.12-.05-.17-.18-.24-.28a1.17,1.17,0,0,0-1.84-.42l-.24.17s0,0,0,.09l.23.16a1.33,1.33,0,1,1-1.74,2c-.08-.06-.16-.11-.26,0a.21.21,0,0,0,0,.32A7.55,7.55,0,0,1,55.49,38a.12.12,0,0,1,0,.12s0,.07,0,.07a.28.28,0,0,1-.29-.08L55,37.86a4.38,4.38,0,0,1-.73-1,.69.69,0,0,0-1-.32,1.9,1.9,0,0,1-2,0,2.27,2.27,0,0,0-.72-.2.39.39,0,0,1-.23-.21c.23-1.15-.05-1.69-1-1.89A.33.33,0,0,1,49.16,33.94Z" transform="translate(-12.75 -0.59)"/><path class="cls-197" d="M50.35,36l.19.17a7.42,7.42,0,0,1,0,.82,2.53,2.53,0,0,1-.37,1.78,1,1,0,0,0,.23,1.39,1.2,1.2,0,0,0,1.59,0c.08-.13.15-.27.33-.25.32.31.54.39.55-.19,0-.4,0-.8,0-1.2a1.32,1.32,0,0,1,.64-1.12.51.51,0,0,1,.69,0c.24.24.1.45-.08.65a2.38,2.38,0,0,0-.56,1.73c0,.62.26.76.81.51a1.67,1.67,0,0,0,1.07-2.15l0-.19c.9.73.87.69.38,1.8a1.07,1.07,0,0,1-.42.5c-.26.16-.48.36-.73.52a1.4,1.4,0,0,1-1.19.23,3.83,3.83,0,0,0-.59-.1c-.07,0-.18,0-.21,0-.32.28-.72.15-1.06.19a2.19,2.19,0,0,1-2-.7A1.31,1.31,0,0,1,49.42,39a1.83,1.83,0,0,1,.44-.85.73.73,0,0,0,.23-.6c0-.18,0-.35,0-.53,0-.42,0-.42-.47-.58a1.66,1.66,0,0,1-1.11-1.2,1.26,1.26,0,0,1,.12-.86.7.7,0,0,1,.54-.47l.18.16c.06.1,0,.18,0,.28-.4.95-.25,1.25.78,1.52A.5.5,0,0,1,50.35,36Z" transform="translate(-12.75 -0.59)"/><path class="cls-198" d="M51.68,43.2a1.73,1.73,0,0,1-.08-.83c.21,0,.21.19.36.22s.29-.05.43-.08a4.72,4.72,0,0,1,1.4-.18.64.64,0,0,0,.56-.15c.07-.08.13-.24.27-.13a.39.39,0,0,1,.11.27,2.32,2.32,0,0,1,0,.37c0,.15-.13.23-.25.13a.66.66,0,0,0-.62-.11A12.6,12.6,0,0,0,51.68,43.2Z" transform="translate(-12.75 -0.59)"/><path class="cls-199" d="M54.42,46.53a.32.32,0,0,0-.3-.15c.27-.21.63-.25.9-.48a1.2,1.2,0,0,0,.44-.56,2.61,2.61,0,0,1,.46-.91l.16.16a4.72,4.72,0,0,0-.27.61,1.77,1.77,0,0,1-1.11,1.21Z" transform="translate(-12.75 -0.59)"/><path class="cls-172" d="M44.69,34l-.14-.15Z" transform="translate(-12.75 -0.59)"/><path class="cls-200" d="M62.81,26A6.3,6.3,0,0,1,64,24.5a7.28,7.28,0,0,0,.88-1.11,4.78,4.78,0,0,1,1-1.21,12.9,12.9,0,0,0,1.55-1.92,2.46,2.46,0,0,1,.58-.58,4.32,4.32,0,0,0,1.14-1.27,2,2,0,0,1,1.25-.87l.57-.18a.52.52,0,0,1,.49.13,2.67,2.67,0,0,1-1.13.56,1.48,1.48,0,0,0-.78.53c-.81,1.08-1.87,1.94-2.64,3.06a2.38,2.38,0,0,1-.4.44,9.62,9.62,0,0,0-1.56,2,5.39,5.39,0,0,0,.68.85A5.1,5.1,0,0,1,66.7,27a.22.22,0,0,1-.08.19.18.18,0,0,1-.26,0,1.32,1.32,0,0,1-.26-.53,4.17,4.17,0,0,0-.89-1.54,7.48,7.48,0,0,1-.5-.68,5.64,5.64,0,0,0-1.15,1.2.77.77,0,0,0,.23.44,5.75,5.75,0,0,1,1.3,3.73c0,.43,0,.85,0,1.27a.51.51,0,0,1-.15.41.17.17,0,0,1-.2.06.19.19,0,0,1-.1-.1c0-.12,0-.24,0-.36,0-.5,0-1,0-1.5a6.06,6.06,0,0,0-1.21-3.32c-.14-.2-.28-.16-.43,0S62.79,26.18,62.81,26Z" transform="translate(-12.75 -0.59)"/><path class="cls-201" d="M62.81,26l.18.15c-.08.17-.14.34-.34.41C62.69,26.4,62.61,26.17,62.81,26Z" transform="translate(-12.75 -0.59)"/><path class="cls-202" d="M45.05,90.69c-.19,0-.38.07-.5-.14a4.59,4.59,0,0,0,.07-1.43c.23-.37.57-.28.9-.23a13.27,13.27,0,0,0,1.41,0c.87,0,.93.07.91.92a.88.88,0,0,1-.06.36c-.24.35-.63.14-.93.25C46.26,90.63,45.63,90.44,45.05,90.69Z" transform="translate(-12.75 -0.59)"/><path class="cls-203" d="M44.54,94.61c.11.06.14.14,0,.23a.48.48,0,0,1-.35.08l-2.65-.16a.84.84,0,0,1-.66-.28c0-.15,0-.21.17-.16h0a.12.12,0,0,0,.17,0,12.4,12.4,0,0,1,3.1.18.58.58,0,0,1,.18.11c0,.06-.13,0-.2.09A.29.29,0,0,0,44.54,94.61Z" transform="translate(-12.75 -0.59)"/><path class="cls-204" d="M47.66,90.26c0-.3,0-.59,0-.88s-.09-.31-.32-.32c-.39,0-.79,0-1.18,0a1.28,1.28,0,0,1-.79-.12c.17-.19.44,0,.62-.15l1.42,0a.49.49,0,0,1,.53.32,3.36,3.36,0,0,0-.07,1C47.9,90.18,47.88,90.33,47.66,90.26Z" transform="translate(-12.75 -0.59)"/><path class="cls-205" d="M48.16,91.77l.14.16c-.35.41-.69.84-1,1.24-.18.19-.09.36,0,.55s-.05.16-.14.18-.12-.21-.19-.31a.38.38,0,0,1,0-.47l.92-1Z" transform="translate(-12.75 -0.59)"/><path class="cls-206" d="M45.05,90.69c-.08-.22,0-.3.1-.3h1.61c.17,0,.41-.2.47.16A14.51,14.51,0,0,1,45.05,90.69Z" transform="translate(-12.75 -0.59)"/><path class="cls-207" d="M45,92.22h-.15v-.14a1.1,1.1,0,0,1,.78,0h.22a.29.29,0,0,1,.27.21c0,.14-.09.21-.2.26a.92.92,0,0,1-.57.09c-.26,0-.53-.08-.79-.12.11-.16.29-.11.45-.14s.52,0,.78-.13c.06,0-.09-.08,0,0s0,.06,0,.06A1.52,1.52,0,0,1,45,92.22Z" transform="translate(-12.75 -0.59)"/><path class="cls-207" d="M47.23,90.55c-.12-.17-.31-.11-.47-.16a1.85,1.85,0,0,1,.9-.13c.19-.09.17-.27.18-.43s-.09-.54.14-.75c0,.34,0,.68,0,1s-.09.46-.49.47Z" transform="translate(-12.75 -0.59)"/><path class="cls-208" d="M47.07,93.9l.14-.18c.08.15.12.34.28.42s.21.3.26.49c-.23-.06-.44-.16-.67,0a1,1,0,0,1-.81.26l.55-.32C47.18,94.38,47.18,94.38,47.07,93.9Z" transform="translate(-12.75 -0.59)"/><path class="cls-209" d="M46,88.79c-.17.2-.41.09-.61.15s-.59,0-.74.28c0,.06-.06.16-.15.18-.13-.38-.07-.57.23-.62A4.91,4.91,0,0,1,46,88.79Z" transform="translate(-12.75 -0.59)"/><path class="cls-210" d="M44.17,96.26H42.41a1,1,0,0,1-.63-.16l2,0A.6.6,0,0,1,44.17,96.26Z" transform="translate(-12.75 -0.59)"/><path class="cls-209" d="M44.53,89.4l.15-.18a2.91,2.91,0,0,1,0,1.1c0,.11-.05.19-.16.23Z" transform="translate(-12.75 -0.59)"/><path class="cls-161" d="M45.63,92l-.78,0-.15-.13A1.49,1.49,0,0,1,45.63,92Z" transform="translate(-12.75 -0.59)"/><path class="cls-211" d="M41.09,94.32l-.17.16c-.09-.07-.13-.16,0-.24S41.05,94.22,41.09,94.32Z" transform="translate(-12.75 -0.59)"/><path class="cls-211" d="M41.26,94.32c-.06.1-.11.11-.17,0Z" transform="translate(-12.75 -0.59)"/><path class="cls-212" d="M64.32,91a.34.34,0,0,1-.31.17H61.88c-.09,0-.17-.08-.25-.12.1-.15.26-.15.42-.16.45,0,.89,0,1.34,0H61.62c-.4,0-.6-.17-.59-.58s-.11-.76.33-1c.93,0,1.85,0,2.77,0,.31.27.11.59.12.89A1.62,1.62,0,0,0,64.32,91Z" transform="translate(-12.75 -0.59)"/><path class="cls-213" d="M68.29,96.4c-.07,0-.13.1-.2.1-.66.07-1.32.15-2,.2a9.22,9.22,0,0,0-1.48.11,1.43,1.43,0,0,1-1.05-.25.12.12,0,0,1,.18,0c.39,0,.77.19,1.16,0,1,0,2-.14,3-.19A2.23,2.23,0,0,1,68.29,96.4Z" transform="translate(-12.75 -0.59)"/><path class="cls-214" d="M61.15,90.26c.11.41.11.42.38.43.6,0,1.2,0,1.8,0,.19,0,.4-.06.56.12-.59.22-1.21,0-1.8.14l-.46,0c-.2-.08-.45.06-.61-.15s-.05-.22-.12-.31V90C61.18,89.9,61.05,90.19,61.15,90.26Z" transform="translate(-12.75 -0.59)"/><path class="cls-215" d="M65.22,94.89a1.65,1.65,0,0,1,1-.13.14.14,0,0,1,0,.11s0,.06,0,.06A.45.45,0,0,1,66,95c.23.11.41-.09.62-.12s.69-.08.94.25a.53.53,0,0,1-.34.11l-1.94,0A.23.23,0,0,1,65.22,94.89Z" transform="translate(-12.75 -0.59)"/><path class="cls-216" d="M64.16,89.41l-2.82,0c-.14.06-.16,0-.15-.13a24.71,24.71,0,0,1,3,0,.13.13,0,0,1,0,.12S64.17,89.41,64.16,89.41Z" transform="translate(-12.75 -0.59)"/><path class="cls-217" d="M63.57,92.51H65c-.28.27-.58,0-.84.26l.81.06a2.22,2.22,0,0,1-1.08.12l-.13-.11a.53.53,0,0,1-.2-.16A.17.17,0,0,1,63.57,92.51Z" transform="translate(-12.75 -0.59)"/><path class="cls-218" d="M64.16,89.41v-.18a.34.34,0,0,1,.29.44A6.58,6.58,0,0,0,64.32,91c-.16-.08-.16-.23-.16-.37Z" transform="translate(-12.75 -0.59)"/><path class="cls-146" d="M63.87,92.79V93a1.83,1.83,0,0,1-.93,0,.25.25,0,0,1-.17-.22.24.24,0,0,1,.19-.2.68.68,0,0,1,.62,0h0a.53.53,0,0,1,0,.13c0,.06,0,.08-.1.07s0,0,.08,0A.55.55,0,0,1,63.87,92.79Z" transform="translate(-12.75 -0.59)"/><path class="cls-219" d="M63.75,96.54l-.18,0a.8.8,0,0,1-.64-.52l-.3-.66.2,0c.05,0,.12.1.13.15A1.32,1.32,0,0,0,63.75,96.54Z" transform="translate(-12.75 -0.59)"/><path class="cls-220" d="M65.22,94.89v.34a1.17,1.17,0,0,1-.78.07c-.1,0-.25-.07-.13-.24s.42,0,.6-.14Z" transform="translate(-12.75 -0.59)"/><path class="cls-221" d="M67.51,95.09a2.22,2.22,0,0,0-1.11-.17c-.05,0-.09,0-.12,0a.66.66,0,0,1,0-.14h1.35c.08.08.23.13.14.29Z" transform="translate(-12.75 -0.59)"/><path class="cls-222" d="M61.19,89.25l.15.13c-.25.25-.12.59-.19.88L60.89,90C60.88,89.69,60.8,89.37,61.19,89.25Z" transform="translate(-12.75 -0.59)"/><path class="cls-223" d="M67.76,95.05l-.14-.29h.07c.11,0,.26-.15.32,0S67.94,95,67.76,95.05Z" transform="translate(-12.75 -0.59)"/><path class="cls-217" d="M63.58,92.52l-.62,0a.66.66,0,0,1,.62-.11Z" transform="translate(-12.75 -0.59)"/><path class="cls-215" d="M64.92,94.92c-.16.2-.39.12-.6.14C64.48,94.83,64.71,94.92,64.92,94.92Z" transform="translate(-12.75 -0.59)"/><path class="cls-222" d="M60.9,90.57a.32.32,0,0,1,.12.31A.29.29,0,0,1,60.9,90.57Z" transform="translate(-12.75 -0.59)"/><path class="cls-224" d="M61.63,94.92l-.49.17c.08-.18,0-.45.33-.49A.36.36,0,0,1,61.63,94.92Z" transform="translate(-12.75 -0.59)"/><path class="cls-225" d="M48.29,97.44l0-.46.09,0h.08c.09.11.08-.08.14,0a.29.29,0,0,1,.16,0,.35.35,0,0,1,.15.21.14.14,0,0,1-.1.13.54.54,0,0,1-.34.14A.13.13,0,0,1,48.29,97.44Z" transform="translate(-12.75 -0.59)"/><path class="cls-226" d="M48.75,97h-.27l-.07,0a1.13,1.13,0,0,1,.48-.26.71.71,0,0,0,0,.14C48.91,97,48.89,97.07,48.75,97Z" transform="translate(-12.75 -0.59)"/><path class="cls-227" d="M47.4,97.47a.42.42,0,0,1-.3.15l-.11.09a.18.18,0,0,0-.07.1l.09.1c-.2.1-.4.19-.6.3a.62.62,0,0,1-.36.05l-1.19-.07a.12.12,0,0,1,0-.12s0-.06,0-.06a1.84,1.84,0,0,1,1-.13s0,0,0,0l0,0h-.16c-.42,0-.84,0-1.26,0H42.21a2.92,2.92,0,0,1-.72-.06,1.85,1.85,0,0,0-.46-.08,7.52,7.52,0,0,1-.82,0c-.15-.05-.32-.08-.31-.3a6.18,6.18,0,0,1,1.77.08,5.15,5.15,0,0,0,1,.06h2.74a1.06,1.06,0,0,1,.44,0,2,2,0,0,0,1.16,0Z" transform="translate(-12.75 -0.59)"/><path class="cls-228" d="M39.9,97.32a.4.4,0,0,0,.33.15c-.2.51-.55.1-.81.23,0,.1.47-.12.32.25a.64.64,0,0,1-.47,0,.39.39,0,0,1-.41-.28c0-.11,0-.22,0-.33Z" transform="translate(-12.75 -0.59)"/><path class="cls-229" d="M58.34,97l.73.18,0,.09-.07.08-.71-.2a.1.1,0,0,1-.05-.1S58.32,97,58.34,97Z" transform="translate(-12.75 -0.59)"/><path class="cls-230" d="M58.34,97v.15a1.26,1.26,0,0,1-.6-.27l.19,0A.56.56,0,0,1,58.34,97Z" transform="translate(-12.75 -0.59)"/><path class="cls-231" d="M60.43,97.77s0,.08,0,.11a.41.41,0,0,1-.33-.11l.07-.07C60.27,97.68,60.37,97.67,60.43,97.77Z" transform="translate(-12.75 -0.59)"/><path class="cls-232" d="M59.36,97.48a.35.35,0,0,1-.31-.15l0-.08c.14,0,.27,0,.32.14Z" transform="translate(-12.75 -0.59)"/><path class="cls-231" d="M60.11,97.77a.33.33,0,0,1-.3-.13l0-.08a.34.34,0,0,1,.26,0,.17.17,0,0,1,.06.16Z" transform="translate(-12.75 -0.59)"/><path class="cls-232" d="M59.68,97.6a.38.38,0,0,1-.32-.12l0-.07a.26.26,0,0,1,.29,0A.14.14,0,0,1,59.68,97.6Z" transform="translate(-12.75 -0.59)"/><path class="cls-233" d="M59.68,97.6s0-.08,0-.12.15,0,.16.09,0,.05,0,.07A.33.33,0,0,1,59.68,97.6Z" transform="translate(-12.75 -0.59)"/><path class="cls-234" d="M59.83,97.57l-.16-.09-.26-.07-.32-.16s0-.06,0-.09l.15-.14a2.8,2.8,0,0,1,1,.59c0,.06-.09.06-.13,0Z" transform="translate(-12.75 -0.59)"/><path class="cls-235" d="M60.12,97.61h.46a.22.22,0,0,1-.15.16l-.26-.06A.31.31,0,0,1,60.12,97.61Z" transform="translate(-12.75 -0.59)"/><path class="cls-236" d="M65.51,93.92a1.65,1.65,0,0,1-.88,0A1.47,1.47,0,0,1,65.51,93.92Z" transform="translate(-12.75 -0.59)"/><path class="cls-237" d="M43.33,98.06h-2.2a.47.47,0,0,1-.5,0c.07-.38.38-.34.64-.32.6,0,1.2,0,1.8,0a.75.75,0,0,1,.24.08l.07.11Z" transform="translate(-12.75 -0.59)"/><path class="cls-238" d="M40.63,98l.5,0a.89.89,0,0,1-1,0,.31.31,0,0,1,.29-.14A.3.3,0,0,1,40.63,98Z" transform="translate(-12.75 -0.59)"/><path class="cls-239" d="M44.84,98.07a.5.5,0,0,0,0,.12,2.36,2.36,0,0,1-.75,0,.13.13,0,0,1,0-.2A.52.52,0,0,1,44.84,98.07Z" transform="translate(-12.75 -0.59)"/><path class="cls-240" d="M44.09,98.06a.5.5,0,0,0,0,.12,1.06,1.06,0,0,1-.78-.12l0-.06a.62.62,0,0,1,.44-.1A.45.45,0,0,1,44.09,98.06Z" transform="translate(-12.75 -0.59)"/><path class="cls-241" d="M40.51,98l-.37,0-.2,0c-.09-.06-.1-.12,0-.2C40.16,97.76,40.4,97.67,40.51,98Z" transform="translate(-12.75 -0.59)"/><path class="cls-242" d="M39.86,97.9l.08.15c-.23,0-.48.07-.67-.13l.5,0Z" transform="translate(-12.75 -0.59)"/><path class="cls-243" d="M47,97.91a.65.65,0,0,1-.2,0c-.08,0-.08-.09,0-.15l.17-.13h.14v.15c0,.08,0,.12-.08.14Z" transform="translate(-12.75 -0.59)"/><path class="cls-244" d="M47,97.91l.08-.14.51,0A.66.66,0,0,1,47,97.91Z" transform="translate(-12.75 -0.59)"/><path class="cls-140" d="M47.62,97.75l.23-.14A.25.25,0,0,1,47.62,97.75Z" transform="translate(-12.75 -0.59)"/><path class="cls-245" d="M49.66,97a.68.68,0,0,1-.44.16l-.07-.07c0-.24.22-.17.36-.18A.14.14,0,0,1,49.66,97Z" transform="translate(-12.75 -0.59)"/><path class="cls-246" d="M50.67,96.53l.22,0a.52.52,0,0,1-.5.14C50.42,96.57,50.55,96.56,50.67,96.53Z" transform="translate(-12.75 -0.59)"/><path class="cls-247" d="M50,96.72h.43c-.09.18-.28.15-.44.19l-.07,0A.16.16,0,0,1,50,96.72Z" transform="translate(-12.75 -0.59)"/><path class="cls-245" d="M49.65,96.86l.13,0a.16.16,0,0,1,.15,0l0,.07a.37.37,0,0,1-.3.13L49.6,97S49.6,96.88,49.65,96.86Z" transform="translate(-12.75 -0.59)"/><path class="cls-248" d="M48.84,97.31l.07-.14a.16.16,0,0,1,.25,0l.06.06A.49.49,0,0,1,48.84,97.31Z" transform="translate(-12.75 -0.59)"/><path class="cls-30" d="M48.29,97.44h.21l-.21.15Z" transform="translate(-12.75 -0.59)"/><path class="cls-249" d="M62.51,98a.88.88,0,0,1,.63-.15,8,8,0,0,0,1.55-.1,1.63,1.63,0,0,1,.44,0,6,6,0,0,0,2.2,0,.93.93,0,0,1,.29,0,.21.21,0,0,1,.06.21.55.55,0,0,1-.49.25,5.42,5.42,0,0,1-.57,0H65.8c-1,0-2,0-3,0A.34.34,0,0,1,62.51,98Z" transform="translate(-12.75 -0.59)"/><path class="cls-250" d="M67.62,97.93v-.16a1.4,1.4,0,0,1,.57-.1,10.31,10.31,0,0,0,1.84.08l0,.3a.4.4,0,0,1-.36.1C69,98,68.26,98.31,67.62,97.93Z" transform="translate(-12.75 -0.59)"/><path class="cls-251" d="M62.51,98l.17.15a.4.4,0,0,1-.16.36.26.26,0,0,1-.29,0h0a.48.48,0,0,0,.07-.35s.05-.07.09-.11A.24.24,0,0,1,62.51,98Z" transform="translate(-12.75 -0.59)"/><path class="cls-252" d="M68,98.5H65.51a.16.16,0,0,1,.06-.22.71.71,0,0,1,.35-.07h1.72a.53.53,0,0,1,.24.08A.2.2,0,0,1,68,98.5Z" transform="translate(-12.75 -0.59)"/><path class="cls-253" d="M69.74,98.06H70l0,.16a2.7,2.7,0,0,1-1,.26.19.19,0,0,1-.06-.2C69.13,98,69.46,98.09,69.74,98.06Z" transform="translate(-12.75 -0.59)"/><path class="cls-93" d="M62.23,98.5h.35a.56.56,0,0,1,.66,0c.07.07.08.13,0,.2s-.43,0-.64,0A.39.39,0,0,1,62.23,98.5Z" transform="translate(-12.75 -0.59)"/><path class="cls-254" d="M65.39,98.53a1.11,1.11,0,0,1-.78.1l0-.1.06-.08a.74.74,0,0,1,.6-.06A.33.33,0,0,1,65.39,98.53Z" transform="translate(-12.75 -0.59)"/><path class="cls-255" d="M64.62,98.51a.49.49,0,0,1,0,.12h-.75a.16.16,0,0,1,.07-.21A.57.57,0,0,1,64.62,98.51Z" transform="translate(-12.75 -0.59)"/><path class="cls-256" d="M68,98.5a.34.34,0,0,1,0-.14.56.56,0,0,1,.72-.07.13.13,0,0,1,0,.21A1.06,1.06,0,0,1,68,98.5Z" transform="translate(-12.75 -0.59)"/><path class="cls-257" d="M63.88,98.52a.52.52,0,0,1,0,.11h-.61a.27.27,0,0,0,0-.12A.39.39,0,0,1,63.88,98.52Z" transform="translate(-12.75 -0.59)"/><path class="cls-258" d="M68.64,98.5a.5.5,0,0,0,0-.13.22.22,0,0,1,.29-.05.76.76,0,0,0,0,.15Z" transform="translate(-12.75 -0.59)"/><path class="cls-249" d="M65.53,98.37s0,.09,0,.13a.27.27,0,0,1-.12,0v-.07a.09.09,0,0,1,0-.09s0-.05,0-.05A.17.17,0,0,1,65.53,98.37Z" transform="translate(-12.75 -0.59)"/><path class="cls-259" d="M49.16,97.13l-.25,0L48.75,97l.15-.14.39,0h.36a.31.31,0,0,1,0,.1A1,1,0,0,0,49.16,97.13Z" transform="translate(-12.75 -0.59)"/><path class="cls-259" d="M49.93,96.83a.38.38,0,0,1-.15,0l.19-.1Z" transform="translate(-12.75 -0.59)"/><path class="cls-234" d="M45,92.22h.73c-.23.19-.48.12-.72.13A.53.53,0,0,1,45,92.22Z" transform="translate(-12.75 -0.59)"/><path class="cls-217" d="M65.56,92.6a.31.31,0,0,1-.12.05s-.07,0-.11-.06.08-.06.12-.06Z" transform="translate(-12.75 -0.59)"/><path class="cls-260" d="M52.17,40.29c-.07.38-.07.39-.3.39h-.74a1.62,1.62,0,0,1-.71-.21,1.21,1.21,0,0,1-.37-1.89.61.61,0,0,1,.16-.16.63.63,0,0,0,.23-.59,9,9,0,0,0-.09-1,.68.68,0,0,1,.19-.6.55.55,0,0,1,.74,0,2.06,2.06,0,0,0,1.1.39.63.63,0,0,0,.5-.1,1.24,1.24,0,0,1,.18-.14c.62-.4,1-.31,1.39.35a6.62,6.62,0,0,0,.78,1.17l.05.05.19.21a3.76,3.76,0,0,1,.25.54,1,1,0,0,1-.31,1.16,6.8,6.8,0,0,1-1,.69,1,1,0,0,1-.58.15c-.16,0-.3-.07-.31-.25a4.66,4.66,0,0,1,0-1.49,1.5,1.5,0,0,1,.73-1.15s.08-.14.07-.19a.29.29,0,0,0-.16-.15.57.57,0,0,0-.29,0,1,1,0,0,0-.72,1.07c.07.65,0,1.29,0,1.93-.25,0-.45.1-.62,0s-.11-.32-.17-.49a.48.48,0,0,1-.12-.4c0-.68-.55-1-.81-1.52.14.53.61.87.77,1.39C52.26,39.71,52,40,52.17,40.29Z" transform="translate(-12.75 -0.59)"/><path class="cls-261" d="M50.35,36l-.29,0a1,1,0,0,1-1-.53,1,1,0,0,1,.12-1.24,2,2,0,0,1,.2-.21.37.37,0,0,0,.15,0c.27-.15.45-.05.63.18a5.23,5.23,0,0,1,.49.82.64.64,0,0,1-.11.81C50.44,35.92,50.4,36,50.35,36Z" transform="translate(-12.75 -0.59)"/><path class="cls-262" d="M56.57,34.54a1.13,1.13,0,0,1-.72,1,1,1,0,0,1-1.11-.15.37.37,0,0,1-.1-.52,6.13,6.13,0,0,1,.76-1,.49.49,0,0,1,.6-.12A.75.75,0,0,1,56.57,34.54Z" transform="translate(-12.75 -0.59)"/><polygon class="cls-2" points="42.53 37.37 42.49 37.36 42.48 37.32 42.53 37.33 42.53 37.37"/><path class="cls-263" d="M52.34,39.5l0,.45c-.12.08-.12.22-.15.34-.17-.29-.07-.63-.15-.93C52.19,39.27,52.27,39.38,52.34,39.5Z" transform="translate(-12.75 -0.59)"/><path class="cls-264" d="M42.92,94.46l.15.07c-.06,0-.11.07-.16.08a.82.82,0,0,1-.19-.06C42.75,94.48,42.81,94.47,42.92,94.46Z" transform="translate(-12.75 -0.59)"/><path class="cls-265" d="M44.54,94.61a.29.29,0,0,1-.31.14.29.29,0,0,1-.13,0s0-.07.07-.07l.37,0Z" transform="translate(-12.75 -0.59)"/><path class="cls-266" d="M62.09,91c.11-.13.25-.12.4-.13h1.4c.07.13,0,.17-.12.18A10.48,10.48,0,0,1,62.09,91Z" transform="translate(-12.75 -0.59)"/><path class="cls-267" d="M66.28,94.9l.12,0c-.17.22-.38.13-.64.11C65.94,94.85,66.12,94.94,66.28,94.9Z" transform="translate(-12.75 -0.59)"/><path class="cls-268" d="M63.87,92.79h-.51s-.1,0-.1,0,.09-.08.16-.09l.14,0A.48.48,0,0,1,63.87,92.79Z" transform="translate(-12.75 -0.59)"/><path class="cls-269" d="M48.48,97h.09C48.55,97.07,48.52,97.14,48.48,97Z" transform="translate(-12.75 -0.59)"/><path class="cls-270" d="M39.86,97.9h-.09c-.13-.15-.37-.06-.54-.21.34-.21.71,0,1-.21h.84c.1.06.22,0,.32.11l.72,0a1.81,1.81,0,0,0,1,0h1.42a.11.11,0,0,1,0,.19,2.68,2.68,0,0,1-1.16.08c-.64,0-1.29,0-1.94,0a1.37,1.37,0,0,0-.79.15h-.12A1,1,0,0,0,39.86,97.9Z" transform="translate(-12.75 -0.59)"/><path class="cls-271" d="M43.36,97.89a.48.48,0,0,1,.41-.13l.81,0a4.21,4.21,0,0,1,1.46,0l.13,0a.65.65,0,0,1,.17.16.43.43,0,0,1-.4.14H44.09l-.29,0c-.14-.1-.32,0-.46-.11Z" transform="translate(-12.75 -0.59)"/><path class="cls-228" d="M46,97.74H44.58l-.07-.11h1.12A.45.45,0,0,1,46,97.74Z" transform="translate(-12.75 -0.59)"/><path class="cls-228" d="M43.09,97.62a.89.89,0,0,1-1,0Z" transform="translate(-12.75 -0.59)"/><path class="cls-228" d="M41.39,97.58a.39.39,0,0,1-.32-.11A.32.32,0,0,1,41.39,97.58Z" transform="translate(-12.75 -0.59)"/><path class="cls-228" d="M47,97.61l-.17.13Z" transform="translate(-12.75 -0.59)"/><path class="cls-228" d="M46.34,97.92l-.17-.16A.23.23,0,0,1,46.34,97.92Z" transform="translate(-12.75 -0.59)"/><path class="cls-228" d="M43.34,97.92a.59.59,0,0,1,.46.11l-.45,0S43.34,98,43.34,97.92Z" transform="translate(-12.75 -0.59)"/><path class="cls-272" d="M65.53,98.37h-.15c-.25.12-.53,0-.77.11v0H63.28l-.7,0a.27.27,0,0,1,.1-.3,14.15,14.15,0,0,1,2.52-.14c.25,0,.5,0,.75,0,.11.16,0,.2-.13.26Z" transform="translate(-12.75 -0.59)"/><path class="cls-273" d="M69,98.32l-.29.05h-.77l-.14,0c-.18-.12-.4,0-.59-.09,0,0-.05-.07,0-.11s0-.06,0-.06.33,0,.45-.15c.62,0,1.24,0,1.85,0a.77.77,0,0,1,.27.11c-.09.14-.23.14-.38.15S69.08,98.2,69,98.32Z" transform="translate(-12.75 -0.59)"/><path class="cls-274" d="M67.17,98.19c.2,0,.43,0,.6.15h-2c.05-.09.09-.17.13-.26h.21a.17.17,0,0,0,.23,0h.22C66.78,98.2,67,98.06,67.17,98.19Z" transform="translate(-12.75 -0.59)"/><path class="cls-275" d="M67.17,98.19c-.19,0-.4.08-.56-.11h.56Z" transform="translate(-12.75 -0.59)"/><path class="cls-272" d="M66.39,98.08q-.12.19-.24,0Z" transform="translate(-12.75 -0.59)"/><path class="cls-276" d="M64.61,98.49c.24-.17.51-.1.77-.11v.08Z" transform="translate(-12.75 -0.59)"/><path class="cls-277" d="M52.34,39.5,52,39.36a8,8,0,0,1-.75-1.08c-.05-.13-.21-.12-.32-.17a.15.15,0,0,1-.08-.18.34.34,0,0,1,.14-.17.54.54,0,0,1,.28,0,.85.85,0,0,1,.5.43,2.64,2.64,0,0,0,.54.79A.37.37,0,0,1,52.34,39.5Z" transform="translate(-12.75 -0.59)"/></svg>