<svg id="Layer_1" data-name="Layer 1" xmlns="http://www.w3.org/2000/svg" viewBox="0 0 28.98 44"><defs><style>.cls-1{fill:#f1d2c0;}.cls-2{fill:#874a54;}.cls-3{fill:#eceda3;}.cls-4{fill:#ea834d;}.cls-5{fill:#1c364f;}.cls-6{fill:#1e364f;}.cls-7{fill:#1c354f;}.cls-8{fill:#1f3650;}.cls-9{fill:#22364f;}.cls-10{fill:#273850;}.cls-11{fill:#2f445b;}.cls-12{fill:#2d3e4e;}.cls-13{fill:#284053;}.cls-14{fill:#35354f;}.cls-15{fill:#343d54;}.cls-16{fill:#444b57;}.cls-17{fill:#4d3851;}.cls-18{fill:#433550;}.cls-19{fill:#43566b;}.cls-20{fill:#714c64;}.cls-21{fill:#403f54;}.cls-22{fill:#4f4369;}.cls-23{fill:#50475f;}.cls-24{fill:#6e3b55;}.cls-25{fill:#38354f;}.cls-26{fill:#39495f;}.cls-27{fill:#4e374f;}.cls-28{fill:#4f3b54;}.cls-29{fill:#43597e;}.cls-30{fill:#627586;}.cls-31{fill:#65465e;}.cls-32{fill:#434463;}.cls-33{fill:#687486;}.cls-34{fill:#304447;}.cls-35{fill:#6a3a54;}.cls-36{fill:#93586e;}.cls-37{fill:#607586;}.cls-38{fill:#664059;}.cls-39{fill:#4c5c82;}.cls-40{fill:#45566f;}.cls-41{fill:#4c5c72;}.cls-42{fill:#646c7f;}.cls-43{fill:#3d455e;}.cls-44{fill:#6b425c;}.cls-45{fill:#3f5f8c;}.cls-46{fill:#623e59;}.cls-47{fill:#37798b;}.cls-48{fill:#546d80;}.cls-49{fill:#39445d;}.cls-50{fill:#6f405a;}.cls-51{fill:#54425b;}.cls-52{fill:#373750;}.cls-53{fill:#52435c;}.cls-54{fill:#75465f;}.cls-55{fill:#77465e;}.cls-56{fill:#683a54;}.cls-57{fill:#78556c;}.cls-58{fill:#6f3e57;}.cls-59{fill:#747889;}.cls-60{fill:#554760;}.cls-61{fill:#786d80;}.cls-62{fill:#41425a;}.cls-63{fill:#283a53;}.cls-64{fill:#684b63;}.cls-65{fill:#7f8d9b;}.cls-66{fill:#49596d;}.cls-67{fill:#458494;}.cls-68{fill:#777e8e;}.cls-69{fill:#584e65;}.cls-70{fill:#6e8291;}.cls-71{fill:#448998;}.cls-72{fill:#6c4f66;}.cls-73{fill:#386377;}.cls-74{fill:#7c7d8e;}.cls-75{fill:#5a4f66;}.cls-76{fill:#424e66;}.cls-77{fill:#697386;}.cls-78{fill:#666075;}.cls-79{fill:#4d3f57;}.cls-80{fill:#4e7889;}.cls-81{fill:#787c8d;}.cls-82{fill:#755369;}.cls-83{fill:#4e485f;}.cls-84{fill:#32415a;}.cls-85{fill:#30546a;}.cls-86{fill:#473c55;}.cls-87{fill:#4f3d56;}.cls-88{fill:#5b6377;}.cls-89{fill:#373a53;}.cls-90{fill:#747a8b;}.cls-91{fill:#353c57;}.cls-92{fill:#4e5b70;}.cls-93{fill:#4d4860;}.cls-94{fill:#6c4058;}.cls-95{fill:#6c5269;}.cls-96{fill:#517a8b;}.cls-97{fill:#e9eef1;}.cls-98{fill:#5a536a;}.cls-99{fill:#2c3c55;}.cls-100{fill:#fdfdfd;}.cls-101{fill:#705268;}.cls-102{fill:#e8edef;}.cls-103{fill:#5d4d64;}.cls-104{fill:#564b62;}.cls-105{fill:#323d56;}.cls-106{fill:#46455c;}.cls-107{fill:#e83954;}.cls-108{fill:#604e65;}.cls-109{fill:#fad3d3;}.cls-110{fill:#203751;}.cls-111{fill:#8a615a;}.cls-112{fill:#453751;}.cls-113{fill:#1f364f;}.cls-114{fill:#ea844e;}.cls-115{fill:#263c4f;}.cls-116{fill:#24393a;}.cls-117{fill:#4e3750;}.cls-118{fill:#5f3851;}.cls-119{fill:#b03651;}.cls-120{fill:#fff;}.cls-121{fill:#21364f;}.cls-122{fill:#293c54;}.cls-123{fill:#27374f;}.cls-124{fill:#d2d2d2;}.cls-125{fill:#cad4d2;}.cls-126{fill:#505162;}.cls-127{fill:#6b5b50;}.cls-128{fill:#504b57;}.cls-129{fill:#815e54;}.cls-130{fill:#9aaeae;}.cls-131{fill:#a15848;}.cls-132{fill:#1f3649;}.cls-133{fill:#7b788a;}.cls-134{fill:#24364e;}.cls-135{fill:#304056;}.cls-136{fill:#773550;}.cls-137{fill:#e83a54;}.cls-138{fill:#603450;}.cls-139{fill:#7f3550;}.cls-140{fill:#4064ad;}.cls-141{fill:#2b3c63;}.cls-142{fill:#633550;}.cls-143{fill:#e43652;}.cls-144{fill:#48475e;}.cls-145{fill:#52344f;}.cls-146{fill:#4f344f;}.cls-147{fill:#fdfefe;}.cls-148{fill:#2c385a;}.cls-149{fill:#b13551;}.cls-150{fill:#62576c;}.cls-151{fill:#3f64ad;}.cls-152{fill:#ce3b57;}.cls-153{fill:#4b415c;}.cls-154{fill:#3f354f;}.cls-155{fill:#8e3752;}.cls-156{fill:#ce415d;}.cls-157{fill:#96566c;}.cls-158{fill:#db3753;}.cls-159{fill:#5e3550;}.cls-160{fill:#633450;}.cls-161{fill:#783550;}.cls-162{fill:#975f74;}.cls-163{fill:#3d3751;}.cls-164{fill:#653d56;}.cls-165{fill:#9c6377;}.cls-166{fill:#493a53;}.cls-167{fill:#615066;}.cls-168{fill:#50344e;}.cls-169{fill:#293b55;}.cls-170{fill:#2c3a51;}.cls-171{fill:#3b3d53;}.cls-172{fill:#444357;}.cls-173{fill:#ea8450;}.cls-174{fill:#fdfbfa;}.cls-175{fill:#97d2d6;}.cls-176{fill:#dddddc;}.cls-177{fill:#f4dcd0;}.cls-178{fill:#cbc3ab;}.cls-179{fill:#9ebdad;}.cls-180{fill:#23374f;}.cls-181{fill:#313e51;}.cls-182{fill:#36465c;}.cls-183{fill:#a05949;}.cls-184{fill:#2d3948;}.cls-185{fill:#2a374b;}.cls-186{fill:#313b49;}.cls-187{fill:#3e3c4d;}.cls-188{fill:#463f49;}.cls-189{fill:#2b394e;}.cls-190{fill:#92534b;}.cls-191{fill:#363b49;}.cls-192{fill:#767079;}.cls-193{fill:#1f364a;}.cls-194{fill:#23364e;}.cls-195{fill:#4c434a;}.cls-196{fill:#6e747f;}.cls-197{fill:#233750;}.cls-198{fill:#28374f;}.cls-199{fill:#383a4f;}.cls-200{fill:#203851;}.cls-201{fill:#4c5668;}.cls-202{fill:#e83953;}.cls-203{fill:#4b344e;}.cls-204{fill:#703550;}.cls-205{fill:#613550;}.cls-206{fill:#31344e;}.cls-207{fill:#5a344f;}.cls-208{fill:#573550;}.cls-209{fill:#4d354f;}.cls-210{fill:#4a3655;}.cls-211{fill:#8f344f;}.cls-212{fill:#e83852;}.cls-213{fill:#333e6a;}.cls-214{fill:#53344f;}.cls-215{fill:#48344e;}.cls-216{fill:#44344e;}.cls-217{fill:#803550;}.cls-218{fill:#4a344f;}.cls-219{fill:#423654;}.cls-220{fill:#30344e;}.cls-221{fill:#26344e;}.cls-222{fill:#653550;}.cls-223{fill:#65354f;}.cls-224{fill:#253550;}.cls-225{fill:#8d435c;}.cls-226{fill:#6b354f;}.cls-227{fill:#474158;}.cls-228{fill:#543b57;}.cls-229{fill:#593851;}.cls-230{fill:#545166;}.cls-231{fill:#64808f;}.cls-232{fill:#597082;}.cls-233{fill:#4d556a;}.cls-234{fill:#c43651;}.cls-235{fill:#b43551;}.cls-236{fill:#6d344f;}.cls-237{fill:#41445c;}.cls-238{fill:#51a0ac;}.cls-239{fill:#3b5d71;}.cls-240{fill:#437f8d;}.cls-241{fill:#4b475f;}.cls-242{fill:#5cb0ba;}.cls-243{fill:#9b3450;}.cls-244{fill:#5e6f82;}.cls-245{fill:#5a7687;}.cls-246{fill:#4c6f80;}.cls-247{fill:#4b687b;}.cls-248{fill:#57697c;}.cls-249{fill:#3c3c61;}.cls-250{fill:#3f3e59;}.cls-251{fill:#2e344e;}.cls-252{fill:#3c7384;}.cls-253{fill:#675269;}.cls-254{fill:#5cafb9;}.cls-255{fill:#468c9b;}.cls-256{fill:#533952;}.cls-257{fill:#3c697c;}.cls-258{fill:#3c576c;}.cls-259{fill:#b33955;}.cls-260{fill:#f9d4d3;}.cls-261{fill:#e8eba2;}.cls-262{fill:#eaeba2;}.cls-263{fill:#384a60;}.cls-264{fill:#903451;}.cls-265{fill:#1e354f;}.cls-266{fill:#2b344e;}.cls-267{fill:#a43551;}.cls-268{fill:#be3550;}.cls-269{fill:#47344e;}.cls-270{fill:#d53752;}.cls-271{fill:#e03551;}.cls-272{fill:#cf3451;}.cls-273{fill:#da3552;}.cls-274{fill:#7d354f;}.cls-275{fill:#cd3451;}.cls-276{fill:#503851;}.cls-277{fill:#36465d;}</style></defs><path class="cls-1" d="M40.44,37.33a1.91,1.91,0,0,0-.52.07L37,38.06l-2.16.51-2,.47-.19,0A.11.11,0,0,1,32.5,39c-.07-.23-.14-.46-.19-.7-.11-.58-.28-1.15-.41-1.73-.23-.94-.45-1.88-.68-2.83-.14-.63-.29-1.26-.44-1.89,0,0,0-.09,0-.13,0-.24,0-.24.21-.3L32.74,31l1.36-.28,1.83-.39L37.64,30l2.75-.57L42.32,29l1.78-.38,1.45-.3L47.19,28c.08,0,.14,0,.16.09a1.81,1.81,0,0,1,.09.31c.1.53.26,1.05.4,1.57.21.83.44,1.66.65,2.49s.42,1.73.62,2.6a.59.59,0,0,1,0,.13.19.19,0,0,1-.15.22,2.44,2.44,0,0,1-.26.06,16.72,16.72,0,0,0-1.71.35l-2.1.46c-.38.09-.77.17-1.15.27-.09,0-.21,0-.26.13a.33.33,0,0,1-.19.08,7.1,7.1,0,0,0-.8.17l-.09,0a4,4,0,0,0-1.09.25.61.61,0,0,1-.19,0C40.9,37.24,40.69,37.37,40.44,37.33Z" transform="translate(-30.75 -28)"/><path class="cls-2" d="M45.33,66.69a3.44,3.44,0,0,1,.3-.35.51.51,0,0,0,.18-.46c0-.27,0-.53,0-.8,0-1.39,0-2.79,0-4.19,0-.54,0-1.08,0-1.62a1,1,0,0,1,.6-.15,9.43,9.43,0,0,1,1.19,0,.32.32,0,0,1,.33.16c0,.71,0,1.42,0,2.12,0,.25,0,.49,0,.73a10.58,10.58,0,0,0,0,1.69c0,.1,0,.2,0,.3,0,1,0,2,.07,3a1.34,1.34,0,0,0,0,.2l0,0a1.42,1.42,0,0,1-.68,0c-.31,0-.63-.11-.7-.5-.26-.14-.54,0-.8-.07S45.46,66.83,45.33,66.69Z" transform="translate(-30.75 -28)"/><path class="cls-3" d="M47.87,59.27a1.26,1.26,0,0,0-.58-.07l-1.54.07h-.4a2.28,2.28,0,0,1-.78-.07c-.13-.1-.1-.25-.1-.39,0-.31,0-.63,0-.94,0-.12.1-.17.19-.22s.37-.22.35-.48-.2-.63-.26-1-.06-.48-.06-.72.08-.34.34-.26a.78.78,0,0,0,.6,0,.59.59,0,0,1,.45-.07,1.13,1.13,0,0,1,.22.61A11.22,11.22,0,0,0,46.66,57c0,.12.09.29.26.24s.12-.22.09-.34a11.05,11.05,0,0,0-.48-1.61.53.53,0,0,1-.09-.34c.45-.51.8-.55,1.28-.11.27.24.62.33.89.56s.08.64,0,1c-.06.68,0,1.36,0,2,0,.27.25.43.28.68a.62.62,0,0,1-.47.16Z" transform="translate(-30.75 -28)"/><path class="cls-2" d="M50.4,67.49c.14-.06.27-.12.28-.3l0,0a1.43,1.43,0,0,0,.23-.9c0-.77,0-1.54,0-2.31,0-.6,0-1.21,0-1.81a1.34,1.34,0,0,1,0-.2,4.43,4.43,0,0,1,1.81-.18c.08,0,.17,0,.22.12s0,.28,0,.42L53,64.61c0,.56.08,1.11.15,1.67a2,2,0,0,0,.15.6c-.16.17-.35.06-.53.07s-.26,0-.39,0A1.76,1.76,0,0,1,52,67c-.1,0-.19,0-.2.13,0,.34-.31.35-.55.39l-.19,0a.65.65,0,0,0-.31,0h-.14A.2.2,0,0,1,50.4,67.49Z" transform="translate(-30.75 -28)"/><path class="cls-4" d="M40.44,37.33s.05,0,.08,0a4.83,4.83,0,0,1,.66-.14l.1.14a1.89,1.89,0,0,1,.09.21c.09.27.16.55.26.81a.29.29,0,0,1,0,.09,1.39,1.39,0,0,0,.12.41,4.15,4.15,0,0,0,.31.92c.06.16.05.33.1.49a1.21,1.21,0,0,0,0,.18c.18.53.32,1.06.5,1.58,0,.09,0,.18,0,.27a.89.89,0,0,1,.08.17q.78,2.72,1.6,5.41a1.25,1.25,0,0,0,.12.34,3.85,3.85,0,0,0,.28,1,.67.67,0,0,1,0,.2c0,.48-.21.62-.65.49a.37.37,0,0,1-.15-.13,3.29,3.29,0,0,1-.23-.62c-.42-1.4-.83-2.79-1.24-4.19a.19.19,0,0,1,0-.1c-.29-1-.62-2-.89-3.06a.64.64,0,0,1,0-.2.51.51,0,0,0,0-.32c-.29-1-.57-1.91-.85-2.87Z" transform="translate(-30.75 -28)"/><path class="cls-5" d="M52.89,61.88l-.48-.08a2.28,2.28,0,0,0-.78.08l-.42.09a.6.6,0,0,1-.35,0l-.34-.21a.4.4,0,0,1-.17-.49c0-.06,0-.11,0-.16a.27.27,0,0,0,0-.25.55.55,0,0,1,0-.26c0-.24,0-.48,0-.72,0-.45.06-.43-.42-.46a3.42,3.42,0,0,1-1.09-.27.9.9,0,0,1-.37-.8,14.31,14.31,0,0,1,0-2.07c0-.16,0-.32,0-.49a.34.34,0,0,0-.1-.33c0-.08,0-.1.11-.11.32.11.27.39.24.61a19.29,19.29,0,0,0-.05,2.15c0,.69.11.85.8,1l1.43.24a1,1,0,0,1,.65.37c.28.48.27.7,0,1a.71.71,0,0,1-.52.16c-.15,0-.31,0-.41.14-.2.51,0,.79.55.67a4.47,4.47,0,0,1,2.12.08.77.77,0,0,1,.59.4c.3.71.94.77,1.55.76a9.06,9.06,0,0,0,1.64-.19c.58-.11.76-.33.79-.93.06-.91.2-1.82.27-2.73.11-1.26.34-2.51.42-3.78a3.24,3.24,0,0,1,.59-1.31.93.93,0,0,0,.14-.79q-.3-1.32-.51-2.67c-.24-1.65-.53-3.31-.75-5a4.35,4.35,0,0,1,.17-2,3.91,3.91,0,0,0,.14-.68,1.32,1.32,0,0,0-1.41-1.39,3.31,3.31,0,0,0-1.12.29,3.4,3.4,0,0,1-.76.32A.19.19,0,0,1,55,42a.1.1,0,0,1,0-.09c0-.07.12,0,.16-.11a7.82,7.82,0,0,1,.8-.45,2.85,2.85,0,0,1,1.52-.22.8.8,0,0,1,.53.25l.12.11a1.57,1.57,0,0,1,.58,1.6,1.89,1.89,0,0,1-.1.41,4.2,4.2,0,0,0-.13,2.38c.08.39.11.79.17,1.18s.14.67.18,1c.08.75.24,1.48.32,2.23.06.57.18,1.13.29,1.69s.17.85.26,1.27a.77.77,0,0,1,0,.45,1.57,1.57,0,0,1-.52.75.42.42,0,0,0-.17.34c-.09,1-.23,2-.36,3,0,.24,0,.49-.05.73,0,.76-.17,1.51-.25,2.27,0,.25,0,.51,0,.76a2.24,2.24,0,0,1-.06.52,1,1,0,0,1-.74.77,1.9,1.9,0,0,1-.68.11,2.38,2.38,0,0,0-.59.07,2.52,2.52,0,0,1-1.28,0l-.26,0a.9.9,0,0,1-.75-.52c0-.09-.1-.17-.14-.26a.43.43,0,0,0-.35-.28Z" transform="translate(-30.75 -28)"/><path class="cls-6" d="M41.63,41.5a.2.2,0,0,1,.08.14s0,.08,0,.08c-.3,0-.53.25-.84.28a1,1,0,0,0-.84.7,2,2,0,0,0,.22,1.87,1,1,0,0,1,.19.58v1.23a22.78,22.78,0,0,0,.14,3.2c.09.9.05,1.81.18,2.7.05.32.07.64.09,1a1.51,1.51,0,0,0,.36.94.28.28,0,0,1,.09.3.08.08,0,0,1-.1,0,.71.71,0,0,1-.38-.34,1.52,1.52,0,0,1-.25-.74c-.06-.74-.14-1.47-.21-2.21,0-.16,0-.33,0-.49a12.48,12.48,0,0,0-.11-1.62,6.11,6.11,0,0,1-.07-.86c0-1.07-.07-2.14,0-3.2a.37.37,0,0,0-.11-.33,1.2,1.2,0,0,1-.32-.57,2.6,2.6,0,0,1-.05-1.24,1.69,1.69,0,0,1,.56-.95,1.21,1.21,0,0,1,.28-.18c.22-.09.45-.16.68-.24A1.44,1.44,0,0,1,41.63,41.5Z" transform="translate(-30.75 -28)"/><path class="cls-7" d="M44.5,57.84a.58.58,0,0,1,.08.37,6.54,6.54,0,0,0,0,1c0,.13,0,.27,0,.4a.43.43,0,0,0,.05.25.79.79,0,0,1-.17,1c-.06,0-.09,0-.11-.07a.28.28,0,0,1,0-.13.92.92,0,0,0-.48-1.22c-.21-.12-.43-.23-.63-.36-.47-.31-.48-.65,0-1a1.14,1.14,0,0,1,.73-.24.73.73,0,0,0,.38-.11C44.37,57.71,44.49,57.66,44.5,57.84Z" transform="translate(-30.75 -28)"/><path class="cls-8" d="M55,42l.07.06c0,.08,0,.12-.09.15-.4.22-.73.55-1.12.77a1,1,0,0,0-.21.41,2.18,2.18,0,0,1-1.21,1.28c-.06,0-.12.07-.18.07-.5,0-.69.39-.95.69-.08.1-.14.24-.3.24a.18.18,0,0,1-.1-.11.33.33,0,0,1,.08-.25,2.3,2.3,0,0,0,.36-1.82.64.64,0,0,1,.4-.72c.09,0,.12.07.13.14A2.39,2.39,0,0,0,51.74,44c0,.33.16.44.47.34a1.7,1.7,0,0,0,1.15-1.15,1,1,0,0,1,.55-.69,1.71,1.71,0,0,0,1-1.82A1.32,1.32,0,0,1,55,40c0-.06,0-.16.15-.11a4.88,4.88,0,0,1,0,1.08,2.37,2.37,0,0,1-.11.58c0,.08-.06.16,0,.25v0l0,.06A.1.1,0,0,0,55,42Z" transform="translate(-30.75 -28)"/><path class="cls-9" d="M43.31,36.68a.31.31,0,0,1,.19,0l.28.36a1.9,1.9,0,0,0,.36.39,1.74,1.74,0,0,1,.45.56,2.09,2.09,0,0,0,.35.49.12.12,0,0,0,.14,0,2.3,2.3,0,0,1,1.53.05l.59.2a1.83,1.83,0,0,1,.5.26l.6.41a.11.11,0,0,0,.17,0,.72.72,0,0,1,.3-.3c.07,0,.09,0,.12.06l0,.09c-.37.64-.51.68-1.08.22a4.26,4.26,0,0,0-1.5-.69,2.11,2.11,0,0,0-1.14-.06.42.42,0,0,1-.53-.23A9.91,9.91,0,0,0,43.39,37C43.33,36.9,43.2,36.82,43.31,36.68Z" transform="translate(-30.75 -28)"/><path class="cls-9" d="M49.66,38.65a2.9,2.9,0,0,1,1.85-.27c.12,0,.23.08.36,0s.08,0,.11,0l.21.16c.08.07.22,0,.27.14a11.63,11.63,0,0,0-.32,2.76,1.23,1.23,0,0,1,0,.27,3.22,3.22,0,0,0-.06.69.42.42,0,0,1,0,.1c-.12.09-.14,0-.19-.09a.16.16,0,0,1,0-.1,1.48,1.48,0,0,0,0-.21,10,10,0,0,0,0-1.45.48.48,0,0,1,0-.29,2.16,2.16,0,0,0,0-1.42c0-.26-.24-.33-.46-.35a3.44,3.44,0,0,0-1.24.08.89.89,0,0,1-.36.07C49.73,38.77,49.64,38.77,49.66,38.65Z" transform="translate(-30.75 -28)"/><path class="cls-10" d="M52.38,38.73c-.07,0-.16-.06-.19-.14s.09,0,.12,0c.27-.4.66-.71.93-1.12a1.22,1.22,0,0,1,.15-.17l1-1q.29-.28.57-.6a3.67,3.67,0,0,1,1-.77.72.72,0,0,1,.61-.07c0,.16-.16.12-.24.18a3.13,3.13,0,0,0-1.08.75c-.93.88-1.73,1.88-2.64,2.77A2.18,2.18,0,0,1,52.38,38.73Z" transform="translate(-30.75 -28)"/><path class="cls-11" d="M55.18,41c0-.29,0-.57,0-.85,0-.08,0-.17-.06-.24a.71.71,0,0,1,0-.72c.22-.61.48-1.2.73-1.8,0-.1.09-.21.22-.23s.12.08.07.17-.18.42-.26.64c-.18.45-.36.9-.53,1.35a.92.92,0,0,0-.06.33l0,1A.87.87,0,0,1,55.18,41Z" transform="translate(-30.75 -28)"/><path class="cls-12" d="M42.11,59.34a3.17,3.17,0,0,1-.54-.36.42.42,0,0,1-.16-.38q0-.37,0-.75c0-.36-.08-.72-.13-1.08,0-.11,0-.22,0-.33s-.09-.26.06-.36a.2.2,0,0,1,.1.16,14.43,14.43,0,0,1,.27,2,.85.85,0,0,0,.39.84l.07.09,0,0S42.24,59.31,42.11,59.34Z" transform="translate(-30.75 -28)"/><path class="cls-13" d="M44.35,60.79l.08.08a.49.49,0,0,1-.56.24,1.6,1.6,0,0,1-1.33-1c-.07-.15-.13-.31-.2-.46s.13,0,.19,0a1.83,1.83,0,0,1,.36.58,1.24,1.24,0,0,0,1,.68C44.05,60.9,44.18,60.77,44.35,60.79Z" transform="translate(-30.75 -28)"/><path class="cls-14" d="M43.43,69l.12-.07a.27.27,0,0,1,.12,0c.32,0,.64,0,1,0,.13,0,.29,0,.29.19s-.17.19-.3.19a2.88,2.88,0,0,1-1.3-.12.09.09,0,0,1,0-.11h0S43.39,69.06,43.43,69Z" transform="translate(-30.75 -28)"/><path class="cls-15" d="M56.29,35a.16.16,0,0,1,.14-.07.16.16,0,0,0,.13-.06h.06s.1,0,.14.06A.45.45,0,0,0,57,35c.2,0,.3.15.41.29a.35.35,0,0,1,.06.28.18.18,0,0,1-.13.2.16.16,0,0,0-.08.06h0s-.09,0-.12.06h0c-.07,0-.11,0-.14-.05a.11.11,0,0,1,0-.08c.29-.26.27-.38-.08-.54A5.46,5.46,0,0,1,56.29,35Z" transform="translate(-30.75 -28)"/><path class="cls-16" d="M41.3,56.09c-.1.11,0,.24-.07.35a1,1,0,0,1-.06-.38V54.51h.07c.16.18,0,.43.14.63S41.5,55.79,41.3,56.09Z" transform="translate(-30.75 -28)"/><path class="cls-17" d="M50.33,68.55a1.8,1.8,0,0,0-.06-.32s0-.06,0-.08l.11-.06a1.79,1.79,0,0,1,1.29,0c0,.06,0,.1,0,.14a2.28,2.28,0,0,1-.78,0,.48.48,0,0,0-.46.23A.08.08,0,0,1,50.33,68.55Z" transform="translate(-30.75 -28)"/><path class="cls-18" d="M48.13,68v.07c0,.11,0,.23,0,.34v.25s-.07,0-.09,0c-.16-.53-.18-.55-.76-.55h-.16c-.13,0-.28,0-.33-.16A2.12,2.12,0,0,1,48,67.88.26.26,0,0,1,48.13,68Z" transform="translate(-30.75 -28)"/><path class="cls-19" d="M56.1,37.34A.17.17,0,0,0,56,37.2a.12.12,0,0,1,0-.15,3.62,3.62,0,0,1,.53-.86.12.12,0,0,1,.11.09A11.75,11.75,0,0,1,56.1,37.34Z" transform="translate(-30.75 -28)"/><path class="cls-20" d="M53.5,66.91a.44.44,0,0,1,.23,0,.31.31,0,0,1,.26.33,6.18,6.18,0,0,0,.07.62.1.1,0,0,1-.1,0,.65.65,0,0,1-.14-.44c0-.23-.12-.33-.35-.34s-.3,0-.37-.14C53.22,66.87,53.38,67,53.5,66.91Z" transform="translate(-30.75 -28)"/><path class="cls-21" d="M49.66,38.65c0,.06.08.07.14.08a1.86,1.86,0,0,1-.93.46l-.1-.08A2.23,2.23,0,0,1,49.66,38.65Z" transform="translate(-30.75 -28)"/><path class="cls-22" d="M42.16,69.75a1.52,1.52,0,0,1,.52-.27c.06,0,.08,0,.1,0a3.5,3.5,0,0,0-.13.56c-.11,0-.16,0-.19-.11s-.08-.15-.18-.16a.11.11,0,0,1-.08,0Z" transform="translate(-30.75 -28)"/><path class="cls-23" d="M50.46,70.68s-.06-.05-.06-.08a3,3,0,0,1,0-.6,2.26,2.26,0,0,0,0-.26,1.13,1.13,0,0,1,0-.32.06.06,0,0,1,.09,0c.11.2,0,.43.08.65s0,.23,0,.34a.37.37,0,0,1,.05.11.14.14,0,0,1-.13.15Z" transform="translate(-30.75 -28)"/><path class="cls-24" d="M44.48,66.88a.06.06,0,0,1,.06,0l.08,0,.12,0c.06,0,.14,0,.21-.05h.34c.07.08.22,0,.27.1a.19.19,0,0,1-.21.11,3.09,3.09,0,0,0-.86.13A.13.13,0,0,1,44.48,66.88Z" transform="translate(-30.75 -28)"/><path class="cls-25" d="M54.85,69.08l.18.14c0,.08,0,.13-.08.18a.45.45,0,0,1-.16,0,.7.7,0,0,1-.29,0c-.2-.07-.23-.17,0-.27a1.05,1.05,0,0,0,.24-.06A.12.12,0,0,1,54.85,69.08Z" transform="translate(-30.75 -28)"/><path class="cls-26" d="M56.64,36.28l-.09-.09c0-.32.22-.37.47-.38a.17.17,0,0,0,.13.07C57,36,56.77,36.1,56.64,36.28Z" transform="translate(-30.75 -28)"/><path class="cls-27" d="M45.57,66.78c-.1,0-.21,0-.28-.08s0,0,0,0h1.16c.09,0,.18,0,.19.13l0,0-.1,0C46.21,66.81,45.87,66.94,45.57,66.78Z" transform="translate(-30.75 -28)"/><path class="cls-28" d="M53.5,66.91a.17.17,0,0,1-.14,0l-.26,0a.92.92,0,0,1-.67,0,.15.15,0,0,1-.11-.18,4.58,4.58,0,0,1,.53,0,2,2,0,0,0,.42,0Z" transform="translate(-30.75 -28)"/><path class="cls-29" d="M42,70.56a1.1,1.1,0,0,1,0-.67.17.17,0,0,1,.12-.14h0a.19.19,0,0,1,0,.1,3.19,3.19,0,0,1-.08.61A.14.14,0,0,1,42,70.56Z" transform="translate(-30.75 -28)"/><path class="cls-30" d="M46.68,71.27l-.25.08c-.06,0-.09,0-.11,0a2.57,2.57,0,0,0-.08-.38.29.29,0,0,1,0-.09c.12-.12.18,0,.24.07a.36.36,0,0,0,.18.22.16.16,0,0,1,0,.07A.2.2,0,0,1,46.68,71.27Z" transform="translate(-30.75 -28)"/><path class="cls-31" d="M42.76,69.53l-.08,0a2.13,2.13,0,0,1,.62-.4v.1A.58.58,0,0,1,42.76,69.53Z" transform="translate(-30.75 -28)"/><path class="cls-32" d="M55.91,69.74a.94.94,0,0,1,.35.2.12.12,0,0,1-.07,0,.28.28,0,0,0-.25.17c0,.08-.08.19-.21.09a1,1,0,0,1,.05-.45S55.85,69.71,55.91,69.74Z" transform="translate(-30.75 -28)"/><path class="cls-33" d="M42.43,71.54c-.26-.05-.33-.24-.32-.47.06-.06,0-.15.06-.21a.11.11,0,0,1,.11.07.65.65,0,0,0,.22.47.08.08,0,0,1,0,.08Z" transform="translate(-30.75 -28)"/><path class="cls-34" d="M42.51,59.67l-.17-.06-.23-.27c.06-.05,0-.09,0-.14C42.42,59.22,42.52,59.35,42.51,59.67Z" transform="translate(-30.75 -28)"/><path class="cls-35" d="M48.13,68,48,68a.68.68,0,0,1-.06-.54.21.21,0,0,1,.06-.1v0a.11.11,0,0,1,.08.12C48.11,67.61,48.12,67.81,48.13,68Z" transform="translate(-30.75 -28)"/><path class="cls-36" d="M54.62,71.88a.77.77,0,0,1-.37,0c-.14-.06-.3,0-.42-.07.17-.24.41-.12.63-.11A.21.21,0,0,1,54.62,71.88Z" transform="translate(-30.75 -28)"/><path class="cls-37" d="M52,71.53a.44.44,0,0,1-.2-.08.13.13,0,0,1,0-.12c0-.1,0-.21.12-.29a.16.16,0,0,1,.21.06,1,1,0,0,1,0,.34A.2.2,0,0,1,52,71.53Z" transform="translate(-30.75 -28)"/><path class="cls-38" d="M55,69.33l.07-.11a1.32,1.32,0,0,1,.54.33l0,0a.14.14,0,0,1-.08,0h0C55.27,69.54,55.07,69.5,55,69.33Z" transform="translate(-30.75 -28)"/><path class="cls-39" d="M56.15,70l.11,0a.19.19,0,0,1,.13.17,1.21,1.21,0,0,1,0,.73c-.18-.17,0-.41-.13-.6S56.13,70.07,56.15,70Z" transform="translate(-30.75 -28)"/><path class="cls-40" d="M42.17,70.87c0,.07,0,.15-.06.2,0-.17-.13-.32-.09-.51l.08-.08a.59.59,0,0,1,.21.3C42.29,70.85,42.22,70.84,42.17,70.87Z" transform="translate(-30.75 -28)"/><path class="cls-41" d="M48,68.69h.06a5.82,5.82,0,0,1-.06,1c-.11-.09-.09-.22-.1-.34s0-.35,0-.52A.26.26,0,0,1,48,68.69Z" transform="translate(-30.75 -28)"/><path class="cls-42" d="M56.29,71.07a2.17,2.17,0,0,1,0,.36c0,.1,0,.21-.18.23a.09.09,0,0,1-.08-.09,1.21,1.21,0,0,0,.11-.37.19.19,0,0,1,.09-.14A.06.06,0,0,1,56.29,71.07Z" transform="translate(-30.75 -28)"/><path class="cls-43" d="M56,71.59l.07.07-.2.11a.19.19,0,0,0-.13,0h-.12s-.16,0-.15-.11A.54.54,0,0,1,56,71.59Z" transform="translate(-30.75 -28)"/><path class="cls-44" d="M54.85,69.08l-.09.08a.59.59,0,0,1-.41-.31s0-.07.09-.09A1.27,1.27,0,0,1,54.85,69.08Z" transform="translate(-30.75 -28)"/><path class="cls-45" d="M56.29,70.14a.24.24,0,0,1,.07.21c0,.16,0,.32,0,.49s0,.14-.07.18a.22.22,0,0,1-.11-.18C56.22,70.61,56.14,70.36,56.29,70.14Z" transform="translate(-30.75 -28)"/><path class="cls-46" d="M50.41,68.14H50.3c0-.19,0-.38,0-.57a.1.1,0,0,1,.08-.09h.19a.07.07,0,0,1,0,.09C50.42,67.73,50.53,68,50.41,68.14Z" transform="translate(-30.75 -28)"/><path class="cls-47" d="M45.44,71.74a.22.22,0,0,1-.15.06,4.57,4.57,0,0,1-.74,0,.08.08,0,0,1,0-.09.58.58,0,0,1,.26,0,2.27,2.27,0,0,1,.52,0A.16.16,0,0,1,45.44,71.74Z" transform="translate(-30.75 -28)"/><path class="cls-48" d="M53.92,72a1.6,1.6,0,0,1-.84,0c.16-.15.36-.08.55-.1A.48.48,0,0,1,53.92,72Z" transform="translate(-30.75 -28)"/><path class="cls-49" d="M48.05,69.94l0,.4a.11.11,0,0,1-.12,0c-.08-.07,0-.17-.08-.24a.17.17,0,0,1,0-.12.2.2,0,0,1,.13-.11A.16.16,0,0,1,48.05,69.94Z" transform="translate(-30.75 -28)"/><path class="cls-50" d="M44.28,68.05h0a.05.05,0,0,1,.08,0c.09.16,0,.28-.1.39a.16.16,0,0,1-.09,0,.12.12,0,0,1-.08,0,.21.21,0,0,1,.06-.2l.06-.07h0A.13.13,0,0,0,44.28,68.05Z" transform="translate(-30.75 -28)"/><path class="cls-51" d="M43.66,69h-.11a.86.86,0,0,1,.31-.29h.08a.09.09,0,0,1,0,.08A.36.36,0,0,1,43.66,69Z" transform="translate(-30.75 -28)"/><path class="cls-52" d="M44,68.69l-.08,0v0c.08-.07.19-.12.23-.23h.06s.14,0,.15.12a.13.13,0,0,1-.11.1s0-.06-.07,0l-.06.05A.11.11,0,0,1,44,68.69Z" transform="translate(-30.75 -28)"/><path class="cls-53" d="M54,67.89h.09a.1.1,0,0,1,0,.1,1.7,1.7,0,0,1,0,.22c0,.08,0,.1-.08.1A.28.28,0,0,1,54,67.89Z" transform="translate(-30.75 -28)"/><path class="cls-54" d="M55.91,69.74l-.1.09c-.14,0-.29,0-.31-.21v0l0,0,0,0Z" transform="translate(-30.75 -28)"/><path class="cls-55" d="M53.65,71.92l-.57,0H53s0-.06,0-.09a.79.79,0,0,1,.62,0A.1.1,0,0,1,53.65,71.92Z" transform="translate(-30.75 -28)"/><path class="cls-56" d="M48.05,69.94h-.12a.59.59,0,0,1,0-.56.07.07,0,0,1,.1,0v.35Z" transform="translate(-30.75 -28)"/><path class="cls-57" d="M50.45,69.42h-.06l0-.34s-.06-.2.11-.19A.41.41,0,0,1,50.45,69.42Z" transform="translate(-30.75 -28)"/><path class="cls-58" d="M44.82,71.73h-.26a.48.48,0,0,1-.37,0h0s-.07,0,0-.08a.26.26,0,0,1,.15-.07,1,1,0,0,1,.5,0A.06.06,0,0,1,44.82,71.73Z" transform="translate(-30.75 -28)"/><path class="cls-59" d="M51.26,71.2l-.18,0a.19.19,0,0,1-.15-.09A.12.12,0,0,1,51,71a.21.21,0,0,1,.28.14A.16.16,0,0,1,51.26,71.2Z" transform="translate(-30.75 -28)"/><path class="cls-60" d="M44.36,67.69a3.65,3.65,0,0,0,.07-.46.06.06,0,0,1,.09,0,.43.43,0,0,1,0,.45.17.17,0,0,1-.1,0Z" transform="translate(-30.75 -28)"/><path class="cls-61" d="M52.76,71.87h-.15s-.06,0-.09,0h0a.15.15,0,0,1,0-.09.07.07,0,0,1,.07-.06c.14,0,.35,0,.35.24A.18.18,0,0,1,52.76,71.87Z" transform="translate(-30.75 -28)"/><path class="cls-62" d="M43,71.61h-.35a.2.2,0,0,1-.18-.06.08.08,0,0,1,0,0l0,0s0,0,0,0a.94.94,0,0,1,.5,0,.1.1,0,0,1,0,.08Z" transform="translate(-30.75 -28)"/><path class="cls-63" d="M53.65,71.92v0a.12.12,0,0,1,.17,0h.25c.07,0,.13,0,.18,0a.93.93,0,0,1-.33,0Z" transform="translate(-30.75 -28)"/><path class="cls-64" d="M54.05,68.29l.07-.09c0,.1.17.16.17.29s0,.09-.1.08S54,68.46,54.05,68.29Z" transform="translate(-30.75 -28)"/><path class="cls-65" d="M45.88,71.6a.53.53,0,0,1-.34.13.11.11,0,0,1,0-.08c0-.12.16-.13.27-.14A.11.11,0,0,1,45.88,71.6Z" transform="translate(-30.75 -28)"/><path class="cls-66" d="M50.4,68.88c0,.07,0,.14,0,.2a1.87,1.87,0,0,1,0-.53h.06A.23.23,0,0,1,50.4,68.88Z" transform="translate(-30.75 -28)"/><path class="cls-67" d="M44,71.73a1.32,1.32,0,0,1-.56,0,.22.22,0,0,1,.2-.09.53.53,0,0,1,.33,0A.08.08,0,0,1,44,71.73Z" transform="translate(-30.75 -28)"/><path class="cls-68" d="M46.35,71.28l.08.07a.67.67,0,0,1-.29.12s-.08,0-.07-.11A.2.2,0,0,1,46.35,71.28Z" transform="translate(-30.75 -28)"/><path class="cls-69" d="M47.68,70.76a.36.36,0,0,1-.18.12.09.09,0,0,1-.1,0c0-.19.11-.23.28-.21A.07.07,0,0,1,47.68,70.76Z" transform="translate(-30.75 -28)"/><path class="cls-70" d="M52.32,71.67a.46.46,0,0,1-.29-.13.28.28,0,0,1,.1-.09.21.21,0,0,1,.22.13A.14.14,0,0,1,52.32,71.67Z" transform="translate(-30.75 -28)"/><path class="cls-71" d="M55.37,71.81a.72.72,0,0,1-.41,0,.06.06,0,0,1,0-.08.29.29,0,0,1,.13,0,.45.45,0,0,1,.23,0Z" transform="translate(-30.75 -28)"/><path class="cls-72" d="M44.38,68h-.09V67.8a.11.11,0,0,1,.07-.11h0a.73.73,0,0,1,.07.24A.08.08,0,0,1,44.38,68Z" transform="translate(-30.75 -28)"/><path class="cls-73" d="M43.44,71.67a.76.76,0,0,1-.42-.06v0a.39.39,0,0,1,.3-.06l.09,0S43.45,71.63,43.44,71.67Z" transform="translate(-30.75 -28)"/><path class="cls-74" d="M51.65,71.4c-.07,0-.16,0-.21-.12a.08.08,0,0,1,0-.08.23.23,0,0,1,.29.1C51.74,71.36,51.7,71.38,51.65,71.4Z" transform="translate(-30.75 -28)"/><path class="cls-75" d="M45.88,71.6l-.06,0c0-.1.09-.13.19-.13a.16.16,0,0,1,.08.06.17.17,0,0,1-.11.06h0Z" transform="translate(-30.75 -28)"/><path class="cls-76" d="M47.86,70.33H48l0,.13a.09.09,0,0,1-.07,0,.34.34,0,0,1-.19-.09.08.08,0,0,1,0-.08A.11.11,0,0,1,47.86,70.33Z" transform="translate(-30.75 -28)"/><path class="cls-77" d="M47.94,70.48H48a.23.23,0,0,1-.18.21.1.1,0,0,1,0-.09C47.8,70.51,47.83,70.44,47.94,70.48Z" transform="translate(-30.75 -28)"/><path class="cls-78" d="M48.08,68.43c0-.12-.06-.24,0-.34A.65.65,0,0,1,48.08,68.43Z" transform="translate(-30.75 -28)"/><path class="cls-79" d="M47.81,70.59v.09a.26.26,0,0,1-.13.08v-.09C47.67,70.57,47.73,70.57,47.81,70.59Z" transform="translate(-30.75 -28)"/><path class="cls-80" d="M44.19,71.74h.37a.13.13,0,0,1,0,.06A.64.64,0,0,1,44.19,71.74Z" transform="translate(-30.75 -28)"/><path class="cls-81" d="M47.15,71c0,.08-.15.08-.21.13l0,0a.28.28,0,0,1,0-.09c.06-.08.13-.14.23-.09A.06.06,0,0,1,47.15,71Z" transform="translate(-30.75 -28)"/><path class="cls-82" d="M44.49,67.23h-.06a.53.53,0,0,1,0-.35l0,.15A.14.14,0,0,1,44.49,67.23Z" transform="translate(-30.75 -28)"/><path class="cls-83" d="M50.67,70.94l-.09-.07a.07.07,0,0,0,0,0,0,0,0,0,1,0,0s0-.05,0-.07.18,0,.22.13a.15.15,0,0,1,0,.09A0,0,0,0,1,50.67,70.94Z" transform="translate(-30.75 -28)"/><path class="cls-84" d="M55,71.81v0a.62.62,0,0,1-.27,0,.1.1,0,0,1,0-.09l.09,0A.19.19,0,0,1,55,71.81Z" transform="translate(-30.75 -28)"/><path class="cls-85" d="M55.48,71.73a.17.17,0,0,1,.16.07h-.27v0a0,0,0,0,1,0-.07A.1.1,0,0,1,55.48,71.73Z" transform="translate(-30.75 -28)"/><path class="cls-86" d="M43.44,71.67l0-.07a.21.21,0,0,1,.25,0s0,.05,0,.09l-.21,0h0Z" transform="translate(-30.75 -28)"/><path class="cls-87" d="M54.44,68.76l-.07.06a.07.07,0,0,1-.09,0,.19.19,0,0,1,0-.18l0,0Z" transform="translate(-30.75 -28)"/><path class="cls-88" d="M47.15,71V71a.13.13,0,0,1,.14-.1.15.15,0,0,1,.08.11Z" transform="translate(-30.75 -28)"/><path class="cls-89" d="M50.72,70.93v-.07c.13,0,.2,0,.21.14s-.06,0-.09,0h-.07S50.72,71,50.72,70.93Z" transform="translate(-30.75 -28)"/><path class="cls-90" d="M51.65,71.4l.08-.07c.07,0,.12,0,.14.06l-.08.06Z" transform="translate(-30.75 -28)"/><path class="cls-91" d="M56.23,70.88c.06,0,.06.09.07.14a0,0,0,0,1,0,0h0a.12.12,0,0,1-.06-.12A.13.13,0,0,1,56.23,70.88Z" transform="translate(-30.75 -28)"/><path class="cls-82" d="M45,66.71a.21.21,0,0,1-.21.05A.23.23,0,0,1,45,66.71Z" transform="translate(-30.75 -28)"/><path class="cls-92" d="M47.36,71l-.08-.08a.06.06,0,0,1,.09,0l.13,0A.18.18,0,0,1,47.36,71Z" transform="translate(-30.75 -28)"/><path class="cls-93" d="M52.51,71.68v.08a.09.09,0,0,1-.11,0,.07.07,0,0,1,0,0s0,0,0-.06a0,0,0,0,1,0,0C52.45,71.57,52.49,71.61,52.51,71.68Z" transform="translate(-30.75 -28)"/><path class="cls-94" d="M54.71,71.8l0,.07,0,0h0l-.12-.07A.13.13,0,0,1,54.71,71.8Z" transform="translate(-30.75 -28)"/><path class="cls-95" d="M51.26,71.2a.13.13,0,0,0,0-.06c.07-.06.12,0,.16,0a.08.08,0,0,1,0,.09C51.33,71.27,51.3,71.23,51.26,71.2Z" transform="translate(-30.75 -28)"/><path class="cls-96" d="M52.76,71.87H53l0,.07A.34.34,0,0,1,52.76,71.87Z" transform="translate(-30.75 -28)"/><path class="cls-87" d="M54.23,68.57l.06-.08,0,.12,0,0s0,0-.06,0A.06.06,0,0,1,54.23,68.57Z" transform="translate(-30.75 -28)"/><path class="cls-97" d="M46.94,71.15a.15.15,0,0,1-.12.07l0,0c0-.07.07-.09.14-.05Z" transform="translate(-30.75 -28)"/><path class="cls-98" d="M50.53,70.73v.06c-.06,0-.09-.05-.07-.11h0C50.52,70.64,50.53,70.68,50.53,70.73Z" transform="translate(-30.75 -28)"/><path class="cls-31" d="M43.43,69a.12.12,0,0,1-.14.06A.13.13,0,0,1,43.43,69Z" transform="translate(-30.75 -28)"/><path class="cls-2" d="M56.76,34.88a.13.13,0,0,1-.14-.06A.13.13,0,0,1,56.76,34.88Z" transform="translate(-30.75 -28)"/><path class="cls-99" d="M50.85,71l.1,0,0,0-.06.06Z" transform="translate(-30.75 -28)"/><path class="cls-85" d="M55.76,71.8s.07-.08.13,0A.15.15,0,0,1,55.76,71.8Z" transform="translate(-30.75 -28)"/><path class="cls-97" d="M46.68,71.27a.09.09,0,0,0,0,0s.07,0,.12,0v0A.15.15,0,0,1,46.68,71.27Z" transform="translate(-30.75 -28)"/><path class="cls-2" d="M55.17,41.83a.12.12,0,0,1-.1.08.07.07,0,0,1-.06,0,.14.14,0,0,1,0-.06h.14Z" transform="translate(-30.75 -28)"/><path class="cls-100" d="M52.39,71.73l.11,0v0A.1.1,0,0,1,52.39,71.73Z" transform="translate(-30.75 -28)"/><path class="cls-101" d="M45.55,71.65v.08h-.12a.06.06,0,0,1,0-.08S45.51,71.62,45.55,71.65Z" transform="translate(-30.75 -28)"/><path class="cls-102" d="M50.72,70.93l.06.08c-.06,0-.1,0-.11-.07Z" transform="translate(-30.75 -28)"/><path class="cls-80" d="M44,71.73v0a.09.09,0,0,1,.14,0l0,.07Z" transform="translate(-30.75 -28)"/><path class="cls-26" d="M57.16,35.87a.12.12,0,0,1,.12-.06A.12.12,0,0,1,57.16,35.87Z" transform="translate(-30.75 -28)"/><path class="cls-103" d="M46.09,71.48l-.1,0s0-.08.09-.06l.06.07h0Z" transform="translate(-30.75 -28)"/><path class="cls-104" d="M52.12,71.49l-.09.05s0,0,0,0l.06-.06S52.1,71.46,52.12,71.49Z" transform="translate(-30.75 -28)"/><path class="cls-72" d="M44.28,68.05a.13.13,0,0,1-.06.11Z" transform="translate(-30.75 -28)"/><path class="cls-82" d="M44.62,66.78a.08.08,0,0,1-.08,0S44.58,66.77,44.62,66.78Z" transform="translate(-30.75 -28)"/><path class="cls-103" d="M46,71.54Z" transform="translate(-30.75 -28)"/><path class="cls-105" d="M42.5,71.5v.06l-.06,0S42.46,71.49,42.5,71.5Z" transform="translate(-30.75 -28)"/><path class="cls-106" d="M52.38,71.61v.07h-.06v-.09A.08.08,0,0,1,52.38,71.61Z" transform="translate(-30.75 -28)"/><polygon class="cls-107" points="13.12 40.65 13.13 40.67 13.11 40.66 13.12 40.65"/><path class="cls-26" d="M57.29,35.81s0-.06.08-.06A.08.08,0,0,1,57.29,35.81Z" transform="translate(-30.75 -28)"/><path class="cls-108" d="M51.38,71.26a.09.09,0,0,0,0-.05s0,0,.06,0v.06A.07.07,0,0,1,51.38,71.26Z" transform="translate(-30.75 -28)"/><path class="cls-102" d="M50.53,70.83s0,0,0,0Z" transform="translate(-30.75 -28)"/><path class="cls-100" d="M52.52,71.81a.09.09,0,0,1,.09,0A.11.11,0,0,1,52.52,71.81Z" transform="translate(-30.75 -28)"/><path class="cls-72" d="M44.22,68.15l-.06.07A.07.07,0,0,1,44.22,68.15Z" transform="translate(-30.75 -28)"/><path class="cls-109" d="M42.69,42a.75.75,0,0,1-.1-.17c-.15-.49-.28-1-.42-1.46-.05-.08,0-.16,0-.24a3.27,3.27,0,0,0-.45-1.67c-.15-.33-.25-.68-.37-1a.67.67,0,0,1-.07-.18.08.08,0,0,1,0-.09.13.13,0,0,1,.12-.13l.84-.18c.06,0,.1,0,.15,0s.19,0,.26.09a7.42,7.42,0,0,1,.88,1,.33.33,0,0,1-.06.54,1.19,1.19,0,0,0-.4.77c.09-.15.12-.34.21-.5a.52.52,0,0,1,.42-.34c.2,0,.29.17.39.31a.29.29,0,0,1,0,.42,2.86,2.86,0,0,0-.69,2.17,4.41,4.41,0,0,1,.29-1.52,1.58,1.58,0,0,1,.34-.55c.17-.17.33-.22.51,0s.4.53.62.78a.83.83,0,0,1,.14.72A6.41,6.41,0,0,0,44.81,42a1.09,1.09,0,0,0,0,.62c0,.05,0,.1,0,.14a.42.42,0,0,0,.08.18,4.12,4.12,0,0,0,.33.4.89.89,0,0,1,.17.8.25.25,0,0,1-.3.24,1.83,1.83,0,0,0-.4-.05l-.1,0a1.33,1.33,0,0,1-.65-.52,1.1,1.1,0,0,1-.29-.85.31.31,0,0,0-.28-.37.89.89,0,0,1-.5-.23,1.38,1.38,0,0,1-.22-.26A.1.1,0,0,1,42.69,42Z" transform="translate(-30.75 -28)"/><path class="cls-2" d="M45.23,40.78c0-.07,0-.15,0-.22A.76.76,0,0,0,45,40a2.54,2.54,0,0,1-.47-.62,1.07,1.07,0,0,0-.2-.38,22,22,0,0,0-1.43-1.76,1.46,1.46,0,0,0-.42-.32s0,0,0,0l.81-.15a.16.16,0,0,0,0,.14,10.07,10.07,0,0,0,.82.9,1.07,1.07,0,0,1,.25.35,3.27,3.27,0,0,0,.32.5.26.26,0,0,0,.32.09,2.32,2.32,0,0,1,1.17,0l0,0a1.09,1.09,0,0,1-.54.23c-.15-.11-.17,0-.21.12a2.21,2.21,0,0,0,0,1.17C45.59,40.57,45.53,40.67,45.23,40.78Z" transform="translate(-30.75 -28)"/><path class="cls-110" d="M42.45,36.87a.37.37,0,0,1,.35.14,14.08,14.08,0,0,1,1.12,1.33c.18.26.39.5.58.76a.15.15,0,0,1,0,.23c-.24-.19-.24-.19-.44,0a1.61,1.61,0,0,0-.29.51,3.71,3.71,0,0,0-.28,1.32.74.74,0,0,1,0,.36.09.09,0,0,1-.07,0,.12.12,0,0,1-.07,0,.3.3,0,0,1,0-.13,3.61,3.61,0,0,1,.29-1.65,1.83,1.83,0,0,1,.59-.76,2.13,2.13,0,0,0-.36-.49c-.05-.05-.11,0-.16,0a.74.74,0,0,0-.29.38c0,.14-.09.28-.14.41a1,1,0,0,1-.1.21.08.08,0,0,1-.11,0,.11.11,0,0,1-.07-.11.31.31,0,0,1,0-.13,1.34,1.34,0,0,1,.07-.18c.21-.56.13-.47.59-.84a5,5,0,0,0-1.21-1.37Z" transform="translate(-30.75 -28)"/><path class="cls-111" d="M41.31,37.2v.07s-.06,0-.08,0,0-.08,0-.13Z" transform="translate(-30.75 -28)"/><path class="cls-27" d="M46.68,66.83s.06,0,0,.07c0,.24.13.29.31.32s.18,0,.24.07a.14.14,0,0,1-.08.1h-.09l-.23,0a.3.3,0,0,1-.2-.06.36.36,0,0,1,0-.48Z" transform="translate(-30.75 -28)"/><path class="cls-112" d="M47.21,67.35l.07-.06c.24,0,.48,0,.72,0v.07A.77.77,0,0,1,47.21,67.35Z" transform="translate(-30.75 -28)"/><path class="cls-113" d="M44.77,49.26l0-.11a.16.16,0,0,1,.08-.1,1.36,1.36,0,0,1,1.49.45,2.18,2.18,0,0,1,.1,2.06.6.6,0,0,1-1,.28l-.15-.11-.07,0-.07,0h0c-.07,0-.13,0-.17,0a.52.52,0,0,0,0,.11A2.38,2.38,0,0,1,45,52a1.09,1.09,0,0,0,0,.18,1.76,1.76,0,0,0,.08.82c0,.11.06.21.2.22a.27.27,0,0,1,.18,0c.08.24-.12.28-.25.36a.93.93,0,0,0-.4,1.11.56.56,0,0,0,.76.32c.2-.06.39-.24.62-.1a.11.11,0,0,1-.07.16,1.93,1.93,0,0,0-.46.16.7.7,0,0,1-.75,0h-.09a1.08,1.08,0,0,0,0,.31c0,.11,0,.22,0,.33s0,.22,0,.33c-.18.08-.36,0-.55,0a3.24,3.24,0,0,1-.41-.13.54.54,0,0,1-.41-.6,6.51,6.51,0,0,0-.21-2.11c0-.06,0-.13,0-.19a1.08,1.08,0,0,1,0-.36c.07-.17.15-.12.23,0a8.11,8.11,0,0,1,.31,2.55c.5-.42.5-.42.62-1a1.06,1.06,0,0,1,.19-.52A.82.82,0,0,0,44.7,53a1.64,1.64,0,0,1-.07-.85,1.72,1.72,0,0,0,0-.39c0-.39.24-.55.61-.45a2.3,2.3,0,0,1,.42.2c.24.11.4.06.5-.19a1.82,1.82,0,0,0-.13-1.68c-.22-.34-.58-.3-.93-.31C45,49.36,44.85,49.45,44.77,49.26Z" transform="translate(-30.75 -28)"/><path class="cls-114" d="M46.09,55.14l.07-.11a.15.15,0,0,1,.08-.11c.09,0,.17,0,.22.07a4,4,0,0,1,.23.51c.16.48.3,1,.42,1.45a.61.61,0,0,1,0,.23.29.29,0,0,1-.21.23.26.26,0,0,1-.26-.11,1,1,0,0,1-.07-.15,13.78,13.78,0,0,1-.51-1.91Z" transform="translate(-30.75 -28)"/><path class="cls-115" d="M46.46,55a.43.43,0,0,0-.25,0,1,1,0,0,1,1.44-.39,2.57,2.57,0,0,0,.37.28c.2.16.51.18.6.48l-.09.07a3.21,3.21,0,0,1-1.05-.66.43.43,0,0,0-.57-.06Z" transform="translate(-30.75 -28)"/><path class="cls-116" d="M44.34,56.17s.1-.06.16,0l.3.09a2.64,2.64,0,0,0,.15.29.86.86,0,0,1,.14.71c-.06.07-.05.19-.17.22a.13.13,0,0,1-.07-.06,1,1,0,0,0-.41-1A.21.21,0,0,1,44.34,56.17Z" transform="translate(-30.75 -28)"/><path class="cls-116" d="M44.5,57.84c0-.07-.09-.09-.16,0a.55.55,0,0,1-.46.14,1.49,1.49,0,0,1,1-.54l0,0c0,.16-.13.18-.2.27Z" transform="translate(-30.75 -28)"/><path class="cls-7" d="M44.69,57.69c0-.12.16-.16.2-.27s.11-.15.2-.2C45.11,57.5,44.92,57.61,44.69,57.69Z" transform="translate(-30.75 -28)"/><path class="cls-117" d="M52.32,66.84l.06.11s0,0,0,0c-.44,0-.5.3-.47.66a.35.35,0,0,1-.12.37c-.15-.16-.13-.52-.48-.46-.07,0-.16,0-.15-.14a1.6,1.6,0,0,0,.23,0c.18,0,.33-.08.33-.32s.08-.18.25-.18A.89.89,0,0,0,52.32,66.84Z" transform="translate(-30.75 -28)"/><path class="cls-118" d="M51.12,67.43c0,.06.1.06.15.08-.21.23-.44.18-.68,0v0h.14a.28.28,0,0,1,.25,0Z" transform="translate(-30.75 -28)"/><path class="cls-119" d="M51,67.49h-.25C50.84,67.41,50.86,67.41,51,67.49Z" transform="translate(-30.75 -28)"/><path class="cls-120" d="M45.47,51.72l.14.08a.54.54,0,0,0,.78-.22,2.28,2.28,0,0,0,.2-1.26,2.09,2.09,0,0,0-.32-.86.61.61,0,0,0-.44-.31c-.21,0-.42-.06-.63-.08a.73.73,0,0,0-.38.08.22.22,0,0,1-.11-.12c-.07-.23-.14-.45-.2-.68a.3.3,0,0,1,0-.13.63.63,0,0,1,.07-.38,4.88,4.88,0,0,0,.2-2.9c0-.17-.11-.34,0-.51.39-.12.6,0,.64.4a1.08,1.08,0,0,0,0,.19l.06.25a.4.4,0,0,1,0,.15.81.81,0,0,0,.42.66,1.81,1.81,0,0,1,.41.32,1.14,1.14,0,0,1,.16.31,5.79,5.79,0,0,0,.18,1.37,2.49,2.49,0,0,0,3.71,1.47A3.84,3.84,0,0,0,52.56,46a3.2,3.2,0,0,0-.14-1.11.36.36,0,0,1,0-.32,3.57,3.57,0,0,0,.72-.5,2.51,2.51,0,0,0,.55-1,.32.32,0,0,1,.19-.2c.2.29.08.61.08.92a9.18,9.18,0,0,0,.73,4.48,2.12,2.12,0,0,0,1.83,1.31.35.35,0,0,1,.27.11,2.7,2.7,0,0,1,0,1,5.87,5.87,0,0,0,0,.59c-.08.48-.08,1-.17,1.44a.41.41,0,0,1-.47.39h-1a16.53,16.53,0,0,0-2.72.3,2.78,2.78,0,0,0-.49.08c-.95.06-1.89.1-2.84.09a2.81,2.81,0,0,1-.82.06,2.88,2.88,0,0,1-.91-.26A2,2,0,0,0,46,53.16l-.1,0c-.17-.12-.15-.31-.2-.47a7.91,7.91,0,0,1-.28-.91S45.43,51.7,45.47,51.72Z" transform="translate(-30.75 -28)"/><path class="cls-2" d="M44.77,49.26s.09.07.15.05a1.64,1.64,0,0,1,.88,0,.53.53,0,0,1,.35.27,2,2,0,0,1,.13,1.81.4.4,0,0,1-.64.21l-.25-.16a.52.52,0,0,0-.5,0c-.09,0-.13.08-.13.17s0,.24,0,.36a.29.29,0,0,1-.06.22.59.59,0,0,1,0-.59,14.25,14.25,0,0,1-1,1.08c-.07.08-.12.2-.26.16l0,0-.05,0,0,0v.38c-.06.1-.11.22-.26.21a6.54,6.54,0,0,0,0,1.17c0,.16,0,.33-.08.48-.22,0-.15-.21-.17-.33a3.31,3.31,0,0,0-.06-.94c-.14,0-.22.06-.31.14a1.49,1.49,0,0,1-.52.33c-.1.06,0,.13,0,.2a.41.41,0,0,1,0,.31c-.16.07-.14-.08-.18-.15s0-.12-.1-.11-.08.07-.1.12,0,.35-.12.49a.28.28,0,0,1-.06-.18V54.5a.2.2,0,0,0-.08-.2,1.29,1.29,0,0,1-.37-.61,2.33,2.33,0,0,1-.07-.53c0-.43-.09-.85-.13-1.28a12.77,12.77,0,0,1-.08-1.38,7.81,7.81,0,0,0-.12-1.45v0c0-.36-.07-.73-.07-1.09,0-.93,0-1.85,0-2.78a.69.69,0,0,0-.21-.57.57.57,0,0,1-.17-.28,2.59,2.59,0,0,1-.08-1.46,1.6,1.6,0,0,1,.39-.68.32.32,0,0,1,.25-.15.18.18,0,0,0,.12,0,.44.44,0,0,1,.49-.08h.06a0,0,0,0,0,0,0c0-.13,0-.13.05-.14s.26-.07.39,0,.08,0,.11-.06c.11.33.21.67.31,1l.47,1.58c0,.18.09.36.14.54a.46.46,0,0,0-.48.55,1.28,1.28,0,0,1-.06.32,1,1,0,0,0,0,.56,2.42,2.42,0,0,1,0,.76A9.77,9.77,0,0,0,42,48a1,1,0,0,0-.07.45c0,.76,0,1.52,0,2.28a10.38,10.38,0,0,1,0,1.12.2.2,0,0,1,0,.15,2.57,2.57,0,0,0-.54,1.22.51.51,0,0,0,.15-.29,2.33,2.33,0,0,0,.07-.25,1,1,0,0,1,.61-.72,5.5,5.5,0,0,0,1.27-1c.07,0,.07-.16.09-.24a1.81,1.81,0,0,1,.73-1l.09,0a.35.35,0,0,0,.47-.38S44.77,49.3,44.77,49.26Z" transform="translate(-30.75 -28)"/><path class="cls-2" d="M44.82,44.46a.89.89,0,0,0,0,.32,5.17,5.17,0,0,1-.25,3.27,1.4,1.4,0,0,1-.09.17.18.18,0,0,1-.1-.12c-.3-1-.59-2-.89-3-.21-.72-.43-1.44-.64-2.15a1.71,1.71,0,0,1-.13-.54.08.08,0,0,1,.09,0,1.11,1.11,0,0,0,.5.24.34.34,0,0,1,.29.38,1.19,1.19,0,0,0,.31.84,4.27,4.27,0,0,0,.48.47l.08,0a.47.47,0,0,0,.17,0C44.75,44.37,44.82,44.37,44.82,44.46Z" transform="translate(-30.75 -28)"/><path class="cls-2" d="M42.64,44.82a6.59,6.59,0,0,1,.25.75l.45,1.54c.19.64.37,1.28.56,1.93-.15.28-.44.3-.7.36a3.43,3.43,0,0,1-.48.08c-.2-.18-.1-.44-.13-.65-.11-.63-.22-1.27-.31-1.9a1.26,1.26,0,0,1,0-.39,2.4,2.4,0,0,0,0-1.1.2.2,0,0,1,0-.11C42.18,44.85,42.22,44.8,42.64,44.82Z" transform="translate(-30.75 -28)"/><path class="cls-120" d="M42.75,49.45c0-.07,0-.14.12-.13a1.58,1.58,0,0,0,1-.28,2.68,2.68,0,0,1,.18.63c0,.16-.16.26-.25.38a2.35,2.35,0,0,0-.37.7.55.55,0,0,1-.53.46c-.21-.17-.14-.43-.15-.64A2.49,2.49,0,0,1,42.75,49.45Z" transform="translate(-30.75 -28)"/><path class="cls-121" d="M43,51.19l.06-.07c.3-.24.26-.18.34-.53a1.16,1.16,0,0,1,.26-.49c.12-.15.26-.29.39-.43l.14.06a.19.19,0,0,1-.09.17,1.73,1.73,0,0,0-.5.69.55.55,0,0,0-.07.25.39.39,0,0,1-.2.32,5.45,5.45,0,0,0-.46.38,2.38,2.38,0,0,1-.89.6.41.41,0,0,0-.27.23,2.27,2.27,0,0,0-.17.5,1,1,0,0,1-.23.51.06.06,0,0,1-.09,0l0-.07s0,0,0,0c.09-.31.18-.62.29-.92a.81.81,0,0,1,.34-.39.74.74,0,0,1,.13-.12,8.22,8.22,0,0,0,.87-.58C42.89,51.24,43,51.24,43,51.19Z" transform="translate(-30.75 -28)"/><path class="cls-122" d="M41.37,37.4c0,.09.09.18.12.27A12.63,12.63,0,0,0,42.07,39a1.93,1.93,0,0,1,.15,1.16c0,.05,0,.1-.11.06a1.56,1.56,0,0,1-.11-.51,6,6,0,0,0-.19-.73.61.61,0,0,1-.05-.12.31.31,0,0,1,0-.08,2.09,2.09,0,0,1-.08-.23l0-.1a.2.2,0,0,1,0-.07.14.14,0,0,0,0-.1,3.48,3.48,0,0,1-.26-.83C41.27,37.4,41.31,37.39,41.37,37.4Z" transform="translate(-30.75 -28)"/><path class="cls-123" d="M42.64,44.82l-.09,0c-.3.09-.3.09-.31.4a.28.28,0,0,0,0,.09c0,.06,0,.13,0,.19s0,.23-.15.29-.08-.13,0-.22c0-.25,0-.5.08-.75,0,0,0-.07,0-.07s.31-.13.47,0A.13.13,0,0,1,42.64,44.82Z" transform="translate(-30.75 -28)"/><path class="cls-124" d="M41.83,38.92a1.3,1.3,0,0,1,.17.82s-.06,0-.07-.07a8.6,8.6,0,0,1-.24-.87.06.06,0,0,1,.09,0v0h0A.14.14,0,0,0,41.83,38.92Z" transform="translate(-30.75 -28)"/><path class="cls-125" d="M41.78,38.79h-.09a.8.8,0,0,1-.11-.4s0,0,0,0a.14.14,0,0,1,0,.06.18.18,0,0,1,0,.07C41.71,38.62,41.78,38.7,41.78,38.79Z" transform="translate(-30.75 -28)"/><path class="cls-126" d="M42.83,42.38s0,0-.06,0l-.08-.14a.11.11,0,0,1,0-.15,1,1,0,0,1,.19.21A.1.1,0,0,1,42.83,42.38Z" transform="translate(-30.75 -28)"/><path class="cls-127" d="M42.11,40.25l.11-.06a.31.31,0,0,1,0,.21A.15.15,0,0,1,42.11,40.25Z" transform="translate(-30.75 -28)"/><path class="cls-128" d="M41.37,37.4l-.07.08a.33.33,0,0,1-.07-.21h.08S41.37,37.35,41.37,37.4Z" transform="translate(-30.75 -28)"/><path class="cls-129" d="M42.71,42.09l0,.15c-.06-.07-.08-.14,0-.21A.14.14,0,0,1,42.71,42.09Z" transform="translate(-30.75 -28)"/><path class="cls-130" d="M41.62,38.4h0l0-.09Z" transform="translate(-30.75 -28)"/><path class="cls-2" d="M48.25,53.5h.51a.54.54,0,0,0,.31-.06,2.14,2.14,0,0,0,.71.06c.46,0,.91,0,1.36,0a2.11,2.11,0,0,0,.56,0h.21a2.5,2.5,0,0,0,.38-.06,17.49,17.49,0,0,1,3.23-.3,2.19,2.19,0,0,1,.72.08.27.27,0,0,0,.34-.11l.1,0c.92,0,1.22-.58,1.15-1.4-.13-1.35-.4-2.68-.56-4a9,9,0,0,0-.21-.9c0-.05,0-.15-.11-.12s0,.28-.11.39-.11-.13-.12-.19a2.26,2.26,0,0,0-.6-1.1.32.32,0,0,0,.11.3,2.4,2.4,0,0,1,.61,1.75,2.17,2.17,0,0,1,0,.26v1.32c0,.12,0,.26-.1.36A2,2,0,0,1,55,48.85a4.16,4.16,0,0,1-.66-1.25,7.66,7.66,0,0,1-.39-2.07,15.86,15.86,0,0,1,0-2.18,1.61,1.61,0,0,0,0-.49,3.23,3.23,0,0,0,.49-.33A5.07,5.07,0,0,1,55.1,42c.32-.15.63-.31,1-.45a2.86,2.86,0,0,1,1.39-.2.64.64,0,0,1,.39.16,3.25,3.25,0,0,0,.29.23,1.06,1.06,0,0,1,.42.85,2,2,0,0,1-.13.88,3.86,3.86,0,0,0-.2,1.26,7,7,0,0,0,.16,1.58.85.85,0,0,1,0,.23,5.28,5.28,0,0,0,.14,1,5.85,5.85,0,0,1,.14.92,4.69,4.69,0,0,0,.1.62,10,10,0,0,1,.16,1.1c0,.28.09.55.14.82.08.45.16.91.25,1.36,0,.27.1.54.17.81a.91.91,0,0,1-.24.91,3.28,3.28,0,0,1-.34.31.3.3,0,0,0-.12.26v.39a.26.26,0,0,1-.06.19.37.37,0,0,1-.1-.3c0-.24-.08-.31-.34-.3-.77,0-1.53.1-2.31.09s-1.56,0-2.34.08c-.11,0-.2-.08-.31-.09a2.23,2.23,0,0,0-1.09,0c-.68,0-1.36.1-2,.12s-1.48.08-2.21.15a.76.76,0,0,1-.39-.29.55.55,0,0,0-.63-.15,2.09,2.09,0,0,0-.78.47l-.05,0s-.07-.06-.11,0-.34.11-.5.18a.59.59,0,0,1-.79-.26.8.8,0,0,1-.09-.72,2.3,2.3,0,0,1,.23-.44.46.46,0,0,1,.23-.18,1,1,0,0,0,.21-.1.16.16,0,0,0,.08-.16.55.55,0,0,0,.52-.12,1.81,1.81,0,0,1,1.45.22,2.43,2.43,0,0,0,1.54.25C48.75,53.62,48.46,53.8,48.25,53.5Z" transform="translate(-30.75 -28)"/><path class="cls-131" d="M53.57,54.76a.49.49,0,0,1,.16,0c.35,0,.69-.09,1.05-.08h1.55a2.45,2.45,0,0,0,.66-.05,1.68,1.68,0,0,1,.39,0H58a1,1,0,0,0,.42,0,.44.44,0,0,1,.2,0c.1,0,.14,0,.14.14s0,.3,0,.46v.13a8,8,0,0,1-.12,1.38c-.05.38-.09.77-.15,1.15s0,.61-.08.92c0,.46-.12.92-.16,1.38s-.1.65-.1,1,0,.6,0,.89a1.74,1.74,0,0,1-.11.39.51.51,0,0,1-.16.2,1.64,1.64,0,0,1-1,.3,8,8,0,0,0-1,.12,1.67,1.67,0,0,1-.63,0,2.7,2.7,0,0,0-.48-.09.75.75,0,0,1-.63-.42L54,62.17a.66.66,0,0,0-.43-.33l-.78-.17c-.12,0-.26,0-.39-.06a1.86,1.86,0,0,0-.62,0,4.21,4.21,0,0,0-.49.09.73.73,0,0,1-.66-.21.23.23,0,0,1-.06-.25l.13-.4a1.18,1.18,0,0,1,.64-.12.62.62,0,0,0,.61-.67c0-1,0-2.06,0-3.09,0-.5.06-1,.08-1.49s.52-.92,1.22-.87C53.31,54.71,53.46,54.68,53.57,54.76Z" transform="translate(-30.75 -28)"/><path class="cls-131" d="M48,55c0-.06,0-.11.09-.12h.17a2.6,2.6,0,0,0,.62,0,2.7,2.7,0,0,1,.57,0,1.73,1.73,0,0,0,.45-.05,1.18,1.18,0,0,1,.27,0,3.89,3.89,0,0,0,1-.06,1.69,1.69,0,0,1,.23,0,2.07,2.07,0,0,0,.49,0,.35.35,0,0,1,.4,0c0,.17-.1.27-.19.38a1,1,0,0,0-.21.77,10.41,10.41,0,0,1-.05,1.48,19.28,19.28,0,0,1,0,2.15c0,.26,0,.28-.22.31a1,1,0,0,0-.59-.33,7.2,7.2,0,0,1-.78-.16.85.85,0,0,0-.32,0,2.1,2.1,0,0,1-.86-.21.56.56,0,0,1-.38-.56c0-.67,0-1.34,0-2,0-.09,0-.19,0-.29a2,2,0,0,0,0-.49c0-.13,0-.24-.18-.28A4,4,0,0,0,48,55Z" transform="translate(-30.75 -28)"/><path class="cls-132" d="M51.66,59.73c.05,0,.11,0,.11-.09a2.17,2.17,0,0,0,0-.26,4.36,4.36,0,0,1,0-.72.45.45,0,0,0,0-.23,4.39,4.39,0,0,1,0-.89,8.71,8.71,0,0,1,0-1.25,1.3,1.3,0,0,0,0-.52.85.85,0,0,1,.15-.69,4.82,4.82,0,0,1,.35-.44,1.41,1.41,0,0,1,1,0c0,.13-.06.09-.13.07h-.36a.66.66,0,0,0-.48.2l-.2.22a.62.62,0,0,0-.16.45c0,.1,0,.2,0,.3a3.5,3.5,0,0,1,0,.79.66.66,0,0,0,0,.2,9.65,9.65,0,0,0,0,1.61v.1A9.1,9.1,0,0,0,52,60a1.5,1.5,0,0,1,0,.42.53.53,0,0,1-.49.42l-.79.1a.32.32,0,0,1,.3-.16c.12,0,.24,0,.36,0a.62.62,0,0,0,.53-.6.32.32,0,0,0-.06-.15C51.74,59.9,51.7,59.81,51.66,59.73Z" transform="translate(-30.75 -28)"/><path class="cls-133" d="M55,42h-.1s0-.07,0-.08,0,0,.06,0h0Z" transform="translate(-30.75 -28)"/><path class="cls-131" d="M41.3,55.1c0-.13,0-.26,0-.39a.36.36,0,0,1,.17-.33.14.14,0,0,1,.23.08.86.86,0,0,1,0,.16.25.25,0,0,0,.06.15,2.07,2.07,0,0,1,.26.94c.12.64.16,1.29.23,1.94A21.54,21.54,0,0,0,41.88,55a.75.75,0,0,1,.35-1,3.76,3.76,0,0,1,.46-.32s0,0,0-.05l.05,0s0,0,0,0v1.21a.2.2,0,0,0,.06.15c.11.1.07.23.07.35,0,.4,0,.81,0,1.22,0-1,0-1.92,0-2.88,0-.12,0-.25.07-.35l.25-.19a10.71,10.71,0,0,0,.21,1.13,2.32,2.32,0,0,1,0,1,.82.82,0,0,0,0,.27.48.48,0,0,0,.4.46,3.12,3.12,0,0,1,.43.15l.22.19a.86.86,0,0,1,.31,1,10.63,10.63,0,0,0-1,.54,1.1,1.1,0,0,0-.82.35.35.35,0,0,0,0,.55.71.71,0,0,0,.23.19c.21.11.42.24.63.34a1.36,1.36,0,0,1,.64.81.33.33,0,0,1,0,.22c0,.15-.14.25-.17.39l-.22.15A.17.17,0,0,1,44,61a1.51,1.51,0,0,1-.68-.19,1.68,1.68,0,0,1-.6-.72,1.56,1.56,0,0,0-.22-.4.62.62,0,0,0-.4-.47h0L42,59.14c-.1-.07-.19-.15-.29-.21a.35.35,0,0,1-.18-.33c0-.1,0-.2,0-.3a4.23,4.23,0,0,0-.1-.94c-.06-.42-.14-.84-.17-1.27Z" transform="translate(-30.75 -28)"/><path class="cls-2" d="M45.74,38.92s.09,0,.12,0a.49.49,0,0,1,.43-.16,4,4,0,0,1,.57.16,2.41,2.41,0,0,1,.89.48,3.3,3.3,0,0,0,.43.3c.16.11.28.08.39-.09s.14-.3.3-.38a6.19,6.19,0,0,1,.93-.46l.47-.14a3.71,3.71,0,0,1,1-.06c.1,0,.2,0,.29.06A.37.37,0,0,1,52,39a5.66,5.66,0,0,1,.08,1,.81.81,0,0,1-.11.41.42.42,0,0,0-.06.4,1.24,1.24,0,0,1,0,.33c0,.38,0,.75,0,1.12,0,0,0,.1,0,.14v.07c0,.12.11.25-.06.33s-.14.17-.22.25a.3.3,0,0,0-.11.29,1.27,1.27,0,0,0,0,.2,1.71,1.71,0,0,1,0,.78,1.51,1.51,0,0,0,0,.3.57.57,0,0,1-.12.37,3.13,3.13,0,0,0-.36.58.92.92,0,0,1-.34.47,2.89,2.89,0,0,0-.73,1.42c-.16.41-.35.81-.85.9a3.06,3.06,0,0,1-.8,0,1.38,1.38,0,0,1-1-.64,10.7,10.7,0,0,1-.88-1.31.7.7,0,0,0-.28-.23,1,1,0,0,1-.58-.86,4.31,4.31,0,0,1-.1-1.34.75.75,0,0,0-.26-.67,1.81,1.81,0,0,1-.33-.44.43.43,0,0,0,0-.11l0-.1a1.14,1.14,0,0,1,0-.37,3,3,0,0,1,.7-1.61.48.48,0,0,0,.07-.46,2,2,0,0,1,0-1C45.58,39.09,45.58,39,45.74,38.92Z" transform="translate(-30.75 -28)"/><path class="cls-109" d="M57,35.81a.72.72,0,0,0-.47.38c-.15.35-.39.65-.52,1a.34.34,0,0,0-.07.11c-.2.48-.44.95-.61,1.45a.56.56,0,0,1-.07.18,1.52,1.52,0,0,0-.17,1,2.92,2.92,0,0,0-.06.72,2.78,2.78,0,0,1-.15,1,1.06,1.06,0,0,1-.44.6,5.14,5.14,0,0,1-.78.49.3.3,0,0,0-.16.23,2,2,0,0,1-.27.71,1.94,1.94,0,0,1-1,.74.74.74,0,0,1-.39,0c-.17,0-.24-.08-.24-.25s0-.56,0-.83a.3.3,0,0,1,.08-.18.5.5,0,0,0,.13-.22c0-.12,0-.26.12-.35s0,0,0,0c.07-.24,0-.5.06-.74V41.5a4.14,4.14,0,0,1,.17-1.2,2.46,2.46,0,0,1,.53-.82c.08-.06.13-.15.21-.2.25-.11.34.09.43.25a2.61,2.61,0,0,1,.39,1.54c0,.13,0,.25,0,.37a2.61,2.61,0,0,0-.47-2.08.6.6,0,0,1,.38-.84c.12,0,.17.07.24.14a2.24,2.24,0,0,1,.31.43,5.14,5.14,0,0,1,.23.47,2,2,0,0,0-.53-.91.35.35,0,0,1,0-.55c.4-.48.81-1,1.22-1.43a2.64,2.64,0,0,0,.36-.39,2.17,2.17,0,0,1,1.22-.86c.23,0,.41.09.29.39Z" transform="translate(-30.75 -28)"/><path class="cls-2" d="M52.43,44.59c0,.18.11.36.15.54a3.91,3.91,0,0,1-.14,2.22,4.06,4.06,0,0,1-1.92,2.27,3,3,0,0,1-1.26.36,2.44,2.44,0,0,1-2.39-1.36,3.19,3.19,0,0,1-.37-1.92,4.93,4.93,0,0,1,.65.87c.49.79,1.07.89,2,.71.46-.09.57-.49.73-.84a3.46,3.46,0,0,1,1-1.67.62.62,0,0,1,.21-.15c.12-.07.16-.2.24-.3a1,1,0,0,1,.21-.25.3.3,0,0,0,.16-.23.17.17,0,0,1,.19-.15A1.23,1.23,0,0,0,52.43,44.59Z" transform="translate(-30.75 -28)"/><path class="cls-134" d="M51.06,45.62a2.91,2.91,0,0,1-.53.63,1,1,0,0,0-.28.43c-.1.27-.22.53-.32.79-.07,0-.1,0-.07-.07a6.76,6.76,0,0,1,.29-.94.18.18,0,0,1,.07-.1c.26-.23.44-.52.68-.76l.08-.06Z" transform="translate(-30.75 -28)"/><path class="cls-135" d="M52,42.57a.57.57,0,0,1-.12.35.2.2,0,0,0-.07-.15c.08-.1,0-.22.06-.33Z" transform="translate(-30.75 -28)"/><path class="cls-120" d="M55,41.9H55s0-.08.06-.07Z" transform="translate(-30.75 -28)"/><path class="cls-2" d="M52.84,39.51a2.57,2.57,0,0,0-.72,1.57,1,1,0,0,1-.06.42c0-.3,0-.61,0-.91a.25.25,0,0,1,0-.13,1,1,0,0,0,.11-.57c0-.29,0-.57,0-.86,0-.09,0-.12.13-.13s.12,0,.07-.17a.2.2,0,0,1,.06-.15l.14-.15c.47-.49,1-1,1.4-1.48s.77-.78,1.14-1.19a5.79,5.79,0,0,1,.64-.57,1.42,1.42,0,0,1,.53-.24.7.7,0,0,1,.47.1.7.7,0,0,0,.24.09.4.4,0,0,1,.27.16c.14.17.12.32-.08.42l-.17.09c0-.24-.05-.3-.3-.33a1.37,1.37,0,0,0-1,.57,16.53,16.53,0,0,1-1.1,1.26c-.55.65-1,1.33-1.61,2C52.88,39.33,52.91,39.44,52.84,39.51Z" transform="translate(-30.75 -28)"/><path class="cls-135" d="M52.05,41.78a3,3,0,0,1-.06.74c0-.19,0-.38,0-.57A.18.18,0,0,1,52.05,41.78Z" transform="translate(-30.75 -28)"/><path class="cls-135" d="M51.86,42.37a.16.16,0,0,1,0-.14A.12.12,0,0,1,51.86,42.37Z" transform="translate(-30.75 -28)"/><path class="cls-34" d="M42,59.14a.11.11,0,0,1,.07.06A.09.09,0,0,1,42,59.14Z" transform="translate(-30.75 -28)"/><path class="cls-107" d="M47.21,67.35a1.87,1.87,0,0,0,.53,0,2.35,2.35,0,0,1,.26,0A3.62,3.62,0,0,1,48,68c-.21,0-.42,0-.62,0a4.21,4.21,0,0,0-.62,0,3.23,3.23,0,0,1-.29.43,3.16,3.16,0,0,1-.39.43.33.33,0,0,0-.08.46c.14.35-.22.37-.36.54a.89.89,0,0,1-1,.57,7.39,7.39,0,0,0-.94,0L43,70.29c-.14,0-.29,0-.36-.19a1.66,1.66,0,0,1-.06-.21.31.31,0,0,1,.15-.36l.54-.35a.41.41,0,0,1,.19,0,4.75,4.75,0,0,0,1.25.06h.06a.11.11,0,0,0,.09-.08.1.1,0,0,0-.07-.1.62.62,0,0,0-.23,0H43.8c-.06,0-.11,0-.14-.05s.23-.16.3-.27l.13-.06c.23,0,.44-.07.67,0a2.81,2.81,0,0,1,.49.05s.09,0,.07-.07,0,0-.09,0a2.55,2.55,0,0,0-.39,0c-.21,0-.43,0-.61-.09a.14.14,0,0,1,0-.14.36.36,0,0,0,.11-.25l0-.08a.31.31,0,0,1,0-.25.85.85,0,0,0,.07-.47V67a.5.5,0,0,1,.43-.19h.42a.44.44,0,0,0,.22,0h.76a.52.52,0,0,1,.28.06,2.6,2.6,0,0,1,0,.84c0-.14,0-.28.11-.37h.19c.06,0,.14,0,.2,0Z" transform="translate(-30.75 -28)"/><path class="cls-136" d="M44.11,69.1h.57A1,1,0,0,1,44.11,69.1Z" transform="translate(-30.75 -28)"/><path class="cls-137" d="M50.59,67.55a1.42,1.42,0,0,0,.68,0l.3,0a.12.12,0,0,1,.13.12,2.17,2.17,0,0,1,0,.26s0,.09.06.11,0-.21,0-.32,0-.35,0-.53S51.85,67,52,67l.43,0,.72,0a.41.41,0,0,0,.22,0l.32,0c.18,0,.26.1.26.27a3.68,3.68,0,0,0,.07.58.92.92,0,0,0,.08.4.2.2,0,0,0,.06.14l.12.14s0,0,0,0c-.28.2-.59.06-.89.1a1.18,1.18,0,0,0-.26,0c.09.14.23,0,.34.07a1.2,1.2,0,0,0,.42,0,.76.76,0,0,1,.47,0h.07l.39.34c0,.07-.12,0-.18,0a6.11,6.11,0,0,0-.84.08c.37,0,.73.16,1.1.06l.12,0a2.16,2.16,0,0,1,.54.29c.08.11.22.12.31.21a.7.7,0,0,1-.09.47c-.11.18-.3.16-.47.2-.48,0-1,.09-1.43.08a1.71,1.71,0,0,1-.45,0c-.28-.07-.4-.31-.52-.53a.77.77,0,0,0-.25-.14.29.29,0,0,1-.18-.4.44.44,0,0,0-.11-.47c-.19-.29-.54-.46-.6-.84a2.55,2.55,0,0,0-1.1,0,1.34,1.34,0,0,1-.2,0,1.48,1.48,0,0,1,0-.42C50.39,67.58,50.49,67.56,50.59,67.55Z" transform="translate(-30.75 -28)"/><path class="cls-137" d="M50.4,68.88v-.32c0-.3,0-.31.33-.32h.92a5.58,5.58,0,0,1,.82.93c.11.15,0,.31-.09.46a.48.48,0,0,0-.15.22c0,.1-.14.17-.18.26-.09.25,0,.51-.08.74,0,0-.07.07-.11,0a4.6,4.6,0,0,1-1.33-.75.25.25,0,0,1-.06-.21c0-.17,0-.34,0-.51A1.09,1.09,0,0,0,50.4,68.88Z" transform="translate(-30.75 -28)"/><path class="cls-138" d="M52.31,69.61a.83.83,0,0,0,.13-.36c0-.14-.15-.21-.23-.31s-.41-.45-.57-.71l.07-.06c.14.15.24.33.39.47s.26.3.39.45a.22.22,0,0,1,0,.29,1.43,1.43,0,0,0-.08.22.11.11,0,0,0,0,.14l.41.2a.18.18,0,0,1-.09.06.56.56,0,0,1-.48-.2A.31.31,0,0,1,52.31,69.61Z" transform="translate(-30.75 -28)"/><path class="cls-137" d="M48,69.35l0,.59-.12.08a4.31,4.31,0,0,1-1,.59.71.71,0,0,1-.28.09.14.14,0,0,1-.08-.07c-.09-.24,0-.5-.07-.74a2.4,2.4,0,0,0-.18-.26,3.11,3.11,0,0,1-.22-.4c-.1-.15,0-.27.08-.38s.3-.3.43-.46a.57.57,0,0,1,.62-.36,5.12,5.12,0,0,1,.78.06c.11,0,.13,0,.14.14v.58C47.93,69,48,69.18,48,69.35Z" transform="translate(-30.75 -28)"/><path class="cls-139" d="M47.09,68c-.11.09-.27,0-.37.1s-.11.21-.21.28l0,0s0-.05-.06-.07.18-.21.22-.35.07-.05.12,0a.16.16,0,0,0,.14,0Z" transform="translate(-30.75 -28)"/><path class="cls-140" d="M46.24,69.62l.16.17a1.85,1.85,0,0,1,0,.81c0,.24-.3.25-.48.35a1.4,1.4,0,0,1-.61,0c-.85,0-1.69,0-2.53-.07a1.26,1.26,0,0,1-.47-.05l0,0a.5.5,0,0,1-.2-.33,1.78,1.78,0,0,1,.07-.65.11.11,0,0,1,.08-.07l.22,0c.05.14,0,.32.2.38a1.63,1.63,0,0,0,.54.12l.39,0c.35.11.71,0,1.06.08a1.13,1.13,0,0,0,.32,0,.57.57,0,0,0,.48-.41c0-.07,0-.15.12-.17a.9.9,0,0,0,.36-.16C46.06,69.47,46.15,69.52,46.24,69.62Z" transform="translate(-30.75 -28)"/><path class="cls-141" d="M42.25,69.76l-.08.07,0-.07S42.23,69.75,42.25,69.76Z" transform="translate(-30.75 -28)"/><path class="cls-102" d="M51.45,71.22h-.06a.15.15,0,0,0-.14-.07c0-.12-.16-.12-.26-.13l0,0h0a.38.38,0,0,0-.22-.13.34.34,0,0,0-.2-.13s0-.07-.08,0,.07-.1.14-.09a.12.12,0,0,1,.08,0c.1,0,.19.07.29.09l.27.1.14.06a.47.47,0,0,0,.15.06l.07,0,.13.06.13.06a.08.08,0,0,1,0,0c0,.11.06.22,0,.31a.2.2,0,0,0-.14-.06A.69.69,0,0,0,51.45,71.22Z" transform="translate(-30.75 -28)"/><path class="cls-142" d="M50.52,70.14l1.39.72a.07.07,0,0,1,0,.06v0a.18.18,0,0,1-.14,0,4.59,4.59,0,0,1-.5-.24c-.19-.09-.38-.18-.56-.28s-.14-.07-.2,0-.08-.11-.06-.18A.88.88,0,0,1,50.52,70.14Z" transform="translate(-30.75 -28)"/><path class="cls-143" d="M50.53,70.47s0,0,0-.06,0-.12.1-.08l.67.33,0,0a.08.08,0,0,1-.07.1c-.11,0-.2-.08-.31-.08a.48.48,0,0,0-.21-.07s-.1,0-.13-.1Z" transform="translate(-30.75 -28)"/><path class="cls-144" d="M50.6,70.53a.23.23,0,0,1,.15.07s0,0-.09,0l-.07,0A.13.13,0,0,1,50.6,70.53Z" transform="translate(-30.75 -28)"/><path class="cls-145" d="M54.84,69.35a.29.29,0,0,1-.18.07H53.6a.12.12,0,0,1-.09-.09.11.11,0,0,1,.07-.11.42.42,0,0,1,.15,0c.26,0,.51,0,.77,0,0,0,0,0,.08,0s-.13,0-.17.06.06.08.18.08Z" transform="translate(-30.75 -28)"/><path class="cls-146" d="M46.75,67.3l-.08.49c-.08,0-.06-.09-.06-.14v-.82h.07v.29A.21.21,0,0,0,46.75,67.3Z" transform="translate(-30.75 -28)"/><path class="cls-147" d="M46.08,71.4a.11.11,0,0,0-.09.06.28.28,0,0,0-.17.09c-.09,0-.2,0-.27.1l-.13,0a1.73,1.73,0,0,1-.6,0l-.51,0c-.2-.06-.42,0-.62,0H43.4c-.12-.06-.26,0-.37-.06s-.36,0-.53-.07,0-.06-.07-.07-.19-.16-.2-.3v-.16a.09.09,0,0,1,.07,0c.08,0,.15.09.23.12a1.09,1.09,0,0,0,.26,0l.14,0a.7.7,0,0,0,.43,0,4.41,4.41,0,0,1,.89,0,1.14,1.14,0,0,0,.37.05h.31a2,2,0,0,0,.88-.08l.09,0,.2,0,.07,0,.07,0h0a.3.3,0,0,1,.07.34A.55.55,0,0,0,46.08,71.4Z" transform="translate(-30.75 -28)"/><path class="cls-97" d="M47.37,70.86l-.09,0c-.06,0-.09,0-.14.07a.42.42,0,0,0-.2.1.34.34,0,0,1-.27.1l-.06,0c-.07,0-.12,0-.12-.07s0-.11,0-.16v0a.15.15,0,0,1,0-.06.66.66,0,0,1,.19-.09l.15,0,.18-.06.14-.06.17-.07.08,0,.14,0a.2.2,0,0,1,.15,0c.07,0,.15-.07.2,0a.24.24,0,0,0-.13.11.27.27,0,0,0-.14.08A.8.8,0,0,0,47.37,70.86Z" transform="translate(-30.75 -28)"/><path class="cls-148" d="M45.93,70.87c0-.07.14-.07.21-.09.27-.1.27-.1.27-.4s0-.4,0-.59a.19.19,0,0,1,.09.19v.69c.06,0,0,.11,0,.18a.36.36,0,0,1,0,.09h0l-.09-.09a.07.07,0,0,0-.1,0,.22.22,0,0,1-.21.09A.18.18,0,0,1,45.93,70.87Z" transform="translate(-30.75 -28)"/><path class="cls-149" d="M46.09,70.88l.2,0v.09h0a.15.15,0,0,1-.1.06h0A.33.33,0,0,1,46,71a.07.07,0,0,1-.06-.07C46,70.89,46,70.92,46.09,70.88Z" transform="translate(-30.75 -28)"/><path class="cls-150" d="M46.67,71.15l.27-.1v.08l-.13.07-.12,0Z" transform="translate(-30.75 -28)"/><path class="cls-151" d="M52.38,69.75a.9.9,0,0,0,.44.21c.18.16.21.46.48.53a4.51,4.51,0,0,0,1.42,0c.2,0,.41,0,.61,0l.4-.11c.14,0,.16-.15.18-.27s0-.14.18-.09l.06,0,.14.18c0,.14,0,.28,0,.42a.6.6,0,0,1-.07.32l0,.06a.19.19,0,0,1-.16.14c-.34.06-.68,0-1,0-.73.12-1.48,0-2.22.09H52.7c-.86-.3-.78-.17-.71-1.2a.49.49,0,0,0,.17-.15C52.23,69.77,52.27,69.66,52.38,69.75Z" transform="translate(-30.75 -28)"/><path class="cls-152" d="M42.3,71l-.07,0-.06-.07c0-.06.08-.06.13-.06h0A.11.11,0,0,1,42.3,71Z" transform="translate(-30.75 -28)"/><path class="cls-100" d="M52.38,71.61l-.07,0a.23.23,0,0,0-.19-.09l-.07,0v-.25a.11.11,0,0,1,.07-.09,1.33,1.33,0,0,1,.52.13l.08,0a1.48,1.48,0,0,0,.42,0h.55a.92.92,0,0,0,.37,0l.11,0c.32,0,.64,0,1,0h.48a4,4,0,0,0,.48-.09.16.16,0,0,1,.1,0,.41.41,0,0,1-.17.42c-.16.12-.36.09-.54.14a.09.09,0,0,0-.1,0c-.08.07-.18,0-.26,0a1.51,1.51,0,0,0-.37,0h-.24a1.79,1.79,0,0,0-.69,0h-.88l-.43-.18S52.44,71.61,52.38,71.61Z" transform="translate(-30.75 -28)"/><path class="cls-153" d="M52.65,71.34a3.08,3.08,0,0,1-.53-.21c-.06-.08-.14,0-.22,0l0,0s0,0,0,0a.31.31,0,0,1,.09-.07v-.76A.23.23,0,0,1,52,70c0,.21,0,.41,0,.62s0,.26.21.32a2.49,2.49,0,0,1,.51.21C52.73,71.21,52.76,71.3,52.65,71.34Z" transform="translate(-30.75 -28)"/><path class="cls-154" d="M55.54,69.57v0h0A0,0,0,0,1,55.54,69.57Z" transform="translate(-30.75 -28)"/><path class="cls-155" d="M48,69.35a1,1,0,0,1,0-.54v.54h0Z" transform="translate(-30.75 -28)"/><path class="cls-156" d="M56.19,71.17l-.09,0a.18.18,0,0,1-.05-.08A.17.17,0,0,1,56.1,71l.11-.06,0,.13Z" transform="translate(-30.75 -28)"/><path class="cls-157" d="M44.82,71.68h.6v0h-.6Z" transform="translate(-30.75 -28)"/><path class="cls-158" d="M47.86,70.33l-.12,0c-.05,0-.13.07-.19.12s-.11,0-.14.06h0s-.11,0-.16,0a.45.45,0,0,0-.12.06l-.09,0s-.09,0-.11-.08a2,2,0,0,1,1-.49C48,70.18,47.91,70.26,47.86,70.33Z" transform="translate(-30.75 -28)"/><path class="cls-159" d="M47.88,70.09a1.19,1.19,0,0,1-.25.13,3.24,3.24,0,0,0-.71.38.11.11,0,0,1-.16,0,.05.05,0,0,1,0,0l0,0A8.81,8.81,0,0,1,47.81,70Z" transform="translate(-30.75 -28)"/><path class="cls-160" d="M44.23,68.42h.66s.09,0,.09.09a.11.11,0,0,1-.06.07c-.21,0-.43.18-.63,0l-.13-.13Z" transform="translate(-30.75 -28)"/><path class="cls-161" d="M44.29,68.55l.12,0c.06,0,.06,0,.27-.07a.07.07,0,0,1,.06,0l.22,0a0,0,0,0,1,.07,0,.11.11,0,0,1,0,.08c-.06,0-.14,0-.2.05h-.59a.2.2,0,0,1-.15-.06v0a.08.08,0,0,1,.08,0Z" transform="translate(-30.75 -28)"/><path class="cls-50" d="M44.17,68.62h-.08S44.14,68.58,44.17,68.62Z" transform="translate(-30.75 -28)"/><path class="cls-162" d="M43.69,71.61a1.84,1.84,0,0,1,.62,0H44l-.35,0A.09.09,0,0,0,43.69,71.61Z" transform="translate(-30.75 -28)"/><path class="cls-163" d="M44.42,67.7a.43.43,0,0,1,0,.25c-.08-.07-.06-.16,0-.25Z" transform="translate(-30.75 -28)"/><path class="cls-164" d="M43,71.54a.53.53,0,0,1,.37.06H43Z" transform="translate(-30.75 -28)"/><path class="cls-165" d="M54.75,71.79a.72.72,0,0,1,.36-.05l0,0s0,0,0,0l-.15,0Z" transform="translate(-30.75 -28)"/><path class="cls-166" d="M55.11,71.79s0,0,0-.05a.62.62,0,0,1,.27,0,.09.09,0,0,0,0,0Z" transform="translate(-30.75 -28)"/><path class="cls-167" d="M47.53,70.46a.43.43,0,0,1,.21-.09v.06s-.07,0-.11,0S47.56,70.5,47.53,70.46Z" transform="translate(-30.75 -28)"/><path class="cls-168" d="M53.25,68.63l1,0,.07,0v.18a.09.09,0,0,1-.1,0,1,1,0,0,0-.35,0,1.28,1.28,0,0,1-.44,0c.07-.14.17-.11.24-.12a.77.77,0,0,0-.3,0l-.09,0a.05.05,0,0,1,0,0S53.24,68.63,53.25,68.63Z" transform="translate(-30.75 -28)"/><path class="cls-123" d="M45.74,38.92a1.9,1.9,0,0,0-.15,1.22,3.16,3.16,0,0,1,0,.32.27.27,0,0,1-.09.24A3,3,0,0,0,44.89,42c0,.11,0,.23-.07.35-.18,0-.08-.17-.07-.27A3.19,3.19,0,0,1,45.11,41l.12-.2.13-.11a.36.36,0,0,0,.11-.38c0-.22-.08-.43-.11-.65a2.52,2.52,0,0,1,.08-.55,1,1,0,0,1,.07-.25.13.13,0,0,1,.15-.11c.09,0,.08.09.08.16Z" transform="translate(-30.75 -28)"/><path class="cls-169" d="M44.89,42.77a1,1,0,0,0,.28.44c0,.06.11.11.16.16a.52.52,0,0,1,.15.39v.1A6,6,0,0,0,45.54,45a2.3,2.3,0,0,1,0,.37c0,.07,0,.08-.07.07v-.11c0-.07,0-.16-.06-.22a.24.24,0,0,1-.07-.18,1.37,1.37,0,0,0,0-.29c0-.09,0-.15-.15-.15h-.36l-.2,0s-.1,0-.13-.06h-.06c0-.15.13-.08.21-.06s0,0,0,0,.29,0,.43.05.19,0,.21-.18a1,1,0,0,0-.3-.92,1.27,1.27,0,0,1-.21-.29s0-.09-.06-.12V42.7s0,0,.06,0h0Z" transform="translate(-30.75 -28)"/><path class="cls-170" d="M42.83,42.38l.07-.08a1.31,1.31,0,0,0,.66.26c.16,0,.19.06.2.2a1.85,1.85,0,0,1,0,.23.92.92,0,0,0,.22.73.36.36,0,0,1,0,.09c0,.07,0,.1-.08.09a1.07,1.07,0,0,1-.38-.8.86.86,0,0,1,0-.16c0-.19,0-.19-.19-.24l-.28-.1A.49.49,0,0,1,42.83,42.38Z" transform="translate(-30.75 -28)"/><path class="cls-171" d="M44,43.9l.08-.09a1.29,1.29,0,0,1,.17.16,1.09,1.09,0,0,0,.44.32c-.07,0-.16,0-.21.06A1.87,1.87,0,0,1,44,43.9Z" transform="translate(-30.75 -28)"/><path class="cls-172" d="M44.82,42.7h-.06a.82.82,0,0,1,0-.67c0,.09,0,.2.07.27Z" transform="translate(-30.75 -28)"/><path class="cls-171" d="M45.12,44.35h-.29a.17.17,0,0,1-.14-.06A.91.91,0,0,1,45.12,44.35Z" transform="translate(-30.75 -28)"/><path class="cls-172" d="M44.76,42.84c.05,0,.06.07.06.12A.11.11,0,0,1,44.76,42.84Z" transform="translate(-30.75 -28)"/><path class="cls-2" d="M47.14,67.35a.21.21,0,0,1-.2,0C47,67.29,47.09,67.28,47.14,67.35Z" transform="translate(-30.75 -28)"/><path class="cls-131" d="M43.43,52.84c.13-.14.26-.29.4-.43a3.72,3.72,0,0,0,.53-.59,1,1,0,0,1,.21-.21l.1,0c0,.22,0,.42,0,.63a2.82,2.82,0,0,0,.15,1,.51.51,0,0,1-.12.54,1.64,1.64,0,0,0-.28.73s0,0,0,.07c.11.19,0,.3-.14.42a3.45,3.45,0,0,0-.52.56l-.07,0a1.34,1.34,0,0,1,0-.49,1.82,1.82,0,0,0-.06-.87c-.09-.36-.15-.71-.21-1.07C43.43,53,43.43,52.94,43.43,52.84Z" transform="translate(-30.75 -28)"/><path class="cls-173" d="M45.89,53.24c-.11.23-.19.26-.39.12l-.08,0-.19,0a.56.56,0,0,0,0-.4,2.61,2.61,0,0,1-.22-.72.78.78,0,0,0,0-.21l0-.25c0-.06.07-.14.16-.15s.12,0,.17,0h0l.08.07h0s.07,0,.08.08A6.22,6.22,0,0,1,45.84,53a.5.5,0,0,0,0,.13.09.09,0,0,1,0,.06A.11.11,0,0,1,45.89,53.24Z" transform="translate(-30.75 -28)"/><path class="cls-174" d="M45,52.12a8.89,8.89,0,0,0,.39,1.06c0,.08-.13,0-.16.11s-.1.09-.19.07a2.37,2.37,0,0,1-.15-1.18S45,52.1,45,52.12Z" transform="translate(-30.75 -28)"/><path class="cls-175" d="M45.29,51.59h-.17a.15.15,0,0,1-.16,0C45.1,51.48,45.14,51.48,45.29,51.59Z" transform="translate(-30.75 -28)"/><path class="cls-176" d="M45,52.12l-.11.06a.42.42,0,0,1,0-.22C45,52,45,52,45,52.12Z" transform="translate(-30.75 -28)"/><path class="cls-177" d="M45,51.59h.16a.38.38,0,0,1-.16.12A.11.11,0,0,1,45,51.59Z" transform="translate(-30.75 -28)"/><path class="cls-178" d="M45.43,51.73l-.08-.08a.09.09,0,0,1,.12.07S45.44,51.74,45.43,51.73Z" transform="translate(-30.75 -28)"/><path class="cls-179" d="M45.36,51.65s-.07,0-.08-.07S45.35,51.6,45.36,51.65Z" transform="translate(-30.75 -28)"/><path class="cls-180" d="M56.63,53.05a.31.31,0,0,1-.08.24c-.06.06-.13.09-.2,0a.92.92,0,0,0-.56-.14c-.41,0-.82,0-1.22,0s-.63.06-1,.11l-.48.06a3.76,3.76,0,0,1-.88.09c-.11,0-.23.12-.28-.07a1.32,1.32,0,0,1,.48-.09c.66-.1,1.33-.2,2-.28a10.6,10.6,0,0,1,1.26,0l.62,0c.1,0,.14,0,.16-.14,0-.35.1-.71.14-1.07a3.21,3.21,0,0,1,.07-.53c.19,0,.12.22.15.34a4.81,4.81,0,0,1-.12,1.31A.78.78,0,0,1,56.63,53.05Z" transform="translate(-30.75 -28)"/><path class="cls-123" d="M45.89,53.24v-.06L46,53.1a1.52,1.52,0,0,1,1.3.09,3.46,3.46,0,0,0,1,.31c.1.1.23.07.35.07a.83.83,0,0,1,.48.11.69.69,0,0,1-.31.09,2.54,2.54,0,0,1-1.57-.36,1.71,1.71,0,0,0-.65-.21.28.28,0,0,0-.13,0A1.89,1.89,0,0,1,45.89,53.24Z" transform="translate(-30.75 -28)"/><path class="cls-9" d="M49.19,48.33l-.19,0a2,2,0,0,1-1,0,1.15,1.15,0,0,1-.74-.49,6.76,6.76,0,0,0-.55-.74,2.51,2.51,0,0,1-.24-.46c0-.09-.15-.15-.17-.26s0-.09.08-.09a2.06,2.06,0,0,1,.31.46,1.66,1.66,0,0,0,.3.43l.34.45a1.2,1.2,0,0,0,.65.52.91.91,0,0,0,.32.06h.73C49.13,48.24,49.2,48.21,49.19,48.33Z" transform="translate(-30.75 -28)"/><path class="cls-181" d="M56.76,51.59c0-.11,0-.24-.06-.34s0-.35,0-.52a7.9,7.9,0,0,0,0-1.09c0-.47,0-.94,0-1.41v-.36c.06-.1,0-.21,0-.31s0-.11.09-.08a.48.48,0,0,1,.1.4c0,1.12.06,2.24-.06,3.36C56.91,51.37,57,51.54,56.76,51.59Z" transform="translate(-30.75 -28)"/><path class="cls-123" d="M52,53.37c.07.1.18.06.28.07-.1.1-.23.06-.34.06a2.12,2.12,0,0,0-.56,0,.67.67,0,0,1,.37,0,.25.25,0,0,1-.18.06h-.36a7.12,7.12,0,0,0-1.46,0h-.45a.22.22,0,0,1-.21-.12c.29,0,.58,0,.86,0,.63,0,1.26-.08,1.88-.08Z" transform="translate(-30.75 -28)"/><path class="cls-182" d="M46.41,46.35l-.08.09a1.88,1.88,0,0,0-.39-.29.77.77,0,0,1-.45-.73l.07-.07s0,0,0,.08a.9.9,0,0,0,.51.67C46.23,46.17,46.36,46.22,46.41,46.35Z" transform="translate(-30.75 -28)"/><path class="cls-182" d="M45.42,45.09c.08.06.07.14.06.22Z" transform="translate(-30.75 -28)"/><path class="cls-2" d="M46,53.1l-.07.08V53.1Z" transform="translate(-30.75 -28)"/><path class="cls-183" d="M42.9,51.32c-.21.15-.41.29-.61.45a2.3,2.3,0,0,1-.32.15c-.11,0-.12-.08-.12-.16.12-1.11,0-2.22,0-3.33A.82.82,0,0,1,42,48a1.72,1.72,0,0,1,0-.78s0-.08,0-.12c0-.33.1-.64.08-1h.05c.1.08.1.21.14.31s.07.46.11.68c.17,1,.3,2,.41,3A10.32,10.32,0,0,0,42.9,51.32Z" transform="translate(-30.75 -28)"/><path class="cls-184" d="M42.69,53.71a.63.63,0,0,1-.25.26l-.28.18a.58.58,0,0,0-.26.54,2.34,2.34,0,0,0,0,.26,12,12,0,0,1,.24,1.46c0,.4.08.79.13,1.18,0,.08,0,.15,0,.23s0,.14,0,.16-.07-.06-.08-.11,0-.2-.06-.3c0-.28-.06-.57-.08-.85a11.48,11.48,0,0,0-.22-1.43c0-.18-.07-.35-.11-.52l0-.4c0-.07-.05-.13,0-.19a1.14,1.14,0,0,0,.55-.34.62.62,0,0,1,.21-.15A.16.16,0,0,1,42.69,53.71Z" transform="translate(-30.75 -28)"/><path class="cls-185" d="M42,48c0,1.08,0,2.17,0,3.26a1.7,1.7,0,0,1,0,.5.13.13,0,0,0,0,.14.14.14,0,0,1-.14.06.43.43,0,0,1,0-.35,1.26,1.26,0,0,0,0-.43c0-.91,0-1.83,0-2.74,0-.1,0-.2,0-.3A.15.15,0,0,1,42,48Z" transform="translate(-30.75 -28)"/><path class="cls-186" d="M43,53.37c0,.71,0,1.42,0,2.12v1.29A1.79,1.79,0,0,1,43,57s0,0-.05,0a0,0,0,0,1,0,0,.62.62,0,0,1,0-.27c0-.57,0-1.14,0-1.72s0-1,0-1.45a1.33,1.33,0,0,1,0-.2c0-.08,0-.21.09-.21S43,53.3,43,53.37Z" transform="translate(-30.75 -28)"/><path class="cls-187" d="M42,45.61c0,.07,0,.15.06.21s0,.23-.05.33h0A.5.5,0,0,1,42,45.61Z" transform="translate(-30.75 -28)"/><path class="cls-188" d="M41.78,54.18c0,.06.09.12,0,.19s0,0-.06-.06,0-.08,0-.11Z" transform="translate(-30.75 -28)"/><path class="cls-171" d="M44.49,44.36a.14.14,0,0,1,.13.06A.12.12,0,0,1,44.49,44.36Z" transform="translate(-30.75 -28)"/><path class="cls-189" d="M42.9,51.32a.38.38,0,0,1-.15-.25c0-.26,0-.52-.06-.78,0-.49-.08-1-.17-1.47s-.14-1-.21-1.43a1.51,1.51,0,0,1,0-.3c0-.08-.1-.18.06-.21,0,.34.1.68.16,1a9.1,9.1,0,0,1,.19,1.47.18.18,0,0,0,0,.09c0,.54.11,1.08.16,1.63,0,.08,0,.12.12.11A.19.19,0,0,1,42.9,51.32Z" transform="translate(-30.75 -28)"/><path class="cls-190" d="M42,46.15l.05-.33.08-.33s0-.06.07-.07.12,0,.12.09a6.4,6.4,0,0,1,0,1s0,0,0,.06a.64.64,0,0,1-.1-.43c-.07.07.07.21-.05.3a.18.18,0,0,1-.06-.14A.14.14,0,0,0,42,46.15Z" transform="translate(-30.75 -28)"/><path class="cls-191" d="M42.16,46.42c0-.14,0-.27,0-.4s0-.1.06-.08,0,.05,0,.09.06.34.05.52.06.22,0,.33,0,.14-.06.21-.06-.07-.06-.11A3.43,3.43,0,0,0,42.16,46.42Z" transform="translate(-30.75 -28)"/><path class="cls-192" d="M42.24,45.42l-.07.07a.15.15,0,0,1,.06-.14Z" transform="translate(-30.75 -28)"/><path class="cls-125" d="M41.83,38.92a.1.1,0,0,1,0-.1A.14.14,0,0,1,41.83,38.92Z" transform="translate(-30.75 -28)"/><path class="cls-130" d="M41.69,38.53a.06.06,0,0,1,0-.07A.08.08,0,0,1,41.69,38.53Z" transform="translate(-30.75 -28)"/><path class="cls-131" d="M56.76,51.59a.27.27,0,0,0,.06-.21,32.59,32.59,0,0,0,.07-3.56.57.57,0,0,0-.06-.36.51.51,0,0,1,0-.51v-.29a.3.3,0,0,1,.06-.18,1.55,1.55,0,0,1,.3.83c.17.74.18,1.5.34,2.25s.2,1.28.3,1.92a1.88,1.88,0,0,1-.19,1.05.85.85,0,0,1-.87.49.12.12,0,0,1-.11-.11A6.48,6.48,0,0,0,56.76,51.59Z" transform="translate(-30.75 -28)"/><path class="cls-193" d="M56.7,53a.89.89,0,0,0,.45-.09.72.72,0,0,0,.44-.46c.07-.23.11-.47.16-.71a.76.76,0,0,0,0-.26c-.1-.38-.11-.76-.18-1.14s-.09-.52-.14-.78-.1-.67-.14-1a10.4,10.4,0,0,0-.37-1.91.5.5,0,0,1,0-.13.31.31,0,0,0,0-.1.11.11,0,0,1,.08-.09c.07,0,.1,0,.12.1.11.48.25,1,.32,1.44,0,.29.05.57.08.86s.06.43.1.65.12.56.15.84,0,.37.07.56.08.56.12.84a2,2,0,0,1-.13.84.8.8,0,0,1-.34.48.85.85,0,0,1-.77.14,0,0,0,0,1,0,0S56.69,53,56.7,53Z" transform="translate(-30.75 -28)"/><path class="cls-194" d="M56.82,47v.51a2.44,2.44,0,0,1,0,.27.16.16,0,0,1-.06.14c0-.34,0-.68-.08-1a1.05,1.05,0,0,0-.39-.7A1.44,1.44,0,0,1,56,45.7a.15.15,0,0,1,0-.09A.11.11,0,0,1,56,45.5a.15.15,0,0,1,.13,0l.08.1a1.85,1.85,0,0,0,.4.52s0,.09.06.15a1.75,1.75,0,0,1,.07.51A.2.2,0,0,0,56.82,47Z" transform="translate(-30.75 -28)"/><path class="cls-180" d="M49.73,53.57a.2.2,0,0,1,.14-.06H51a.2.2,0,0,1,.15.06Z" transform="translate(-30.75 -28)"/><path class="cls-180" d="M51.73,53.51a1.39,1.39,0,0,1-.41,0,1.82,1.82,0,0,1,.52,0l.08,0Z" transform="translate(-30.75 -28)"/><path class="cls-195" d="M53.24,54.71a.17.17,0,0,0,.13-.07.17.17,0,0,1,.2.12C53.46,54.76,53.34,54.8,53.24,54.71Z" transform="translate(-30.75 -28)"/><path class="cls-196" d="M56.7,53V53h-.06l0-.14Z" transform="translate(-30.75 -28)"/><path class="cls-10" d="M46.86,42.76l.2-.11a.75.75,0,0,0-.19-.35.38.38,0,0,0-.49-.13,1.21,1.21,0,0,0-.54.43c-.05,0-.09.12-.14.18h-.06a.11.11,0,0,1,0-.05,1.08,1.08,0,0,1,.82-.69.57.57,0,0,1,.56.22c.23.32.45.65.68,1a.61.61,0,0,1,0,.12c.05.35.35.38.61.45a.16.16,0,0,0,.15,0,.66.66,0,0,1,.2-.11c.21,0,.29-.18.37-.35a3.26,3.26,0,0,1,.5-.73,1.23,1.23,0,0,1,.76-.44.69.69,0,0,1,.72.54.07.07,0,0,1,0,0,.06.06,0,0,1-.06,0c-.05,0-.07-.08-.11-.12-.21-.31-.4-.42-.81-.19l-.11.08s0,0,0,0l.1.07a.59.59,0,1,1-.76.89s-.07,0-.12,0a.11.11,0,0,0,0,.15,3.37,3.37,0,0,1,.57.92s0,0,0,.05,0,0,0,0a.11.11,0,0,1-.12,0l-.1-.1a2.1,2.1,0,0,1-.32-.46.31.31,0,0,0-.45-.14.83.83,0,0,1-.87,0,1.28,1.28,0,0,0-.32-.09.13.13,0,0,1-.1-.09c.1-.51,0-.75-.44-.84A.18.18,0,0,1,46.86,42.76Z" transform="translate(-30.75 -28)"/><path class="cls-197" d="M47.39,43.69l.09.07c0,.12,0,.24,0,.36a1.06,1.06,0,0,1-.16.79.43.43,0,0,0,.1.62.55.55,0,0,0,.71,0c0-.06.06-.12.14-.11s.24.17.24-.09,0-.35,0-.53a.58.58,0,0,1,.28-.49.22.22,0,0,1,.31,0c.11.1,0,.2,0,.28a1,1,0,0,0-.24.77c0,.27.11.33.35.23a.75.75,0,0,0,.48-1v-.08c.39.32.38.31.17.8a.5.5,0,0,1-.19.22c-.12.07-.21.16-.33.23a.6.6,0,0,1-.52.1,1.27,1.27,0,0,0-.26,0s-.08,0-.1,0-.31.07-.47.08a1,1,0,0,1-.86-.31A.57.57,0,0,1,47,45a.77.77,0,0,1,.19-.37.32.32,0,0,0,.1-.27v-.23c0-.19,0-.19-.2-.26a.76.76,0,0,1-.5-.53.55.55,0,0,1,.06-.38.28.28,0,0,1,.23-.21l.08.07s0,.08,0,.12c-.18.43-.11.56.34.68A.17.17,0,0,1,47.39,43.69Z" transform="translate(-30.75 -28)"/><path class="cls-198" d="M48,46.86a.8.8,0,0,1,0-.37c.1,0,.1.08.16.1a.31.31,0,0,0,.19,0,2.64,2.64,0,0,1,.62-.08.28.28,0,0,0,.25-.06s.06-.11.12-.06,0,.08,0,.12a.86.86,0,0,1,0,.16c0,.07,0,.11-.11.06a.27.27,0,0,0-.27,0A6.35,6.35,0,0,0,48,46.86Z" transform="translate(-30.75 -28)"/><path class="cls-199" d="M49.19,48.33a.14.14,0,0,0-.13-.06c.12-.1.28-.12.4-.21a.51.51,0,0,0,.19-.25,1.23,1.23,0,0,1,.21-.41l.07.07a1.59,1.59,0,0,0-.12.27.8.8,0,0,1-.5.54Z" transform="translate(-30.75 -28)"/><path class="cls-172" d="M44.89,42.77l-.07-.07Z" transform="translate(-30.75 -28)"/><path class="cls-200" d="M52.91,39.26a2.67,2.67,0,0,1,.52-.68,3.11,3.11,0,0,0,.39-.49,2.27,2.27,0,0,1,.44-.54,5.44,5.44,0,0,0,.68-.84,1.07,1.07,0,0,1,.26-.26,1.92,1.92,0,0,0,.5-.56.9.9,0,0,1,.56-.39l.25-.08a.21.21,0,0,1,.21.06,1.14,1.14,0,0,1-.49.25.66.66,0,0,0-.35.23c-.36.48-.83.86-1.17,1.36a1.54,1.54,0,0,1-.17.19,4.18,4.18,0,0,0-.7.86,2.79,2.79,0,0,0,.3.38,2.2,2.2,0,0,1,.49.93.18.18,0,0,1,0,.09.07.07,0,0,1-.11,0,.57.57,0,0,1-.12-.23,1.82,1.82,0,0,0-.39-.69,2.61,2.61,0,0,1-.23-.3,2.53,2.53,0,0,0-.5.54.35.35,0,0,0,.1.19,2.53,2.53,0,0,1,.57,1.65v.56a.26.26,0,0,1-.06.19s-.06,0-.09,0l0,0a.92.92,0,0,1,0-.16c0-.23,0-.45,0-.67a2.71,2.71,0,0,0-.53-1.47c-.07-.09-.13-.07-.19,0S52.9,39.32,52.91,39.26Z" transform="translate(-30.75 -28)"/><path class="cls-201" d="M52.91,39.26l.08.07c0,.07-.07.15-.15.18S52.82,39.32,52.91,39.26Z" transform="translate(-30.75 -28)"/><path class="cls-202" d="M45,67.88c-.08,0-.16,0-.22-.06s0-.43,0-.64.26-.12.4-.1.42,0,.62,0c.39,0,.42,0,.41.4a.41.41,0,0,1,0,.16c-.1.16-.27.07-.41.12S45.3,67.77,45,67.88Z" transform="translate(-30.75 -28)"/><path class="cls-203" d="M44.82,69.62s.06.06,0,.1a.22.22,0,0,1-.16,0l-1.17-.07a.35.35,0,0,1-.29-.12c0-.07,0-.1.07-.07h0a.06.06,0,0,0,.08,0,5.26,5.26,0,0,1,1.37.08s0,0,.08.05-.06,0-.09,0A.14.14,0,0,0,44.82,69.62Z" transform="translate(-30.75 -28)"/><path class="cls-204" d="M46.2,67.69c0-.13,0-.26,0-.39s0-.14-.14-.14h-.53a.51.51,0,0,1-.34-.06c.07-.08.19,0,.27-.06h.62c.11,0,.2,0,.24.14s0,.28,0,.42S46.3,67.72,46.2,67.69Z" transform="translate(-30.75 -28)"/><path class="cls-205" d="M46.42,68.36l.06.07c-.15.18-.3.37-.46.55s0,.16,0,.24,0,.07-.06.08a.64.64,0,0,1-.08-.14.15.15,0,0,1,0-.2c.13-.16.27-.31.4-.46Z" transform="translate(-30.75 -28)"/><path class="cls-206" d="M45,67.88c0-.1,0-.13.05-.13h.71c.08,0,.18-.09.21.07A6.24,6.24,0,0,1,45,67.88Z" transform="translate(-30.75 -28)"/><path class="cls-207" d="M45,68.56H45a.13.13,0,0,1,0-.06.47.47,0,0,1,.35,0h.1c.05,0,.11,0,.12.09s0,.1-.09.12a.36.36,0,0,1-.25,0,2.27,2.27,0,0,0-.35,0c.05-.07.13-.05.2-.06s.23,0,.34-.06,0,0,0,0,0,0,0,0A.65.65,0,0,1,45,68.56Z" transform="translate(-30.75 -28)"/><path class="cls-207" d="M46,67.82c0-.08-.14,0-.21-.07.12-.09.27,0,.4-.06s.07-.12.08-.19,0-.24.06-.33a3.38,3.38,0,0,1,0,.45c0,.18,0,.2-.21.21Z" transform="translate(-30.75 -28)"/><path class="cls-208" d="M45.94,69.3l.06-.08c0,.07,0,.15.12.19s.1.13.12.21-.19-.07-.3,0a.47.47,0,0,1-.36.12l.25-.14C46,69.51,46,69.51,45.94,69.3Z" transform="translate(-30.75 -28)"/><path class="cls-209" d="M45.48,67c-.08.09-.18,0-.27.06s-.26,0-.33.13,0,.07-.07.08c-.05-.17,0-.25.11-.27A1.75,1.75,0,0,1,45.48,67Z" transform="translate(-30.75 -28)"/><path class="cls-210" d="M44.66,70.35h-.78a.4.4,0,0,1-.28-.07h.88A.27.27,0,0,1,44.66,70.35Z" transform="translate(-30.75 -28)"/><path class="cls-209" d="M44.81,67.31l.07-.08a1.34,1.34,0,0,1,0,.49.13.13,0,0,1-.08.1Z" transform="translate(-30.75 -28)"/><path class="cls-161" d="M45.3,68.48H45l-.06-.06A.72.72,0,0,1,45.3,68.48Z" transform="translate(-30.75 -28)"/><path class="cls-211" d="M43.29,69.49l-.07.07s-.06-.07,0-.11S43.27,69.44,43.29,69.49Z" transform="translate(-30.75 -28)"/><path class="cls-211" d="M43.37,69.49s0,.05-.08,0Z" transform="translate(-30.75 -28)"/><path class="cls-212" d="M53.57,68a.16.16,0,0,1-.13.08h-.95a.34.34,0,0,1-.11,0,.2.2,0,0,1,.19-.07h-.19c-.18,0-.27-.08-.26-.26s0-.34.15-.43h1.22c.14.12,0,.26,0,.39S53.51,67.9,53.57,68Z" transform="translate(-30.75 -28)"/><path class="cls-213" d="M55.33,70.41s-.06,0-.09,0c-.29,0-.58.07-.88.09a4.74,4.74,0,0,0-.65,0,.72.72,0,0,1-.47-.11.05.05,0,0,1,.08,0,1.14,1.14,0,0,0,.52,0c.44,0,.88-.06,1.33-.08A.43.43,0,0,1,55.33,70.41Z" transform="translate(-30.75 -28)"/><path class="cls-214" d="M52.17,67.69c0,.18,0,.19.17.19l.8,0c.08,0,.17,0,.24,0-.26.1-.53,0-.79.07h-.21c-.08,0-.19,0-.27-.07s0-.09,0-.13v-.27C52.18,67.53,52.13,67.66,52.17,67.69Z" transform="translate(-30.75 -28)"/><path class="cls-215" d="M54,69.74a.76.76,0,0,1,.47-.06s0,0,0,0,0,0,0,0a.19.19,0,0,1-.15,0c.11,0,.19,0,.28-.06s.31,0,.42.12a.3.3,0,0,1-.16,0H54A.1.1,0,0,1,54,69.74Z" transform="translate(-30.75 -28)"/><path class="cls-216" d="M53.5,67.31H52.26c-.07,0-.08,0-.07-.06a11.63,11.63,0,0,1,1.32,0,0,0,0,0,1,0,.06Z" transform="translate(-30.75 -28)"/><path class="cls-217" d="M53.24,68.69h.62c-.12.11-.25,0-.37.11l.36,0a1,1,0,0,1-.48,0s0,0,0,0a.22.22,0,0,1-.09-.07A.08.08,0,0,1,53.24,68.69Z" transform="translate(-30.75 -28)"/><path class="cls-218" d="M53.5,67.31v-.08a.16.16,0,0,1,.13.2,2.87,2.87,0,0,0-.07.58c-.07,0-.07-.1-.07-.16Z" transform="translate(-30.75 -28)"/><path class="cls-146" d="M53.37,68.81v.07a.72.72,0,0,1-.41,0,.09.09,0,0,1-.07-.09.1.1,0,0,1,.08-.09.29.29,0,0,1,.27,0h0v0s0,0,0,0,0,0,0,0A.17.17,0,0,1,53.37,68.81Z" transform="translate(-30.75 -28)"/><path class="cls-219" d="M53.32,70.47h-.08a.35.35,0,0,1-.28-.23c-.05-.1-.09-.2-.14-.29l.1,0s0,0,0,.07A.59.59,0,0,0,53.32,70.47Z" transform="translate(-30.75 -28)"/><path class="cls-220" d="M54,69.74v.15a.6.6,0,0,1-.35,0s-.11,0-.06-.11.19,0,.27-.06Z" transform="translate(-30.75 -28)"/><path class="cls-221" d="M55,69.83a1,1,0,0,0-.49-.08s0,0-.06,0v-.06H55s.11.06.07.13Z" transform="translate(-30.75 -28)"/><path class="cls-222" d="M52.19,67.24l.07.06c-.12.11-.06.26-.09.39l-.11-.13C52.05,67.44,52,67.3,52.19,67.24Z" transform="translate(-30.75 -28)"/><path class="cls-223" d="M55.1,69.81,55,69.68h0s.12-.07.15,0S55.18,69.79,55.1,69.81Z" transform="translate(-30.75 -28)"/><path class="cls-217" d="M53.24,68.69H53c.08-.08.18-.06.28-.05S53.24,68.67,53.24,68.69Z" transform="translate(-30.75 -28)"/><path class="cls-215" d="M53.84,69.75c-.07.09-.17,0-.27.06C53.64,69.71,53.75,69.75,53.84,69.75Z" transform="translate(-30.75 -28)"/><path class="cls-222" d="M52.06,67.83a.11.11,0,0,1,0,.13A.13.13,0,0,1,52.06,67.83Z" transform="translate(-30.75 -28)"/><path class="cls-224" d="M52.38,69.75l-.22.08c0-.08,0-.2.15-.22A.13.13,0,0,1,52.38,69.75Z" transform="translate(-30.75 -28)"/><path class="cls-225" d="M46.48,70.87v-.2h.08s0,0,.06,0h.07a.16.16,0,0,1,.07.09s0,0-.05.06a.2.2,0,0,1-.15.06A.06.06,0,0,1,46.48,70.87Z" transform="translate(-30.75 -28)"/><path class="cls-226" d="M46.68,70.68h-.15a.46.46,0,0,1,.22-.11v.06S46.74,70.7,46.68,70.68Z" transform="translate(-30.75 -28)"/><path class="cls-227" d="M46.09,70.88A.21.21,0,0,1,46,71l0,0,0,0,0,0a2.1,2.1,0,0,0-.26.13.44.44,0,0,1-.16,0l-.53,0a.06.06,0,0,1,0,0s0,0,0,0a.87.87,0,0,1,.45-.06h-.07c-.19,0-.37,0-.56,0h-1a1.67,1.67,0,0,1-.32,0,.71.71,0,0,0-.2,0c-.13,0-.25,0-.37,0s-.14,0-.13-.13a2.56,2.56,0,0,1,.78,0,2.36,2.36,0,0,0,.46,0h1.21a.66.66,0,0,1,.2,0,.89.89,0,0,0,.51,0Z" transform="translate(-30.75 -28)"/><path class="cls-228" d="M42.77,70.82c0,.05.09.05.14.06-.09.22-.24,0-.36.1s.21,0,.14.11a.27.27,0,0,1-.2,0A.2.2,0,0,1,42.3,71v-.15Z" transform="translate(-30.75 -28)"/><path class="cls-229" d="M50.93,70.66l.32.08,0,0,0,0-.31-.09s0,0,0,0S50.92,70.66,50.93,70.66Z" transform="translate(-30.75 -28)"/><path class="cls-230" d="M50.93,70.66v.07a.66.66,0,0,1-.27-.12h.09A.25.25,0,0,1,50.93,70.66Z" transform="translate(-30.75 -28)"/><path class="cls-231" d="M51.85,71a.43.43,0,0,0,0,0,.17.17,0,0,1-.15,0l0,0S51.83,71,51.85,71Z" transform="translate(-30.75 -28)"/><path class="cls-232" d="M51.38,70.88a.14.14,0,0,1-.14-.06s0,0,0,0,.12,0,.14.06Z" transform="translate(-30.75 -28)"/><path class="cls-231" d="M51.71,71c-.05,0-.1,0-.13-.05l0,0a.14.14,0,0,1,.11,0,.09.09,0,0,1,0,.07Z" transform="translate(-30.75 -28)"/><path class="cls-232" d="M51.52,70.94a.18.18,0,0,1-.14-.06l0,0a.12.12,0,0,1,.13,0S51.54,70.91,51.52,70.94Z" transform="translate(-30.75 -28)"/><path class="cls-233" d="M51.52,70.94v-.06s.06,0,.07,0,0,0,0,0Z" transform="translate(-30.75 -28)"/><path class="cls-234" d="M51.59,70.92l-.07,0-.12,0-.14-.07a.08.08,0,0,0,0,0l.07-.06a1.36,1.36,0,0,1,.45.26s0,0-.06,0Z" transform="translate(-30.75 -28)"/><path class="cls-235" d="M51.71,70.94h.21a.08.08,0,0,1-.07.07l-.11,0Z" transform="translate(-30.75 -28)"/><path class="cls-236" d="M54.1,69.31a.74.74,0,0,1-.39,0A.58.58,0,0,1,54.1,69.31Z" transform="translate(-30.75 -28)"/><path class="cls-237" d="M44.28,71.14h-1a.22.22,0,0,1-.22,0c0-.17.16-.15.28-.14.27,0,.53,0,.8,0a.19.19,0,0,1,.1,0l0,0Z" transform="translate(-30.75 -28)"/><path class="cls-238" d="M43.09,71.13h.22a.39.39,0,0,1-.44,0,.14.14,0,0,1,.13-.06A.18.18,0,0,1,43.09,71.13Z" transform="translate(-30.75 -28)"/><path class="cls-239" d="M45,71.14s0,0,0,.06a1.22,1.22,0,0,1-.33,0,.07.07,0,0,1,0-.1A.24.24,0,0,1,45,71.14Z" transform="translate(-30.75 -28)"/><path class="cls-240" d="M44.62,71.14a.13.13,0,0,0,0,.06.48.48,0,0,1-.35-.06v0a.24.24,0,0,1,.2-.05A.21.21,0,0,1,44.62,71.14Z" transform="translate(-30.75 -28)"/><path class="cls-241" d="M43,71.13l-.17,0h-.09s0-.06,0-.09S43,71,43,71.13Z" transform="translate(-30.75 -28)"/><path class="cls-242" d="M42.75,71.07l0,.07c-.1,0-.21,0-.29-.06h.26Z" transform="translate(-30.75 -28)"/><path class="cls-243" d="M45.91,71.08l-.09,0s0,0,0-.06l.07-.06H46V71s0,.06,0,.07Z" transform="translate(-30.75 -28)"/><path class="cls-244" d="M45.92,71.08,46,71h.23A.31.31,0,0,1,45.92,71.08Z" transform="translate(-30.75 -28)"/><path class="cls-140" d="M46.18,71l.1-.06A.09.09,0,0,1,46.18,71Z" transform="translate(-30.75 -28)"/><path class="cls-245" d="M47.08,70.68a.26.26,0,0,1-.19.07l0,0c0-.11.1-.08.16-.09A.07.07,0,0,1,47.08,70.68Z" transform="translate(-30.75 -28)"/><path class="cls-246" d="M47.53,70.46l.1,0a.26.26,0,0,1-.22.07C47.42,70.48,47.48,70.48,47.53,70.46Z" transform="translate(-30.75 -28)"/><path class="cls-247" d="M47.22,70.55h.19c0,.08-.12.07-.19.09l0,0A.06.06,0,0,1,47.22,70.55Z" transform="translate(-30.75 -28)"/><path class="cls-245" d="M47.08,70.61l.06,0a0,0,0,0,1,.06,0l0,0a.16.16,0,0,1-.14.05l0,0S47.06,70.62,47.08,70.61Z" transform="translate(-30.75 -28)"/><path class="cls-248" d="M46.72,70.81l0-.06s.07,0,.11,0l0,0A.22.22,0,0,1,46.72,70.81Z" transform="translate(-30.75 -28)"/><path class="cls-30" d="M46.48,70.87h.09l-.09.07Z" transform="translate(-30.75 -28)"/><path class="cls-249" d="M52.77,71.13a.39.39,0,0,1,.28-.06,4,4,0,0,0,.69,0,.61.61,0,0,1,.19,0,2.87,2.87,0,0,0,1,0H55a.12.12,0,0,1,0,.1c-.05.09-.13.1-.22.11h-.61c-.45,0-.9,0-1.34,0A.18.18,0,0,1,52.77,71.13Z" transform="translate(-30.75 -28)"/><path class="cls-250" d="M55,71.08V71a.53.53,0,0,1,.25,0,4.39,4.39,0,0,0,.81,0l0,.14a.19.19,0,0,1-.16,0C55.63,71.12,55.32,71.25,55,71.08Z" transform="translate(-30.75 -28)"/><path class="cls-251" d="M52.77,71.13l.08.07a.17.17,0,0,1-.07.16.15.15,0,0,1-.13,0h0a.22.22,0,0,0,0-.16s0,0,0-.05Z" transform="translate(-30.75 -28)"/><path class="cls-252" d="M55.18,71.33H54.1a.06.06,0,0,1,0-.09.27.27,0,0,1,.15,0H55l.11,0A.08.08,0,0,1,55.18,71.33Z" transform="translate(-30.75 -28)"/><path class="cls-253" d="M56,71.14h.11l0,.07a1.24,1.24,0,0,1-.46.11.08.08,0,0,1,0-.09C55.7,71.09,55.85,71.16,56,71.14Z" transform="translate(-30.75 -28)"/><path class="cls-93" d="M52.65,71.34h.15a.27.27,0,0,1,.3,0,.06.06,0,0,1,0,.09h-.28A.18.18,0,0,1,52.65,71.34Z" transform="translate(-30.75 -28)"/><path class="cls-254" d="M54.05,71.35a.47.47,0,0,1-.35,0v0l0,0a.3.3,0,0,1,.26,0A.13.13,0,0,1,54.05,71.35Z" transform="translate(-30.75 -28)"/><path class="cls-255" d="M53.71,71.34a.07.07,0,0,1,0,0h-.33a.08.08,0,0,1,0-.09A.27.27,0,0,1,53.71,71.34Z" transform="translate(-30.75 -28)"/><path class="cls-256" d="M55.18,71.33s0,0,0,0a.26.26,0,0,1,.32,0s0,.06,0,.1A.47.47,0,0,1,55.18,71.33Z" transform="translate(-30.75 -28)"/><path class="cls-257" d="M53.38,71.34a.07.07,0,0,1,0,0H53.1s0,0,0-.06A.17.17,0,0,1,53.38,71.34Z" transform="translate(-30.75 -28)"/><path class="cls-258" d="M55.49,71.34s0,0,0-.06a.09.09,0,0,1,.13,0,.13.13,0,0,0,0,.06Z" transform="translate(-30.75 -28)"/><path class="cls-249" d="M54.11,71.28a.43.43,0,0,1,0,0,.06.06,0,0,1-.05,0v0a.06.06,0,0,1,0,0v0A.06.06,0,0,1,54.11,71.28Z" transform="translate(-30.75 -28)"/><path class="cls-259" d="M46.86,70.73l-.11,0-.07-.07.07-.06.17,0h.16s0,0,0,0A.37.37,0,0,0,46.86,70.73Z" transform="translate(-30.75 -28)"/><path class="cls-259" d="M47.2,70.6h-.06l.08,0Z" transform="translate(-30.75 -28)"/><path class="cls-234" d="M45,68.56h.32c-.1.08-.21,0-.31.06A.13.13,0,0,1,45,68.56Z" transform="translate(-30.75 -28)"/><path class="cls-217" d="M54.12,68.72s0,0,0,0,0,0,0,0,0,0,0,0Z" transform="translate(-30.75 -28)"/><path class="cls-260" d="M48.2,45.57c0,.17,0,.17-.14.17h-.32a.7.7,0,0,1-.32-.09.54.54,0,0,1-.16-.84.46.46,0,0,1,.07-.07.27.27,0,0,0,.1-.26,3.42,3.42,0,0,0,0-.45.32.32,0,0,1,.09-.27.23.23,0,0,1,.32,0,.93.93,0,0,0,.49.17.29.29,0,0,0,.22,0s.05,0,.08-.06c.27-.18.46-.14.61.15a3.15,3.15,0,0,0,.35.52l0,0,.09.09a2.56,2.56,0,0,1,.11.24.45.45,0,0,1-.14.51,2.39,2.39,0,0,1-.47.31.43.43,0,0,1-.25.07c-.07,0-.13,0-.14-.12a2,2,0,0,1,0-.65c.06-.21.11-.41.32-.51a.09.09,0,0,0,0-.09s0,0-.06-.06a.29.29,0,0,0-.13,0,.45.45,0,0,0-.32.48c0,.28,0,.57,0,.85-.11,0-.2,0-.27,0s-.05-.15-.08-.22a.23.23,0,0,1,0-.18c0-.3-.24-.44-.36-.67.06.23.27.39.34.62S48.14,45.44,48.2,45.57Z" transform="translate(-30.75 -28)"/><path class="cls-261" d="M47.39,43.69l-.13,0a.42.42,0,0,1-.46-.24.47.47,0,0,1,.05-.55l.09-.09H47c.12-.07.2,0,.28.07s.15.24.22.37a.28.28,0,0,1-.06.35Z" transform="translate(-30.75 -28)"/><path class="cls-262" d="M50.14,43a.5.5,0,0,1-.31.45.48.48,0,0,1-.5-.06.19.19,0,0,1,0-.24,2.36,2.36,0,0,1,.34-.44c.07-.09.16-.08.26-.05A.32.32,0,0,1,50.14,43Z" transform="translate(-30.75 -28)"/><polygon class="cls-2" points="18.83 16.54 18.8 16.54 18.8 16.52 18.82 16.52 18.83 16.54"/><path class="cls-263" d="M48.27,45.22v.2a.22.22,0,0,0-.06.15c-.08-.13,0-.28-.07-.41S48.24,45.17,48.27,45.22Z" transform="translate(-30.75 -28)"/><path class="cls-264" d="M44.1,69.55l.07,0-.07,0-.09,0A.1.1,0,0,1,44.1,69.55Z" transform="translate(-30.75 -28)"/><path class="cls-265" d="M44.82,69.62a.14.14,0,0,1-.14.06s0,0-.06,0,0,0,0,0Z" transform="translate(-30.75 -28)"/><path class="cls-266" d="M52.59,68c0-.06.11-.06.18-.06h.61c0,.06,0,.08-.05.08A4.56,4.56,0,0,1,52.59,68Z" transform="translate(-30.75 -28)"/><path class="cls-267" d="M54.44,69.74h.06c-.08.1-.17.06-.29,0C54.29,69.72,54.37,69.76,54.44,69.74Z" transform="translate(-30.75 -28)"/><path class="cls-268" d="M53.37,68.81h-.22s0,0,0,0,0,0,.08,0h.06S53.34,68.76,53.37,68.81Z" transform="translate(-30.75 -28)"/><path class="cls-269" d="M46.56,70.68h0S46.58,70.73,46.56,70.68Z" transform="translate(-30.75 -28)"/><path class="cls-270" d="M42.75,71.07h0c-.06-.07-.17,0-.24-.1.15-.09.32,0,.44-.09h.37s.1,0,.15.05l.31,0a.82.82,0,0,0,.44,0h.63s0,0,0,.08a1.1,1.1,0,0,1-.51,0h-.86a.61.61,0,0,0-.35.06H43A.49.49,0,0,0,42.75,71.07Z" transform="translate(-30.75 -28)"/><path class="cls-271" d="M44.3,71.06a.23.23,0,0,1,.18,0h.36a1.72,1.72,0,0,1,.64,0h.06a.23.23,0,0,1,.07.07.18.18,0,0,1-.17.06h-.95c-.06,0-.14,0-.2,0Z" transform="translate(-30.75 -28)"/><path class="cls-228" d="M45.48,71h-.64l0,0h.49A.2.2,0,0,1,45.48,71Z" transform="translate(-30.75 -28)"/><path class="cls-228" d="M44.18,71a.41.41,0,0,1-.44,0Z" transform="translate(-30.75 -28)"/><path class="cls-228" d="M43.43,70.93a.2.2,0,0,1-.15-.05A.14.14,0,0,1,43.43,70.93Z" transform="translate(-30.75 -28)"/><path class="cls-228" d="M45.89,70.94l-.07.06Z" transform="translate(-30.75 -28)"/><path class="cls-228" d="M45.61,71.08,45.54,71A.08.08,0,0,1,45.61,71.08Z" transform="translate(-30.75 -28)"/><path class="cls-228" d="M44.29,71.08a.24.24,0,0,1,.2,0h-.2Z" transform="translate(-30.75 -28)"/><path class="cls-272" d="M54.11,71.28H54c-.11.06-.23,0-.34,0h-.9a.13.13,0,0,1,.05-.13A5.91,5.91,0,0,1,54,71.14a2,2,0,0,1,.34,0c.05.07,0,.08-.06.11Z" transform="translate(-30.75 -28)"/><path class="cls-273" d="M55.63,71.26l-.13,0h-.34l-.06,0c-.08-.05-.17,0-.26,0a.06.06,0,0,1,0,0s0,0,0,0,.14,0,.2-.07h.82s.07,0,.11,0-.1.06-.16.07S55.68,71.2,55.63,71.26Z" transform="translate(-30.75 -28)"/><path class="cls-274" d="M54.84,71.2c.09,0,.19,0,.26.06h-.86l.06-.11h.09a.07.07,0,0,0,.1,0h.1C54.66,71.2,54.76,71.14,54.84,71.2Z" transform="translate(-30.75 -28)"/><path class="cls-275" d="M54.84,71.2c-.09,0-.18,0-.25,0h.25Z" transform="translate(-30.75 -28)"/><path class="cls-272" d="M54.49,71.15c0,.06-.07.06-.1,0Z" transform="translate(-30.75 -28)"/><path class="cls-276" d="M53.7,71.33a.67.67,0,0,1,.34,0v0Z" transform="translate(-30.75 -28)"/><path class="cls-277" d="M48.27,45.22l-.14-.06a3.14,3.14,0,0,1-.33-.48c0-.06-.1,0-.14-.07a.07.07,0,0,1,0-.09.2.2,0,0,1,.06-.07.29.29,0,0,1,.13,0,.38.38,0,0,1,.22.19,1,1,0,0,0,.24.35A.17.17,0,0,1,48.27,45.22Z" transform="translate(-30.75 -28)"/></svg>