<svg id="Layer_1" data-name="Layer 1" xmlns="http://www.w3.org/2000/svg" viewBox="0 0 200 83.88"><defs><style>.cls-1{fill:#efffa4;}.cls-2{fill:#f43451;}.cls-3{fill:#326ae9;}.cls-4{fill:#01ff00;}.cls-5{fill:#fe0101;}.cls-6{fill:#0e1b28;}.cls-7{fill:#1a344e;}.cls-8{fill:#010101;}.cls-9{fill:#0204fe;}.cls-10{fill:#020101;}.cls-11{fill:#020102;}.cls-12{fill:#fd0203;}.cls-13{fill:#fd0506;}.cls-14{fill:#fe0405;}.cls-15{fill:#261d2a;}.cls-16{fill:#181c29;}.cls-17{fill:#121ef9;}.cls-18{fill:#1a1e2b;}.cls-19{fill:#151a26;}.cls-20{fill:#f2fefe;}.cls-21{fill:#301925;}.cls-22{fill:#192446;}.cls-23{fill:#e4fefe;}.cls-24{fill:#412631;}.cls-25{fill:#d60102;}.cls-26{fill:#2de404;}.cls-27{fill:#7f1118;}.cls-28{fill:#7f141a;}.cls-29{fill:#6b888e;}.cls-30{fill:#3f3e49;}.cls-31{fill:#44121a;}.cls-32{fill:#362f3b;}.cls-33{fill:#356d7c;}.cls-34{fill:#142243;}.cls-35{fill:#f6f6f0;}.cls-36{fill:#f3f4e7;}.cls-37{fill:#ecefd0;}.cls-38{fill:#edebe3;}.cls-39{fill:#edf2c7;}.cls-40{fill:#ecede8;}.cls-41{fill:#e5e5cd;}.cls-42{fill:#eae3cd;}.cls-43{fill:#b3c081;}.cls-44{fill:#f0f3d3;}.cls-45{fill:#f1f5d4;}.cls-46{fill:#fefefe;}.cls-47{fill:#040405;}.cls-48{fill:#fe0001;}.cls-49{fill:#4a1019;}.cls-50{fill:#c2c0c7;}.cls-51{fill:#8d8090;}.cls-52{fill:#58808c;}.cls-53{fill:#fb0407;}.cls-54{fill:#788391;}.cls-55{fill:#323747;}.cls-56{fill:#61babe;}.cls-57{fill:#96a6b2;}.cls-58{fill:#90bbc3;}.cls-59{fill:#b9c5cd;}.cls-60{fill:#317880;}.cls-61{fill:#77a1ab;}.cls-62{fill:#1920e4;}.cls-63{fill:#0b1644;}.cls-64{fill:#1015e8;}.cls-65{fill:#0203e5;}.cls-66{fill:#1c2659;}.cls-67{fill:#0f21e1;}.cls-68{fill:#0e1de0;}.cls-69{fill:#091363;}.cls-70{fill:#0c1bf4;}.cls-71{fill:#1642e8;}.cls-72{fill:#050adf;}.cls-73{fill:#0306e3;}.cls-74{fill:#fff;}.cls-75{fill:#fdfdfd;}.cls-76{fill:#0c090d;}.cls-77{fill:#1f0000;}.cls-78{fill:#481d27;}.cls-79{fill:#46424d;}.cls-80{fill:#0b0609;}.cls-81{fill:#eefea4;}.cls-82{fill:#eeffa4;}.cls-83{fill:#edfea3;}.cls-84{fill:#980203;}.cls-85{fill:#1214d1;}.cls-86{fill:#343d55;}.cls-87{fill:#0c11a2;}.cls-88{fill:#30385a;}.cls-89{fill:#0408c0;}.cls-90{fill:#303946;}.cls-91{fill:#303955;}.cls-92{fill:#343d49;}.cls-93{fill:#373e73;}</style></defs><path class="cls-1" d="M73.43,64.29a1.9,1.9,0,0,1-1-.11c-1.65-.34-3.29-.7-4.94-1.05-.32-.07-.64-.15-1-.21a.78.78,0,0,0-.4-.05,1.08,1.08,0,0,1-.79-.1A7.29,7.29,0,0,1,63.76,62a1.1,1.1,0,0,1-.53-1.29q.68-2.64,1.37-5.28c.46-1.78.91-3.57,1.4-5.34.6-2.2,1.19-4.41,1.75-6.63.52-2.06,1.1-4.11,1.65-6.17q1-3.52,1.84-7.08c.27-1.09.6-2.16.91-3.24a1.4,1.4,0,0,0,.1-.39.84.84,0,0,1,.38-.69A1.9,1.9,0,0,1,74,25.36a6.93,6.93,0,0,1,1.51.1,1.36,1.36,0,0,0,.35,0,6.51,6.51,0,0,1,1.39.1,1.76,1.76,0,0,0,.46,0,3,3,0,0,1,1,.1h.12c.7-.05,1.39.12,2.09.14s1.23.12,1.84.19l.12,0a10.49,10.49,0,0,1,1.85.15,13.43,13.43,0,0,1,1.9.18l.12,0c.66,0,1.31.15,2,.13.35,0,.68.13,1,.12a2.34,2.34,0,0,1,1,.09h0a11.56,11.56,0,0,1,1.86.14,17.24,17.24,0,0,1,2,.19l.11,0a12.87,12.87,0,0,1,2,.15,15.17,15.17,0,0,1,2,.19h.12a12.2,12.2,0,0,1,1.91.15,11.37,11.37,0,0,1,1.84.19h.12a10.83,10.83,0,0,1,2,.15,12.6,12.6,0,0,1,1.84.18l.12,0a14.52,14.52,0,0,1,2,.15,11,11,0,0,1,1.9.19h.12a10.45,10.45,0,0,1,2,.15,14.29,14.29,0,0,1,2,.19h0a11.21,11.21,0,0,1,1.92.15,12.6,12.6,0,0,1,1.84.18l.12,0a8.27,8.27,0,0,1,1.79.15c.65.08,1.31.07,2,.17a3.3,3.3,0,0,0,1.33.05c.25-.06.48.13.74.1a.61.61,0,0,1,.27.08,1.87,1.87,0,0,1,.89,2.16c-.42,1.73-.8,3.47-1.25,5.2a8.16,8.16,0,0,0-.26.84,1.7,1.7,0,0,0-.08.44c-.19,1.23-.54,2.42-.83,3.63-.7,2.84-1.34,5.69-2,8.54A.91.91,0,0,1,121,51a10.06,10.06,0,0,0-.58,2.15c-.09.37-.19.74-.27,1.11a4.07,4.07,0,0,0-.13.5c0,.12-.06.23-.08.35-.35,1.34-.67,2.69-1,4s-.69,2.81-1.05,4.21a1.31,1.31,0,0,1-.06.27,1.87,1.87,0,0,0-.08.34c-.37,1.57-.75,3.14-1.16,4.7a.42.42,0,0,1-.09.14c-.35.53-.35,1.21-.75,1.71l-.45.62-.09.12-.1.11-.12.09a1.79,1.79,0,0,0-.28.27,2.37,2.37,0,0,1-1.13.45,3.62,3.62,0,0,1-.66,0,17.47,17.47,0,0,0-3.89-1c-7-1.48-14.07-2.91-21.11-4.35-5.21-1.07-10.42-2.17-15.64-3.22a14.48,14.48,0,0,0-2-.29c.82.29,1.68.42,2.51.63C73,64,73.33,64,73.43,64.29Z"/><path class="cls-2" d="M127.92,23c.1.21,0,.4,0,.61a.31.31,0,0,1-.23,0,.8.8,0,0,0-.55-.14,37.74,37.74,0,0,1-3.84.08c-2.62,0-5.24,0-7.87,0-11,0-22,0-33.07,0-2.7,0-5.4,0-8.1,0a.27.27,0,0,1-.28-.29,35.22,35.22,0,0,0-.05-4.36c-.08-.75,0-1.51-.11-2.26a1.14,1.14,0,0,1,.79-1.17,5.84,5.84,0,0,1,1.76-.2h.61a4.33,4.33,0,0,1,1.08.06.66.66,0,0,1,.32.58,5.54,5.54,0,0,0,3.29,4.31,2,2,0,0,0,.95.3c.43,0,.56-.31.6-.66s-.19-.52-.49-.62a3.57,3.57,0,0,1-2.47-3c0-.33-.16-.7.22-.95a25.85,25.85,0,0,1,2.64-.06h4a10.76,10.76,0,0,0,1.39,0c.58,0,1.17,0,1.75,0,.34.09.36.37.4.64a5.42,5.42,0,0,0,1.85,3.41,4.24,4.24,0,0,0,2.25,1c.37.05.67,0,.77-.44s-.1-.58-.49-.7a3.64,3.64,0,0,1-2.54-3c-.07-.32-.16-.7.24-.94,1.2-.1,2.4,0,3.61-.05s2.61,0,3.92,0h1.51a3.87,3.87,0,0,1,1,.08c.28.18.24.47.22.73a4.66,4.66,0,0,0,4.19,4.41c.34,0,.51-.08.52-.43,0-1,0-1-.7-1.31A3.39,3.39,0,0,1,105,15.92a.55.55,0,0,1,.16-.54.44.44,0,0,1,.19-.07c1.09-.05,2.18,0,3.27,0h4.77c.41,0,.81,0,1.22-.06a.6.6,0,0,1,.19.06c.21.2.13.48.22.72a7,7,0,0,0,1.72,3.74,3.46,3.46,0,0,0,1,.75,3,3,0,0,0,.54.32c1,.43,1.48.14,1.6-1,0-.21-.11-.3-.33-.22a1,1,0,0,1-.43.06,2.06,2.06,0,0,1-1.33-.95,3.94,3.94,0,0,1-.71-3.36.2.2,0,0,1,.18-.06c.42.21.89.05,1.33.17a25.47,25.47,0,0,0,2.9.06c.83,0,1.67,0,2.5,0,.37,0,.64.14.45.57a8.54,8.54,0,0,0-.42,3.25c0,1,0,2,0,2.89a40.27,40.27,0,0,1,.18-5.19,2.57,2.57,0,0,1,.2-.72c.3-.75.51-.87,1.32-.8a5,5,0,0,1,1.1.05c.76.18,1,.7,1,1.43,0,1.65-.18,3.29-.12,4.94A2.22,2.22,0,0,0,127.92,23Z"/><path class="cls-3" d="M124.2,37.12c.19-1.15.53-2.26.76-3.39a7.44,7.44,0,0,1,.33-1.23,2.77,2.77,0,0,0,.18-.9,1.94,1.94,0,0,0-.94-1.8c.14-1,0-2,.13-3a25.57,25.57,0,0,1,.15-2.77c.3-.34.73-.13,1.08-.26a.81.81,0,0,1,.31,0c.5.14,1-.05,1.52.12.13.17.08.37.08.56-.07,6.49,0,13-.08,19.45s-.07,12.74-.08,19.1c0,1.07-.13,2.13-.16,3.2l-2.83.85a3.31,3.31,0,0,0-.45.12.54.54,0,0,1-.7-.2.33.33,0,0,1-.11-.15,2.28,2.28,0,0,1,.14-.77c.07-1.34,0-2.68,0-4a3.78,3.78,0,0,1,0-.75,19.7,19.7,0,0,0,.07-2.66c0-.48,0-1,0-1.45a1.1,1.1,0,0,1,0-.31,10.82,10.82,0,0,0,.07-2,8.84,8.84,0,0,1,0-1.15,5,5,0,0,0,.08-1.34c0-.69,0-1.38,0-2.07a7.17,7.17,0,0,0,.07-1.67c0-1.1,0-2.2,0-3.29a1.79,1.79,0,0,0,.09-.46c-.07-1.79.12-3.57.12-5.35a1,1,0,0,0-.13-.62.42.42,0,0,1-.12-.28A7.71,7.71,0,0,1,124.2,37.12Z"/><path class="cls-4" d="M73.43,64.29A7,7,0,0,0,72.14,64l-1.86-.47-.39-.11a.25.25,0,0,1-.2-.19c0-.08.14-.15.28-.13,1.16.13,2.3.36,3.44.6l8.91,1.81c2.11.44,4.22.89,6.33,1.32l7.76,1.59,11.07,2.3c1.49.3,3,.64,4.45.94a1.14,1.14,0,0,1,.77.34s.11,0,.16,0c.06.21-.16.14-.22.23a8.07,8.07,0,0,1-1.89-.28c-2.57-.51-5.14-1-7.7-1.57L96,68.94l-9.92-2.06-9.82-2Z"/><path class="cls-5" d="M126.15,23.84H126a4.34,4.34,0,0,1-1,.07.64.64,0,0,1-.41,0,2.61,2.61,0,0,0-.74-.05c-.88,0-1.75.05-2.62,0l-1,0-3.17,0c-1.79.08-3.59,0-5.39,0a17.78,17.78,0,0,1-2.42,0l-.35,0c-5.53,0-11.07-.07-16.6-.08-4.08,0-8.16,0-12.24,0l-4.6,0a1,1,0,0,0-.66.14c-.2.15-.36,0-.5-.17s-.12-.16-.07-.26a1.06,1.06,0,0,1,.63-.08h49a2.06,2.06,0,0,1,.74.08.68.68,0,0,0,.4,0,4.58,4.58,0,0,1,1.1-.09,5,5,0,0,0,1.16-.08c.31-.09.4,0,.57.33-.26.4-.66.15-1,.23C126.53,23.8,126.34,24,126.15,23.84Z"/><path class="cls-6" d="M124.12,38.68l.09.12a4.06,4.06,0,0,1,.08,1.39c0,.22-.17.41-.18.64-.24,1.3-.56,2.58-.88,3.85-1.63,6.46-3.19,12.93-4.82,19.38-.23.88-.47,1.76-.7,2.65-.12.46,0,.67.48.78a7.91,7.91,0,0,0,4.86-.1.29.29,0,0,1,.31.18.23.23,0,0,1-.07.26,2.49,2.49,0,0,1-1,.44,7.6,7.6,0,0,1-2.89.06,8,8,0,0,1-1.85-.49c-.2-.09-.28,0-.34.16s-.11.45-.19.67a1.27,1.27,0,0,1-.26.58,1.08,1.08,0,0,0-.17.43,3.85,3.85,0,0,1-2.19,2.41,2.56,2.56,0,0,1-1.59.2c.17-.36.54-.13.79-.28a2.64,2.64,0,0,0,1-.45,1.26,1.26,0,0,1,.36-.24h0a.19.19,0,0,1,.14-.12h0c.15-.25.36-.46.52-.7.44-.51.45-1.2.76-1.75h0c.4-.45.31-1.06.47-1.59.28-.93.49-1.87.69-2.82a.88.88,0,0,0,.11-.42.49.49,0,0,1,.06-.27l1-4.35c.35-1.42.69-2.83,1-4.25a1.1,1.1,0,0,1,0-.18c.14-.14.07-.34.13-.51a8,8,0,0,0,.32-1.3c.17-.69.32-1.38.53-2.06a12.21,12.21,0,0,0,.44-1.68q1.09-4.58,2.17-9.15c.15-.62.29-1.25.43-1.87.19-.07.2.11.26.21A.76.76,0,0,1,124.12,38.68Z"/><path class="cls-7" d="M111.71,14.17c.24.26.2.62.31.93a.62.62,0,0,1-.47.16c-.51,0-1,0-1.51,0a.52.52,0,0,1-.28-.09.17.17,0,0,1-.08-.16.72.72,0,0,0,.09-.5,2.57,2.57,0,0,0-3.91-1.28,2.7,2.7,0,0,0-.91,2.44,4.72,4.72,0,0,0,.5,1.84A3.43,3.43,0,0,0,107,19a1.32,1.32,0,0,1,.2.12c.3.21.56.49.42.87s-.56.31-.86.24a4.33,4.33,0,0,1-3.41-3,4.42,4.42,0,0,1,2.89-5.62,4.24,4.24,0,0,1,4.91,2C111.24,13.81,111.3,14.17,111.71,14.17Z"/><path class="cls-8" d="M92.59,15.47a2.48,2.48,0,0,0,.15,1.32,3.86,3.86,0,0,0,1.14,1.73,2.74,2.74,0,0,0,1.4.67.43.43,0,0,1,.39.36,1,1,0,0,1-.21.87.34.34,0,0,1-.25.13,2.48,2.48,0,0,1-.47,0,4.37,4.37,0,0,1-2.32-1,5.59,5.59,0,0,1-2-3.71,1.07,1.07,0,0,0-.1-.4c0-.18.09-.32.11-.49a4.4,4.4,0,0,1,3.08-4.1,4.21,4.21,0,0,1,2.58.12,5.11,5.11,0,0,1,2.33,1.58,7.12,7.12,0,0,1,1.13,1.82.58.58,0,0,1,0,.61.27.27,0,0,1-.26,0c-.26-.15-.31-.43-.42-.67a4.92,4.92,0,0,0-3.21-2.84,3.58,3.58,0,0,0-4.59,3.26A5.09,5.09,0,0,0,94,19.85a1.43,1.43,0,0,0,.43.17c.23,0,.47,0,.52-.25s-.22-.23-.36-.28A4.24,4.24,0,0,1,92.25,14a2.53,2.53,0,0,1,3.39-1.36,3.44,3.44,0,0,1,1.65,1.24c.28.4.19.6-.27.73a1,1,0,0,1-.53-.42,2.82,2.82,0,0,0-1.35-.88,1.85,1.85,0,0,0-2.32,1.32c-.07.22-.08.46-.15.68A1.09,1.09,0,0,1,92.59,15.47Z"/><path class="cls-8" d="M111.71,14.17c0,.08,0,.19-.16.21a.24.24,0,0,1-.25-.11,3,3,0,0,1-.18-.36,4,4,0,0,0-2.3-2.11,2.67,2.67,0,0,0-1-.2h-.64a3.74,3.74,0,0,0-2.57,1.05,4.53,4.53,0,0,0-1.27,2,4.39,4.39,0,0,0,.24,2.89,4.35,4.35,0,0,0,1,1.43,4.61,4.61,0,0,0,2.16,1.08,1.8,1.8,0,0,0,.52,0,.2.2,0,0,0,.22-.26.85.85,0,0,0-.49-.67,3.66,3.66,0,0,1-2-2.46,2.49,2.49,0,0,1-.15-1,1.32,1.32,0,0,0,0-.28c0-.15-.29-.1-.26-.27s.24-.09.28-.26a6.09,6.09,0,0,1,.25-.83,2.35,2.35,0,0,1,1.54-1.48,2.25,2.25,0,0,1,1.89.28A3.44,3.44,0,0,1,110,14.56c0,.09.09.18,0,.28s-.18.12-.3.13-.3-.2-.39-.34a4.83,4.83,0,0,0-.84-1,1.74,1.74,0,0,0-2.81.58c-.09.19-.17.38-.27.57s-.05.45-.23.63a3.67,3.67,0,0,0,.55,2,2.66,2.66,0,0,0,1.69,1.33l.22.07a.2.2,0,0,1,.17.2,9.13,9.13,0,0,1,0,1.28c0,.29-.12.38-.42.36a5,5,0,0,1-2.21-.65,4.78,4.78,0,0,1-2.31-3,4.05,4.05,0,0,1-.1-.92v-.64a.44.44,0,0,1-.06-.16c0-.16.13-.23.18-.36a4.72,4.72,0,0,1,4.35-3.81,5,5,0,0,1,1.16.06,3.71,3.71,0,0,1,1.56.75A4.85,4.85,0,0,1,111.71,14.17Z"/><path class="cls-9" d="M126.63,23.77l.55-.05a.91.91,0,0,0,.54-.1l.15,0a.74.74,0,0,1,.11.44,6.27,6.27,0,0,0,0,.75q0,9.21-.08,18.42,0,10-.11,20c0,.89-.05,1.79-.08,2.68a.45.45,0,0,1-.2.25v0a.24.24,0,0,1-.12-.19,4.49,4.49,0,0,1,0-.82,5.76,5.76,0,0,0,.07-1.1q0-7.69,0-15.39c.18-3.59.08-7.18.11-10.77,0-2.53,0-5,0-7.58.05-1.9.06-3.8.09-5.7,0-.2,0-.39,0-.59a.23.23,0,0,0-.11-.19C127.25,23.88,126.92,24,126.63,23.77Z"/><path class="cls-10" d="M81.57,20.36a4.52,4.52,0,0,1-1.51-1,6.13,6.13,0,0,1-1.38-1.78A3.84,3.84,0,0,1,78.19,16a5.58,5.58,0,0,0-.08-.57.46.46,0,0,1-.09-.15c0-.2.15-.31.18-.48a3.94,3.94,0,0,1,1-2.47,3.91,3.91,0,0,1,3-1.51,4.12,4.12,0,0,1,1.87.34,5.5,5.5,0,0,1,2.78,2.6,2.2,2.2,0,0,1,.29.94c.09.34,0,.53-.37.34a2.21,2.21,0,0,1-.36-.72,4.42,4.42,0,0,0-3.55-2.84,3.59,3.59,0,0,0-3.93,2.79,5,5,0,0,0,2.42,5.38l.78.38c.15.08.38.16.31.36s-.3.11-.45.06S81.69,20.41,81.57,20.36Z"/><path class="cls-11" d="M117.73,20.6a3.39,3.39,0,0,1-1.34-1.09A6.63,6.63,0,0,1,114.94,16c-.09-.22.07-.47-.1-.67l0,0c0-.21.12-.41.15-.63a5,5,0,0,1,3.77-4.37,4.16,4.16,0,0,1,2.67.26,4.92,4.92,0,0,1,2.47,2.27,6.44,6.44,0,0,1,.75,2.42.41.41,0,0,1-.57,0c-.2-.52-.24-1.09-.46-1.61a4.4,4.4,0,0,0-3-2.75,3.93,3.93,0,0,0-4.48,2,5.26,5.26,0,0,0,2.18,7.32c.22.11.49.17.59.44-.15.25-.35.16-.55.09S117.92,20.66,117.73,20.6Z"/><path class="cls-12" d="M126.86,15.7a2.84,2.84,0,0,0-.92,0,.33.33,0,0,1-.33-.07.32.32,0,0,0-.27-.05.72.72,0,0,0-.61.46,4.15,4.15,0,0,0-.41,1.79c0,.82-.16,1.62-.13,2.44s0,1.62,0,2.44a1.35,1.35,0,0,1,0,.28s0,.07-.09,0S124,23,124,23a2.89,2.89,0,0,1,0-.29v-.87c0-1.24,0-2.48,0-3.73a4.87,4.87,0,0,1,.45-2.19.24.24,0,0,0,0-.23,1.81,1.81,0,0,0-.57,0h-4.72c-.19,0-.39.05-.56-.1.22-.23.51-.15.78-.17a20.69,20.69,0,0,0,2.61-.07,8,8,0,0,1,2.07,0,5.74,5.74,0,0,0,1.55,0,4.43,4.43,0,0,1,1,.06.58.58,0,0,1,.25.12.13.13,0,0,1,0,.12Z"/><path class="cls-13" d="M74.63,15.56l-.33.25a.94.94,0,0,0-.37,1A7.37,7.37,0,0,1,74,18.12a4.58,4.58,0,0,0,.09,1.1,1.27,1.27,0,0,1,0,.28v3.32a.69.69,0,0,1-.08.45c-.23-.17-.18-.43-.21-.67a4.44,4.44,0,0,1-.12-1,26.12,26.12,0,0,1-.2-4.68c0-.27.06-.54.1-.8a.77.77,0,0,1,.55-.69l.15-.08C74.46,15.39,74.62,15.34,74.63,15.56Z"/><path class="cls-14" d="M127.92,23a.34.34,0,0,1-.36-.37c0-.51,0-1,0-1.52s0-1.23.08-1.85a25.38,25.38,0,0,0,0-2.62,2.29,2.29,0,0,0-.07-.34.5.5,0,0,0-.4-.44.61.61,0,0,1-.35-.19l0,0c.32-.17.58,0,.84.15a.9.9,0,0,1,.34.71c0,.31,0,.62,0,.93,0,1.67-.06,3.34-.09,5A1.24,1.24,0,0,1,127.92,23Z"/><path class="cls-15" d="M115,14.72a.66.66,0,0,1-.15.63,16.43,16.43,0,0,1-1.85.07h-4.29a29.83,29.83,0,0,0-3.41,0l-.09,0v-.4a.3.3,0,0,1,.13-.3,2.47,2.47,0,0,0,1,.17h2.59a1.41,1.41,0,0,1,.83.18H110a4.89,4.89,0,0,0,1.62,0H112c.87,0,1.75,0,2.62,0,.18,0,.23-.1.25-.25A.71.71,0,0,1,115,14.72Z"/><path class="cls-16" d="M102.93,14.94l-.1.4a4.42,4.42,0,0,1-1,.05,11,11,0,0,0-1.52,0c-1.33,0-2.65.05-4,0a.14.14,0,0,1,0-.17.45.45,0,0,1,.22-.16,1.84,1.84,0,0,1,.47-.06,7.85,7.85,0,0,1,2.11-.1,2.8,2.8,0,0,0,.5.12c1,0,2.08,0,3.12-.06A.81.81,0,0,0,102.93,14.94Z"/><path class="cls-17" d="M124.47,23.9a.75.75,0,0,1,.42,0s0,0,0,.06l0,0c0,.41,0,.81,0,1.22a4.46,4.46,0,0,1-.08,1.15,1.74,1.74,0,0,0,0,.46c0,.89,0,1.77,0,2.66,0,.17,0,.31-.24.34l-.12-.13.09-3.2.06-2c0-.16,0-.32-.07-.45A.77.77,0,0,1,124.47,23.9Z"/><path class="cls-18" d="M74.63,15.56l-.31-.18a1,1,0,0,1,.53-.22l.46-.05L77.8,15c.15,0,.31,0,.4-.16.07.19-.12.33-.1.5a4,4,0,0,1-1.1.06,1.73,1.73,0,0,0-.68.06Z"/><path class="cls-19" d="M86.74,15a.31.31,0,0,0,.1,0c.17.05.19,0,.23-.13a1.22,1.22,0,0,0,0-.17c.13.1.06.29.18.41l.85.08a.1.1,0,0,1,0,.16c-.35,0-.69,0-1,0H83.16a.64.64,0,0,1-.2,0c-.61-.06-1.21,0-1.82,0-.27,0-.56.07-.82-.09a.13.13,0,0,1,0-.19,7.81,7.81,0,0,1,1.93-.12c.78,0,1.56,0,2.34,0a1.38,1.38,0,0,1,.2,0,3.42,3.42,0,0,0,1.46,0A1.14,1.14,0,0,1,86.74,15Z"/><path class="cls-20" d="M109.14,23.85l.34,0h7.07l.4,0c-.14.14-.33.09-.5.09h-6.76C109.5,24,109.29,24,109.14,23.85Z"/><path class="cls-21" d="M88.13,15.33v-.11c.67,0,1.34,0,2,0,.21,0,.25-.11.32-.25.08.19,0,.34-.11.49H88.48C88.38,15.34,88.23,15.44,88.13,15.33Z"/><path class="cls-22" d="M123.36,67.57l-.25-.13a12.89,12.89,0,0,1,0-2.24c0-.14.06-.31.26-.32.27.37.14.79.14,1.2s-.14.52,0,.78a.32.32,0,0,0,0,.09A2.77,2.77,0,0,0,123.36,67.57Z"/><path class="cls-23" d="M121.16,23.86c.89,0,1.79,0,2.68,0,0,0,0,0,0,.06s0,0,0,0h-2.39A.37.37,0,0,1,121.16,23.86Z"/><path class="cls-24" d="M73.89,22.57l.16.7c0,.08,0,.15.07.2l.07.26h-.14c-.16.14-.1.3,0,.46l0,.11a.18.18,0,0,1-.24,0h0a1.29,1.29,0,0,1,0-.8h0a.51.51,0,0,0,0-.48,1.11,1.11,0,0,1,0-.48S73.86,22.51,73.89,22.57Z"/><path class="cls-25" d="M125.58,15.34a.3.3,0,0,1-.25.11h-1.28l0-.06,0,0a1,1,0,0,0,.55,0Z"/><path class="cls-26" d="M113.6,72a.42.42,0,0,1-.31.12,1.36,1.36,0,0,0-.48.16.14.14,0,0,1-.17,0l.22-.23Z"/><path class="cls-27" d="M73.89,22.57a.35.35,0,0,1-.11,0,2.53,2.53,0,0,1-.06-.91Z"/><path class="cls-28" d="M127.73,15.81a5.91,5.91,0,0,0-.84-.15l0-.08c0-.11.17-.05.24-.1C127.34,15.54,127.59,15.57,127.73,15.81Z"/><path class="cls-29" d="M123.87,24l0-.1.63,0c.06,0,.06.09,0,.15A2.17,2.17,0,0,0,123.87,24Z"/><path class="cls-30" d="M73.79,23.51v.8a1,1,0,0,1-.08-.74S73.76,23.53,73.79,23.51Z"/><path class="cls-31" d="M127.1,15.48c-.06.08-.15.08-.24.1a.25.25,0,0,1-.25-.18A.57.57,0,0,1,127.1,15.48Z"/><path class="cls-32" d="M74.44,24.21a.09.09,0,0,1,.11.09.11.11,0,0,1-.12.14s-.07-.05-.07-.07S74.35,24.22,74.44,24.21Z"/><path class="cls-30" d="M74,24.2a.32.32,0,0,1-.1-.31c0-.09.06-.13.15-.15C73.93,23.88,74,24.05,74,24.2Z"/><path class="cls-30" d="M73.79,23c.14.16.18.32,0,.48Z"/><path class="cls-33" d="M99.59,15.07l-.48,0c0-.2.1-.18.23-.11h.24A.05.05,0,0,1,99.59,15.07Z"/><path class="cls-34" d="M127.48,66.16a.38.38,0,0,1,.2-.25C127.69,66.14,127.69,66.14,127.48,66.16Z"/><path class="cls-30" d="M73.78,24.32H74c0,.05,0,.1,0,.12S73.8,24.43,73.78,24.32Z"/><path class="cls-7" d="M89.89,58.13a10.2,10.2,0,0,1-2.07-.26c-.66-.1-1.3-.22-1.95-.34l-.28-.07c-.09,0-.14-.08-.12-.17a2.29,2.29,0,0,1,.08-.28q1.07-4,2.15-8c.13-.51.14-.5.67-.42l2.82.42a5.54,5.54,0,0,1,1.82.58,3.53,3.53,0,0,1,2,3.29,5.38,5.38,0,0,1-1,3.22,4.75,4.75,0,0,1-3.71,2Z"/><path class="cls-7" d="M94,58.9c0-.13.08-.22.14-.31q2.79-4,5.57-8a.5.5,0,0,1,.57-.26c.5.09,1,.15,1.5.22.23,0,.26.06.3.29.07.42.13.84.19,1.26q.47,3.33.91,6.64c.08.54.15,1.08.22,1.62,0,.18,0,.24-.23.21l-1-.17-.34-.06c-.72-.13-.63,0-.72-.79,0-.27-.07-.54-.09-.82s-.12-.25-.3-.28L98.18,58c-.3-.05-.62-.08-.92-.15a.41.41,0,0,0-.52.23c-.19.31-.41.61-.61.93a.42.42,0,0,1-.52.23c-.4-.09-.8-.14-1.21-.22A1,1,0,0,1,94,58.9Z"/><path class="cls-7" d="M80.28,56.63A4.66,4.66,0,0,1,77.72,56,3.57,3.57,0,0,1,76,53.13a5.26,5.26,0,0,1,3.83-5.55,4.76,4.76,0,0,1,3.51.37,3.61,3.61,0,0,1,2,3,5.28,5.28,0,0,1-3.73,5.53A4.36,4.36,0,0,1,80.28,56.63Z"/><path class="cls-7" d="M99.75,41.41l.4-1.57c.59-2.25,1.17-4.51,1.76-6.76,0-.11.07-.22.1-.34a.18.18,0,0,1,.21-.15l.52,0,3.66.34a4,4,0,0,1,1.39.39A2.09,2.09,0,0,1,109,35.6a3.27,3.27,0,0,1-3.19,2.93,6.07,6.07,0,0,1-1.28-.05c-.5-.06-1-.12-1.51-.16s-.4,0-.49.32c-.2.77-.39,1.55-.6,2.32-.06.23,0,.54-.25.68s-.46,0-.69,0A5.54,5.54,0,0,1,99.75,41.41Z"/><path class="cls-7" d="M89.85,40.28a.84.84,0,0,1,.23-.46c1.71-2.47,3.43-4.94,5.12-7.42A.74.74,0,0,1,96,32c.4.07.81.08,1.21.12.25,0,.29.06.33.32.09.63.17,1.27.25,1.9.18,1.39.37,2.77.55,4.15.12.87.23,1.73.35,2.6,0,.16,0,.23-.18.22l-1.68-.21a.21.21,0,0,1-.22-.22c0-.38-.08-.77-.13-1.16a.24.24,0,0,0-.25-.25l-3.13-.35c-.55-.06-.44-.06-.74.37-.17.26-.35.52-.51.78a.4.4,0,0,1-.43.21C90.92,40.41,90.4,40.35,89.85,40.28Z"/><path class="cls-7" d="M104.69,51.07a.62.62,0,0,1,.4,0c.48.07,1,.16,1.44.21a.6.6,0,0,1,.64.53c.12.53.3,1,.45,1.56l.6,2c0,.14.09.29.14.42s.25-.12.34-.21l2.42-2.68a5.62,5.62,0,0,0,.46-.53.65.65,0,0,1,.76-.25c.46.08.92.13,1.38.2a1.83,1.83,0,0,1,.57.14c-.05.21-.22.31-.35.45q-2.3,2.4-4.6,4.79a1.82,1.82,0,0,0-.52,1c-.15.68-.33,1.35-.5,2,0,.13-.06.26-.1.39-.1.39-.1.4-.51.33s-.69-.11-1-.19-.49,0-.6-.16,0-.44.09-.66c.18-.75.36-1.51.56-2.26a1.26,1.26,0,0,0,0-.79q-.93-2.79-1.83-5.58A1.76,1.76,0,0,1,104.69,51.07Z"/><path class="cls-7" d="M92.28,31.74a13.05,13.05,0,0,1-.36,1.4.2.2,0,0,1-.23.15l-.58,0L88.21,33H88a.2.2,0,0,0-.21.16l-.42,1.52a1.85,1.85,0,0,0,.68.15l2.79.27.23,0a.14.14,0,0,1,.1.18c-.11.43-.23.86-.35,1.29a.15.15,0,0,1-.16.13l-.47,0-2.66-.29-.29,0c-.31,0-.33,0-.41.27-.19.65-.36,1.31-.54,2L86,39.64a.23.23,0,0,1-.27.17l-1.32-.17c-.2,0-.24-.09-.18-.28l.54-2,1.56-5.67c0-.09.06-.19.08-.28.08-.25.1-.26.38-.25h.17l5.17.46Z"/><path class="cls-7" d="M77.16,47c-.14.48-.26.93-.39,1.37,0,.17-.11.21-.31.19l-1.21-.18-.34,0c-.61-.08-.49,0-.63.42q-.84,2.94-1.66,5.88c-.15.52-.1.52-.68.41a4.57,4.57,0,0,1-1.11-.26c.15-.75.4-1.48.61-2.23l.63-2.24c.21-.74.43-1.48.64-2.23-.12-.15-.29-.11-.43-.14a4,4,0,0,0-.46-.08l-1.1-.17a.18.18,0,0,1-.15-.25c.12-.39.23-.78.34-1.17a.22.22,0,0,1,.26-.18l1,.14L77,47Z"/><path class="cls-35" d="M117.66,64.33a3.44,3.44,0,0,1-.15.85c-.12.56-.26,1.12-.4,1.69,0,.16,0,.35-.19.47a.13.13,0,0,0,0,.15c.1.33-.1.64-.12,1s-.18.29-.38.32c.12-.91.41-1.79.61-2.69.18-.75.36-1.49.55-2.24.06-.06,0-.17.1-.24v-.22c.29.06.13.25.13.4l0,.18C117.67,64.07,117.75,64.22,117.66,64.33Z"/><path class="cls-36" d="M117.79,63.78c0-.14,0-.3-.13-.4.34-1.34.67-2.68,1-4a2.7,2.7,0,0,0,0-.28c.23,0,.16.13.12.25a1.36,1.36,0,0,1,0,.29c-.31,1.34-.62,2.68-.94,4A.77.77,0,0,1,117.79,63.78Z"/><path class="cls-37" d="M118.83,59.32c0-.09,0-.19-.12-.25l.69-2.69.36-1.4s.07,0,.11,0a1.64,1.64,0,0,1,0,.23c-.31,1.32-.62,2.64-.94,4A.55.55,0,0,1,118.83,59.32Z"/><path class="cls-38" d="M116.4,68.77a3.16,3.16,0,0,1-.72,1.85c-.11,0-.15,0-.13-.12a6,6,0,0,0,.59-1.57A.2.2,0,0,1,116.4,68.77Z"/><path class="cls-39" d="M120.81,51a10.11,10.11,0,0,1-.27,1.33c-.05.26-.14.51-.21.76,0,.06-.07.06-.11,0,.13-.58.26-1.15.4-1.73l.09-.38.05,0C120.73,51.06,120.88,51,120.81,51Z"/><path class="cls-40" d="M124.12,38.68l-.06-.15a1.51,1.51,0,0,1-.11-.59,1.71,1.71,0,0,1,.25-.82,8.82,8.82,0,0,1,0,1.36A.56.56,0,0,1,124.12,38.68Z"/><path class="cls-41" d="M120.22,53.12h.11a6.08,6.08,0,0,1-.33,1.32.1.1,0,0,1,0-.09s0-.05,0-.05A6.58,6.58,0,0,1,120.22,53.12Z"/><path class="cls-42" d="M115.55,70.5l.13.12a1.35,1.35,0,0,1-.56.6.27.27,0,0,1,0-.26Z"/><path class="cls-43" d="M124,37.94a.77.77,0,0,1,.11.59c-.1-.05-.09-.19-.21-.21A.34.34,0,0,1,124,37.94Z"/><path class="cls-44" d="M120,54.29l0,.14a.63.63,0,0,1-.12.46.1.1,0,0,1,0-.08s0-.05,0-.05C119.89,54.6,119.81,54.42,120,54.29Z"/><path class="cls-42" d="M115,71.32a.5.5,0,0,1-.36.24A.3.3,0,0,1,115,71.32Z"/><path class="cls-45" d="M119.86,54.76l0,.13s0,.07,0,.09h-.11A.22.22,0,0,1,119.86,54.76Z"/><path class="cls-36" d="M117.65,63.6c0,.1,0,.19-.1.24A.25.25,0,0,1,117.65,63.6Z"/><path class="cls-42" d="M115.12,71.21a.15.15,0,0,1-.14.12A.14.14,0,0,1,115.12,71.21Z"/><path class="cls-7" d="M84.89,15.12l-.13,0a.25.25,0,0,1-.05-.32c.19-.09.46-.06.31-.44a3,3,0,0,0-2.76-1.88,1.94,1.94,0,0,0-1.47.72c-1.58,1.89-.63,5.4,1.55,6,.35.1.62.26.66.65a.82.82,0,0,1-.47.86,1.49,1.49,0,0,1-1-.33c.24-.06.44.13.68.09,0,0,.08,0,.08-.06a.11.11,0,0,0,0-.09l-.85-.38a5,5,0,0,1-2.71-3.51,3.59,3.59,0,0,1-.13-1,4.13,4.13,0,0,1,2-3.63,3.7,3.7,0,0,1,1.27-.4,4,4,0,0,1,1.43.07,3.66,3.66,0,0,1,1.52.71,5.23,5.23,0,0,1,1.76,2.41c.06.14.09.29.14.44s-.24.11-.36.13A5.31,5.31,0,0,1,84.89,15.12Z"/><path class="cls-46" d="M117.31,15.35l0,0h-.05a.28.28,0,0,1-.13-.24,3.32,3.32,0,0,1,1.73-2.77,1.66,1.66,0,0,1,1.84.26,3.84,3.84,0,0,1,1.28,2.1c0,.22.1.46-.15.62a8.63,8.63,0,0,1-1.9.06l-2.37.06A.5.5,0,0,1,117.31,15.35Z"/><path class="cls-8" d="M82.53,20.69l.27-.44a.58.58,0,0,0-.34-.88,4,4,0,0,1-.81-.31A3.53,3.53,0,0,1,80.3,17.5a4.59,4.59,0,0,1-.45-2.19,4.19,4.19,0,0,1,.65-2,2.24,2.24,0,0,1,1.29-.94,2.45,2.45,0,0,1,1.9.25,4.13,4.13,0,0,1,1.6,2,.47.47,0,0,1,0,.17.23.23,0,0,1-.33.19,1.7,1.7,0,0,1-.23-.17c-.19-.09-.25-.29-.34-.46a2,2,0,0,0-3.79.16,1.89,1.89,0,0,0-.09.21,1.05,1.05,0,0,1-.22.45v.13a.16.16,0,0,1,0,.22,3.61,3.61,0,0,0,1.57,3.29,2.69,2.69,0,0,0,.95.41c.46.1.56.28.51.74a1.31,1.31,0,0,1-.2.54A.5.5,0,0,1,82.53,20.69Z"/><path class="cls-47" d="M121.86,15.28a3.76,3.76,0,0,0-.91-2.21,1.76,1.76,0,0,0-2.89,0,3.49,3.49,0,0,0-.85,2.29,4.52,4.52,0,0,0,.46,2.82,2.74,2.74,0,0,0,1.28,1.3,1,1,0,0,0,.34.08c.23.17.64-.21.79.24a1.83,1.83,0,0,1-.12.74.83.83,0,0,1-1,.61,2.3,2.3,0,0,1-1.19-.53,1.89,1.89,0,0,1,.66.17c.15,0,.3.08.43-.06s.26-.07.38-.13a.36.36,0,0,0,.24-.36c0-.19-.12-.27-.28-.31a3,3,0,0,1-2-1.93,5.3,5.3,0,0,1,.22-4.91,2.39,2.39,0,0,1,4.24-.15,4.6,4.6,0,0,1,.71,1.58.65.65,0,0,0,.68.58c.14,0,.47-.07.35.3-.44,0-.87,0-1.3,0A.16.16,0,0,1,121.86,15.28Z"/><path class="cls-48" d="M117.31,15.35a.12.12,0,0,1,.1,0c1.22,0,2.44,0,3.66,0a2.47,2.47,0,0,1,.81.06l.09.06c-.14.16-.32.11-.49.11h-4C117.39,15.56,117.33,15.48,117.31,15.35Z"/><path class="cls-49" d="M96.3,15.33a.41.41,0,0,0,0,.11l-2.91,0h-.81v-.16c.37-.25.78-.13,1.18-.15.63,0,1.26,0,1.89,0C95.88,15.18,96.11,15.14,96.3,15.33Z"/><path class="cls-50" d="M80.33,15.45v-.22h.81c.61.12,1.24,0,1.86.08l.12,0s0,0,0,.05l0,0Z"/><path class="cls-51" d="M105.26,15.42a.25.25,0,0,1,.2-.09l3.05.05a.43.43,0,0,1,.16,0C107.54,15.45,106.4,15.47,105.26,15.42Z"/><path class="cls-52" d="M85.21,15.35h1.86s.06,0,.05.05l0,0H85.22Z"/><path class="cls-53" d="M120.08,19.78a.42.42,0,0,0-.35-.15.57.57,0,0,1-.44-.09.43.43,0,0,0,.36-.14c.09-.12.2-.06.29,0A.37.37,0,0,1,120.08,19.78Z"/><path class="cls-54" d="M100.28,15.43a.83.83,0,0,1,.21-.06l1.3,0v.08Z"/><path class="cls-55" d="M87.09,15.43s0-.06,0-.08l1.06,0c.13,0,.26,0,.35.11Z"/><path class="cls-56" d="M77,15.35l1.15,0v.13l-1.19,0S76.89,15.36,77,15.35Z"/><path class="cls-57" d="M101.79,15.43v-.08h1l0,.12Z"/><path class="cls-58" d="M83.81,15.35h.94v.08h-.93s0,0,0,0S83.8,15.35,83.81,15.35Z"/><path class="cls-15" d="M114.84,15.37a.17.17,0,0,1,.12.16c0,.17,0,.34,0,.51C114.81,15.83,114.91,15.59,114.84,15.37Z"/><path class="cls-59" d="M83.81,15.35a.25.25,0,0,1,0,.08h-.7v-.08Z"/><path class="cls-60" d="M77,15.35l0,.09h-.6A.82.82,0,0,1,77,15.35Z"/><path class="cls-61" d="M84.75,15.43v-.08h.46a.22.22,0,0,1,0,.08Z"/><path class="cls-62" d="M124.17,40.31c0-.5,0-1,0-1.51a.29.29,0,0,1,.21.31,15.87,15.87,0,0,1-.09,2.48,3.45,3.45,0,0,0,0,.46c0,.9,0,1.81,0,2.71,0,.19,0,.39-.1.56-.33-.47-.11-1-.18-1.52s0-1.09,0-1.64A7.67,7.67,0,0,1,124.17,40.31Z"/><path class="cls-63" d="M123.47,66.86c-.12-.1-.1-.24-.1-.37,0-.55,0-1.09,0-1.63a.52.52,0,0,1-.08-.47,5.19,5.19,0,0,0,0-1.18c0-.49,0-1,0-1.46a2.76,2.76,0,0,1,.14-1.27.13.13,0,0,1,.19,0c.2.51-.06,1,0,1.53v3.63a1,1,0,0,1-.06.56Z"/><path class="cls-64" d="M124.19,43.78c0,.51,0,1,0,1.54,0,1.49,0,3,0,4.46,0,.18,0,.38-.1.55-.23-.21-.17-.5-.17-.76,0-.55,0-1.11,0-1.66,0-1,0-2.07,0-3.1a2.4,2.4,0,0,1,.13-1A.14.14,0,0,1,124.19,43.78Z"/><path class="cls-65" d="M124.06,47.85c0,.83,0,1.65,0,2.48s0,1.39,0,2.09a.14.14,0,0,1-.17-.08,4.83,4.83,0,0,1-.08-1.26V48.55a1.32,1.32,0,0,1,.09-.62A.15.15,0,0,1,124.06,47.85Z"/><path class="cls-66" d="M123.63,62l0-1.55c-.27-.36-.13-.78-.16-1.18s0-.65,0-1a1,1,0,0,1,.15-.75.13.13,0,0,1,.18.07c0,1.23.07,2.47,0,3.7v.63A.1.1,0,0,1,123.63,62Z"/><path class="cls-67" d="M123.63,62l.09-.06c0,1.3,0,2.59,0,3.89a.52.52,0,0,1-.11.38c0-1,0-1.92,0-2.88C123.61,62.89,123.62,62.45,123.63,62Z"/><path class="cls-68" d="M123.72,61.31c0-.93,0-1.86,0-2.79,0-.32,0-.65,0-1a.35.35,0,0,1,0-.43.13.13,0,0,1,.16-.06V61A.42.42,0,0,1,123.72,61.31Z"/><path class="cls-69" d="M123.83,57.05l-.1.05c-.22-.2-.15-.47-.17-.73V54a1.6,1.6,0,0,1,.08-.72.16.16,0,0,1,.16-.1.26.26,0,0,1,.13.16,1.14,1.14,0,0,1,0,.41c0,.38,0,.76,0,1.15a12.71,12.71,0,0,1,0,1.95Z"/><path class="cls-70" d="M123.84,56.87l0-2c0-.06,0-.06.09,0v1.63A.52.52,0,0,1,123.84,56.87Z"/><path class="cls-71" d="M126.63,23.77c.3.15.63,0,.94.08-.06,0-.13.1-.19.1-.35,0-.69,0-1,0a.66.66,0,0,1-.2-.11C126.31,23.82,126.46,23.73,126.63,23.77Z"/><path class="cls-72" d="M123.87,53.7v-.35c0-.32-.19-.65.09-.94h.1c0,.34,0,.68,0,1a.39.39,0,0,1-.09.26C123.93,53.76,123.9,53.75,123.87,53.7Z"/><path class="cls-73" d="M123.87,53.7h.1c0,.39,0,.78,0,1.16h-.09C123.86,54.48,123.86,54.09,123.87,53.7Z"/><path class="cls-71" d="M124.9,24a.28.28,0,0,1,0-.09,2.92,2.92,0,0,1,1.06,0,.36.36,0,0,1-.31.12Z"/><path class="cls-74" d="M123.72,53.24a1.34,1.34,0,0,0,0,.63c-.11.83,0,1.67,0,2.5a4.68,4.68,0,0,1-.06,1.18v.64c-.13.76,0,1.52-.09,2.28a7.22,7.22,0,0,0,0,1.23,11.76,11.76,0,0,0,0,1.57,5,5,0,0,1-.06,1.16.79.79,0,0,0,0,.43,11.46,11.46,0,0,0-.1,2,1.18,1.18,0,0,1-.14.55,3.68,3.68,0,0,1-2,.54,10.46,10.46,0,0,1-3.34-.42,2,2,0,0,0-.22-.09c-.15,0-.16-.15-.13-.27s0-.11,0-.17c1.87-7.17,3.57-14.39,5.4-21.57.27-1.05.52-2.11.77-3.17.13-.53.23-1.06.35-1.59.31.46.06,1,.14,1.46a11.06,11.06,0,0,1-.06,1.63,3.36,3.36,0,0,0,0,1c-.07.76,0,1.52,0,2.28a21.58,21.58,0,0,0-.11,3,8.22,8.22,0,0,0,0,1.49A5.53,5.53,0,0,1,123.72,53.24Z"/><path class="cls-3" d="M124.09,42.14c0-.32,0-.63,0-1a.76.76,0,0,0-.09-.49.57.57,0,0,1,.18-.39c0,.61,0,1.21,0,1.82C124.16,42.2,124.13,42.2,124.09,42.14Z"/><path class="cls-36" d="M117.66,64.33c0-.13,0-.27.09-.37A.48.48,0,0,1,117.66,64.33Z"/><path class="cls-75" d="M109.73,15.1h-4.15c-.26,0-.26,0-.28-.35a5.22,5.22,0,0,1,.39-.83,1.84,1.84,0,0,1,1.31-.87,2,2,0,0,1,1.18.24,3.18,3.18,0,0,1,1.22,1.22c.09.16.13.37.31.46Z"/><path class="cls-76" d="M111.58,15.11s-.09.08-.14.09h-1.35a.38.38,0,0,1-.13-.1Z"/><path class="cls-7" d="M99.34,15c-.08,0-.18,0-.23.11H98.2a2.66,2.66,0,0,0-1,.1c-.08,0-.19,0-.29,0a1.53,1.53,0,0,0,.08-.67h.18c.14,0,.21-.14.17-.24a1.23,1.23,0,0,0-.23-.4,3.56,3.56,0,0,0-2.34-1.3,2.08,2.08,0,0,0-1.53.44,2.86,2.86,0,0,0-1.14,2.25,4.14,4.14,0,0,0,.72,2.59,3.2,3.2,0,0,0,2.26,1.58.22.22,0,0,1,.17.31c-.18.42-.5.61-.88.44a5.39,5.39,0,0,1-1.63-1,5.86,5.86,0,0,1-1.28-1.64A5.09,5.09,0,0,1,91,14.65a3.75,3.75,0,0,1,1.71-2.84,3.51,3.51,0,0,1,1.87-.57,4.42,4.42,0,0,1,3.29,1.35,5,5,0,0,1,1.33,2A3.14,3.14,0,0,0,99.34,15Z"/><path class="cls-46" d="M97,14.52a3.65,3.65,0,0,1,.24.31c.09.14,0,.25-.16.31l-.16,0a1.07,1.07,0,0,0-.47,0,18.7,18.7,0,0,1-2.12,0,1.84,1.84,0,0,0-.62.05H92.58a2.14,2.14,0,0,1,.34-1.26,1.87,1.87,0,0,1,2.29-.88,3.12,3.12,0,0,1,1.39.92A2.21,2.21,0,0,0,97,14.52Z"/><path class="cls-7" d="M123.38,15.32c-.21-.16-.45-.08-.68-.09s-.39-.06-.48-.38L122,14a3.58,3.58,0,0,0-.83-1.39,2.45,2.45,0,0,0-1.52-.77,1.92,1.92,0,0,0-1.45.47,3.36,3.36,0,0,0-1,1.45,4.19,4.19,0,0,0-.32,1.75,7.58,7.58,0,0,0,.11,1.5,4.63,4.63,0,0,0,.88,1.81,2.24,2.24,0,0,0,1.59,1c.18,0,.23.08.24.27a1.4,1.4,0,0,1,0,.29.47.47,0,0,1-.6.45l-.22-.08a5.11,5.11,0,0,1-2.68-2.05,5.62,5.62,0,0,1-.84-2.26,5.32,5.32,0,0,1,.67-3.52,4.19,4.19,0,0,1,2.41-2,3.84,3.84,0,0,1,2.88.18A4.62,4.62,0,0,1,123.84,14a3.15,3.15,0,0,1,.23,1.36h0A.94.94,0,0,1,123.38,15.32Z"/><path class="cls-77" d="M123.38,15.32l.7,0a.22.22,0,0,1,0,.1H122v0s-.06,0,0-.06,0,0,0,0Z"/><path class="cls-78" d="M93.69,15.32a2.67,2.67,0,0,1,.85-.07l1.89,0-.13.11Z"/><path class="cls-46" d="M80.42,14.63A2.56,2.56,0,0,1,81.61,13a1.62,1.62,0,0,1,1.62-.1,2.72,2.72,0,0,1,1.39,1.42,2.46,2.46,0,0,1,.14.38v.35H82.32a10.43,10.43,0,0,0-1.58,0C80.42,15,80.31,14.93,80.42,14.63Z"/><path class="cls-79" d="M80.42,14.63c0,.06,0,.11,0,.17s0,.22.18.22h.92a2.33,2.33,0,0,1,.79.05,13.34,13.34,0,0,1-2,0C80.3,14.93,80.27,14.76,80.42,14.63Z"/><path class="cls-79" d="M83,15.31a7.24,7.24,0,0,1-1.86-.08,16.26,16.26,0,0,1,1.71,0A.55.55,0,0,1,83,15.31Z"/><path class="cls-80" d="M84.89,15.12h1.49s-.06.06-.09.07a5.74,5.74,0,0,1-1.31,0S84.92,15.14,84.89,15.12Z"/><path class="cls-1" d="M92.93,53.26a4,4,0,0,1-.48,1.6,2.71,2.71,0,0,1-2.39,1.51,3.68,3.68,0,0,1-.81,0l-1.09-.18c-.36,0-.42-.1-.3-.49s.27-1,.4-1.46c.3-1.12.6-2.24.91-3.36.08-.31.1-.33.39-.29l1.55.26a2.28,2.28,0,0,1,.44.15A2.17,2.17,0,0,1,92.93,53.26Z"/><path class="cls-81" d="M100.73,56.3c0,.29,0,.34-.26.31l-2.23-.37a.13.13,0,0,1-.08-.22c.14-.23.29-.45.45-.68l1.45-2.17a1.18,1.18,0,0,1,.13-.18.21.21,0,0,1,.1,0s.07,0,.08.07c.08.75.16,1.5.25,2.25C100.66,55.63,100.7,56,100.73,56.3Z"/><path class="cls-1" d="M83.36,51.67a3.64,3.64,0,0,1-.92,2.24,2.85,2.85,0,0,1-3.07.82,2.14,2.14,0,0,1-1.51-2,3.64,3.64,0,0,1,.84-2.54,2.81,2.81,0,0,1,2.76-1A2.26,2.26,0,0,1,83.36,51.67Z"/><path class="cls-82" d="M105.16,36.8l-1.9-.2c-.16,0-.2-.09-.17-.24.15-.58.31-1.16.45-1.74a.24.24,0,0,1,.26-.18l.7.05,1,.1a4.4,4.4,0,0,1,.74.14.82.82,0,0,1,.57,1,1.22,1.22,0,0,1-1.22,1.11C105.52,36.81,105.4,36.8,105.16,36.8Z"/><path class="cls-83" d="M93.8,37.48a.45.45,0,0,1,.12-.27l1.7-2.56a1.7,1.7,0,0,1,.1-.14.31.31,0,0,1,.14-.09c.08,0,.07.07.08.12l.09.81c.08.74.16,1.47.23,2.2,0,.16,0,.24-.17.23L94,37.56A.55.55,0,0,1,93.8,37.48Z"/><path class="cls-84" d="M122,15.33v.1l-4.25,0a.4.4,0,0,1-.32-.11,1.31,1.31,0,0,1,.52-.06c1.31,0,2.62,0,3.93,0Z"/><path class="cls-85" d="M124.09,42.14a.14.14,0,0,0,.09,0c0,.55,0,1.1,0,1.65h-.12A15.14,15.14,0,0,1,124.09,42.14Z"/><path class="cls-86" d="M123.5,60.47a12.43,12.43,0,0,1,.09-2.28c0,.75,0,1.51,0,2.26Z"/><path class="cls-66" d="M123.39,63.26a6.29,6.29,0,0,1,.08-1.56l0,1.56C123.45,63.31,123.42,63.31,123.39,63.26Z"/><path class="cls-22" d="M123.39,63.26h.1v.86a.36.36,0,0,1-.12.31A5.72,5.72,0,0,1,123.39,63.26Z"/><path class="cls-87" d="M123.94,47a17.17,17.17,0,0,1,.1-2.27l0,2c0,.36,0,.73,0,1.09l-.09,0A1.4,1.4,0,0,1,123.94,47Z"/><path class="cls-88" d="M123.94,47l0,.86,0,3.24c-.07,0-.12,0-.15,0a4,4,0,0,1,0-1A20.15,20.15,0,0,1,123.94,47Z"/><path class="cls-89" d="M123.85,51.17l.09-.06c0,.43,0,.87,0,1.3V53a.42.42,0,0,1-.09.32l0-.13a11.51,11.51,0,0,1,0-1.66C123.8,51.43,123.73,51.28,123.85,51.17Z"/><path class="cls-90" d="M123.6,57.55a7.62,7.62,0,0,1,0-1.17c0-.05.07-.05.09,0,0,.23,0,.47,0,.71v.44Z"/><path class="cls-91" d="M123.71,56.39h-.09c0-.78,0-1.56,0-2.34a.55.55,0,0,1,0-.17C123.76,54.71,123.72,55.55,123.71,56.39Z"/><path class="cls-92" d="M123.85,51.48c0,.58,0,1.16,0,1.74l-.11,0a11.49,11.49,0,0,1,0-1.76S123.81,51.43,123.85,51.48Z"/><path class="cls-93" d="M123.85,51.48h-.1a5.1,5.1,0,0,1,.08-1.46c0,.38,0,.76,0,1.15Z"/></svg>