<svg id="Layer_1" data-name="Layer 1" xmlns="http://www.w3.org/2000/svg" viewBox="0 0 200 83.88"><defs><style>.cls-1{fill:#1a344e;}.cls-2{fill:#326ae9;}.cls-3{fill:#fad3d3;}.cls-4{fill:#f43451;}.cls-5{fill:#041d35;}.cls-6{fill:#0e1c29;}.cls-7{fill:#121f2d;}.cls-8{fill:#111d2b;}.cls-9{fill:#072039;}.cls-10{fill:#0f1e2c;}.cls-11{fill:#1f344d;}.cls-12{fill:#1e334c;}.cls-13{fill:#203751;}.cls-14{fill:#172737;}.cls-15{fill:#1e394e;}.cls-16{fill:#131e2b;}.cls-17{fill:#15212e;}.cls-18{fill:#16222e;}.cls-19{fill:#203852;}.cls-20{fill:#1e344e;}.cls-21{fill:#31445a;}.cls-22{fill:#17222d;}.cls-23{fill:#182736;}.cls-24{fill:#223a54;}.cls-25{fill:#223951;}.cls-26{fill:#142633;}.cls-27{fill:#263b52;}.cls-28{fill:#1b2331;}.cls-29{fill:#142431;}.cls-30{fill:#192432;}.cls-31{fill:#26394f;}.cls-32{fill:#1d3442;}.cls-33{fill:#21303f;}.cls-34{fill:#273b51;}.cls-35{fill:#222f3d;}.cls-36{fill:#1d2734;}.cls-37{fill:#233142;}.cls-38{fill:#1a2937;}.cls-39{fill:#363945;}.cls-40{fill:#16222f;}.cls-41{fill:#242c39;}.cls-42{fill:#434f62;}.cls-43{fill:#4b2431;}.cls-44{fill:#0f1d2c;}.cls-45{fill:#24334d;}.cls-46{fill:#d6dadf;}.cls-47{fill:#2d3e51;}.cls-48{fill:#5a666f;}.cls-49{fill:#71b2da;}.cls-50{fill:#34435a;}.cls-51{fill:#324154;}.cls-52{fill:#353f4a;}.cls-53{fill:#efffa4;}.cls-54{fill:#1d344e;}.cls-55{fill:#1b3550;}.cls-56{fill:#363334;}.cls-57{fill:#20273b;}.cls-58{fill:#223a53;}.cls-59{fill:#182b41;}.cls-60{fill:#202a3e;}.cls-61{fill:#283e5f;}.cls-62{fill:#be4e98;}.cls-63{fill:#3b394f;}.cls-64{fill:#443a50;}.cls-65{fill:#336ae9;}.cls-66{fill:#336be9;}.cls-67{fill:#1f3851;}.cls-68{fill:#363133;}.cls-69{fill:#253a50;}.cls-70{fill:#25374f;}.cls-71{fill:#2b2829;}.cls-72{fill:#1c2738;}.cls-73{fill:#1f3249;}.cls-74{fill:#222b40;}.cls-75{fill:#25364e;}.cls-76{fill:#1f2434;}.cls-77{fill:#2c3d55;}.cls-78{fill:#433343;}.cls-79{fill:#2d2f2a;}.cls-80{fill:#b1344f;}.cls-81{fill:#273348;}.cls-82{fill:#222b3d;}.cls-83{fill:#27273a;}.cls-84{fill:#7c7887;}.cls-85{fill:#1c364f;}.cls-86{fill:#1f3951;}.cls-87{fill:#1c2f42;}.cls-88{fill:#1b2d3f;}.cls-89{fill:#1b2938;}.cls-90{fill:#424458;}.cls-91{fill:#0a3a69;}.cls-92{fill:#093b69;}.cls-93{fill:#1e324b;}.cls-94{fill:#2b324b;}.cls-95{fill:#f9d3d3;}.cls-96{fill:#fff;}.cls-97{fill:#121e2b;}.cls-98{fill:#27324b;}.cls-99{fill:#332634;}.cls-100{fill:#132030;}.cls-101{fill:#093a69;}.cls-102{fill:#2a4d57;}.cls-103{fill:#7eb8b7;}.cls-104{fill:#2b3c54;}.cls-105{fill:#0e1b28;}.cls-106{fill:#1d3650;}.cls-107{fill:#353436;}.cls-108{fill:#373537;}.cls-109{fill:#353435;}.cls-110{fill:#223953;}.cls-111{fill:#23364e;}.cls-112{fill:#1d3c54;}.cls-113{fill:#40383a;}.cls-114{fill:#232321;}.cls-115{fill:#24435a;}.cls-116{fill:#213a50;}.cls-117{fill:#1a2c3a;}.cls-118{fill:#1d3744;}.cls-119{fill:#2e3042;}.cls-120{fill:#f3ffd1;}.cls-121{fill:#203850;}.cls-122{fill:#222533;}.cls-123{fill:#1e2335;}.cls-124{fill:#334658;}.cls-125{fill:#182b3c;}.cls-126{fill:#25323e;}</style></defs><path class="cls-1" d="M82.23,24.06a5.13,5.13,0,0,1-.35-1.45c-.14-.74-.23-1.49-.36-2.23a15.57,15.57,0,0,1,1.68-10A18.4,18.4,0,0,1,95.42.56a17.72,17.72,0,0,1,19.35,7.57,13.26,13.26,0,0,1,2,5.33,32.34,32.34,0,0,1,.43,4.91,9.77,9.77,0,0,1-.28,2.58,2.75,2.75,0,0,1-.14.8c-.2-.14-.13-.35-.15-.53s-.1,0,0,0,0,0,0,.06,0,.45-.34.27a4.2,4.2,0,0,1-.11-1.69,14.48,14.48,0,0,0-.72-5.47,17.42,17.42,0,0,0-3.22-5.76,1.06,1.06,0,0,0-1-.32c-3.26.44-6.52.91-9.78,1.36-4.09.56-8.18,1.19-12.28,1.66a12.57,12.57,0,0,1-2.67.16,1.77,1.77,0,0,0-1.76.94A11.88,11.88,0,0,0,83,16.78a33,33,0,0,0-.4,4.08,8.81,8.81,0,0,0,.33,2.44,2.35,2.35,0,0,1,.12.87c0,.22-.1.54-.32.54s-.32-.37-.39-.62c0-.09,0,0,0-.06S82.25,24,82.23,24.06Z"/><path class="cls-2" d="M92.35,60.17a1.4,1.4,0,0,0-.54,0,4.56,4.56,0,0,1-1.32-.27.71.71,0,0,1-.57-.75c0-.13,0-.27,0-.4a.25.25,0,0,1,.08-.23l.12-.12,0-.06a1.36,1.36,0,0,0,.18-.74,1.26,1.26,0,0,1,0-.27,1.9,1.9,0,0,0,0-1,7.43,7.43,0,0,0-.3-1c0-.14-.09-.27-.13-.41a2.6,2.6,0,0,1-.06-.56,10.52,10.52,0,0,1,.07-2.1c.1-.23.33-.28.52-.39a.75.75,0,0,1,.3-.09c.37,0,.73.13,1.1.16h4.5a22.25,22.25,0,0,0,3.16-.09,13,13,0,0,1,1.53,0c4.17-.05,8.34-.32,12.51-.28a.58.58,0,0,0,.5-.16.77.77,0,0,1,1,.16,5.42,5.42,0,0,1-.75,3.38,8,8,0,0,1-3.51,3.71,8,8,0,0,0-1.25.84,1.08,1.08,0,0,1-.35.19c-.15.07-.31-.07-.46,0l-1,.06a1.07,1.07,0,0,1-.65.16c-3.41-.1-6.81.2-10.21.13-1.08,0-2.16,0-3.25,0A3,3,0,0,0,92.35,60.17Z"/><path class="cls-3" d="M107.44,60.37a1.35,1.35,0,0,1,0,1.13c-.13.1-.12.25-.13.4a1.5,1.5,0,0,1-.06.29c0,.57,0,1.14,0,1.72,0,1.51,0,3,0,4.53a1.4,1.4,0,0,1-.16.85,1.14,1.14,0,0,1-.78.19c-1.83,0-3.66-.06-5.49.08a.73.73,0,0,1-.33-.08c-.29-.27-.23-.63-.23-1,0-1.69,0-3.37,0-4.85a46.16,46.16,0,0,0-.14,5.07,1.06,1.06,0,0,1-.19.71,5,5,0,0,1-1.87.3c-1.46.06-2.92-.08-4.37.12a1,1,0,0,1-.6-.11c-.3-.29-.23-.67-.23-1a4.4,4.4,0,0,0-.12-.81,8.34,8.34,0,0,1,0-1c0-1.65-.12-3.3-.08-5a.86.86,0,0,0-.14-.64l.29-.95a1,1,0,0,1,.83-.23c4.16,0,8.33,0,12.49,0C106.57,60.15,107.05,60,107.44,60.37Z"/><path class="cls-4" d="M83,51.87a.18.18,0,0,0-.22-.1.62.62,0,0,1-.38.07,3.3,3.3,0,0,1-1.71-1.92,12.12,12.12,0,0,1-.53-5.31,14.67,14.67,0,0,1,1.22-4.86c.35-.62.62-1.29,1-1.88l.12-.16.07-.07c.27-.26.53-.55.82-.79a2.13,2.13,0,0,1,1.8-.59c.1,0,.25.05.25-.11s-.15-.15-.25-.21a.4.4,0,0,1-.13-.13l0-.09a.84.84,0,0,0,.43-.31,3.12,3.12,0,0,1,2-.95c.38-.06.76-.08,1.14-.11a1,1,0,0,0,.62,0l.18,0,.25.11.16.09a1.66,1.66,0,0,0,.82.34c.62.27,1.27.5,1.53,1.22a11.89,11.89,0,0,1,1.35,3.54,26.4,26.4,0,0,1,.32,2.64,3.37,3.37,0,0,1,0,.9,2.07,2.07,0,0,1,0,.22c-.13.73,0,1.48-.24,2.21,0,.24-.11.48-.17.72-.15.67-.3,1.35-.51,2a1.09,1.09,0,0,1,0,.17,2.19,2.19,0,0,0-.12.33l-.06.17a2.44,2.44,0,0,1-.1.24,1.22,1.22,0,0,1-.07.17c-.23.79-.89,1.16-1.52,1.55a1.3,1.3,0,0,0-.72.91.37.37,0,0,1-.29,0,.59.59,0,0,1-.13-.29c0-.1,0-.21,0-.32A1.7,1.7,0,0,1,90,51a2.88,2.88,0,0,0,0-.88c0-.83,0-1.66,0-2.5a2,2,0,0,1,0-.34c0-.22.12-.43.18-.65a42.76,42.76,0,0,0,.9-4.59,1.31,1.31,0,0,0-.06-.68,11,11,0,0,0-1.33-3.79A2.24,2.24,0,0,0,88,35.46a2.47,2.47,0,0,0-.94,0c.08.12.31.13.25.34-.4.29-.94.34-1.27.75a3.62,3.62,0,0,0-.22.32,13.42,13.42,0,0,0-1.35,4.63l0,.31a2.87,2.87,0,0,1,0,.31,2.74,2.74,0,0,0-.08.75c-.17,1.11-.26,2.24-.44,3.35a5.17,5.17,0,0,0-.14,1,1.42,1.42,0,0,1,0,.2,10.22,10.22,0,0,0-.25,1.45A3.5,3.5,0,0,0,83.38,50a3,3,0,0,1,0,.67,3,3,0,0,0-.09.9c0,.17,0,.35-.2.45s-.15,0-.06,0A.34.34,0,0,1,83,51.87Z"/><path class="cls-3" d="M112.65,58.84a.33.33,0,0,1-.12-.29c0-.17,0-.35,0-.52a.14.14,0,0,1,0-.16.57.57,0,0,1,.11-.16l.14-.12a11.9,11.9,0,0,0,2.16-3.34,6,6,0,0,0,.39-1.43,3.29,3.29,0,0,0,.08-.83,1.8,1.8,0,0,1,.06-.32,9.12,9.12,0,0,0-.4-4.77c-.32-.74-.69-1.47-1-2.21a9.39,9.39,0,0,0-.7-1.18c-.29-.46-.2-.76.32-.84a15.09,15.09,0,0,1,2.92-.32c.56,0,.9.2,1,.81a7.53,7.53,0,0,0,.34,1.46,68.88,68.88,0,0,1,1.69,10c0,.27.09.54.13.81,0,.7,0,1.39.09,2.09s-.35,1.33-1,1.26c-.21-.09-.31-.34-.58-.4-.36.76,0,1.84-1,2.31-.37,0-.39-.33-.42-.6a4.73,4.73,0,0,0-.1-1.11,4.51,4.51,0,0,1-.5,1.61l-.13.15a.61.61,0,0,1-.27.15.51.51,0,0,1-.55-.22,2.67,2.67,0,0,1-.15-1.58,2.2,2.2,0,0,0,0-1.29c-.36.2-.5.57-.78.78a1.34,1.34,0,0,1-1.17.28.4.4,0,0,1-.26-.35.89.89,0,0,0,0-.14s0,.08,0,.12S112.8,58.76,112.65,58.84Z"/><path class="cls-5" d="M86.65,32.16a4.37,4.37,0,0,1-1.48,2.17,3.17,3.17,0,0,1-2.48.76,3,3,0,0,1-2.31-1.63,4.35,4.35,0,0,1,1.68-5.87,3.52,3.52,0,0,1,1.22-.41.39.39,0,0,1,.44,0,.37.37,0,0,1,.11.41c-.62.46-1.33.76-1.92,1.27A2.39,2.39,0,0,0,81,31.3c0,.23,0,.46,0,.68a2,2,0,0,0,1.3,1.77,2.39,2.39,0,0,0,2.36-.47,4.21,4.21,0,0,0,1.05-1.49,1.29,1.29,0,0,0,.12-.58c0-.17,0-.39.21-.45s.31.13.41.27l.15.22a.78.78,0,0,1,.16.24,1.86,1.86,0,0,1,.1.25.49.49,0,0,1,0,.17C86.93,32.09,86.7,32,86.65,32.16Z"/><path class="cls-6" d="M111.84,81.33a1.23,1.23,0,0,1,.14.31.29.29,0,0,1-.26.39c-.25.06-.5.08-.75.13-.53.11-1.08.15-1.61.31a3.82,3.82,0,0,1-1.43,0l-.88-.07a2.71,2.71,0,0,0-1.4.25,2,2,0,0,1-1.27.13,2.82,2.82,0,0,1-1.1.66c-.18,0-.36.06-.54.09a12.65,12.65,0,0,0-1.35.22,4.75,4.75,0,0,1-1.84,0c-1.36-.16-2.72-.31-4.09-.34A11.49,11.49,0,0,1,94,83.29a11.25,11.25,0,0,0-1.16-.05,2.57,2.57,0,0,1-.48,0c-.27,0-.39-.25-.33-.55a1.7,1.7,0,0,1,.07-.21c-.42-.19-.75-.45-.72-1a4.34,4.34,0,0,1,0-1.3c.6.21.38.78.63,1.1a3.47,3.47,0,0,0,1.26,1c1.81.62,3.73.45,5.59.74a9.21,9.21,0,0,0,3.27,0,2.46,2.46,0,0,0,.58-.19c.28-.2.65-.2.91-.45s.34-.45.66-.44h.23l.22,0a3,3,0,0,0,1.74-.09,11.19,11.19,0,0,1,2.82-.22,5.62,5.62,0,0,1,1.3.07C111.12,81.89,111.39,81.37,111.84,81.33Z"/><path class="cls-7" d="M119.53,55.43a8.13,8.13,0,0,1-.24-1.62c-.2-1.67-.4-3.35-.7-5-.12-.63-.22-1.25-.32-1.88s-.28-1.15-.43-1.73c0-.17-.07-.35-.11-.53a5.06,5.06,0,0,1-.11-.86,2.69,2.69,0,0,0-.76-1.85.71.71,0,0,1,.06-.43,7.93,7.93,0,0,0-.43-2.31,9.29,9.29,0,0,0-.51-1.76c-.08-.17-.26-.43.12-.53a2.29,2.29,0,0,1,.53,1c.17.45.3.91.47,1.36a8.87,8.87,0,0,1,.37,1.52c.06.34.06.69.35.93a.21.21,0,0,1,0,.26c-.13.2,0,.4,0,.59.2,1.08.44,2.14.73,3.2a9.39,9.39,0,0,1,.27,1.48c.06.5.17,1,.24,1.48.14,1,.27,2,.41,3.06s.28,2.12.39,3.19c.08.81.12,1.63.17,2.45a.79.79,0,0,1-.14.58c-.26,0-.19-.19-.2-.33C119.64,56.94,119.66,56.18,119.53,55.43Z"/><path class="cls-8" d="M82.53,38l-1,1.72a10.91,10.91,0,0,0-1.22,3.66,13.33,13.33,0,0,0,.09,5.76,4.44,4.44,0,0,0,1.2,2.18c.31.32.28.35-.07.46h0s-.08-.11-.15-.12h0a.22.22,0,0,0-.17-.14,3.05,3.05,0,0,1-.9-1.26,7.74,7.74,0,0,1-.68-2.63,16.25,16.25,0,0,1,1.2-7.88,10.41,10.41,0,0,1,1.27-2.25,5.27,5.27,0,0,1,1.15-1.16,2,2,0,0,1,1-.47,1.38,1.38,0,0,1,.83,0h0c0,.22-.14.27-.28.29a3.31,3.31,0,0,0-2.2,1.65h0A.24.24,0,0,0,82.53,38Z"/><path class="cls-9" d="M116.5,26.24a4.59,4.59,0,0,1,1.18,4,6.33,6.33,0,0,1-.5,1.76,4.2,4.2,0,0,1-1.46,1.77,2.66,2.66,0,0,1-3.53-.41,2.6,2.6,0,0,1-.48-.66c-.23-.13-.19-.28,0-.41s.31,0,.41.11a5.19,5.19,0,0,0,.56.68,1.17,1.17,0,0,0,.89.41,3.45,3.45,0,0,0,3.42-4,7.35,7.35,0,0,1-.1-.82,3,3,0,0,0-1.09-2.19.2.2,0,0,1,.06-.18.37.37,0,0,1,.17-.1C116.18,26.19,116.35,26.12,116.5,26.24Z"/><path class="cls-10" d="M96.77,59.68l2.87,0,7-.08c.34,0,.68,0,1,0,.27.33.26.44,0,.64a.64.64,0,0,1-.33,0,11.61,11.61,0,0,0-2.5,0c-1.65,0-3.31.09-5,0a9.62,9.62,0,0,0-2.57,0,3.7,3.7,0,0,1-.88,0c-.31,0-.81.06-.82-.26s.47-.15.73-.22A1.37,1.37,0,0,0,96.77,59.68Z"/><path class="cls-11" d="M92,81.47A.45.45,0,0,1,91.7,81a.86.86,0,0,0-.24-.68l0,1.2,0-.06a5.94,5.94,0,0,1,.37-3.12,1.29,1.29,0,0,1,.79-.79c.41-.1.33-.44.33-.72,0-1.34,0-2.67,0-4a1.71,1.71,0,0,1,.12-.87c.57-.08.38.39.39.62,0,1.13,0,2.26,0,3.4s0,1,.92.57a8.12,8.12,0,0,1,1.7-.7c.11,0,.22,0,.33,0a10.13,10.13,0,0,0,1.45-.32,1.35,1.35,0,0,1,1,0,.19.19,0,0,1,.07.2.86.86,0,0,1-.65.32,17.08,17.08,0,0,0-3.48,1.14,7.78,7.78,0,0,0-2,1.24c-.6.47-.54,1.25-.62,2C92.11,80.73,92.26,81.13,92,81.47Z"/><path class="cls-11" d="M108.15,76.14c.19.12.38.23.56.36a.8.8,0,0,1,.39.44c0,.31.13.64-.07.94-.32.14-.39-.15-.53-.3a2.41,2.41,0,0,0-1.52-1,.92.92,0,0,1-.59-.32,2.23,2.23,0,0,0-2.13-.67,5.78,5.78,0,0,0-2.68.93c-.3,0-.32-.26-.35-.48a.32.32,0,0,1,.08-.2c1.31-.81,3.48-1.84,5.41-.72,0-1,0-2,0-3,0-.27-.15-.68.34-.75a1.49,1.49,0,0,1,.16,1c0,.8,0,1.6,0,2.39S107.29,75.78,108.15,76.14Z"/><path class="cls-1" d="M96.77,59.68c-.28.36-.7.24-1.21.3a3.47,3.47,0,0,0,.49.21,2.85,2.85,0,0,0,1.61-.13.89.89,0,0,1,.73-.05.92.92,0,0,0,.26.07c.78,0,1.53.21,2.31.15a10.35,10.35,0,0,0,1.84-.12,1.85,1.85,0,0,1,.74,0,2.88,2.88,0,0,0,1.74-.09,1.72,1.72,0,0,1,1.32,0,7.77,7.77,0,0,0,1.06.25l-.22.13c-.16,0-.31,0-.47,0l-10.74.06-3.42,0c-.15-.07-.33-.08-.46-.21,0-.16,0-.32.23-.36a4.21,4.21,0,0,1,.6-.11C94.38,59.67,95.57,59.62,96.77,59.68Z"/><path class="cls-12" d="M81.56,51.73c.07,0,.23,0,.15-.14a7,7,0,0,0-.67-.85,3.48,3.48,0,0,1-.84-1.91c-.09-.53-.15-1.07-.26-1.61a2.42,2.42,0,0,1,0-.47,13.83,13.83,0,0,1,0-1.44A9.4,9.4,0,0,1,80.59,42a2,2,0,0,0,.15-.59,3.54,3.54,0,0,1,.7-1.67.29.29,0,0,1,.12-.07c-.2.6-.41,1.2-.6,1.81a16.07,16.07,0,0,0-.62,6,8.45,8.45,0,0,0,.48,2.26A3.69,3.69,0,0,0,82,51.46a1.25,1.25,0,0,1,.38.38C82.08,52.12,81.82,52,81.56,51.73Z"/><path class="cls-13" d="M115.85,26.38l.45.4a2.49,2.49,0,0,1,.75,1.8c-.28,0-.29-.24-.36-.42a2.81,2.81,0,0,0-.3-.6c-.54-.73-.68-.73-1.07.07-.11.23-.23.45-.34.67-.19.41-.64.82,0,1.2,0,0,0,.08-.07.11a2.43,2.43,0,0,1-1.46-.05c-.18-.3,0-.52.16-.74a18.23,18.23,0,0,0,2.22-5.69c0-.23,0-.52.33-.62.39.42.2.91.11,1.35a10.48,10.48,0,0,1-.61,1.87c-.06.13-.12.25.12.24a.21.21,0,0,0,.14.16c.05,0,.06,0,.05.07s0,0,0,0h0A.47.47,0,0,0,115.85,26.38Z"/><path class="cls-14" d="M83,51.87l.08-.42c.13-.27,0-.58.1-.86l0-.64c.1-.08,0-.36.27-.27.35.59.12,1.23.16,1.85a2.08,2.08,0,0,1,0,.23,6.25,6.25,0,0,0-.14,2.82,3.47,3.47,0,0,1-.14,2.16c-.21.83,0,1.69-.15,2.53-.07.11-.14.21-.3.15a.63.63,0,0,1-.23-.54,12.64,12.64,0,0,1,.18-3.13,4.64,4.64,0,0,0,0-1.29A18.64,18.64,0,0,1,83,51.87Z"/><path class="cls-15" d="M116.1,36.92a.22.22,0,0,0-.06.3,12.9,12.9,0,0,1,.87,3,9.41,9.41,0,0,0,.25.91c0,.18.07.36-.12.49-.33-.07-.32-.38-.34-.6a14.37,14.37,0,0,0-.86-2.87,2.19,2.19,0,0,0-2.38-1.7h-.89a2.13,2.13,0,0,0-.44,0l-.15.05-.21.08-.13.07-.13.07-.06,0a.57.57,0,0,1-.13.08.41.41,0,0,1-.16,0c-.11,0-.21-.07-.15-.22h0a.29.29,0,0,0,.14-.13h0a.86.86,0,0,0,.14-.13h0a.53.53,0,0,0,.13-.13h0l.13-.11,0,0c.11-.12.3,0,.39-.14h0c.12-.1.3,0,.41-.12l0,0,0,0a9.49,9.49,0,0,1,2.44,0,.61.61,0,0,1,.4.21A3.49,3.49,0,0,1,116.1,36.92Z"/><path class="cls-13" d="M113.52,33.62a.91.91,0,0,1-.81-.29,2.76,2.76,0,0,1-.72-.9c0-.08-.11-.15-.22-.1s-.13.16-.08.28a.14.14,0,0,1,0,.06c-.2,0-.29.21-.43.32a7.29,7.29,0,0,1-1.08.92c-.23,0-.47.07-.68-.1s0-.34.18-.46a23.3,23.3,0,0,0,3.09-3.19c.11-.14.23-.3.45-.24a.84.84,0,0,1,.22.55,2.45,2.45,0,0,1-.78,1.25c-.34.36-.3.61,0,1S113.37,33.18,113.52,33.62Z"/><path class="cls-16" d="M109.5,33.75l.4,0a.34.34,0,0,1,.3.13,11.34,11.34,0,0,1-2.44,1.67c-.13.11-.21.26-.38.32a2.61,2.61,0,0,0-.28.17.91.91,0,0,1-.38.16l-.33.07-.17,0c-.28,0-.61.18-.85-.14a.29.29,0,0,1,0-.18,1,1,0,0,1,.13-.16,21.68,21.68,0,0,0,3.53-2A.38.38,0,0,1,109.5,33.75Z"/><path class="cls-17" d="M93.09,71.84c0,.45,0,.91,0,1.36,0,1.3,0,2.59,0,3.89a.46.46,0,0,1-.37.5s-.12,0-.18-.06c.15-.17.1-.38.1-.58,0-.72,0-1.43,0-2.15-.09-1.19,0-2.39,0-3.59,0-.3.12-.43.42-.3a.55.55,0,0,1,.17.2A.74.74,0,0,1,93.09,71.84Z"/><path class="cls-18" d="M108.15,76.14a.18.18,0,0,1-.29,0,1.6,1.6,0,0,0-.82-.35V71.44a.76.76,0,0,1-.08-.78.56.56,0,0,1,.14-.2c.33-.22.44-.09.43.26V73.8a1.38,1.38,0,0,0,.06.67c0,.29,0,.58,0,.86s0,.52.34.64A.75.75,0,0,1,108.15,76.14Z"/><path class="cls-19" d="M107.59,74.47c-.16-.14-.12-.33-.12-.51,0-.93,0-1.86,0-2.8v-.54c0-.16-.07-.18-.22-.09l-.17.11a1.13,1.13,0,0,1,0-1.31c0-1.64,0-3.28,0-4.92,0-.21,0-.41,0-.62a.14.14,0,0,1,.2.08c.12,1.11,0,2.23.06,3.34a1.53,1.53,0,0,0,.08.75,1.66,1.66,0,0,1,.08-1.34,8.77,8.77,0,0,1,0,2.4c-.11,0-.15.09-.11.15s.05-.08.11-.07a3,3,0,0,1,.08.94c0,1.39,0,2.78,0,4.16A2.45,2.45,0,0,1,107.59,74.47Z"/><path class="cls-20" d="M111.84,81.33a1.36,1.36,0,0,0-.24.24.85.85,0,0,1-1,.37,7.24,7.24,0,0,0-1.23-.06.19.19,0,0,1,0-.12s0-.06,0-.06c.31-.38.76-.23,1.15-.29s.58-.2.32-.61a9.23,9.23,0,0,0-1.45-2.06c-.2-.17-.44-.37-.3-.7.9,0,1.32.67,1.71,1.33.23.38.32.85.71,1.13A1.79,1.79,0,0,1,111.84,81.33Z"/><path class="cls-21" d="M92.52,61.33c.09,0,.19,0,.22.11a1.24,1.24,0,0,1,0,.33c.06,1.64.11,3.27.16,4.9a1.23,1.23,0,0,1,0,.27c-.26.09-.28-.17-.41-.28a2.53,2.53,0,0,1-.08-.87Z"/><path class="cls-22" d="M107.74,35.68a4.2,4.2,0,0,1,2.83,1,.45.45,0,0,0,.31.12.22.22,0,0,1,.08.18c-.08.27-.17.54-.49.62a.44.44,0,0,1-.25-.08,4.43,4.43,0,0,0-2.89-1.18.3.3,0,0,1-.07-.27A.86.86,0,0,1,107.74,35.68Z"/><path class="cls-23" d="M115.82,26c-.14.07-.11.24-.21.34a.17.17,0,0,1-.19,0,.13.13,0,0,1-.09-.16c.1-.28.22-.55.32-.82s.18-.47.28-.7a4.47,4.47,0,0,0,.3-2.14.61.61,0,0,1,.13-.94.34.34,0,0,0,.15-.29,4.9,4.9,0,0,1,0-.54.22.22,0,0,1,.12-.13c.1,0,.11.06.11.11,0,.34,0,.68,0,1a13.86,13.86,0,0,1-.62,3.19C116.08,25.29,115.94,25.63,115.82,26Z"/><path class="cls-24" d="M93.05,71.06c-.33-.12-.38-.1-.39.19v.34c0,.82,0,1.64,0,2.46,0,.25,0,.5,0,.75a1.36,1.36,0,0,1-.06-.6c0-1,0-2,0-3,0-.79,0-1.57,0-2.36.27-.26-.11-.81.41-1a4.11,4.11,0,0,1,.1,1c0,.26,0,.53.06.79A1.22,1.22,0,0,1,93.05,71.06Z"/><path class="cls-25" d="M84.81,59.18c-.07,0-.15-.1-.24,0a6.67,6.67,0,0,0-.16-1.67A4.66,4.66,0,0,1,84.54,56c0-.24.15-.47.43-.46s.32.3.33.52c.06,1.05,0,2.1.08,3.14C85.19,59.77,85,59.18,84.81,59.18Z"/><path class="cls-26" d="M112.55,57.93a.34.34,0,0,0,0,.1l-2.29,1.33a3.57,3.57,0,0,1-.87.39.4.4,0,0,1-.44-.09c0-.15.1-.19.18-.26l.26-.14c.94-.55,1.9-1.06,2.8-1.68.26-.19.55-.36.53.21h0C112.62,57.79,112.58,57.86,112.55,57.93Z"/><path class="cls-27" d="M114.2,58.44c.14-.2.28-.41.43-.61a1.9,1.9,0,0,1,.28-.29.21.21,0,0,1,.34.13,1.45,1.45,0,0,1,.06.59,6.46,6.46,0,0,0,0,2.36c-.43.08-.24-.37-.42-.5,0-.09-.09.05,0,0s0,0,0,0,.11.35-.06.5a1,1,0,0,1-.14-.71c0-.36,0-.72,0-1.07a.18.18,0,0,0-.16-.19C114.56,58.43,114.3,58.57,114.2,58.44Z"/><path class="cls-28" d="M111.5,80.5c-.11,0-.23,0-.3-.11a3.44,3.44,0,0,1-.43-.77,2.16,2.16,0,0,0-.77-1,2.44,2.44,0,0,0-.93-.56c-.09,0-.14,0-.1-.14v-.67a.42.42,0,0,1,.13-.3,16.87,16.87,0,0,0,1.38,1.66,1.51,1.51,0,0,1,.27.39C111,79.49,111.25,80,111.5,80.5Z"/><path class="cls-29" d="M83.74,27.2l-.46,0c-.23-.61-.48-1.21-.71-1.83A3,3,0,0,1,82.5,25c-.1-.13,0-.32-.13-.43s0-.05,0-.09a.86.86,0,0,0-.1-.32.12.12,0,0,1,0-.13l0-.28c.27.22.18.62.43.84.13-.07.09-.26.24-.31l.07.07A17.18,17.18,0,0,1,83.74,27.2Z"/><path class="cls-30" d="M119.53,55.43s.11.11.11.16a14.12,14.12,0,0,1,.17,1.94c0,.18,0,.37.13.5a2,2,0,0,1,0,.34c-.26.79-.66,1-1.46.6a.08.08,0,0,0-.13.05.1.1,0,0,1,0,.1c-.36-.12-.23-.35-.11-.55s.33-.12.5,0a.71.71,0,0,0,.18.08c.33.08.47,0,.6-.27a2,2,0,0,0,.15-1.06A15.09,15.09,0,0,1,119.53,55.43Z"/><path class="cls-23" d="M107.49,66.62l-.06,1.44a.63.63,0,0,1-.24-.62V65.81c0-.68,0-1.35,0-2a7.23,7.23,0,0,1,0-1.8l0-.24c.29,0,.18.24.19.39a11.52,11.52,0,0,0,.06,1.66C107.49,64.73,107.52,65.68,107.49,66.62Z"/><path class="cls-31" d="M116,60.61a3.5,3.5,0,0,0,.47-1.54,3.38,3.38,0,0,1,.09-.54.13.13,0,0,1,.15-.1.37.37,0,0,1,.16.1.84.84,0,0,1,.07.47c0,.43,0,.86,0,1.29,0,.17.06.32.26.35l0,.09c-.17.25-.4,0-.58.07-.18-.17-.18-.17-.38,0C116.13,60.77,116,60.75,116,60.61Z"/><path class="cls-32" d="M86.85,60.11a.08.08,0,0,1-.09-.06.14.14,0,0,1-.1-.1l0,0c-.09-.05-.06-.18-.15-.24h0c-.13-.21,0-.52-.21-.7a4.35,4.35,0,0,1-.09-1.48,1.29,1.29,0,0,1,0-.19.64.64,0,0,0,0-.43.81.81,0,0,1,0-.38.36.36,0,0,1,.11-.16.32.32,0,0,1,.3,0,.72.72,0,0,1,.11.19c.1.87,0,1.73.06,2.59,0,.06,0,.12,0,.18l.06.16,0,.07.09.13,0,.06a.94.94,0,0,0,.1.1l.06,0a.52.52,0,0,0,.21,0,.58.58,0,0,0,.21-.07l.11-.09.1-.11,0,0a2.14,2.14,0,0,1,.13-.19.21.21,0,0,1,.13-.07.26.26,0,0,1,.13.08s0,.11,0,.16a.26.26,0,0,1-.07.22h0a.25.25,0,0,0-.1.18.1.1,0,0,1-.06.09.29.29,0,0,1-.1.12.54.54,0,0,1-.69.14c-.07-.07-.19,0-.26-.12h0A.31.31,0,0,0,86.85,60.11Z"/><path class="cls-33" d="M88.27,59.54V59.4a.47.47,0,0,1-.12-.27,1.36,1.36,0,0,1,0-.2,2.36,2.36,0,0,0,0-1.15,1.58,1.58,0,0,1,0-.38,1.93,1.93,0,0,0-.08-.47,1.06,1.06,0,0,1,0-.19c0-.17,0-.39.16-.47s.23.14.31.25l.06.18a2.7,2.7,0,0,0,.08.41.75.75,0,0,1,.05.16c0,.07,0,.14.07.22s0,.09,0,.13a.76.76,0,0,0,.12.19,1.27,1.27,0,0,0,.12.1l.14.08a3.62,3.62,0,0,0,.43.24.41.41,0,0,0,.22,0l.14-.06a.3.3,0,0,1,.15,0l.08,0c.09.09.12.18,0,.27v0a.25.25,0,0,1-.12.11l-.16.16c-.49.19-.8-.17-1.18-.39a4.7,4.7,0,0,1-.19,1,.34.34,0,0,0-.09.19s0,.06,0,.08S88.32,59.6,88.27,59.54Z"/><path class="cls-34" d="M118.67,58.58c-.13,0-.27-.14-.37,0s-.24.35,0,.53a2.05,2.05,0,0,1-.39,1.38c-.25,0-.39.34-.67.17l0,0a1.81,1.81,0,0,0,.58-1.2q0-.42.12-.81a2.62,2.62,0,0,1,.11-.4.22.22,0,0,1,.39,0C118.5,58.31,118.58,58.45,118.67,58.58Z"/><path class="cls-35" d="M86.35,57.21V59c0,.08-.09.13-.12.2v.05l0,0c-.08.07,0,.2-.13.28a.48.48,0,0,1-.48.4c-.25,0-.5,0-.62-.26-.08-.08,0-.21-.13-.29l0-.22s.09-.13.15,0,.15.22.28.27a1,1,0,0,0,.47-.17c.21-.17.19-.42.23-.65a1.06,1.06,0,0,1,0-.19,2.09,2.09,0,0,0,.06-.66.91.91,0,0,1,.12-.49A.14.14,0,0,1,86.35,57.21Z"/><path class="cls-36" d="M114.2,58.44c.17,0,.28-.1.41-.19a.14.14,0,0,1,.18,0c.07.08,0,.16,0,.23l-.17.21a1.84,1.84,0,0,1-1.23.46.75.75,0,0,1-.71-.3c0-.18,0-.35,0-.53s.08-.07.13,0h0c.11.12,0,.31.14.41A1.76,1.76,0,0,0,114.2,58.44Z"/><path class="cls-37" d="M84.58,57.62c.19.16.07.39.14.57a.84.84,0,0,1-.13.81.59.59,0,0,0,0,.14.8.8,0,0,1-.37.56.23.23,0,0,0-.17.13h0l-.15.1,0,0h-.07a.26.26,0,0,1-.3,0l-.13,0a.4.4,0,0,1-.12-.1l0,0-.12-.12v0a.32.32,0,0,1-.11-.12l-.07-.12.19-.16.05,0h.08a.5.5,0,0,1,.12.08l.06,0,.09.1,0,0,.11.05h.12l.1-.07,0,0L84,59.3l0-.06.07-.15a4.29,4.29,0,0,1,.24-.59,1.43,1.43,0,0,0,.09-.54A.47.47,0,0,1,84.58,57.62Z"/><path class="cls-38" d="M116,60.61a.46.46,0,0,1,.31.17h0a.19.19,0,0,0-.14.15.71.71,0,0,1-1.26-.29V60c.24.2.2.51.44.59a.47.47,0,0,0,.49.12.16.16,0,0,0,.16-.12Z"/><path class="cls-7" d="M92.94,67.9c-.14.08-.14.22-.15.36a.77.77,0,0,1-.26.6,17.93,17.93,0,0,1,0-2.2l.41.28A3.86,3.86,0,0,1,92.94,67.9Z"/><path class="cls-39" d="M89.74,34.62a.17.17,0,0,1-.1,0,.44.44,0,0,0-.2-.13h0a.62.62,0,0,1-.35-.27v-.06a.16.16,0,0,1-.1-.08l0,0-.14-.11a4,4,0,0,1-1-.82.27.27,0,0,1,.2-.19c.54.09.83.51,1.19.85l.12.12.06.06.12.12.06,0,.14.09.14.1a1.19,1.19,0,0,1,.09.15.28.28,0,0,0,0,.09C89.9,34.63,89.83,34.68,89.74,34.62Z"/><path class="cls-40" d="M117.22,60.67c.2,0,.32-.2.48-.31s.16,0,.19.14h0a.41.41,0,0,0-.12.17.8.8,0,0,1-.42.39c-.29.13-.45.07-.7-.26,0-.11,0-.29.23-.15S117.09,60.78,117.22,60.67Z"/><path class="cls-41" d="M88,32.94l-.18.17L87,32.35a.51.51,0,0,0-.34-.19c0-.17.22-.19.29-.32.49.09.7.5,1,.83a.71.71,0,0,1,.08.18A.28.28,0,0,1,88,32.94Z"/><path class="cls-42" d="M107.45,63.79a.48.48,0,0,1-.11-.38l0-1.3a.46.46,0,0,0-.11-.37c0-.27,0-.27.25-.24Z"/><path class="cls-43" d="M114.91,35.83h-2.44a1.18,1.18,0,0,1,.58-.14,8.9,8.9,0,0,1,1.55,0A1.17,1.17,0,0,1,114.91,35.83Z"/><path class="cls-44" d="M107.49,69.1s0,0,0,.06,0,.23-.11.28l-.06,0c-.14-.12-.06-.23,0-.35s.11-.14.2,0S107.52,69.07,107.49,69.1Z"/><path class="cls-45" d="M85.14,35.82h-.83a1.14,1.14,0,0,1,.81-.1A.36.36,0,0,0,85.14,35.82Z"/><path class="cls-46" d="M89.09,34.2a.59.59,0,0,1,.35.27,1.75,1.75,0,0,1-.78-.12C88.81,34.3,89,34.36,89.09,34.2Z"/><path class="cls-27" d="M86.23,59.19a.21.21,0,0,1,.12-.2c.22.19.12.45.13.69-.1-.06-.11-.17-.13-.27S86.32,59.24,86.23,59.19Z"/><path class="cls-47" d="M110.89,36.92v-.17a.1.1,0,0,1,.13-.1.33.33,0,0,0,.27.15c.08.26-.11.35-.29.44C110.82,37.17,110.79,37.07,110.89,36.92Z"/><path class="cls-48" d="M107.74,35.68c-.07.18-.28.19-.41.3a.09.09,0,0,1,0-.09s0,0,0,0a.55.55,0,0,1,.43-.27A.12.12,0,0,1,107.74,35.68Z"/><path class="cls-23" d="M116,26.24s0-.07,0-.11c.21-.11.4-.12.54.11Z"/><path class="cls-49" d="M109.12,59.4l-.18.26-.24-.12A.45.45,0,0,1,109.12,59.4Z"/><path class="cls-1" d="M82.37,24.6c.16.1.15.26.13.43A.57.57,0,0,1,82.37,24.6Z"/><path class="cls-47" d="M112.4,35.84c-.1.15-.26.14-.41.12A.45.45,0,0,1,112.4,35.84Z"/><path class="cls-47" d="M112,36c-.08.17-.24.15-.39.14A.37.37,0,0,1,112,36Z"/><path class="cls-1" d="M82.25,24.19a.27.27,0,0,1,.1.32A.33.33,0,0,1,82.25,24.19Z"/><path class="cls-27" d="M87.05,60.23a.25.25,0,0,1,.26.12A.23.23,0,0,1,87.05,60.23Z"/><path class="cls-27" d="M86.08,59.55a.25.25,0,0,1,.13-.28A.34.34,0,0,1,86.08,59.55Z"/><path class="cls-50" d="M83.46,60h.3A.18.18,0,0,1,83.46,60Z"/><path class="cls-25" d="M84.85,59.4a.3.3,0,0,1,.13.29A.27.27,0,0,1,84.85,59.4Z"/><path class="cls-27" d="M86.48,59.68a.23.23,0,0,1,.15.24A.23.23,0,0,1,86.48,59.68Z"/><path class="cls-51" d="M88.27,59.54h.13a.29.29,0,0,1-.13.27Z"/><path class="cls-50" d="M83.07,59.68a.13.13,0,0,1,.12.12A.11.11,0,0,1,83.07,59.68Z"/><path class="cls-50" d="M84,59.83a.18.18,0,0,1,.17-.13A.16.16,0,0,1,84,59.83Z"/><path class="cls-50" d="M83.21,59.82a.11.11,0,0,1,.12.1C83.26,59.93,83.22,59.89,83.21,59.82Z"/><path class="cls-50" d="M83.88,59.93a.15.15,0,0,1,.15-.1A.12.12,0,0,1,83.88,59.93Z"/><path class="cls-50" d="M83,59.54a.15.15,0,0,1,.11.12C83,59.66,83,59.61,83,59.54Z"/><path class="cls-51" d="M88.16,60a.16.16,0,0,1,.1-.18A.17.17,0,0,1,88.16,60Z"/><path class="cls-51" d="M88.43,59.46a.18.18,0,0,1,.09-.19A.16.16,0,0,1,88.43,59.46Z"/><path class="cls-27" d="M86.66,60l.1.1A.09.09,0,0,1,86.66,60Z"/><path class="cls-27" d="M86.85,60.11a.2.2,0,0,1,.18.11A.16.16,0,0,1,86.85,60.11Z"/><path class="cls-51" d="M88,60.21l.1-.12A.11.11,0,0,1,88,60.21Z"/><path class="cls-34" d="M118.31,59c0-.11,0-.16.13-.05Z"/><path class="cls-34" d="M117.76,60.67a.2.2,0,0,1,.12-.17A.15.15,0,0,1,117.76,60.67Z"/><path class="cls-31" d="M116.12,60.94a.17.17,0,0,1,.14-.15A.17.17,0,0,1,116.12,60.94Z"/><path class="cls-47" d="M111.57,36.12a.14.14,0,0,1-.13.11C111.45,36.16,111.49,36.11,111.57,36.12Z"/><path class="cls-12" d="M81.4,51.61a.17.17,0,0,1,.15.12C81.46,51.73,81.41,51.7,81.4,51.61Z"/><path class="cls-12" d="M81.23,51.47a.19.19,0,0,1,.17.14A.16.16,0,0,1,81.23,51.47Z"/><path class="cls-52" d="M89,34.06l.1.08Z"/><path class="cls-47" d="M111.16,36.51a.16.16,0,0,1-.14.13A.14.14,0,0,1,111.16,36.51Z"/><path class="cls-47" d="M111.3,36.38a.19.19,0,0,1-.14.13A.14.14,0,0,1,111.3,36.38Z"/><path class="cls-52" d="M88.81,33.93A.16.16,0,0,1,89,34,.15.15,0,0,1,88.81,33.93Z"/><path class="cls-47" d="M111.43,36.24a.15.15,0,0,1-.13.13A.13.13,0,0,1,111.43,36.24Z"/><path class="cls-3" d="M87.87,32.8a7.68,7.68,0,0,0-.93-1h0c-.12,0-.07-.18-.18-.22l-.13-.18c-.13-.3-.15-.69-.59-.75a9.62,9.62,0,0,1-1.83-2.76,3.93,3.93,0,0,0-.3-.62,24.2,24.2,0,0,1-1-3h0c-.12-.6-.25-1.2-.35-1.81a8.56,8.56,0,0,1-.15-1.43,24.36,24.36,0,0,1,.49-4.89,12.62,12.62,0,0,1,1.32-3.44,4.15,4.15,0,0,1,1-1.22.93.93,0,0,1,.88-.24,1.78,1.78,0,0,0,.61,0c.91-.07,1.82-.11,2.73-.21,1.34-.15,2.67-.34,4-.52l4.47-.62,4.47-.63,4.34-.6,4.55-.64a2.15,2.15,0,0,0,.34-.05.55.55,0,0,1,.63.29,5.22,5.22,0,0,0,.74.89,3.34,3.34,0,0,1,.57.77,33.84,33.84,0,0,1,1.84,3.66,13.25,13.25,0,0,1,1,4.26,22.61,22.61,0,0,1,0,3.08c0,.2,0,.4,0,.61a2.49,2.49,0,0,0-.13.94c-.15.19-.12.43-.17.65a19,19,0,0,1-2.44,6c-.06.1-.1.21-.15.31a.39.39,0,0,1-.26.37l-.06,0a18.41,18.41,0,0,1-3.57,3.7,1,1,0,0,0-.08.11,2.53,2.53,0,0,0-.62.4A16.66,16.66,0,0,1,105.52,36l-.1.09,0,0a.42.42,0,0,1-.22.25,2.15,2.15,0,0,1-1.18,0c-.22-.14-.11-.25,0-.36s.42-.2.56-.58a12.55,12.55,0,0,1-1.94.68l-.2,0A13,13,0,0,1,97.79,36a5,5,0,0,1-1.56-.56c.21.23.58.31.6.68-.18.36-.49.27-.77.21-.6-.12-1.21-.15-1.81-.25a1.35,1.35,0,0,0-1.35.4.53.53,0,0,1-.76-.4A2.43,2.43,0,0,0,91,35.19L90.57,35c-.22-.19-.57-.21-.64-.55h0l-.15-.12,0,0h0a.26.26,0,0,1-.21-.14h0a.38.38,0,0,1-.16-.12h0l-.12-.1-1.22-1h0A.32.32,0,0,1,87.87,32.8Z"/><path class="cls-53" d="M92.77,36.56a1,1,0,0,1,1.14-.71,16.76,16.76,0,0,1,2.34.37.46.46,0,0,0,.55-.14c.26-.18.53,0,.78,0a14,14,0,0,0,4.7.31c.44-.07.86-.17,1.29-.28a.39.39,0,0,1,.31.09l1.38,0c.36.41.74,0,1.11,0h0c.08-.09.21-.07.31-.13l.37-.14c.28-.12.15.22.29.26a3.5,3.5,0,0,1,2.73.88,4.38,4.38,0,0,1,.39.36.88.88,0,0,1,.48.45,11.84,11.84,0,0,1,1.81,5.14,1.77,1.77,0,0,0,.23.48,1.59,1.59,0,0,1,.13.22,1.13,1.13,0,0,0,.1.13l.1.14.1.15c.37.52.51,1.15.83,1.69.06.11.11.22.16.33a3.59,3.59,0,0,1,.17.34,1.08,1.08,0,0,1,.08.19,7.82,7.82,0,0,1,.51,4.43.66.66,0,0,1-.09.19l-.1.06-.74-.16-.17,0-.17-.07-.1,0c-.74.19-1.51,0-2.24.22-1.5.09-3,.07-4.51.14-1.67.07-3.33.12-5,.16h-.76c-1.83,0-3.65.19-5.48.17a1,1,0,0,1-.24,0H95c-.69,0-1.38,0-2.06,0a1.5,1.5,0,0,1-.42,0h-.39a.43.43,0,0,0-.27.06,3.47,3.47,0,0,1-1.06-.23c0-.36.34-.48.58-.62a3.63,3.63,0,0,0,1.73-2.43,1.33,1.33,0,0,1,.05-.19l.12-.38c.29-.92.46-1.88.66-2.82a2.62,2.62,0,0,0,.1-.73,1.26,1.26,0,0,1,0-.33,13.57,13.57,0,0,0-1.11-7C92.85,37,92.65,36.84,92.77,36.56Z"/><path class="cls-54" d="M102,51.47l2.38-.12,6.75-.2.54,0c.79-.14,1.6,0,2.39-.14h0a.86.86,0,0,0,.13.14s.06,0,0,.07c0,.29-.21.37-.48.37-1,0-2.1-.06-3.15,0-2,.12-4.11.07-6.16.16-1.14.06-2.28.1-3.42.09,0-.35.32-.25.52-.26s.65.09,1,.07C102.38,51.55,102.05,51.85,102,51.47Z"/><path class="cls-55" d="M112.71,57.79c-.15-.29-.19-.32-.37-.17a12.53,12.53,0,0,1-2.76,1.61.69.69,0,0,1-.2,0,5.6,5.6,0,0,1,1.5-1.06,7.05,7.05,0,0,0,3-3.09c.09-.18.21-.35.31-.53a6,6,0,0,0,.58-1.6c.08-.52.16-1,.2-1.56h0c.43,0,.37.38.55.57a1.55,1.55,0,0,1-.12.85c-.47.4-.4.95-.42,1.48a.65.65,0,0,1,0,.2,16.82,16.82,0,0,1-1.5,2.51A2,2,0,0,1,112.71,57.79Z"/><path class="cls-56" d="M93.24,48.61a4.7,4.7,0,0,1-.56,1.53,1.76,1.76,0,0,1-.55.6l-1.37,1-.15.08c-.08.09-.15.12-.24,0-.24-.37-.24-.46.06-.66s.84-.51,1.24-.82a2,2,0,0,0,.73-.94.88.88,0,0,1,.12-.17c.3.06.14-.23.25-.33S92.9,48.47,93.24,48.61Z"/><path class="cls-57" d="M102,51.47a.39.39,0,0,0,.3.12c.12,0,.27-.06.39.14h-1.22a.51.51,0,0,0-.44.13,7.9,7.9,0,0,1-1.46,0c-1.06.15-2.13,0-3.19.1a15.56,15.56,0,0,1-1.93,0,.12.12,0,0,1,0-.18,2.9,2.9,0,0,1,.51,0c.19,0,.4.08.57-.09l0,0,0,0a2.27,2.27,0,0,1,.82,0c1.62.06,3.23-.13,4.84-.19A2.12,2.12,0,0,1,102,51.47Z"/><path class="cls-58" d="M90.09,52c0,.49,0,1,0,1.46,0,.29,0,.58,0,.87-.27.33.2.79-.19,1.11-.36-.11-.4-.41-.41-.7a12.61,12.61,0,0,1,0-2.3A.72.72,0,0,1,90,52Z"/><path class="cls-59" d="M89.9,55.44c0-.25,0-.5,0-.75a.38.38,0,0,1,.14-.36v.53c.07.09,0,.2.1.29a2.3,2.3,0,0,1,.32,1.08,2.4,2.4,0,0,1,0,1.13v.26c-.53-.18-.19-.69-.38-1a2.83,2.83,0,0,1-.18-.75c0-.12,0-.24,0-.35S89.9,55.47,89.9,55.44Z"/><path class="cls-60" d="M96.37,52a.45.45,0,0,1,.37-.11h2.82a1.92,1.92,0,0,1-.32.09Z"/><path class="cls-61" d="M90.2,56.52c.19.18.11.41.13.62s0,.35.13.48a.81.81,0,0,1-.28.8.28.28,0,0,0-.13-.26A1.93,1.93,0,0,1,90.2,56.52Z"/><path class="cls-60" d="M94.44,51.87V52H92.38s-.06-.06,0-.09,0,0,0,0a.58.58,0,0,1,.37,0A5,5,0,0,1,94.44,51.87Z"/><path class="cls-61" d="M90.47,57.36c0-.38,0-.75,0-1.13A1.28,1.28,0,0,1,90.47,57.36Z"/><path class="cls-62" d="M90.37,51.85h.24c-.12.24-.33.17-.52.16h0c0-.06,0-.1,0-.14Z"/><path class="cls-63" d="M92.39,51.86a.66.66,0,0,0,0,.14H92s0,0,0-.08,0,0,0,0A.67.67,0,0,1,92.39,51.86Z"/><path class="cls-58" d="M90.16,55.15a.28.28,0,0,1-.1-.29A.3.3,0,0,1,90.16,55.15Z"/><path class="cls-61" d="M90.05,58.55l.12-.11A.12.12,0,0,1,90.05,58.55Z"/><path class="cls-64" d="M92,51.88V52h-.15A.12.12,0,0,1,92,51.88Z"/><path class="cls-65" d="M93.05,71.06c0-.46,0-.92,0-1.38,1.06-.11,2.13-.12,3.21-.13s2.37,0,3.55-.13c.47.58.16,1.13-.07,1.69a1,1,0,0,1-.59.15c-1.73-.06-3.46.23-5.19.14-.31,0-.65,0-.9-.21Z"/><path class="cls-66" d="M107,69.33l0,1.31,0,0,0,0a.8.8,0,0,1-.72.33c-1.69,0-3.37.24-5.06.15a1.67,1.67,0,0,1-.73-.14.65.65,0,0,1-.16-.21c-.08-.48-.21-1,.18-1.39,1.35-.14,2.71-.09,4.07-.13l1.56,0C106.44,69.25,106.73,69.3,107,69.33Z"/><path class="cls-67" d="M100.52,69.39l-.07,1.4c-.24.19-.34.5-.56.71a.2.2,0,0,1-.17-.08.32.32,0,0,1,.07-.38,9.76,9.76,0,0,0,.07-1.62c0-1.12,0-2.23.06-3.35,0-.93.1-1.86.17-2.79a3.85,3.85,0,0,1,.13-.66.11.11,0,0,1,.11,0s.1,0,.1.06a4.9,4.9,0,0,1,0,.54c0,1.82,0,3.65,0,5.47C100.48,68.89,100.5,69.14,100.52,69.39Z"/><path class="cls-42" d="M107.17,62a12,12,0,0,1,0,1.8h-.1A5.52,5.52,0,0,1,107.17,62Z"/><path class="cls-53" d="M89.8,37.46a.58.58,0,0,0,.08.18,6.73,6.73,0,0,1,.92,1.86,5.11,5.11,0,0,1,.33,1.78.94.94,0,0,1-.21.56c-.19.32-.49.26-.78.19-.52-.13-1-.34-1.56-.45-.19-.07-.39-.1-.58-.15a8.3,8.3,0,0,0-1-.22L86.29,41a2.55,2.55,0,0,0-.61-.13l-.16,0a1,1,0,0,0-.43,0,.32.32,0,0,1-.16-.09.9.9,0,0,1-.1-.58A11.79,11.79,0,0,1,86,36.79a1.57,1.57,0,0,1,.2-.25,3.7,3.7,0,0,1,2-.72.54.54,0,0,1,.52.13C89.07,36.44,89.62,36.81,89.8,37.46Z"/><path class="cls-68" d="M92.77,36.56a5.75,5.75,0,0,1,.82,1.86c.08.28.15.57.25.85a7.52,7.52,0,0,1,.42,2.2c0,.84,0,1.68,0,2.52a1.83,1.83,0,0,1-.09.39c-.42-.47-.09-1.07-.28-1.58a2.89,2.89,0,0,0,0-.29,1,1,0,0,1,0-.24c0-.05,0-.1,0-.11s-.06,0,0,.05a.12.12,0,0,1-.09.1,1.56,1.56,0,0,1-.08-.74,7.47,7.47,0,0,0-.33-2.09c-.13-.43-.25-.87-.35-1.32a3.37,3.37,0,0,0-.85-1.68.62.62,0,0,1-.11-.17c0-.1,0-.17.13-.21Z"/><path class="cls-69" d="M86.13,36.81a12,12,0,0,0-1,2.95c0,.16-.09.31-.13.46A1,1,0,0,0,85,41a19.56,19.56,0,0,1-.29,2.64.37.37,0,0,1-.23.32c-.46-.39-.11-.88-.19-1.32a1.78,1.78,0,0,1,.11-.72,1.87,1.87,0,0,0-.08-.32,13.78,13.78,0,0,1,1.12-4.32,1.1,1.1,0,0,1,.33-.51C85.89,36.79,86,36.67,86.13,36.81Z"/><path class="cls-70" d="M89.8,37.46a4,4,0,0,1-1-1.2.53.53,0,0,0-.62-.29,4.06,4.06,0,0,0-2,.72c-.11,0-.22-.06-.27-.17a2,2,0,0,1,1.33-.71c.06,0,.16,0,.19-.05s0,0-.08,0c-.22-.19-.54,0-.75-.19a.49.49,0,0,1,.42-.19c.29,0,.59,0,.89-.06a1.28,1.28,0,0,1,1.07.5c.33.4.65.81,1,1.23a.25.25,0,0,1,0,.25C90,37.38,89.9,37.41,89.8,37.46Z"/><path class="cls-71" d="M93.73,42.31l0-.17s.07,0,.11,0v.27l.14.14a3.17,3.17,0,0,1,.14,1.1c0,.25,0,.49,0,.73l0,.22c-.15.22,0,.5-.12.72a10.13,10.13,0,0,1-.37,1.9,3.39,3.39,0,0,1-.33,1.08c-.08.09-.07.2-.11.3h0a1,1,0,0,0-.45.61.64.64,0,0,1-.19.34c-.11-.07-.06-.19-.08-.3h0c.09-.08.07-.21.12-.31a.12.12,0,0,1,0-.1c.08-.08.07-.2.12-.29h0a8.8,8.8,0,0,0,.57-2.2,1.3,1.3,0,0,1,.13-.67,8.11,8.11,0,0,0,.24-1.11,5.16,5.16,0,0,0,0-1.36Z"/><path class="cls-72" d="M84.43,41.73c0,.05.11.12.1.16A7.48,7.48,0,0,0,84.45,44a.64.64,0,0,1,.16.57,19.65,19.65,0,0,1-.54,3.42c-.11.2-.15.43-.28.62a.15.15,0,0,1-.21,0c-.19-.41,0-.81,0-1.22h0c.22-.3,0-.67.14-1a11,11,0,0,1,.16-1.61c.07-.64.18-1.29.28-1.93.14-.22,0-.49.11-.72l0-.24A.33.33,0,0,1,84.43,41.73Z"/><path class="cls-73" d="M90.86,41.68c0-.2.14-.3.27-.4s.24,0,.23.18a9.43,9.43,0,0,1-.22,1.82c-.22.82-.36,1.67-.55,2.51a2.42,2.42,0,0,1-.25.91c-.43-.44,0-.89,0-1.4,0,0-.14,0,0,0s0,0,0,0c0,.2,0,.48-.31.47a4.3,4.3,0,0,1,.26-2.16,2.85,2.85,0,0,1,.37-.6c.37-.33.12-.75.16-1.13A.86.86,0,0,1,90.86,41.68Z"/><path class="cls-74" d="M90.09,51.85l0,.14c-.14.09-.19.31-.41.29a.48.48,0,0,1-.11-.43,3.05,3.05,0,0,0,.06-.8c0-1.27,0-2.54,0-3.81a.83.83,0,0,1,.07-.34.29.29,0,0,1,.15-.14c.28,0,.29.27.38.45v.27a24.88,24.88,0,0,0-.06,2.73,3.61,3.61,0,0,1-.05.87v.24a.17.17,0,0,0,0,.27Z"/><path class="cls-45" d="M82.66,37.76a.62.62,0,0,1,.18-.42A2.56,2.56,0,0,1,84.91,36a.28.28,0,0,0,.22-.14,1.84,1.84,0,0,1,.41,0,.32.32,0,0,1,.22.37.34.34,0,0,1-.37.24.31.31,0,0,1-.13,0,1.69,1.69,0,0,0-1.43.28,3.94,3.94,0,0,0-.73.61Z"/><path class="cls-75" d="M83.6,47.33c0,.31,0,.61,0,.92a.39.39,0,0,0,.15.34.73.73,0,0,1,.17.63c-.06.62-.12,1.24-.13,1.87,0,.21,0,.46-.32.52,0-.5,0-1,0-1.5,0-.16,0-.32-.13-.43a1.27,1.27,0,0,1,0-.86A3.83,3.83,0,0,1,83.6,47.33Z"/><path class="cls-76" d="M90.19,47.21a.43.43,0,0,1-.28-.42.78.78,0,0,1-.11-.18.68.68,0,0,1,.26-.77c.2-.14.11-.44.38-.59a6.56,6.56,0,0,0-.1,1.45A.92.92,0,0,1,90.19,47.21Z"/><path class="cls-77" d="M90.06,50.22c0-.75,0-1.49,0-2.23,0-.18,0-.37.13-.51a25,25,0,0,1,0,2.74C90.12,50.28,90.09,50.28,90.06,50.22Z"/><path class="cls-56" d="M93.34,46.37a4.89,4.89,0,0,1-.47,2.12s-.06,0-.1.08a11.32,11.32,0,0,1,.37-1.5C93.19,46.84,93.16,46.57,93.34,46.37Z"/><path class="cls-68" d="M93.76,44.6a1.86,1.86,0,0,1-.29,1.1l.27-2.36A2.34,2.34,0,0,1,93.76,44.6Z"/><path class="cls-78" d="M89.93,34.46a1.37,1.37,0,0,1,.64.55,1.13,1.13,0,0,1-.83-.39Z"/><path class="cls-79" d="M93.76,44.6c0-.42,0-.84,0-1.26a.11.11,0,0,1,0-.11c0,.05.11.1.12.15a4.7,4.7,0,0,1,0,1.06C93.86,44.5,93.79,44.55,93.76,44.6Z"/><path class="cls-80" d="M86.65,35.52a3.54,3.54,0,0,1,1.1.23.58.58,0,0,1-.46.06c-.11-.13-.27-.1-.41-.11A.25.25,0,0,1,86.65,35.52Z"/><path class="cls-81" d="M83.32,48.82l0,.86a.31.31,0,0,1-.13.27A2.41,2.41,0,0,1,83.32,48.82Z"/><path class="cls-75" d="M83.73,46.36c0,.24,0,.48,0,.71a.29.29,0,0,1-.15.27A2.19,2.19,0,0,1,83.73,46.36Z"/><path class="cls-82" d="M86,36.52a.26.26,0,0,1,.27.17c0,.06,0,.11-.1.12s-.26.12-.35-.05A.32.32,0,0,1,86,36.52Z"/><path class="cls-56" d="M90.06,50.22h.1a1.49,1.49,0,0,1-.09.86C90.07,50.79,90.06,50.51,90.06,50.22Z"/><path class="cls-81" d="M83.18,50.59c0,.29.12.6-.1.86A1.59,1.59,0,0,1,83.18,50.59Z"/><path class="cls-83" d="M84.28,42.1c0,.25.1.51-.11.72A1.13,1.13,0,0,1,84.28,42.1Z"/><path class="cls-56" d="M92.78,48.56a.26.26,0,0,1-.12.29A.28.28,0,0,1,92.78,48.56Z"/><path class="cls-83" d="M84.43,41.73l-.13.13,0-.27Z"/><path class="cls-56" d="M92.64,49a.26.26,0,0,1-.12.31A.34.34,0,0,1,92.64,49Z"/><path class="cls-58" d="M90.05,51.59c-.14-.09-.13-.18,0-.27Z"/><path class="cls-45" d="M82.53,38a.19.19,0,0,1,.13-.19A.26.26,0,0,1,82.53,38Z"/><path class="cls-84" d="M89.44,34.46a.24.24,0,0,1,.2.13Z"/><path class="cls-85" d="M112.65,43.29a.33.33,0,0,1-.13-.3,8.24,8.24,0,0,0-1-3.5,15.75,15.75,0,0,0-1.11-2c.11,0,.15-.15.21-.24a3.05,3.05,0,0,1,.22-.32c0,.12,0,.23.16.28.4,0,.52.34.67.6a11.53,11.53,0,0,1,1.55,3.83c.06.44.32.42.64.36a8.9,8.9,0,0,1,2.29-.31c.25,0,.51,0,.71.17a.59.59,0,0,0,.28.28.84.84,0,0,1,.41.66,5.89,5.89,0,0,1,.13,1.87,5.34,5.34,0,0,1-.32-1.25c0-.13,0-.27-.08-.4-.12-.61-.19-.47-.63-.48a20.51,20.51,0,0,0-3.13.33l-.2,0c-.15,0-.19.13-.11.25.25.38.51.75.75,1.14a.78.78,0,0,1,.18.44c-.27.09-.33-.15-.46-.28s-.09-.14-.14-.2l-.08-.14a.85.85,0,0,0-.14-.19,2.4,2.4,0,0,1-.3-.41.77.77,0,0,1-.1-.25,1.38,1.38,0,0,1,0-.49C112.79,42.94,112.85,43.2,112.65,43.29Z"/><path class="cls-86" d="M115,51.32a1.47,1.47,0,0,1,0-.21,8.57,8.57,0,0,0-.57-4.42.32.32,0,0,1,0-.14c.68-.09.49.52.67.84,0-.21-.17-.43.06-.62a4.7,4.7,0,0,1,.51,1.76,10.27,10.27,0,0,1,0,3.13.67.67,0,0,1-.06.12C115.37,51.65,115.37,51.27,115,51.32Z"/><path class="cls-87" d="M115.16,46.77l0,.71H115c-.06-.16-.12-.32-.17-.48a.58.58,0,0,0-.44-.46h0c0-.1,0-.23-.15-.29a.28.28,0,0,1-.11-.26,12.32,12.32,0,0,0-.58-1.46.23.23,0,0,1,.09-.18l.09,0c.17.1.2.36.42.41A13.51,13.51,0,0,1,115.16,46.77Z"/><path class="cls-88" d="M115,54.33a.43.43,0,0,1-.19,0c-.08,0,0-.1,0-.16a1.34,1.34,0,0,0,.07-.39,1.47,1.47,0,0,1,.4-1.09c0-.06.09-.08.14,0a.61.61,0,0,1,0,.13A3.06,3.06,0,0,1,115,54.33Z"/><path class="cls-89" d="M115,51.32l.14-.14c.13-.11.24-.09.32,0s0,.38.1.57l0,.22a.51.51,0,0,1-.28-.28.63.63,0,0,0-.27-.29A.09.09,0,0,1,115,51.32Z"/><path class="cls-90" d="M113,58.71c-.19-.09-.17-.25-.14-.41C112.92,58.42,112.91,58.57,113,58.71Z"/><path class="cls-90" d="M112.82,58.3h-.13a1.23,1.23,0,0,1,0-.19.13.13,0,0,1,.09-.07c.08,0,.09.07.07.13A.61.61,0,0,1,112.82,58.3Z"/><path class="cls-31" d="M116,60.62a.15.15,0,0,1-.16.12A.17.17,0,0,1,116,60.62Z"/><path class="cls-55" d="M112.55,57.93a.17.17,0,0,1,.15-.15C112.7,57.88,112.63,57.91,112.55,57.93Z"/><path class="cls-3" d="M85.94,31.85c-.06.14-.12.29-.19.43a3.15,3.15,0,0,1-1.81,1.66,2.19,2.19,0,0,1-3-1.72c0-.28,0-.58-.08-.87a3.39,3.39,0,0,1,2.39-3.2.76.76,0,0,1,.66,0c.39.52.72,1.09,1.06,1.65s.19.68-.39.74a5.07,5.07,0,0,0-1.6.12c-.35.34,0,.41.21.45a7.23,7.23,0,0,0,1.14,0,4.4,4.4,0,0,1,1.2.17C85.82,31.37,86.07,31.48,85.94,31.85Z"/><path class="cls-91" d="M85.94,31.85c0-.17,0-.33-.23-.36s-.72-.12-1.08-.15-.91,0-1.36,0a3.55,3.55,0,0,1-.47-.06.36.36,0,0,1-.32-.32.37.37,0,0,1,.19-.4.65.65,0,0,1,.2,0c.69-.12,1.41.07,2.07-.09a1.24,1.24,0,0,1,1.16.23c.53.19.55.22.52.81-.23-.12-.19-.45-.45-.56-.14.06-.08.19-.09.28a2.43,2.43,0,0,0,0,.27C86.08,31.58,86.1,31.74,85.94,31.85Z"/><path class="cls-92" d="M83.86,28.22A3.32,3.32,0,0,0,81,30.9a1.22,1.22,0,0,1-.13.45,2.31,2.31,0,0,1,.65-2.41,7.29,7.29,0,0,1,1.63-1.18,1.08,1.08,0,0,1,.58-.16c.13-.06,0-.38.3-.27a.6.6,0,0,1,.27.54A.49.49,0,0,1,83.86,28.22Z"/><path class="cls-1" d="M84,27.33l-.3.27v-.4a14.37,14.37,0,0,1-.81-2.56.92.92,0,0,1,0-.33,4.37,4.37,0,0,1,.33.94C83.54,25.94,83.79,26.64,84,27.33Z"/><path class="cls-41" d="M86.75,31.61a.26.26,0,0,1,.18.22C86.8,31.82,86.76,31.73,86.75,31.61Z"/><path class="cls-4" d="M92,81.47a8.7,8.7,0,0,1,.13-2.1,5.66,5.66,0,0,1,.15-.59,1.12,1.12,0,0,1,.6-.71,6,6,0,0,0,.92-.59,6.68,6.68,0,0,1,1.59-.77c.34-.13.68-.25,1-.39a8.23,8.23,0,0,1,1.77-.46l.67-.15a1.38,1.38,0,0,1,1.58.2,3,3,0,0,1,.55.52,17.1,17.1,0,0,0,1.49,2.11,3.54,3.54,0,0,1,.77,1.65,2.52,2.52,0,0,0,.52,1.25c.29.35.1.73.05,1.11-.22.26-.57.26-.85.4a9.89,9.89,0,0,1-4.23.12,32.13,32.13,0,0,0-3.53-.31c-.71,0-1.4-.28-2.12-.35-.22-.15-.43-.32-.66-.45A1.06,1.06,0,0,1,92,81.47Z"/><path class="cls-4" d="M109,77.91a.15.15,0,0,0,.11.14,1.13,1.13,0,0,0,.4.54,4.63,4.63,0,0,1,1,1.29c.14.28.32.54.48.81a1.61,1.61,0,0,1,.27.73,2.93,2.93,0,0,1-1,.17,1.83,1.83,0,0,0-.86.16,11.67,11.67,0,0,1-2.29,0c-.86,0-1.66.4-2.52.37h-.11a.9.9,0,0,1-.27-.42,6,6,0,0,1-.71-1.83,4.38,4.38,0,0,0-1-1.87,3.11,3.11,0,0,1-.89-1.5c0-.11,0-.23.08-.31a2,2,0,0,1,.62-.27c.5-.15,1-.31,1.5-.45a3.85,3.85,0,0,1,1.55,0,1.65,1.65,0,0,1,.89.47c.15.14.29.29.45.42s.26.22.42.15.39,0,.57.14A4.46,4.46,0,0,1,109,77.91Z"/><path class="cls-54" d="M101.61,76.53c.38.57.79,1.11,1.22,1.64a4.34,4.34,0,0,1,.91,2,1.71,1.71,0,0,0,.48,1.11.46.46,0,0,1,.11.38.45.45,0,0,1,0,.45c-.35-.09-.38.22-.52.4,0-.16,0-.32,0-.48a.72.72,0,0,0-.26-.61.92.92,0,0,1-.35-.64c0-.15-.08-.3-.1-.46a4.09,4.09,0,0,0-1-2,6.67,6.67,0,0,1-1.17-1.76.16.16,0,0,1,0-.16.75.75,0,0,1,.46-.27.33.33,0,0,1,.14.22A.24.24,0,0,0,101.61,76.53Z"/><path class="cls-93" d="M93.06,82.41a2.33,2.33,0,0,1,1,0,17.87,17.87,0,0,0,2.3.21c1.29.09,2.57.26,3.85.44a3.57,3.57,0,0,0,1.42,0,5.63,5.63,0,0,1,1.36-.09.31.31,0,0,1-.21.16,9.09,9.09,0,0,1-1.26.26,8,8,0,0,1-1.76,0,10,10,0,0,1-1.54-.21,1.91,1.91,0,0,0-.48,0,5.54,5.54,0,0,1-1.07-.1,4.49,4.49,0,0,0-1.16,0,2.71,2.71,0,0,1-1.06-.17,2.87,2.87,0,0,0-1.12-.26A.3.3,0,0,1,93.06,82.41Z"/><path class="cls-94" d="M104.57,82.15a5.45,5.45,0,0,1,3.11-.45,7.44,7.44,0,0,0,1.7,0v.13c-.43,0-.86,0-1.29,0a4.16,4.16,0,0,0-1.26.17,13.13,13.13,0,0,1-1.53.23A2.61,2.61,0,0,1,104.57,82.15Z"/><path class="cls-94" d="M104.31,82.15l0-.45a1.17,1.17,0,0,1,.13.45Z"/><path class="cls-53" d="M116.91,41.85a10.78,10.78,0,0,0-3,.33l-.2,0c-.49.11-.58.11-.56-.41a1.63,1.63,0,0,0-.06-.54,13.19,13.19,0,0,0-1.84-4,.93.93,0,0,0-.15-.13c-.06-.22.16-.27.23-.4l0,0,.14-.11h0a.28.28,0,0,1,.16-.12.13.13,0,0,0,.12-.06l.13-.08.14,0c.12-.09.29,0,.41-.1a13.23,13.23,0,0,1,1.78,0,1.24,1.24,0,0,1,.91.4,3.47,3.47,0,0,1,1,1.68,2.81,2.81,0,0,0,.19.58,9.34,9.34,0,0,1,.64,2.44,1.3,1.3,0,0,0,.1.25Z"/><path class="cls-95" d="M113.52,33.62a3.27,3.27,0,0,1-1.41-1.44,17.24,17.24,0,0,0,1.26-1.66c.53-.31,1,0,1.58,0a4.58,4.58,0,0,1,.79.2c.26.06.54.07.64-.23s-.15-.48-.41-.61-.69-.09-.93-.39-.54,0-.82-.18a23.34,23.34,0,0,0,1.39-2.73c.21.18.43.34.63.52a2.3,2.3,0,0,1,.56.84c.08.21.17.42.25.62l.09.75A4.39,4.39,0,0,1,116,32.85a2.34,2.34,0,0,1-2.16.8Z"/><path class="cls-23" d="M115.85,26.38a.15.15,0,0,1,.11-.13Z"/><path class="cls-96" d="M99.79,71l0,.51a1.7,1.7,0,0,1,.22.62c0,.77-.08,1.54-.08,2.31s-.14.82-.83.88l-1.21.11a1.62,1.62,0,0,1-.58.12l-.16.07c-.13,0-.27,0-.39.1l-.15.06-.23.05-.15,0A.72.72,0,0,0,96,76a10.58,10.58,0,0,0-2.67,1.33c-.12,0-.14,0-.14-.1L93.16,73a3.17,3.17,0,0,0-.07-1.15l0-.65c1.23,0,2.45,0,3.68-.08C97.79,71.06,98.79,71.06,99.79,71Z"/><path class="cls-97" d="M97.74,75.44a6.18,6.18,0,0,1,1.81-.3c.18,0,.26-.06.26-.23s0-.55,0-.82a9.65,9.65,0,0,1,.08-1.78,1.79,1.79,0,0,0,0-.4.78.78,0,0,1,0-.43.3.3,0,0,0,0-.13.49.49,0,0,1,.53-.56l.06.13a1.88,1.88,0,0,1,.16,1.12c0,.57,0,1.13,0,1.7a2.2,2.2,0,0,0,.55,1.88.35.35,0,0,1,.09.38.25.25,0,0,0,0,.12.4.4,0,0,1-.41.27c-.49-.77-1.3-.73-2.06-.81a6,6,0,0,0-2,.32,1.79,1.79,0,0,1-.46.09.09.09,0,0,1,0-.1s0,0,0,0h0c.08-.07.2,0,.28-.12l0,0h0c.15-.09.34,0,.47-.14h0C97.35,75.44,97.57,75.58,97.74,75.44Z"/><path class="cls-98" d="M98.83,75.58a8.68,8.68,0,0,1,1,0c.49.07,1,.21,1,.81v.16c-.12-.1-.24-.2-.35-.31a1.59,1.59,0,0,0-1.37-.53h-.33Z"/><path class="cls-99" d="M96.35,75.84V76H96A.34.34,0,0,1,96.35,75.84Z"/><path class="cls-96" d="M101.31,76c-.18-.18-.34-.37-.52-.54a.71.71,0,0,1-.27-.59c0-.32,0-.64,0-1,0-1,0-2,0-3l5.69-.13a3.71,3.71,0,0,0,.81-.14l0,.79a1.19,1.19,0,0,0-.09.67c0,.91,0,1.81,0,2.72v.65c-.2.08-.28-.06-.38-.14a2.7,2.7,0,0,0-2.26-.47,9.45,9.45,0,0,0-2.61,1A.78.78,0,0,1,101.31,76Z"/><path class="cls-100" d="M93.91,59.84h.75s0,.1,0,.1c-.24,0-.48,0-.72,0Z"/><path class="cls-101" d="M115,29.51a3.05,3.05,0,0,1,1.19.28.63.63,0,0,1,.39.83.66.66,0,0,1-.79.36,3,3,0,0,1-.39-.13,4.28,4.28,0,0,0-1.13-.23c-.31,0-.63-.06-.94-.1a1.33,1.33,0,0,1-.16-.62.5.5,0,0,1,.26-.37,1.7,1.7,0,0,1,.78,0A2.09,2.09,0,0,0,115,29.51Z"/><path class="cls-3" d="M90.06,45.84a2.27,2.27,0,0,0-.17.77.41.41,0,0,1-.08.19l0,.24c-.12,1.36,0,2.72-.05,4.08,0,.25.06.51-.07.75a.72.72,0,0,0,0,.41,3.06,3.06,0,0,0,0,.8c0,.54,0,1.08,0,1.61a1,1,0,0,0,.22.75h0c.1.08.09.21.13.31l.17.77a6.91,6.91,0,0,1-.15,1.64h0l-.12.13h0c-.08.07-.18.06-.26.12-.27-.06-.44-.3-.67-.41a.23.23,0,0,1-.14-.15h0c-.12-.06-.09-.19-.15-.28h0c-.15-.1,0-.3-.15-.41h0c-.13-.13,0-.31-.13-.45a.07.07,0,0,0,0-.1c-.13-.12,0-.37-.22-.46-.2.2-.11.43-.07.65a.05.05,0,0,0,0,.08c.12.13,0,.32.12.46l0,.37a2.84,2.84,0,0,1,0,1.23.14.14,0,0,0,0,.11c0,.09,0,.22-.12.3h0c-.08.07,0,.21-.15.27h0l-.11.15v0a.54.54,0,0,1-.52.18.15.15,0,0,1-.15-.1h0c-.08,0-.11-.07-.16-.12h0a.86.86,0,0,1-.13-.14h0a.28.28,0,0,1-.12-.19,0,0,0,0,0,0-.08,16.42,16.42,0,0,1-.07-2.22,1.82,1.82,0,0,0-.06-.8h0a.18.18,0,0,0-.27,0,.05.05,0,0,0,0,.09c-.14.23,0,.5-.11.73l0,.51c-.13.23,0,.5-.12.72a.08.08,0,0,0,0,.1,3.28,3.28,0,0,1-.26.86c-.19.16-.37.21-.56,0a15.51,15.51,0,0,1-.09-3,5,5,0,0,0,0-.67.16.16,0,0,0-.13-.14.22.22,0,0,0-.22.13.17.17,0,0,0,0,.12,10.36,10.36,0,0,0-.16,1.75.48.48,0,0,0,0,.35c-.1.19,0,.42-.11.61l-.29.69a.41.41,0,0,0-.1.13l0,0a.25.25,0,0,0-.12.11l0,0-.16.1h-.1l-.15-.08,0,0a.25.25,0,0,0-.11-.12v0s-.09-.09-.11-.15h0a8.65,8.65,0,0,1,0-2.59,4.73,4.73,0,0,0,.15-2,8.71,8.71,0,0,1,.12-2.88.09.09,0,0,0,0-.12.73.73,0,0,0,.08-.25c.07-.92.14-1.85.2-2.77h0c.13-.17,0-.39.11-.56a9.12,9.12,0,0,0,.34-1.79A22.23,22.23,0,0,0,84.45,44a3.86,3.86,0,0,0,.18-1.12c.1-.63.16-1.25.23-1.88,0-.11.1-.08.17-.06a.57.57,0,0,1,.13.08l.18.11.12.06.2.09.14.05a3,3,0,0,0,.42,0l.29.06c1.13.26,2.26.54,3.38.86.89.25.89.25.65,1.15,0,.09,0,.18-.08.25a3.12,3.12,0,0,0-.2,1A5.9,5.9,0,0,0,90.06,45.84Z"/><path class="cls-81" d="M83.47,51.73c0,.18,0,.36,0,.53l-.12,2.35a.34.34,0,0,1-.15-.29,9,9,0,0,1,.16-2.43C83.37,51.83,83.43,51.78,83.47,51.73Z"/><path class="cls-50" d="M83.2,56.66c0,.64,0,1.27,0,1.91,0,.23,0,.45,0,.68h-.15c0-.72,0-1.44,0-2.17A.48.48,0,0,1,83.2,56.66Z"/><path class="cls-47" d="M112.41,36.26a.47.47,0,0,1-.41.1C112.11,36.21,112.26,36.24,112.41,36.26Z"/><path class="cls-47" d="M111.45,36.67a.13.13,0,0,1-.14.11Z"/><path class="cls-47" d="M111.61,36.54a.15.15,0,0,1-.16.12A.19.19,0,0,1,111.61,36.54Z"/><path class="cls-47" d="M111.86,36.4a.14.14,0,0,1-.13.08Z"/><path class="cls-102" d="M106.37,36.25a1.05,1.05,0,0,1-.52.3c-.33.13-.39.09-.59-.31l.14-.13a.38.38,0,0,0,.48.09A.5.5,0,0,1,106.37,36.25Z"/><path class="cls-103" d="M107.34,36.24c-.18,0-.14-.23-.29-.26a.29.29,0,0,1,.28-.13.28.28,0,0,0,0,.13Z"/><path class="cls-102" d="M106.68,36.12a.3.3,0,0,1-.31.13A.26.26,0,0,1,106.68,36.12Z"/><path class="cls-102" d="M105.42,36.09c0-.07,0-.11.1-.09A.09.09,0,0,1,105.42,36.09Z"/><path class="cls-27" d="M86.63,56.38c.14.16.08.35.09.52,0,.84,0,1.67,0,2.5-.15-.11-.14-.27-.14-.43C86.62,58.11,86.63,57.25,86.63,56.38Z"/><path class="cls-27" d="M86.23,57.21a1.19,1.19,0,0,1,.11-.72l0,.45a.19.19,0,0,1,0,.27h-.12Z"/><path class="cls-51" d="M87.31,60a.64.64,0,0,0,.56-.13.27.27,0,0,1-.31.25h-.25s0-.06,0-.08S87.3,60,87.31,60Z"/><path class="cls-27" d="M86.36,56.39c.1-.19.16-.2.27,0Z"/><path class="cls-51" d="M88.13,59.4a.31.31,0,0,1,.12-.3l0,.3Z"/><path class="cls-51" d="M88,59.67a.29.29,0,0,1,.15-.27A.23.23,0,0,1,88,59.67Z"/><path class="cls-35" d="M86.35,57.21v-.27C86.49,57,86.49,57.12,86.35,57.21Z"/><path class="cls-27" d="M86.78,59.48a.22.22,0,0,1,.12.19A.2.2,0,0,1,86.78,59.48Z"/><path class="cls-27" d="M86.91,59.67a.16.16,0,0,1,.13.14A.16.16,0,0,1,86.91,59.67Z"/><path class="cls-51" d="M87.88,59.82a.13.13,0,0,1,.11-.15A.17.17,0,0,1,87.88,59.82Z"/><path class="cls-27" d="M87,59.81a.16.16,0,0,1,.16.12A.19.19,0,0,1,87,59.81Z"/><path class="cls-27" d="M87.31,60v.12a.18.18,0,0,1-.11-.17A.11.11,0,0,1,87.31,60Z"/><path class="cls-104" d="M88.11,56.85a.74.74,0,0,1-.12-.58.23.23,0,0,1,.11-.15.17.17,0,0,1,.23.08.67.67,0,0,1,.07.46c-.14,0-.08-.25-.25-.27Z"/><path class="cls-104" d="M88.27,59l0-1.23A1.34,1.34,0,0,1,88.27,59Z"/><path class="cls-104" d="M88.42,56.76a.56.56,0,0,1,.13.45C88.37,57.1,88.4,56.93,88.42,56.76Z"/><path class="cls-104" d="M88.25,57.39a.62.62,0,0,1-.12-.46C88.3,57.05,88.28,57.22,88.25,57.39Z"/><path class="cls-104" d="M88.55,57.2a.49.49,0,0,1,.15.41C88.51,57.53,88.54,57.36,88.55,57.2Z"/><path class="cls-104" d="M88.7,57.6a.39.39,0,0,1,.15.28C88.7,57.84,88.68,57.73,88.7,57.6Z"/><path class="cls-61" d="M89.65,58.43a.36.36,0,0,1,.26-.12A.22.22,0,0,1,89.65,58.43Z"/><path class="cls-61" d="M89.93,58.3a.15.15,0,0,1,.12-.13A.15.15,0,0,1,89.93,58.3Z"/><path class="cls-104" d="M88.84,57.87A.18.18,0,0,1,89,58,.16.16,0,0,1,88.84,57.87Z"/><path class="cls-27" d="M85.8,59.4a2.38,2.38,0,0,1,.26-.86A.87.87,0,0,1,85.8,59.4Z"/><path class="cls-27" d="M86.08,58.44a1.48,1.48,0,0,1,.12-.72C86.2,58,86.3,58.23,86.08,58.44Z"/><path class="cls-25" d="M84.44,58.58a1.08,1.08,0,0,1,.11-.61C84.55,58.18,84.64,58.41,84.44,58.58Z"/><path class="cls-50" d="M83.72,59.66a.15.15,0,0,1,.16-.1A.16.16,0,0,1,83.72,59.66Z"/><path class="cls-50" d="M83.47,59.58l.15.08A.13.13,0,0,1,83.47,59.58Z"/><path class="cls-50" d="M83.9,59.54a.15.15,0,0,1,.12-.11Z"/><path class="cls-50" d="M83.33,59.42a.14.14,0,0,1,.11.12Z"/><path class="cls-50" d="M84.05,59.4a.13.13,0,0,1,.1-.13A.15.15,0,0,1,84.05,59.4Z"/><path class="cls-50" d="M83.21,59.25a.14.14,0,0,1,.11.15A.17.17,0,0,1,83.21,59.25Z"/><path class="cls-52" d="M89.24,33.94l.12.1Z"/><path class="cls-78" d="M89.51,34.17a.26.26,0,0,1,.21.14A.23.23,0,0,1,89.51,34.17Z"/><path class="cls-78" d="M89.37,34.05a.19.19,0,0,1,.16.12A.19.19,0,0,1,89.37,34.05Z"/><path class="cls-78" d="M89.77,34.34a.15.15,0,0,1,.15.12Z"/><path class="cls-39" d="M87.87,32.8a.16.16,0,0,1,.14.14A.18.18,0,0,1,87.87,32.8Z"/><path class="cls-4" d="M111.9,20.75a3,3,0,0,1,3,2.26,1.36,1.36,0,0,1,0,.87c-.1.25-.09.54-.17.8a3.19,3.19,0,0,1-2.6,2.3,3,3,0,0,1-3.46-2.83,3.24,3.24,0,0,1,1.89-3.07A2.91,2.91,0,0,1,111.9,20.75Z"/><path class="cls-4" d="M95.29,25.22a3,3,0,0,1-3.59,3,3.25,3.25,0,0,1-2.58-2.66A3,3,0,0,0,89,25a1.06,1.06,0,0,1,0-.61,3.08,3.08,0,0,1,4-2.16A3.59,3.59,0,0,1,95,24,2.62,2.62,0,0,1,95.29,25.22Z"/><path class="cls-96" d="M101.83,18.55h-.41c-.17,0-.24-.11-.28-.25s0-.39,0-.58a3.81,3.81,0,0,0-.11-2.89,1.53,1.53,0,0,1-.07-.29.34.34,0,0,1,0-.2s.09-.07.1-.06a1.79,1.79,0,0,0,1,.17c.24,0,.35-.18.49-.31a4,4,0,0,1,3-1c.26,0,.54,0,.67.28s-.16.42-.31.6a1.93,1.93,0,0,0-.5,2.19,1.65,1.65,0,0,0,1.56,1c.25,0,.56,0,.66.25s-.11.47-.27.67a3.51,3.51,0,0,1-5,.74,1.4,1.4,0,0,0-.47-.28A.31.31,0,0,1,101.83,18.55Z"/><path class="cls-105" d="M101.15,14.61a4.41,4.41,0,0,1,.43,2.09,5.91,5.91,0,0,1-.44,1.61l-.23.26c-.36.39-.87.63-1.11,1.13a3.78,3.78,0,0,1-5.82-2,3.85,3.85,0,0,1-.08-1.35c0-.14.09-.29,0-.41a1.43,1.43,0,0,1,.29-1.28,4,4,0,0,1,6.5-.63,3.85,3.85,0,0,0,.27.3.09.09,0,0,0,0,.1A.86.86,0,0,0,101.15,14.61Z"/><path class="cls-105" d="M102,18.56a.26.26,0,0,1,.32,0,3.88,3.88,0,0,1,.31.26,2.78,2.78,0,0,0,2.42.69,3.64,3.64,0,0,0,2.62-1.81.59.59,0,0,0,0-.2c-.24,0-.47,0-.69,0a1.87,1.87,0,0,1-1.76-2.28,2.27,2.27,0,0,1,.82-1.38l.36-.29a3.55,3.55,0,0,0-2.47,0,4.16,4.16,0,0,0-1.33.82,1,1,0,0,1-.27.2c-.1,0-.17,0-.19-.14a4.34,4.34,0,0,1,2.17-1.55,2.81,2.81,0,0,1,1.81-.09,5.58,5.58,0,0,1,1.48.8c.92.72.88,1.77,1,2.77,0,.23,0,.45,0,.68a.09.09,0,0,1,0,.12c-.08.09-.06.22-.11.31a3,3,0,0,1-1,1.47,9.41,9.41,0,0,1-2.72,1.23,1.44,1.44,0,0,1-.87,0,2.5,2.5,0,0,1-1.46-.57C102.24,19.29,101.81,19,102,18.56Z"/><path class="cls-106" d="M97.64,12.12a2.53,2.53,0,0,1-.87-.15,3.78,3.78,0,0,0-1.89-.05,7.38,7.38,0,0,1-.81.07.88.88,0,0,1-.28,0,.29.29,0,0,1-.26-.27.27.27,0,0,1,.18-.26.77.77,0,0,1,.19-.08L95.43,11a2.56,2.56,0,0,1,1.29,0,3.69,3.69,0,0,0,1.62,0c.43-.08.86-.13,1.29-.17a2.49,2.49,0,0,1,.61,0,.47.47,0,0,1,.37.5.45.45,0,0,1-.38.42c-.27,0-.55.05-.82.08Z"/><path class="cls-106" d="M106.08,11.41a25.08,25.08,0,0,1-2.6,0,1.29,1.29,0,0,1-.39-.08.26.26,0,0,1-.06-.45,1.08,1.08,0,0,1,.24-.12,2.68,2.68,0,0,1,.74-.13l2.67-.15a20,20,0,0,1,2,0l.2,0a.47.47,0,0,1,0,.94,1.93,1.93,0,0,1-.48,0A13,13,0,0,0,106.08,11.41Z"/><path class="cls-107" d="M105.74,27.09c-1.74.41-3.46.43-5.17.83-.11.14.06.33,0,.5a.32.32,0,0,1-.26.19.29.29,0,0,1-.32-.2.61.61,0,0,1,0-.13c0-.5,0-1,0-1.51,0-.11,0-.24.18-.23s.18.11.21.23,0,.45.17.57.44,0,.66,0a21.23,21.23,0,0,1,2.64-.37c.64-.06,1.25-.26,1.88-.33a.3.3,0,0,0,.25-.29c0-.13,0-.27.06-.4s.14-.37.26-.34.16.21.16.34c0,.48,0,.95-.06,1.43a.68.68,0,0,1,0,.14.32.32,0,0,1-.29.25c-.17,0-.24-.1-.27-.25A3.47,3.47,0,0,1,105.74,27.09Z"/><path class="cls-108" d="M105.44,22.36a1,1,0,0,1-.35.93,4,4,0,0,1-.94.55,1.29,1.29,0,0,1-.39.08.28.28,0,0,1-.3-.23.3.3,0,0,1,.14-.35,1.24,1.24,0,0,1,.32-.12,3.42,3.42,0,0,0,.8-.37.49.49,0,0,0,.22-.25,1,1,0,0,0-.58-1.17,1,1,0,0,0-.54,0l-1,.19c-.33.05-.48,0-.6-.32a1.67,1.67,0,0,1-.21-1.05.14.14,0,0,1,.09-.08s.1,0,.11,0c.1.22.19.46.29.68s.14.25.36.21l.47-.1a2.77,2.77,0,0,1,.81-.06A1.31,1.31,0,0,1,105.4,22,3,3,0,0,1,105.44,22.36Z"/><path class="cls-109" d="M102.42,36.54a1.46,1.46,0,0,1-.32.1,14.17,14.17,0,0,1-4.26-.27l-1-.29a4.31,4.31,0,0,1-.88-.64l-.16-.21a.09.09,0,0,1,0-.07s.07-.07.1-.07a.42.42,0,0,1,.19.06,5.48,5.48,0,0,0,2.57.82,15.06,15.06,0,0,0,3.55,0h.34c-.14.47-.54.34-.84.42C101.9,36.47,102.23,36.23,102.42,36.54Z"/><path class="cls-110" d="M83.86,28.22c.08-.21.29-.25.45-.35.32.54.63,1.08,1,1.61a5.21,5.21,0,0,0,.83,1.14c-.26,0-.45-.22-.69-.22s-.43.1-.66.09H82.87a.66.66,0,0,1,.51-.13H84.6a.73.73,0,0,0,.49-.06,3.51,3.51,0,0,0-.42-.66c-.14-.23-.3-.46-.44-.69A3.2,3.2,0,0,1,83.86,28.22Z"/><path class="cls-111" d="M108.58,17.07c0-.05-.11-.1-.12-.16a8.46,8.46,0,0,1-.16-1.41,2.21,2.21,0,0,0-1-2,9.68,9.68,0,0,0-.88-.52c-.1-.06-.22-.09-.27-.2a3.05,3.05,0,0,1,2.58,2.39A2.77,2.77,0,0,1,108.58,17.07Z"/><path class="cls-112" d="M103.87,20.22a4.25,4.25,0,0,0,1.81-.49c.38-.18.76-.38,1.14-.57a1.2,1.2,0,0,1,.64-.19,4.16,4.16,0,0,1-3.34,1.34A1.25,1.25,0,0,1,103.87,20.22Z"/><path class="cls-113" d="M103.88,36.22h-.26c-.33-.08-.72,0-1-.29a1.86,1.86,0,0,1,.25-.1,4.39,4.39,0,0,0,1.51-.6.28.28,0,0,1,.41.09.3.3,0,0,1-.06.38A3.61,3.61,0,0,1,103.88,36.22Z"/><path class="cls-114" d="M102.64,35.94c.34.05.72,0,1,.29a2.81,2.81,0,0,1-1.2.31l-.87,0a1.12,1.12,0,0,1,.69-.38.38.38,0,0,0,.28-.14A.14.14,0,0,1,102.64,35.94Z"/><path class="cls-115" d="M99.8,19.7a.6.6,0,0,1,.31-.67,3.77,3.77,0,0,1,.8-.46A2.43,2.43,0,0,1,99.8,19.7Z"/><path class="cls-116" d="M102,18.56a.88.88,0,0,0,.17.35,1.26,1.26,0,0,1,.29.74,1.26,1.26,0,0,1-.52-.39.5.5,0,0,1-.06-.71A.17.17,0,0,1,102,18.56Z"/><path class="cls-111" d="M108.44,17.5a.28.28,0,0,1,.11-.31A.27.27,0,0,1,108.44,17.5Z"/><path class="cls-60" d="M101.28,51.48c-.14.15-.33.11-.51.11a4.94,4.94,0,0,0-1.48.12.8.8,0,0,1-.27,0l-3.4,0a.7.7,0,0,1,.4-.07l4.92-.18Z"/><path class="cls-117" d="M113.22,43.51l.28.41.13.13v.14s0,.07,0,.1,0,.05,0,.05c-.24.06-.29-.18-.42-.28h0l-.11-.15v0c-.09-.06-.06-.2-.17-.24a.67.67,0,0,1-.27-.37,2.45,2.45,0,0,1,0-.27c0-.48,0-.48.62-.41a1,1,0,0,0-.2.76Z"/><path class="cls-118" d="M113.21,44.06l.42.27.06.07,0,.07c.12.25.24.52.38.77a1.13,1.13,0,0,1,.15.76c-.14-.1-.17-.26-.24-.4Z"/><path class="cls-119" d="M114.05,51a1,1,0,0,1-.57.15h-1.82a2.94,2.94,0,0,1,.88-.1,6.15,6.15,0,0,0,1.21-.14A.26.26,0,0,1,114.05,51Z"/><path class="cls-63" d="M94.44,51.87l-1.68,0a1.12,1.12,0,0,1,.26-.08,14.37,14.37,0,0,1,2,0c.05,0,.06.06,0,.09s0,0,0,0Z"/><path class="cls-79" d="M94,45.32c0-.24-.1-.51.12-.72A1.12,1.12,0,0,1,94,45.32Z"/><path class="cls-60" d="M95,51.86a.57.57,0,0,0,0-.13,1.13,1.13,0,0,1,.55,0C95.4,51.93,95.17,51.85,95,51.86Z"/><path class="cls-86" d="M114.28,46.26c.15.05.17.16.15.29C114.32,46.49,114.3,46.38,114.28,46.26Z"/><path class="cls-118" d="M112.92,43.66c.12,0,.16.12.17.24A.31.31,0,0,1,112.92,43.66Z"/><path class="cls-56" d="M93.23,48.6a.24.24,0,0,1,.11-.3A.29.29,0,0,1,93.23,48.6Z"/><path class="cls-120" d="M95.85,49.48s0,0,0,0,0,0,0-.07h0A.06.06,0,0,1,95.85,49.48Z"/><path class="cls-119" d="M114.18,51.18l-.13-.14C114.14,51,114.18,51.09,114.18,51.18Z"/><path class="cls-118" d="M113.1,43.92l.11.15A.15.15,0,0,1,113.1,43.92Z"/><path class="cls-58" d="M90,55.75a.34.34,0,0,1-.13-.31C90,55.5,90.05,55.62,90,55.75Z"/><path class="cls-65" d="M99.9,71.48l0,.43a.36.36,0,0,1,0-.36S99.86,71.49,99.9,71.48Z"/><path class="cls-121" d="M90.46,43.64c-.06-.34.19-.65.11-1-1.32-.31-2.61-.76-3.95-1a2,2,0,0,1-.32-.11c.1-.42.58-.14.75-.42a2.42,2.42,0,0,1,1,.23c.12.28.37.12.56.15a1.79,1.79,0,0,1,.79.18,8.28,8.28,0,0,0,1,.3c.25,0,.25,0,.45-.24l0,.33c-.38.32.22.76-.14,1.09C90.61,43.26,90.65,43.51,90.46,43.64Z"/><path class="cls-122" d="M87.05,41.06l.17.25a1.56,1.56,0,0,0-.92.17l-.21,0c-.12-.11-.3,0-.42-.12h0c-.07-.08-.19-.06-.27-.12h0c-.06-.1-.19-.07-.26-.14h0a.23.23,0,0,1,0-.29h0a.58.58,0,0,1,.43,0h0c.18.22.46,0,.66.15A2,2,0,0,1,87.05,41.06Z"/><path class="cls-123" d="M88.57,41.44a.5.5,0,0,1-.53.13c-.12,0-.12-.1,0-.28A.8.8,0,0,1,88.57,41.44Z"/><path class="cls-124" d="M85.1,40.75V41L84.86,41c0-.25-.1-.51.11-.73a2.25,2.25,0,0,1,0,.26C85,40.6,85,40.7,85.1,40.75Z"/><path class="cls-124" d="M86.21,40.89h-.4a.25.25,0,0,1-.26-.16A1.26,1.26,0,0,1,86.21,40.89Z"/><path class="cls-124" d="M85.54,40.73l-.43,0C85.25,40.57,85.39,40.61,85.54,40.73Z"/><path class="cls-79" d="M94,42.55l-.14-.14Z"/><path class="cls-79" d="M93.89,42.14h-.11C93.81,42,93.85,42.07,93.89,42.14Z"/><path class="cls-75" d="M83.87,48a.74.74,0,0,1-.11.56C83.74,48.39,83.68,48.18,83.87,48Z"/><path class="cls-125" d="M90.74,43.1c0-.24.08-.5-.14-.7-.06,0,0-.11.05-.15l.23-.24c.22.19.11.45.13.69A1.22,1.22,0,0,1,91,43C91,43.21,90.84,43.11,90.74,43.1Z"/><path class="cls-77" d="M89.65,51.18l0-3c0-.27,0-.55,0-.82a.51.51,0,0,1,.08-.32c0,1.38,0,2.76,0,4.14Q89.71,51.27,89.65,51.18Z"/><path class="cls-58" d="M89.65,51.18h.12c0,.23.09.49-.13.69A1.61,1.61,0,0,1,89.65,51.18Z"/><path class="cls-77" d="M89.81,46.8a.17.17,0,0,1,.08-.19l0,.18h-.1Z"/><path class="cls-87" d="M113.63,44.33v-.14l.13.14h0a.1.1,0,0,1-.14,0Z"/><path class="cls-118" d="M113.63,44.05l-.13-.13Z"/><path class="cls-118" d="M113.22,43.51l-.13-.14Z"/><path class="cls-117" d="M113.63,44.33h.14l-.13.14A.66.66,0,0,1,113.63,44.33Z"/><path class="cls-99" d="M97.74,75.44c-.16.19-.36.14-.56.13A.7.7,0,0,1,97.74,75.44Z"/><path class="cls-99" d="M97.18,75.56c-.12.19-.29.15-.47.14A.54.54,0,0,1,97.18,75.56Z"/><path class="cls-99" d="M96.64,75.72a.26.26,0,0,1-.28.12A.24.24,0,0,1,96.64,75.72Z"/><path class="cls-124" d="M85.67,41.32a.36.36,0,0,1,.42.12A.41.41,0,0,1,85.67,41.32Z"/><path class="cls-124" d="M85.39,41.19a.22.22,0,0,1,.27.12C85.54,41.33,85.44,41.32,85.39,41.19Z"/><path class="cls-124" d="M85.12,41.05a.22.22,0,0,1,.26.14C85.26,41.2,85.16,41.18,85.12,41.05Z"/><path class="cls-3" d="M101.15,14.61a.14.14,0,0,1-.1-.16A.13.13,0,0,1,101.15,14.61Z"/><path class="cls-96" d="M100.57,17.78a.3.3,0,0,1,0,.26,3.43,3.43,0,0,1-3.39,1.72,3.36,3.36,0,0,1-2.85-2.58,3.05,3.05,0,0,1-.11-.95.41.41,0,0,1,.06-.25,2,2,0,0,0,.42-.77,3.35,3.35,0,0,1,4.4-1.62c.28.13.3.18.09.37a2.93,2.93,0,0,0-1,2.25,1.46,1.46,0,0,0,1.39,1.56C99.9,17.8,100.24,17.78,100.57,17.78Z"/><path class="cls-126" d="M108.07,16.59a.53.53,0,0,1-.06.1s-.09,0-.09,0a.09.09,0,0,1,0-.1S108,16.57,108.07,16.59Z"/></svg>