<svg id="Layer_1" data-name="Layer 1" xmlns="http://www.w3.org/2000/svg" viewBox="0 0 200 83.88"><defs><style>.cls-1{fill:#1a344e;}.cls-2{fill:#326ae9;}.cls-3{fill:#fad3d3;}.cls-4{fill:#f43451;}.cls-5{fill:#041d35;}.cls-6{fill:#0e1c29;}.cls-7{fill:#121f2d;}.cls-8{fill:#111d2b;}.cls-9{fill:#072039;}.cls-10{fill:#0f1e2c;}.cls-11{fill:#1f344d;}.cls-12{fill:#1e334c;}.cls-13{fill:#203751;}.cls-14{fill:#172737;}.cls-15{fill:#1e394e;}.cls-16{fill:#131e2b;}.cls-17{fill:#15212e;}.cls-18{fill:#16222e;}.cls-19{fill:#203852;}.cls-20{fill:#1e344e;}.cls-21{fill:#31445a;}.cls-22{fill:#17222d;}.cls-23{fill:#182736;}.cls-24{fill:#223a54;}.cls-25{fill:#223951;}.cls-26{fill:#142633;}.cls-27{fill:#263b52;}.cls-28{fill:#1b2331;}.cls-29{fill:#142431;}.cls-30{fill:#192432;}.cls-31{fill:#26394f;}.cls-32{fill:#1d3442;}.cls-33{fill:#21303f;}.cls-34{fill:#273b51;}.cls-35{fill:#222f3d;}.cls-36{fill:#1d2734;}.cls-37{fill:#233142;}.cls-38{fill:#1a2937;}.cls-39{fill:#363945;}.cls-40{fill:#16222f;}.cls-41{fill:#242c39;}.cls-42{fill:#434f62;}.cls-43{fill:#4b2431;}.cls-44{fill:#0f1d2c;}.cls-45{fill:#24334d;}.cls-46{fill:#d6dadf;}.cls-47{fill:#2d3e51;}.cls-48{fill:#5a666f;}.cls-49{fill:#71b2da;}.cls-50{fill:#34435a;}.cls-51{fill:#324154;}.cls-52{fill:#353f4a;}.cls-53{fill:#efffa4;}.cls-54{fill:#1d344e;}.cls-55{fill:#1b3550;}.cls-56{fill:#363334;}.cls-57{fill:#20273b;}.cls-58{fill:#223a53;}.cls-59{fill:#182b41;}.cls-60{fill:#202a3e;}.cls-61{fill:#283e5f;}.cls-62{fill:#be4e98;}.cls-63{fill:#3b394f;}.cls-64{fill:#443a50;}.cls-65{fill:#336ae9;}.cls-66{fill:#336be9;}.cls-67{fill:#1f3851;}.cls-68{fill:#363133;}.cls-69{fill:#253a50;}.cls-70{fill:#25374f;}.cls-71{fill:#2b2829;}.cls-72{fill:#1c2738;}.cls-73{fill:#1f3249;}.cls-74{fill:#222b40;}.cls-75{fill:#25364e;}.cls-76{fill:#1f2434;}.cls-77{fill:#2c3d55;}.cls-78{fill:#433343;}.cls-79{fill:#2d2f2a;}.cls-80{fill:#b1344f;}.cls-81{fill:#273348;}.cls-82{fill:#222b3d;}.cls-83{fill:#27273a;}.cls-84{fill:#7c7887;}.cls-85{fill:#1c364f;}.cls-86{fill:#1f3951;}.cls-87{fill:#1c2f42;}.cls-88{fill:#1b2d3f;}.cls-89{fill:#1b2938;}.cls-90{fill:#424458;}.cls-91{fill:#0a3a69;}.cls-92{fill:#093b69;}.cls-93{fill:#1e324b;}.cls-94{fill:#2b324b;}.cls-95{fill:#f9d3d3;}.cls-96{fill:#fff;}.cls-97{fill:#121e2b;}.cls-98{fill:#27324b;}.cls-99{fill:#332634;}.cls-100{fill:#132030;}.cls-101{fill:#093a69;}.cls-102{fill:#2a4d57;}.cls-103{fill:#7eb8b7;}.cls-104{fill:#2b3c54;}.cls-105{fill:#0e1b28;}.cls-106{fill:#1d3650;}.cls-107{fill:#353436;}.cls-108{fill:#373537;}.cls-109{fill:#353435;}.cls-110{fill:#223953;}.cls-111{fill:#23364e;}.cls-112{fill:#1d3c54;}.cls-113{fill:#40383a;}.cls-114{fill:#232321;}.cls-115{fill:#24435a;}.cls-116{fill:#213a50;}.cls-117{fill:#1a2c3a;}.cls-118{fill:#1d3744;}.cls-119{fill:#2e3042;}.cls-120{fill:#f3ffd1;}.cls-121{fill:#203850;}.cls-122{fill:#222533;}.cls-123{fill:#1e2335;}.cls-124{fill:#334658;}.cls-125{fill:#182b3c;}.cls-126{fill:#25323e;}</style></defs><path class="cls-1" d="M90.77,29.57a3.68,3.68,0,0,1-.23-1c-.1-.5-.16-1-.24-1.51a10.52,10.52,0,0,1,1.13-6.79,12.47,12.47,0,0,1,8.27-6.63,12,12,0,0,1,13.11,5.12,9,9,0,0,1,1.37,3.61,23.14,23.14,0,0,1,.29,3.33,6.83,6.83,0,0,1-.19,1.74,2,2,0,0,1-.09.54c-.14-.09-.09-.23-.11-.36s-.07,0,0,0,0,0,0,0,0,.31-.23.19a2.81,2.81,0,0,1-.08-1.15,9.86,9.86,0,0,0-.48-3.7,11.74,11.74,0,0,0-2.19-3.9.7.7,0,0,0-.7-.22l-6.62.92c-2.77.38-5.54.8-8.32,1.13a10,10,0,0,1-1.8.11,1.19,1.19,0,0,0-1.2.63,8.07,8.07,0,0,0-1.16,3A21.31,21.31,0,0,0,91,27.4a5.77,5.77,0,0,0,.23,1.65,2,2,0,0,1,.08.6c0,.14-.07.36-.22.36s-.22-.25-.26-.42,0,0,0,0S90.79,29.53,90.77,29.57Z"/><path class="cls-2" d="M97.63,54a1.14,1.14,0,0,0-.37,0,2.71,2.71,0,0,1-.89-.18.49.49,0,0,1-.39-.5A2.46,2.46,0,0,0,96,53a.17.17,0,0,1,.06-.15l.08-.08,0,0a.85.85,0,0,0,.12-.49l0-.19a1.28,1.28,0,0,0,0-.7,5.75,5.75,0,0,0-.2-.71L96,50.39a2.58,2.58,0,0,1,0-.38,7.58,7.58,0,0,1,0-1.43c.07-.15.23-.19.35-.26a.51.51,0,0,1,.2-.06c.26,0,.5.09.75.1h3a15.3,15.3,0,0,0,2.14-.06,8.86,8.86,0,0,1,1,0c2.83,0,5.65-.22,8.47-.2.13,0,.25,0,.34-.1a.53.53,0,0,1,.66.1,3.71,3.71,0,0,1-.51,2.3,5.41,5.41,0,0,1-2.38,2.51,5.12,5.12,0,0,0-.84.56.56.56,0,0,1-.24.13c-.1,0-.21,0-.31,0l-.68,0a.68.68,0,0,1-.44.11c-2.31-.06-4.61.14-6.91.09-.74,0-1.47,0-2.2,0A2,2,0,0,0,97.63,54Z"/><path class="cls-3" d="M107.85,54.16a.91.91,0,0,1,0,.76c-.09.07-.08.17-.09.27a1.38,1.38,0,0,1,0,.2c0,.39,0,.77,0,1.16,0,1,0,2.05,0,3.07a1,1,0,0,1-.12.58.8.8,0,0,1-.52.13c-1.24,0-2.48,0-3.72.05a.43.43,0,0,1-.22-.06c-.2-.18-.16-.42-.16-.65,0-1.14,0-2.28,0-3.28a31.64,31.64,0,0,0-.1,3.43.71.71,0,0,1-.12.49,3.67,3.67,0,0,1-1.27.2,29.18,29.18,0,0,0-3,.08.56.56,0,0,1-.4-.08c-.21-.19-.16-.45-.16-.69a3.31,3.31,0,0,0-.08-.55,5.12,5.12,0,0,1,0-.68c0-1.12-.08-2.23-.06-3.35a.51.51,0,0,0-.09-.43l.2-.65A.67.67,0,0,1,98.5,54c2.82,0,5.64,0,8.46,0C107.25,54,107.58,53.93,107.85,54.16Z"/><path class="cls-4" d="M91.29,48.4s-.08-.09-.14-.06a.46.46,0,0,1-.26,0,2.22,2.22,0,0,1-1.16-1.3,8.1,8.1,0,0,1-.35-3.59,9.71,9.71,0,0,1,.82-3.3c.24-.42.42-.87.69-1.27l.08-.11,0,0c.18-.18.36-.38.55-.54a1.45,1.45,0,0,1,1.22-.4c.07,0,.17,0,.17-.08s-.1-.09-.17-.13a.39.39,0,0,1-.08-.1l0-.06a.5.5,0,0,0,.29-.2,2.11,2.11,0,0,1,1.34-.65c.25,0,.51,0,.77-.07s.28,0,.42,0a.25.25,0,0,1,.12,0l.17.07.11.06a1.22,1.22,0,0,0,.55.23c.42.18.86.34,1,.83a8.58,8.58,0,0,1,.92,2.39c.19.59.08,1.2.21,1.79a2.07,2.07,0,0,1,0,.61.4.4,0,0,1,0,.15c-.08.49,0,1-.16,1.5,0,.16-.07.32-.11.48-.1.46-.21.92-.35,1.36a.56.56,0,0,1,0,.12,2,2,0,0,0-.08.22l0,.12-.07.16a1.17,1.17,0,0,1,0,.11c-.16.54-.61.79-1,1.06a.83.83,0,0,0-.48.61.23.23,0,0,1-.2,0,.37.37,0,0,1-.09-.19A1.62,1.62,0,0,1,96,48a1.55,1.55,0,0,1,0-.21,2.38,2.38,0,0,0,0-.59c0-.57,0-1.13,0-1.7a.86.86,0,0,1,0-.23c0-.15.08-.3.12-.44a30,30,0,0,0,.61-3.11,1,1,0,0,0,0-.46,7.52,7.52,0,0,0-.9-2.56,1.51,1.51,0,0,0-1.16-1.42,1.9,1.9,0,0,0-.63,0c0,.09.21.09.17.23-.27.2-.64.24-.86.51a1.7,1.7,0,0,0-.15.22,9.26,9.26,0,0,0-.92,3.13c0,.07,0,.14,0,.21a1.43,1.43,0,0,1,0,.22,1.67,1.67,0,0,0,0,.5c-.12.75-.18,1.52-.3,2.27a2.83,2.83,0,0,0-.09.65l0,.14a8.05,8.05,0,0,0-.18,1,2.47,2.47,0,0,0,0,.72,3.42,3.42,0,0,1,0,.45,2.11,2.11,0,0,0-.06.61c0,.12,0,.24-.14.31s-.1,0,0,0A.28.28,0,0,1,91.29,48.4Z"/><path class="cls-3" d="M111.37,53.12a.24.24,0,0,1-.08-.19c0-.12,0-.24,0-.36a.11.11,0,0,1,0-.11.36.36,0,0,1,.07-.1l.1-.08A7.88,7.88,0,0,0,112.9,50a4,4,0,0,0,.27-1,2.6,2.6,0,0,0,.06-.56.76.76,0,0,1,0-.21A6.12,6.12,0,0,0,113,45c-.22-.51-.46-1-.69-1.5a6.44,6.44,0,0,0-.47-.8c-.2-.31-.14-.51.22-.57a9.31,9.31,0,0,1,2-.21c.37,0,.6.13.66.54a5.68,5.68,0,0,0,.23,1,46.79,46.79,0,0,1,1.15,6.76c0,.18.06.36.08.55,0,.47,0,.94.06,1.41s-.23.9-.69.85c-.15-.05-.21-.22-.4-.26-.24.51,0,1.24-.68,1.56-.25,0-.26-.22-.28-.41a3.28,3.28,0,0,0-.07-.75,3,3,0,0,1-.34,1.09l-.09.1a.42.42,0,0,1-.18.11.37.37,0,0,1-.37-.15,1.89,1.89,0,0,1-.11-1.08,1.44,1.44,0,0,0,0-.87c-.24.14-.34.39-.53.53a.9.9,0,0,1-.79.19.25.25,0,0,1-.17-.23l0-.1s0,.05,0,.08S111.48,53.06,111.37,53.12Z"/><path class="cls-5" d="M93.77,35.06a3.06,3.06,0,0,1-1,1.47,2.19,2.19,0,0,1-1.68.51,2.05,2.05,0,0,1-1.57-1.11,2.94,2.94,0,0,1,1.14-4,2.4,2.4,0,0,1,.83-.28.25.25,0,0,1,.3,0,.25.25,0,0,1,.07.27c-.42.31-.9.52-1.3.86a1.62,1.62,0,0,0-.6,1.68c0,.16,0,.31,0,.46a1.37,1.37,0,0,0,.88,1.2,1.6,1.6,0,0,0,1.59-.32,2.79,2.79,0,0,0,.72-1,1,1,0,0,0,.08-.39c0-.11,0-.26.14-.3s.21.09.28.18l.1.15a.91.91,0,0,1,.11.16.85.85,0,0,1,.06.17.49.49,0,0,1,0,.12C94,35,93.8,35,93.77,35.06Z"/><path class="cls-6" d="M110.82,68.35a.81.81,0,0,1,.1.21c0,.15,0,.23-.18.27l-.5.08c-.36.07-.73.11-1.09.21a2.64,2.64,0,0,1-1,0l-.6,0a2,2,0,0,0-1,.16,1.34,1.34,0,0,1-.86.1,2,2,0,0,1-.74.44,2.2,2.2,0,0,1-.37.06c-.3,0-.61.07-.91.15a3.23,3.23,0,0,1-1.24,0c-.93-.11-1.85-.21-2.78-.23a8.09,8.09,0,0,1-1-.08,5,5,0,0,0-.78,0h-.33c-.18,0-.26-.17-.22-.37a1.31,1.31,0,0,1,0-.15c-.29-.13-.51-.3-.49-.65a2.94,2.94,0,0,1,0-.89c.4.15.25.53.43.75a2.22,2.22,0,0,0,.85.69,22,22,0,0,0,3.79.5,6,6,0,0,0,2.2,0,1.87,1.87,0,0,0,.4-.13c.19-.13.44-.14.62-.3s.23-.31.45-.31h.3a1.94,1.94,0,0,0,1.17-.06,8.29,8.29,0,0,1,1.92-.15,4.33,4.33,0,0,1,.88,0C110.34,68.73,110.52,68.38,110.82,68.35Z"/><path class="cls-7" d="M116,50.81a5.84,5.84,0,0,1-.16-1.1c-.14-1.13-.27-2.26-.48-3.39-.07-.42-.15-.85-.21-1.27s-.19-.78-.29-1.17c0-.12,0-.24-.08-.36a3.83,3.83,0,0,1-.07-.58,1.84,1.84,0,0,0-.52-1.26.5.5,0,0,1,0-.29,5.58,5.58,0,0,0-.29-1.56,6.24,6.24,0,0,0-.35-1.19c-.06-.12-.18-.3.08-.36a1.6,1.6,0,0,1,.36.68c.11.31.2.62.32.92a7.36,7.36,0,0,1,.25,1c0,.23,0,.47.24.63a.17.17,0,0,1,0,.18c-.09.14,0,.27,0,.4.13.73.3,1.45.49,2.16a6.91,6.91,0,0,1,.19,1c0,.33.11.67.16,1l.27,2.07q.15,1.08.27,2.16c0,.55.08,1.11.12,1.66a.5.5,0,0,1-.1.39c-.17,0-.13-.13-.14-.22C116.11,51.84,116.12,51.32,116,50.81Z"/><path class="cls-8" d="M91,39l-.66,1.17a7.32,7.32,0,0,0-.82,2.48,9,9,0,0,0,0,3.9A3,3,0,0,0,90.37,48c.21.21.19.23-.05.31h0s0-.07-.1-.07h0a.14.14,0,0,0-.11-.1,2.06,2.06,0,0,1-.61-.85A5.32,5.32,0,0,1,89,45.5a11,11,0,0,1,.81-5.34,6.53,6.53,0,0,1,.86-1.52,3.44,3.44,0,0,1,.78-.79,1.37,1.37,0,0,1,.7-.32,1,1,0,0,1,.56,0h0c0,.15-.09.19-.19.2a2.24,2.24,0,0,0-1.49,1.12h0A.15.15,0,0,0,91,39Z"/><path class="cls-9" d="M114,31.05a3.07,3.07,0,0,1,.8,2.68,4.22,4.22,0,0,1-.34,1.2,2.79,2.79,0,0,1-1,1.19,1.8,1.8,0,0,1-2.39-.27,1.76,1.76,0,0,1-.32-.45c-.16-.09-.13-.19,0-.28s.21,0,.28.07a3.4,3.4,0,0,0,.38.47.77.77,0,0,0,.6.27,2.34,2.34,0,0,0,2.32-2.7,3.31,3.31,0,0,1-.07-.55,2,2,0,0,0-.74-1.48.2.2,0,0,1,0-.13.35.35,0,0,1,.12-.07C113.77,31,113.88,31,114,31.05Z"/><path class="cls-10" d="M100.62,53.69l1.94,0,4.77,0c.23,0,.46,0,.69,0,.18.23.18.3,0,.44a.47.47,0,0,1-.23,0,7.34,7.34,0,0,0-1.69,0c-1.12,0-2.24.06-3.36,0a6.41,6.41,0,0,0-1.75,0,2.41,2.41,0,0,1-.6,0c-.2,0-.54,0-.55-.17s.32-.11.5-.15A1,1,0,0,0,100.62,53.69Z"/><path class="cls-11" d="M97.38,68.45a.32.32,0,0,1-.19-.34.57.57,0,0,0-.17-.46l0,.82,0,0a4.13,4.13,0,0,1,.24-2.12.89.89,0,0,1,.54-.53c.28-.07.22-.3.22-.49,0-.91,0-1.81,0-2.72a1.14,1.14,0,0,1,.08-.58c.39-.06.26.26.27.41,0,.77,0,1.54,0,2.3s0,.7.62.39a5.24,5.24,0,0,1,1.15-.47l.23,0a8.17,8.17,0,0,0,1-.22,1,1,0,0,1,.67,0,.13.13,0,0,1,.05.13.56.56,0,0,1-.44.22,11.43,11.43,0,0,0-2.36.77,5.19,5.19,0,0,0-1.32.84c-.41.32-.37.85-.42,1.32C97.47,67.94,97.56,68.22,97.38,68.45Z"/><path class="cls-11" d="M108.33,64.83l.38.25a.55.55,0,0,1,.26.3c0,.21.09.43,0,.63s-.26-.1-.35-.2a1.67,1.67,0,0,0-1-.65.62.62,0,0,1-.4-.22,1.53,1.53,0,0,0-1.44-.45,3.93,3.93,0,0,0-1.81.63c-.21,0-.22-.17-.24-.32a.2.2,0,0,1,.06-.14c.88-.55,2.35-1.25,3.66-.49,0-.69,0-1.34,0-2,0-.18-.1-.46.23-.5a1,1,0,0,1,.11.67q0,.81,0,1.62C107.71,64.55,107.74,64.59,108.33,64.83Z"/><path class="cls-1" d="M100.62,53.69c-.19.24-.47.16-.82.2a1.74,1.74,0,0,0,.34.14,1.9,1.9,0,0,0,1.08-.08.62.62,0,0,1,.5,0,.61.61,0,0,0,.18.05c.52,0,1,.14,1.56.1A6.46,6.46,0,0,0,104.7,54a1.26,1.26,0,0,1,.51,0,2,2,0,0,0,1.17-.07,1.17,1.17,0,0,1,.9,0,4.43,4.43,0,0,0,.72.17l-.15.09-.32,0-7.27,0-2.32,0c-.1,0-.22,0-.31-.14s0-.22.15-.24a3,3,0,0,1,.41-.08C99,53.69,99.81,53.65,100.62,53.69Z"/><path class="cls-12" d="M90.32,48.31c.05,0,.16,0,.11-.1a5.2,5.2,0,0,0-.46-.57,2.39,2.39,0,0,1-.57-1.3c-.06-.36-.1-.72-.18-1.09a1.67,1.67,0,0,1,0-.32c0-.32,0-.65,0-1a6.4,6.4,0,0,1,.46-2.24,1.11,1.11,0,0,0,.09-.4,2.41,2.41,0,0,1,.48-1.14l.08,0c-.13.41-.28.81-.41,1.22a11,11,0,0,0-.42,4.07A5.65,5.65,0,0,0,89.82,47a2.45,2.45,0,0,0,.81,1.16.92.92,0,0,1,.26.26C90.67,48.57,90.49,48.45,90.32,48.31Z"/><path class="cls-13" d="M113.54,31.14a3.85,3.85,0,0,1,.3.27,1.72,1.72,0,0,1,.52,1.22c-.19,0-.2-.16-.25-.28a2,2,0,0,0-.2-.41c-.37-.5-.46-.49-.73,0l-.23.45c-.13.28-.43.56,0,.82,0,0,0,0,0,.06a1.67,1.67,0,0,1-1,0c-.12-.21,0-.36.11-.51a12.51,12.51,0,0,0,1.51-3.85c0-.16,0-.35.22-.42.26.28.14.61.07.91a6.28,6.28,0,0,1-.41,1.27c0,.09-.08.17.08.16a.13.13,0,0,0,.1.11s0,0,0,.05,0,0,0,0h0A.34.34,0,0,0,113.54,31.14Z"/><path class="cls-14" d="M91.29,48.4l.06-.28c.09-.19,0-.4.07-.58l0-.44c.07-.05,0-.25.18-.18.24.4.08.83.11,1.25a.77.77,0,0,1,0,.15,4.29,4.29,0,0,0-.1,1.92,2.35,2.35,0,0,1-.09,1.46c-.14.56,0,1.15-.11,1.71,0,.08-.09.14-.2.11a.44.44,0,0,1-.15-.37A8.86,8.86,0,0,1,91.18,51a3.17,3.17,0,0,0,0-.87A14.71,14.71,0,0,1,91.29,48.4Z"/><path class="cls-15" d="M113.71,38.28a.14.14,0,0,0,0,.2,8.84,8.84,0,0,1,.59,2,4.77,4.77,0,0,0,.17.62c0,.12,0,.24-.08.32s-.22-.25-.23-.4a9.44,9.44,0,0,0-.59-1.94,1.49,1.49,0,0,0-1.61-1.16c-.2,0-.4,0-.6,0a1.51,1.51,0,0,0-.3,0l-.1,0-.14.06-.09,0-.09.06,0,0-.09.06a.17.17,0,0,1-.1,0c-.08,0-.15-.05-.11-.15h0a.2.2,0,0,0,.09-.09h0l.09-.09h0l.09-.09h0l.09-.08h0c.07-.08.2,0,.26-.09h0c.09-.07.21,0,.29-.08l0,0h0a6.15,6.15,0,0,1,1.66,0,.42.42,0,0,1,.27.14A2.54,2.54,0,0,1,113.71,38.28Z"/><path class="cls-13" d="M112,36a.6.6,0,0,1-.54-.19,1.7,1.7,0,0,1-.49-.61c0-.06-.08-.1-.15-.07s-.09.11,0,.19a.06.06,0,0,0,0,0c-.14,0-.2.14-.29.22a5.52,5.52,0,0,1-.74.62c-.15,0-.31,0-.45-.07s0-.23.12-.31a16.42,16.42,0,0,0,2.09-2.16c.08-.09.15-.2.3-.16a.51.51,0,0,1,.15.37,1.56,1.56,0,0,1-.53.84c-.23.25-.2.42,0,.68S111.86,35.75,112,36Z"/><path class="cls-16" d="M109.24,36.13l.28,0a.21.21,0,0,1,.19.09,7.21,7.21,0,0,1-1.65,1.13c-.08.07-.14.18-.25.22l-.2.11a.71.71,0,0,1-.25.11l-.22,0H107c-.19,0-.41.13-.57-.09a.17.17,0,0,1,0-.12.39.39,0,0,1,.08-.1,14.55,14.55,0,0,0,2.39-1.38A.24.24,0,0,1,109.24,36.13Z"/><path class="cls-17" d="M98.13,61.92c0,.31,0,.62,0,.92,0,.88,0,1.76,0,2.64a.29.29,0,0,1-.25.33s-.08,0-.12,0,.07-.26.07-.4V63.93c-.07-.81,0-1.62,0-2.43,0-.21.08-.29.29-.2a.47.47,0,0,1,.11.13A.51.51,0,0,1,98.13,61.92Z"/><path class="cls-18" d="M108.33,64.83a.12.12,0,0,1-.2,0,1.09,1.09,0,0,0-.56-.24v-3a.55.55,0,0,1,0-.54.41.41,0,0,1,.1-.13c.22-.15.29-.06.29.18,0,.69,0,1.39,0,2.08a1,1,0,0,0,0,.46c0,.19,0,.39,0,.58s0,.35.23.43C108.25,64.74,108.28,64.8,108.33,64.83Z"/><path class="cls-19" d="M108,63.71c-.11-.1-.08-.23-.08-.35,0-.63,0-1.26,0-1.89V61.1c0-.11,0-.13-.15-.06l-.11.07a.77.77,0,0,1,0-.89c0-1.11,0-2.22,0-3.33,0-.14,0-.28,0-.42a.1.1,0,0,1,.13.05c.08.76,0,1.51,0,2.27,0,.18,0,.37.06.51a1.12,1.12,0,0,1,0-.91,5.93,5.93,0,0,1,0,1.63c-.07,0-.1.06-.08.09s0,0,.08,0a1.72,1.72,0,0,1,.05.64c0,.94,0,1.88,0,2.81C108,63.59,108,63.65,108,63.71Z"/><path class="cls-20" d="M110.82,68.35a1.21,1.21,0,0,0-.16.16.57.57,0,0,1-.67.25,5.77,5.77,0,0,0-.83,0,.11.11,0,0,1,0-.08.16.16,0,0,0,0,0c.21-.26.52-.16.78-.19s.4-.14.22-.42a6.13,6.13,0,0,0-1-1.39c-.13-.12-.3-.25-.2-.48.61,0,.89.46,1.15.9.16.26.22.58.49.77A1.1,1.1,0,0,1,110.82,68.35Z"/><path class="cls-21" d="M97.74,54.81c.07,0,.13,0,.15.07a.85.85,0,0,1,0,.23c0,1.1.08,2.21.11,3.31,0,.06,0,.12,0,.19-.18.06-.2-.12-.28-.19a1.67,1.67,0,0,1-.06-.59Z"/><path class="cls-22" d="M108.05,37.44a2.89,2.89,0,0,1,1.92.64.26.26,0,0,0,.21.08.21.21,0,0,1,0,.13c-.06.18-.11.36-.33.41a.25.25,0,0,1-.17-.05,3,3,0,0,0-2-.8.18.18,0,0,1,0-.19A.55.55,0,0,1,108.05,37.44Z"/><path class="cls-23" d="M113.52,30.86c-.09.05-.08.17-.14.23a.11.11,0,0,1-.13,0s-.08-.06-.06-.1c.07-.19.15-.38.22-.56l.18-.48a2.87,2.87,0,0,0,.21-1.45.4.4,0,0,1,.09-.63.25.25,0,0,0,.1-.2c0-.12,0-.24,0-.36a.16.16,0,0,1,.09-.09c.06,0,.07,0,.07.08,0,.23,0,.45,0,.68a9.38,9.38,0,0,1-.43,2.17C113.7,30.4,113.6,30.63,113.52,30.86Z"/><path class="cls-24" d="M98.1,61.4c-.23-.09-.25-.07-.26.12v1.9c0,.17,0,.34,0,.51a1.13,1.13,0,0,1,0-.41c0-.67,0-1.34,0-2s0-1.06,0-1.6c.18-.17-.08-.54.28-.65a3.05,3.05,0,0,1,.07.67l0,.54A.81.81,0,0,1,98.1,61.4Z"/><path class="cls-25" d="M92.52,53.35s-.1-.07-.16,0a4.34,4.34,0,0,0-.11-1.13,2.89,2.89,0,0,1,.09-1c0-.16.1-.32.29-.31s.22.21.22.35c0,.71,0,1.42.06,2.13C92.78,53.75,92.65,53.35,92.52,53.35Z"/><path class="cls-26" d="M111.31,52.5a.2.2,0,0,0,0,.07l-1.55.91a3.11,3.11,0,0,1-.59.26.3.3,0,0,1-.3-.06c0-.11.07-.13.13-.18l.17-.09c.63-.38,1.29-.72,1.89-1.14.18-.13.37-.24.36.14h0C111.35,52.41,111.33,52.45,111.31,52.5Z"/><path class="cls-27" d="M112.42,52.85c.1-.14.19-.28.29-.41a1.8,1.8,0,0,1,.19-.2.15.15,0,0,1,.24.09,1.07,1.07,0,0,1,0,.4,4.53,4.53,0,0,0,0,1.6c-.29.05-.16-.25-.29-.34s-.06,0,0,0,0,0,0,0,.08.23,0,.33a.71.71,0,0,1-.1-.47c0-.25,0-.49,0-.73a.12.12,0,0,0-.1-.13C112.67,52.85,112.49,52.94,112.42,52.85Z"/><path class="cls-28" d="M110.6,67.79c-.08,0-.16,0-.21-.08a2.65,2.65,0,0,1-.29-.52,1.47,1.47,0,0,0-.52-.68,1.69,1.69,0,0,0-.63-.38c-.06,0-.1,0-.07-.1v-.45a.24.24,0,0,1,.08-.2,12.55,12.55,0,0,0,.93,1.12,1,1,0,0,1,.19.26Z"/><path class="cls-29" d="M91.8,31.7l-.31,0c-.16-.41-.33-.82-.48-1.23a.86.86,0,0,1-.05-.23c-.07-.08,0-.21-.09-.29s0,0,0-.05,0-.16-.07-.23a.08.08,0,0,1,0-.08l0-.19c.19.15.13.42.29.57.09-.05.06-.18.16-.21a.12.12,0,0,1,0,.05A10.32,10.32,0,0,1,91.8,31.7Z"/><path class="cls-30" d="M116,50.81s.08.07.08.11a9.66,9.66,0,0,1,.11,1.32.34.34,0,0,0,.09.33.85.85,0,0,1,0,.23c-.17.53-.45.65-1,.41a.06.06,0,0,0-.09,0,.06.06,0,0,1,0,.07c-.25-.08-.16-.24-.08-.38s.23-.07.34,0l.12,0c.23,0,.32,0,.41-.19a1.42,1.42,0,0,0,.1-.71A9.28,9.28,0,0,1,116,50.81Z"/><path class="cls-23" d="M107.88,58.39l0,1c-.17-.11-.16-.26-.16-.41V57.84c0-.46,0-.92,0-1.38a4.46,4.46,0,0,1,0-1.21v-.17c.2,0,.12.17.13.27a8.39,8.39,0,0,0,0,1.12C107.88,57.11,107.9,57.75,107.88,58.39Z"/><path class="cls-31" d="M113.61,54.32a2.39,2.39,0,0,0,.32-1,1.51,1.51,0,0,1,.06-.36.08.08,0,0,1,.1-.06.2.2,0,0,1,.11.06.7.7,0,0,1,0,.32l0,.87c0,.12,0,.22.18.24v.06c-.11.17-.27,0-.4.05-.12-.12-.12-.12-.25,0S113.65,54.42,113.61,54.32Z"/><path class="cls-32" d="M93.91,54s-.06,0-.07,0a.12.12,0,0,1-.07-.07v0c-.07,0-.05-.12-.11-.16h0c-.09-.15,0-.35-.14-.48a2.79,2.79,0,0,1-.06-1l0-.12a.51.51,0,0,0,0-.3.53.53,0,0,1,0-.25.31.31,0,0,1,.08-.11.22.22,0,0,1,.21,0,.54.54,0,0,1,.07.13c.07.58,0,1.17,0,1.75l0,.12,0,.11,0,0,.06.09,0,0,.07.07,0,0a.35.35,0,0,0,.14,0,.34.34,0,0,0,.14,0l.08-.06a.46.46,0,0,1,.07-.07l0,0,.09-.12a.11.11,0,0,1,.09-.05.1.1,0,0,1,.08.05.41.41,0,0,1,0,.11s0,.11,0,.14h0s-.07.07-.07.12a.07.07,0,0,1,0,.07.27.27,0,0,1-.07.08.37.37,0,0,1-.47.09s-.13,0-.17-.08h0A.18.18,0,0,0,93.91,54Z"/><path class="cls-33" d="M94.87,53.6v-.1a.29.29,0,0,1-.07-.18.66.66,0,0,1,0-.14,1.54,1.54,0,0,0,0-.77c0-.09,0-.18,0-.26a1.13,1.13,0,0,0,0-.32l0-.13c0-.12,0-.26.11-.32s.16.09.21.17a.56.56,0,0,1,0,.12,2.8,2.8,0,0,0,.06.28l0,.1,0,.15,0,.1a1.25,1.25,0,0,0,.08.12l.08.07.1,0a2.19,2.19,0,0,0,.29.17.38.38,0,0,0,.15,0l.1,0a.17.17,0,0,1,.1,0h.05c.06.06.08.12,0,.19h0a.14.14,0,0,1-.08.07L96,53c-.33.13-.54-.12-.8-.26a3.29,3.29,0,0,1-.12.64s-.07.08-.07.13,0,0,0,.05S94.9,53.64,94.87,53.6Z"/><path class="cls-34" d="M115.45,53c-.08,0-.18-.1-.25,0s-.16.24,0,.36a1.35,1.35,0,0,1-.27.93c-.17,0-.26.24-.45.12v0a1.25,1.25,0,0,0,.39-.82,5,5,0,0,1,.08-.54,1.38,1.38,0,0,1,.08-.27.15.15,0,0,1,.26,0A2.53,2.53,0,0,1,115.45,53Z"/><path class="cls-35" d="M93.56,52v1.2c0,.06-.06.09-.07.14v0l0,0c-.06.05,0,.14-.09.19a.32.32,0,0,1-.32.27c-.17,0-.34,0-.43-.17s0-.14-.08-.2l0-.15s.06-.09.1,0a.49.49,0,0,0,.2.18.68.68,0,0,0,.31-.11c.14-.12.13-.29.16-.45a.5.5,0,0,1,0-.12,1.73,1.73,0,0,0,0-.45.59.59,0,0,1,.08-.34A.09.09,0,0,1,93.56,52Z"/><path class="cls-36" d="M112.42,52.85c.12,0,.19-.07.28-.13s.09,0,.12,0,0,.1,0,.15a1.71,1.71,0,0,1-.11.14,1.29,1.29,0,0,1-.84.32.53.53,0,0,1-.48-.21l0-.36s.06,0,.09,0h0c.07.08,0,.21.09.28A1.18,1.18,0,0,0,112.42,52.85Z"/><path class="cls-37" d="M92.36,52.3c.13.1,0,.26.1.38a.57.57,0,0,1-.09.55.25.25,0,0,0,0,.09.55.55,0,0,1-.25.38.14.14,0,0,0-.11.09h0l-.1.07,0,0h0a.17.17,0,0,1-.2,0l-.09,0a.27.27,0,0,1-.08-.07h0l-.08-.08h0a.18.18,0,0,1-.08-.09l-.05-.07.13-.11,0,0h.05l.09.05,0,0,.07.06,0,0,.07,0a.11.11,0,0,0,.08,0l.07,0,0,0,.06-.08s0,0,0,0l0-.1a2.78,2.78,0,0,1,.16-.4.88.88,0,0,0,.06-.36A.28.28,0,0,1,92.36,52.3Z"/><path class="cls-38" d="M113.61,54.32a.3.3,0,0,1,.21.12h0a.16.16,0,0,0-.1.1.44.44,0,0,1-.49.18.46.46,0,0,1-.36-.38v-.41c.16.13.13.34.3.4a.33.33,0,0,0,.33.08.11.11,0,0,0,.11-.09Z"/><path class="cls-7" d="M98,59.25a.25.25,0,0,0-.1.25.54.54,0,0,1-.18.4,10.44,10.44,0,0,1,0-1.48l.28.19A2.74,2.74,0,0,1,98,59.25Z"/><path class="cls-39" d="M95.86,36.72l-.07,0a.38.38,0,0,0-.13-.09h0a.44.44,0,0,1-.24-.18v0a.13.13,0,0,1-.07-.06h0l-.09-.08a2.87,2.87,0,0,1-.65-.55.17.17,0,0,1,.13-.13c.36.06.56.35.81.57l.08.09,0,0a.6.6,0,0,1,.08.08l0,0,.09.06.1.07.06.1v.06C96,36.73,95.92,36.76,95.86,36.72Z"/><path class="cls-40" d="M114.47,54.36c.14,0,.22-.14.32-.21s.11,0,.13.09h0a.18.18,0,0,0-.08.11.59.59,0,0,1-.29.27c-.19.08-.3,0-.48-.18,0-.08,0-.2.16-.1A.17.17,0,0,0,114.47,54.36Z"/><path class="cls-41" d="M94.7,35.58l-.12.12L94,35.18c-.07-.06-.13-.13-.23-.12s.15-.13.19-.22c.34.06.48.34.68.56a.61.61,0,0,1,0,.12A.13.13,0,0,0,94.7,35.58Z"/><path class="cls-42" d="M107.85,56.47a.33.33,0,0,1-.07-.26c0-.29,0-.58,0-.87a.31.31,0,0,0-.08-.26c0-.18,0-.18.17-.16Z"/><path class="cls-43" d="M112.91,37.54h-1.66a.91.91,0,0,1,.4-.1,6.14,6.14,0,0,1,1,0A.6.6,0,0,1,112.91,37.54Z"/><path class="cls-44" d="M107.88,60.07s0,0,0,0,0,.15-.07.19l0,0c-.09-.07,0-.15,0-.24s.07-.09.13,0S107.9,60.05,107.88,60.07Z"/><path class="cls-45" d="M92.74,37.53h-.56a.8.8,0,0,1,.55-.07S92.74,37.51,92.74,37.53Z"/><path class="cls-46" d="M95.42,36.44a.43.43,0,0,1,.24.18,1.2,1.2,0,0,1-.53-.08C95.23,36.5,95.35,36.54,95.42,36.44Z"/><path class="cls-27" d="M93.49,53.36a.13.13,0,0,1,.07-.14c.15.13.09.31.09.47-.06,0-.07-.11-.09-.18A.2.2,0,0,0,93.49,53.36Z"/><path class="cls-47" d="M110.18,38.28v-.12a.07.07,0,0,1,.08-.07.22.22,0,0,0,.19.1c0,.18-.08.24-.2.3S110.12,38.38,110.18,38.28Z"/><path class="cls-48" d="M108.05,37.44c0,.12-.19.12-.28.2s0,0,0-.06,0,0,0,0a.38.38,0,0,1,.29-.18A.09.09,0,0,1,108.05,37.44Z"/><path class="cls-23" d="M113.63,31.05a.22.22,0,0,1,0-.08c.14-.07.27-.08.36.08Z"/><path class="cls-49" d="M109,53.5l-.13.18-.16-.09C108.77,53.49,108.88,53.5,109,53.5Z"/><path class="cls-1" d="M90.87,29.93c.11.07.1.18.09.29A.34.34,0,0,1,90.87,29.93Z"/><path class="cls-47" d="M111.21,37.55c-.08.1-.18.09-.29.08A.31.31,0,0,1,111.21,37.55Z"/><path class="cls-47" d="M110.92,37.63c-.06.11-.16.1-.26.09A.22.22,0,0,1,110.92,37.63Z"/><path class="cls-1" d="M90.79,29.65a.2.2,0,0,1,.07.23A.24.24,0,0,1,90.79,29.65Z"/><path class="cls-27" d="M94,54.06a.15.15,0,0,1,.17.08A.14.14,0,0,1,94,54.06Z"/><path class="cls-27" d="M93.38,53.6c0-.08,0-.15.09-.19A.21.21,0,0,1,93.38,53.6Z"/><path class="cls-50" d="M91.61,53.88h.2C91.74,54,91.68,54,91.61,53.88Z"/><path class="cls-25" d="M92.55,53.5a.2.2,0,0,1,.08.2A.2.2,0,0,1,92.55,53.5Z"/><path class="cls-27" d="M93.65,53.69a.17.17,0,0,1,.11.16A.15.15,0,0,1,93.65,53.69Z"/><path class="cls-51" d="M94.87,53.6H95a.18.18,0,0,1-.09.18Z"/><path class="cls-50" d="M91.35,53.69a.11.11,0,0,1,.08.08C91.37,53.77,91.35,53.74,91.35,53.69Z"/><path class="cls-50" d="M92,53.79a.13.13,0,0,1,.11-.09C92.09,53.76,92.06,53.79,92,53.79Z"/><path class="cls-50" d="M91.44,53.78a.08.08,0,0,1,.08.07S91.45,53.83,91.44,53.78Z"/><path class="cls-50" d="M91.89,53.86a.1.1,0,0,1,.1-.07C92,53.85,92,53.87,91.89,53.86Z"/><path class="cls-50" d="M91.26,53.59a.12.12,0,0,1,.08.09C91.28,53.67,91.26,53.65,91.26,53.59Z"/><path class="cls-51" d="M94.79,53.9a.13.13,0,0,1,.07-.12A.1.1,0,0,1,94.79,53.9Z"/><path class="cls-51" d="M95,53.54a.14.14,0,0,1,.07-.13A.14.14,0,0,1,95,53.54Z"/><path class="cls-27" d="M93.77,53.87l.07.07A.06.06,0,0,1,93.77,53.87Z"/><path class="cls-27" d="M93.91,54a.12.12,0,0,1,.11.08A.11.11,0,0,1,93.91,54Z"/><path class="cls-51" d="M94.68,54.05l.07-.08C94.75,54,94.73,54,94.68,54.05Z"/><path class="cls-34" d="M115.2,53.24c0-.07,0-.1.09,0Z"/><path class="cls-34" d="M114.84,54.36a.11.11,0,0,1,.08-.11A.11.11,0,0,1,114.84,54.36Z"/><path class="cls-31" d="M113.72,54.54a.12.12,0,0,1,.1-.1A.11.11,0,0,1,113.72,54.54Z"/><path class="cls-47" d="M110.64,37.73a.09.09,0,0,1-.09.08A.09.09,0,0,1,110.64,37.73Z"/><path class="cls-12" d="M90.21,48.23a.1.1,0,0,1,.1.07A.08.08,0,0,1,90.21,48.23Z"/><path class="cls-12" d="M90.1,48.13a.13.13,0,0,1,.11.1A.12.12,0,0,1,90.1,48.13Z"/><path class="cls-52" d="M95.34,36.34l.07.06Z"/><path class="cls-47" d="M110.36,38a.11.11,0,0,1-.09.09A.11.11,0,0,1,110.36,38Z"/><path class="cls-47" d="M110.46,37.91a.11.11,0,0,1-.09.09S110.4,37.92,110.46,37.91Z"/><path class="cls-52" d="M95.23,36.25a.1.1,0,0,1,.09.08A.11.11,0,0,1,95.23,36.25Z"/><path class="cls-47" d="M110.55,37.82a.11.11,0,0,1-.09.09Q110.48,37.82,110.55,37.82Z"/><path class="cls-3" d="M94.59,35.49a4.3,4.3,0,0,0-.63-.65h0c-.08,0,0-.12-.12-.15l-.09-.12c-.09-.2-.11-.47-.4-.51a6.49,6.49,0,0,1-1.24-1.87,3.11,3.11,0,0,0-.2-.41,16.57,16.57,0,0,1-.66-2h0c-.08-.41-.17-.82-.23-1.23a6.27,6.27,0,0,1-.11-1,16.06,16.06,0,0,1,.34-3.32,8.1,8.1,0,0,1,.9-2.32,2.66,2.66,0,0,1,.66-.83.59.59,0,0,1,.6-.16,1.41,1.41,0,0,0,.41,0c.62,0,1.24-.07,1.85-.14.91-.1,1.81-.23,2.71-.35l3-.43,3-.42,2.94-.41,3.08-.43.23,0a.34.34,0,0,1,.42.19,3.24,3.24,0,0,0,.51.6A2.85,2.85,0,0,1,112,20a23,23,0,0,1,1.25,2.48,8.92,8.92,0,0,1,.64,2.88,14.44,14.44,0,0,1,0,2.08c0,.14,0,.28,0,.42a1.51,1.51,0,0,0-.09.63,1.21,1.21,0,0,0-.12.45,13,13,0,0,1-1.65,4.1,1.24,1.24,0,0,0-.1.2.26.26,0,0,1-.18.25l0,0a12.74,12.74,0,0,1-2.41,2.51s0,0-.06.07a1.88,1.88,0,0,0-.42.27,10.71,10.71,0,0,1-2.27,1.25l-.07.07h0a.26.26,0,0,1-.14.17,1.55,1.55,0,0,1-.8,0c-.15-.09-.07-.17,0-.25s.28-.13.38-.39a9.17,9.17,0,0,1-1.32.47l-.13,0a8.61,8.61,0,0,1-3.16-.08,3.62,3.62,0,0,1-1.06-.37c.15.16.4.21.41.46s-.33.18-.52.14c-.41-.08-.82-.1-1.23-.17A.91.91,0,0,0,98,38c-.27.09-.43,0-.52-.28a1.55,1.55,0,0,0-.77-.61L96.42,37c-.15-.12-.38-.14-.43-.37h0a.39.39,0,0,0-.1-.08v0h0a.17.17,0,0,1-.13-.1h0a.28.28,0,0,1-.1-.09h0a.27.27,0,0,0-.08-.07l-.82-.68h0A.28.28,0,0,1,94.59,35.49Z"/><path class="cls-53" d="M97.91,38a.65.65,0,0,1,.77-.48,14.21,14.21,0,0,1,1.59.25.29.29,0,0,0,.37-.09c.18-.12.36,0,.53,0a9.21,9.21,0,0,0,3.18.21,7.88,7.88,0,0,0,.87-.19.31.31,0,0,1,.21.06l.94,0c.25.27.5,0,.75,0h0c.06-.06.15,0,.21-.09l.25-.09c.19-.08.1.15.2.18a2.36,2.36,0,0,1,1.85.59,3,3,0,0,1,.26.25.61.61,0,0,1,.33.3,8.2,8.2,0,0,1,1.22,3.48,1.26,1.26,0,0,0,.16.33l.09.14.06.1.07.09a.61.61,0,0,1,.07.1c.25.35.34.78.56,1.14l.11.23.12.23,0,.12a5.24,5.24,0,0,1,.34,3,.35.35,0,0,1-.06.14l-.06,0-.5-.12-.12,0-.12-.05h-.06c-.5.13-1,0-1.52.15-1,.06-2,.05-3.06.09s-2.25.09-3.38.11h-.52c-1.23,0-2.47.13-3.71.12l-.16,0h-.4c-.47,0-.94,0-1.4,0a.89.89,0,0,1-.28,0h-.27a.28.28,0,0,0-.18,0,2.27,2.27,0,0,1-.72-.16c0-.24.23-.32.39-.41a2.45,2.45,0,0,0,1.17-1.65s0-.08,0-.13,0-.17.08-.25c.2-.63.31-1.28.45-1.92a1.61,1.61,0,0,0,.06-.49,1.43,1.43,0,0,1,0-.22A9.17,9.17,0,0,0,98,38.51C98,38.36,97.83,38.22,97.91,38Z"/><path class="cls-54" d="M104.16,48.13l1.61-.08,4.57-.14.37,0c.53-.1,1.08,0,1.61-.09h0l.09.09a.05.05,0,0,1,0,0c0,.19-.15.25-.33.25-.71,0-1.43,0-2.13,0-1.39.07-2.79,0-4.17.11-.78,0-1.55.06-2.32,0,0-.23.21-.16.35-.17s.44.06.66.05C104.42,48.18,104.19,48.39,104.16,48.13Z"/><path class="cls-55" d="M111.41,52.41c-.09-.2-.12-.21-.25-.11a8.28,8.28,0,0,1-1.87,1.08.61.61,0,0,1-.13,0,3.73,3.73,0,0,1,1-.72,4.74,4.74,0,0,0,2-2.1c.07-.12.15-.23.21-.36a3.69,3.69,0,0,0,.4-1.08c.06-.35.11-.7.14-1h0c.3,0,.26.26.38.39a1.16,1.16,0,0,1-.08.58c-.32.27-.28.64-.29,1a.3.3,0,0,1,0,.13,11.26,11.26,0,0,1-1,1.7A1.41,1.41,0,0,1,111.41,52.41Z"/><path class="cls-56" d="M98.23,46.19a3,3,0,0,1-.38,1,1.22,1.22,0,0,1-.37.41l-.93.68-.1.06c0,.06-.1.08-.16,0-.17-.25-.17-.31,0-.45s.57-.35.84-.56a1.33,1.33,0,0,0,.49-.63,1,1,0,0,1,.08-.11c.21,0,.1-.16.17-.23S98,46.1,98.23,46.19Z"/><path class="cls-57" d="M104.16,48.13a.22.22,0,0,0,.2.08c.08,0,.18,0,.27.1h-.83c-.11,0-.22,0-.3.08a5.46,5.46,0,0,1-1,0c-.72.1-1.44,0-2.16.07a11.45,11.45,0,0,1-1.31,0c0-.05,0-.09,0-.12a1.94,1.94,0,0,1,.34,0c.13,0,.27.06.39-.05l0,0h0a1.76,1.76,0,0,1,.56,0c1.09.05,2.18-.08,3.28-.12A1.29,1.29,0,0,1,104.16,48.13Z"/><path class="cls-58" d="M96.09,48.49v1c0,.19,0,.39,0,.58-.19.23.13.54-.13.76-.24-.07-.27-.28-.28-.48a8.14,8.14,0,0,1,0-1.56.51.51,0,0,1,.32-.32Z"/><path class="cls-59" d="M96,50.82c0-.17,0-.34,0-.51a.27.27,0,0,1,.1-.25v.37c0,.06,0,.13.07.19a1.58,1.58,0,0,1,.21.73,1.82,1.82,0,0,1,0,.77v.17c-.36-.12-.13-.46-.26-.67a1.46,1.46,0,0,1-.12-.5,1.93,1.93,0,0,1,0-.24Z"/><path class="cls-60" d="M100.35,48.48a.29.29,0,0,1,.25-.08h1.91l-.22.06Z"/><path class="cls-61" d="M96.17,51.55c.13.12.08.28.09.42s0,.24.09.32a.57.57,0,0,1-.19.55.19.19,0,0,0-.09-.18A1.31,1.31,0,0,1,96.17,51.55Z"/><path class="cls-60" d="M99,48.4v.09H97.65s0,0,0-.06,0,0,0,0a.36.36,0,0,1,.25,0A3.36,3.36,0,0,1,99,48.4Z"/><path class="cls-61" d="M96.36,52.12v-.77A.9.9,0,0,1,96.36,52.12Z"/><path class="cls-62" d="M96.29,48.39h.16c-.08.16-.22.12-.36.11h0s0-.07,0-.09Z"/><path class="cls-63" d="M97.65,48.4v.09h-.28s0,0,0-.05l0,0A.45.45,0,0,1,97.65,48.4Z"/><path class="cls-58" d="M96.15,50.62a.18.18,0,0,1-.07-.19A.23.23,0,0,1,96.15,50.62Z"/><path class="cls-61" d="M96.07,52.92l.08-.07A.08.08,0,0,1,96.07,52.92Z"/><path class="cls-64" d="M97.37,48.41v.08h-.1A.08.08,0,0,1,97.37,48.41Z"/><path class="cls-65" d="M98.1,61.4l0-.94c.73-.07,1.45-.08,2.18-.09s1.6,0,2.4-.09c.32.4.11.77,0,1.15a.69.69,0,0,1-.39.1c-1.18,0-2.34.16-3.52.1-.21,0-.44,0-.61-.15Z"/><path class="cls-66" d="M107.57,60.22l0,.89,0,0h0a.55.55,0,0,1-.48.22c-1.15,0-2.28.16-3.43.1a1,1,0,0,1-.49-.09.36.36,0,0,1-.11-.14c-.06-.33-.15-.66.12-1,.91-.09,1.83-.06,2.75-.08.36,0,.71,0,1.06,0S107.37,60.2,107.57,60.22Z"/><path class="cls-67" d="M103.16,60.26l0,1c-.17.13-.24.34-.38.48a.11.11,0,0,1-.12,0,.21.21,0,0,1,0-.26,6.75,6.75,0,0,0,0-1.1c0-.75,0-1.51.05-2.26s.06-1.26.11-1.89a2.39,2.39,0,0,1,.09-.45s.05,0,.07,0,.07,0,.07,0,0,.24,0,.36v3.7C103.13,59.92,103.15,60.09,103.16,60.26Z"/><path class="cls-42" d="M107.67,55.25a8.15,8.15,0,0,1,0,1.21h-.06A3.34,3.34,0,0,1,107.67,55.25Z"/><path class="cls-53" d="M95.9,38.64s0,.09,0,.12A4.35,4.35,0,0,1,96.57,40a3.33,3.33,0,0,1,.23,1.21.66.66,0,0,1-.14.38c-.13.22-.33.18-.53.13s-.69-.23-1-.31l-.4-.1a4.72,4.72,0,0,0-.65-.15c-.17,0-.34-.08-.5-.12a2.1,2.1,0,0,0-.42-.09l-.11,0a.7.7,0,0,0-.29,0,.24.24,0,0,1-.11-.06.61.61,0,0,1-.06-.4,7.69,7.69,0,0,1,.76-2.27.75.75,0,0,1,.14-.17,2.51,2.51,0,0,1,1.37-.49.34.34,0,0,1,.34.09C95.41,38,95.78,38.2,95.9,38.64Z"/><path class="cls-68" d="M97.91,38a4.19,4.19,0,0,1,.56,1.26c0,.19.1.39.17.58a5,5,0,0,1,.28,1.49c0,.56,0,1.13,0,1.7a1.28,1.28,0,0,1-.05.27c-.29-.32-.06-.73-.19-1.07a1.38,1.38,0,0,1,0-.2.45.45,0,0,1,0-.16s0-.07,0-.07,0,0,0,0a.07.07,0,0,1-.06.07,1.1,1.1,0,0,1,0-.51A5.26,5.26,0,0,0,98.28,40c-.09-.29-.16-.59-.23-.89A2.26,2.26,0,0,0,97.47,38a.29.29,0,0,1-.07-.12c0-.06,0-.11.08-.14Z"/><path class="cls-69" d="M93.42,38.2a8.06,8.06,0,0,0-.7,2l-.09.31a.63.63,0,0,0,0,.52,11.81,11.81,0,0,1-.2,1.79.23.23,0,0,1-.16.21c-.3-.25-.07-.59-.12-.89a1.42,1.42,0,0,1,.07-.49.8.8,0,0,0,0-.21A9.06,9.06,0,0,1,93,38.51a.69.69,0,0,1,.22-.34C93.26,38.19,93.35,38.11,93.42,38.2Z"/><path class="cls-70" d="M95.9,38.64a2.8,2.8,0,0,1-.68-.81.35.35,0,0,0-.42-.19,2.65,2.65,0,0,0-1.32.48A.27.27,0,0,1,93.3,38a1.28,1.28,0,0,1,.9-.48s.11,0,.13,0,0,0,0,0-.37,0-.51-.13a.35.35,0,0,1,.28-.13l.6,0a.84.84,0,0,1,.73.34l.66.83a.17.17,0,0,1,0,.17C96.05,38.59,96,38.61,95.9,38.64Z"/><path class="cls-71" d="M98.56,41.93l0-.12a.05.05,0,0,1,.08,0V42l.09.1a2.09,2.09,0,0,1,.1.75,4,4,0,0,0,0,.49l0,.15c-.11.15,0,.34-.09.49a6.17,6.17,0,0,1-.25,1.28,2.43,2.43,0,0,1-.22.74c-.06,0,0,.13-.07.2h0a.73.73,0,0,0-.31.42.4.4,0,0,1-.12.23c-.08-.05,0-.13-.06-.2h0c.06-.06.05-.15.08-.22a.07.07,0,0,1,0-.06c0-.06,0-.14.08-.2h0a6,6,0,0,0,.39-1.49.83.83,0,0,1,.09-.46,4.54,4.54,0,0,0,.16-.75,4,4,0,0,0,0-.92Z"/><path class="cls-72" d="M92.27,41.53s.07.08.06.11a5.48,5.48,0,0,0,0,1.4.49.49,0,0,1,.11.38A12.89,12.89,0,0,1,92,45.74a3.17,3.17,0,0,1-.19.42.12.12,0,0,1-.14,0,1.56,1.56,0,0,1,0-.83h0c.14-.2,0-.45.09-.66a7.89,7.89,0,0,1,.11-1.09c0-.44.12-.87.19-1.31.09-.15,0-.33.07-.48l0-.17A.2.2,0,0,1,92.27,41.53Z"/><path class="cls-73" d="M96.62,41.5c0-.13.09-.2.18-.27s.17,0,.16.12a6.46,6.46,0,0,1-.15,1.23c-.15.56-.25,1.14-.37,1.71a1.92,1.92,0,0,1-.17.61c-.29-.3,0-.6,0-.95,0,0-.1,0,0,0s0,0,0,0,0,.32-.21.31a2.77,2.77,0,0,1,.18-1.45,1.55,1.55,0,0,1,.25-.41c.25-.22.08-.51.1-.76A.58.58,0,0,1,96.62,41.5Z"/><path class="cls-74" d="M96.1,48.39l0,.09c-.09.07-.13.21-.28.2a.34.34,0,0,1-.07-.29,2.46,2.46,0,0,0,0-.54c0-.86,0-1.72,0-2.58a.46.46,0,0,1,0-.23.17.17,0,0,1,.1-.1c.19,0,.19.18.25.3v.19a16.32,16.32,0,0,0,0,1.85,2.92,2.92,0,0,1,0,.59V48a.11.11,0,0,0,0,.18Z"/><path class="cls-45" d="M91.06,38.85c0-.12.07-.2.13-.29a1.72,1.72,0,0,1,1.4-.93.23.23,0,0,0,.15-.1,1.17,1.17,0,0,1,.27,0,.21.21,0,0,1,.15.25.23.23,0,0,1-.24.16l-.09,0a1.16,1.16,0,0,0-1,.19,2.8,2.8,0,0,0-.5.41Z"/><path class="cls-75" d="M91.7,45.33c0,.2,0,.41,0,.62a.26.26,0,0,0,.1.23.5.5,0,0,1,.12.42c-.05.43-.08.85-.09,1.27,0,.15,0,.32-.22.36v-1c0-.11,0-.22-.1-.29a.89.89,0,0,1,0-.58A2.48,2.48,0,0,1,91.7,45.33Z"/><path class="cls-76" d="M96.16,45.24A.27.27,0,0,1,96,45a.36.36,0,0,1-.08-.12.46.46,0,0,1,.18-.53c.13-.08.07-.29.26-.39a3.66,3.66,0,0,0-.07,1A.51.51,0,0,1,96.16,45.24Z"/><path class="cls-77" d="M96.07,47.28V45.77c0-.12,0-.24.09-.34a16.29,16.29,0,0,1,0,1.85S96.1,47.32,96.07,47.28Z"/><path class="cls-56" d="M98.3,44.68A3.36,3.36,0,0,1,98,46.11a.22.22,0,0,1-.07.06,7.23,7.23,0,0,1,.25-1C98.2,45,98.18,44.81,98.3,44.68Z"/><path class="cls-68" d="M98.58,43.48a1.28,1.28,0,0,1-.19.74l.18-1.6A1.67,1.67,0,0,1,98.58,43.48Z"/><path class="cls-78" d="M96,36.61a1,1,0,0,1,.43.37.76.76,0,0,1-.56-.26Z"/><path class="cls-79" d="M98.58,43.48c0-.29,0-.57,0-.86,0,0,0,0,0-.07s.07.06.08.1a2.48,2.48,0,0,1,0,.72S98.61,43.44,98.58,43.48Z"/><path class="cls-80" d="M93.77,37.33a2.38,2.38,0,0,1,.74.15.38.38,0,0,1-.31.05c-.07-.09-.18-.07-.28-.08A.16.16,0,0,1,93.77,37.33Z"/><path class="cls-81" d="M91.52,46.34v.58a.18.18,0,0,1-.08.18A1.51,1.51,0,0,1,91.52,46.34Z"/><path class="cls-75" d="M91.79,44.67c0,.16,0,.32,0,.48a.21.21,0,0,1-.1.18A1.36,1.36,0,0,1,91.79,44.67Z"/><path class="cls-82" d="M93.3,38a.17.17,0,0,1,.18.11.08.08,0,0,1-.06.08c-.08,0-.18.09-.24,0A.19.19,0,0,1,93.3,38Z"/><path class="cls-56" d="M96.07,47.28h.07a1,1,0,0,1-.06.59Z"/><path class="cls-81" d="M91.42,47.54c0,.19.08.4-.07.58A1,1,0,0,1,91.42,47.54Z"/><path class="cls-83" d="M92.16,41.79c0,.16.07.34-.07.48A.79.79,0,0,1,92.16,41.79Z"/><path class="cls-56" d="M97.92,46.16a.18.18,0,0,1-.08.2A.18.18,0,0,1,97.92,46.16Z"/><path class="cls-83" d="M92.27,41.53l-.09.09,0-.18Z"/><path class="cls-56" d="M97.82,46.42a.18.18,0,0,1-.08.22A.29.29,0,0,1,97.82,46.42Z"/><path class="cls-58" d="M96.07,48.21c-.09-.06-.09-.12,0-.18Z"/><path class="cls-45" d="M91,39a.14.14,0,0,1,.09-.13A.18.18,0,0,1,91,39Z"/><path class="cls-84" d="M95.66,36.61a.15.15,0,0,1,.13.09Z"/><path class="cls-85" d="M111.37,42.59a.25.25,0,0,1-.09-.2,5.77,5.77,0,0,0-.63-2.37,11.27,11.27,0,0,0-.76-1.36c.08,0,.1-.1.14-.17l.15-.21c0,.08,0,.15.11.18.27,0,.35.23.45.41a7.65,7.65,0,0,1,1.05,2.6c0,.29.22.28.44.24a5.79,5.79,0,0,1,1.55-.21.69.69,0,0,1,.48.11.41.41,0,0,0,.19.2.58.58,0,0,1,.28.44,4.16,4.16,0,0,1,.08,1.27,3.53,3.53,0,0,1-.21-.85l-.06-.27c-.08-.41-.13-.32-.43-.32a13.86,13.86,0,0,0-2.12.22l-.13,0c-.1,0-.13.09-.07.17.17.26.35.51.51.77a.52.52,0,0,1,.11.3c-.18.06-.22-.1-.3-.19a1.13,1.13,0,0,1-.1-.13.47.47,0,0,1-.05-.1,1.13,1.13,0,0,0-.1-.13,1.35,1.35,0,0,1-.2-.27.61.61,0,0,1-.07-.17,1,1,0,0,1,0-.34C111.47,42.35,111.51,42.53,111.37,42.59Z"/><path class="cls-86" d="M113,48a.65.65,0,0,1,0-.14,5.82,5.82,0,0,0-.39-3,.28.28,0,0,1,0-.09c.46-.06.33.35.45.57,0-.15-.11-.29,0-.42a3.28,3.28,0,0,1,.35,1.19,6.85,6.85,0,0,1,0,2.12l0,.08C113.22,48.25,113.22,48,113,48Z"/><path class="cls-87" d="M113.07,45l0,.48H113a3,3,0,0,1-.11-.32.38.38,0,0,0-.3-.31h0c0-.07,0-.16-.1-.2a.19.19,0,0,1-.08-.17,7.66,7.66,0,0,0-.39-1,.14.14,0,0,1,.06-.11l.06,0c.12.07.13.25.28.28A7.94,7.94,0,0,1,113.07,45Z"/><path class="cls-88" d="M113,50.07a.27.27,0,0,1-.12,0c-.06,0,0-.06,0-.11a.75.75,0,0,0,.05-.26,1,1,0,0,1,.27-.74s.06,0,.09,0,0,.06,0,.09A2.1,2.1,0,0,1,113,50.07Z"/><path class="cls-89" d="M113,48l.09-.1c.09-.07.17-.06.22,0s0,.26.07.39l0,.15a.35.35,0,0,1-.19-.19.46.46,0,0,0-.19-.2A.06.06,0,0,1,113,48Z"/><path class="cls-90" d="M111.58,53c-.12-.06-.11-.17-.09-.28C111.56,52.83,111.55,52.94,111.58,53Z"/><path class="cls-90" d="M111.49,52.76h-.09s0-.09,0-.13,0-.05.06-.05.07.05.06.1Z"/><path class="cls-31" d="M113.61,54.32c0,.06,0,.09-.11.09A.13.13,0,0,1,113.61,54.32Z"/><path class="cls-55" d="M111.31,52.5a.12.12,0,0,1,.1-.1C111.41,52.47,111.36,52.49,111.31,52.5Z"/><path class="cls-3" d="M93.29,34.84c0,.1-.08.2-.13.3a2.13,2.13,0,0,1-1.22,1.12,1.49,1.49,0,0,1-2-1.16c0-.2,0-.4-.06-.6a2.29,2.29,0,0,1,1.62-2.16.54.54,0,0,1,.45,0c.26.36.48.74.71,1.12s.13.46-.26.5A3.27,3.27,0,0,0,91.3,34c-.24.23,0,.28.14.31a4.93,4.93,0,0,0,.77,0,2.74,2.74,0,0,1,.81.12C93.2,34.52,93.38,34.59,93.29,34.84Z"/><path class="cls-91" d="M93.29,34.84c0-.11,0-.22-.16-.24s-.48-.08-.73-.1l-.92,0-.32,0a.27.27,0,0,1-.22-.21.26.26,0,0,1,.13-.28.58.58,0,0,1,.14,0c.46-.08,1,.06,1.4-.06a.87.87,0,0,1,.79.16c.35.13.37.15.35.55-.16-.08-.13-.31-.3-.38s-.06.13-.07.19a1.08,1.08,0,0,0,0,.18C93.38,34.66,93.39,34.77,93.29,34.84Z"/><path class="cls-92" d="M91.88,32.38A2.26,2.26,0,0,0,90,34.2a.8.8,0,0,1-.09.3,1.54,1.54,0,0,1,.44-1.62,4.19,4.19,0,0,1,1.11-.8A.68.68,0,0,1,91.8,32c.09,0,0-.26.2-.18a.39.39,0,0,1,.18.36A.31.31,0,0,1,91.88,32.38Z"/><path class="cls-1" d="M92,31.79l-.2.18V31.7A9.51,9.51,0,0,1,91.25,30a.81.81,0,0,1,0-.22,2.71,2.71,0,0,1,.23.64C91.66,30.84,91.83,31.32,92,31.79Z"/><path class="cls-41" d="M93.84,34.68a.18.18,0,0,1,.12.15C93.87,34.82,93.84,34.76,93.84,34.68Z"/><path class="cls-4" d="M97.38,68.45A6.21,6.21,0,0,1,97.46,67a3,3,0,0,1,.11-.4.8.8,0,0,1,.4-.48,3.29,3.29,0,0,0,.62-.4,4.88,4.88,0,0,1,1.08-.52l.69-.26a6.45,6.45,0,0,1,1.2-.32l.45-.1a1,1,0,0,1,1.08.14,2.44,2.44,0,0,1,.37.35,10,10,0,0,0,1,1.43,2.51,2.51,0,0,1,.52,1.12,1.74,1.74,0,0,0,.35.84c.2.24.07.5,0,.75s-.38.19-.57.28a6.78,6.78,0,0,1-2.87.08,21,21,0,0,0-2.38-.21c-.49,0-1-.19-1.44-.24a4.4,4.4,0,0,0-.45-.3A.74.74,0,0,1,97.38,68.45Z"/><path class="cls-4" d="M108.88,66a.13.13,0,0,0,.07.1.82.82,0,0,0,.28.36,3,3,0,0,1,.66.88c.1.19.23.36.33.55a1,1,0,0,1,.18.49,2.08,2.08,0,0,1-.66.12,1.08,1.08,0,0,0-.58.11,8,8,0,0,1-1.55,0c-.58,0-1.12.28-1.71.25h-.07a.59.59,0,0,1-.18-.28,4.28,4.28,0,0,1-.49-1.24,3,3,0,0,0-.66-1.26,2.17,2.17,0,0,1-.6-1c0-.08,0-.15,0-.21a1.59,1.59,0,0,1,.42-.19l1-.3a2.48,2.48,0,0,1,1,0,1.11,1.11,0,0,1,.6.32l.3.28c.08.07.18.15.29.1s.26,0,.38.1A2.86,2.86,0,0,1,108.88,66Z"/><path class="cls-54" d="M103.9,65.1c.26.38.53.75.82,1.11a2.84,2.84,0,0,1,.62,1.38,1.22,1.22,0,0,0,.32.75.28.28,0,0,1,.08.26.29.29,0,0,1,0,.31c-.23-.07-.25.15-.35.26v-.32a.45.45,0,0,0-.17-.41A.67.67,0,0,1,105,68c0-.11,0-.21-.07-.32a2.75,2.75,0,0,0-.7-1.39,4.74,4.74,0,0,1-.79-1.19.11.11,0,0,1,0-.11.52.52,0,0,1,.31-.18.24.24,0,0,1,.09.15A.18.18,0,0,0,103.9,65.1Z"/><path class="cls-93" d="M98.11,69.08a1.71,1.71,0,0,1,.64,0,11.74,11.74,0,0,0,1.56.14c.88.07,1.74.18,2.61.3a2.39,2.39,0,0,0,1,0,3.54,3.54,0,0,1,.92-.06.26.26,0,0,1-.14.11,6.73,6.73,0,0,1-.85.17,6,6,0,0,1-1.2,0,7.24,7.24,0,0,1-1-.15,1.15,1.15,0,0,0-.32,0,4.4,4.4,0,0,1-.73-.07,3.38,3.38,0,0,0-.78,0,1.73,1.73,0,0,1-.72-.12,2,2,0,0,0-.76-.17C98.19,69.18,98.15,69.13,98.11,69.08Z"/><path class="cls-94" d="M105.9,68.9a3.72,3.72,0,0,1,2.11-.3,5.54,5.54,0,0,0,1.15,0v.08c-.29,0-.58,0-.87,0a2.79,2.79,0,0,0-.86.12c-.33.08-.69.11-1,.16A1.71,1.71,0,0,1,105.9,68.9Z"/><path class="cls-94" d="M105.72,68.91l0-.31a.8.8,0,0,1,.09.3Z"/><path class="cls-53" d="M114.26,41.61a7.6,7.6,0,0,0-2.07.23l-.13,0c-.33.08-.4.08-.38-.28a1.42,1.42,0,0,0,0-.36,9.06,9.06,0,0,0-1.25-2.67s-.07-.06-.1-.1.11-.18.16-.27h0l.09-.07h0a.18.18,0,0,1,.11-.08.08.08,0,0,0,.08,0l.09-.06.09,0c.09-.06.2,0,.28-.07a9.79,9.79,0,0,1,1.21,0,.85.85,0,0,1,.61.28,2.29,2.29,0,0,1,.69,1.13,2.64,2.64,0,0,0,.12.4,5.84,5.84,0,0,1,.44,1.65.77.77,0,0,0,.07.16Z"/><path class="cls-95" d="M112,36a2.2,2.2,0,0,1-.95-1,10.49,10.49,0,0,0,.85-1.11c.36-.22.71,0,1.07,0a3.53,3.53,0,0,1,.54.13c.17,0,.36,0,.43-.15s-.1-.33-.28-.41-.46-.07-.63-.27-.36,0-.55-.12a17.84,17.84,0,0,0,.94-1.85c.14.12.29.23.42.35a1.4,1.4,0,0,1,.38.57l.18.42c0,.17,0,.34,0,.51a2.94,2.94,0,0,1-.8,2.38,1.59,1.59,0,0,1-1.46.54Z"/><path class="cls-23" d="M113.54,31.14a.11.11,0,0,1,.08-.09Z"/><path class="cls-96" d="M102.67,61.38l0,.35a1,1,0,0,1,.15.42q0,.78-.06,1.56c0,.47-.09.56-.55.6l-.83.07a.88.88,0,0,1-.39.08l-.11.05a1.54,1.54,0,0,0-.27.07l-.09,0-.16,0a.19.19,0,0,1-.1,0,.37.37,0,0,0-.17,0,7.12,7.12,0,0,0-1.81.9c-.08,0-.09,0-.09-.07,0-1,0-1.91,0-2.86a2.28,2.28,0,0,0-.05-.78v-.44c.83,0,1.66,0,2.5,0C101.31,61.4,102,61.4,102.67,61.38Z"/><path class="cls-97" d="M101.28,64.36a4.28,4.28,0,0,1,1.23-.2c.11,0,.17,0,.17-.16s0-.37,0-.55a7,7,0,0,1,0-1.21.83.83,0,0,0,0-.27.48.48,0,0,1,0-.29.29.29,0,0,0,0-.09.33.33,0,0,1,.36-.38l0,.09a1.32,1.32,0,0,1,.1.76c0,.38,0,.77,0,1.15a1.51,1.51,0,0,0,.37,1.27.23.23,0,0,1,.06.26s0,.06,0,.08a.27.27,0,0,1-.28.18c-.33-.52-.88-.49-1.4-.55a3.87,3.87,0,0,0-1.35.23,1.77,1.77,0,0,1-.32,0s0,0,0-.06,0,0,0,0h0c.06,0,.14,0,.2-.08v0h0c.1-.06.23,0,.32-.09h0C101,64.36,101.17,64.46,101.28,64.36Z"/><path class="cls-98" d="M102,64.45a5.43,5.43,0,0,1,.7,0c.33,0,.64.14.7.54v.11a2.29,2.29,0,0,1-.23-.21,1.09,1.09,0,0,0-.93-.36H102Z"/><path class="cls-99" d="M100.34,64.63v.1h-.22A.27.27,0,0,1,100.34,64.63Z"/><path class="cls-96" d="M103.69,64.74c-.11-.12-.23-.25-.35-.36a.49.49,0,0,1-.18-.41c0-.21,0-.43,0-.64,0-.68,0-1.35,0-2l3.85-.08a3.41,3.41,0,0,0,.54-.1l0,.54a1,1,0,0,0-.06.45c0,.61,0,1.23,0,1.84v.44c-.14,0-.2,0-.26-.09a1.79,1.79,0,0,0-1.53-.32,6.28,6.28,0,0,0-1.77.65C103.86,64.67,103.79,64.74,103.69,64.74Z"/><path class="cls-100" d="M98.68,53.8h.51s0,.06,0,.07h-.49Z"/><path class="cls-101" d="M113,33.26a2.23,2.23,0,0,1,.81.19.42.42,0,0,1,.26.56.45.45,0,0,1-.53.25,2,2,0,0,1-.26-.09,2.93,2.93,0,0,0-.77-.16l-.64-.06a1.05,1.05,0,0,1-.11-.43.38.38,0,0,1,.18-.25,1.33,1.33,0,0,1,.53,0A1.56,1.56,0,0,0,113,33.26Z"/><path class="cls-3" d="M96.08,44.31a1.63,1.63,0,0,0-.12.53.29.29,0,0,1,0,.13l0,.16c-.09.92,0,1.84,0,2.76,0,.17,0,.35,0,.51a.45.45,0,0,0,0,.28,2.44,2.44,0,0,0,0,.54l0,1.09a.66.66,0,0,0,.15.51h0c.07,0,.06.14.09.21l.11.52a4.59,4.59,0,0,1-.1,1.11h0l-.08.08,0,0s-.12,0-.17.07-.3-.2-.46-.27a.19.19,0,0,1-.09-.11h0c-.08,0-.07-.13-.1-.19h0c-.11-.07,0-.2-.1-.28h0c-.09-.08,0-.21-.09-.3a0,0,0,0,0,0-.06c-.1-.08,0-.25-.16-.31-.13.13-.07.28,0,.44s0,0,0,0,0,.21.08.31l0,.25a2.11,2.11,0,0,1,0,.83.07.07,0,0,0,0,.07c0,.07,0,.16-.08.21h0s0,.14-.1.18h0l-.07.1v0a.35.35,0,0,1-.35.12.11.11,0,0,1-.1-.06h0a.16.16,0,0,1-.1-.08h0l-.09-.08h0a.17.17,0,0,1-.08-.13s0,0,0,0a10.74,10.74,0,0,1,0-1.5,1.4,1.4,0,0,0,0-.54h0c-.07-.05-.13-.06-.19,0s0,0,0,.07,0,.33-.06.49l0,.34c-.08.16,0,.34-.08.49a.06.06,0,0,0,0,.07,2,2,0,0,1-.18.58c-.12.11-.25.14-.37,0a10.4,10.4,0,0,1-.07-2,3.53,3.53,0,0,0,0-.46.12.12,0,0,0-.09-.09.15.15,0,0,0-.15.08.16.16,0,0,0,0,.09,7.86,7.86,0,0,0-.11,1.19.3.3,0,0,0,0,.23c-.07.13,0,.29-.08.41l-.2.47L92,53.5v0a.16.16,0,0,0-.08.08h0a.39.39,0,0,1-.11.06h-.06a.39.39,0,0,0-.11-.06l0,0a.16.16,0,0,0-.07-.09h0s-.06-.06-.07-.1h0a6.11,6.11,0,0,1,0-1.76,3.07,3.07,0,0,0,.1-1.38,5.8,5.8,0,0,1,.09-1.95.06.06,0,0,0,0-.08,1.27,1.27,0,0,0,.06-.18c0-.62.09-1.25.13-1.87h0c.09-.12,0-.27.08-.38a5.6,5.6,0,0,0,.22-1.21A13.6,13.6,0,0,0,92.28,43a2.46,2.46,0,0,0,.12-.76c.07-.42.11-.85.16-1.27,0-.08.07-.06.11,0l.09.05.12.07.08,0,.14.06.09,0,.28,0a.45.45,0,0,1,.2,0c.77.17,1.53.36,2.29.58.6.17.61.17.44.78,0,.06,0,.12-.05.17a2.23,2.23,0,0,0-.14.67A3.7,3.7,0,0,0,96.08,44.31Z"/><path class="cls-81" d="M91.62,48.31c0,.12,0,.24,0,.36,0,.53,0,1.06-.08,1.59a.23.23,0,0,1-.1-.2,6.55,6.55,0,0,1,.11-1.65S91.59,48.34,91.62,48.31Z"/><path class="cls-50" d="M91.43,51.64c0,.44,0,.87,0,1.3,0,.15,0,.3,0,.46h-.1V51.94C91.34,51.83,91.33,51.72,91.43,51.64Z"/><path class="cls-47" d="M111.21,37.83a.35.35,0,0,1-.28.07C111,37.8,111.11,37.82,111.21,37.83Z"/><path class="cls-47" d="M110.56,38.11a.08.08,0,0,1-.09.07Z"/><path class="cls-47" d="M110.67,38a.11.11,0,0,1-.11.08A.12.12,0,0,1,110.67,38Z"/><path class="cls-47" d="M110.84,37.92a.1.1,0,0,1-.09.06Z"/><path class="cls-102" d="M107.12,37.83a.82.82,0,0,1-.35.2c-.22.09-.27.06-.4-.21l.09-.09a.26.26,0,0,0,.33.06A.3.3,0,0,1,107.12,37.83Z"/><path class="cls-103" d="M107.78,37.82c-.12,0-.1-.16-.2-.18a.21.21,0,0,1,.19-.09.14.14,0,0,0,0,.09Z"/><path class="cls-102" d="M107.33,37.73a.18.18,0,0,1-.21.09A.2.2,0,0,1,107.33,37.73Z"/><path class="cls-102" d="M106.48,37.72c0-.06,0-.08.07-.07S106.52,37.72,106.48,37.72Z"/><path class="cls-27" d="M93.76,51.46c.09.1,0,.23,0,.35,0,.56,0,1.13,0,1.69-.1-.07-.09-.18-.09-.29C93.75,52.63,93.75,52,93.76,51.46Z"/><path class="cls-27" d="M93.49,52a.82.82,0,0,1,.06-.49l0,.3a.13.13,0,0,1,0,.19h-.07Z"/><path class="cls-51" d="M94.21,53.88a.43.43,0,0,0,.38-.08.18.18,0,0,1-.2.17h-.18a.07.07,0,0,1,0-.06Z"/><path class="cls-27" d="M93.57,51.46c.07-.13.11-.13.19,0Z"/><path class="cls-51" d="M94.77,53.5a.25.25,0,0,1,.08-.21v.21Z"/><path class="cls-51" d="M94.67,53.68a.19.19,0,0,1,.1-.18A.16.16,0,0,1,94.67,53.68Z"/><path class="cls-35" d="M93.56,52v-.19C93.66,51.9,93.66,52,93.56,52Z"/><path class="cls-27" d="M93.86,53.55a.18.18,0,0,1,.08.13A.12.12,0,0,1,93.86,53.55Z"/><path class="cls-27" d="M93.94,53.69a.09.09,0,0,1,.09.08A.11.11,0,0,1,93.94,53.69Z"/><path class="cls-51" d="M94.6,53.78a.1.1,0,0,1,.07-.1A.1.1,0,0,1,94.6,53.78Z"/><path class="cls-27" d="M94,53.78a.09.09,0,0,1,.1.08S94.05,53.83,94,53.78Z"/><path class="cls-27" d="M94.21,53.88V54a.14.14,0,0,1-.07-.11A.06.06,0,0,1,94.21,53.88Z"/><path class="cls-104" d="M94.76,51.78a.48.48,0,0,1-.08-.4.12.12,0,0,1,.07-.1.13.13,0,0,1,.16,0,.51.51,0,0,1,0,.32c-.1,0-.06-.18-.18-.19Z"/><path class="cls-104" d="M94.87,53.22v-.83A.93.93,0,0,1,94.87,53.22Z"/><path class="cls-104" d="M95,51.71a.41.41,0,0,1,.09.3C94.93,51.94,95,51.83,95,51.71Z"/><path class="cls-104" d="M94.85,52.14a.43.43,0,0,1-.08-.31C94.89,51.91,94.87,52,94.85,52.14Z"/><path class="cls-104" d="M95.06,52a.36.36,0,0,1,.1.28C95,52.23,95.05,52.12,95.06,52Z"/><path class="cls-104" d="M95.16,52.28a.24.24,0,0,1,.1.19A.14.14,0,0,1,95.16,52.28Z"/><path class="cls-61" d="M95.8,52.84a.23.23,0,0,1,.17-.08A.13.13,0,0,1,95.8,52.84Z"/><path class="cls-61" d="M96,52.75a.1.1,0,0,1,.08-.08A.11.11,0,0,1,96,52.75Z"/><path class="cls-104" d="M95.25,52.46a.13.13,0,0,1,.09.11A.13.13,0,0,1,95.25,52.46Z"/><path class="cls-27" d="M93.19,53.5a1.51,1.51,0,0,1,.18-.58A.58.58,0,0,1,93.19,53.5Z"/><path class="cls-27" d="M93.38,52.85a1,1,0,0,1,.08-.49C93.46,52.53,93.53,52.71,93.38,52.85Z"/><path class="cls-25" d="M92.27,52.94a.66.66,0,0,1,.08-.41C92.35,52.68,92.41,52.83,92.27,52.94Z"/><path class="cls-50" d="M91.78,53.67a.11.11,0,0,1,.11-.06A.1.1,0,0,1,91.78,53.67Z"/><path class="cls-50" d="M91.61,53.62l.11.06A.13.13,0,0,1,91.61,53.62Z"/><path class="cls-50" d="M91.91,53.6a.09.09,0,0,1,.08-.08Z"/><path class="cls-50" d="M91.52,53.51a.09.09,0,0,1,.07.09Z"/><path class="cls-50" d="M92,53.5a.11.11,0,0,1,.07-.09A.08.08,0,0,1,92,53.5Z"/><path class="cls-50" d="M91.44,53.4a.09.09,0,0,1,.07.1A.11.11,0,0,1,91.44,53.4Z"/><path class="cls-52" d="M95.52,36.26l.08.07Z"/><path class="cls-78" d="M95.71,36.41a.15.15,0,0,1,.13.1A.15.15,0,0,1,95.71,36.41Z"/><path class="cls-78" d="M95.61,36.33a.12.12,0,0,1,.1.09A.13.13,0,0,1,95.61,36.33Z"/><path class="cls-78" d="M95.88,36.53a.1.1,0,0,1,.1.08Z"/><path class="cls-39" d="M94.59,35.49a.11.11,0,0,1,.1.09A.13.13,0,0,1,94.59,35.49Z"/><path class="cls-4" d="M110.86,27.33a2.07,2.07,0,0,1,2,1.53.92.92,0,0,1,0,.59c-.06.17-.06.36-.11.54A2.16,2.16,0,0,1,111,31.55a2.05,2.05,0,0,1-2.34-1.92A2.21,2.21,0,0,1,110,27.55,2,2,0,0,1,110.86,27.33Z"/><path class="cls-4" d="M99.62,30.36a2.05,2.05,0,0,1-2.43,2,2.19,2.19,0,0,1-1.75-1.8,1.86,1.86,0,0,0-.08-.41.64.64,0,0,1,0-.41,2.09,2.09,0,0,1,2.74-1.46,2.45,2.45,0,0,1,1.33,1.22A1.78,1.78,0,0,1,99.62,30.36Z"/><path class="cls-96" d="M104.05,25.84h-.28a.19.19,0,0,1-.19-.16c-.1-.14,0-.27,0-.39a2.63,2.63,0,0,0-.07-2,1.33,1.33,0,0,1,0-.19.19.19,0,0,1,0-.13s.06-.06.07-.05a1.25,1.25,0,0,0,.69.12c.17,0,.24-.12.33-.21a2.68,2.68,0,0,1,2.06-.65c.17,0,.37,0,.45.18s-.11.29-.21.42a1.31,1.31,0,0,0-.34,1.48,1.15,1.15,0,0,0,1.06.7c.17,0,.38,0,.45.16s-.08.32-.18.46a2.39,2.39,0,0,1-3.4.5.89.89,0,0,0-.31-.19A.23.23,0,0,1,104.05,25.84Z"/><path class="cls-105" d="M103.59,23.17a3.1,3.1,0,0,1,.29,1.41,4.17,4.17,0,0,1-.3,1.1l-.15.17c-.25.27-.59.43-.76.77a2.56,2.56,0,0,1-3.94-1.34,2.6,2.6,0,0,1-.06-.92c0-.09.07-.2,0-.27a1,1,0,0,1,.2-.87,2.69,2.69,0,0,1,4.4-.43c0,.07.12.14.18.21a.06.06,0,0,0,0,.06A.41.41,0,0,0,103.59,23.17Z"/><path class="cls-105" d="M104.13,25.84a.17.17,0,0,1,.21,0,1.24,1.24,0,0,1,.22.18,1.9,1.9,0,0,0,1.64.46A2.48,2.48,0,0,0,108,25.25a.42.42,0,0,0,0-.13h-.47a1.26,1.26,0,0,1-1.19-1.55,1.5,1.5,0,0,1,.55-.93l.25-.19a2.42,2.42,0,0,0-1.68,0,2.9,2.9,0,0,0-.9.56.55.55,0,0,1-.18.13c-.07,0-.11,0-.13-.09A2.93,2.93,0,0,1,105.72,22a1.89,1.89,0,0,1,1.22-.06,3.65,3.65,0,0,1,1,.54,2.35,2.35,0,0,1,.66,1.88c0,.15,0,.3,0,.46a.08.08,0,0,1,0,.08c0,.06,0,.14-.08.21a2,2,0,0,1-.66,1A6.26,6.26,0,0,1,106,27a1.08,1.08,0,0,1-.59,0,1.66,1.66,0,0,1-1-.39C104.32,26.34,104,26.17,104.13,25.84Z"/><path class="cls-106" d="M101.21,21.48a1.5,1.5,0,0,1-.59-.1,2.53,2.53,0,0,0-1.28,0c-.18,0-.37,0-.55,0a.55.55,0,0,1-.18,0c-.1,0-.18-.07-.18-.18a.19.19,0,0,1,.12-.18l.13-.05,1-.23a1.67,1.67,0,0,1,.86,0,2.41,2.41,0,0,0,1.1,0c.29-.05.58-.08.88-.11a1.89,1.89,0,0,1,.41,0,.31.31,0,0,1,.25.34.3.3,0,0,1-.26.28,5.11,5.11,0,0,1-.55.05Z"/><path class="cls-106" d="M106.93,21a17.19,17.19,0,0,1-1.76,0,.82.82,0,0,1-.27-.06.17.17,0,0,1,0-.3l.16-.08a1.76,1.76,0,0,1,.5-.09l1.81-.1a10.75,10.75,0,0,1,1.39,0h.14a.35.35,0,0,1,.29.31.34.34,0,0,1-.32.33,1.82,1.82,0,0,1-.33,0A8.24,8.24,0,0,0,106.93,21Z"/><path class="cls-107" d="M106.7,31.62c-1.18.28-2.35.29-3.5.56-.08.1,0,.23,0,.34s-.09.13-.17.13a.2.2,0,0,1-.22-.14.24.24,0,0,1,0-.08c0-.34,0-.68,0-1,0-.08,0-.17.12-.16s.12.07.14.15,0,.31.12.39.3,0,.44,0a13.52,13.52,0,0,1,1.79-.25c.43,0,.84-.18,1.27-.23a.19.19,0,0,0,.17-.19c0-.09,0-.18,0-.27s.1-.25.18-.23.11.14.11.23c0,.32,0,.64,0,1a.29.29,0,0,1,0,.09c0,.09-.08.17-.19.17a.19.19,0,0,1-.19-.17A2,2,0,0,1,106.7,31.62Z"/><path class="cls-108" d="M106.49,28.42a.63.63,0,0,1-.23.62,2.77,2.77,0,0,1-.64.38.81.81,0,0,1-.27,0,.18.18,0,0,1-.2-.15.21.21,0,0,1,.1-.24.76.76,0,0,1,.21-.08,2.65,2.65,0,0,0,.54-.25.28.28,0,0,0,.15-.17.69.69,0,0,0-.39-.79.66.66,0,0,0-.37,0l-.68.13c-.22,0-.32,0-.4-.21a1.2,1.2,0,0,1-.14-.72.06.06,0,0,1,.06-.05.08.08,0,0,1,.08,0c.07.16.13.31.19.47s.09.16.25.14l.31-.07a2,2,0,0,1,.55,0,.9.9,0,0,1,.86.77C106.48,28.31,106.49,28.41,106.49,28.42Z"/><path class="cls-109" d="M104.44,38a.86.86,0,0,1-.21.07,9.61,9.61,0,0,1-2.88-.19l-.71-.19a3.64,3.64,0,0,1-.6-.43l-.11-.15a.06.06,0,0,1,0,0s0-.05.07-.05a.22.22,0,0,1,.13,0,3.6,3.6,0,0,0,1.74.55,10.22,10.22,0,0,0,2.41,0h.23c-.1.31-.37.22-.57.28C104.09,38,104.32,37.81,104.44,38Z"/><path class="cls-110" d="M91.88,32.38c.05-.13.19-.16.3-.23.22.36.43.73.66,1.09a3.23,3.23,0,0,0,.56.77c-.18,0-.31-.14-.47-.15s-.29.07-.45.06H91.21a.46.46,0,0,1,.34-.08h.83a.49.49,0,0,0,.33,0,2.6,2.6,0,0,0-.28-.45c-.1-.15-.21-.3-.3-.46A2.26,2.26,0,0,1,91.88,32.38Z"/><path class="cls-111" d="M108.62,24.84s-.08-.07-.08-.11a5.23,5.23,0,0,1-.11-1,1.5,1.5,0,0,0-.71-1.33c-.18-.13-.39-.23-.59-.35S107,22,106.94,22a2.05,2.05,0,0,1,1.75,1.61A1.91,1.91,0,0,1,108.62,24.84Z"/><path class="cls-112" d="M105.43,27a2.89,2.89,0,0,0,1.22-.33l.78-.39a.8.8,0,0,1,.43-.13,2.81,2.81,0,0,1-2.26.91A.58.58,0,0,1,105.43,27Z"/><path class="cls-113" d="M105.43,37.8h-.17c-.23-.05-.49,0-.66-.19l.16-.08a3,3,0,0,0,1-.4.18.18,0,0,1,.27.06.21.21,0,0,1,0,.26A2.38,2.38,0,0,1,105.43,37.8Z"/><path class="cls-114" d="M104.6,37.62c.23,0,.48,0,.66.19a1.82,1.82,0,0,1-.82.21l-.58,0c.23-.21.23-.21.46-.26a.29.29,0,0,0,.2-.09A.06.06,0,0,1,104.6,37.62Z"/><path class="cls-115" d="M102.67,26.62a.42.42,0,0,1,.22-.46,2.38,2.38,0,0,1,.54-.31A1.67,1.67,0,0,1,102.67,26.62Z"/><path class="cls-116" d="M104.13,25.84a.55.55,0,0,0,.12.24.91.91,0,0,1,.19.5.89.89,0,0,1-.35-.26.34.34,0,0,1,0-.48A.11.11,0,0,1,104.13,25.84Z"/><path class="cls-111" d="M108.52,25.13a.19.19,0,0,1,.08-.21A.18.18,0,0,1,108.52,25.13Z"/><path class="cls-60" d="M103.68,48.14c-.1.1-.23.07-.35.07a3.09,3.09,0,0,0-1,.09.37.37,0,0,1-.18,0H99.84a.65.65,0,0,1,.27,0l3.34-.12Z"/><path class="cls-117" d="M111.76,42.74,112,43l.09.09v.09s0,0,0,.07,0,0,0,0-.19-.12-.28-.19h0l-.08-.1v0c-.06,0,0-.13-.11-.16a.44.44,0,0,1-.19-.25c0-.06,0-.12,0-.18,0-.33,0-.33.42-.28a.66.66,0,0,0-.14.52Z"/><path class="cls-118" d="M111.75,43.11l.29.18,0,.05,0,0c.09.17.17.35.26.52a.73.73,0,0,1,.1.52c-.09-.07-.11-.18-.16-.27C112.08,43.81,111.92,43.46,111.75,43.11Z"/><path class="cls-119" d="M112.32,47.84a.76.76,0,0,1-.39.1h-1.22a2,2,0,0,1,.59-.07,4.57,4.57,0,0,0,.82-.09A.16.16,0,0,1,112.32,47.84Z"/><path class="cls-63" d="M99,48.4H97.9l.18-.06c.44,0,.89-.06,1.34,0,0,0,0,.05,0,.07s0,0,0,0Z"/><path class="cls-79" d="M98.77,44c0-.17-.07-.35.09-.49A.76.76,0,0,1,98.77,44Z"/><path class="cls-60" d="M99.41,48.39s0-.06,0-.09a.66.66,0,0,1,.37,0C99.69,48.44,99.54,48.39,99.41,48.39Z"/><path class="cls-86" d="M112.48,44.6a.15.15,0,0,1,.1.2A.23.23,0,0,1,112.48,44.6Z"/><path class="cls-118" d="M111.56,42.84a.14.14,0,0,1,.11.16A.21.21,0,0,1,111.56,42.84Z"/><path class="cls-56" d="M98.23,46.19a.16.16,0,0,1,.07-.2A.2.2,0,0,1,98.23,46.19Z"/><path class="cls-120" d="M100,46.79h0s0,0,0,0h0S100,46.78,100,46.79Z"/><path class="cls-119" d="M112.41,47.93l-.09-.09A.08.08,0,0,1,112.41,47.93Z"/><path class="cls-118" d="M111.68,43l.08.1C111.7,43.1,111.68,43.07,111.68,43Z"/><path class="cls-58" d="M96.06,51a.22.22,0,0,1-.09-.21C96.06,50.86,96.07,50.94,96.06,51Z"/><path class="cls-65" d="M102.74,61.68c0,.1,0,.19,0,.29a.25.25,0,0,1,0-.25S102.72,61.69,102.74,61.68Z"/><path class="cls-121" d="M96.35,42.83c0-.23.13-.44.07-.69-.89-.22-1.77-.52-2.67-.7a.83.83,0,0,1-.22-.08c.07-.28.39-.09.51-.28a1.81,1.81,0,0,1,.65.15c.08.2.25.09.38.1a1.22,1.22,0,0,1,.53.13,4.52,4.52,0,0,0,.72.2c.17,0,.16,0,.3-.16v.22c-.25.22.15.52-.09.74S96.48,42.74,96.35,42.83Z"/><path class="cls-122" d="M94,41.08l.12.17a1.19,1.19,0,0,0-.63.11l-.14,0c-.08-.07-.21,0-.28-.09h0c0-.06-.13,0-.19-.08h0c0-.07-.13-.05-.18-.1h0a.15.15,0,0,1,0-.2h0a.39.39,0,0,1,.3,0h0c.12.16.31,0,.44.1A1.39,1.39,0,0,1,94,41.08Z"/><path class="cls-123" d="M95.07,41.33a.33.33,0,0,1-.36.1c-.08,0-.08-.07,0-.2A.64.64,0,0,1,95.07,41.33Z"/><path class="cls-124" d="M92.72,40.87v.2L92.56,41c0-.17-.07-.35.07-.5v.18C92.63,40.77,92.64,40.84,92.72,40.87Z"/><path class="cls-124" d="M93.47,41H93.2a.16.16,0,0,1-.17-.11A1,1,0,0,1,93.47,41Z"/><path class="cls-124" d="M93,40.86h-.3C92.82,40.75,92.92,40.77,93,40.86Z"/><path class="cls-79" d="M98.76,42.09l-.09-.1Z"/><path class="cls-79" d="M98.67,41.81h-.08C98.62,41.75,98.64,41.76,98.67,41.81Z"/><path class="cls-75" d="M91.89,45.8a.51.51,0,0,1-.08.38C91.8,46.05,91.76,45.9,91.89,45.8Z"/><path class="cls-125" d="M96.54,42.46c0-.16,0-.33-.1-.47s0-.07,0-.11l.15-.16c.15.13.08.31.09.47a.6.6,0,0,1,0,.23C96.69,42.54,96.6,42.47,96.54,42.46Z"/><path class="cls-77" d="M95.8,47.93c0-.67,0-1.35,0-2v-.55a.33.33,0,0,1,.06-.22v2.8S95.83,48,95.8,47.93Z"/><path class="cls-58" d="M95.8,47.93h.08c0,.16.06.34-.09.47A1.24,1.24,0,0,1,95.8,47.93Z"/><path class="cls-77" d="M95.91,45a.12.12,0,0,1,0-.13L96,45h-.07Z"/><path class="cls-87" d="M112,43.29V43.2l.09.09h0a.06.06,0,0,1-.09,0Z"/><path class="cls-118" d="M112,43.11,112,43Z"/><path class="cls-118" d="M111.76,42.74l-.09-.09Z"/><path class="cls-117" d="M112,43.3h.09l-.09.1Z"/><path class="cls-99" d="M101.28,64.36c-.11.13-.25.1-.38.09A.47.47,0,0,1,101.28,64.36Z"/><path class="cls-99" d="M100.9,64.45c-.08.12-.2.1-.32.09A.32.32,0,0,1,100.9,64.45Z"/><path class="cls-99" d="M100.54,64.55a.18.18,0,0,1-.2.08A.19.19,0,0,1,100.54,64.55Z"/><path class="cls-124" d="M93.11,41.25a.26.26,0,0,1,.28.09A.27.27,0,0,1,93.11,41.25Z"/><path class="cls-124" d="M92.91,41.17a.15.15,0,0,1,.19.08A.16.16,0,0,1,92.91,41.17Z"/><path class="cls-124" d="M92.73,41.07a.16.16,0,0,1,.18.1A.15.15,0,0,1,92.73,41.07Z"/><path class="cls-3" d="M103.59,23.17a.09.09,0,0,1-.07-.11A.1.1,0,0,1,103.59,23.17Z"/><path class="cls-96" d="M103.19,25.31a.19.19,0,0,1,0,.18,2.3,2.3,0,0,1-4.29-1.22c0-.06,0-.14,0-.17a1.24,1.24,0,0,0,.28-.53,2.27,2.27,0,0,1,3-1.09c.19.09.21.12.06.25a2,2,0,0,0-.65,1.52,1,1,0,0,0,.93,1.06C102.74,25.33,103,25.31,103.19,25.31Z"/><path class="cls-126" d="M108.27,24.51a.25.25,0,0,1,0,.07s-.06,0-.06,0a.07.07,0,0,1,0-.06S108.25,24.5,108.27,24.51Z"/></svg>